G04 #@! TF.GenerationSoftware,KiCad,Pcbnew,(5.1.5)-3*
G04 #@! TF.CreationDate,2020-12-06T21:02:03-03:00*
G04 #@! TF.ProjectId,InversorPMSM,496e7665-7273-46f7-9250-4d534d2e6b69,rev?*
G04 #@! TF.SameCoordinates,Original*
G04 #@! TF.FileFunction,Copper,L3,Inr*
G04 #@! TF.FilePolarity,Positive*
%FSLAX46Y46*%
G04 Gerber Fmt 4.6, Leading zero omitted, Abs format (unit mm)*
G04 Created by KiCad (PCBNEW (5.1.5)-3) date 2020-12-06 21:02:03*
%MOMM*%
%LPD*%
G04 APERTURE LIST*
%ADD10O,1.600000X2.800000*%
%ADD11C,2.200000*%
%ADD12C,0.150000*%
%ADD13C,2.400000*%
%ADD14R,2.400000X2.400000*%
%ADD15O,1.700000X1.700000*%
%ADD16R,1.700000X1.700000*%
%ADD17C,0.800000*%
%ADD18C,7.500000*%
%ADD19C,6.400000*%
%ADD20O,1.727200X1.727200*%
%ADD21R,1.727200X1.727200*%
%ADD22O,2.000000X4.500000*%
%ADD23O,2.500000X4.500000*%
%ADD24C,2.500000*%
%ADD25C,0.250000*%
%ADD26C,0.500000*%
G04 APERTURE END LIST*
D10*
X147847000Y-68422000D03*
X134347000Y-68422000D03*
D11*
X138557000Y-71247000D03*
X143637000Y-71247000D03*
G04 #@! TA.AperFunction,ViaPad*
D12*
G36*
X139606755Y-66943461D02*
G01*
X139616134Y-66946306D01*
X139624779Y-66950927D01*
X139632355Y-66957145D01*
X139638573Y-66964721D01*
X139643194Y-66973366D01*
X139646039Y-66982745D01*
X139647000Y-66992500D01*
X139647000Y-71247000D01*
X139646280Y-71254304D01*
X139648974Y-71261058D01*
X139650760Y-71270695D01*
X139650880Y-71277399D01*
X139495940Y-74424459D01*
X139494591Y-74433541D01*
X139494591Y-74520135D01*
X139475353Y-74715461D01*
X139437063Y-74907960D01*
X139380088Y-75095780D01*
X139304979Y-75277110D01*
X139212457Y-75450205D01*
X139103415Y-75613399D01*
X138978902Y-75765118D01*
X138840118Y-75903902D01*
X138688399Y-76028415D01*
X138525205Y-76137457D01*
X138352110Y-76229979D01*
X138170780Y-76305088D01*
X137982960Y-76362063D01*
X137790461Y-76400353D01*
X137595135Y-76419591D01*
X137398865Y-76419591D01*
X137203539Y-76400353D01*
X137011040Y-76362063D01*
X136823220Y-76305088D01*
X136641890Y-76229979D01*
X136468795Y-76137457D01*
X136305601Y-76028415D01*
X136153882Y-75903902D01*
X136015098Y-75765118D01*
X135890585Y-75613399D01*
X135781543Y-75450205D01*
X135689021Y-75277110D01*
X135613912Y-75095780D01*
X135556937Y-74907960D01*
X135518647Y-74715461D01*
X135499409Y-74520135D01*
X135499409Y-74323865D01*
X135518647Y-74128539D01*
X135556937Y-73936040D01*
X135613912Y-73748220D01*
X135689021Y-73566890D01*
X135715688Y-73517000D01*
X135715833Y-73516408D01*
X135721546Y-73505043D01*
X135724116Y-73501232D01*
X135781543Y-73393795D01*
X135890585Y-73230601D01*
X135980640Y-73120869D01*
X137563046Y-70774543D01*
X137569297Y-70766993D01*
X137576901Y-70760807D01*
X137588689Y-70755066D01*
X137664860Y-70729676D01*
X137664860Y-66992500D01*
X137665821Y-66982745D01*
X137668666Y-66973366D01*
X137673287Y-66964721D01*
X137679505Y-66957145D01*
X137687081Y-66950927D01*
X137695726Y-66946306D01*
X137705105Y-66943461D01*
X137714860Y-66942500D01*
X139597000Y-66942500D01*
X139606755Y-66943461D01*
G37*
G04 #@! TD.AperFunction*
G04 #@! TA.AperFunction,ViaPad*
G36*
X144472255Y-66943461D02*
G01*
X144481634Y-66946306D01*
X144490279Y-66950927D01*
X144497855Y-66957145D01*
X144504073Y-66964721D01*
X144508694Y-66973366D01*
X144511539Y-66982745D01*
X144512500Y-66992500D01*
X144512500Y-70616432D01*
X144531195Y-70632975D01*
X144539543Y-70642506D01*
X146179298Y-73079365D01*
X146303415Y-73230601D01*
X146412457Y-73393795D01*
X146504979Y-73566890D01*
X146580088Y-73748220D01*
X146637063Y-73936040D01*
X146675353Y-74128539D01*
X146694591Y-74323865D01*
X146694591Y-74520135D01*
X146675353Y-74715461D01*
X146637063Y-74907960D01*
X146580088Y-75095780D01*
X146504979Y-75277110D01*
X146412457Y-75450205D01*
X146303415Y-75613399D01*
X146178902Y-75765118D01*
X146040118Y-75903902D01*
X145888399Y-76028415D01*
X145725205Y-76137457D01*
X145552110Y-76229979D01*
X145370780Y-76305088D01*
X145182960Y-76362063D01*
X144990461Y-76400353D01*
X144795135Y-76419591D01*
X144598865Y-76419591D01*
X144403539Y-76400353D01*
X144211040Y-76362063D01*
X144023220Y-76305088D01*
X143841890Y-76229979D01*
X143668795Y-76137457D01*
X143505601Y-76028415D01*
X143353882Y-75903902D01*
X143215098Y-75765118D01*
X143090585Y-75613399D01*
X142981543Y-75450205D01*
X142889021Y-75277110D01*
X142813912Y-75095780D01*
X142756937Y-74907960D01*
X142718647Y-74715461D01*
X142704661Y-74573463D01*
X142701931Y-74568434D01*
X142699025Y-74559073D01*
X142698058Y-74551411D01*
X142539944Y-71276188D01*
X142538787Y-71274779D01*
X142534166Y-71266134D01*
X142531321Y-71256755D01*
X142530360Y-71247000D01*
X142530360Y-66992500D01*
X142531321Y-66982745D01*
X142534166Y-66973366D01*
X142538787Y-66964721D01*
X142545005Y-66957145D01*
X142552581Y-66950927D01*
X142561226Y-66946306D01*
X142570605Y-66943461D01*
X142580360Y-66942500D01*
X144462500Y-66942500D01*
X144472255Y-66943461D01*
G37*
G04 #@! TD.AperFunction*
D13*
X137280000Y-68834000D03*
D14*
X144780000Y-68834000D03*
D15*
X85852000Y-139700000D03*
X85852000Y-137160000D03*
X85852000Y-134620000D03*
X85852000Y-132080000D03*
X85852000Y-129540000D03*
X85852000Y-127000000D03*
X85852000Y-124460000D03*
X85852000Y-121920000D03*
X85852000Y-119380000D03*
X85852000Y-116840000D03*
X85852000Y-114300000D03*
X85852000Y-111760000D03*
D16*
X85852000Y-109220000D03*
D17*
X211836000Y-61595000D03*
X209931000Y-60706000D03*
X208026000Y-61595000D03*
X207264000Y-63500000D03*
X208026000Y-65405000D03*
X209931000Y-66294000D03*
X211836000Y-65405000D03*
X212725000Y-63500000D03*
D18*
X209931000Y-63500000D03*
D17*
X201295000Y-61595000D03*
X199390000Y-60706000D03*
X197485000Y-61595000D03*
X196723000Y-63500000D03*
X197485000Y-65405000D03*
X199390000Y-66294000D03*
X201295000Y-65405000D03*
X202184000Y-63500000D03*
D18*
X199390000Y-63500000D03*
D17*
X174117000Y-61595000D03*
X172212000Y-60706000D03*
X170307000Y-61595000D03*
X169545000Y-63500000D03*
X170307000Y-65405000D03*
X172212000Y-66294000D03*
X174117000Y-65405000D03*
X175006000Y-63500000D03*
D18*
X172212000Y-63500000D03*
D17*
X190627000Y-61595000D03*
X188722000Y-60706000D03*
X186817000Y-61595000D03*
X186055000Y-63500000D03*
X186817000Y-65405000D03*
X188722000Y-66294000D03*
X190627000Y-65405000D03*
X191516000Y-63500000D03*
D18*
X188722000Y-63500000D03*
D17*
X162052000Y-61595000D03*
X160147000Y-60706000D03*
X158242000Y-61595000D03*
X157480000Y-63500000D03*
X158242000Y-65405000D03*
X160147000Y-66294000D03*
X162052000Y-65405000D03*
X162941000Y-63500000D03*
D18*
X160147000Y-63500000D03*
D14*
X125476000Y-68834000D03*
D13*
X117976000Y-68834000D03*
D15*
X85852000Y-82550000D03*
X85852000Y-80010000D03*
X85852000Y-77470000D03*
X85852000Y-74930000D03*
D16*
X85852000Y-72390000D03*
D17*
X90470056Y-149305944D03*
X88773000Y-148603000D03*
X87075944Y-149305944D03*
X86373000Y-151003000D03*
X87075944Y-152700056D03*
X88773000Y-153403000D03*
X90470056Y-152700056D03*
X91173000Y-151003000D03*
D19*
X88773000Y-151003000D03*
D17*
X90470056Y-62437944D03*
X88773000Y-61735000D03*
X87075944Y-62437944D03*
X86373000Y-64135000D03*
X87075944Y-65832056D03*
X88773000Y-66535000D03*
X90470056Y-65832056D03*
X91173000Y-64135000D03*
D19*
X88773000Y-64135000D03*
D17*
X230297056Y-62437944D03*
X228600000Y-61735000D03*
X226902944Y-62437944D03*
X226200000Y-64135000D03*
X226902944Y-65832056D03*
X228600000Y-66535000D03*
X230297056Y-65832056D03*
X231000000Y-64135000D03*
D19*
X228600000Y-64135000D03*
D17*
X230297056Y-149305944D03*
X228600000Y-148603000D03*
X226902944Y-149305944D03*
X226200000Y-151003000D03*
X226902944Y-152700056D03*
X228600000Y-153403000D03*
X230297056Y-152700056D03*
X231000000Y-151003000D03*
D19*
X228600000Y-151003000D03*
D20*
X97663000Y-139700000D03*
X95123000Y-139700000D03*
X97663000Y-137160000D03*
X95123000Y-137160000D03*
X97663000Y-134620000D03*
X95123000Y-134620000D03*
X97663000Y-132080000D03*
X95123000Y-132080000D03*
X97663000Y-129540000D03*
X95123000Y-129540000D03*
X97663000Y-127000000D03*
X95123000Y-127000000D03*
X97663000Y-124460000D03*
X95123000Y-124460000D03*
X97663000Y-121920000D03*
X95123000Y-121920000D03*
X97663000Y-119380000D03*
X95123000Y-119380000D03*
X97663000Y-116840000D03*
X95123000Y-116840000D03*
X97663000Y-114300000D03*
X95123000Y-114300000D03*
X97663000Y-111760000D03*
X95123000Y-111760000D03*
X97663000Y-109220000D03*
D21*
X95123000Y-109220000D03*
D22*
X216989000Y-143811500D03*
X211509000Y-143811500D03*
D23*
X208788000Y-143811500D03*
D22*
X214238000Y-143811500D03*
D23*
X219688000Y-143811500D03*
D22*
X216989000Y-107616500D03*
X211509000Y-107616500D03*
D23*
X208788000Y-107616500D03*
D22*
X214238000Y-107616500D03*
D23*
X219688000Y-107616500D03*
D22*
X187779000Y-143811500D03*
X182299000Y-143811500D03*
D23*
X179578000Y-143811500D03*
D22*
X185028000Y-143811500D03*
D23*
X190478000Y-143811500D03*
D22*
X187779000Y-107616500D03*
X182299000Y-107616500D03*
D23*
X179578000Y-107616500D03*
D22*
X185028000Y-107616500D03*
D23*
X190478000Y-107616500D03*
D22*
X158569000Y-143811500D03*
X153089000Y-143811500D03*
D23*
X150368000Y-143811500D03*
D22*
X155818000Y-143811500D03*
D23*
X161268000Y-143811500D03*
D22*
X158569000Y-107616500D03*
X153089000Y-107616500D03*
D23*
X150368000Y-107616500D03*
D22*
X155818000Y-107616500D03*
D23*
X161268000Y-107616500D03*
D17*
X125603000Y-137668000D03*
X115380000Y-128397000D03*
X127000000Y-106680000D03*
X115284500Y-130905500D03*
X127000000Y-111760000D03*
X115316000Y-133287000D03*
X127000000Y-116840000D03*
X158877000Y-97028000D03*
X157353000Y-97028000D03*
X155829000Y-97028000D03*
X154305000Y-97028000D03*
X149733000Y-97028000D03*
X152781000Y-97028000D03*
X151257000Y-97028000D03*
X160401000Y-97028000D03*
X161925000Y-97028000D03*
X152781000Y-95504000D03*
X155829000Y-95504000D03*
X157353000Y-95504000D03*
X158877000Y-95504000D03*
X151257000Y-95504000D03*
X149733000Y-95504000D03*
X154305000Y-95504000D03*
X160401000Y-95504000D03*
X161925000Y-95504000D03*
X152781000Y-93980000D03*
X157353000Y-93980000D03*
X158877000Y-93980000D03*
X151257000Y-93980000D03*
X161925000Y-93980000D03*
X154305000Y-93980000D03*
X155829000Y-93980000D03*
X160401000Y-93980000D03*
X149733000Y-93980000D03*
X157353000Y-92456000D03*
X155829000Y-92456000D03*
X154305000Y-92456000D03*
X160401000Y-92456000D03*
X158877000Y-92456000D03*
X152781000Y-92456000D03*
X161925000Y-92456000D03*
X151257000Y-92456000D03*
X149733000Y-92456000D03*
X152781000Y-90932000D03*
X161925000Y-90932000D03*
X160401000Y-90932000D03*
X155829000Y-90932000D03*
X149733000Y-90932000D03*
X151257000Y-90932000D03*
X157353000Y-90932000D03*
X158877000Y-90932000D03*
X154305000Y-90932000D03*
X151257000Y-89408000D03*
X154305000Y-89408000D03*
X155829000Y-89408000D03*
X157353000Y-89408000D03*
X149733000Y-89408000D03*
X158877000Y-89408000D03*
X160401000Y-89408000D03*
X161925000Y-89408000D03*
X152781000Y-89408000D03*
X161925000Y-87884000D03*
X158877000Y-87884000D03*
X152781000Y-87884000D03*
X149733000Y-87884000D03*
X151257000Y-87884000D03*
X160401000Y-87884000D03*
X152781000Y-86360000D03*
X151257000Y-86360000D03*
X149733000Y-86360000D03*
X161925000Y-86360000D03*
X158877000Y-86360000D03*
X160401000Y-86360000D03*
X149733000Y-84836000D03*
X151257000Y-84836000D03*
X158877000Y-84836000D03*
X161925000Y-84836000D03*
X160401000Y-84836000D03*
X152781000Y-84836000D03*
X158877000Y-83312000D03*
X152781000Y-83312000D03*
X149733000Y-83312000D03*
X160401000Y-83312000D03*
X151257000Y-83312000D03*
X161925000Y-83312000D03*
X157353000Y-83312000D03*
X154305000Y-83312000D03*
X155829000Y-83312000D03*
X158877000Y-81788000D03*
X152781000Y-81788000D03*
X154305000Y-81788000D03*
X149733000Y-81788000D03*
X160401000Y-81788000D03*
X151257000Y-81788000D03*
X155829000Y-81788000D03*
X157353000Y-81788000D03*
X161925000Y-81788000D03*
X181991000Y-97028000D03*
X185039000Y-97028000D03*
X186563000Y-97028000D03*
X188087000Y-97028000D03*
X180467000Y-97028000D03*
X178943000Y-97028000D03*
X183515000Y-97028000D03*
X189611000Y-97028000D03*
X191135000Y-97028000D03*
X181991000Y-95504000D03*
X186563000Y-95504000D03*
X186563000Y-93980000D03*
X185039000Y-93980000D03*
X188087000Y-95504000D03*
X183515000Y-93980000D03*
X189611000Y-93980000D03*
X188087000Y-93980000D03*
X181991000Y-93980000D03*
X180467000Y-95504000D03*
X191135000Y-95504000D03*
X183515000Y-95504000D03*
X191135000Y-93980000D03*
X180467000Y-93980000D03*
X185039000Y-95504000D03*
X178943000Y-93980000D03*
X189611000Y-95504000D03*
X178943000Y-95504000D03*
X191135000Y-89408000D03*
X181991000Y-92456000D03*
X186563000Y-89408000D03*
X188087000Y-89408000D03*
X180467000Y-90932000D03*
X183515000Y-90932000D03*
X191135000Y-92456000D03*
X185039000Y-90932000D03*
X181991000Y-89408000D03*
X189611000Y-92456000D03*
X186563000Y-90932000D03*
X183515000Y-89408000D03*
X178943000Y-89408000D03*
X178943000Y-90932000D03*
X188087000Y-90932000D03*
X185039000Y-92456000D03*
X180467000Y-89408000D03*
X189611000Y-89408000D03*
X185039000Y-89408000D03*
X178943000Y-92456000D03*
X180467000Y-92456000D03*
X189611000Y-90932000D03*
X191135000Y-90932000D03*
X186563000Y-92456000D03*
X181991000Y-90932000D03*
X188087000Y-92456000D03*
X183515000Y-92456000D03*
X188087000Y-84836000D03*
X188087000Y-83312000D03*
X178943000Y-86360000D03*
X181991000Y-87884000D03*
X181991000Y-84836000D03*
X181991000Y-83312000D03*
X178943000Y-84836000D03*
X183515000Y-83312000D03*
X178943000Y-83312000D03*
X189611000Y-83312000D03*
X180467000Y-87884000D03*
X180467000Y-83312000D03*
X178943000Y-87884000D03*
X185039000Y-83312000D03*
X191135000Y-87884000D03*
X180467000Y-86360000D03*
X189611000Y-84836000D03*
X180467000Y-84836000D03*
X186563000Y-83312000D03*
X188087000Y-86360000D03*
X188087000Y-87884000D03*
X191135000Y-84836000D03*
X191135000Y-86360000D03*
X189611000Y-86360000D03*
X191135000Y-83312000D03*
X181991000Y-86360000D03*
X189611000Y-87884000D03*
X185039000Y-81788000D03*
X186563000Y-81788000D03*
X178943000Y-81788000D03*
X183515000Y-81788000D03*
X189611000Y-81788000D03*
X180467000Y-81788000D03*
X188087000Y-81788000D03*
X181991000Y-81788000D03*
X191135000Y-81788000D03*
X211201000Y-97028000D03*
X214249000Y-97028000D03*
X215773000Y-97028000D03*
X217297000Y-97028000D03*
X209677000Y-97028000D03*
X208153000Y-97028000D03*
X212725000Y-97028000D03*
X218821000Y-97028000D03*
X220345000Y-97028000D03*
X211201000Y-95504000D03*
X215773000Y-95504000D03*
X215773000Y-93980000D03*
X214249000Y-93980000D03*
X217297000Y-95504000D03*
X212725000Y-93980000D03*
X218821000Y-93980000D03*
X217297000Y-93980000D03*
X211201000Y-93980000D03*
X209677000Y-95504000D03*
X220345000Y-95504000D03*
X212725000Y-95504000D03*
X220345000Y-93980000D03*
X209677000Y-93980000D03*
X214249000Y-95504000D03*
X208153000Y-93980000D03*
X218821000Y-95504000D03*
X208153000Y-95504000D03*
X220345000Y-89408000D03*
X211201000Y-92456000D03*
X215773000Y-89408000D03*
X217297000Y-89408000D03*
X209677000Y-90932000D03*
X212725000Y-90932000D03*
X220345000Y-92456000D03*
X214249000Y-90932000D03*
X211201000Y-89408000D03*
X218821000Y-92456000D03*
X215773000Y-90932000D03*
X212725000Y-89408000D03*
X208153000Y-89408000D03*
X208153000Y-90932000D03*
X217297000Y-90932000D03*
X214249000Y-92456000D03*
X209677000Y-89408000D03*
X218821000Y-89408000D03*
X214249000Y-89408000D03*
X208153000Y-92456000D03*
X209677000Y-92456000D03*
X218821000Y-90932000D03*
X220345000Y-90932000D03*
X215773000Y-92456000D03*
X211201000Y-90932000D03*
X217297000Y-92456000D03*
X212725000Y-92456000D03*
X217297000Y-84836000D03*
X217297000Y-83312000D03*
X208153000Y-86360000D03*
X211201000Y-87884000D03*
X211201000Y-84836000D03*
X211201000Y-83312000D03*
X208153000Y-84836000D03*
X212725000Y-83312000D03*
X208153000Y-83312000D03*
X218821000Y-83312000D03*
X209677000Y-87884000D03*
X209677000Y-83312000D03*
X208153000Y-87884000D03*
X214249000Y-83312000D03*
X220345000Y-87884000D03*
X209677000Y-86360000D03*
X218821000Y-84836000D03*
X209677000Y-84836000D03*
X215773000Y-83312000D03*
X217297000Y-86360000D03*
X217297000Y-87884000D03*
X220345000Y-84836000D03*
X220345000Y-86360000D03*
X218821000Y-86360000D03*
X220345000Y-83312000D03*
X211201000Y-86360000D03*
X218821000Y-87884000D03*
X214249000Y-81788000D03*
X215773000Y-81788000D03*
X208153000Y-81788000D03*
X212725000Y-81788000D03*
X218821000Y-81788000D03*
X209677000Y-81788000D03*
X217297000Y-81788000D03*
X211201000Y-81788000D03*
X220345000Y-81788000D03*
X170053000Y-140970000D03*
X199263000Y-140970000D03*
X228473000Y-140970000D03*
X170053000Y-130810000D03*
X170053000Y-128270000D03*
X199263000Y-128270000D03*
X228473000Y-128270000D03*
X228473000Y-130810000D03*
D24*
X199263000Y-126238000D03*
X170053000Y-126238000D03*
X228473000Y-126238000D03*
D17*
X123571000Y-136906000D03*
X127508000Y-154051000D03*
X127508000Y-146812000D03*
X127508000Y-152527000D03*
X126746000Y-149352000D03*
X212725000Y-131572000D03*
X211201000Y-131572000D03*
X214249000Y-131572000D03*
X215773000Y-131572000D03*
X218821000Y-131572000D03*
X209677000Y-131572000D03*
X217297000Y-131572000D03*
X220472000Y-131572000D03*
X208026000Y-131572000D03*
X217297000Y-119380000D03*
X211201000Y-119380000D03*
X218821000Y-119380000D03*
X208026000Y-119380000D03*
X209677000Y-119380000D03*
X220472000Y-119380000D03*
X218821000Y-117856000D03*
X217297000Y-117856000D03*
X211201000Y-117856000D03*
X209677000Y-117856000D03*
X208026000Y-117856000D03*
X220472000Y-117856000D03*
X209677000Y-133096000D03*
X217297000Y-133096000D03*
X208026000Y-133096000D03*
X218821000Y-133096000D03*
X220472000Y-133096000D03*
X212725000Y-133096000D03*
X214249000Y-133096000D03*
X211201000Y-133096000D03*
X215773000Y-133096000D03*
X211201000Y-130048000D03*
X212725000Y-130048000D03*
X215773000Y-130048000D03*
X214249000Y-130048000D03*
X220472000Y-130048000D03*
X217297000Y-130048000D03*
X209677000Y-130048000D03*
X208026000Y-130048000D03*
X218821000Y-130048000D03*
X209677000Y-128524000D03*
X217297000Y-128524000D03*
X220472000Y-128524000D03*
X208026000Y-128524000D03*
X211201000Y-128524000D03*
X218821000Y-128524000D03*
X212725000Y-128524000D03*
X215773000Y-128524000D03*
X214249000Y-128524000D03*
X217297000Y-127000000D03*
X214249000Y-127000000D03*
X211201000Y-127000000D03*
X212725000Y-127000000D03*
X208026000Y-127000000D03*
X220472000Y-127000000D03*
X215773000Y-127000000D03*
X218821000Y-127000000D03*
X209677000Y-127000000D03*
X215773000Y-125476000D03*
X211201000Y-125476000D03*
X208026000Y-125476000D03*
X218821000Y-125476000D03*
X209677000Y-125476000D03*
X217297000Y-125476000D03*
X220472000Y-125476000D03*
X214249000Y-125476000D03*
X212725000Y-125476000D03*
X208026000Y-123952000D03*
X211201000Y-123952000D03*
X218821000Y-123952000D03*
X217297000Y-123952000D03*
X209677000Y-123952000D03*
X220472000Y-123952000D03*
X208026000Y-122428000D03*
X217297000Y-122428000D03*
X209677000Y-122428000D03*
X117094000Y-96520000D03*
X126110992Y-96520000D03*
X107442000Y-96520000D03*
X86360000Y-87884000D03*
X198374000Y-108077000D03*
X130810000Y-85979000D03*
X140462000Y-82169000D03*
X145542000Y-83439000D03*
X141732000Y-84709000D03*
X143002000Y-82169000D03*
X144272000Y-83439000D03*
X141732000Y-83439000D03*
X140462000Y-85979000D03*
X141732000Y-82169000D03*
X144272000Y-85979000D03*
X145542000Y-82169000D03*
X145542000Y-85979000D03*
X144272000Y-82169000D03*
X145542000Y-84709000D03*
X143002000Y-85979000D03*
X143002000Y-84709000D03*
X141732000Y-85979000D03*
X140462000Y-83439000D03*
X140462000Y-84709000D03*
X144272000Y-84709000D03*
X143002000Y-83439000D03*
X140462000Y-80899000D03*
X141732000Y-80899000D03*
X144272000Y-80899000D03*
X143002000Y-80899000D03*
X145542000Y-80899000D03*
X107416500Y-143027500D03*
X100584000Y-153289000D03*
X97917000Y-69215000D03*
X118364000Y-79248000D03*
X117856000Y-107950000D03*
X109634952Y-107856952D03*
X110109000Y-110617000D03*
X117856000Y-109220000D03*
X110109000Y-112903000D03*
X117856000Y-110490000D03*
X110109000Y-115189000D03*
X117856000Y-111760000D03*
X110109000Y-117475000D03*
X117856000Y-113030000D03*
X110109000Y-119761000D03*
X117856000Y-114300000D03*
X107905500Y-83648500D03*
X107583000Y-149620000D03*
X94234000Y-78232000D03*
X99060000Y-77978000D03*
X103632000Y-62103000D03*
X109768000Y-93599000D03*
X99822000Y-94742000D03*
X112776000Y-148209000D03*
X93472000Y-148209000D03*
X118618000Y-93599000D03*
X103530500Y-70256500D03*
X110109000Y-127381000D03*
X135001000Y-143510000D03*
X129159000Y-138938000D03*
X130683000Y-127381000D03*
X114554000Y-136906000D03*
X128778000Y-131826000D03*
X114554000Y-138938000D03*
X117348000Y-147066000D03*
X220472000Y-122428000D03*
X211201000Y-122428000D03*
X218821000Y-122428000D03*
X211201000Y-120904000D03*
X217297000Y-120904000D03*
X220472000Y-120904000D03*
X209677000Y-120904000D03*
X218821000Y-120904000D03*
X208026000Y-120904000D03*
X181991000Y-131572000D03*
X186563000Y-131572000D03*
X188087000Y-131572000D03*
X180467000Y-131572000D03*
X191135000Y-131572000D03*
X183515000Y-131572000D03*
X185039000Y-131572000D03*
X189611000Y-131572000D03*
X178943000Y-131572000D03*
X188087000Y-119380000D03*
X181991000Y-119380000D03*
X183515000Y-119380000D03*
X178943000Y-119380000D03*
X189611000Y-119380000D03*
X180467000Y-119380000D03*
X185039000Y-119380000D03*
X186563000Y-119380000D03*
X191135000Y-119380000D03*
X185039000Y-117856000D03*
X186563000Y-117856000D03*
X178943000Y-117856000D03*
X183515000Y-117856000D03*
X189611000Y-117856000D03*
X180467000Y-117856000D03*
X188087000Y-117856000D03*
X181991000Y-117856000D03*
X191135000Y-117856000D03*
X181991000Y-120904000D03*
X178943000Y-120904000D03*
X188087000Y-120904000D03*
X180467000Y-120904000D03*
X189611000Y-120904000D03*
X191135000Y-120904000D03*
X191135000Y-122428000D03*
X189611000Y-122428000D03*
X180467000Y-122428000D03*
X188087000Y-122428000D03*
X183515000Y-125476000D03*
X186563000Y-125476000D03*
X185039000Y-125476000D03*
X178943000Y-122428000D03*
X181991000Y-122428000D03*
X180467000Y-123952000D03*
X178943000Y-123952000D03*
X189611000Y-123952000D03*
X191135000Y-123952000D03*
X181991000Y-123952000D03*
X188087000Y-123952000D03*
X191135000Y-125476000D03*
X178943000Y-125476000D03*
X181991000Y-125476000D03*
X189611000Y-125476000D03*
X180467000Y-125476000D03*
X188087000Y-125476000D03*
X186563000Y-127000000D03*
X188087000Y-127000000D03*
X178943000Y-127000000D03*
X189611000Y-127000000D03*
X180467000Y-127000000D03*
X185039000Y-127000000D03*
X191135000Y-127000000D03*
X183515000Y-127000000D03*
X181991000Y-127000000D03*
X186563000Y-128524000D03*
X181991000Y-128524000D03*
X185039000Y-128524000D03*
X183515000Y-128524000D03*
X191135000Y-128524000D03*
X188087000Y-128524000D03*
X189611000Y-128524000D03*
X178943000Y-128524000D03*
X180467000Y-128524000D03*
X186563000Y-130048000D03*
X191135000Y-130048000D03*
X180467000Y-130048000D03*
X185039000Y-130048000D03*
X178943000Y-130048000D03*
X189611000Y-130048000D03*
X183515000Y-130048000D03*
X181991000Y-130048000D03*
X188087000Y-130048000D03*
X183515000Y-133096000D03*
X191135000Y-133096000D03*
X178943000Y-133096000D03*
X185039000Y-133096000D03*
X186563000Y-133096000D03*
X180467000Y-133096000D03*
X181991000Y-133096000D03*
X189611000Y-133096000D03*
X188087000Y-133096000D03*
X161925000Y-127000000D03*
X152781000Y-125476000D03*
X151257000Y-127000000D03*
X149733000Y-127000000D03*
X158877000Y-131572000D03*
X157353000Y-125476000D03*
X160401000Y-125476000D03*
X154305000Y-130048000D03*
X155829000Y-125476000D03*
X149733000Y-128524000D03*
X155829000Y-127000000D03*
X160401000Y-133096000D03*
X152781000Y-130048000D03*
X160401000Y-131572000D03*
X157353000Y-131572000D03*
X157353000Y-128524000D03*
X154305000Y-133096000D03*
X152781000Y-133096000D03*
X152781000Y-128524000D03*
X158877000Y-133096000D03*
X151257000Y-131572000D03*
X158877000Y-125476000D03*
X160401000Y-128524000D03*
X161925000Y-133096000D03*
X151257000Y-125476000D03*
X158877000Y-128524000D03*
X160401000Y-130048000D03*
X154305000Y-128524000D03*
X158877000Y-120904000D03*
X158877000Y-130048000D03*
X151257000Y-128524000D03*
X158877000Y-119380000D03*
X154305000Y-131572000D03*
X161925000Y-130048000D03*
X155829000Y-133096000D03*
X151257000Y-130048000D03*
X152781000Y-127000000D03*
X157353000Y-127000000D03*
X149733000Y-122428000D03*
X152781000Y-123952000D03*
X157353000Y-130048000D03*
X155829000Y-130048000D03*
X152781000Y-120904000D03*
X161925000Y-131572000D03*
X157353000Y-133096000D03*
X154305000Y-127000000D03*
X149733000Y-130048000D03*
X152781000Y-119380000D03*
X151257000Y-133096000D03*
X149733000Y-125476000D03*
X149733000Y-133096000D03*
X161925000Y-125476000D03*
X152781000Y-131572000D03*
X154305000Y-125476000D03*
X149733000Y-120904000D03*
X149733000Y-131572000D03*
X161925000Y-128524000D03*
X155829000Y-131572000D03*
X158877000Y-127000000D03*
X160401000Y-127000000D03*
X155829000Y-128524000D03*
X155829000Y-119380000D03*
X149733000Y-119380000D03*
X157353000Y-117856000D03*
X152781000Y-117856000D03*
X160401000Y-119380000D03*
X154305000Y-117856000D03*
X161925000Y-123952000D03*
X151257000Y-123952000D03*
X161925000Y-117856000D03*
X157353000Y-119380000D03*
X160401000Y-123952000D03*
X158877000Y-122428000D03*
X155829000Y-117856000D03*
X160401000Y-120904000D03*
X151257000Y-119380000D03*
X152781000Y-122428000D03*
X149733000Y-123952000D03*
X151257000Y-120904000D03*
X160401000Y-122428000D03*
X158877000Y-117856000D03*
X158877000Y-123952000D03*
X151257000Y-117856000D03*
X161925000Y-119380000D03*
X149733000Y-117856000D03*
X161925000Y-122428000D03*
X151257000Y-122428000D03*
X154305000Y-119380000D03*
X161925000Y-120904000D03*
X160401000Y-117856000D03*
X117856000Y-106680000D03*
X105156000Y-78105000D03*
X110109000Y-122047000D03*
X100457000Y-75057000D03*
X95250000Y-69215000D03*
X93853000Y-84328000D03*
X130048000Y-133350000D03*
X114553996Y-143002000D03*
X215773000Y-119380000D03*
X212725000Y-117856000D03*
X215773000Y-117856000D03*
X214249000Y-119380000D03*
X214249000Y-117856000D03*
X212725000Y-119380000D03*
X219710000Y-111760000D03*
X190500000Y-111760000D03*
X161290000Y-110998000D03*
X103505000Y-123063000D03*
X103505000Y-125222000D03*
X117856000Y-116840000D03*
X136779000Y-145415000D03*
X142240000Y-151130000D03*
X91186000Y-102870000D03*
X89916000Y-102870000D03*
X88646000Y-102870000D03*
X100457000Y-73279000D03*
X100076000Y-69215000D03*
X95250000Y-84328000D03*
X100457000Y-71501000D03*
X105156000Y-69215000D03*
X96520000Y-84328000D03*
X100203000Y-99695004D03*
X97536000Y-94107000D03*
X92710000Y-99060000D03*
X109601000Y-99695000D03*
X118745000Y-99695000D03*
X89916000Y-99060006D03*
X86360000Y-95758000D03*
X99822000Y-86106000D03*
X110109000Y-124206000D03*
X117856000Y-118110000D03*
X117856000Y-115570000D03*
X107953750Y-127377250D03*
X117856000Y-119380000D03*
X134112000Y-107950000D03*
X143510000Y-129794000D03*
X146558000Y-146304000D03*
X131572000Y-121920000D03*
X127000000Y-113030000D03*
X167640000Y-119888000D03*
X131572000Y-123190000D03*
X175514000Y-146431000D03*
X198374000Y-120142000D03*
X123190000Y-115316000D03*
X131572000Y-125095000D03*
X204089000Y-146304000D03*
X171069000Y-128270000D03*
X172085000Y-128270000D03*
X172085000Y-127254000D03*
X172085000Y-126238000D03*
X172085000Y-125222000D03*
X172085000Y-124206000D03*
X171069000Y-124206000D03*
X170053000Y-124206000D03*
X169037000Y-124206000D03*
X168021000Y-124206000D03*
X168021000Y-125222000D03*
X168021000Y-126238000D03*
X169037000Y-125222000D03*
X171069000Y-125222000D03*
X171069000Y-127254000D03*
X169037000Y-127254000D03*
X168021000Y-127254000D03*
X168021000Y-128270000D03*
X169037000Y-128270000D03*
X229489000Y-128270000D03*
X230505000Y-128270000D03*
X230505000Y-127254000D03*
X230505000Y-126238000D03*
X230505000Y-125222000D03*
X230505000Y-124206000D03*
X229489000Y-124206000D03*
X228473000Y-124206000D03*
X227457000Y-124206000D03*
X226441000Y-124206000D03*
X226441000Y-126238000D03*
X226441000Y-125222000D03*
X226441000Y-127254000D03*
X226441000Y-128270000D03*
X227457000Y-128270000D03*
X227457000Y-127254000D03*
X227457000Y-125222000D03*
X229489000Y-125222000D03*
X229489000Y-127254000D03*
X200279000Y-128270000D03*
X201295000Y-128270000D03*
X201295000Y-127254000D03*
X201295000Y-126238000D03*
X201295000Y-125222000D03*
X201295000Y-124206000D03*
X200279000Y-124206000D03*
X199263000Y-124206000D03*
X198247000Y-124206000D03*
X197231000Y-124206000D03*
X197231000Y-125222000D03*
X197231000Y-126238000D03*
X197231000Y-127254000D03*
X197231000Y-128270000D03*
X198247000Y-128270000D03*
X198247000Y-127254000D03*
X200279000Y-127254000D03*
X200279000Y-125222000D03*
X198247000Y-125222000D03*
X132080000Y-85979000D03*
X133350000Y-85979000D03*
X134620000Y-85979000D03*
X135890000Y-85979000D03*
X133350000Y-84709000D03*
X134620000Y-84709000D03*
X132080000Y-84709000D03*
X135890000Y-84709000D03*
X130810000Y-84709000D03*
X132080000Y-83439000D03*
X134620000Y-83439000D03*
X130810000Y-83439000D03*
X133350000Y-83439000D03*
X135890000Y-83439000D03*
X133350000Y-82169000D03*
X132080000Y-82169000D03*
X135890000Y-82169000D03*
X130810000Y-82169000D03*
X134620000Y-82169000D03*
X135890000Y-80899000D03*
X132080000Y-80899000D03*
X133350000Y-80899000D03*
X130810000Y-80899000D03*
X134620000Y-80899000D03*
X127762000Y-148717000D03*
X133223000Y-144526000D03*
X127127000Y-127508000D03*
X117856000Y-120650000D03*
X111379000Y-153289000D03*
X112801500Y-123164500D03*
X199263000Y-130810000D03*
X140843000Y-137668000D03*
X115697000Y-151130000D03*
X142367000Y-136144000D03*
X117729000Y-131318000D03*
X139446000Y-141859000D03*
X199898000Y-108077000D03*
X140716000Y-114300000D03*
X140716000Y-110998000D03*
X140716000Y-107696000D03*
X199898000Y-112141000D03*
X90297000Y-116840000D03*
X91948000Y-133223000D03*
X102235000Y-138557000D03*
X135890000Y-141097000D03*
X143383000Y-139192000D03*
X140843000Y-139192000D03*
X140843000Y-153670000D03*
X110109000Y-137668000D03*
X110109000Y-139700000D03*
X110109000Y-141732000D03*
D25*
X170053000Y-141223994D02*
X169926006Y-141223994D01*
X92964000Y-134620000D02*
X94996000Y-134620000D01*
D26*
X95123000Y-134620000D02*
X93901686Y-134620000D01*
X93901686Y-134620000D02*
X93091000Y-134620000D01*
D25*
X93091000Y-134620000D02*
X92964000Y-134620000D01*
D26*
X91186000Y-134620000D02*
X93091000Y-134620000D01*
X99822000Y-94742000D02*
X99822000Y-89662000D01*
X99822000Y-89662000D02*
X101854000Y-87630000D01*
X101854000Y-87630000D02*
X101854000Y-85344000D01*
X99060000Y-82550000D02*
X99060000Y-77978000D01*
X101854000Y-85344000D02*
X99060000Y-82550000D01*
X99060000Y-77978000D02*
X99060000Y-71120000D01*
X99923500Y-70256500D02*
X103530500Y-70256500D01*
X99060000Y-71120000D02*
X99923500Y-70256500D01*
X103632000Y-70155000D02*
X103530500Y-70256500D01*
X103632000Y-62103000D02*
X103632000Y-70155000D01*
X118618000Y-93599000D02*
X115951000Y-90932000D01*
X112435000Y-90932000D02*
X109768000Y-93599000D01*
X115951000Y-90932000D02*
X112435000Y-90932000D01*
X100584000Y-79502000D02*
X99060000Y-77978000D01*
X102616000Y-79502000D02*
X100584000Y-79502000D01*
X103632000Y-78486000D02*
X102616000Y-79502000D01*
X103632000Y-77470000D02*
X103632000Y-78486000D01*
X109728000Y-93559000D02*
X109728000Y-79502000D01*
X109768000Y-93599000D02*
X109728000Y-93559000D01*
X109728000Y-79502000D02*
X106934000Y-76708000D01*
X106934000Y-76708000D02*
X104394000Y-76708000D01*
X104394000Y-76708000D02*
X103632000Y-77470000D01*
D25*
X133731000Y-143510000D02*
X135001000Y-143510000D01*
X129159000Y-138938000D02*
X133731000Y-143510000D01*
X130117315Y-127381000D02*
X128974315Y-128524000D01*
X130683000Y-127381000D02*
X130117315Y-127381000D01*
X128974315Y-128524000D02*
X117856000Y-128524000D01*
X117856000Y-128524000D02*
X116205000Y-126873000D01*
X110617000Y-126873000D02*
X110109000Y-127381000D01*
X116205000Y-126873000D02*
X110617000Y-126873000D01*
D26*
X112014000Y-106680000D02*
X117856000Y-106680000D01*
X97536000Y-111760000D02*
X106934000Y-111760000D01*
X106934000Y-111760000D02*
X112014000Y-106680000D01*
D25*
X103505000Y-123063000D02*
X101092000Y-125476000D01*
X101092000Y-125476000D02*
X101092000Y-133731000D01*
X101092000Y-133731000D02*
X101092000Y-134620000D01*
X101092000Y-134620000D02*
X98933000Y-136779000D01*
X98933000Y-136779000D02*
X98552000Y-137160000D01*
X98552000Y-137160000D02*
X97536000Y-137160000D01*
D26*
X102616000Y-110998000D02*
X98552000Y-110998000D01*
X98552000Y-110998000D02*
X97790000Y-111760000D01*
X105156000Y-78105000D02*
X105156000Y-108458000D01*
X105156000Y-108458000D02*
X102616000Y-110998000D01*
D25*
X98298000Y-112395000D02*
X97790000Y-111887000D01*
X100711000Y-112395000D02*
X98298000Y-112395000D01*
X97790000Y-111887000D02*
X97790000Y-111760000D01*
X103505000Y-123063000D02*
X103505000Y-115189000D01*
X103505000Y-115189000D02*
X100711000Y-112395000D01*
X91186000Y-102870000D02*
X91186000Y-130556000D01*
X91186000Y-130556000D02*
X92710000Y-132080000D01*
X92710000Y-132080000D02*
X94996000Y-132080000D01*
X91694000Y-128524000D02*
X92710000Y-129540000D01*
X90932000Y-101854000D02*
X91694000Y-101854000D01*
X89916000Y-102870000D02*
X90932000Y-101854000D01*
X92710000Y-129540000D02*
X95250000Y-129540000D01*
X92202000Y-103886000D02*
X91694000Y-104394000D01*
X91694000Y-104394000D02*
X91694000Y-128524000D01*
X91694000Y-101854000D02*
X92202000Y-102362000D01*
X92202000Y-102362000D02*
X92202000Y-103886000D01*
X95123000Y-127000000D02*
X92710000Y-127000000D01*
X92710000Y-127000000D02*
X92202000Y-126492000D01*
X92202000Y-126492000D02*
X92202000Y-104648000D01*
X92202000Y-104648000D02*
X92710000Y-104140000D01*
X92710000Y-104140000D02*
X92710000Y-102108000D01*
X92710000Y-102108000D02*
X91948000Y-101346000D01*
X90170000Y-101346000D02*
X88646000Y-102870000D01*
X91948000Y-101346000D02*
X90170000Y-101346000D01*
X143510000Y-129794000D02*
X143510000Y-129794000D01*
X143510000Y-123444000D02*
X143510000Y-129794000D01*
X134112000Y-107950000D02*
X134112000Y-114046000D01*
X134112000Y-114046000D02*
X143510000Y-123444000D01*
X167640000Y-119888000D02*
X167640000Y-119888000D01*
X164338000Y-115570000D02*
X167640000Y-118872000D01*
X126746000Y-105410000D02*
X135382000Y-105410000D01*
X125222000Y-112268000D02*
X125222000Y-106934000D01*
X127000000Y-113030000D02*
X125984000Y-113030000D01*
X125984000Y-113030000D02*
X125222000Y-112268000D01*
X125222000Y-106934000D02*
X126746000Y-105410000D01*
X135382000Y-105410000D02*
X137160000Y-107188000D01*
X137160000Y-107188000D02*
X137160000Y-115062000D01*
X138684000Y-116586000D02*
X144526000Y-116586000D01*
X144526000Y-116586000D02*
X145542000Y-115570000D01*
X167640000Y-118872000D02*
X167640000Y-119888000D01*
X137160000Y-115062000D02*
X138684000Y-116586000D01*
X145542000Y-115570000D02*
X164338000Y-115570000D01*
X198374000Y-120142000D02*
X198374000Y-120142000D01*
X198374000Y-117856000D02*
X198374000Y-120142000D01*
X194818000Y-114300000D02*
X198374000Y-117856000D01*
X144018000Y-114300000D02*
X194818000Y-114300000D01*
X143002000Y-115316000D02*
X144018000Y-114300000D01*
X138176000Y-114554000D02*
X138938000Y-115316000D01*
X123190000Y-115316000D02*
X123190000Y-107442000D01*
X126492000Y-104140000D02*
X135636000Y-104140000D01*
X123190000Y-107442000D02*
X126492000Y-104140000D01*
X135636000Y-104140000D02*
X138176000Y-106680000D01*
X138938000Y-115316000D02*
X143002000Y-115316000D01*
X138176000Y-106680000D02*
X138176000Y-114554000D01*
X199263000Y-130810000D02*
X199263000Y-134874000D01*
X199263000Y-134874000D02*
X196215000Y-137922000D01*
X196215000Y-137922000D02*
X176911000Y-137922000D01*
X176911000Y-137922000D02*
X171577000Y-143256000D01*
X171577000Y-143256000D02*
X167259000Y-143256000D01*
X167259000Y-143256000D02*
X162433000Y-138430000D01*
X162433000Y-138430000D02*
X141605000Y-138430000D01*
X141605000Y-138430000D02*
X140843000Y-137668000D01*
X140843000Y-137668000D02*
X140843000Y-137668000D01*
X115697000Y-151130000D02*
X115697000Y-151130000D01*
X123317000Y-131318000D02*
X117729000Y-131318000D01*
X128143000Y-136144000D02*
X123317000Y-131318000D01*
X164661315Y-136144000D02*
X128143000Y-136144000D01*
X170053000Y-140970000D02*
X169487315Y-140970000D01*
X169487315Y-140970000D02*
X164661315Y-136144000D01*
X117729000Y-131318000D02*
X117602000Y-131318000D01*
X170053000Y-134747000D02*
X170053000Y-130810000D01*
X170053000Y-138938000D02*
X170053000Y-134747000D01*
X171069000Y-139954000D02*
X170053000Y-138938000D01*
X164338000Y-136906000D02*
X169418000Y-141986000D01*
X123571000Y-136906000D02*
X164338000Y-136906000D01*
X169418000Y-141986000D02*
X170561000Y-141986000D01*
X170561000Y-141986000D02*
X171069000Y-141478000D01*
X171069000Y-141478000D02*
X171069000Y-139954000D01*
D26*
X89916000Y-134620000D02*
X91186000Y-134620000D01*
X88900000Y-105791000D02*
X88900000Y-133604000D01*
X86360000Y-103251000D02*
X88900000Y-105791000D01*
X88900000Y-133604000D02*
X89916000Y-134620000D01*
X94234000Y-80772000D02*
X88138000Y-86868000D01*
X88138000Y-98298000D02*
X86360000Y-100076000D01*
X94234000Y-78232000D02*
X94234000Y-80772000D01*
X88138000Y-86868000D02*
X88138000Y-98298000D01*
X86360000Y-100076000D02*
X86360000Y-103251000D01*
X96661000Y-149620000D02*
X107583000Y-149620000D01*
X88900000Y-141859000D02*
X96661000Y-149620000D01*
X88900000Y-135763000D02*
X88900000Y-141859000D01*
X91186000Y-134620000D02*
X90043000Y-134620000D01*
X90043000Y-134620000D02*
X88900000Y-135763000D01*
D25*
X199898000Y-107950000D02*
X199898000Y-107950000D01*
X205232000Y-102616000D02*
X199898000Y-107950000D01*
X223139000Y-112395000D02*
X223139000Y-104013000D01*
X221234000Y-114300000D02*
X223139000Y-112395000D01*
X206883000Y-114300000D02*
X221234000Y-114300000D01*
X221742000Y-102616000D02*
X205232000Y-102616000D01*
X146812000Y-149225000D02*
X196723000Y-149225000D01*
X223139000Y-104013000D02*
X221742000Y-102616000D01*
X139446000Y-141859000D02*
X146812000Y-149225000D01*
X196723000Y-149225000D02*
X203327000Y-142621000D01*
X203327000Y-117856000D02*
X206883000Y-114300000D01*
X203327000Y-142621000D02*
X203327000Y-117856000D01*
D26*
X97790000Y-76708000D02*
X99060000Y-77978000D01*
X93218000Y-76708000D02*
X97790000Y-76708000D01*
X92456000Y-77470000D02*
X93218000Y-76708000D01*
X92456000Y-79629000D02*
X92456000Y-77470000D01*
X84963000Y-103378000D02*
X84963000Y-87122000D01*
X93472000Y-148209000D02*
X87884000Y-142621000D01*
X87884000Y-106299000D02*
X84963000Y-103378000D01*
X87884000Y-142621000D02*
X87884000Y-106299000D01*
X84963000Y-87122000D02*
X92456000Y-79629000D01*
D25*
X141115999Y-113900001D02*
X140716000Y-114300000D01*
X141732000Y-113284000D02*
X141115999Y-113900001D01*
X219710000Y-111760000D02*
X218186000Y-113284000D01*
X218186000Y-113284000D02*
X141732000Y-113284000D01*
X141478000Y-111760000D02*
X140716000Y-110998000D01*
X190500000Y-111760000D02*
X141478000Y-111760000D01*
X161290000Y-110998000D02*
X144018000Y-110998000D01*
X144018000Y-110998000D02*
X141115999Y-108095999D01*
X141115999Y-108095999D02*
X140716000Y-107696000D01*
X90297000Y-116840000D02*
X90297000Y-131572000D01*
X90297000Y-131572000D02*
X91948000Y-133223000D01*
X91948000Y-133223000D02*
X91948000Y-133223000D01*
X141097000Y-146685000D02*
X132334000Y-146685000D01*
X102235000Y-141351000D02*
X102235000Y-138557000D01*
X197231000Y-150622000D02*
X145034000Y-150622000D01*
X204216000Y-100711000D02*
X222123000Y-100711000D01*
X132334000Y-146685000D02*
X130429000Y-144780000D01*
X224536000Y-113030000D02*
X222123000Y-115443000D01*
X199898000Y-112141000D02*
X197358000Y-109601000D01*
X222123000Y-100711000D02*
X224536000Y-103124000D01*
X204470000Y-143383000D02*
X197231000Y-150622000D01*
X130429000Y-144780000D02*
X105664000Y-144780000D01*
X197358000Y-109601000D02*
X197358000Y-107569000D01*
X105664000Y-144780000D02*
X102235000Y-141351000D01*
X224536000Y-103124000D02*
X224536000Y-113030000D01*
X197358000Y-107569000D02*
X204216000Y-100711000D01*
X222123000Y-115443000D02*
X207645000Y-115443000D01*
X207645000Y-115443000D02*
X204470000Y-118618000D01*
X145034000Y-150622000D02*
X141097000Y-146685000D01*
X204470000Y-118618000D02*
X204470000Y-143383000D01*
X135890000Y-141097000D02*
X135890000Y-141097000D01*
X137033000Y-141097000D02*
X135890000Y-141097000D01*
X223647000Y-103378000D02*
X223647000Y-112776000D01*
X223647000Y-112776000D02*
X221615000Y-114808000D01*
X198374000Y-108077000D02*
X204724000Y-101727000D01*
X221996000Y-101727000D02*
X223647000Y-103378000D01*
X203835000Y-143002000D02*
X196977000Y-149860000D01*
X204724000Y-101727000D02*
X221996000Y-101727000D01*
X196977000Y-149860000D02*
X145796000Y-149860000D01*
X221615000Y-114808000D02*
X207137000Y-114808000D01*
X145796000Y-149860000D02*
X137033000Y-141097000D01*
X207137000Y-114808000D02*
X203835000Y-118110000D01*
X203835000Y-118110000D02*
X203835000Y-143002000D01*
X225552000Y-137541000D02*
X228473000Y-134620000D01*
X225552000Y-143637000D02*
X225552000Y-137541000D01*
X133223000Y-152908000D02*
X216281000Y-152908000D01*
X117475000Y-152908000D02*
X124841000Y-152908000D01*
X126873000Y-154940000D02*
X131191000Y-154940000D01*
X216281000Y-152908000D02*
X225552000Y-143637000D01*
X115697000Y-151130000D02*
X117475000Y-152908000D01*
X228473000Y-134620000D02*
X228473000Y-130810000D01*
X131191000Y-154940000D02*
X133223000Y-152908000D01*
X124841000Y-152908000D02*
X126873000Y-154940000D01*
X140843000Y-139192000D02*
X140843000Y-139192000D01*
X177165000Y-138684000D02*
X171831000Y-144018000D01*
X196215000Y-138684000D02*
X177165000Y-138684000D01*
X171831000Y-144018000D02*
X167005000Y-144018000D01*
X162179000Y-139192000D02*
X140843000Y-139192000D01*
X199263000Y-140970000D02*
X198501000Y-140970000D01*
X198501000Y-140970000D02*
X196215000Y-138684000D01*
X167005000Y-144018000D02*
X162179000Y-139192000D01*
X140843000Y-153670000D02*
X140843000Y-153670000D01*
X141097000Y-153416000D02*
X140843000Y-153670000D01*
X216592685Y-153416000D02*
X141097000Y-153416000D01*
X228473000Y-140970000D02*
X228473000Y-141535685D01*
X228473000Y-141535685D02*
X216592685Y-153416000D01*
M02*
