G04 #@! TF.GenerationSoftware,KiCad,Pcbnew,(5.1.5)-3*
G04 #@! TF.CreationDate,2020-12-06T21:02:03-03:00*
G04 #@! TF.ProjectId,InversorPMSM,496e7665-7273-46f7-9250-4d534d2e6b69,rev?*
G04 #@! TF.SameCoordinates,Original*
G04 #@! TF.FileFunction,Copper,L2,Inr*
G04 #@! TF.FilePolarity,Positive*
%FSLAX46Y46*%
G04 Gerber Fmt 4.6, Leading zero omitted, Abs format (unit mm)*
G04 Created by KiCad (PCBNEW (5.1.5)-3) date 2020-12-06 21:02:03*
%MOMM*%
%LPD*%
G04 APERTURE LIST*
%ADD10O,1.600000X2.800000*%
%ADD11C,2.200000*%
%ADD12C,0.150000*%
%ADD13C,2.400000*%
%ADD14R,2.400000X2.400000*%
%ADD15O,1.700000X1.700000*%
%ADD16R,1.700000X1.700000*%
%ADD17C,0.800000*%
%ADD18C,7.500000*%
%ADD19C,6.400000*%
%ADD20O,1.727200X1.727200*%
%ADD21R,1.727200X1.727200*%
%ADD22O,2.000000X4.500000*%
%ADD23O,2.500000X4.500000*%
%ADD24C,2.500000*%
%ADD25C,0.254000*%
G04 APERTURE END LIST*
D10*
X147847000Y-68422000D03*
X134347000Y-68422000D03*
D11*
X138557000Y-71247000D03*
X143637000Y-71247000D03*
G04 #@! TA.AperFunction,ViaPad*
D12*
G36*
X139606755Y-66943461D02*
G01*
X139616134Y-66946306D01*
X139624779Y-66950927D01*
X139632355Y-66957145D01*
X139638573Y-66964721D01*
X139643194Y-66973366D01*
X139646039Y-66982745D01*
X139647000Y-66992500D01*
X139647000Y-71247000D01*
X139646280Y-71254304D01*
X139648974Y-71261058D01*
X139650760Y-71270695D01*
X139650880Y-71277399D01*
X139495940Y-74424459D01*
X139494591Y-74433541D01*
X139494591Y-74520135D01*
X139475353Y-74715461D01*
X139437063Y-74907960D01*
X139380088Y-75095780D01*
X139304979Y-75277110D01*
X139212457Y-75450205D01*
X139103415Y-75613399D01*
X138978902Y-75765118D01*
X138840118Y-75903902D01*
X138688399Y-76028415D01*
X138525205Y-76137457D01*
X138352110Y-76229979D01*
X138170780Y-76305088D01*
X137982960Y-76362063D01*
X137790461Y-76400353D01*
X137595135Y-76419591D01*
X137398865Y-76419591D01*
X137203539Y-76400353D01*
X137011040Y-76362063D01*
X136823220Y-76305088D01*
X136641890Y-76229979D01*
X136468795Y-76137457D01*
X136305601Y-76028415D01*
X136153882Y-75903902D01*
X136015098Y-75765118D01*
X135890585Y-75613399D01*
X135781543Y-75450205D01*
X135689021Y-75277110D01*
X135613912Y-75095780D01*
X135556937Y-74907960D01*
X135518647Y-74715461D01*
X135499409Y-74520135D01*
X135499409Y-74323865D01*
X135518647Y-74128539D01*
X135556937Y-73936040D01*
X135613912Y-73748220D01*
X135689021Y-73566890D01*
X135715688Y-73517000D01*
X135715833Y-73516408D01*
X135721546Y-73505043D01*
X135724116Y-73501232D01*
X135781543Y-73393795D01*
X135890585Y-73230601D01*
X135980640Y-73120869D01*
X137563046Y-70774543D01*
X137569297Y-70766993D01*
X137576901Y-70760807D01*
X137588689Y-70755066D01*
X137664860Y-70729676D01*
X137664860Y-66992500D01*
X137665821Y-66982745D01*
X137668666Y-66973366D01*
X137673287Y-66964721D01*
X137679505Y-66957145D01*
X137687081Y-66950927D01*
X137695726Y-66946306D01*
X137705105Y-66943461D01*
X137714860Y-66942500D01*
X139597000Y-66942500D01*
X139606755Y-66943461D01*
G37*
G04 #@! TD.AperFunction*
G04 #@! TA.AperFunction,ViaPad*
G36*
X144472255Y-66943461D02*
G01*
X144481634Y-66946306D01*
X144490279Y-66950927D01*
X144497855Y-66957145D01*
X144504073Y-66964721D01*
X144508694Y-66973366D01*
X144511539Y-66982745D01*
X144512500Y-66992500D01*
X144512500Y-70616432D01*
X144531195Y-70632975D01*
X144539543Y-70642506D01*
X146179298Y-73079365D01*
X146303415Y-73230601D01*
X146412457Y-73393795D01*
X146504979Y-73566890D01*
X146580088Y-73748220D01*
X146637063Y-73936040D01*
X146675353Y-74128539D01*
X146694591Y-74323865D01*
X146694591Y-74520135D01*
X146675353Y-74715461D01*
X146637063Y-74907960D01*
X146580088Y-75095780D01*
X146504979Y-75277110D01*
X146412457Y-75450205D01*
X146303415Y-75613399D01*
X146178902Y-75765118D01*
X146040118Y-75903902D01*
X145888399Y-76028415D01*
X145725205Y-76137457D01*
X145552110Y-76229979D01*
X145370780Y-76305088D01*
X145182960Y-76362063D01*
X144990461Y-76400353D01*
X144795135Y-76419591D01*
X144598865Y-76419591D01*
X144403539Y-76400353D01*
X144211040Y-76362063D01*
X144023220Y-76305088D01*
X143841890Y-76229979D01*
X143668795Y-76137457D01*
X143505601Y-76028415D01*
X143353882Y-75903902D01*
X143215098Y-75765118D01*
X143090585Y-75613399D01*
X142981543Y-75450205D01*
X142889021Y-75277110D01*
X142813912Y-75095780D01*
X142756937Y-74907960D01*
X142718647Y-74715461D01*
X142704661Y-74573463D01*
X142701931Y-74568434D01*
X142699025Y-74559073D01*
X142698058Y-74551411D01*
X142539944Y-71276188D01*
X142538787Y-71274779D01*
X142534166Y-71266134D01*
X142531321Y-71256755D01*
X142530360Y-71247000D01*
X142530360Y-66992500D01*
X142531321Y-66982745D01*
X142534166Y-66973366D01*
X142538787Y-66964721D01*
X142545005Y-66957145D01*
X142552581Y-66950927D01*
X142561226Y-66946306D01*
X142570605Y-66943461D01*
X142580360Y-66942500D01*
X144462500Y-66942500D01*
X144472255Y-66943461D01*
G37*
G04 #@! TD.AperFunction*
D13*
X137280000Y-68834000D03*
D14*
X144780000Y-68834000D03*
D15*
X85852000Y-139700000D03*
X85852000Y-137160000D03*
X85852000Y-134620000D03*
X85852000Y-132080000D03*
X85852000Y-129540000D03*
X85852000Y-127000000D03*
X85852000Y-124460000D03*
X85852000Y-121920000D03*
X85852000Y-119380000D03*
X85852000Y-116840000D03*
X85852000Y-114300000D03*
X85852000Y-111760000D03*
D16*
X85852000Y-109220000D03*
D17*
X211836000Y-61595000D03*
X209931000Y-60706000D03*
X208026000Y-61595000D03*
X207264000Y-63500000D03*
X208026000Y-65405000D03*
X209931000Y-66294000D03*
X211836000Y-65405000D03*
X212725000Y-63500000D03*
D18*
X209931000Y-63500000D03*
D17*
X201295000Y-61595000D03*
X199390000Y-60706000D03*
X197485000Y-61595000D03*
X196723000Y-63500000D03*
X197485000Y-65405000D03*
X199390000Y-66294000D03*
X201295000Y-65405000D03*
X202184000Y-63500000D03*
D18*
X199390000Y-63500000D03*
D17*
X174117000Y-61595000D03*
X172212000Y-60706000D03*
X170307000Y-61595000D03*
X169545000Y-63500000D03*
X170307000Y-65405000D03*
X172212000Y-66294000D03*
X174117000Y-65405000D03*
X175006000Y-63500000D03*
D18*
X172212000Y-63500000D03*
D17*
X190627000Y-61595000D03*
X188722000Y-60706000D03*
X186817000Y-61595000D03*
X186055000Y-63500000D03*
X186817000Y-65405000D03*
X188722000Y-66294000D03*
X190627000Y-65405000D03*
X191516000Y-63500000D03*
D18*
X188722000Y-63500000D03*
D17*
X162052000Y-61595000D03*
X160147000Y-60706000D03*
X158242000Y-61595000D03*
X157480000Y-63500000D03*
X158242000Y-65405000D03*
X160147000Y-66294000D03*
X162052000Y-65405000D03*
X162941000Y-63500000D03*
D18*
X160147000Y-63500000D03*
D14*
X125476000Y-68834000D03*
D13*
X117976000Y-68834000D03*
D15*
X85852000Y-82550000D03*
X85852000Y-80010000D03*
X85852000Y-77470000D03*
X85852000Y-74930000D03*
D16*
X85852000Y-72390000D03*
D17*
X90470056Y-149305944D03*
X88773000Y-148603000D03*
X87075944Y-149305944D03*
X86373000Y-151003000D03*
X87075944Y-152700056D03*
X88773000Y-153403000D03*
X90470056Y-152700056D03*
X91173000Y-151003000D03*
D19*
X88773000Y-151003000D03*
D17*
X90470056Y-62437944D03*
X88773000Y-61735000D03*
X87075944Y-62437944D03*
X86373000Y-64135000D03*
X87075944Y-65832056D03*
X88773000Y-66535000D03*
X90470056Y-65832056D03*
X91173000Y-64135000D03*
D19*
X88773000Y-64135000D03*
D17*
X230297056Y-62437944D03*
X228600000Y-61735000D03*
X226902944Y-62437944D03*
X226200000Y-64135000D03*
X226902944Y-65832056D03*
X228600000Y-66535000D03*
X230297056Y-65832056D03*
X231000000Y-64135000D03*
D19*
X228600000Y-64135000D03*
D17*
X230297056Y-149305944D03*
X228600000Y-148603000D03*
X226902944Y-149305944D03*
X226200000Y-151003000D03*
X226902944Y-152700056D03*
X228600000Y-153403000D03*
X230297056Y-152700056D03*
X231000000Y-151003000D03*
D19*
X228600000Y-151003000D03*
D20*
X97663000Y-139700000D03*
X95123000Y-139700000D03*
X97663000Y-137160000D03*
X95123000Y-137160000D03*
X97663000Y-134620000D03*
X95123000Y-134620000D03*
X97663000Y-132080000D03*
X95123000Y-132080000D03*
X97663000Y-129540000D03*
X95123000Y-129540000D03*
X97663000Y-127000000D03*
X95123000Y-127000000D03*
X97663000Y-124460000D03*
X95123000Y-124460000D03*
X97663000Y-121920000D03*
X95123000Y-121920000D03*
X97663000Y-119380000D03*
X95123000Y-119380000D03*
X97663000Y-116840000D03*
X95123000Y-116840000D03*
X97663000Y-114300000D03*
X95123000Y-114300000D03*
X97663000Y-111760000D03*
X95123000Y-111760000D03*
X97663000Y-109220000D03*
D21*
X95123000Y-109220000D03*
D22*
X216989000Y-143811500D03*
X211509000Y-143811500D03*
D23*
X208788000Y-143811500D03*
D22*
X214238000Y-143811500D03*
D23*
X219688000Y-143811500D03*
D22*
X216989000Y-107616500D03*
X211509000Y-107616500D03*
D23*
X208788000Y-107616500D03*
D22*
X214238000Y-107616500D03*
D23*
X219688000Y-107616500D03*
D22*
X187779000Y-143811500D03*
X182299000Y-143811500D03*
D23*
X179578000Y-143811500D03*
D22*
X185028000Y-143811500D03*
D23*
X190478000Y-143811500D03*
D22*
X187779000Y-107616500D03*
X182299000Y-107616500D03*
D23*
X179578000Y-107616500D03*
D22*
X185028000Y-107616500D03*
D23*
X190478000Y-107616500D03*
D22*
X158569000Y-143811500D03*
X153089000Y-143811500D03*
D23*
X150368000Y-143811500D03*
D22*
X155818000Y-143811500D03*
D23*
X161268000Y-143811500D03*
D22*
X158569000Y-107616500D03*
X153089000Y-107616500D03*
D23*
X150368000Y-107616500D03*
D22*
X155818000Y-107616500D03*
D23*
X161268000Y-107616500D03*
D17*
X125603000Y-137668000D03*
X115380000Y-128397000D03*
X127000000Y-106680000D03*
X115284500Y-130905500D03*
X127000000Y-111760000D03*
X115316000Y-133287000D03*
X127000000Y-116840000D03*
X158877000Y-97028000D03*
X157353000Y-97028000D03*
X155829000Y-97028000D03*
X154305000Y-97028000D03*
X149733000Y-97028000D03*
X152781000Y-97028000D03*
X151257000Y-97028000D03*
X160401000Y-97028000D03*
X161925000Y-97028000D03*
X152781000Y-95504000D03*
X155829000Y-95504000D03*
X157353000Y-95504000D03*
X158877000Y-95504000D03*
X151257000Y-95504000D03*
X149733000Y-95504000D03*
X154305000Y-95504000D03*
X160401000Y-95504000D03*
X161925000Y-95504000D03*
X152781000Y-93980000D03*
X157353000Y-93980000D03*
X158877000Y-93980000D03*
X151257000Y-93980000D03*
X161925000Y-93980000D03*
X154305000Y-93980000D03*
X155829000Y-93980000D03*
X160401000Y-93980000D03*
X149733000Y-93980000D03*
X157353000Y-92456000D03*
X155829000Y-92456000D03*
X154305000Y-92456000D03*
X160401000Y-92456000D03*
X158877000Y-92456000D03*
X152781000Y-92456000D03*
X161925000Y-92456000D03*
X151257000Y-92456000D03*
X149733000Y-92456000D03*
X152781000Y-90932000D03*
X161925000Y-90932000D03*
X160401000Y-90932000D03*
X155829000Y-90932000D03*
X149733000Y-90932000D03*
X151257000Y-90932000D03*
X157353000Y-90932000D03*
X158877000Y-90932000D03*
X154305000Y-90932000D03*
X151257000Y-89408000D03*
X154305000Y-89408000D03*
X155829000Y-89408000D03*
X157353000Y-89408000D03*
X149733000Y-89408000D03*
X158877000Y-89408000D03*
X160401000Y-89408000D03*
X161925000Y-89408000D03*
X152781000Y-89408000D03*
X161925000Y-87884000D03*
X158877000Y-87884000D03*
X152781000Y-87884000D03*
X149733000Y-87884000D03*
X151257000Y-87884000D03*
X160401000Y-87884000D03*
X152781000Y-86360000D03*
X151257000Y-86360000D03*
X149733000Y-86360000D03*
X161925000Y-86360000D03*
X158877000Y-86360000D03*
X160401000Y-86360000D03*
X149733000Y-84836000D03*
X151257000Y-84836000D03*
X158877000Y-84836000D03*
X161925000Y-84836000D03*
X160401000Y-84836000D03*
X152781000Y-84836000D03*
X158877000Y-83312000D03*
X152781000Y-83312000D03*
X149733000Y-83312000D03*
X160401000Y-83312000D03*
X151257000Y-83312000D03*
X161925000Y-83312000D03*
X157353000Y-83312000D03*
X154305000Y-83312000D03*
X155829000Y-83312000D03*
X158877000Y-81788000D03*
X152781000Y-81788000D03*
X154305000Y-81788000D03*
X149733000Y-81788000D03*
X160401000Y-81788000D03*
X151257000Y-81788000D03*
X155829000Y-81788000D03*
X157353000Y-81788000D03*
X161925000Y-81788000D03*
X181991000Y-97028000D03*
X185039000Y-97028000D03*
X186563000Y-97028000D03*
X188087000Y-97028000D03*
X180467000Y-97028000D03*
X178943000Y-97028000D03*
X183515000Y-97028000D03*
X189611000Y-97028000D03*
X191135000Y-97028000D03*
X181991000Y-95504000D03*
X186563000Y-95504000D03*
X186563000Y-93980000D03*
X185039000Y-93980000D03*
X188087000Y-95504000D03*
X183515000Y-93980000D03*
X189611000Y-93980000D03*
X188087000Y-93980000D03*
X181991000Y-93980000D03*
X180467000Y-95504000D03*
X191135000Y-95504000D03*
X183515000Y-95504000D03*
X191135000Y-93980000D03*
X180467000Y-93980000D03*
X185039000Y-95504000D03*
X178943000Y-93980000D03*
X189611000Y-95504000D03*
X178943000Y-95504000D03*
X191135000Y-89408000D03*
X181991000Y-92456000D03*
X186563000Y-89408000D03*
X188087000Y-89408000D03*
X180467000Y-90932000D03*
X183515000Y-90932000D03*
X191135000Y-92456000D03*
X185039000Y-90932000D03*
X181991000Y-89408000D03*
X189611000Y-92456000D03*
X186563000Y-90932000D03*
X183515000Y-89408000D03*
X178943000Y-89408000D03*
X178943000Y-90932000D03*
X188087000Y-90932000D03*
X185039000Y-92456000D03*
X180467000Y-89408000D03*
X189611000Y-89408000D03*
X185039000Y-89408000D03*
X178943000Y-92456000D03*
X180467000Y-92456000D03*
X189611000Y-90932000D03*
X191135000Y-90932000D03*
X186563000Y-92456000D03*
X181991000Y-90932000D03*
X188087000Y-92456000D03*
X183515000Y-92456000D03*
X188087000Y-84836000D03*
X188087000Y-83312000D03*
X178943000Y-86360000D03*
X181991000Y-87884000D03*
X181991000Y-84836000D03*
X181991000Y-83312000D03*
X178943000Y-84836000D03*
X183515000Y-83312000D03*
X178943000Y-83312000D03*
X189611000Y-83312000D03*
X180467000Y-87884000D03*
X180467000Y-83312000D03*
X178943000Y-87884000D03*
X185039000Y-83312000D03*
X191135000Y-87884000D03*
X180467000Y-86360000D03*
X189611000Y-84836000D03*
X180467000Y-84836000D03*
X186563000Y-83312000D03*
X188087000Y-86360000D03*
X188087000Y-87884000D03*
X191135000Y-84836000D03*
X191135000Y-86360000D03*
X189611000Y-86360000D03*
X191135000Y-83312000D03*
X181991000Y-86360000D03*
X189611000Y-87884000D03*
X185039000Y-81788000D03*
X186563000Y-81788000D03*
X178943000Y-81788000D03*
X183515000Y-81788000D03*
X189611000Y-81788000D03*
X180467000Y-81788000D03*
X188087000Y-81788000D03*
X181991000Y-81788000D03*
X191135000Y-81788000D03*
X211201000Y-97028000D03*
X214249000Y-97028000D03*
X215773000Y-97028000D03*
X217297000Y-97028000D03*
X209677000Y-97028000D03*
X208153000Y-97028000D03*
X212725000Y-97028000D03*
X218821000Y-97028000D03*
X220345000Y-97028000D03*
X211201000Y-95504000D03*
X215773000Y-95504000D03*
X215773000Y-93980000D03*
X214249000Y-93980000D03*
X217297000Y-95504000D03*
X212725000Y-93980000D03*
X218821000Y-93980000D03*
X217297000Y-93980000D03*
X211201000Y-93980000D03*
X209677000Y-95504000D03*
X220345000Y-95504000D03*
X212725000Y-95504000D03*
X220345000Y-93980000D03*
X209677000Y-93980000D03*
X214249000Y-95504000D03*
X208153000Y-93980000D03*
X218821000Y-95504000D03*
X208153000Y-95504000D03*
X220345000Y-89408000D03*
X211201000Y-92456000D03*
X215773000Y-89408000D03*
X217297000Y-89408000D03*
X209677000Y-90932000D03*
X212725000Y-90932000D03*
X220345000Y-92456000D03*
X214249000Y-90932000D03*
X211201000Y-89408000D03*
X218821000Y-92456000D03*
X215773000Y-90932000D03*
X212725000Y-89408000D03*
X208153000Y-89408000D03*
X208153000Y-90932000D03*
X217297000Y-90932000D03*
X214249000Y-92456000D03*
X209677000Y-89408000D03*
X218821000Y-89408000D03*
X214249000Y-89408000D03*
X208153000Y-92456000D03*
X209677000Y-92456000D03*
X218821000Y-90932000D03*
X220345000Y-90932000D03*
X215773000Y-92456000D03*
X211201000Y-90932000D03*
X217297000Y-92456000D03*
X212725000Y-92456000D03*
X217297000Y-84836000D03*
X217297000Y-83312000D03*
X208153000Y-86360000D03*
X211201000Y-87884000D03*
X211201000Y-84836000D03*
X211201000Y-83312000D03*
X208153000Y-84836000D03*
X212725000Y-83312000D03*
X208153000Y-83312000D03*
X218821000Y-83312000D03*
X209677000Y-87884000D03*
X209677000Y-83312000D03*
X208153000Y-87884000D03*
X214249000Y-83312000D03*
X220345000Y-87884000D03*
X209677000Y-86360000D03*
X218821000Y-84836000D03*
X209677000Y-84836000D03*
X215773000Y-83312000D03*
X217297000Y-86360000D03*
X217297000Y-87884000D03*
X220345000Y-84836000D03*
X220345000Y-86360000D03*
X218821000Y-86360000D03*
X220345000Y-83312000D03*
X211201000Y-86360000D03*
X218821000Y-87884000D03*
X214249000Y-81788000D03*
X215773000Y-81788000D03*
X208153000Y-81788000D03*
X212725000Y-81788000D03*
X218821000Y-81788000D03*
X209677000Y-81788000D03*
X217297000Y-81788000D03*
X211201000Y-81788000D03*
X220345000Y-81788000D03*
X170053000Y-140970000D03*
X199263000Y-140970000D03*
X228473000Y-140970000D03*
X170053000Y-130810000D03*
X170053000Y-128270000D03*
X199263000Y-128270000D03*
X228473000Y-128270000D03*
X228473000Y-130810000D03*
D24*
X199263000Y-126238000D03*
X170053000Y-126238000D03*
X228473000Y-126238000D03*
D17*
X123571000Y-136906000D03*
X127508000Y-154051000D03*
X127508000Y-146812000D03*
X127508000Y-152527000D03*
X126746000Y-149352000D03*
X212725000Y-131572000D03*
X211201000Y-131572000D03*
X214249000Y-131572000D03*
X215773000Y-131572000D03*
X218821000Y-131572000D03*
X209677000Y-131572000D03*
X217297000Y-131572000D03*
X220472000Y-131572000D03*
X208026000Y-131572000D03*
X217297000Y-119380000D03*
X211201000Y-119380000D03*
X218821000Y-119380000D03*
X208026000Y-119380000D03*
X209677000Y-119380000D03*
X220472000Y-119380000D03*
X218821000Y-117856000D03*
X217297000Y-117856000D03*
X211201000Y-117856000D03*
X209677000Y-117856000D03*
X208026000Y-117856000D03*
X220472000Y-117856000D03*
X209677000Y-133096000D03*
X217297000Y-133096000D03*
X208026000Y-133096000D03*
X218821000Y-133096000D03*
X220472000Y-133096000D03*
X212725000Y-133096000D03*
X214249000Y-133096000D03*
X211201000Y-133096000D03*
X215773000Y-133096000D03*
X211201000Y-130048000D03*
X212725000Y-130048000D03*
X215773000Y-130048000D03*
X214249000Y-130048000D03*
X220472000Y-130048000D03*
X217297000Y-130048000D03*
X209677000Y-130048000D03*
X208026000Y-130048000D03*
X218821000Y-130048000D03*
X209677000Y-128524000D03*
X217297000Y-128524000D03*
X220472000Y-128524000D03*
X208026000Y-128524000D03*
X211201000Y-128524000D03*
X218821000Y-128524000D03*
X212725000Y-128524000D03*
X215773000Y-128524000D03*
X214249000Y-128524000D03*
X217297000Y-127000000D03*
X214249000Y-127000000D03*
X211201000Y-127000000D03*
X212725000Y-127000000D03*
X208026000Y-127000000D03*
X220472000Y-127000000D03*
X215773000Y-127000000D03*
X218821000Y-127000000D03*
X209677000Y-127000000D03*
X215773000Y-125476000D03*
X211201000Y-125476000D03*
X208026000Y-125476000D03*
X218821000Y-125476000D03*
X209677000Y-125476000D03*
X217297000Y-125476000D03*
X220472000Y-125476000D03*
X214249000Y-125476000D03*
X212725000Y-125476000D03*
X208026000Y-123952000D03*
X211201000Y-123952000D03*
X218821000Y-123952000D03*
X217297000Y-123952000D03*
X209677000Y-123952000D03*
X220472000Y-123952000D03*
X208026000Y-122428000D03*
X217297000Y-122428000D03*
X209677000Y-122428000D03*
X117094000Y-96520000D03*
X126110992Y-96520000D03*
X107442000Y-96520000D03*
X86360000Y-87884000D03*
X198374000Y-108077000D03*
X130810000Y-85979000D03*
X140462000Y-82169000D03*
X145542000Y-83439000D03*
X141732000Y-84709000D03*
X143002000Y-82169000D03*
X144272000Y-83439000D03*
X141732000Y-83439000D03*
X140462000Y-85979000D03*
X141732000Y-82169000D03*
X144272000Y-85979000D03*
X145542000Y-82169000D03*
X145542000Y-85979000D03*
X144272000Y-82169000D03*
X145542000Y-84709000D03*
X143002000Y-85979000D03*
X143002000Y-84709000D03*
X141732000Y-85979000D03*
X140462000Y-83439000D03*
X140462000Y-84709000D03*
X144272000Y-84709000D03*
X143002000Y-83439000D03*
X140462000Y-80899000D03*
X141732000Y-80899000D03*
X144272000Y-80899000D03*
X143002000Y-80899000D03*
X145542000Y-80899000D03*
X107416500Y-143027500D03*
X100584000Y-153289000D03*
X97917000Y-69215000D03*
X118364000Y-79248000D03*
X117856000Y-107950000D03*
X109634952Y-107856952D03*
X110109000Y-110617000D03*
X117856000Y-109220000D03*
X110109000Y-112903000D03*
X117856000Y-110490000D03*
X110109000Y-115189000D03*
X117856000Y-111760000D03*
X110109000Y-117475000D03*
X117856000Y-113030000D03*
X110109000Y-119761000D03*
X117856000Y-114300000D03*
X107905500Y-83648500D03*
X107583000Y-149620000D03*
X94234000Y-78232000D03*
X99060000Y-77978000D03*
X103632000Y-62103000D03*
X109768000Y-93599000D03*
X99822000Y-94742000D03*
X112776000Y-148209000D03*
X93472000Y-148209000D03*
X118618000Y-93599000D03*
X103530500Y-70256500D03*
X110109000Y-127381000D03*
X135001000Y-143510000D03*
X129159000Y-138938000D03*
X130683000Y-127381000D03*
X114554000Y-136906000D03*
X128778000Y-131826000D03*
X114554000Y-138938000D03*
X117348000Y-147066000D03*
X220472000Y-122428000D03*
X211201000Y-122428000D03*
X218821000Y-122428000D03*
X211201000Y-120904000D03*
X217297000Y-120904000D03*
X220472000Y-120904000D03*
X209677000Y-120904000D03*
X218821000Y-120904000D03*
X208026000Y-120904000D03*
X181991000Y-131572000D03*
X186563000Y-131572000D03*
X188087000Y-131572000D03*
X180467000Y-131572000D03*
X191135000Y-131572000D03*
X183515000Y-131572000D03*
X185039000Y-131572000D03*
X189611000Y-131572000D03*
X178943000Y-131572000D03*
X188087000Y-119380000D03*
X181991000Y-119380000D03*
X183515000Y-119380000D03*
X178943000Y-119380000D03*
X189611000Y-119380000D03*
X180467000Y-119380000D03*
X185039000Y-119380000D03*
X186563000Y-119380000D03*
X191135000Y-119380000D03*
X185039000Y-117856000D03*
X186563000Y-117856000D03*
X178943000Y-117856000D03*
X183515000Y-117856000D03*
X189611000Y-117856000D03*
X180467000Y-117856000D03*
X188087000Y-117856000D03*
X181991000Y-117856000D03*
X191135000Y-117856000D03*
X181991000Y-120904000D03*
X178943000Y-120904000D03*
X188087000Y-120904000D03*
X180467000Y-120904000D03*
X189611000Y-120904000D03*
X191135000Y-120904000D03*
X191135000Y-122428000D03*
X189611000Y-122428000D03*
X180467000Y-122428000D03*
X188087000Y-122428000D03*
X183515000Y-125476000D03*
X186563000Y-125476000D03*
X185039000Y-125476000D03*
X178943000Y-122428000D03*
X181991000Y-122428000D03*
X180467000Y-123952000D03*
X178943000Y-123952000D03*
X189611000Y-123952000D03*
X191135000Y-123952000D03*
X181991000Y-123952000D03*
X188087000Y-123952000D03*
X191135000Y-125476000D03*
X178943000Y-125476000D03*
X181991000Y-125476000D03*
X189611000Y-125476000D03*
X180467000Y-125476000D03*
X188087000Y-125476000D03*
X186563000Y-127000000D03*
X188087000Y-127000000D03*
X178943000Y-127000000D03*
X189611000Y-127000000D03*
X180467000Y-127000000D03*
X185039000Y-127000000D03*
X191135000Y-127000000D03*
X183515000Y-127000000D03*
X181991000Y-127000000D03*
X186563000Y-128524000D03*
X181991000Y-128524000D03*
X185039000Y-128524000D03*
X183515000Y-128524000D03*
X191135000Y-128524000D03*
X188087000Y-128524000D03*
X189611000Y-128524000D03*
X178943000Y-128524000D03*
X180467000Y-128524000D03*
X186563000Y-130048000D03*
X191135000Y-130048000D03*
X180467000Y-130048000D03*
X185039000Y-130048000D03*
X178943000Y-130048000D03*
X189611000Y-130048000D03*
X183515000Y-130048000D03*
X181991000Y-130048000D03*
X188087000Y-130048000D03*
X183515000Y-133096000D03*
X191135000Y-133096000D03*
X178943000Y-133096000D03*
X185039000Y-133096000D03*
X186563000Y-133096000D03*
X180467000Y-133096000D03*
X181991000Y-133096000D03*
X189611000Y-133096000D03*
X188087000Y-133096000D03*
X161925000Y-127000000D03*
X152781000Y-125476000D03*
X151257000Y-127000000D03*
X149733000Y-127000000D03*
X158877000Y-131572000D03*
X157353000Y-125476000D03*
X160401000Y-125476000D03*
X154305000Y-130048000D03*
X155829000Y-125476000D03*
X149733000Y-128524000D03*
X155829000Y-127000000D03*
X160401000Y-133096000D03*
X152781000Y-130048000D03*
X160401000Y-131572000D03*
X157353000Y-131572000D03*
X157353000Y-128524000D03*
X154305000Y-133096000D03*
X152781000Y-133096000D03*
X152781000Y-128524000D03*
X158877000Y-133096000D03*
X151257000Y-131572000D03*
X158877000Y-125476000D03*
X160401000Y-128524000D03*
X161925000Y-133096000D03*
X151257000Y-125476000D03*
X158877000Y-128524000D03*
X160401000Y-130048000D03*
X154305000Y-128524000D03*
X158877000Y-120904000D03*
X158877000Y-130048000D03*
X151257000Y-128524000D03*
X158877000Y-119380000D03*
X154305000Y-131572000D03*
X161925000Y-130048000D03*
X155829000Y-133096000D03*
X151257000Y-130048000D03*
X152781000Y-127000000D03*
X157353000Y-127000000D03*
X149733000Y-122428000D03*
X152781000Y-123952000D03*
X157353000Y-130048000D03*
X155829000Y-130048000D03*
X152781000Y-120904000D03*
X161925000Y-131572000D03*
X157353000Y-133096000D03*
X154305000Y-127000000D03*
X149733000Y-130048000D03*
X152781000Y-119380000D03*
X151257000Y-133096000D03*
X149733000Y-125476000D03*
X149733000Y-133096000D03*
X161925000Y-125476000D03*
X152781000Y-131572000D03*
X154305000Y-125476000D03*
X149733000Y-120904000D03*
X149733000Y-131572000D03*
X161925000Y-128524000D03*
X155829000Y-131572000D03*
X158877000Y-127000000D03*
X160401000Y-127000000D03*
X155829000Y-128524000D03*
X155829000Y-119380000D03*
X149733000Y-119380000D03*
X157353000Y-117856000D03*
X152781000Y-117856000D03*
X160401000Y-119380000D03*
X154305000Y-117856000D03*
X161925000Y-123952000D03*
X151257000Y-123952000D03*
X161925000Y-117856000D03*
X157353000Y-119380000D03*
X160401000Y-123952000D03*
X158877000Y-122428000D03*
X155829000Y-117856000D03*
X160401000Y-120904000D03*
X151257000Y-119380000D03*
X152781000Y-122428000D03*
X149733000Y-123952000D03*
X151257000Y-120904000D03*
X160401000Y-122428000D03*
X158877000Y-117856000D03*
X158877000Y-123952000D03*
X151257000Y-117856000D03*
X161925000Y-119380000D03*
X149733000Y-117856000D03*
X161925000Y-122428000D03*
X151257000Y-122428000D03*
X154305000Y-119380000D03*
X161925000Y-120904000D03*
X160401000Y-117856000D03*
X117856000Y-106680000D03*
X105156000Y-78105000D03*
X110109000Y-122047000D03*
X100457000Y-75057000D03*
X95250000Y-69215000D03*
X93853000Y-84328000D03*
X130048000Y-133350000D03*
X114553996Y-143002000D03*
X215773000Y-119380000D03*
X212725000Y-117856000D03*
X215773000Y-117856000D03*
X214249000Y-119380000D03*
X214249000Y-117856000D03*
X212725000Y-119380000D03*
X219710000Y-111760000D03*
X190500000Y-111760000D03*
X161290000Y-110998000D03*
X103505000Y-123063000D03*
X103505000Y-125222000D03*
X117856000Y-116840000D03*
X136779000Y-145415000D03*
X142240000Y-151130000D03*
X91186000Y-102870000D03*
X89916000Y-102870000D03*
X88646000Y-102870000D03*
X100457000Y-73279000D03*
X100076000Y-69215000D03*
X95250000Y-84328000D03*
X100457000Y-71501000D03*
X105156000Y-69215000D03*
X96520000Y-84328000D03*
X100203000Y-99695004D03*
X97536000Y-94107000D03*
X92710000Y-99060000D03*
X109601000Y-99695000D03*
X118745000Y-99695000D03*
X89916000Y-99060006D03*
X86360000Y-95758000D03*
X99822000Y-86106000D03*
X110109000Y-124206000D03*
X117856000Y-118110000D03*
X117856000Y-115570000D03*
X107953750Y-127377250D03*
X117856000Y-119380000D03*
X134112000Y-107950000D03*
X143510000Y-129794000D03*
X146558000Y-146304000D03*
X131572000Y-121920000D03*
X127000000Y-113030000D03*
X167640000Y-119888000D03*
X131572000Y-123190000D03*
X175514000Y-146431000D03*
X198374000Y-120142000D03*
X123190000Y-115316000D03*
X131572000Y-125095000D03*
X204089000Y-146304000D03*
X171069000Y-128270000D03*
X172085000Y-128270000D03*
X172085000Y-127254000D03*
X172085000Y-126238000D03*
X172085000Y-125222000D03*
X172085000Y-124206000D03*
X171069000Y-124206000D03*
X170053000Y-124206000D03*
X169037000Y-124206000D03*
X168021000Y-124206000D03*
X168021000Y-125222000D03*
X168021000Y-126238000D03*
X169037000Y-125222000D03*
X171069000Y-125222000D03*
X171069000Y-127254000D03*
X169037000Y-127254000D03*
X168021000Y-127254000D03*
X168021000Y-128270000D03*
X169037000Y-128270000D03*
X229489000Y-128270000D03*
X230505000Y-128270000D03*
X230505000Y-127254000D03*
X230505000Y-126238000D03*
X230505000Y-125222000D03*
X230505000Y-124206000D03*
X229489000Y-124206000D03*
X228473000Y-124206000D03*
X227457000Y-124206000D03*
X226441000Y-124206000D03*
X226441000Y-126238000D03*
X226441000Y-125222000D03*
X226441000Y-127254000D03*
X226441000Y-128270000D03*
X227457000Y-128270000D03*
X227457000Y-127254000D03*
X227457000Y-125222000D03*
X229489000Y-125222000D03*
X229489000Y-127254000D03*
X200279000Y-128270000D03*
X201295000Y-128270000D03*
X201295000Y-127254000D03*
X201295000Y-126238000D03*
X201295000Y-125222000D03*
X201295000Y-124206000D03*
X200279000Y-124206000D03*
X199263000Y-124206000D03*
X198247000Y-124206000D03*
X197231000Y-124206000D03*
X197231000Y-125222000D03*
X197231000Y-126238000D03*
X197231000Y-127254000D03*
X197231000Y-128270000D03*
X198247000Y-128270000D03*
X198247000Y-127254000D03*
X200279000Y-127254000D03*
X200279000Y-125222000D03*
X198247000Y-125222000D03*
X132080000Y-85979000D03*
X133350000Y-85979000D03*
X134620000Y-85979000D03*
X135890000Y-85979000D03*
X133350000Y-84709000D03*
X134620000Y-84709000D03*
X132080000Y-84709000D03*
X135890000Y-84709000D03*
X130810000Y-84709000D03*
X132080000Y-83439000D03*
X134620000Y-83439000D03*
X130810000Y-83439000D03*
X133350000Y-83439000D03*
X135890000Y-83439000D03*
X133350000Y-82169000D03*
X132080000Y-82169000D03*
X135890000Y-82169000D03*
X130810000Y-82169000D03*
X134620000Y-82169000D03*
X135890000Y-80899000D03*
X132080000Y-80899000D03*
X133350000Y-80899000D03*
X130810000Y-80899000D03*
X134620000Y-80899000D03*
X127762000Y-148717000D03*
X133223000Y-144526000D03*
X127127000Y-127508000D03*
X117856000Y-120650000D03*
X111379000Y-153289000D03*
X112801500Y-123164500D03*
X199263000Y-130810000D03*
X140843000Y-137668000D03*
X115697000Y-151130000D03*
X142367000Y-136144000D03*
X117729000Y-131318000D03*
X139446000Y-141859000D03*
X199898000Y-108077000D03*
X140716000Y-114300000D03*
X140716000Y-110998000D03*
X140716000Y-107696000D03*
X199898000Y-112141000D03*
X90297000Y-116840000D03*
X91948000Y-133223000D03*
X102235000Y-138557000D03*
X135890000Y-141097000D03*
X143383000Y-139192000D03*
X140843000Y-139192000D03*
X140843000Y-153670000D03*
X110109000Y-137668000D03*
X110109000Y-139700000D03*
X110109000Y-141732000D03*
D25*
G36*
X136934722Y-59847754D02*
G01*
X136984432Y-60011314D01*
X137001911Y-60187665D01*
X137057251Y-144415070D01*
X136880939Y-144380000D01*
X136677061Y-144380000D01*
X136477102Y-144419774D01*
X136288744Y-144497795D01*
X136119226Y-144611063D01*
X135975063Y-144755226D01*
X135861795Y-144924744D01*
X135783774Y-145113102D01*
X135744000Y-145313061D01*
X135744000Y-145516939D01*
X135783774Y-145716898D01*
X135861795Y-145905256D01*
X135975063Y-146074774D01*
X136119226Y-146218937D01*
X136288744Y-146332205D01*
X136477102Y-146410226D01*
X136677061Y-146450000D01*
X136880939Y-146450000D01*
X137058565Y-146414668D01*
X137064089Y-154822185D01*
X137046813Y-154998702D01*
X136997237Y-155162449D01*
X136916653Y-155313373D01*
X136847254Y-155398000D01*
X88803506Y-155398000D01*
X87995195Y-155325861D01*
X87241977Y-155119803D01*
X86537148Y-154783616D01*
X85902995Y-154327932D01*
X85359559Y-153767149D01*
X84924018Y-153118996D01*
X84619402Y-152425061D01*
X126473000Y-152425061D01*
X126473000Y-152628939D01*
X126512774Y-152828898D01*
X126590795Y-153017256D01*
X126704063Y-153186774D01*
X126806289Y-153289000D01*
X126704063Y-153391226D01*
X126590795Y-153560744D01*
X126512774Y-153749102D01*
X126473000Y-153949061D01*
X126473000Y-154152939D01*
X126512774Y-154352898D01*
X126590795Y-154541256D01*
X126704063Y-154710774D01*
X126848226Y-154854937D01*
X127017744Y-154968205D01*
X127206102Y-155046226D01*
X127406061Y-155086000D01*
X127609939Y-155086000D01*
X127809898Y-155046226D01*
X127998256Y-154968205D01*
X128167774Y-154854937D01*
X128311937Y-154710774D01*
X128425205Y-154541256D01*
X128503226Y-154352898D01*
X128543000Y-154152939D01*
X128543000Y-153949061D01*
X128503226Y-153749102D01*
X128425205Y-153560744D01*
X128311937Y-153391226D01*
X128209711Y-153289000D01*
X128311937Y-153186774D01*
X128425205Y-153017256D01*
X128503226Y-152828898D01*
X128543000Y-152628939D01*
X128543000Y-152425061D01*
X128503226Y-152225102D01*
X128425205Y-152036744D01*
X128311937Y-151867226D01*
X128167774Y-151723063D01*
X127998256Y-151609795D01*
X127809898Y-151531774D01*
X127609939Y-151492000D01*
X127406061Y-151492000D01*
X127206102Y-151531774D01*
X127017744Y-151609795D01*
X126848226Y-151723063D01*
X126704063Y-151867226D01*
X126590795Y-152036744D01*
X126512774Y-152225102D01*
X126473000Y-152425061D01*
X84619402Y-152425061D01*
X84610137Y-152403956D01*
X84426576Y-151639364D01*
X84381685Y-151028061D01*
X114662000Y-151028061D01*
X114662000Y-151231939D01*
X114701774Y-151431898D01*
X114779795Y-151620256D01*
X114893063Y-151789774D01*
X115037226Y-151933937D01*
X115206744Y-152047205D01*
X115395102Y-152125226D01*
X115595061Y-152165000D01*
X115798939Y-152165000D01*
X115998898Y-152125226D01*
X116187256Y-152047205D01*
X116356774Y-151933937D01*
X116500937Y-151789774D01*
X116614205Y-151620256D01*
X116692226Y-151431898D01*
X116732000Y-151231939D01*
X116732000Y-151028061D01*
X116692226Y-150828102D01*
X116614205Y-150639744D01*
X116500937Y-150470226D01*
X116356774Y-150326063D01*
X116187256Y-150212795D01*
X115998898Y-150134774D01*
X115798939Y-150095000D01*
X115595061Y-150095000D01*
X115395102Y-150134774D01*
X115206744Y-150212795D01*
X115037226Y-150326063D01*
X114893063Y-150470226D01*
X114779795Y-150639744D01*
X114701774Y-150828102D01*
X114662000Y-151028061D01*
X84381685Y-151028061D01*
X84378000Y-150977887D01*
X84378000Y-149518061D01*
X106548000Y-149518061D01*
X106548000Y-149721939D01*
X106587774Y-149921898D01*
X106665795Y-150110256D01*
X106779063Y-150279774D01*
X106923226Y-150423937D01*
X107092744Y-150537205D01*
X107281102Y-150615226D01*
X107481061Y-150655000D01*
X107684939Y-150655000D01*
X107884898Y-150615226D01*
X108073256Y-150537205D01*
X108242774Y-150423937D01*
X108386937Y-150279774D01*
X108500205Y-150110256D01*
X108578226Y-149921898D01*
X108618000Y-149721939D01*
X108618000Y-149518061D01*
X108578226Y-149318102D01*
X108550043Y-149250061D01*
X125711000Y-149250061D01*
X125711000Y-149453939D01*
X125750774Y-149653898D01*
X125828795Y-149842256D01*
X125942063Y-150011774D01*
X126086226Y-150155937D01*
X126255744Y-150269205D01*
X126444102Y-150347226D01*
X126644061Y-150387000D01*
X126847939Y-150387000D01*
X127047898Y-150347226D01*
X127236256Y-150269205D01*
X127405774Y-150155937D01*
X127549937Y-150011774D01*
X127663205Y-149842256D01*
X127741226Y-149653898D01*
X127781000Y-149453939D01*
X127781000Y-149250061D01*
X127741226Y-149050102D01*
X127663205Y-148861744D01*
X127549937Y-148692226D01*
X127405774Y-148548063D01*
X127236256Y-148434795D01*
X127047898Y-148356774D01*
X126847939Y-148317000D01*
X126644061Y-148317000D01*
X126444102Y-148356774D01*
X126255744Y-148434795D01*
X126086226Y-148548063D01*
X125942063Y-148692226D01*
X125828795Y-148861744D01*
X125750774Y-149050102D01*
X125711000Y-149250061D01*
X108550043Y-149250061D01*
X108500205Y-149129744D01*
X108386937Y-148960226D01*
X108242774Y-148816063D01*
X108073256Y-148702795D01*
X107884898Y-148624774D01*
X107684939Y-148585000D01*
X107481061Y-148585000D01*
X107281102Y-148624774D01*
X107092744Y-148702795D01*
X106923226Y-148816063D01*
X106779063Y-148960226D01*
X106665795Y-149129744D01*
X106587774Y-149318102D01*
X106548000Y-149518061D01*
X84378000Y-149518061D01*
X84378000Y-148107061D01*
X92437000Y-148107061D01*
X92437000Y-148310939D01*
X92476774Y-148510898D01*
X92554795Y-148699256D01*
X92668063Y-148868774D01*
X92812226Y-149012937D01*
X92981744Y-149126205D01*
X93170102Y-149204226D01*
X93370061Y-149244000D01*
X93573939Y-149244000D01*
X93773898Y-149204226D01*
X93962256Y-149126205D01*
X94131774Y-149012937D01*
X94275937Y-148868774D01*
X94389205Y-148699256D01*
X94467226Y-148510898D01*
X94507000Y-148310939D01*
X94507000Y-148107061D01*
X111741000Y-148107061D01*
X111741000Y-148310939D01*
X111780774Y-148510898D01*
X111858795Y-148699256D01*
X111972063Y-148868774D01*
X112116226Y-149012937D01*
X112285744Y-149126205D01*
X112474102Y-149204226D01*
X112674061Y-149244000D01*
X112877939Y-149244000D01*
X113077898Y-149204226D01*
X113266256Y-149126205D01*
X113435774Y-149012937D01*
X113579937Y-148868774D01*
X113693205Y-148699256D01*
X113771226Y-148510898D01*
X113811000Y-148310939D01*
X113811000Y-148107061D01*
X113771226Y-147907102D01*
X113693205Y-147718744D01*
X113579937Y-147549226D01*
X113435774Y-147405063D01*
X113266256Y-147291795D01*
X113077898Y-147213774D01*
X112877939Y-147174000D01*
X112674061Y-147174000D01*
X112474102Y-147213774D01*
X112285744Y-147291795D01*
X112116226Y-147405063D01*
X111972063Y-147549226D01*
X111858795Y-147718744D01*
X111780774Y-147907102D01*
X111741000Y-148107061D01*
X94507000Y-148107061D01*
X94467226Y-147907102D01*
X94389205Y-147718744D01*
X94275937Y-147549226D01*
X94131774Y-147405063D01*
X93962256Y-147291795D01*
X93773898Y-147213774D01*
X93573939Y-147174000D01*
X93370061Y-147174000D01*
X93170102Y-147213774D01*
X92981744Y-147291795D01*
X92812226Y-147405063D01*
X92668063Y-147549226D01*
X92554795Y-147718744D01*
X92476774Y-147907102D01*
X92437000Y-148107061D01*
X84378000Y-148107061D01*
X84378000Y-146964061D01*
X116313000Y-146964061D01*
X116313000Y-147167939D01*
X116352774Y-147367898D01*
X116430795Y-147556256D01*
X116544063Y-147725774D01*
X116688226Y-147869937D01*
X116857744Y-147983205D01*
X117046102Y-148061226D01*
X117246061Y-148101000D01*
X117449939Y-148101000D01*
X117649898Y-148061226D01*
X117838256Y-147983205D01*
X118007774Y-147869937D01*
X118151937Y-147725774D01*
X118265205Y-147556256D01*
X118343226Y-147367898D01*
X118383000Y-147167939D01*
X118383000Y-146964061D01*
X118343226Y-146764102D01*
X118320842Y-146710061D01*
X126473000Y-146710061D01*
X126473000Y-146913939D01*
X126512774Y-147113898D01*
X126590795Y-147302256D01*
X126704063Y-147471774D01*
X126848226Y-147615937D01*
X127017744Y-147729205D01*
X127206102Y-147807226D01*
X127406061Y-147847000D01*
X127609939Y-147847000D01*
X127809898Y-147807226D01*
X127998256Y-147729205D01*
X128167774Y-147615937D01*
X128311937Y-147471774D01*
X128425205Y-147302256D01*
X128503226Y-147113898D01*
X128543000Y-146913939D01*
X128543000Y-146710061D01*
X128503226Y-146510102D01*
X128425205Y-146321744D01*
X128311937Y-146152226D01*
X128167774Y-146008063D01*
X127998256Y-145894795D01*
X127809898Y-145816774D01*
X127609939Y-145777000D01*
X127406061Y-145777000D01*
X127206102Y-145816774D01*
X127017744Y-145894795D01*
X126848226Y-146008063D01*
X126704063Y-146152226D01*
X126590795Y-146321744D01*
X126512774Y-146510102D01*
X126473000Y-146710061D01*
X118320842Y-146710061D01*
X118265205Y-146575744D01*
X118151937Y-146406226D01*
X118007774Y-146262063D01*
X117838256Y-146148795D01*
X117649898Y-146070774D01*
X117449939Y-146031000D01*
X117246061Y-146031000D01*
X117046102Y-146070774D01*
X116857744Y-146148795D01*
X116688226Y-146262063D01*
X116544063Y-146406226D01*
X116430795Y-146575744D01*
X116352774Y-146764102D01*
X116313000Y-146964061D01*
X84378000Y-146964061D01*
X84378000Y-142900061D01*
X113518996Y-142900061D01*
X113518996Y-143103939D01*
X113558770Y-143303898D01*
X113636791Y-143492256D01*
X113750059Y-143661774D01*
X113894222Y-143805937D01*
X114063740Y-143919205D01*
X114252098Y-143997226D01*
X114452057Y-144037000D01*
X114655935Y-144037000D01*
X114855894Y-143997226D01*
X115044252Y-143919205D01*
X115213770Y-143805937D01*
X115357933Y-143661774D01*
X115471201Y-143492256D01*
X115506075Y-143408061D01*
X133966000Y-143408061D01*
X133966000Y-143611939D01*
X134005774Y-143811898D01*
X134083795Y-144000256D01*
X134197063Y-144169774D01*
X134341226Y-144313937D01*
X134510744Y-144427205D01*
X134699102Y-144505226D01*
X134899061Y-144545000D01*
X135102939Y-144545000D01*
X135302898Y-144505226D01*
X135491256Y-144427205D01*
X135660774Y-144313937D01*
X135804937Y-144169774D01*
X135918205Y-144000256D01*
X135996226Y-143811898D01*
X136036000Y-143611939D01*
X136036000Y-143408061D01*
X135996226Y-143208102D01*
X135918205Y-143019744D01*
X135804937Y-142850226D01*
X135660774Y-142706063D01*
X135491256Y-142592795D01*
X135302898Y-142514774D01*
X135102939Y-142475000D01*
X134899061Y-142475000D01*
X134699102Y-142514774D01*
X134510744Y-142592795D01*
X134341226Y-142706063D01*
X134197063Y-142850226D01*
X134083795Y-143019744D01*
X134005774Y-143208102D01*
X133966000Y-143408061D01*
X115506075Y-143408061D01*
X115549222Y-143303898D01*
X115588996Y-143103939D01*
X115588996Y-142900061D01*
X115549222Y-142700102D01*
X115471201Y-142511744D01*
X115357933Y-142342226D01*
X115213770Y-142198063D01*
X115044252Y-142084795D01*
X114855894Y-142006774D01*
X114655935Y-141967000D01*
X114452057Y-141967000D01*
X114252098Y-142006774D01*
X114063740Y-142084795D01*
X113894222Y-142198063D01*
X113750059Y-142342226D01*
X113636791Y-142511744D01*
X113558770Y-142700102D01*
X113518996Y-142900061D01*
X84378000Y-142900061D01*
X84378000Y-137361560D01*
X84424068Y-137593158D01*
X84536010Y-137863411D01*
X84698525Y-138106632D01*
X84905368Y-138313475D01*
X85148589Y-138475990D01*
X85418842Y-138587932D01*
X85705740Y-138645000D01*
X85998260Y-138645000D01*
X86285158Y-138587932D01*
X86555411Y-138475990D01*
X86798632Y-138313475D01*
X87005475Y-138106632D01*
X87167990Y-137863411D01*
X87279932Y-137593158D01*
X87337000Y-137306260D01*
X87337000Y-137013740D01*
X87279932Y-136726842D01*
X87167990Y-136456589D01*
X87005475Y-136213368D01*
X86798632Y-136006525D01*
X86624240Y-135890000D01*
X86798632Y-135773475D01*
X87005475Y-135566632D01*
X87167990Y-135323411D01*
X87279932Y-135053158D01*
X87337000Y-134766260D01*
X87337000Y-134473740D01*
X87279932Y-134186842D01*
X87167990Y-133916589D01*
X87005475Y-133673368D01*
X86798632Y-133466525D01*
X86624240Y-133350000D01*
X86798632Y-133233475D01*
X86911046Y-133121061D01*
X90913000Y-133121061D01*
X90913000Y-133324939D01*
X90952774Y-133524898D01*
X91030795Y-133713256D01*
X91144063Y-133882774D01*
X91288226Y-134026937D01*
X91457744Y-134140205D01*
X91646102Y-134218226D01*
X91846061Y-134258000D01*
X92049939Y-134258000D01*
X92249898Y-134218226D01*
X92438256Y-134140205D01*
X92607774Y-134026937D01*
X92751937Y-133882774D01*
X92865205Y-133713256D01*
X92943226Y-133524898D01*
X92983000Y-133324939D01*
X92983000Y-133121061D01*
X92943226Y-132921102D01*
X92865205Y-132732744D01*
X92751937Y-132563226D01*
X92607774Y-132419063D01*
X92438256Y-132305795D01*
X92249898Y-132227774D01*
X92049939Y-132188000D01*
X91846061Y-132188000D01*
X91646102Y-132227774D01*
X91457744Y-132305795D01*
X91288226Y-132419063D01*
X91144063Y-132563226D01*
X91030795Y-132732744D01*
X90952774Y-132921102D01*
X90913000Y-133121061D01*
X86911046Y-133121061D01*
X87005475Y-133026632D01*
X87167990Y-132783411D01*
X87279932Y-132513158D01*
X87337000Y-132226260D01*
X87337000Y-131933740D01*
X87279932Y-131646842D01*
X87167990Y-131376589D01*
X87005475Y-131133368D01*
X86798632Y-130926525D01*
X86624240Y-130810000D01*
X86798632Y-130693475D01*
X87005475Y-130486632D01*
X87167990Y-130243411D01*
X87279932Y-129973158D01*
X87337000Y-129686260D01*
X87337000Y-129393740D01*
X87279932Y-129106842D01*
X87167990Y-128836589D01*
X87005475Y-128593368D01*
X86798632Y-128386525D01*
X86624240Y-128270000D01*
X86798632Y-128153475D01*
X87005475Y-127946632D01*
X87167990Y-127703411D01*
X87279932Y-127433158D01*
X87337000Y-127146260D01*
X87337000Y-126853740D01*
X87279932Y-126566842D01*
X87167990Y-126296589D01*
X87005475Y-126053368D01*
X86798632Y-125846525D01*
X86624240Y-125730000D01*
X86798632Y-125613475D01*
X87005475Y-125406632D01*
X87167990Y-125163411D01*
X87279932Y-124893158D01*
X87337000Y-124606260D01*
X87337000Y-124313740D01*
X87279932Y-124026842D01*
X87167990Y-123756589D01*
X87005475Y-123513368D01*
X86798632Y-123306525D01*
X86624240Y-123190000D01*
X86798632Y-123073475D01*
X87005475Y-122866632D01*
X87167990Y-122623411D01*
X87279932Y-122353158D01*
X87337000Y-122066260D01*
X87337000Y-121773740D01*
X87279932Y-121486842D01*
X87167990Y-121216589D01*
X87005475Y-120973368D01*
X86798632Y-120766525D01*
X86624240Y-120650000D01*
X86798632Y-120533475D01*
X87005475Y-120326632D01*
X87167990Y-120083411D01*
X87279932Y-119813158D01*
X87337000Y-119526260D01*
X87337000Y-119233740D01*
X87279932Y-118946842D01*
X87167990Y-118676589D01*
X87005475Y-118433368D01*
X86798632Y-118226525D01*
X86624240Y-118110000D01*
X86798632Y-117993475D01*
X87005475Y-117786632D01*
X87167990Y-117543411D01*
X87279932Y-117273158D01*
X87337000Y-116986260D01*
X87337000Y-116738061D01*
X89262000Y-116738061D01*
X89262000Y-116941939D01*
X89301774Y-117141898D01*
X89379795Y-117330256D01*
X89493063Y-117499774D01*
X89637226Y-117643937D01*
X89806744Y-117757205D01*
X89995102Y-117835226D01*
X90195061Y-117875000D01*
X90398939Y-117875000D01*
X90598898Y-117835226D01*
X90787256Y-117757205D01*
X90956774Y-117643937D01*
X91100937Y-117499774D01*
X91214205Y-117330256D01*
X91292226Y-117141898D01*
X91332000Y-116941939D01*
X91332000Y-116738061D01*
X91292226Y-116538102D01*
X91214205Y-116349744D01*
X91100937Y-116180226D01*
X90956774Y-116036063D01*
X90787256Y-115922795D01*
X90598898Y-115844774D01*
X90398939Y-115805000D01*
X90195061Y-115805000D01*
X89995102Y-115844774D01*
X89806744Y-115922795D01*
X89637226Y-116036063D01*
X89493063Y-116180226D01*
X89379795Y-116349744D01*
X89301774Y-116538102D01*
X89262000Y-116738061D01*
X87337000Y-116738061D01*
X87337000Y-116693740D01*
X87279932Y-116406842D01*
X87167990Y-116136589D01*
X87005475Y-115893368D01*
X86798632Y-115686525D01*
X86624240Y-115570000D01*
X86798632Y-115453475D01*
X87005475Y-115246632D01*
X87167990Y-115003411D01*
X87279932Y-114733158D01*
X87337000Y-114446260D01*
X87337000Y-114153740D01*
X87279932Y-113866842D01*
X87167990Y-113596589D01*
X87005475Y-113353368D01*
X86798632Y-113146525D01*
X86624240Y-113030000D01*
X86798632Y-112913475D01*
X87005475Y-112706632D01*
X87167990Y-112463411D01*
X87279932Y-112193158D01*
X87337000Y-111906260D01*
X87337000Y-111613740D01*
X87336734Y-111612401D01*
X93624400Y-111612401D01*
X93624400Y-111907599D01*
X93681990Y-112197125D01*
X93794958Y-112469853D01*
X93958961Y-112715302D01*
X94167698Y-112924039D01*
X94326281Y-113030000D01*
X94167698Y-113135961D01*
X93958961Y-113344698D01*
X93794958Y-113590147D01*
X93681990Y-113862875D01*
X93624400Y-114152401D01*
X93624400Y-114447599D01*
X93681990Y-114737125D01*
X93794958Y-115009853D01*
X93958961Y-115255302D01*
X94167698Y-115464039D01*
X94326281Y-115570000D01*
X94167698Y-115675961D01*
X93958961Y-115884698D01*
X93794958Y-116130147D01*
X93681990Y-116402875D01*
X93624400Y-116692401D01*
X93624400Y-116987599D01*
X93681990Y-117277125D01*
X93794958Y-117549853D01*
X93958961Y-117795302D01*
X94167698Y-118004039D01*
X94326281Y-118110000D01*
X94167698Y-118215961D01*
X93958961Y-118424698D01*
X93794958Y-118670147D01*
X93681990Y-118942875D01*
X93624400Y-119232401D01*
X93624400Y-119527599D01*
X93681990Y-119817125D01*
X93794958Y-120089853D01*
X93958961Y-120335302D01*
X94167698Y-120544039D01*
X94326281Y-120650000D01*
X94167698Y-120755961D01*
X93958961Y-120964698D01*
X93794958Y-121210147D01*
X93681990Y-121482875D01*
X93624400Y-121772401D01*
X93624400Y-122067599D01*
X93681990Y-122357125D01*
X93794958Y-122629853D01*
X93958961Y-122875302D01*
X94167698Y-123084039D01*
X94326281Y-123190000D01*
X94167698Y-123295961D01*
X93958961Y-123504698D01*
X93794958Y-123750147D01*
X93681990Y-124022875D01*
X93624400Y-124312401D01*
X93624400Y-124607599D01*
X93681990Y-124897125D01*
X93794958Y-125169853D01*
X93958961Y-125415302D01*
X94167698Y-125624039D01*
X94326281Y-125730000D01*
X94167698Y-125835961D01*
X93958961Y-126044698D01*
X93794958Y-126290147D01*
X93681990Y-126562875D01*
X93624400Y-126852401D01*
X93624400Y-127147599D01*
X93681990Y-127437125D01*
X93794958Y-127709853D01*
X93958961Y-127955302D01*
X94167698Y-128164039D01*
X94326281Y-128270000D01*
X94167698Y-128375961D01*
X93958961Y-128584698D01*
X93794958Y-128830147D01*
X93681990Y-129102875D01*
X93624400Y-129392401D01*
X93624400Y-129687599D01*
X93681990Y-129977125D01*
X93794958Y-130249853D01*
X93958961Y-130495302D01*
X94167698Y-130704039D01*
X94326281Y-130810000D01*
X94167698Y-130915961D01*
X93958961Y-131124698D01*
X93794958Y-131370147D01*
X93681990Y-131642875D01*
X93624400Y-131932401D01*
X93624400Y-132227599D01*
X93681990Y-132517125D01*
X93794958Y-132789853D01*
X93958961Y-133035302D01*
X94167698Y-133244039D01*
X94326281Y-133350000D01*
X94167698Y-133455961D01*
X93958961Y-133664698D01*
X93794958Y-133910147D01*
X93681990Y-134182875D01*
X93624400Y-134472401D01*
X93624400Y-134767599D01*
X93681990Y-135057125D01*
X93794958Y-135329853D01*
X93958961Y-135575302D01*
X94167698Y-135784039D01*
X94326281Y-135890000D01*
X94167698Y-135995961D01*
X93958961Y-136204698D01*
X93794958Y-136450147D01*
X93681990Y-136722875D01*
X93624400Y-137012401D01*
X93624400Y-137307599D01*
X93681990Y-137597125D01*
X93794958Y-137869853D01*
X93958961Y-138115302D01*
X94167698Y-138324039D01*
X94413147Y-138488042D01*
X94685875Y-138601010D01*
X94975401Y-138658600D01*
X95270599Y-138658600D01*
X95560125Y-138601010D01*
X95832853Y-138488042D01*
X96078302Y-138324039D01*
X96287039Y-138115302D01*
X96393000Y-137956719D01*
X96498961Y-138115302D01*
X96707698Y-138324039D01*
X96953147Y-138488042D01*
X97225875Y-138601010D01*
X97515401Y-138658600D01*
X97810599Y-138658600D01*
X98100125Y-138601010D01*
X98372853Y-138488042D01*
X98422212Y-138455061D01*
X101200000Y-138455061D01*
X101200000Y-138658939D01*
X101239774Y-138858898D01*
X101317795Y-139047256D01*
X101431063Y-139216774D01*
X101575226Y-139360937D01*
X101744744Y-139474205D01*
X101933102Y-139552226D01*
X102133061Y-139592000D01*
X102336939Y-139592000D01*
X102536898Y-139552226D01*
X102725256Y-139474205D01*
X102894774Y-139360937D01*
X103038937Y-139216774D01*
X103152205Y-139047256D01*
X103230226Y-138858898D01*
X103270000Y-138658939D01*
X103270000Y-138455061D01*
X103230226Y-138255102D01*
X103152205Y-138066744D01*
X103038937Y-137897226D01*
X102894774Y-137753063D01*
X102725256Y-137639795D01*
X102547248Y-137566061D01*
X109074000Y-137566061D01*
X109074000Y-137769939D01*
X109113774Y-137969898D01*
X109191795Y-138158256D01*
X109305063Y-138327774D01*
X109449226Y-138471937D01*
X109618744Y-138585205D01*
X109807102Y-138663226D01*
X109911541Y-138684000D01*
X109807102Y-138704774D01*
X109618744Y-138782795D01*
X109449226Y-138896063D01*
X109305063Y-139040226D01*
X109191795Y-139209744D01*
X109113774Y-139398102D01*
X109074000Y-139598061D01*
X109074000Y-139801939D01*
X109113774Y-140001898D01*
X109191795Y-140190256D01*
X109305063Y-140359774D01*
X109449226Y-140503937D01*
X109618744Y-140617205D01*
X109807102Y-140695226D01*
X109911541Y-140716000D01*
X109807102Y-140736774D01*
X109618744Y-140814795D01*
X109449226Y-140928063D01*
X109305063Y-141072226D01*
X109191795Y-141241744D01*
X109113774Y-141430102D01*
X109074000Y-141630061D01*
X109074000Y-141833939D01*
X109113774Y-142033898D01*
X109191795Y-142222256D01*
X109305063Y-142391774D01*
X109449226Y-142535937D01*
X109618744Y-142649205D01*
X109807102Y-142727226D01*
X110007061Y-142767000D01*
X110210939Y-142767000D01*
X110410898Y-142727226D01*
X110599256Y-142649205D01*
X110768774Y-142535937D01*
X110912937Y-142391774D01*
X111026205Y-142222256D01*
X111104226Y-142033898D01*
X111144000Y-141833939D01*
X111144000Y-141630061D01*
X111104226Y-141430102D01*
X111026205Y-141241744D01*
X110912937Y-141072226D01*
X110768774Y-140928063D01*
X110599256Y-140814795D01*
X110410898Y-140736774D01*
X110306459Y-140716000D01*
X110410898Y-140695226D01*
X110599256Y-140617205D01*
X110768774Y-140503937D01*
X110912937Y-140359774D01*
X111026205Y-140190256D01*
X111104226Y-140001898D01*
X111144000Y-139801939D01*
X111144000Y-139598061D01*
X111104226Y-139398102D01*
X111026205Y-139209744D01*
X110912937Y-139040226D01*
X110768774Y-138896063D01*
X110599256Y-138782795D01*
X110410898Y-138704774D01*
X110306459Y-138684000D01*
X110410898Y-138663226D01*
X110599256Y-138585205D01*
X110768774Y-138471937D01*
X110912937Y-138327774D01*
X111026205Y-138158256D01*
X111104226Y-137969898D01*
X111144000Y-137769939D01*
X111144000Y-137566061D01*
X111104226Y-137366102D01*
X111026205Y-137177744D01*
X110912937Y-137008226D01*
X110768774Y-136864063D01*
X110678975Y-136804061D01*
X113519000Y-136804061D01*
X113519000Y-137007939D01*
X113558774Y-137207898D01*
X113636795Y-137396256D01*
X113750063Y-137565774D01*
X113894226Y-137709937D01*
X114063744Y-137823205D01*
X114252102Y-137901226D01*
X114356541Y-137922000D01*
X114252102Y-137942774D01*
X114063744Y-138020795D01*
X113894226Y-138134063D01*
X113750063Y-138278226D01*
X113636795Y-138447744D01*
X113558774Y-138636102D01*
X113519000Y-138836061D01*
X113519000Y-139039939D01*
X113558774Y-139239898D01*
X113636795Y-139428256D01*
X113750063Y-139597774D01*
X113894226Y-139741937D01*
X114063744Y-139855205D01*
X114252102Y-139933226D01*
X114452061Y-139973000D01*
X114655939Y-139973000D01*
X114855898Y-139933226D01*
X115044256Y-139855205D01*
X115213774Y-139741937D01*
X115357937Y-139597774D01*
X115471205Y-139428256D01*
X115549226Y-139239898D01*
X115589000Y-139039939D01*
X115589000Y-138836061D01*
X128124000Y-138836061D01*
X128124000Y-139039939D01*
X128163774Y-139239898D01*
X128241795Y-139428256D01*
X128355063Y-139597774D01*
X128499226Y-139741937D01*
X128668744Y-139855205D01*
X128857102Y-139933226D01*
X129057061Y-139973000D01*
X129260939Y-139973000D01*
X129460898Y-139933226D01*
X129649256Y-139855205D01*
X129818774Y-139741937D01*
X129962937Y-139597774D01*
X130076205Y-139428256D01*
X130154226Y-139239898D01*
X130194000Y-139039939D01*
X130194000Y-138836061D01*
X130154226Y-138636102D01*
X130076205Y-138447744D01*
X129962937Y-138278226D01*
X129818774Y-138134063D01*
X129649256Y-138020795D01*
X129460898Y-137942774D01*
X129260939Y-137903000D01*
X129057061Y-137903000D01*
X128857102Y-137942774D01*
X128668744Y-138020795D01*
X128499226Y-138134063D01*
X128355063Y-138278226D01*
X128241795Y-138447744D01*
X128163774Y-138636102D01*
X128124000Y-138836061D01*
X115589000Y-138836061D01*
X115549226Y-138636102D01*
X115471205Y-138447744D01*
X115357937Y-138278226D01*
X115213774Y-138134063D01*
X115044256Y-138020795D01*
X114855898Y-137942774D01*
X114751459Y-137922000D01*
X114855898Y-137901226D01*
X115044256Y-137823205D01*
X115213774Y-137709937D01*
X115357937Y-137565774D01*
X115471205Y-137396256D01*
X115549226Y-137207898D01*
X115589000Y-137007939D01*
X115589000Y-136804061D01*
X122536000Y-136804061D01*
X122536000Y-137007939D01*
X122575774Y-137207898D01*
X122653795Y-137396256D01*
X122767063Y-137565774D01*
X122911226Y-137709937D01*
X123080744Y-137823205D01*
X123269102Y-137901226D01*
X123469061Y-137941000D01*
X123672939Y-137941000D01*
X123872898Y-137901226D01*
X124061256Y-137823205D01*
X124230774Y-137709937D01*
X124374937Y-137565774D01*
X124488205Y-137396256D01*
X124566226Y-137207898D01*
X124606000Y-137007939D01*
X124606000Y-136804061D01*
X124566226Y-136604102D01*
X124488205Y-136415744D01*
X124374937Y-136246226D01*
X124230774Y-136102063D01*
X124061256Y-135988795D01*
X123872898Y-135910774D01*
X123672939Y-135871000D01*
X123469061Y-135871000D01*
X123269102Y-135910774D01*
X123080744Y-135988795D01*
X122911226Y-136102063D01*
X122767063Y-136246226D01*
X122653795Y-136415744D01*
X122575774Y-136604102D01*
X122536000Y-136804061D01*
X115589000Y-136804061D01*
X115549226Y-136604102D01*
X115471205Y-136415744D01*
X115357937Y-136246226D01*
X115213774Y-136102063D01*
X115044256Y-135988795D01*
X114855898Y-135910774D01*
X114655939Y-135871000D01*
X114452061Y-135871000D01*
X114252102Y-135910774D01*
X114063744Y-135988795D01*
X113894226Y-136102063D01*
X113750063Y-136246226D01*
X113636795Y-136415744D01*
X113558774Y-136604102D01*
X113519000Y-136804061D01*
X110678975Y-136804061D01*
X110599256Y-136750795D01*
X110410898Y-136672774D01*
X110210939Y-136633000D01*
X110007061Y-136633000D01*
X109807102Y-136672774D01*
X109618744Y-136750795D01*
X109449226Y-136864063D01*
X109305063Y-137008226D01*
X109191795Y-137177744D01*
X109113774Y-137366102D01*
X109074000Y-137566061D01*
X102547248Y-137566061D01*
X102536898Y-137561774D01*
X102336939Y-137522000D01*
X102133061Y-137522000D01*
X101933102Y-137561774D01*
X101744744Y-137639795D01*
X101575226Y-137753063D01*
X101431063Y-137897226D01*
X101317795Y-138066744D01*
X101239774Y-138255102D01*
X101200000Y-138455061D01*
X98422212Y-138455061D01*
X98618302Y-138324039D01*
X98827039Y-138115302D01*
X98991042Y-137869853D01*
X99104010Y-137597125D01*
X99161600Y-137307599D01*
X99161600Y-137012401D01*
X99104010Y-136722875D01*
X98991042Y-136450147D01*
X98827039Y-136204698D01*
X98618302Y-135995961D01*
X98459719Y-135890000D01*
X98618302Y-135784039D01*
X98827039Y-135575302D01*
X98991042Y-135329853D01*
X99104010Y-135057125D01*
X99161600Y-134767599D01*
X99161600Y-134472401D01*
X99104010Y-134182875D01*
X98991042Y-133910147D01*
X98827039Y-133664698D01*
X98618302Y-133455961D01*
X98459719Y-133350000D01*
X98618302Y-133244039D01*
X98677280Y-133185061D01*
X114281000Y-133185061D01*
X114281000Y-133388939D01*
X114320774Y-133588898D01*
X114398795Y-133777256D01*
X114512063Y-133946774D01*
X114656226Y-134090937D01*
X114825744Y-134204205D01*
X115014102Y-134282226D01*
X115214061Y-134322000D01*
X115417939Y-134322000D01*
X115617898Y-134282226D01*
X115806256Y-134204205D01*
X115975774Y-134090937D01*
X116119937Y-133946774D01*
X116233205Y-133777256D01*
X116311226Y-133588898D01*
X116351000Y-133388939D01*
X116351000Y-133185061D01*
X116311226Y-132985102D01*
X116233205Y-132796744D01*
X116119937Y-132627226D01*
X115975774Y-132483063D01*
X115806256Y-132369795D01*
X115617898Y-132291774D01*
X115417939Y-132252000D01*
X115214061Y-132252000D01*
X115014102Y-132291774D01*
X114825744Y-132369795D01*
X114656226Y-132483063D01*
X114512063Y-132627226D01*
X114398795Y-132796744D01*
X114320774Y-132985102D01*
X114281000Y-133185061D01*
X98677280Y-133185061D01*
X98827039Y-133035302D01*
X98991042Y-132789853D01*
X99104010Y-132517125D01*
X99161600Y-132227599D01*
X99161600Y-131932401D01*
X99104010Y-131642875D01*
X98991042Y-131370147D01*
X98827039Y-131124698D01*
X98618302Y-130915961D01*
X98459719Y-130810000D01*
X98469355Y-130803561D01*
X114249500Y-130803561D01*
X114249500Y-131007439D01*
X114289274Y-131207398D01*
X114367295Y-131395756D01*
X114480563Y-131565274D01*
X114624726Y-131709437D01*
X114794244Y-131822705D01*
X114982602Y-131900726D01*
X115182561Y-131940500D01*
X115386439Y-131940500D01*
X115586398Y-131900726D01*
X115774756Y-131822705D01*
X115944274Y-131709437D01*
X116088437Y-131565274D01*
X116201705Y-131395756D01*
X116276137Y-131216061D01*
X116694000Y-131216061D01*
X116694000Y-131419939D01*
X116733774Y-131619898D01*
X116811795Y-131808256D01*
X116925063Y-131977774D01*
X117069226Y-132121937D01*
X117238744Y-132235205D01*
X117427102Y-132313226D01*
X117627061Y-132353000D01*
X117830939Y-132353000D01*
X118030898Y-132313226D01*
X118219256Y-132235205D01*
X118388774Y-132121937D01*
X118532937Y-131977774D01*
X118646205Y-131808256D01*
X118681079Y-131724061D01*
X127743000Y-131724061D01*
X127743000Y-131927939D01*
X127782774Y-132127898D01*
X127860795Y-132316256D01*
X127974063Y-132485774D01*
X128118226Y-132629937D01*
X128287744Y-132743205D01*
X128476102Y-132821226D01*
X128676061Y-132861000D01*
X128879939Y-132861000D01*
X129079898Y-132821226D01*
X129185859Y-132777335D01*
X129130795Y-132859744D01*
X129052774Y-133048102D01*
X129013000Y-133248061D01*
X129013000Y-133451939D01*
X129052774Y-133651898D01*
X129130795Y-133840256D01*
X129244063Y-134009774D01*
X129388226Y-134153937D01*
X129557744Y-134267205D01*
X129746102Y-134345226D01*
X129946061Y-134385000D01*
X130149939Y-134385000D01*
X130349898Y-134345226D01*
X130538256Y-134267205D01*
X130707774Y-134153937D01*
X130851937Y-134009774D01*
X130965205Y-133840256D01*
X131043226Y-133651898D01*
X131083000Y-133451939D01*
X131083000Y-133248061D01*
X131043226Y-133048102D01*
X130965205Y-132859744D01*
X130851937Y-132690226D01*
X130707774Y-132546063D01*
X130538256Y-132432795D01*
X130349898Y-132354774D01*
X130149939Y-132315000D01*
X129946061Y-132315000D01*
X129746102Y-132354774D01*
X129640141Y-132398665D01*
X129695205Y-132316256D01*
X129773226Y-132127898D01*
X129813000Y-131927939D01*
X129813000Y-131724061D01*
X129773226Y-131524102D01*
X129695205Y-131335744D01*
X129581937Y-131166226D01*
X129437774Y-131022063D01*
X129268256Y-130908795D01*
X129079898Y-130830774D01*
X128879939Y-130791000D01*
X128676061Y-130791000D01*
X128476102Y-130830774D01*
X128287744Y-130908795D01*
X128118226Y-131022063D01*
X127974063Y-131166226D01*
X127860795Y-131335744D01*
X127782774Y-131524102D01*
X127743000Y-131724061D01*
X118681079Y-131724061D01*
X118724226Y-131619898D01*
X118764000Y-131419939D01*
X118764000Y-131216061D01*
X118724226Y-131016102D01*
X118646205Y-130827744D01*
X118532937Y-130658226D01*
X118388774Y-130514063D01*
X118219256Y-130400795D01*
X118030898Y-130322774D01*
X117830939Y-130283000D01*
X117627061Y-130283000D01*
X117427102Y-130322774D01*
X117238744Y-130400795D01*
X117069226Y-130514063D01*
X116925063Y-130658226D01*
X116811795Y-130827744D01*
X116733774Y-131016102D01*
X116694000Y-131216061D01*
X116276137Y-131216061D01*
X116279726Y-131207398D01*
X116319500Y-131007439D01*
X116319500Y-130803561D01*
X116279726Y-130603602D01*
X116201705Y-130415244D01*
X116088437Y-130245726D01*
X115944274Y-130101563D01*
X115774756Y-129988295D01*
X115586398Y-129910274D01*
X115386439Y-129870500D01*
X115182561Y-129870500D01*
X114982602Y-129910274D01*
X114794244Y-129988295D01*
X114624726Y-130101563D01*
X114480563Y-130245726D01*
X114367295Y-130415244D01*
X114289274Y-130603602D01*
X114249500Y-130803561D01*
X98469355Y-130803561D01*
X98618302Y-130704039D01*
X98827039Y-130495302D01*
X98991042Y-130249853D01*
X99104010Y-129977125D01*
X99161600Y-129687599D01*
X99161600Y-129392401D01*
X99104010Y-129102875D01*
X98991042Y-128830147D01*
X98827039Y-128584698D01*
X98618302Y-128375961D01*
X98459719Y-128270000D01*
X98618302Y-128164039D01*
X98827039Y-127955302D01*
X98991042Y-127709853D01*
X99104010Y-127437125D01*
X99136196Y-127275311D01*
X106918750Y-127275311D01*
X106918750Y-127479189D01*
X106958524Y-127679148D01*
X107036545Y-127867506D01*
X107149813Y-128037024D01*
X107293976Y-128181187D01*
X107463494Y-128294455D01*
X107651852Y-128372476D01*
X107851811Y-128412250D01*
X108055689Y-128412250D01*
X108255648Y-128372476D01*
X108444006Y-128294455D01*
X108613524Y-128181187D01*
X108757687Y-128037024D01*
X108870955Y-127867506D01*
X108948976Y-127679148D01*
X108988750Y-127479189D01*
X108988750Y-127279061D01*
X109074000Y-127279061D01*
X109074000Y-127482939D01*
X109113774Y-127682898D01*
X109191795Y-127871256D01*
X109305063Y-128040774D01*
X109449226Y-128184937D01*
X109618744Y-128298205D01*
X109807102Y-128376226D01*
X110007061Y-128416000D01*
X110210939Y-128416000D01*
X110410898Y-128376226D01*
X110599256Y-128298205D01*
X110603961Y-128295061D01*
X114345000Y-128295061D01*
X114345000Y-128498939D01*
X114384774Y-128698898D01*
X114462795Y-128887256D01*
X114576063Y-129056774D01*
X114720226Y-129200937D01*
X114889744Y-129314205D01*
X115078102Y-129392226D01*
X115278061Y-129432000D01*
X115481939Y-129432000D01*
X115681898Y-129392226D01*
X115870256Y-129314205D01*
X116039774Y-129200937D01*
X116183937Y-129056774D01*
X116297205Y-128887256D01*
X116375226Y-128698898D01*
X116415000Y-128498939D01*
X116415000Y-128295061D01*
X116375226Y-128095102D01*
X116297205Y-127906744D01*
X116183937Y-127737226D01*
X116039774Y-127593063D01*
X115870256Y-127479795D01*
X115681898Y-127401774D01*
X115481939Y-127362000D01*
X115278061Y-127362000D01*
X115078102Y-127401774D01*
X114889744Y-127479795D01*
X114720226Y-127593063D01*
X114576063Y-127737226D01*
X114462795Y-127906744D01*
X114384774Y-128095102D01*
X114345000Y-128295061D01*
X110603961Y-128295061D01*
X110768774Y-128184937D01*
X110912937Y-128040774D01*
X111026205Y-127871256D01*
X111104226Y-127682898D01*
X111144000Y-127482939D01*
X111144000Y-127279061D01*
X129648000Y-127279061D01*
X129648000Y-127482939D01*
X129687774Y-127682898D01*
X129765795Y-127871256D01*
X129879063Y-128040774D01*
X130023226Y-128184937D01*
X130192744Y-128298205D01*
X130381102Y-128376226D01*
X130581061Y-128416000D01*
X130784939Y-128416000D01*
X130984898Y-128376226D01*
X131173256Y-128298205D01*
X131342774Y-128184937D01*
X131486937Y-128040774D01*
X131600205Y-127871256D01*
X131678226Y-127682898D01*
X131718000Y-127482939D01*
X131718000Y-127279061D01*
X131678226Y-127079102D01*
X131600205Y-126890744D01*
X131486937Y-126721226D01*
X131342774Y-126577063D01*
X131173256Y-126463795D01*
X130984898Y-126385774D01*
X130784939Y-126346000D01*
X130581061Y-126346000D01*
X130381102Y-126385774D01*
X130192744Y-126463795D01*
X130023226Y-126577063D01*
X129879063Y-126721226D01*
X129765795Y-126890744D01*
X129687774Y-127079102D01*
X129648000Y-127279061D01*
X111144000Y-127279061D01*
X111104226Y-127079102D01*
X111026205Y-126890744D01*
X110912937Y-126721226D01*
X110768774Y-126577063D01*
X110599256Y-126463795D01*
X110410898Y-126385774D01*
X110210939Y-126346000D01*
X110007061Y-126346000D01*
X109807102Y-126385774D01*
X109618744Y-126463795D01*
X109449226Y-126577063D01*
X109305063Y-126721226D01*
X109191795Y-126890744D01*
X109113774Y-127079102D01*
X109074000Y-127279061D01*
X108988750Y-127279061D01*
X108988750Y-127275311D01*
X108948976Y-127075352D01*
X108870955Y-126886994D01*
X108757687Y-126717476D01*
X108613524Y-126573313D01*
X108444006Y-126460045D01*
X108255648Y-126382024D01*
X108055689Y-126342250D01*
X107851811Y-126342250D01*
X107651852Y-126382024D01*
X107463494Y-126460045D01*
X107293976Y-126573313D01*
X107149813Y-126717476D01*
X107036545Y-126886994D01*
X106958524Y-127075352D01*
X106918750Y-127275311D01*
X99136196Y-127275311D01*
X99161600Y-127147599D01*
X99161600Y-126852401D01*
X99104010Y-126562875D01*
X98991042Y-126290147D01*
X98827039Y-126044698D01*
X98618302Y-125835961D01*
X98459719Y-125730000D01*
X98618302Y-125624039D01*
X98827039Y-125415302D01*
X98991042Y-125169853D01*
X99011666Y-125120061D01*
X102470000Y-125120061D01*
X102470000Y-125323939D01*
X102509774Y-125523898D01*
X102587795Y-125712256D01*
X102701063Y-125881774D01*
X102845226Y-126025937D01*
X103014744Y-126139205D01*
X103203102Y-126217226D01*
X103403061Y-126257000D01*
X103606939Y-126257000D01*
X103806898Y-126217226D01*
X103995256Y-126139205D01*
X104164774Y-126025937D01*
X104308937Y-125881774D01*
X104422205Y-125712256D01*
X104500226Y-125523898D01*
X104540000Y-125323939D01*
X104540000Y-125120061D01*
X104500226Y-124920102D01*
X104422205Y-124731744D01*
X104308937Y-124562226D01*
X104164774Y-124418063D01*
X103995256Y-124304795D01*
X103806898Y-124226774D01*
X103606939Y-124187000D01*
X103403061Y-124187000D01*
X103203102Y-124226774D01*
X103014744Y-124304795D01*
X102845226Y-124418063D01*
X102701063Y-124562226D01*
X102587795Y-124731744D01*
X102509774Y-124920102D01*
X102470000Y-125120061D01*
X99011666Y-125120061D01*
X99104010Y-124897125D01*
X99161600Y-124607599D01*
X99161600Y-124312401D01*
X99120159Y-124104061D01*
X109074000Y-124104061D01*
X109074000Y-124307939D01*
X109113774Y-124507898D01*
X109191795Y-124696256D01*
X109305063Y-124865774D01*
X109449226Y-125009937D01*
X109618744Y-125123205D01*
X109807102Y-125201226D01*
X110007061Y-125241000D01*
X110210939Y-125241000D01*
X110410898Y-125201226D01*
X110599256Y-125123205D01*
X110768774Y-125009937D01*
X110912937Y-124865774D01*
X111026205Y-124696256D01*
X111104226Y-124507898D01*
X111144000Y-124307939D01*
X111144000Y-124104061D01*
X111104226Y-123904102D01*
X111026205Y-123715744D01*
X110912937Y-123546226D01*
X110768774Y-123402063D01*
X110599256Y-123288795D01*
X110410898Y-123210774D01*
X110210939Y-123171000D01*
X110007061Y-123171000D01*
X109807102Y-123210774D01*
X109618744Y-123288795D01*
X109449226Y-123402063D01*
X109305063Y-123546226D01*
X109191795Y-123715744D01*
X109113774Y-123904102D01*
X109074000Y-124104061D01*
X99120159Y-124104061D01*
X99104010Y-124022875D01*
X98991042Y-123750147D01*
X98827039Y-123504698D01*
X98618302Y-123295961D01*
X98459719Y-123190000D01*
X98618302Y-123084039D01*
X98741280Y-122961061D01*
X102470000Y-122961061D01*
X102470000Y-123164939D01*
X102509774Y-123364898D01*
X102587795Y-123553256D01*
X102701063Y-123722774D01*
X102845226Y-123866937D01*
X103014744Y-123980205D01*
X103203102Y-124058226D01*
X103403061Y-124098000D01*
X103606939Y-124098000D01*
X103806898Y-124058226D01*
X103995256Y-123980205D01*
X104164774Y-123866937D01*
X104308937Y-123722774D01*
X104422205Y-123553256D01*
X104500226Y-123364898D01*
X104540000Y-123164939D01*
X104540000Y-122961061D01*
X104500226Y-122761102D01*
X104422205Y-122572744D01*
X104308937Y-122403226D01*
X104164774Y-122259063D01*
X103995256Y-122145795D01*
X103806898Y-122067774D01*
X103606939Y-122028000D01*
X103403061Y-122028000D01*
X103203102Y-122067774D01*
X103014744Y-122145795D01*
X102845226Y-122259063D01*
X102701063Y-122403226D01*
X102587795Y-122572744D01*
X102509774Y-122761102D01*
X102470000Y-122961061D01*
X98741280Y-122961061D01*
X98827039Y-122875302D01*
X98991042Y-122629853D01*
X99104010Y-122357125D01*
X99161600Y-122067599D01*
X99161600Y-121945061D01*
X109074000Y-121945061D01*
X109074000Y-122148939D01*
X109113774Y-122348898D01*
X109191795Y-122537256D01*
X109305063Y-122706774D01*
X109449226Y-122850937D01*
X109618744Y-122964205D01*
X109807102Y-123042226D01*
X110007061Y-123082000D01*
X110210939Y-123082000D01*
X110410898Y-123042226D01*
X110599256Y-122964205D01*
X110768774Y-122850937D01*
X110912937Y-122706774D01*
X111026205Y-122537256D01*
X111104226Y-122348898D01*
X111144000Y-122148939D01*
X111144000Y-121945061D01*
X111118739Y-121818061D01*
X130537000Y-121818061D01*
X130537000Y-122021939D01*
X130576774Y-122221898D01*
X130654795Y-122410256D01*
X130751510Y-122555000D01*
X130654795Y-122699744D01*
X130576774Y-122888102D01*
X130537000Y-123088061D01*
X130537000Y-123291939D01*
X130576774Y-123491898D01*
X130654795Y-123680256D01*
X130768063Y-123849774D01*
X130912226Y-123993937D01*
X131081744Y-124107205D01*
X131166953Y-124142500D01*
X131081744Y-124177795D01*
X130912226Y-124291063D01*
X130768063Y-124435226D01*
X130654795Y-124604744D01*
X130576774Y-124793102D01*
X130537000Y-124993061D01*
X130537000Y-125196939D01*
X130576774Y-125396898D01*
X130654795Y-125585256D01*
X130768063Y-125754774D01*
X130912226Y-125898937D01*
X131081744Y-126012205D01*
X131270102Y-126090226D01*
X131470061Y-126130000D01*
X131673939Y-126130000D01*
X131873898Y-126090226D01*
X132062256Y-126012205D01*
X132231774Y-125898937D01*
X132375937Y-125754774D01*
X132489205Y-125585256D01*
X132567226Y-125396898D01*
X132607000Y-125196939D01*
X132607000Y-124993061D01*
X132567226Y-124793102D01*
X132489205Y-124604744D01*
X132375937Y-124435226D01*
X132231774Y-124291063D01*
X132062256Y-124177795D01*
X131977047Y-124142500D01*
X132062256Y-124107205D01*
X132231774Y-123993937D01*
X132375937Y-123849774D01*
X132489205Y-123680256D01*
X132567226Y-123491898D01*
X132607000Y-123291939D01*
X132607000Y-123088061D01*
X132567226Y-122888102D01*
X132489205Y-122699744D01*
X132392490Y-122555000D01*
X132489205Y-122410256D01*
X132567226Y-122221898D01*
X132607000Y-122021939D01*
X132607000Y-121818061D01*
X132567226Y-121618102D01*
X132489205Y-121429744D01*
X132375937Y-121260226D01*
X132231774Y-121116063D01*
X132062256Y-121002795D01*
X131873898Y-120924774D01*
X131673939Y-120885000D01*
X131470061Y-120885000D01*
X131270102Y-120924774D01*
X131081744Y-121002795D01*
X130912226Y-121116063D01*
X130768063Y-121260226D01*
X130654795Y-121429744D01*
X130576774Y-121618102D01*
X130537000Y-121818061D01*
X111118739Y-121818061D01*
X111104226Y-121745102D01*
X111026205Y-121556744D01*
X110912937Y-121387226D01*
X110768774Y-121243063D01*
X110599256Y-121129795D01*
X110410898Y-121051774D01*
X110210939Y-121012000D01*
X110007061Y-121012000D01*
X109807102Y-121051774D01*
X109618744Y-121129795D01*
X109449226Y-121243063D01*
X109305063Y-121387226D01*
X109191795Y-121556744D01*
X109113774Y-121745102D01*
X109074000Y-121945061D01*
X99161600Y-121945061D01*
X99161600Y-121772401D01*
X99104010Y-121482875D01*
X98991042Y-121210147D01*
X98827039Y-120964698D01*
X98618302Y-120755961D01*
X98459719Y-120650000D01*
X98618302Y-120544039D01*
X98827039Y-120335302D01*
X98991042Y-120089853D01*
X99104010Y-119817125D01*
X99135450Y-119659061D01*
X109074000Y-119659061D01*
X109074000Y-119862939D01*
X109113774Y-120062898D01*
X109191795Y-120251256D01*
X109305063Y-120420774D01*
X109449226Y-120564937D01*
X109618744Y-120678205D01*
X109807102Y-120756226D01*
X110007061Y-120796000D01*
X110210939Y-120796000D01*
X110410898Y-120756226D01*
X110599256Y-120678205D01*
X110768774Y-120564937D01*
X110912937Y-120420774D01*
X111026205Y-120251256D01*
X111104226Y-120062898D01*
X111144000Y-119862939D01*
X111144000Y-119659061D01*
X111104226Y-119459102D01*
X111026205Y-119270744D01*
X110912937Y-119101226D01*
X110768774Y-118957063D01*
X110599256Y-118843795D01*
X110410898Y-118765774D01*
X110210939Y-118726000D01*
X110007061Y-118726000D01*
X109807102Y-118765774D01*
X109618744Y-118843795D01*
X109449226Y-118957063D01*
X109305063Y-119101226D01*
X109191795Y-119270744D01*
X109113774Y-119459102D01*
X109074000Y-119659061D01*
X99135450Y-119659061D01*
X99161600Y-119527599D01*
X99161600Y-119232401D01*
X99104010Y-118942875D01*
X98991042Y-118670147D01*
X98827039Y-118424698D01*
X98618302Y-118215961D01*
X98459719Y-118110000D01*
X98618302Y-118004039D01*
X98827039Y-117795302D01*
X98991042Y-117549853D01*
X99064271Y-117373061D01*
X109074000Y-117373061D01*
X109074000Y-117576939D01*
X109113774Y-117776898D01*
X109191795Y-117965256D01*
X109305063Y-118134774D01*
X109449226Y-118278937D01*
X109618744Y-118392205D01*
X109807102Y-118470226D01*
X110007061Y-118510000D01*
X110210939Y-118510000D01*
X110410898Y-118470226D01*
X110599256Y-118392205D01*
X110768774Y-118278937D01*
X110912937Y-118134774D01*
X111026205Y-117965256D01*
X111104226Y-117776898D01*
X111144000Y-117576939D01*
X111144000Y-117373061D01*
X111104226Y-117173102D01*
X111026205Y-116984744D01*
X110912937Y-116815226D01*
X110768774Y-116671063D01*
X110599256Y-116557795D01*
X110410898Y-116479774D01*
X110210939Y-116440000D01*
X110007061Y-116440000D01*
X109807102Y-116479774D01*
X109618744Y-116557795D01*
X109449226Y-116671063D01*
X109305063Y-116815226D01*
X109191795Y-116984744D01*
X109113774Y-117173102D01*
X109074000Y-117373061D01*
X99064271Y-117373061D01*
X99104010Y-117277125D01*
X99161600Y-116987599D01*
X99161600Y-116692401D01*
X99104010Y-116402875D01*
X98991042Y-116130147D01*
X98827039Y-115884698D01*
X98618302Y-115675961D01*
X98459719Y-115570000D01*
X98618302Y-115464039D01*
X98827039Y-115255302D01*
X98939453Y-115087061D01*
X109074000Y-115087061D01*
X109074000Y-115290939D01*
X109113774Y-115490898D01*
X109191795Y-115679256D01*
X109305063Y-115848774D01*
X109449226Y-115992937D01*
X109618744Y-116106205D01*
X109807102Y-116184226D01*
X110007061Y-116224000D01*
X110210939Y-116224000D01*
X110410898Y-116184226D01*
X110599256Y-116106205D01*
X110768774Y-115992937D01*
X110912937Y-115848774D01*
X111026205Y-115679256D01*
X111104226Y-115490898D01*
X111144000Y-115290939D01*
X111144000Y-115087061D01*
X111104226Y-114887102D01*
X111026205Y-114698744D01*
X110912937Y-114529226D01*
X110768774Y-114385063D01*
X110599256Y-114271795D01*
X110410898Y-114193774D01*
X110210939Y-114154000D01*
X110007061Y-114154000D01*
X109807102Y-114193774D01*
X109618744Y-114271795D01*
X109449226Y-114385063D01*
X109305063Y-114529226D01*
X109191795Y-114698744D01*
X109113774Y-114887102D01*
X109074000Y-115087061D01*
X98939453Y-115087061D01*
X98991042Y-115009853D01*
X99104010Y-114737125D01*
X99161600Y-114447599D01*
X99161600Y-114152401D01*
X99104010Y-113862875D01*
X98991042Y-113590147D01*
X98827039Y-113344698D01*
X98618302Y-113135961D01*
X98459719Y-113030000D01*
X98618302Y-112924039D01*
X98741280Y-112801061D01*
X109074000Y-112801061D01*
X109074000Y-113004939D01*
X109113774Y-113204898D01*
X109191795Y-113393256D01*
X109305063Y-113562774D01*
X109449226Y-113706937D01*
X109618744Y-113820205D01*
X109807102Y-113898226D01*
X110007061Y-113938000D01*
X110210939Y-113938000D01*
X110410898Y-113898226D01*
X110599256Y-113820205D01*
X110768774Y-113706937D01*
X110912937Y-113562774D01*
X111026205Y-113393256D01*
X111104226Y-113204898D01*
X111144000Y-113004939D01*
X111144000Y-112801061D01*
X111104226Y-112601102D01*
X111026205Y-112412744D01*
X110912937Y-112243226D01*
X110768774Y-112099063D01*
X110599256Y-111985795D01*
X110410898Y-111907774D01*
X110210939Y-111868000D01*
X110007061Y-111868000D01*
X109807102Y-111907774D01*
X109618744Y-111985795D01*
X109449226Y-112099063D01*
X109305063Y-112243226D01*
X109191795Y-112412744D01*
X109113774Y-112601102D01*
X109074000Y-112801061D01*
X98741280Y-112801061D01*
X98827039Y-112715302D01*
X98991042Y-112469853D01*
X99104010Y-112197125D01*
X99161600Y-111907599D01*
X99161600Y-111612401D01*
X99104010Y-111322875D01*
X98991042Y-111050147D01*
X98827039Y-110804698D01*
X98618302Y-110595961D01*
X98497227Y-110515061D01*
X109074000Y-110515061D01*
X109074000Y-110718939D01*
X109113774Y-110918898D01*
X109191795Y-111107256D01*
X109305063Y-111276774D01*
X109449226Y-111420937D01*
X109618744Y-111534205D01*
X109807102Y-111612226D01*
X110007061Y-111652000D01*
X110210939Y-111652000D01*
X110410898Y-111612226D01*
X110599256Y-111534205D01*
X110768774Y-111420937D01*
X110912937Y-111276774D01*
X111026205Y-111107256D01*
X111104226Y-110918898D01*
X111144000Y-110718939D01*
X111144000Y-110515061D01*
X111104226Y-110315102D01*
X111026205Y-110126744D01*
X110912937Y-109957226D01*
X110768774Y-109813063D01*
X110599256Y-109699795D01*
X110410898Y-109621774D01*
X110210939Y-109582000D01*
X110007061Y-109582000D01*
X109807102Y-109621774D01*
X109618744Y-109699795D01*
X109449226Y-109813063D01*
X109305063Y-109957226D01*
X109191795Y-110126744D01*
X109113774Y-110315102D01*
X109074000Y-110515061D01*
X98497227Y-110515061D01*
X98372853Y-110431958D01*
X98100125Y-110318990D01*
X97810599Y-110261400D01*
X97515401Y-110261400D01*
X97225875Y-110318990D01*
X96953147Y-110431958D01*
X96707698Y-110595961D01*
X96498961Y-110804698D01*
X96393000Y-110963281D01*
X96287039Y-110804698D01*
X96078302Y-110595961D01*
X95832853Y-110431958D01*
X95560125Y-110318990D01*
X95270599Y-110261400D01*
X94975401Y-110261400D01*
X94685875Y-110318990D01*
X94413147Y-110431958D01*
X94167698Y-110595961D01*
X93958961Y-110804698D01*
X93794958Y-111050147D01*
X93681990Y-111322875D01*
X93624400Y-111612401D01*
X87336734Y-111612401D01*
X87279932Y-111326842D01*
X87167990Y-111056589D01*
X87005475Y-110813368D01*
X86873620Y-110681513D01*
X86946180Y-110659502D01*
X87056494Y-110600537D01*
X87153185Y-110521185D01*
X87232537Y-110424494D01*
X87291502Y-110314180D01*
X87327812Y-110194482D01*
X87340072Y-110070000D01*
X87340072Y-108370000D01*
X87327812Y-108245518D01*
X87291502Y-108125820D01*
X87232537Y-108015506D01*
X87153185Y-107918815D01*
X87056494Y-107839463D01*
X86946180Y-107780498D01*
X86862168Y-107755013D01*
X108599952Y-107755013D01*
X108599952Y-107958891D01*
X108639726Y-108158850D01*
X108717747Y-108347208D01*
X108831015Y-108516726D01*
X108975178Y-108660889D01*
X109144696Y-108774157D01*
X109333054Y-108852178D01*
X109533013Y-108891952D01*
X109736891Y-108891952D01*
X109936850Y-108852178D01*
X110125208Y-108774157D01*
X110294726Y-108660889D01*
X110438889Y-108516726D01*
X110552157Y-108347208D01*
X110630178Y-108158850D01*
X110669952Y-107958891D01*
X110669952Y-107755013D01*
X110630178Y-107555054D01*
X110552157Y-107366696D01*
X110438889Y-107197178D01*
X110294726Y-107053015D01*
X110125208Y-106939747D01*
X109936850Y-106861726D01*
X109736891Y-106821952D01*
X109533013Y-106821952D01*
X109333054Y-106861726D01*
X109144696Y-106939747D01*
X108975178Y-107053015D01*
X108831015Y-107197178D01*
X108717747Y-107366696D01*
X108639726Y-107555054D01*
X108599952Y-107755013D01*
X86862168Y-107755013D01*
X86826482Y-107744188D01*
X86702000Y-107731928D01*
X85002000Y-107731928D01*
X84877518Y-107744188D01*
X84757820Y-107780498D01*
X84647506Y-107839463D01*
X84550815Y-107918815D01*
X84471463Y-108015506D01*
X84412498Y-108125820D01*
X84378000Y-108239545D01*
X84378000Y-106578061D01*
X116821000Y-106578061D01*
X116821000Y-106781939D01*
X116860774Y-106981898D01*
X116938795Y-107170256D01*
X117035510Y-107315000D01*
X116938795Y-107459744D01*
X116860774Y-107648102D01*
X116821000Y-107848061D01*
X116821000Y-108051939D01*
X116860774Y-108251898D01*
X116938795Y-108440256D01*
X117035510Y-108585000D01*
X116938795Y-108729744D01*
X116860774Y-108918102D01*
X116821000Y-109118061D01*
X116821000Y-109321939D01*
X116860774Y-109521898D01*
X116938795Y-109710256D01*
X117035510Y-109855000D01*
X116938795Y-109999744D01*
X116860774Y-110188102D01*
X116821000Y-110388061D01*
X116821000Y-110591939D01*
X116860774Y-110791898D01*
X116938795Y-110980256D01*
X117035510Y-111125000D01*
X116938795Y-111269744D01*
X116860774Y-111458102D01*
X116821000Y-111658061D01*
X116821000Y-111861939D01*
X116860774Y-112061898D01*
X116938795Y-112250256D01*
X117035510Y-112395000D01*
X116938795Y-112539744D01*
X116860774Y-112728102D01*
X116821000Y-112928061D01*
X116821000Y-113131939D01*
X116860774Y-113331898D01*
X116938795Y-113520256D01*
X117035510Y-113665000D01*
X116938795Y-113809744D01*
X116860774Y-113998102D01*
X116821000Y-114198061D01*
X116821000Y-114401939D01*
X116860774Y-114601898D01*
X116938795Y-114790256D01*
X117035510Y-114935000D01*
X116938795Y-115079744D01*
X116860774Y-115268102D01*
X116821000Y-115468061D01*
X116821000Y-115671939D01*
X116860774Y-115871898D01*
X116938795Y-116060256D01*
X117035510Y-116205000D01*
X116938795Y-116349744D01*
X116860774Y-116538102D01*
X116821000Y-116738061D01*
X116821000Y-116941939D01*
X116860774Y-117141898D01*
X116938795Y-117330256D01*
X117035510Y-117475000D01*
X116938795Y-117619744D01*
X116860774Y-117808102D01*
X116821000Y-118008061D01*
X116821000Y-118211939D01*
X116860774Y-118411898D01*
X116938795Y-118600256D01*
X117035510Y-118745000D01*
X116938795Y-118889744D01*
X116860774Y-119078102D01*
X116821000Y-119278061D01*
X116821000Y-119481939D01*
X116860774Y-119681898D01*
X116938795Y-119870256D01*
X117052063Y-120039774D01*
X117196226Y-120183937D01*
X117365744Y-120297205D01*
X117554102Y-120375226D01*
X117754061Y-120415000D01*
X117957939Y-120415000D01*
X118157898Y-120375226D01*
X118346256Y-120297205D01*
X118515774Y-120183937D01*
X118659937Y-120039774D01*
X118773205Y-119870256D01*
X118851226Y-119681898D01*
X118891000Y-119481939D01*
X118891000Y-119278061D01*
X118851226Y-119078102D01*
X118773205Y-118889744D01*
X118676490Y-118745000D01*
X118773205Y-118600256D01*
X118851226Y-118411898D01*
X118891000Y-118211939D01*
X118891000Y-118008061D01*
X118851226Y-117808102D01*
X118773205Y-117619744D01*
X118676490Y-117475000D01*
X118773205Y-117330256D01*
X118851226Y-117141898D01*
X118891000Y-116941939D01*
X118891000Y-116738061D01*
X125965000Y-116738061D01*
X125965000Y-116941939D01*
X126004774Y-117141898D01*
X126082795Y-117330256D01*
X126196063Y-117499774D01*
X126340226Y-117643937D01*
X126509744Y-117757205D01*
X126698102Y-117835226D01*
X126898061Y-117875000D01*
X127101939Y-117875000D01*
X127301898Y-117835226D01*
X127490256Y-117757205D01*
X127659774Y-117643937D01*
X127803937Y-117499774D01*
X127917205Y-117330256D01*
X127995226Y-117141898D01*
X128035000Y-116941939D01*
X128035000Y-116738061D01*
X127995226Y-116538102D01*
X127917205Y-116349744D01*
X127803937Y-116180226D01*
X127659774Y-116036063D01*
X127490256Y-115922795D01*
X127301898Y-115844774D01*
X127101939Y-115805000D01*
X126898061Y-115805000D01*
X126698102Y-115844774D01*
X126509744Y-115922795D01*
X126340226Y-116036063D01*
X126196063Y-116180226D01*
X126082795Y-116349744D01*
X126004774Y-116538102D01*
X125965000Y-116738061D01*
X118891000Y-116738061D01*
X118851226Y-116538102D01*
X118773205Y-116349744D01*
X118676490Y-116205000D01*
X118773205Y-116060256D01*
X118851226Y-115871898D01*
X118891000Y-115671939D01*
X118891000Y-115468061D01*
X118851226Y-115268102D01*
X118828842Y-115214061D01*
X122155000Y-115214061D01*
X122155000Y-115417939D01*
X122194774Y-115617898D01*
X122272795Y-115806256D01*
X122386063Y-115975774D01*
X122530226Y-116119937D01*
X122699744Y-116233205D01*
X122888102Y-116311226D01*
X123088061Y-116351000D01*
X123291939Y-116351000D01*
X123491898Y-116311226D01*
X123680256Y-116233205D01*
X123849774Y-116119937D01*
X123993937Y-115975774D01*
X124107205Y-115806256D01*
X124185226Y-115617898D01*
X124225000Y-115417939D01*
X124225000Y-115214061D01*
X124185226Y-115014102D01*
X124107205Y-114825744D01*
X123993937Y-114656226D01*
X123849774Y-114512063D01*
X123680256Y-114398795D01*
X123491898Y-114320774D01*
X123291939Y-114281000D01*
X123088061Y-114281000D01*
X122888102Y-114320774D01*
X122699744Y-114398795D01*
X122530226Y-114512063D01*
X122386063Y-114656226D01*
X122272795Y-114825744D01*
X122194774Y-115014102D01*
X122155000Y-115214061D01*
X118828842Y-115214061D01*
X118773205Y-115079744D01*
X118676490Y-114935000D01*
X118773205Y-114790256D01*
X118851226Y-114601898D01*
X118891000Y-114401939D01*
X118891000Y-114198061D01*
X118851226Y-113998102D01*
X118773205Y-113809744D01*
X118676490Y-113665000D01*
X118773205Y-113520256D01*
X118851226Y-113331898D01*
X118891000Y-113131939D01*
X118891000Y-112928061D01*
X118851226Y-112728102D01*
X118773205Y-112539744D01*
X118676490Y-112395000D01*
X118773205Y-112250256D01*
X118851226Y-112061898D01*
X118891000Y-111861939D01*
X118891000Y-111658061D01*
X125965000Y-111658061D01*
X125965000Y-111861939D01*
X126004774Y-112061898D01*
X126082795Y-112250256D01*
X126179510Y-112395000D01*
X126082795Y-112539744D01*
X126004774Y-112728102D01*
X125965000Y-112928061D01*
X125965000Y-113131939D01*
X126004774Y-113331898D01*
X126082795Y-113520256D01*
X126196063Y-113689774D01*
X126340226Y-113833937D01*
X126509744Y-113947205D01*
X126698102Y-114025226D01*
X126898061Y-114065000D01*
X127101939Y-114065000D01*
X127301898Y-114025226D01*
X127490256Y-113947205D01*
X127659774Y-113833937D01*
X127803937Y-113689774D01*
X127917205Y-113520256D01*
X127995226Y-113331898D01*
X128035000Y-113131939D01*
X128035000Y-112928061D01*
X127995226Y-112728102D01*
X127917205Y-112539744D01*
X127820490Y-112395000D01*
X127917205Y-112250256D01*
X127995226Y-112061898D01*
X128035000Y-111861939D01*
X128035000Y-111658061D01*
X127995226Y-111458102D01*
X127917205Y-111269744D01*
X127803937Y-111100226D01*
X127659774Y-110956063D01*
X127490256Y-110842795D01*
X127301898Y-110764774D01*
X127101939Y-110725000D01*
X126898061Y-110725000D01*
X126698102Y-110764774D01*
X126509744Y-110842795D01*
X126340226Y-110956063D01*
X126196063Y-111100226D01*
X126082795Y-111269744D01*
X126004774Y-111458102D01*
X125965000Y-111658061D01*
X118891000Y-111658061D01*
X118851226Y-111458102D01*
X118773205Y-111269744D01*
X118676490Y-111125000D01*
X118773205Y-110980256D01*
X118851226Y-110791898D01*
X118891000Y-110591939D01*
X118891000Y-110388061D01*
X118851226Y-110188102D01*
X118773205Y-109999744D01*
X118676490Y-109855000D01*
X118773205Y-109710256D01*
X118851226Y-109521898D01*
X118891000Y-109321939D01*
X118891000Y-109118061D01*
X118851226Y-108918102D01*
X118773205Y-108729744D01*
X118676490Y-108585000D01*
X118773205Y-108440256D01*
X118851226Y-108251898D01*
X118891000Y-108051939D01*
X118891000Y-107848061D01*
X133077000Y-107848061D01*
X133077000Y-108051939D01*
X133116774Y-108251898D01*
X133194795Y-108440256D01*
X133308063Y-108609774D01*
X133452226Y-108753937D01*
X133621744Y-108867205D01*
X133810102Y-108945226D01*
X134010061Y-108985000D01*
X134213939Y-108985000D01*
X134413898Y-108945226D01*
X134602256Y-108867205D01*
X134771774Y-108753937D01*
X134915937Y-108609774D01*
X135029205Y-108440256D01*
X135107226Y-108251898D01*
X135147000Y-108051939D01*
X135147000Y-107848061D01*
X135107226Y-107648102D01*
X135029205Y-107459744D01*
X134915937Y-107290226D01*
X134771774Y-107146063D01*
X134602256Y-107032795D01*
X134413898Y-106954774D01*
X134213939Y-106915000D01*
X134010061Y-106915000D01*
X133810102Y-106954774D01*
X133621744Y-107032795D01*
X133452226Y-107146063D01*
X133308063Y-107290226D01*
X133194795Y-107459744D01*
X133116774Y-107648102D01*
X133077000Y-107848061D01*
X118891000Y-107848061D01*
X118851226Y-107648102D01*
X118773205Y-107459744D01*
X118676490Y-107315000D01*
X118773205Y-107170256D01*
X118851226Y-106981898D01*
X118891000Y-106781939D01*
X118891000Y-106578061D01*
X125965000Y-106578061D01*
X125965000Y-106781939D01*
X126004774Y-106981898D01*
X126082795Y-107170256D01*
X126196063Y-107339774D01*
X126340226Y-107483937D01*
X126509744Y-107597205D01*
X126698102Y-107675226D01*
X126898061Y-107715000D01*
X127101939Y-107715000D01*
X127301898Y-107675226D01*
X127490256Y-107597205D01*
X127659774Y-107483937D01*
X127803937Y-107339774D01*
X127917205Y-107170256D01*
X127995226Y-106981898D01*
X128035000Y-106781939D01*
X128035000Y-106578061D01*
X127995226Y-106378102D01*
X127917205Y-106189744D01*
X127803937Y-106020226D01*
X127659774Y-105876063D01*
X127490256Y-105762795D01*
X127301898Y-105684774D01*
X127101939Y-105645000D01*
X126898061Y-105645000D01*
X126698102Y-105684774D01*
X126509744Y-105762795D01*
X126340226Y-105876063D01*
X126196063Y-106020226D01*
X126082795Y-106189744D01*
X126004774Y-106378102D01*
X125965000Y-106578061D01*
X118891000Y-106578061D01*
X118851226Y-106378102D01*
X118773205Y-106189744D01*
X118659937Y-106020226D01*
X118515774Y-105876063D01*
X118346256Y-105762795D01*
X118157898Y-105684774D01*
X117957939Y-105645000D01*
X117754061Y-105645000D01*
X117554102Y-105684774D01*
X117365744Y-105762795D01*
X117196226Y-105876063D01*
X117052063Y-106020226D01*
X116938795Y-106189744D01*
X116860774Y-106378102D01*
X116821000Y-106578061D01*
X84378000Y-106578061D01*
X84378000Y-102768061D01*
X87611000Y-102768061D01*
X87611000Y-102971939D01*
X87650774Y-103171898D01*
X87728795Y-103360256D01*
X87842063Y-103529774D01*
X87986226Y-103673937D01*
X88155744Y-103787205D01*
X88344102Y-103865226D01*
X88544061Y-103905000D01*
X88747939Y-103905000D01*
X88947898Y-103865226D01*
X89136256Y-103787205D01*
X89281000Y-103690490D01*
X89425744Y-103787205D01*
X89614102Y-103865226D01*
X89814061Y-103905000D01*
X90017939Y-103905000D01*
X90217898Y-103865226D01*
X90406256Y-103787205D01*
X90551000Y-103690490D01*
X90695744Y-103787205D01*
X90884102Y-103865226D01*
X91084061Y-103905000D01*
X91287939Y-103905000D01*
X91487898Y-103865226D01*
X91676256Y-103787205D01*
X91845774Y-103673937D01*
X91989937Y-103529774D01*
X92103205Y-103360256D01*
X92181226Y-103171898D01*
X92221000Y-102971939D01*
X92221000Y-102768061D01*
X92181226Y-102568102D01*
X92103205Y-102379744D01*
X91989937Y-102210226D01*
X91845774Y-102066063D01*
X91676256Y-101952795D01*
X91487898Y-101874774D01*
X91287939Y-101835000D01*
X91084061Y-101835000D01*
X90884102Y-101874774D01*
X90695744Y-101952795D01*
X90551000Y-102049510D01*
X90406256Y-101952795D01*
X90217898Y-101874774D01*
X90017939Y-101835000D01*
X89814061Y-101835000D01*
X89614102Y-101874774D01*
X89425744Y-101952795D01*
X89281000Y-102049510D01*
X89136256Y-101952795D01*
X88947898Y-101874774D01*
X88747939Y-101835000D01*
X88544061Y-101835000D01*
X88344102Y-101874774D01*
X88155744Y-101952795D01*
X87986226Y-102066063D01*
X87842063Y-102210226D01*
X87728795Y-102379744D01*
X87650774Y-102568102D01*
X87611000Y-102768061D01*
X84378000Y-102768061D01*
X84378000Y-98958067D01*
X88881000Y-98958067D01*
X88881000Y-99161945D01*
X88920774Y-99361904D01*
X88998795Y-99550262D01*
X89112063Y-99719780D01*
X89256226Y-99863943D01*
X89425744Y-99977211D01*
X89614102Y-100055232D01*
X89814061Y-100095006D01*
X90017939Y-100095006D01*
X90217898Y-100055232D01*
X90406256Y-99977211D01*
X90575774Y-99863943D01*
X90719937Y-99719780D01*
X90833205Y-99550262D01*
X90911226Y-99361904D01*
X90951000Y-99161945D01*
X90951000Y-98958067D01*
X90950999Y-98958061D01*
X91675000Y-98958061D01*
X91675000Y-99161939D01*
X91714774Y-99361898D01*
X91792795Y-99550256D01*
X91906063Y-99719774D01*
X92050226Y-99863937D01*
X92219744Y-99977205D01*
X92408102Y-100055226D01*
X92608061Y-100095000D01*
X92811939Y-100095000D01*
X93011898Y-100055226D01*
X93200256Y-99977205D01*
X93369774Y-99863937D01*
X93513937Y-99719774D01*
X93598601Y-99593065D01*
X99168000Y-99593065D01*
X99168000Y-99796943D01*
X99207774Y-99996902D01*
X99285795Y-100185260D01*
X99399063Y-100354778D01*
X99543226Y-100498941D01*
X99712744Y-100612209D01*
X99901102Y-100690230D01*
X100101061Y-100730004D01*
X100304939Y-100730004D01*
X100504898Y-100690230D01*
X100693256Y-100612209D01*
X100862774Y-100498941D01*
X101006937Y-100354778D01*
X101120205Y-100185260D01*
X101198226Y-99996902D01*
X101238000Y-99796943D01*
X101238000Y-99593065D01*
X101238000Y-99593061D01*
X108566000Y-99593061D01*
X108566000Y-99796939D01*
X108605774Y-99996898D01*
X108683795Y-100185256D01*
X108797063Y-100354774D01*
X108941226Y-100498937D01*
X109110744Y-100612205D01*
X109299102Y-100690226D01*
X109499061Y-100730000D01*
X109702939Y-100730000D01*
X109902898Y-100690226D01*
X110091256Y-100612205D01*
X110260774Y-100498937D01*
X110404937Y-100354774D01*
X110518205Y-100185256D01*
X110596226Y-99996898D01*
X110636000Y-99796939D01*
X110636000Y-99593061D01*
X117710000Y-99593061D01*
X117710000Y-99796939D01*
X117749774Y-99996898D01*
X117827795Y-100185256D01*
X117941063Y-100354774D01*
X118085226Y-100498937D01*
X118254744Y-100612205D01*
X118443102Y-100690226D01*
X118643061Y-100730000D01*
X118846939Y-100730000D01*
X119046898Y-100690226D01*
X119235256Y-100612205D01*
X119404774Y-100498937D01*
X119548937Y-100354774D01*
X119662205Y-100185256D01*
X119740226Y-99996898D01*
X119780000Y-99796939D01*
X119780000Y-99593061D01*
X119740226Y-99393102D01*
X119662205Y-99204744D01*
X119548937Y-99035226D01*
X119404774Y-98891063D01*
X119235256Y-98777795D01*
X119046898Y-98699774D01*
X118846939Y-98660000D01*
X118643061Y-98660000D01*
X118443102Y-98699774D01*
X118254744Y-98777795D01*
X118085226Y-98891063D01*
X117941063Y-99035226D01*
X117827795Y-99204744D01*
X117749774Y-99393102D01*
X117710000Y-99593061D01*
X110636000Y-99593061D01*
X110596226Y-99393102D01*
X110518205Y-99204744D01*
X110404937Y-99035226D01*
X110260774Y-98891063D01*
X110091256Y-98777795D01*
X109902898Y-98699774D01*
X109702939Y-98660000D01*
X109499061Y-98660000D01*
X109299102Y-98699774D01*
X109110744Y-98777795D01*
X108941226Y-98891063D01*
X108797063Y-99035226D01*
X108683795Y-99204744D01*
X108605774Y-99393102D01*
X108566000Y-99593061D01*
X101238000Y-99593061D01*
X101198226Y-99393106D01*
X101120205Y-99204748D01*
X101006937Y-99035230D01*
X100862774Y-98891067D01*
X100693256Y-98777799D01*
X100504898Y-98699778D01*
X100304939Y-98660004D01*
X100101061Y-98660004D01*
X99901102Y-98699778D01*
X99712744Y-98777799D01*
X99543226Y-98891067D01*
X99399063Y-99035230D01*
X99285795Y-99204748D01*
X99207774Y-99393106D01*
X99168000Y-99593065D01*
X93598601Y-99593065D01*
X93627205Y-99550256D01*
X93705226Y-99361898D01*
X93745000Y-99161939D01*
X93745000Y-98958061D01*
X93705226Y-98758102D01*
X93627205Y-98569744D01*
X93513937Y-98400226D01*
X93369774Y-98256063D01*
X93200256Y-98142795D01*
X93011898Y-98064774D01*
X92811939Y-98025000D01*
X92608061Y-98025000D01*
X92408102Y-98064774D01*
X92219744Y-98142795D01*
X92050226Y-98256063D01*
X91906063Y-98400226D01*
X91792795Y-98569744D01*
X91714774Y-98758102D01*
X91675000Y-98958061D01*
X90950999Y-98958061D01*
X90911226Y-98758108D01*
X90833205Y-98569750D01*
X90719937Y-98400232D01*
X90575774Y-98256069D01*
X90406256Y-98142801D01*
X90217898Y-98064780D01*
X90017939Y-98025006D01*
X89814061Y-98025006D01*
X89614102Y-98064780D01*
X89425744Y-98142801D01*
X89256226Y-98256069D01*
X89112063Y-98400232D01*
X88998795Y-98569750D01*
X88920774Y-98758108D01*
X88881000Y-98958067D01*
X84378000Y-98958067D01*
X84378000Y-95656061D01*
X85325000Y-95656061D01*
X85325000Y-95859939D01*
X85364774Y-96059898D01*
X85442795Y-96248256D01*
X85556063Y-96417774D01*
X85700226Y-96561937D01*
X85869744Y-96675205D01*
X86058102Y-96753226D01*
X86258061Y-96793000D01*
X86461939Y-96793000D01*
X86661898Y-96753226D01*
X86850256Y-96675205D01*
X87019774Y-96561937D01*
X87163937Y-96417774D01*
X87277205Y-96248256D01*
X87355226Y-96059898D01*
X87395000Y-95859939D01*
X87395000Y-95656061D01*
X87355226Y-95456102D01*
X87277205Y-95267744D01*
X87163937Y-95098226D01*
X87019774Y-94954063D01*
X86850256Y-94840795D01*
X86661898Y-94762774D01*
X86461939Y-94723000D01*
X86258061Y-94723000D01*
X86058102Y-94762774D01*
X85869744Y-94840795D01*
X85700226Y-94954063D01*
X85556063Y-95098226D01*
X85442795Y-95267744D01*
X85364774Y-95456102D01*
X85325000Y-95656061D01*
X84378000Y-95656061D01*
X84378000Y-94005061D01*
X96501000Y-94005061D01*
X96501000Y-94208939D01*
X96540774Y-94408898D01*
X96618795Y-94597256D01*
X96732063Y-94766774D01*
X96876226Y-94910937D01*
X97045744Y-95024205D01*
X97234102Y-95102226D01*
X97434061Y-95142000D01*
X97637939Y-95142000D01*
X97837898Y-95102226D01*
X98026256Y-95024205D01*
X98195774Y-94910937D01*
X98339937Y-94766774D01*
X98424603Y-94640061D01*
X98787000Y-94640061D01*
X98787000Y-94843939D01*
X98826774Y-95043898D01*
X98904795Y-95232256D01*
X99018063Y-95401774D01*
X99162226Y-95545937D01*
X99331744Y-95659205D01*
X99520102Y-95737226D01*
X99720061Y-95777000D01*
X99923939Y-95777000D01*
X100123898Y-95737226D01*
X100312256Y-95659205D01*
X100481774Y-95545937D01*
X100625937Y-95401774D01*
X100739205Y-95232256D01*
X100817226Y-95043898D01*
X100857000Y-94843939D01*
X100857000Y-94640061D01*
X100817226Y-94440102D01*
X100739205Y-94251744D01*
X100625937Y-94082226D01*
X100481774Y-93938063D01*
X100312256Y-93824795D01*
X100123898Y-93746774D01*
X99923939Y-93707000D01*
X99720061Y-93707000D01*
X99520102Y-93746774D01*
X99331744Y-93824795D01*
X99162226Y-93938063D01*
X99018063Y-94082226D01*
X98904795Y-94251744D01*
X98826774Y-94440102D01*
X98787000Y-94640061D01*
X98424603Y-94640061D01*
X98453205Y-94597256D01*
X98531226Y-94408898D01*
X98571000Y-94208939D01*
X98571000Y-94005061D01*
X98531226Y-93805102D01*
X98453205Y-93616744D01*
X98373236Y-93497061D01*
X108733000Y-93497061D01*
X108733000Y-93700939D01*
X108772774Y-93900898D01*
X108850795Y-94089256D01*
X108964063Y-94258774D01*
X109108226Y-94402937D01*
X109277744Y-94516205D01*
X109466102Y-94594226D01*
X109666061Y-94634000D01*
X109869939Y-94634000D01*
X110069898Y-94594226D01*
X110258256Y-94516205D01*
X110427774Y-94402937D01*
X110571937Y-94258774D01*
X110685205Y-94089256D01*
X110763226Y-93900898D01*
X110803000Y-93700939D01*
X110803000Y-93497061D01*
X117583000Y-93497061D01*
X117583000Y-93700939D01*
X117622774Y-93900898D01*
X117700795Y-94089256D01*
X117814063Y-94258774D01*
X117958226Y-94402937D01*
X118127744Y-94516205D01*
X118316102Y-94594226D01*
X118516061Y-94634000D01*
X118719939Y-94634000D01*
X118919898Y-94594226D01*
X119108256Y-94516205D01*
X119277774Y-94402937D01*
X119421937Y-94258774D01*
X119535205Y-94089256D01*
X119613226Y-93900898D01*
X119653000Y-93700939D01*
X119653000Y-93497061D01*
X119613226Y-93297102D01*
X119535205Y-93108744D01*
X119421937Y-92939226D01*
X119277774Y-92795063D01*
X119108256Y-92681795D01*
X118919898Y-92603774D01*
X118719939Y-92564000D01*
X118516061Y-92564000D01*
X118316102Y-92603774D01*
X118127744Y-92681795D01*
X117958226Y-92795063D01*
X117814063Y-92939226D01*
X117700795Y-93108744D01*
X117622774Y-93297102D01*
X117583000Y-93497061D01*
X110803000Y-93497061D01*
X110763226Y-93297102D01*
X110685205Y-93108744D01*
X110571937Y-92939226D01*
X110427774Y-92795063D01*
X110258256Y-92681795D01*
X110069898Y-92603774D01*
X109869939Y-92564000D01*
X109666061Y-92564000D01*
X109466102Y-92603774D01*
X109277744Y-92681795D01*
X109108226Y-92795063D01*
X108964063Y-92939226D01*
X108850795Y-93108744D01*
X108772774Y-93297102D01*
X108733000Y-93497061D01*
X98373236Y-93497061D01*
X98339937Y-93447226D01*
X98195774Y-93303063D01*
X98026256Y-93189795D01*
X97837898Y-93111774D01*
X97637939Y-93072000D01*
X97434061Y-93072000D01*
X97234102Y-93111774D01*
X97045744Y-93189795D01*
X96876226Y-93303063D01*
X96732063Y-93447226D01*
X96618795Y-93616744D01*
X96540774Y-93805102D01*
X96501000Y-94005061D01*
X84378000Y-94005061D01*
X84378000Y-86004061D01*
X98787000Y-86004061D01*
X98787000Y-86207939D01*
X98826774Y-86407898D01*
X98904795Y-86596256D01*
X99018063Y-86765774D01*
X99162226Y-86909937D01*
X99331744Y-87023205D01*
X99520102Y-87101226D01*
X99720061Y-87141000D01*
X99923939Y-87141000D01*
X100123898Y-87101226D01*
X100312256Y-87023205D01*
X100481774Y-86909937D01*
X100625937Y-86765774D01*
X100739205Y-86596256D01*
X100817226Y-86407898D01*
X100857000Y-86207939D01*
X100857000Y-86004061D01*
X100817226Y-85804102D01*
X100739205Y-85615744D01*
X100625937Y-85446226D01*
X100481774Y-85302063D01*
X100312256Y-85188795D01*
X100123898Y-85110774D01*
X99923939Y-85071000D01*
X99720061Y-85071000D01*
X99520102Y-85110774D01*
X99331744Y-85188795D01*
X99162226Y-85302063D01*
X99018063Y-85446226D01*
X98904795Y-85615744D01*
X98826774Y-85804102D01*
X98787000Y-86004061D01*
X84378000Y-86004061D01*
X84378000Y-84226061D01*
X92818000Y-84226061D01*
X92818000Y-84429939D01*
X92857774Y-84629898D01*
X92935795Y-84818256D01*
X93049063Y-84987774D01*
X93193226Y-85131937D01*
X93362744Y-85245205D01*
X93551102Y-85323226D01*
X93751061Y-85363000D01*
X93954939Y-85363000D01*
X94154898Y-85323226D01*
X94343256Y-85245205D01*
X94512774Y-85131937D01*
X94551500Y-85093211D01*
X94590226Y-85131937D01*
X94759744Y-85245205D01*
X94948102Y-85323226D01*
X95148061Y-85363000D01*
X95351939Y-85363000D01*
X95551898Y-85323226D01*
X95740256Y-85245205D01*
X95885000Y-85148490D01*
X96029744Y-85245205D01*
X96218102Y-85323226D01*
X96418061Y-85363000D01*
X96621939Y-85363000D01*
X96821898Y-85323226D01*
X97010256Y-85245205D01*
X97179774Y-85131937D01*
X97323937Y-84987774D01*
X97437205Y-84818256D01*
X97515226Y-84629898D01*
X97555000Y-84429939D01*
X97555000Y-84226061D01*
X97515226Y-84026102D01*
X97437205Y-83837744D01*
X97323937Y-83668226D01*
X97202272Y-83546561D01*
X106870500Y-83546561D01*
X106870500Y-83750439D01*
X106910274Y-83950398D01*
X106988295Y-84138756D01*
X107101563Y-84308274D01*
X107245726Y-84452437D01*
X107415244Y-84565705D01*
X107603602Y-84643726D01*
X107803561Y-84683500D01*
X108007439Y-84683500D01*
X108207398Y-84643726D01*
X108395756Y-84565705D01*
X108565274Y-84452437D01*
X108709437Y-84308274D01*
X108822705Y-84138756D01*
X108900726Y-83950398D01*
X108940500Y-83750439D01*
X108940500Y-83546561D01*
X108900726Y-83346602D01*
X108822705Y-83158244D01*
X108709437Y-82988726D01*
X108565274Y-82844563D01*
X108395756Y-82731295D01*
X108207398Y-82653274D01*
X108007439Y-82613500D01*
X107803561Y-82613500D01*
X107603602Y-82653274D01*
X107415244Y-82731295D01*
X107245726Y-82844563D01*
X107101563Y-82988726D01*
X106988295Y-83158244D01*
X106910274Y-83346602D01*
X106870500Y-83546561D01*
X97202272Y-83546561D01*
X97179774Y-83524063D01*
X97010256Y-83410795D01*
X96821898Y-83332774D01*
X96621939Y-83293000D01*
X96418061Y-83293000D01*
X96218102Y-83332774D01*
X96029744Y-83410795D01*
X95885000Y-83507510D01*
X95740256Y-83410795D01*
X95551898Y-83332774D01*
X95351939Y-83293000D01*
X95148061Y-83293000D01*
X94948102Y-83332774D01*
X94759744Y-83410795D01*
X94590226Y-83524063D01*
X94551500Y-83562789D01*
X94512774Y-83524063D01*
X94343256Y-83410795D01*
X94154898Y-83332774D01*
X93954939Y-83293000D01*
X93751061Y-83293000D01*
X93551102Y-83332774D01*
X93362744Y-83410795D01*
X93193226Y-83524063D01*
X93049063Y-83668226D01*
X92935795Y-83837744D01*
X92857774Y-84026102D01*
X92818000Y-84226061D01*
X84378000Y-84226061D01*
X84378000Y-80211560D01*
X84424068Y-80443158D01*
X84536010Y-80713411D01*
X84698525Y-80956632D01*
X84905368Y-81163475D01*
X85148589Y-81325990D01*
X85418842Y-81437932D01*
X85705740Y-81495000D01*
X85998260Y-81495000D01*
X86285158Y-81437932D01*
X86555411Y-81325990D01*
X86798632Y-81163475D01*
X87005475Y-80956632D01*
X87167990Y-80713411D01*
X87279932Y-80443158D01*
X87337000Y-80156260D01*
X87337000Y-79863740D01*
X87279932Y-79576842D01*
X87167990Y-79306589D01*
X87005475Y-79063368D01*
X86798632Y-78856525D01*
X86624240Y-78740000D01*
X86798632Y-78623475D01*
X87005475Y-78416632D01*
X87167990Y-78173411D01*
X87185946Y-78130061D01*
X93199000Y-78130061D01*
X93199000Y-78333939D01*
X93238774Y-78533898D01*
X93316795Y-78722256D01*
X93430063Y-78891774D01*
X93574226Y-79035937D01*
X93743744Y-79149205D01*
X93932102Y-79227226D01*
X94132061Y-79267000D01*
X94335939Y-79267000D01*
X94535898Y-79227226D01*
X94724256Y-79149205D01*
X94893774Y-79035937D01*
X95037937Y-78891774D01*
X95151205Y-78722256D01*
X95229226Y-78533898D01*
X95269000Y-78333939D01*
X95269000Y-78130061D01*
X95229226Y-77930102D01*
X95206842Y-77876061D01*
X98025000Y-77876061D01*
X98025000Y-78079939D01*
X98064774Y-78279898D01*
X98142795Y-78468256D01*
X98256063Y-78637774D01*
X98400226Y-78781937D01*
X98569744Y-78895205D01*
X98758102Y-78973226D01*
X98958061Y-79013000D01*
X99161939Y-79013000D01*
X99361898Y-78973226D01*
X99550256Y-78895205D01*
X99719774Y-78781937D01*
X99863937Y-78637774D01*
X99977205Y-78468256D01*
X100055226Y-78279898D01*
X100095000Y-78079939D01*
X100095000Y-78003061D01*
X104121000Y-78003061D01*
X104121000Y-78206939D01*
X104160774Y-78406898D01*
X104238795Y-78595256D01*
X104352063Y-78764774D01*
X104496226Y-78908937D01*
X104665744Y-79022205D01*
X104854102Y-79100226D01*
X105054061Y-79140000D01*
X105257939Y-79140000D01*
X105457898Y-79100226D01*
X105646256Y-79022205D01*
X105815774Y-78908937D01*
X105959937Y-78764774D01*
X106073205Y-78595256D01*
X106151226Y-78406898D01*
X106191000Y-78206939D01*
X106191000Y-78003061D01*
X106151226Y-77803102D01*
X106073205Y-77614744D01*
X105959937Y-77445226D01*
X105815774Y-77301063D01*
X105646256Y-77187795D01*
X105457898Y-77109774D01*
X105257939Y-77070000D01*
X105054061Y-77070000D01*
X104854102Y-77109774D01*
X104665744Y-77187795D01*
X104496226Y-77301063D01*
X104352063Y-77445226D01*
X104238795Y-77614744D01*
X104160774Y-77803102D01*
X104121000Y-78003061D01*
X100095000Y-78003061D01*
X100095000Y-77876061D01*
X100055226Y-77676102D01*
X99977205Y-77487744D01*
X99863937Y-77318226D01*
X99719774Y-77174063D01*
X99550256Y-77060795D01*
X99361898Y-76982774D01*
X99161939Y-76943000D01*
X98958061Y-76943000D01*
X98758102Y-76982774D01*
X98569744Y-77060795D01*
X98400226Y-77174063D01*
X98256063Y-77318226D01*
X98142795Y-77487744D01*
X98064774Y-77676102D01*
X98025000Y-77876061D01*
X95206842Y-77876061D01*
X95151205Y-77741744D01*
X95037937Y-77572226D01*
X94893774Y-77428063D01*
X94724256Y-77314795D01*
X94535898Y-77236774D01*
X94335939Y-77197000D01*
X94132061Y-77197000D01*
X93932102Y-77236774D01*
X93743744Y-77314795D01*
X93574226Y-77428063D01*
X93430063Y-77572226D01*
X93316795Y-77741744D01*
X93238774Y-77930102D01*
X93199000Y-78130061D01*
X87185946Y-78130061D01*
X87279932Y-77903158D01*
X87337000Y-77616260D01*
X87337000Y-77323740D01*
X87279932Y-77036842D01*
X87167990Y-76766589D01*
X87005475Y-76523368D01*
X86798632Y-76316525D01*
X86624240Y-76200000D01*
X86798632Y-76083475D01*
X87005475Y-75876632D01*
X87167990Y-75633411D01*
X87279932Y-75363158D01*
X87337000Y-75076260D01*
X87337000Y-74783740D01*
X87279932Y-74496842D01*
X87167990Y-74226589D01*
X87005475Y-73983368D01*
X86873620Y-73851513D01*
X86946180Y-73829502D01*
X87056494Y-73770537D01*
X87153185Y-73691185D01*
X87232537Y-73594494D01*
X87291502Y-73484180D01*
X87327812Y-73364482D01*
X87340072Y-73240000D01*
X87340072Y-71540000D01*
X87327812Y-71415518D01*
X87322820Y-71399061D01*
X99422000Y-71399061D01*
X99422000Y-71602939D01*
X99461774Y-71802898D01*
X99539795Y-71991256D01*
X99653063Y-72160774D01*
X99797226Y-72304937D01*
X99924532Y-72390000D01*
X99797226Y-72475063D01*
X99653063Y-72619226D01*
X99539795Y-72788744D01*
X99461774Y-72977102D01*
X99422000Y-73177061D01*
X99422000Y-73380939D01*
X99461774Y-73580898D01*
X99539795Y-73769256D01*
X99653063Y-73938774D01*
X99797226Y-74082937D01*
X99924532Y-74168000D01*
X99797226Y-74253063D01*
X99653063Y-74397226D01*
X99539795Y-74566744D01*
X99461774Y-74755102D01*
X99422000Y-74955061D01*
X99422000Y-75158939D01*
X99461774Y-75358898D01*
X99539795Y-75547256D01*
X99653063Y-75716774D01*
X99797226Y-75860937D01*
X99966744Y-75974205D01*
X100155102Y-76052226D01*
X100355061Y-76092000D01*
X100558939Y-76092000D01*
X100758898Y-76052226D01*
X100947256Y-75974205D01*
X101116774Y-75860937D01*
X101260937Y-75716774D01*
X101374205Y-75547256D01*
X101452226Y-75358898D01*
X101492000Y-75158939D01*
X101492000Y-74955061D01*
X101452226Y-74755102D01*
X101374205Y-74566744D01*
X101260937Y-74397226D01*
X101116774Y-74253063D01*
X100989468Y-74168000D01*
X101116774Y-74082937D01*
X101260937Y-73938774D01*
X101374205Y-73769256D01*
X101452226Y-73580898D01*
X101492000Y-73380939D01*
X101492000Y-73177061D01*
X101452226Y-72977102D01*
X101374205Y-72788744D01*
X101260937Y-72619226D01*
X101116774Y-72475063D01*
X100989468Y-72390000D01*
X101116774Y-72304937D01*
X101260937Y-72160774D01*
X101374205Y-71991256D01*
X101452226Y-71802898D01*
X101492000Y-71602939D01*
X101492000Y-71399061D01*
X101452226Y-71199102D01*
X101374205Y-71010744D01*
X101260937Y-70841226D01*
X101116774Y-70697063D01*
X100947256Y-70583795D01*
X100758898Y-70505774D01*
X100558939Y-70466000D01*
X100355061Y-70466000D01*
X100155102Y-70505774D01*
X99966744Y-70583795D01*
X99797226Y-70697063D01*
X99653063Y-70841226D01*
X99539795Y-71010744D01*
X99461774Y-71199102D01*
X99422000Y-71399061D01*
X87322820Y-71399061D01*
X87291502Y-71295820D01*
X87232537Y-71185506D01*
X87153185Y-71088815D01*
X87056494Y-71009463D01*
X86946180Y-70950498D01*
X86826482Y-70914188D01*
X86702000Y-70901928D01*
X85002000Y-70901928D01*
X84877518Y-70914188D01*
X84757820Y-70950498D01*
X84647506Y-71009463D01*
X84550815Y-71088815D01*
X84471463Y-71185506D01*
X84412498Y-71295820D01*
X84378000Y-71409545D01*
X84378000Y-69113061D01*
X94215000Y-69113061D01*
X94215000Y-69316939D01*
X94254774Y-69516898D01*
X94332795Y-69705256D01*
X94446063Y-69874774D01*
X94590226Y-70018937D01*
X94759744Y-70132205D01*
X94948102Y-70210226D01*
X95148061Y-70250000D01*
X95351939Y-70250000D01*
X95551898Y-70210226D01*
X95740256Y-70132205D01*
X95909774Y-70018937D01*
X96053937Y-69874774D01*
X96167205Y-69705256D01*
X96245226Y-69516898D01*
X96285000Y-69316939D01*
X96285000Y-69113061D01*
X99041000Y-69113061D01*
X99041000Y-69316939D01*
X99080774Y-69516898D01*
X99158795Y-69705256D01*
X99272063Y-69874774D01*
X99416226Y-70018937D01*
X99585744Y-70132205D01*
X99774102Y-70210226D01*
X99974061Y-70250000D01*
X100177939Y-70250000D01*
X100377898Y-70210226D01*
X100512284Y-70154561D01*
X102495500Y-70154561D01*
X102495500Y-70358439D01*
X102535274Y-70558398D01*
X102613295Y-70746756D01*
X102726563Y-70916274D01*
X102870726Y-71060437D01*
X103040244Y-71173705D01*
X103228602Y-71251726D01*
X103428561Y-71291500D01*
X103632439Y-71291500D01*
X103832398Y-71251726D01*
X104020756Y-71173705D01*
X104190274Y-71060437D01*
X104334437Y-70916274D01*
X104447705Y-70746756D01*
X104525726Y-70558398D01*
X104565500Y-70358439D01*
X104565500Y-70154561D01*
X104545006Y-70051531D01*
X104665744Y-70132205D01*
X104854102Y-70210226D01*
X105054061Y-70250000D01*
X105257939Y-70250000D01*
X105457898Y-70210226D01*
X105646256Y-70132205D01*
X105815774Y-70018937D01*
X105959937Y-69874774D01*
X106073205Y-69705256D01*
X106151226Y-69516898D01*
X106191000Y-69316939D01*
X106191000Y-69113061D01*
X106151226Y-68913102D01*
X106073205Y-68724744D01*
X105959937Y-68555226D01*
X105815774Y-68411063D01*
X105646256Y-68297795D01*
X105457898Y-68219774D01*
X105257939Y-68180000D01*
X105054061Y-68180000D01*
X104854102Y-68219774D01*
X104665744Y-68297795D01*
X104496226Y-68411063D01*
X104352063Y-68555226D01*
X104238795Y-68724744D01*
X104160774Y-68913102D01*
X104121000Y-69113061D01*
X104121000Y-69316939D01*
X104141494Y-69419969D01*
X104020756Y-69339295D01*
X103832398Y-69261274D01*
X103632439Y-69221500D01*
X103428561Y-69221500D01*
X103228602Y-69261274D01*
X103040244Y-69339295D01*
X102870726Y-69452563D01*
X102726563Y-69596726D01*
X102613295Y-69766244D01*
X102535274Y-69954602D01*
X102495500Y-70154561D01*
X100512284Y-70154561D01*
X100566256Y-70132205D01*
X100735774Y-70018937D01*
X100879937Y-69874774D01*
X100993205Y-69705256D01*
X101071226Y-69516898D01*
X101111000Y-69316939D01*
X101111000Y-69113061D01*
X101071226Y-68913102D01*
X100993205Y-68724744D01*
X100879937Y-68555226D01*
X100735774Y-68411063D01*
X100566256Y-68297795D01*
X100377898Y-68219774D01*
X100177939Y-68180000D01*
X99974061Y-68180000D01*
X99774102Y-68219774D01*
X99585744Y-68297795D01*
X99416226Y-68411063D01*
X99272063Y-68555226D01*
X99158795Y-68724744D01*
X99080774Y-68913102D01*
X99041000Y-69113061D01*
X96285000Y-69113061D01*
X96245226Y-68913102D01*
X96167205Y-68724744D01*
X96053937Y-68555226D01*
X95909774Y-68411063D01*
X95740256Y-68297795D01*
X95551898Y-68219774D01*
X95351939Y-68180000D01*
X95148061Y-68180000D01*
X94948102Y-68219774D01*
X94759744Y-68297795D01*
X94590226Y-68411063D01*
X94446063Y-68555226D01*
X94332795Y-68724744D01*
X94254774Y-68913102D01*
X94215000Y-69113061D01*
X84378000Y-69113061D01*
X84378000Y-67634000D01*
X122138709Y-67634000D01*
X122138709Y-70034000D01*
X122179776Y-70450965D01*
X122301401Y-70851906D01*
X122498907Y-71221415D01*
X122764707Y-71545293D01*
X123088585Y-71811093D01*
X123458094Y-72008599D01*
X123859035Y-72130224D01*
X124276000Y-72171291D01*
X126676000Y-72171291D01*
X127092965Y-72130224D01*
X127493906Y-72008599D01*
X127863415Y-71811093D01*
X128187293Y-71545293D01*
X128453093Y-71221415D01*
X128650599Y-70851906D01*
X128772224Y-70450965D01*
X128813291Y-70034000D01*
X128813291Y-67751509D01*
X132912000Y-67751509D01*
X132912000Y-69092492D01*
X132932764Y-69303309D01*
X133014818Y-69573808D01*
X133148069Y-69823101D01*
X133327393Y-70041608D01*
X133545900Y-70220932D01*
X133795193Y-70354182D01*
X134065692Y-70436236D01*
X134347000Y-70463943D01*
X134628309Y-70436236D01*
X134898808Y-70354182D01*
X135148101Y-70220932D01*
X135366608Y-70041608D01*
X135545932Y-69823101D01*
X135679182Y-69573808D01*
X135761236Y-69303309D01*
X135782000Y-69092492D01*
X135782000Y-67751508D01*
X135761236Y-67540691D01*
X135679182Y-67270192D01*
X135545932Y-67020899D01*
X135366607Y-66802392D01*
X135148100Y-66623068D01*
X134898807Y-66489818D01*
X134628308Y-66407764D01*
X134347000Y-66380057D01*
X134065691Y-66407764D01*
X133795192Y-66489818D01*
X133545899Y-66623068D01*
X133327392Y-66802393D01*
X133148068Y-67020900D01*
X133014818Y-67270193D01*
X132932764Y-67540692D01*
X132912000Y-67751509D01*
X128813291Y-67751509D01*
X128813291Y-67634000D01*
X128772224Y-67217035D01*
X128650599Y-66816094D01*
X128453093Y-66446585D01*
X128187293Y-66122707D01*
X127863415Y-65856907D01*
X127493906Y-65659401D01*
X127092965Y-65537776D01*
X126676000Y-65496709D01*
X124276000Y-65496709D01*
X123859035Y-65537776D01*
X123458094Y-65659401D01*
X123088585Y-65856907D01*
X122764707Y-66122707D01*
X122498907Y-66446585D01*
X122301401Y-66816094D01*
X122179776Y-67217035D01*
X122138709Y-67634000D01*
X84378000Y-67634000D01*
X84378000Y-64165505D01*
X84450139Y-63357197D01*
X84656197Y-62603977D01*
X84943773Y-62001061D01*
X102597000Y-62001061D01*
X102597000Y-62204939D01*
X102636774Y-62404898D01*
X102714795Y-62593256D01*
X102828063Y-62762774D01*
X102972226Y-62906937D01*
X103141744Y-63020205D01*
X103330102Y-63098226D01*
X103530061Y-63138000D01*
X103733939Y-63138000D01*
X103933898Y-63098226D01*
X104122256Y-63020205D01*
X104291774Y-62906937D01*
X104435937Y-62762774D01*
X104549205Y-62593256D01*
X104627226Y-62404898D01*
X104667000Y-62204939D01*
X104667000Y-62001061D01*
X104627226Y-61801102D01*
X104549205Y-61612744D01*
X104435937Y-61443226D01*
X104291774Y-61299063D01*
X104122256Y-61185795D01*
X103933898Y-61107774D01*
X103733939Y-61068000D01*
X103530061Y-61068000D01*
X103330102Y-61107774D01*
X103141744Y-61185795D01*
X102972226Y-61299063D01*
X102828063Y-61443226D01*
X102714795Y-61612744D01*
X102636774Y-61801102D01*
X102597000Y-62001061D01*
X84943773Y-62001061D01*
X84992384Y-61899148D01*
X85448065Y-61264998D01*
X86008851Y-60721559D01*
X86657001Y-60286019D01*
X87372043Y-59972138D01*
X88136636Y-59788576D01*
X88798112Y-59740000D01*
X136877063Y-59740000D01*
X136934722Y-59847754D01*
G37*
X136934722Y-59847754D02*
X136984432Y-60011314D01*
X137001911Y-60187665D01*
X137057251Y-144415070D01*
X136880939Y-144380000D01*
X136677061Y-144380000D01*
X136477102Y-144419774D01*
X136288744Y-144497795D01*
X136119226Y-144611063D01*
X135975063Y-144755226D01*
X135861795Y-144924744D01*
X135783774Y-145113102D01*
X135744000Y-145313061D01*
X135744000Y-145516939D01*
X135783774Y-145716898D01*
X135861795Y-145905256D01*
X135975063Y-146074774D01*
X136119226Y-146218937D01*
X136288744Y-146332205D01*
X136477102Y-146410226D01*
X136677061Y-146450000D01*
X136880939Y-146450000D01*
X137058565Y-146414668D01*
X137064089Y-154822185D01*
X137046813Y-154998702D01*
X136997237Y-155162449D01*
X136916653Y-155313373D01*
X136847254Y-155398000D01*
X88803506Y-155398000D01*
X87995195Y-155325861D01*
X87241977Y-155119803D01*
X86537148Y-154783616D01*
X85902995Y-154327932D01*
X85359559Y-153767149D01*
X84924018Y-153118996D01*
X84619402Y-152425061D01*
X126473000Y-152425061D01*
X126473000Y-152628939D01*
X126512774Y-152828898D01*
X126590795Y-153017256D01*
X126704063Y-153186774D01*
X126806289Y-153289000D01*
X126704063Y-153391226D01*
X126590795Y-153560744D01*
X126512774Y-153749102D01*
X126473000Y-153949061D01*
X126473000Y-154152939D01*
X126512774Y-154352898D01*
X126590795Y-154541256D01*
X126704063Y-154710774D01*
X126848226Y-154854937D01*
X127017744Y-154968205D01*
X127206102Y-155046226D01*
X127406061Y-155086000D01*
X127609939Y-155086000D01*
X127809898Y-155046226D01*
X127998256Y-154968205D01*
X128167774Y-154854937D01*
X128311937Y-154710774D01*
X128425205Y-154541256D01*
X128503226Y-154352898D01*
X128543000Y-154152939D01*
X128543000Y-153949061D01*
X128503226Y-153749102D01*
X128425205Y-153560744D01*
X128311937Y-153391226D01*
X128209711Y-153289000D01*
X128311937Y-153186774D01*
X128425205Y-153017256D01*
X128503226Y-152828898D01*
X128543000Y-152628939D01*
X128543000Y-152425061D01*
X128503226Y-152225102D01*
X128425205Y-152036744D01*
X128311937Y-151867226D01*
X128167774Y-151723063D01*
X127998256Y-151609795D01*
X127809898Y-151531774D01*
X127609939Y-151492000D01*
X127406061Y-151492000D01*
X127206102Y-151531774D01*
X127017744Y-151609795D01*
X126848226Y-151723063D01*
X126704063Y-151867226D01*
X126590795Y-152036744D01*
X126512774Y-152225102D01*
X126473000Y-152425061D01*
X84619402Y-152425061D01*
X84610137Y-152403956D01*
X84426576Y-151639364D01*
X84381685Y-151028061D01*
X114662000Y-151028061D01*
X114662000Y-151231939D01*
X114701774Y-151431898D01*
X114779795Y-151620256D01*
X114893063Y-151789774D01*
X115037226Y-151933937D01*
X115206744Y-152047205D01*
X115395102Y-152125226D01*
X115595061Y-152165000D01*
X115798939Y-152165000D01*
X115998898Y-152125226D01*
X116187256Y-152047205D01*
X116356774Y-151933937D01*
X116500937Y-151789774D01*
X116614205Y-151620256D01*
X116692226Y-151431898D01*
X116732000Y-151231939D01*
X116732000Y-151028061D01*
X116692226Y-150828102D01*
X116614205Y-150639744D01*
X116500937Y-150470226D01*
X116356774Y-150326063D01*
X116187256Y-150212795D01*
X115998898Y-150134774D01*
X115798939Y-150095000D01*
X115595061Y-150095000D01*
X115395102Y-150134774D01*
X115206744Y-150212795D01*
X115037226Y-150326063D01*
X114893063Y-150470226D01*
X114779795Y-150639744D01*
X114701774Y-150828102D01*
X114662000Y-151028061D01*
X84381685Y-151028061D01*
X84378000Y-150977887D01*
X84378000Y-149518061D01*
X106548000Y-149518061D01*
X106548000Y-149721939D01*
X106587774Y-149921898D01*
X106665795Y-150110256D01*
X106779063Y-150279774D01*
X106923226Y-150423937D01*
X107092744Y-150537205D01*
X107281102Y-150615226D01*
X107481061Y-150655000D01*
X107684939Y-150655000D01*
X107884898Y-150615226D01*
X108073256Y-150537205D01*
X108242774Y-150423937D01*
X108386937Y-150279774D01*
X108500205Y-150110256D01*
X108578226Y-149921898D01*
X108618000Y-149721939D01*
X108618000Y-149518061D01*
X108578226Y-149318102D01*
X108550043Y-149250061D01*
X125711000Y-149250061D01*
X125711000Y-149453939D01*
X125750774Y-149653898D01*
X125828795Y-149842256D01*
X125942063Y-150011774D01*
X126086226Y-150155937D01*
X126255744Y-150269205D01*
X126444102Y-150347226D01*
X126644061Y-150387000D01*
X126847939Y-150387000D01*
X127047898Y-150347226D01*
X127236256Y-150269205D01*
X127405774Y-150155937D01*
X127549937Y-150011774D01*
X127663205Y-149842256D01*
X127741226Y-149653898D01*
X127781000Y-149453939D01*
X127781000Y-149250061D01*
X127741226Y-149050102D01*
X127663205Y-148861744D01*
X127549937Y-148692226D01*
X127405774Y-148548063D01*
X127236256Y-148434795D01*
X127047898Y-148356774D01*
X126847939Y-148317000D01*
X126644061Y-148317000D01*
X126444102Y-148356774D01*
X126255744Y-148434795D01*
X126086226Y-148548063D01*
X125942063Y-148692226D01*
X125828795Y-148861744D01*
X125750774Y-149050102D01*
X125711000Y-149250061D01*
X108550043Y-149250061D01*
X108500205Y-149129744D01*
X108386937Y-148960226D01*
X108242774Y-148816063D01*
X108073256Y-148702795D01*
X107884898Y-148624774D01*
X107684939Y-148585000D01*
X107481061Y-148585000D01*
X107281102Y-148624774D01*
X107092744Y-148702795D01*
X106923226Y-148816063D01*
X106779063Y-148960226D01*
X106665795Y-149129744D01*
X106587774Y-149318102D01*
X106548000Y-149518061D01*
X84378000Y-149518061D01*
X84378000Y-148107061D01*
X92437000Y-148107061D01*
X92437000Y-148310939D01*
X92476774Y-148510898D01*
X92554795Y-148699256D01*
X92668063Y-148868774D01*
X92812226Y-149012937D01*
X92981744Y-149126205D01*
X93170102Y-149204226D01*
X93370061Y-149244000D01*
X93573939Y-149244000D01*
X93773898Y-149204226D01*
X93962256Y-149126205D01*
X94131774Y-149012937D01*
X94275937Y-148868774D01*
X94389205Y-148699256D01*
X94467226Y-148510898D01*
X94507000Y-148310939D01*
X94507000Y-148107061D01*
X111741000Y-148107061D01*
X111741000Y-148310939D01*
X111780774Y-148510898D01*
X111858795Y-148699256D01*
X111972063Y-148868774D01*
X112116226Y-149012937D01*
X112285744Y-149126205D01*
X112474102Y-149204226D01*
X112674061Y-149244000D01*
X112877939Y-149244000D01*
X113077898Y-149204226D01*
X113266256Y-149126205D01*
X113435774Y-149012937D01*
X113579937Y-148868774D01*
X113693205Y-148699256D01*
X113771226Y-148510898D01*
X113811000Y-148310939D01*
X113811000Y-148107061D01*
X113771226Y-147907102D01*
X113693205Y-147718744D01*
X113579937Y-147549226D01*
X113435774Y-147405063D01*
X113266256Y-147291795D01*
X113077898Y-147213774D01*
X112877939Y-147174000D01*
X112674061Y-147174000D01*
X112474102Y-147213774D01*
X112285744Y-147291795D01*
X112116226Y-147405063D01*
X111972063Y-147549226D01*
X111858795Y-147718744D01*
X111780774Y-147907102D01*
X111741000Y-148107061D01*
X94507000Y-148107061D01*
X94467226Y-147907102D01*
X94389205Y-147718744D01*
X94275937Y-147549226D01*
X94131774Y-147405063D01*
X93962256Y-147291795D01*
X93773898Y-147213774D01*
X93573939Y-147174000D01*
X93370061Y-147174000D01*
X93170102Y-147213774D01*
X92981744Y-147291795D01*
X92812226Y-147405063D01*
X92668063Y-147549226D01*
X92554795Y-147718744D01*
X92476774Y-147907102D01*
X92437000Y-148107061D01*
X84378000Y-148107061D01*
X84378000Y-146964061D01*
X116313000Y-146964061D01*
X116313000Y-147167939D01*
X116352774Y-147367898D01*
X116430795Y-147556256D01*
X116544063Y-147725774D01*
X116688226Y-147869937D01*
X116857744Y-147983205D01*
X117046102Y-148061226D01*
X117246061Y-148101000D01*
X117449939Y-148101000D01*
X117649898Y-148061226D01*
X117838256Y-147983205D01*
X118007774Y-147869937D01*
X118151937Y-147725774D01*
X118265205Y-147556256D01*
X118343226Y-147367898D01*
X118383000Y-147167939D01*
X118383000Y-146964061D01*
X118343226Y-146764102D01*
X118320842Y-146710061D01*
X126473000Y-146710061D01*
X126473000Y-146913939D01*
X126512774Y-147113898D01*
X126590795Y-147302256D01*
X126704063Y-147471774D01*
X126848226Y-147615937D01*
X127017744Y-147729205D01*
X127206102Y-147807226D01*
X127406061Y-147847000D01*
X127609939Y-147847000D01*
X127809898Y-147807226D01*
X127998256Y-147729205D01*
X128167774Y-147615937D01*
X128311937Y-147471774D01*
X128425205Y-147302256D01*
X128503226Y-147113898D01*
X128543000Y-146913939D01*
X128543000Y-146710061D01*
X128503226Y-146510102D01*
X128425205Y-146321744D01*
X128311937Y-146152226D01*
X128167774Y-146008063D01*
X127998256Y-145894795D01*
X127809898Y-145816774D01*
X127609939Y-145777000D01*
X127406061Y-145777000D01*
X127206102Y-145816774D01*
X127017744Y-145894795D01*
X126848226Y-146008063D01*
X126704063Y-146152226D01*
X126590795Y-146321744D01*
X126512774Y-146510102D01*
X126473000Y-146710061D01*
X118320842Y-146710061D01*
X118265205Y-146575744D01*
X118151937Y-146406226D01*
X118007774Y-146262063D01*
X117838256Y-146148795D01*
X117649898Y-146070774D01*
X117449939Y-146031000D01*
X117246061Y-146031000D01*
X117046102Y-146070774D01*
X116857744Y-146148795D01*
X116688226Y-146262063D01*
X116544063Y-146406226D01*
X116430795Y-146575744D01*
X116352774Y-146764102D01*
X116313000Y-146964061D01*
X84378000Y-146964061D01*
X84378000Y-142900061D01*
X113518996Y-142900061D01*
X113518996Y-143103939D01*
X113558770Y-143303898D01*
X113636791Y-143492256D01*
X113750059Y-143661774D01*
X113894222Y-143805937D01*
X114063740Y-143919205D01*
X114252098Y-143997226D01*
X114452057Y-144037000D01*
X114655935Y-144037000D01*
X114855894Y-143997226D01*
X115044252Y-143919205D01*
X115213770Y-143805937D01*
X115357933Y-143661774D01*
X115471201Y-143492256D01*
X115506075Y-143408061D01*
X133966000Y-143408061D01*
X133966000Y-143611939D01*
X134005774Y-143811898D01*
X134083795Y-144000256D01*
X134197063Y-144169774D01*
X134341226Y-144313937D01*
X134510744Y-144427205D01*
X134699102Y-144505226D01*
X134899061Y-144545000D01*
X135102939Y-144545000D01*
X135302898Y-144505226D01*
X135491256Y-144427205D01*
X135660774Y-144313937D01*
X135804937Y-144169774D01*
X135918205Y-144000256D01*
X135996226Y-143811898D01*
X136036000Y-143611939D01*
X136036000Y-143408061D01*
X135996226Y-143208102D01*
X135918205Y-143019744D01*
X135804937Y-142850226D01*
X135660774Y-142706063D01*
X135491256Y-142592795D01*
X135302898Y-142514774D01*
X135102939Y-142475000D01*
X134899061Y-142475000D01*
X134699102Y-142514774D01*
X134510744Y-142592795D01*
X134341226Y-142706063D01*
X134197063Y-142850226D01*
X134083795Y-143019744D01*
X134005774Y-143208102D01*
X133966000Y-143408061D01*
X115506075Y-143408061D01*
X115549222Y-143303898D01*
X115588996Y-143103939D01*
X115588996Y-142900061D01*
X115549222Y-142700102D01*
X115471201Y-142511744D01*
X115357933Y-142342226D01*
X115213770Y-142198063D01*
X115044252Y-142084795D01*
X114855894Y-142006774D01*
X114655935Y-141967000D01*
X114452057Y-141967000D01*
X114252098Y-142006774D01*
X114063740Y-142084795D01*
X113894222Y-142198063D01*
X113750059Y-142342226D01*
X113636791Y-142511744D01*
X113558770Y-142700102D01*
X113518996Y-142900061D01*
X84378000Y-142900061D01*
X84378000Y-137361560D01*
X84424068Y-137593158D01*
X84536010Y-137863411D01*
X84698525Y-138106632D01*
X84905368Y-138313475D01*
X85148589Y-138475990D01*
X85418842Y-138587932D01*
X85705740Y-138645000D01*
X85998260Y-138645000D01*
X86285158Y-138587932D01*
X86555411Y-138475990D01*
X86798632Y-138313475D01*
X87005475Y-138106632D01*
X87167990Y-137863411D01*
X87279932Y-137593158D01*
X87337000Y-137306260D01*
X87337000Y-137013740D01*
X87279932Y-136726842D01*
X87167990Y-136456589D01*
X87005475Y-136213368D01*
X86798632Y-136006525D01*
X86624240Y-135890000D01*
X86798632Y-135773475D01*
X87005475Y-135566632D01*
X87167990Y-135323411D01*
X87279932Y-135053158D01*
X87337000Y-134766260D01*
X87337000Y-134473740D01*
X87279932Y-134186842D01*
X87167990Y-133916589D01*
X87005475Y-133673368D01*
X86798632Y-133466525D01*
X86624240Y-133350000D01*
X86798632Y-133233475D01*
X86911046Y-133121061D01*
X90913000Y-133121061D01*
X90913000Y-133324939D01*
X90952774Y-133524898D01*
X91030795Y-133713256D01*
X91144063Y-133882774D01*
X91288226Y-134026937D01*
X91457744Y-134140205D01*
X91646102Y-134218226D01*
X91846061Y-134258000D01*
X92049939Y-134258000D01*
X92249898Y-134218226D01*
X92438256Y-134140205D01*
X92607774Y-134026937D01*
X92751937Y-133882774D01*
X92865205Y-133713256D01*
X92943226Y-133524898D01*
X92983000Y-133324939D01*
X92983000Y-133121061D01*
X92943226Y-132921102D01*
X92865205Y-132732744D01*
X92751937Y-132563226D01*
X92607774Y-132419063D01*
X92438256Y-132305795D01*
X92249898Y-132227774D01*
X92049939Y-132188000D01*
X91846061Y-132188000D01*
X91646102Y-132227774D01*
X91457744Y-132305795D01*
X91288226Y-132419063D01*
X91144063Y-132563226D01*
X91030795Y-132732744D01*
X90952774Y-132921102D01*
X90913000Y-133121061D01*
X86911046Y-133121061D01*
X87005475Y-133026632D01*
X87167990Y-132783411D01*
X87279932Y-132513158D01*
X87337000Y-132226260D01*
X87337000Y-131933740D01*
X87279932Y-131646842D01*
X87167990Y-131376589D01*
X87005475Y-131133368D01*
X86798632Y-130926525D01*
X86624240Y-130810000D01*
X86798632Y-130693475D01*
X87005475Y-130486632D01*
X87167990Y-130243411D01*
X87279932Y-129973158D01*
X87337000Y-129686260D01*
X87337000Y-129393740D01*
X87279932Y-129106842D01*
X87167990Y-128836589D01*
X87005475Y-128593368D01*
X86798632Y-128386525D01*
X86624240Y-128270000D01*
X86798632Y-128153475D01*
X87005475Y-127946632D01*
X87167990Y-127703411D01*
X87279932Y-127433158D01*
X87337000Y-127146260D01*
X87337000Y-126853740D01*
X87279932Y-126566842D01*
X87167990Y-126296589D01*
X87005475Y-126053368D01*
X86798632Y-125846525D01*
X86624240Y-125730000D01*
X86798632Y-125613475D01*
X87005475Y-125406632D01*
X87167990Y-125163411D01*
X87279932Y-124893158D01*
X87337000Y-124606260D01*
X87337000Y-124313740D01*
X87279932Y-124026842D01*
X87167990Y-123756589D01*
X87005475Y-123513368D01*
X86798632Y-123306525D01*
X86624240Y-123190000D01*
X86798632Y-123073475D01*
X87005475Y-122866632D01*
X87167990Y-122623411D01*
X87279932Y-122353158D01*
X87337000Y-122066260D01*
X87337000Y-121773740D01*
X87279932Y-121486842D01*
X87167990Y-121216589D01*
X87005475Y-120973368D01*
X86798632Y-120766525D01*
X86624240Y-120650000D01*
X86798632Y-120533475D01*
X87005475Y-120326632D01*
X87167990Y-120083411D01*
X87279932Y-119813158D01*
X87337000Y-119526260D01*
X87337000Y-119233740D01*
X87279932Y-118946842D01*
X87167990Y-118676589D01*
X87005475Y-118433368D01*
X86798632Y-118226525D01*
X86624240Y-118110000D01*
X86798632Y-117993475D01*
X87005475Y-117786632D01*
X87167990Y-117543411D01*
X87279932Y-117273158D01*
X87337000Y-116986260D01*
X87337000Y-116738061D01*
X89262000Y-116738061D01*
X89262000Y-116941939D01*
X89301774Y-117141898D01*
X89379795Y-117330256D01*
X89493063Y-117499774D01*
X89637226Y-117643937D01*
X89806744Y-117757205D01*
X89995102Y-117835226D01*
X90195061Y-117875000D01*
X90398939Y-117875000D01*
X90598898Y-117835226D01*
X90787256Y-117757205D01*
X90956774Y-117643937D01*
X91100937Y-117499774D01*
X91214205Y-117330256D01*
X91292226Y-117141898D01*
X91332000Y-116941939D01*
X91332000Y-116738061D01*
X91292226Y-116538102D01*
X91214205Y-116349744D01*
X91100937Y-116180226D01*
X90956774Y-116036063D01*
X90787256Y-115922795D01*
X90598898Y-115844774D01*
X90398939Y-115805000D01*
X90195061Y-115805000D01*
X89995102Y-115844774D01*
X89806744Y-115922795D01*
X89637226Y-116036063D01*
X89493063Y-116180226D01*
X89379795Y-116349744D01*
X89301774Y-116538102D01*
X89262000Y-116738061D01*
X87337000Y-116738061D01*
X87337000Y-116693740D01*
X87279932Y-116406842D01*
X87167990Y-116136589D01*
X87005475Y-115893368D01*
X86798632Y-115686525D01*
X86624240Y-115570000D01*
X86798632Y-115453475D01*
X87005475Y-115246632D01*
X87167990Y-115003411D01*
X87279932Y-114733158D01*
X87337000Y-114446260D01*
X87337000Y-114153740D01*
X87279932Y-113866842D01*
X87167990Y-113596589D01*
X87005475Y-113353368D01*
X86798632Y-113146525D01*
X86624240Y-113030000D01*
X86798632Y-112913475D01*
X87005475Y-112706632D01*
X87167990Y-112463411D01*
X87279932Y-112193158D01*
X87337000Y-111906260D01*
X87337000Y-111613740D01*
X87336734Y-111612401D01*
X93624400Y-111612401D01*
X93624400Y-111907599D01*
X93681990Y-112197125D01*
X93794958Y-112469853D01*
X93958961Y-112715302D01*
X94167698Y-112924039D01*
X94326281Y-113030000D01*
X94167698Y-113135961D01*
X93958961Y-113344698D01*
X93794958Y-113590147D01*
X93681990Y-113862875D01*
X93624400Y-114152401D01*
X93624400Y-114447599D01*
X93681990Y-114737125D01*
X93794958Y-115009853D01*
X93958961Y-115255302D01*
X94167698Y-115464039D01*
X94326281Y-115570000D01*
X94167698Y-115675961D01*
X93958961Y-115884698D01*
X93794958Y-116130147D01*
X93681990Y-116402875D01*
X93624400Y-116692401D01*
X93624400Y-116987599D01*
X93681990Y-117277125D01*
X93794958Y-117549853D01*
X93958961Y-117795302D01*
X94167698Y-118004039D01*
X94326281Y-118110000D01*
X94167698Y-118215961D01*
X93958961Y-118424698D01*
X93794958Y-118670147D01*
X93681990Y-118942875D01*
X93624400Y-119232401D01*
X93624400Y-119527599D01*
X93681990Y-119817125D01*
X93794958Y-120089853D01*
X93958961Y-120335302D01*
X94167698Y-120544039D01*
X94326281Y-120650000D01*
X94167698Y-120755961D01*
X93958961Y-120964698D01*
X93794958Y-121210147D01*
X93681990Y-121482875D01*
X93624400Y-121772401D01*
X93624400Y-122067599D01*
X93681990Y-122357125D01*
X93794958Y-122629853D01*
X93958961Y-122875302D01*
X94167698Y-123084039D01*
X94326281Y-123190000D01*
X94167698Y-123295961D01*
X93958961Y-123504698D01*
X93794958Y-123750147D01*
X93681990Y-124022875D01*
X93624400Y-124312401D01*
X93624400Y-124607599D01*
X93681990Y-124897125D01*
X93794958Y-125169853D01*
X93958961Y-125415302D01*
X94167698Y-125624039D01*
X94326281Y-125730000D01*
X94167698Y-125835961D01*
X93958961Y-126044698D01*
X93794958Y-126290147D01*
X93681990Y-126562875D01*
X93624400Y-126852401D01*
X93624400Y-127147599D01*
X93681990Y-127437125D01*
X93794958Y-127709853D01*
X93958961Y-127955302D01*
X94167698Y-128164039D01*
X94326281Y-128270000D01*
X94167698Y-128375961D01*
X93958961Y-128584698D01*
X93794958Y-128830147D01*
X93681990Y-129102875D01*
X93624400Y-129392401D01*
X93624400Y-129687599D01*
X93681990Y-129977125D01*
X93794958Y-130249853D01*
X93958961Y-130495302D01*
X94167698Y-130704039D01*
X94326281Y-130810000D01*
X94167698Y-130915961D01*
X93958961Y-131124698D01*
X93794958Y-131370147D01*
X93681990Y-131642875D01*
X93624400Y-131932401D01*
X93624400Y-132227599D01*
X93681990Y-132517125D01*
X93794958Y-132789853D01*
X93958961Y-133035302D01*
X94167698Y-133244039D01*
X94326281Y-133350000D01*
X94167698Y-133455961D01*
X93958961Y-133664698D01*
X93794958Y-133910147D01*
X93681990Y-134182875D01*
X93624400Y-134472401D01*
X93624400Y-134767599D01*
X93681990Y-135057125D01*
X93794958Y-135329853D01*
X93958961Y-135575302D01*
X94167698Y-135784039D01*
X94326281Y-135890000D01*
X94167698Y-135995961D01*
X93958961Y-136204698D01*
X93794958Y-136450147D01*
X93681990Y-136722875D01*
X93624400Y-137012401D01*
X93624400Y-137307599D01*
X93681990Y-137597125D01*
X93794958Y-137869853D01*
X93958961Y-138115302D01*
X94167698Y-138324039D01*
X94413147Y-138488042D01*
X94685875Y-138601010D01*
X94975401Y-138658600D01*
X95270599Y-138658600D01*
X95560125Y-138601010D01*
X95832853Y-138488042D01*
X96078302Y-138324039D01*
X96287039Y-138115302D01*
X96393000Y-137956719D01*
X96498961Y-138115302D01*
X96707698Y-138324039D01*
X96953147Y-138488042D01*
X97225875Y-138601010D01*
X97515401Y-138658600D01*
X97810599Y-138658600D01*
X98100125Y-138601010D01*
X98372853Y-138488042D01*
X98422212Y-138455061D01*
X101200000Y-138455061D01*
X101200000Y-138658939D01*
X101239774Y-138858898D01*
X101317795Y-139047256D01*
X101431063Y-139216774D01*
X101575226Y-139360937D01*
X101744744Y-139474205D01*
X101933102Y-139552226D01*
X102133061Y-139592000D01*
X102336939Y-139592000D01*
X102536898Y-139552226D01*
X102725256Y-139474205D01*
X102894774Y-139360937D01*
X103038937Y-139216774D01*
X103152205Y-139047256D01*
X103230226Y-138858898D01*
X103270000Y-138658939D01*
X103270000Y-138455061D01*
X103230226Y-138255102D01*
X103152205Y-138066744D01*
X103038937Y-137897226D01*
X102894774Y-137753063D01*
X102725256Y-137639795D01*
X102547248Y-137566061D01*
X109074000Y-137566061D01*
X109074000Y-137769939D01*
X109113774Y-137969898D01*
X109191795Y-138158256D01*
X109305063Y-138327774D01*
X109449226Y-138471937D01*
X109618744Y-138585205D01*
X109807102Y-138663226D01*
X109911541Y-138684000D01*
X109807102Y-138704774D01*
X109618744Y-138782795D01*
X109449226Y-138896063D01*
X109305063Y-139040226D01*
X109191795Y-139209744D01*
X109113774Y-139398102D01*
X109074000Y-139598061D01*
X109074000Y-139801939D01*
X109113774Y-140001898D01*
X109191795Y-140190256D01*
X109305063Y-140359774D01*
X109449226Y-140503937D01*
X109618744Y-140617205D01*
X109807102Y-140695226D01*
X109911541Y-140716000D01*
X109807102Y-140736774D01*
X109618744Y-140814795D01*
X109449226Y-140928063D01*
X109305063Y-141072226D01*
X109191795Y-141241744D01*
X109113774Y-141430102D01*
X109074000Y-141630061D01*
X109074000Y-141833939D01*
X109113774Y-142033898D01*
X109191795Y-142222256D01*
X109305063Y-142391774D01*
X109449226Y-142535937D01*
X109618744Y-142649205D01*
X109807102Y-142727226D01*
X110007061Y-142767000D01*
X110210939Y-142767000D01*
X110410898Y-142727226D01*
X110599256Y-142649205D01*
X110768774Y-142535937D01*
X110912937Y-142391774D01*
X111026205Y-142222256D01*
X111104226Y-142033898D01*
X111144000Y-141833939D01*
X111144000Y-141630061D01*
X111104226Y-141430102D01*
X111026205Y-141241744D01*
X110912937Y-141072226D01*
X110768774Y-140928063D01*
X110599256Y-140814795D01*
X110410898Y-140736774D01*
X110306459Y-140716000D01*
X110410898Y-140695226D01*
X110599256Y-140617205D01*
X110768774Y-140503937D01*
X110912937Y-140359774D01*
X111026205Y-140190256D01*
X111104226Y-140001898D01*
X111144000Y-139801939D01*
X111144000Y-139598061D01*
X111104226Y-139398102D01*
X111026205Y-139209744D01*
X110912937Y-139040226D01*
X110768774Y-138896063D01*
X110599256Y-138782795D01*
X110410898Y-138704774D01*
X110306459Y-138684000D01*
X110410898Y-138663226D01*
X110599256Y-138585205D01*
X110768774Y-138471937D01*
X110912937Y-138327774D01*
X111026205Y-138158256D01*
X111104226Y-137969898D01*
X111144000Y-137769939D01*
X111144000Y-137566061D01*
X111104226Y-137366102D01*
X111026205Y-137177744D01*
X110912937Y-137008226D01*
X110768774Y-136864063D01*
X110678975Y-136804061D01*
X113519000Y-136804061D01*
X113519000Y-137007939D01*
X113558774Y-137207898D01*
X113636795Y-137396256D01*
X113750063Y-137565774D01*
X113894226Y-137709937D01*
X114063744Y-137823205D01*
X114252102Y-137901226D01*
X114356541Y-137922000D01*
X114252102Y-137942774D01*
X114063744Y-138020795D01*
X113894226Y-138134063D01*
X113750063Y-138278226D01*
X113636795Y-138447744D01*
X113558774Y-138636102D01*
X113519000Y-138836061D01*
X113519000Y-139039939D01*
X113558774Y-139239898D01*
X113636795Y-139428256D01*
X113750063Y-139597774D01*
X113894226Y-139741937D01*
X114063744Y-139855205D01*
X114252102Y-139933226D01*
X114452061Y-139973000D01*
X114655939Y-139973000D01*
X114855898Y-139933226D01*
X115044256Y-139855205D01*
X115213774Y-139741937D01*
X115357937Y-139597774D01*
X115471205Y-139428256D01*
X115549226Y-139239898D01*
X115589000Y-139039939D01*
X115589000Y-138836061D01*
X128124000Y-138836061D01*
X128124000Y-139039939D01*
X128163774Y-139239898D01*
X128241795Y-139428256D01*
X128355063Y-139597774D01*
X128499226Y-139741937D01*
X128668744Y-139855205D01*
X128857102Y-139933226D01*
X129057061Y-139973000D01*
X129260939Y-139973000D01*
X129460898Y-139933226D01*
X129649256Y-139855205D01*
X129818774Y-139741937D01*
X129962937Y-139597774D01*
X130076205Y-139428256D01*
X130154226Y-139239898D01*
X130194000Y-139039939D01*
X130194000Y-138836061D01*
X130154226Y-138636102D01*
X130076205Y-138447744D01*
X129962937Y-138278226D01*
X129818774Y-138134063D01*
X129649256Y-138020795D01*
X129460898Y-137942774D01*
X129260939Y-137903000D01*
X129057061Y-137903000D01*
X128857102Y-137942774D01*
X128668744Y-138020795D01*
X128499226Y-138134063D01*
X128355063Y-138278226D01*
X128241795Y-138447744D01*
X128163774Y-138636102D01*
X128124000Y-138836061D01*
X115589000Y-138836061D01*
X115549226Y-138636102D01*
X115471205Y-138447744D01*
X115357937Y-138278226D01*
X115213774Y-138134063D01*
X115044256Y-138020795D01*
X114855898Y-137942774D01*
X114751459Y-137922000D01*
X114855898Y-137901226D01*
X115044256Y-137823205D01*
X115213774Y-137709937D01*
X115357937Y-137565774D01*
X115471205Y-137396256D01*
X115549226Y-137207898D01*
X115589000Y-137007939D01*
X115589000Y-136804061D01*
X122536000Y-136804061D01*
X122536000Y-137007939D01*
X122575774Y-137207898D01*
X122653795Y-137396256D01*
X122767063Y-137565774D01*
X122911226Y-137709937D01*
X123080744Y-137823205D01*
X123269102Y-137901226D01*
X123469061Y-137941000D01*
X123672939Y-137941000D01*
X123872898Y-137901226D01*
X124061256Y-137823205D01*
X124230774Y-137709937D01*
X124374937Y-137565774D01*
X124488205Y-137396256D01*
X124566226Y-137207898D01*
X124606000Y-137007939D01*
X124606000Y-136804061D01*
X124566226Y-136604102D01*
X124488205Y-136415744D01*
X124374937Y-136246226D01*
X124230774Y-136102063D01*
X124061256Y-135988795D01*
X123872898Y-135910774D01*
X123672939Y-135871000D01*
X123469061Y-135871000D01*
X123269102Y-135910774D01*
X123080744Y-135988795D01*
X122911226Y-136102063D01*
X122767063Y-136246226D01*
X122653795Y-136415744D01*
X122575774Y-136604102D01*
X122536000Y-136804061D01*
X115589000Y-136804061D01*
X115549226Y-136604102D01*
X115471205Y-136415744D01*
X115357937Y-136246226D01*
X115213774Y-136102063D01*
X115044256Y-135988795D01*
X114855898Y-135910774D01*
X114655939Y-135871000D01*
X114452061Y-135871000D01*
X114252102Y-135910774D01*
X114063744Y-135988795D01*
X113894226Y-136102063D01*
X113750063Y-136246226D01*
X113636795Y-136415744D01*
X113558774Y-136604102D01*
X113519000Y-136804061D01*
X110678975Y-136804061D01*
X110599256Y-136750795D01*
X110410898Y-136672774D01*
X110210939Y-136633000D01*
X110007061Y-136633000D01*
X109807102Y-136672774D01*
X109618744Y-136750795D01*
X109449226Y-136864063D01*
X109305063Y-137008226D01*
X109191795Y-137177744D01*
X109113774Y-137366102D01*
X109074000Y-137566061D01*
X102547248Y-137566061D01*
X102536898Y-137561774D01*
X102336939Y-137522000D01*
X102133061Y-137522000D01*
X101933102Y-137561774D01*
X101744744Y-137639795D01*
X101575226Y-137753063D01*
X101431063Y-137897226D01*
X101317795Y-138066744D01*
X101239774Y-138255102D01*
X101200000Y-138455061D01*
X98422212Y-138455061D01*
X98618302Y-138324039D01*
X98827039Y-138115302D01*
X98991042Y-137869853D01*
X99104010Y-137597125D01*
X99161600Y-137307599D01*
X99161600Y-137012401D01*
X99104010Y-136722875D01*
X98991042Y-136450147D01*
X98827039Y-136204698D01*
X98618302Y-135995961D01*
X98459719Y-135890000D01*
X98618302Y-135784039D01*
X98827039Y-135575302D01*
X98991042Y-135329853D01*
X99104010Y-135057125D01*
X99161600Y-134767599D01*
X99161600Y-134472401D01*
X99104010Y-134182875D01*
X98991042Y-133910147D01*
X98827039Y-133664698D01*
X98618302Y-133455961D01*
X98459719Y-133350000D01*
X98618302Y-133244039D01*
X98677280Y-133185061D01*
X114281000Y-133185061D01*
X114281000Y-133388939D01*
X114320774Y-133588898D01*
X114398795Y-133777256D01*
X114512063Y-133946774D01*
X114656226Y-134090937D01*
X114825744Y-134204205D01*
X115014102Y-134282226D01*
X115214061Y-134322000D01*
X115417939Y-134322000D01*
X115617898Y-134282226D01*
X115806256Y-134204205D01*
X115975774Y-134090937D01*
X116119937Y-133946774D01*
X116233205Y-133777256D01*
X116311226Y-133588898D01*
X116351000Y-133388939D01*
X116351000Y-133185061D01*
X116311226Y-132985102D01*
X116233205Y-132796744D01*
X116119937Y-132627226D01*
X115975774Y-132483063D01*
X115806256Y-132369795D01*
X115617898Y-132291774D01*
X115417939Y-132252000D01*
X115214061Y-132252000D01*
X115014102Y-132291774D01*
X114825744Y-132369795D01*
X114656226Y-132483063D01*
X114512063Y-132627226D01*
X114398795Y-132796744D01*
X114320774Y-132985102D01*
X114281000Y-133185061D01*
X98677280Y-133185061D01*
X98827039Y-133035302D01*
X98991042Y-132789853D01*
X99104010Y-132517125D01*
X99161600Y-132227599D01*
X99161600Y-131932401D01*
X99104010Y-131642875D01*
X98991042Y-131370147D01*
X98827039Y-131124698D01*
X98618302Y-130915961D01*
X98459719Y-130810000D01*
X98469355Y-130803561D01*
X114249500Y-130803561D01*
X114249500Y-131007439D01*
X114289274Y-131207398D01*
X114367295Y-131395756D01*
X114480563Y-131565274D01*
X114624726Y-131709437D01*
X114794244Y-131822705D01*
X114982602Y-131900726D01*
X115182561Y-131940500D01*
X115386439Y-131940500D01*
X115586398Y-131900726D01*
X115774756Y-131822705D01*
X115944274Y-131709437D01*
X116088437Y-131565274D01*
X116201705Y-131395756D01*
X116276137Y-131216061D01*
X116694000Y-131216061D01*
X116694000Y-131419939D01*
X116733774Y-131619898D01*
X116811795Y-131808256D01*
X116925063Y-131977774D01*
X117069226Y-132121937D01*
X117238744Y-132235205D01*
X117427102Y-132313226D01*
X117627061Y-132353000D01*
X117830939Y-132353000D01*
X118030898Y-132313226D01*
X118219256Y-132235205D01*
X118388774Y-132121937D01*
X118532937Y-131977774D01*
X118646205Y-131808256D01*
X118681079Y-131724061D01*
X127743000Y-131724061D01*
X127743000Y-131927939D01*
X127782774Y-132127898D01*
X127860795Y-132316256D01*
X127974063Y-132485774D01*
X128118226Y-132629937D01*
X128287744Y-132743205D01*
X128476102Y-132821226D01*
X128676061Y-132861000D01*
X128879939Y-132861000D01*
X129079898Y-132821226D01*
X129185859Y-132777335D01*
X129130795Y-132859744D01*
X129052774Y-133048102D01*
X129013000Y-133248061D01*
X129013000Y-133451939D01*
X129052774Y-133651898D01*
X129130795Y-133840256D01*
X129244063Y-134009774D01*
X129388226Y-134153937D01*
X129557744Y-134267205D01*
X129746102Y-134345226D01*
X129946061Y-134385000D01*
X130149939Y-134385000D01*
X130349898Y-134345226D01*
X130538256Y-134267205D01*
X130707774Y-134153937D01*
X130851937Y-134009774D01*
X130965205Y-133840256D01*
X131043226Y-133651898D01*
X131083000Y-133451939D01*
X131083000Y-133248061D01*
X131043226Y-133048102D01*
X130965205Y-132859744D01*
X130851937Y-132690226D01*
X130707774Y-132546063D01*
X130538256Y-132432795D01*
X130349898Y-132354774D01*
X130149939Y-132315000D01*
X129946061Y-132315000D01*
X129746102Y-132354774D01*
X129640141Y-132398665D01*
X129695205Y-132316256D01*
X129773226Y-132127898D01*
X129813000Y-131927939D01*
X129813000Y-131724061D01*
X129773226Y-131524102D01*
X129695205Y-131335744D01*
X129581937Y-131166226D01*
X129437774Y-131022063D01*
X129268256Y-130908795D01*
X129079898Y-130830774D01*
X128879939Y-130791000D01*
X128676061Y-130791000D01*
X128476102Y-130830774D01*
X128287744Y-130908795D01*
X128118226Y-131022063D01*
X127974063Y-131166226D01*
X127860795Y-131335744D01*
X127782774Y-131524102D01*
X127743000Y-131724061D01*
X118681079Y-131724061D01*
X118724226Y-131619898D01*
X118764000Y-131419939D01*
X118764000Y-131216061D01*
X118724226Y-131016102D01*
X118646205Y-130827744D01*
X118532937Y-130658226D01*
X118388774Y-130514063D01*
X118219256Y-130400795D01*
X118030898Y-130322774D01*
X117830939Y-130283000D01*
X117627061Y-130283000D01*
X117427102Y-130322774D01*
X117238744Y-130400795D01*
X117069226Y-130514063D01*
X116925063Y-130658226D01*
X116811795Y-130827744D01*
X116733774Y-131016102D01*
X116694000Y-131216061D01*
X116276137Y-131216061D01*
X116279726Y-131207398D01*
X116319500Y-131007439D01*
X116319500Y-130803561D01*
X116279726Y-130603602D01*
X116201705Y-130415244D01*
X116088437Y-130245726D01*
X115944274Y-130101563D01*
X115774756Y-129988295D01*
X115586398Y-129910274D01*
X115386439Y-129870500D01*
X115182561Y-129870500D01*
X114982602Y-129910274D01*
X114794244Y-129988295D01*
X114624726Y-130101563D01*
X114480563Y-130245726D01*
X114367295Y-130415244D01*
X114289274Y-130603602D01*
X114249500Y-130803561D01*
X98469355Y-130803561D01*
X98618302Y-130704039D01*
X98827039Y-130495302D01*
X98991042Y-130249853D01*
X99104010Y-129977125D01*
X99161600Y-129687599D01*
X99161600Y-129392401D01*
X99104010Y-129102875D01*
X98991042Y-128830147D01*
X98827039Y-128584698D01*
X98618302Y-128375961D01*
X98459719Y-128270000D01*
X98618302Y-128164039D01*
X98827039Y-127955302D01*
X98991042Y-127709853D01*
X99104010Y-127437125D01*
X99136196Y-127275311D01*
X106918750Y-127275311D01*
X106918750Y-127479189D01*
X106958524Y-127679148D01*
X107036545Y-127867506D01*
X107149813Y-128037024D01*
X107293976Y-128181187D01*
X107463494Y-128294455D01*
X107651852Y-128372476D01*
X107851811Y-128412250D01*
X108055689Y-128412250D01*
X108255648Y-128372476D01*
X108444006Y-128294455D01*
X108613524Y-128181187D01*
X108757687Y-128037024D01*
X108870955Y-127867506D01*
X108948976Y-127679148D01*
X108988750Y-127479189D01*
X108988750Y-127279061D01*
X109074000Y-127279061D01*
X109074000Y-127482939D01*
X109113774Y-127682898D01*
X109191795Y-127871256D01*
X109305063Y-128040774D01*
X109449226Y-128184937D01*
X109618744Y-128298205D01*
X109807102Y-128376226D01*
X110007061Y-128416000D01*
X110210939Y-128416000D01*
X110410898Y-128376226D01*
X110599256Y-128298205D01*
X110603961Y-128295061D01*
X114345000Y-128295061D01*
X114345000Y-128498939D01*
X114384774Y-128698898D01*
X114462795Y-128887256D01*
X114576063Y-129056774D01*
X114720226Y-129200937D01*
X114889744Y-129314205D01*
X115078102Y-129392226D01*
X115278061Y-129432000D01*
X115481939Y-129432000D01*
X115681898Y-129392226D01*
X115870256Y-129314205D01*
X116039774Y-129200937D01*
X116183937Y-129056774D01*
X116297205Y-128887256D01*
X116375226Y-128698898D01*
X116415000Y-128498939D01*
X116415000Y-128295061D01*
X116375226Y-128095102D01*
X116297205Y-127906744D01*
X116183937Y-127737226D01*
X116039774Y-127593063D01*
X115870256Y-127479795D01*
X115681898Y-127401774D01*
X115481939Y-127362000D01*
X115278061Y-127362000D01*
X115078102Y-127401774D01*
X114889744Y-127479795D01*
X114720226Y-127593063D01*
X114576063Y-127737226D01*
X114462795Y-127906744D01*
X114384774Y-128095102D01*
X114345000Y-128295061D01*
X110603961Y-128295061D01*
X110768774Y-128184937D01*
X110912937Y-128040774D01*
X111026205Y-127871256D01*
X111104226Y-127682898D01*
X111144000Y-127482939D01*
X111144000Y-127279061D01*
X129648000Y-127279061D01*
X129648000Y-127482939D01*
X129687774Y-127682898D01*
X129765795Y-127871256D01*
X129879063Y-128040774D01*
X130023226Y-128184937D01*
X130192744Y-128298205D01*
X130381102Y-128376226D01*
X130581061Y-128416000D01*
X130784939Y-128416000D01*
X130984898Y-128376226D01*
X131173256Y-128298205D01*
X131342774Y-128184937D01*
X131486937Y-128040774D01*
X131600205Y-127871256D01*
X131678226Y-127682898D01*
X131718000Y-127482939D01*
X131718000Y-127279061D01*
X131678226Y-127079102D01*
X131600205Y-126890744D01*
X131486937Y-126721226D01*
X131342774Y-126577063D01*
X131173256Y-126463795D01*
X130984898Y-126385774D01*
X130784939Y-126346000D01*
X130581061Y-126346000D01*
X130381102Y-126385774D01*
X130192744Y-126463795D01*
X130023226Y-126577063D01*
X129879063Y-126721226D01*
X129765795Y-126890744D01*
X129687774Y-127079102D01*
X129648000Y-127279061D01*
X111144000Y-127279061D01*
X111104226Y-127079102D01*
X111026205Y-126890744D01*
X110912937Y-126721226D01*
X110768774Y-126577063D01*
X110599256Y-126463795D01*
X110410898Y-126385774D01*
X110210939Y-126346000D01*
X110007061Y-126346000D01*
X109807102Y-126385774D01*
X109618744Y-126463795D01*
X109449226Y-126577063D01*
X109305063Y-126721226D01*
X109191795Y-126890744D01*
X109113774Y-127079102D01*
X109074000Y-127279061D01*
X108988750Y-127279061D01*
X108988750Y-127275311D01*
X108948976Y-127075352D01*
X108870955Y-126886994D01*
X108757687Y-126717476D01*
X108613524Y-126573313D01*
X108444006Y-126460045D01*
X108255648Y-126382024D01*
X108055689Y-126342250D01*
X107851811Y-126342250D01*
X107651852Y-126382024D01*
X107463494Y-126460045D01*
X107293976Y-126573313D01*
X107149813Y-126717476D01*
X107036545Y-126886994D01*
X106958524Y-127075352D01*
X106918750Y-127275311D01*
X99136196Y-127275311D01*
X99161600Y-127147599D01*
X99161600Y-126852401D01*
X99104010Y-126562875D01*
X98991042Y-126290147D01*
X98827039Y-126044698D01*
X98618302Y-125835961D01*
X98459719Y-125730000D01*
X98618302Y-125624039D01*
X98827039Y-125415302D01*
X98991042Y-125169853D01*
X99011666Y-125120061D01*
X102470000Y-125120061D01*
X102470000Y-125323939D01*
X102509774Y-125523898D01*
X102587795Y-125712256D01*
X102701063Y-125881774D01*
X102845226Y-126025937D01*
X103014744Y-126139205D01*
X103203102Y-126217226D01*
X103403061Y-126257000D01*
X103606939Y-126257000D01*
X103806898Y-126217226D01*
X103995256Y-126139205D01*
X104164774Y-126025937D01*
X104308937Y-125881774D01*
X104422205Y-125712256D01*
X104500226Y-125523898D01*
X104540000Y-125323939D01*
X104540000Y-125120061D01*
X104500226Y-124920102D01*
X104422205Y-124731744D01*
X104308937Y-124562226D01*
X104164774Y-124418063D01*
X103995256Y-124304795D01*
X103806898Y-124226774D01*
X103606939Y-124187000D01*
X103403061Y-124187000D01*
X103203102Y-124226774D01*
X103014744Y-124304795D01*
X102845226Y-124418063D01*
X102701063Y-124562226D01*
X102587795Y-124731744D01*
X102509774Y-124920102D01*
X102470000Y-125120061D01*
X99011666Y-125120061D01*
X99104010Y-124897125D01*
X99161600Y-124607599D01*
X99161600Y-124312401D01*
X99120159Y-124104061D01*
X109074000Y-124104061D01*
X109074000Y-124307939D01*
X109113774Y-124507898D01*
X109191795Y-124696256D01*
X109305063Y-124865774D01*
X109449226Y-125009937D01*
X109618744Y-125123205D01*
X109807102Y-125201226D01*
X110007061Y-125241000D01*
X110210939Y-125241000D01*
X110410898Y-125201226D01*
X110599256Y-125123205D01*
X110768774Y-125009937D01*
X110912937Y-124865774D01*
X111026205Y-124696256D01*
X111104226Y-124507898D01*
X111144000Y-124307939D01*
X111144000Y-124104061D01*
X111104226Y-123904102D01*
X111026205Y-123715744D01*
X110912937Y-123546226D01*
X110768774Y-123402063D01*
X110599256Y-123288795D01*
X110410898Y-123210774D01*
X110210939Y-123171000D01*
X110007061Y-123171000D01*
X109807102Y-123210774D01*
X109618744Y-123288795D01*
X109449226Y-123402063D01*
X109305063Y-123546226D01*
X109191795Y-123715744D01*
X109113774Y-123904102D01*
X109074000Y-124104061D01*
X99120159Y-124104061D01*
X99104010Y-124022875D01*
X98991042Y-123750147D01*
X98827039Y-123504698D01*
X98618302Y-123295961D01*
X98459719Y-123190000D01*
X98618302Y-123084039D01*
X98741280Y-122961061D01*
X102470000Y-122961061D01*
X102470000Y-123164939D01*
X102509774Y-123364898D01*
X102587795Y-123553256D01*
X102701063Y-123722774D01*
X102845226Y-123866937D01*
X103014744Y-123980205D01*
X103203102Y-124058226D01*
X103403061Y-124098000D01*
X103606939Y-124098000D01*
X103806898Y-124058226D01*
X103995256Y-123980205D01*
X104164774Y-123866937D01*
X104308937Y-123722774D01*
X104422205Y-123553256D01*
X104500226Y-123364898D01*
X104540000Y-123164939D01*
X104540000Y-122961061D01*
X104500226Y-122761102D01*
X104422205Y-122572744D01*
X104308937Y-122403226D01*
X104164774Y-122259063D01*
X103995256Y-122145795D01*
X103806898Y-122067774D01*
X103606939Y-122028000D01*
X103403061Y-122028000D01*
X103203102Y-122067774D01*
X103014744Y-122145795D01*
X102845226Y-122259063D01*
X102701063Y-122403226D01*
X102587795Y-122572744D01*
X102509774Y-122761102D01*
X102470000Y-122961061D01*
X98741280Y-122961061D01*
X98827039Y-122875302D01*
X98991042Y-122629853D01*
X99104010Y-122357125D01*
X99161600Y-122067599D01*
X99161600Y-121945061D01*
X109074000Y-121945061D01*
X109074000Y-122148939D01*
X109113774Y-122348898D01*
X109191795Y-122537256D01*
X109305063Y-122706774D01*
X109449226Y-122850937D01*
X109618744Y-122964205D01*
X109807102Y-123042226D01*
X110007061Y-123082000D01*
X110210939Y-123082000D01*
X110410898Y-123042226D01*
X110599256Y-122964205D01*
X110768774Y-122850937D01*
X110912937Y-122706774D01*
X111026205Y-122537256D01*
X111104226Y-122348898D01*
X111144000Y-122148939D01*
X111144000Y-121945061D01*
X111118739Y-121818061D01*
X130537000Y-121818061D01*
X130537000Y-122021939D01*
X130576774Y-122221898D01*
X130654795Y-122410256D01*
X130751510Y-122555000D01*
X130654795Y-122699744D01*
X130576774Y-122888102D01*
X130537000Y-123088061D01*
X130537000Y-123291939D01*
X130576774Y-123491898D01*
X130654795Y-123680256D01*
X130768063Y-123849774D01*
X130912226Y-123993937D01*
X131081744Y-124107205D01*
X131166953Y-124142500D01*
X131081744Y-124177795D01*
X130912226Y-124291063D01*
X130768063Y-124435226D01*
X130654795Y-124604744D01*
X130576774Y-124793102D01*
X130537000Y-124993061D01*
X130537000Y-125196939D01*
X130576774Y-125396898D01*
X130654795Y-125585256D01*
X130768063Y-125754774D01*
X130912226Y-125898937D01*
X131081744Y-126012205D01*
X131270102Y-126090226D01*
X131470061Y-126130000D01*
X131673939Y-126130000D01*
X131873898Y-126090226D01*
X132062256Y-126012205D01*
X132231774Y-125898937D01*
X132375937Y-125754774D01*
X132489205Y-125585256D01*
X132567226Y-125396898D01*
X132607000Y-125196939D01*
X132607000Y-124993061D01*
X132567226Y-124793102D01*
X132489205Y-124604744D01*
X132375937Y-124435226D01*
X132231774Y-124291063D01*
X132062256Y-124177795D01*
X131977047Y-124142500D01*
X132062256Y-124107205D01*
X132231774Y-123993937D01*
X132375937Y-123849774D01*
X132489205Y-123680256D01*
X132567226Y-123491898D01*
X132607000Y-123291939D01*
X132607000Y-123088061D01*
X132567226Y-122888102D01*
X132489205Y-122699744D01*
X132392490Y-122555000D01*
X132489205Y-122410256D01*
X132567226Y-122221898D01*
X132607000Y-122021939D01*
X132607000Y-121818061D01*
X132567226Y-121618102D01*
X132489205Y-121429744D01*
X132375937Y-121260226D01*
X132231774Y-121116063D01*
X132062256Y-121002795D01*
X131873898Y-120924774D01*
X131673939Y-120885000D01*
X131470061Y-120885000D01*
X131270102Y-120924774D01*
X131081744Y-121002795D01*
X130912226Y-121116063D01*
X130768063Y-121260226D01*
X130654795Y-121429744D01*
X130576774Y-121618102D01*
X130537000Y-121818061D01*
X111118739Y-121818061D01*
X111104226Y-121745102D01*
X111026205Y-121556744D01*
X110912937Y-121387226D01*
X110768774Y-121243063D01*
X110599256Y-121129795D01*
X110410898Y-121051774D01*
X110210939Y-121012000D01*
X110007061Y-121012000D01*
X109807102Y-121051774D01*
X109618744Y-121129795D01*
X109449226Y-121243063D01*
X109305063Y-121387226D01*
X109191795Y-121556744D01*
X109113774Y-121745102D01*
X109074000Y-121945061D01*
X99161600Y-121945061D01*
X99161600Y-121772401D01*
X99104010Y-121482875D01*
X98991042Y-121210147D01*
X98827039Y-120964698D01*
X98618302Y-120755961D01*
X98459719Y-120650000D01*
X98618302Y-120544039D01*
X98827039Y-120335302D01*
X98991042Y-120089853D01*
X99104010Y-119817125D01*
X99135450Y-119659061D01*
X109074000Y-119659061D01*
X109074000Y-119862939D01*
X109113774Y-120062898D01*
X109191795Y-120251256D01*
X109305063Y-120420774D01*
X109449226Y-120564937D01*
X109618744Y-120678205D01*
X109807102Y-120756226D01*
X110007061Y-120796000D01*
X110210939Y-120796000D01*
X110410898Y-120756226D01*
X110599256Y-120678205D01*
X110768774Y-120564937D01*
X110912937Y-120420774D01*
X111026205Y-120251256D01*
X111104226Y-120062898D01*
X111144000Y-119862939D01*
X111144000Y-119659061D01*
X111104226Y-119459102D01*
X111026205Y-119270744D01*
X110912937Y-119101226D01*
X110768774Y-118957063D01*
X110599256Y-118843795D01*
X110410898Y-118765774D01*
X110210939Y-118726000D01*
X110007061Y-118726000D01*
X109807102Y-118765774D01*
X109618744Y-118843795D01*
X109449226Y-118957063D01*
X109305063Y-119101226D01*
X109191795Y-119270744D01*
X109113774Y-119459102D01*
X109074000Y-119659061D01*
X99135450Y-119659061D01*
X99161600Y-119527599D01*
X99161600Y-119232401D01*
X99104010Y-118942875D01*
X98991042Y-118670147D01*
X98827039Y-118424698D01*
X98618302Y-118215961D01*
X98459719Y-118110000D01*
X98618302Y-118004039D01*
X98827039Y-117795302D01*
X98991042Y-117549853D01*
X99064271Y-117373061D01*
X109074000Y-117373061D01*
X109074000Y-117576939D01*
X109113774Y-117776898D01*
X109191795Y-117965256D01*
X109305063Y-118134774D01*
X109449226Y-118278937D01*
X109618744Y-118392205D01*
X109807102Y-118470226D01*
X110007061Y-118510000D01*
X110210939Y-118510000D01*
X110410898Y-118470226D01*
X110599256Y-118392205D01*
X110768774Y-118278937D01*
X110912937Y-118134774D01*
X111026205Y-117965256D01*
X111104226Y-117776898D01*
X111144000Y-117576939D01*
X111144000Y-117373061D01*
X111104226Y-117173102D01*
X111026205Y-116984744D01*
X110912937Y-116815226D01*
X110768774Y-116671063D01*
X110599256Y-116557795D01*
X110410898Y-116479774D01*
X110210939Y-116440000D01*
X110007061Y-116440000D01*
X109807102Y-116479774D01*
X109618744Y-116557795D01*
X109449226Y-116671063D01*
X109305063Y-116815226D01*
X109191795Y-116984744D01*
X109113774Y-117173102D01*
X109074000Y-117373061D01*
X99064271Y-117373061D01*
X99104010Y-117277125D01*
X99161600Y-116987599D01*
X99161600Y-116692401D01*
X99104010Y-116402875D01*
X98991042Y-116130147D01*
X98827039Y-115884698D01*
X98618302Y-115675961D01*
X98459719Y-115570000D01*
X98618302Y-115464039D01*
X98827039Y-115255302D01*
X98939453Y-115087061D01*
X109074000Y-115087061D01*
X109074000Y-115290939D01*
X109113774Y-115490898D01*
X109191795Y-115679256D01*
X109305063Y-115848774D01*
X109449226Y-115992937D01*
X109618744Y-116106205D01*
X109807102Y-116184226D01*
X110007061Y-116224000D01*
X110210939Y-116224000D01*
X110410898Y-116184226D01*
X110599256Y-116106205D01*
X110768774Y-115992937D01*
X110912937Y-115848774D01*
X111026205Y-115679256D01*
X111104226Y-115490898D01*
X111144000Y-115290939D01*
X111144000Y-115087061D01*
X111104226Y-114887102D01*
X111026205Y-114698744D01*
X110912937Y-114529226D01*
X110768774Y-114385063D01*
X110599256Y-114271795D01*
X110410898Y-114193774D01*
X110210939Y-114154000D01*
X110007061Y-114154000D01*
X109807102Y-114193774D01*
X109618744Y-114271795D01*
X109449226Y-114385063D01*
X109305063Y-114529226D01*
X109191795Y-114698744D01*
X109113774Y-114887102D01*
X109074000Y-115087061D01*
X98939453Y-115087061D01*
X98991042Y-115009853D01*
X99104010Y-114737125D01*
X99161600Y-114447599D01*
X99161600Y-114152401D01*
X99104010Y-113862875D01*
X98991042Y-113590147D01*
X98827039Y-113344698D01*
X98618302Y-113135961D01*
X98459719Y-113030000D01*
X98618302Y-112924039D01*
X98741280Y-112801061D01*
X109074000Y-112801061D01*
X109074000Y-113004939D01*
X109113774Y-113204898D01*
X109191795Y-113393256D01*
X109305063Y-113562774D01*
X109449226Y-113706937D01*
X109618744Y-113820205D01*
X109807102Y-113898226D01*
X110007061Y-113938000D01*
X110210939Y-113938000D01*
X110410898Y-113898226D01*
X110599256Y-113820205D01*
X110768774Y-113706937D01*
X110912937Y-113562774D01*
X111026205Y-113393256D01*
X111104226Y-113204898D01*
X111144000Y-113004939D01*
X111144000Y-112801061D01*
X111104226Y-112601102D01*
X111026205Y-112412744D01*
X110912937Y-112243226D01*
X110768774Y-112099063D01*
X110599256Y-111985795D01*
X110410898Y-111907774D01*
X110210939Y-111868000D01*
X110007061Y-111868000D01*
X109807102Y-111907774D01*
X109618744Y-111985795D01*
X109449226Y-112099063D01*
X109305063Y-112243226D01*
X109191795Y-112412744D01*
X109113774Y-112601102D01*
X109074000Y-112801061D01*
X98741280Y-112801061D01*
X98827039Y-112715302D01*
X98991042Y-112469853D01*
X99104010Y-112197125D01*
X99161600Y-111907599D01*
X99161600Y-111612401D01*
X99104010Y-111322875D01*
X98991042Y-111050147D01*
X98827039Y-110804698D01*
X98618302Y-110595961D01*
X98497227Y-110515061D01*
X109074000Y-110515061D01*
X109074000Y-110718939D01*
X109113774Y-110918898D01*
X109191795Y-111107256D01*
X109305063Y-111276774D01*
X109449226Y-111420937D01*
X109618744Y-111534205D01*
X109807102Y-111612226D01*
X110007061Y-111652000D01*
X110210939Y-111652000D01*
X110410898Y-111612226D01*
X110599256Y-111534205D01*
X110768774Y-111420937D01*
X110912937Y-111276774D01*
X111026205Y-111107256D01*
X111104226Y-110918898D01*
X111144000Y-110718939D01*
X111144000Y-110515061D01*
X111104226Y-110315102D01*
X111026205Y-110126744D01*
X110912937Y-109957226D01*
X110768774Y-109813063D01*
X110599256Y-109699795D01*
X110410898Y-109621774D01*
X110210939Y-109582000D01*
X110007061Y-109582000D01*
X109807102Y-109621774D01*
X109618744Y-109699795D01*
X109449226Y-109813063D01*
X109305063Y-109957226D01*
X109191795Y-110126744D01*
X109113774Y-110315102D01*
X109074000Y-110515061D01*
X98497227Y-110515061D01*
X98372853Y-110431958D01*
X98100125Y-110318990D01*
X97810599Y-110261400D01*
X97515401Y-110261400D01*
X97225875Y-110318990D01*
X96953147Y-110431958D01*
X96707698Y-110595961D01*
X96498961Y-110804698D01*
X96393000Y-110963281D01*
X96287039Y-110804698D01*
X96078302Y-110595961D01*
X95832853Y-110431958D01*
X95560125Y-110318990D01*
X95270599Y-110261400D01*
X94975401Y-110261400D01*
X94685875Y-110318990D01*
X94413147Y-110431958D01*
X94167698Y-110595961D01*
X93958961Y-110804698D01*
X93794958Y-111050147D01*
X93681990Y-111322875D01*
X93624400Y-111612401D01*
X87336734Y-111612401D01*
X87279932Y-111326842D01*
X87167990Y-111056589D01*
X87005475Y-110813368D01*
X86873620Y-110681513D01*
X86946180Y-110659502D01*
X87056494Y-110600537D01*
X87153185Y-110521185D01*
X87232537Y-110424494D01*
X87291502Y-110314180D01*
X87327812Y-110194482D01*
X87340072Y-110070000D01*
X87340072Y-108370000D01*
X87327812Y-108245518D01*
X87291502Y-108125820D01*
X87232537Y-108015506D01*
X87153185Y-107918815D01*
X87056494Y-107839463D01*
X86946180Y-107780498D01*
X86862168Y-107755013D01*
X108599952Y-107755013D01*
X108599952Y-107958891D01*
X108639726Y-108158850D01*
X108717747Y-108347208D01*
X108831015Y-108516726D01*
X108975178Y-108660889D01*
X109144696Y-108774157D01*
X109333054Y-108852178D01*
X109533013Y-108891952D01*
X109736891Y-108891952D01*
X109936850Y-108852178D01*
X110125208Y-108774157D01*
X110294726Y-108660889D01*
X110438889Y-108516726D01*
X110552157Y-108347208D01*
X110630178Y-108158850D01*
X110669952Y-107958891D01*
X110669952Y-107755013D01*
X110630178Y-107555054D01*
X110552157Y-107366696D01*
X110438889Y-107197178D01*
X110294726Y-107053015D01*
X110125208Y-106939747D01*
X109936850Y-106861726D01*
X109736891Y-106821952D01*
X109533013Y-106821952D01*
X109333054Y-106861726D01*
X109144696Y-106939747D01*
X108975178Y-107053015D01*
X108831015Y-107197178D01*
X108717747Y-107366696D01*
X108639726Y-107555054D01*
X108599952Y-107755013D01*
X86862168Y-107755013D01*
X86826482Y-107744188D01*
X86702000Y-107731928D01*
X85002000Y-107731928D01*
X84877518Y-107744188D01*
X84757820Y-107780498D01*
X84647506Y-107839463D01*
X84550815Y-107918815D01*
X84471463Y-108015506D01*
X84412498Y-108125820D01*
X84378000Y-108239545D01*
X84378000Y-106578061D01*
X116821000Y-106578061D01*
X116821000Y-106781939D01*
X116860774Y-106981898D01*
X116938795Y-107170256D01*
X117035510Y-107315000D01*
X116938795Y-107459744D01*
X116860774Y-107648102D01*
X116821000Y-107848061D01*
X116821000Y-108051939D01*
X116860774Y-108251898D01*
X116938795Y-108440256D01*
X117035510Y-108585000D01*
X116938795Y-108729744D01*
X116860774Y-108918102D01*
X116821000Y-109118061D01*
X116821000Y-109321939D01*
X116860774Y-109521898D01*
X116938795Y-109710256D01*
X117035510Y-109855000D01*
X116938795Y-109999744D01*
X116860774Y-110188102D01*
X116821000Y-110388061D01*
X116821000Y-110591939D01*
X116860774Y-110791898D01*
X116938795Y-110980256D01*
X117035510Y-111125000D01*
X116938795Y-111269744D01*
X116860774Y-111458102D01*
X116821000Y-111658061D01*
X116821000Y-111861939D01*
X116860774Y-112061898D01*
X116938795Y-112250256D01*
X117035510Y-112395000D01*
X116938795Y-112539744D01*
X116860774Y-112728102D01*
X116821000Y-112928061D01*
X116821000Y-113131939D01*
X116860774Y-113331898D01*
X116938795Y-113520256D01*
X117035510Y-113665000D01*
X116938795Y-113809744D01*
X116860774Y-113998102D01*
X116821000Y-114198061D01*
X116821000Y-114401939D01*
X116860774Y-114601898D01*
X116938795Y-114790256D01*
X117035510Y-114935000D01*
X116938795Y-115079744D01*
X116860774Y-115268102D01*
X116821000Y-115468061D01*
X116821000Y-115671939D01*
X116860774Y-115871898D01*
X116938795Y-116060256D01*
X117035510Y-116205000D01*
X116938795Y-116349744D01*
X116860774Y-116538102D01*
X116821000Y-116738061D01*
X116821000Y-116941939D01*
X116860774Y-117141898D01*
X116938795Y-117330256D01*
X117035510Y-117475000D01*
X116938795Y-117619744D01*
X116860774Y-117808102D01*
X116821000Y-118008061D01*
X116821000Y-118211939D01*
X116860774Y-118411898D01*
X116938795Y-118600256D01*
X117035510Y-118745000D01*
X116938795Y-118889744D01*
X116860774Y-119078102D01*
X116821000Y-119278061D01*
X116821000Y-119481939D01*
X116860774Y-119681898D01*
X116938795Y-119870256D01*
X117052063Y-120039774D01*
X117196226Y-120183937D01*
X117365744Y-120297205D01*
X117554102Y-120375226D01*
X117754061Y-120415000D01*
X117957939Y-120415000D01*
X118157898Y-120375226D01*
X118346256Y-120297205D01*
X118515774Y-120183937D01*
X118659937Y-120039774D01*
X118773205Y-119870256D01*
X118851226Y-119681898D01*
X118891000Y-119481939D01*
X118891000Y-119278061D01*
X118851226Y-119078102D01*
X118773205Y-118889744D01*
X118676490Y-118745000D01*
X118773205Y-118600256D01*
X118851226Y-118411898D01*
X118891000Y-118211939D01*
X118891000Y-118008061D01*
X118851226Y-117808102D01*
X118773205Y-117619744D01*
X118676490Y-117475000D01*
X118773205Y-117330256D01*
X118851226Y-117141898D01*
X118891000Y-116941939D01*
X118891000Y-116738061D01*
X125965000Y-116738061D01*
X125965000Y-116941939D01*
X126004774Y-117141898D01*
X126082795Y-117330256D01*
X126196063Y-117499774D01*
X126340226Y-117643937D01*
X126509744Y-117757205D01*
X126698102Y-117835226D01*
X126898061Y-117875000D01*
X127101939Y-117875000D01*
X127301898Y-117835226D01*
X127490256Y-117757205D01*
X127659774Y-117643937D01*
X127803937Y-117499774D01*
X127917205Y-117330256D01*
X127995226Y-117141898D01*
X128035000Y-116941939D01*
X128035000Y-116738061D01*
X127995226Y-116538102D01*
X127917205Y-116349744D01*
X127803937Y-116180226D01*
X127659774Y-116036063D01*
X127490256Y-115922795D01*
X127301898Y-115844774D01*
X127101939Y-115805000D01*
X126898061Y-115805000D01*
X126698102Y-115844774D01*
X126509744Y-115922795D01*
X126340226Y-116036063D01*
X126196063Y-116180226D01*
X126082795Y-116349744D01*
X126004774Y-116538102D01*
X125965000Y-116738061D01*
X118891000Y-116738061D01*
X118851226Y-116538102D01*
X118773205Y-116349744D01*
X118676490Y-116205000D01*
X118773205Y-116060256D01*
X118851226Y-115871898D01*
X118891000Y-115671939D01*
X118891000Y-115468061D01*
X118851226Y-115268102D01*
X118828842Y-115214061D01*
X122155000Y-115214061D01*
X122155000Y-115417939D01*
X122194774Y-115617898D01*
X122272795Y-115806256D01*
X122386063Y-115975774D01*
X122530226Y-116119937D01*
X122699744Y-116233205D01*
X122888102Y-116311226D01*
X123088061Y-116351000D01*
X123291939Y-116351000D01*
X123491898Y-116311226D01*
X123680256Y-116233205D01*
X123849774Y-116119937D01*
X123993937Y-115975774D01*
X124107205Y-115806256D01*
X124185226Y-115617898D01*
X124225000Y-115417939D01*
X124225000Y-115214061D01*
X124185226Y-115014102D01*
X124107205Y-114825744D01*
X123993937Y-114656226D01*
X123849774Y-114512063D01*
X123680256Y-114398795D01*
X123491898Y-114320774D01*
X123291939Y-114281000D01*
X123088061Y-114281000D01*
X122888102Y-114320774D01*
X122699744Y-114398795D01*
X122530226Y-114512063D01*
X122386063Y-114656226D01*
X122272795Y-114825744D01*
X122194774Y-115014102D01*
X122155000Y-115214061D01*
X118828842Y-115214061D01*
X118773205Y-115079744D01*
X118676490Y-114935000D01*
X118773205Y-114790256D01*
X118851226Y-114601898D01*
X118891000Y-114401939D01*
X118891000Y-114198061D01*
X118851226Y-113998102D01*
X118773205Y-113809744D01*
X118676490Y-113665000D01*
X118773205Y-113520256D01*
X118851226Y-113331898D01*
X118891000Y-113131939D01*
X118891000Y-112928061D01*
X118851226Y-112728102D01*
X118773205Y-112539744D01*
X118676490Y-112395000D01*
X118773205Y-112250256D01*
X118851226Y-112061898D01*
X118891000Y-111861939D01*
X118891000Y-111658061D01*
X125965000Y-111658061D01*
X125965000Y-111861939D01*
X126004774Y-112061898D01*
X126082795Y-112250256D01*
X126179510Y-112395000D01*
X126082795Y-112539744D01*
X126004774Y-112728102D01*
X125965000Y-112928061D01*
X125965000Y-113131939D01*
X126004774Y-113331898D01*
X126082795Y-113520256D01*
X126196063Y-113689774D01*
X126340226Y-113833937D01*
X126509744Y-113947205D01*
X126698102Y-114025226D01*
X126898061Y-114065000D01*
X127101939Y-114065000D01*
X127301898Y-114025226D01*
X127490256Y-113947205D01*
X127659774Y-113833937D01*
X127803937Y-113689774D01*
X127917205Y-113520256D01*
X127995226Y-113331898D01*
X128035000Y-113131939D01*
X128035000Y-112928061D01*
X127995226Y-112728102D01*
X127917205Y-112539744D01*
X127820490Y-112395000D01*
X127917205Y-112250256D01*
X127995226Y-112061898D01*
X128035000Y-111861939D01*
X128035000Y-111658061D01*
X127995226Y-111458102D01*
X127917205Y-111269744D01*
X127803937Y-111100226D01*
X127659774Y-110956063D01*
X127490256Y-110842795D01*
X127301898Y-110764774D01*
X127101939Y-110725000D01*
X126898061Y-110725000D01*
X126698102Y-110764774D01*
X126509744Y-110842795D01*
X126340226Y-110956063D01*
X126196063Y-111100226D01*
X126082795Y-111269744D01*
X126004774Y-111458102D01*
X125965000Y-111658061D01*
X118891000Y-111658061D01*
X118851226Y-111458102D01*
X118773205Y-111269744D01*
X118676490Y-111125000D01*
X118773205Y-110980256D01*
X118851226Y-110791898D01*
X118891000Y-110591939D01*
X118891000Y-110388061D01*
X118851226Y-110188102D01*
X118773205Y-109999744D01*
X118676490Y-109855000D01*
X118773205Y-109710256D01*
X118851226Y-109521898D01*
X118891000Y-109321939D01*
X118891000Y-109118061D01*
X118851226Y-108918102D01*
X118773205Y-108729744D01*
X118676490Y-108585000D01*
X118773205Y-108440256D01*
X118851226Y-108251898D01*
X118891000Y-108051939D01*
X118891000Y-107848061D01*
X133077000Y-107848061D01*
X133077000Y-108051939D01*
X133116774Y-108251898D01*
X133194795Y-108440256D01*
X133308063Y-108609774D01*
X133452226Y-108753937D01*
X133621744Y-108867205D01*
X133810102Y-108945226D01*
X134010061Y-108985000D01*
X134213939Y-108985000D01*
X134413898Y-108945226D01*
X134602256Y-108867205D01*
X134771774Y-108753937D01*
X134915937Y-108609774D01*
X135029205Y-108440256D01*
X135107226Y-108251898D01*
X135147000Y-108051939D01*
X135147000Y-107848061D01*
X135107226Y-107648102D01*
X135029205Y-107459744D01*
X134915937Y-107290226D01*
X134771774Y-107146063D01*
X134602256Y-107032795D01*
X134413898Y-106954774D01*
X134213939Y-106915000D01*
X134010061Y-106915000D01*
X133810102Y-106954774D01*
X133621744Y-107032795D01*
X133452226Y-107146063D01*
X133308063Y-107290226D01*
X133194795Y-107459744D01*
X133116774Y-107648102D01*
X133077000Y-107848061D01*
X118891000Y-107848061D01*
X118851226Y-107648102D01*
X118773205Y-107459744D01*
X118676490Y-107315000D01*
X118773205Y-107170256D01*
X118851226Y-106981898D01*
X118891000Y-106781939D01*
X118891000Y-106578061D01*
X125965000Y-106578061D01*
X125965000Y-106781939D01*
X126004774Y-106981898D01*
X126082795Y-107170256D01*
X126196063Y-107339774D01*
X126340226Y-107483937D01*
X126509744Y-107597205D01*
X126698102Y-107675226D01*
X126898061Y-107715000D01*
X127101939Y-107715000D01*
X127301898Y-107675226D01*
X127490256Y-107597205D01*
X127659774Y-107483937D01*
X127803937Y-107339774D01*
X127917205Y-107170256D01*
X127995226Y-106981898D01*
X128035000Y-106781939D01*
X128035000Y-106578061D01*
X127995226Y-106378102D01*
X127917205Y-106189744D01*
X127803937Y-106020226D01*
X127659774Y-105876063D01*
X127490256Y-105762795D01*
X127301898Y-105684774D01*
X127101939Y-105645000D01*
X126898061Y-105645000D01*
X126698102Y-105684774D01*
X126509744Y-105762795D01*
X126340226Y-105876063D01*
X126196063Y-106020226D01*
X126082795Y-106189744D01*
X126004774Y-106378102D01*
X125965000Y-106578061D01*
X118891000Y-106578061D01*
X118851226Y-106378102D01*
X118773205Y-106189744D01*
X118659937Y-106020226D01*
X118515774Y-105876063D01*
X118346256Y-105762795D01*
X118157898Y-105684774D01*
X117957939Y-105645000D01*
X117754061Y-105645000D01*
X117554102Y-105684774D01*
X117365744Y-105762795D01*
X117196226Y-105876063D01*
X117052063Y-106020226D01*
X116938795Y-106189744D01*
X116860774Y-106378102D01*
X116821000Y-106578061D01*
X84378000Y-106578061D01*
X84378000Y-102768061D01*
X87611000Y-102768061D01*
X87611000Y-102971939D01*
X87650774Y-103171898D01*
X87728795Y-103360256D01*
X87842063Y-103529774D01*
X87986226Y-103673937D01*
X88155744Y-103787205D01*
X88344102Y-103865226D01*
X88544061Y-103905000D01*
X88747939Y-103905000D01*
X88947898Y-103865226D01*
X89136256Y-103787205D01*
X89281000Y-103690490D01*
X89425744Y-103787205D01*
X89614102Y-103865226D01*
X89814061Y-103905000D01*
X90017939Y-103905000D01*
X90217898Y-103865226D01*
X90406256Y-103787205D01*
X90551000Y-103690490D01*
X90695744Y-103787205D01*
X90884102Y-103865226D01*
X91084061Y-103905000D01*
X91287939Y-103905000D01*
X91487898Y-103865226D01*
X91676256Y-103787205D01*
X91845774Y-103673937D01*
X91989937Y-103529774D01*
X92103205Y-103360256D01*
X92181226Y-103171898D01*
X92221000Y-102971939D01*
X92221000Y-102768061D01*
X92181226Y-102568102D01*
X92103205Y-102379744D01*
X91989937Y-102210226D01*
X91845774Y-102066063D01*
X91676256Y-101952795D01*
X91487898Y-101874774D01*
X91287939Y-101835000D01*
X91084061Y-101835000D01*
X90884102Y-101874774D01*
X90695744Y-101952795D01*
X90551000Y-102049510D01*
X90406256Y-101952795D01*
X90217898Y-101874774D01*
X90017939Y-101835000D01*
X89814061Y-101835000D01*
X89614102Y-101874774D01*
X89425744Y-101952795D01*
X89281000Y-102049510D01*
X89136256Y-101952795D01*
X88947898Y-101874774D01*
X88747939Y-101835000D01*
X88544061Y-101835000D01*
X88344102Y-101874774D01*
X88155744Y-101952795D01*
X87986226Y-102066063D01*
X87842063Y-102210226D01*
X87728795Y-102379744D01*
X87650774Y-102568102D01*
X87611000Y-102768061D01*
X84378000Y-102768061D01*
X84378000Y-98958067D01*
X88881000Y-98958067D01*
X88881000Y-99161945D01*
X88920774Y-99361904D01*
X88998795Y-99550262D01*
X89112063Y-99719780D01*
X89256226Y-99863943D01*
X89425744Y-99977211D01*
X89614102Y-100055232D01*
X89814061Y-100095006D01*
X90017939Y-100095006D01*
X90217898Y-100055232D01*
X90406256Y-99977211D01*
X90575774Y-99863943D01*
X90719937Y-99719780D01*
X90833205Y-99550262D01*
X90911226Y-99361904D01*
X90951000Y-99161945D01*
X90951000Y-98958067D01*
X90950999Y-98958061D01*
X91675000Y-98958061D01*
X91675000Y-99161939D01*
X91714774Y-99361898D01*
X91792795Y-99550256D01*
X91906063Y-99719774D01*
X92050226Y-99863937D01*
X92219744Y-99977205D01*
X92408102Y-100055226D01*
X92608061Y-100095000D01*
X92811939Y-100095000D01*
X93011898Y-100055226D01*
X93200256Y-99977205D01*
X93369774Y-99863937D01*
X93513937Y-99719774D01*
X93598601Y-99593065D01*
X99168000Y-99593065D01*
X99168000Y-99796943D01*
X99207774Y-99996902D01*
X99285795Y-100185260D01*
X99399063Y-100354778D01*
X99543226Y-100498941D01*
X99712744Y-100612209D01*
X99901102Y-100690230D01*
X100101061Y-100730004D01*
X100304939Y-100730004D01*
X100504898Y-100690230D01*
X100693256Y-100612209D01*
X100862774Y-100498941D01*
X101006937Y-100354778D01*
X101120205Y-100185260D01*
X101198226Y-99996902D01*
X101238000Y-99796943D01*
X101238000Y-99593065D01*
X101238000Y-99593061D01*
X108566000Y-99593061D01*
X108566000Y-99796939D01*
X108605774Y-99996898D01*
X108683795Y-100185256D01*
X108797063Y-100354774D01*
X108941226Y-100498937D01*
X109110744Y-100612205D01*
X109299102Y-100690226D01*
X109499061Y-100730000D01*
X109702939Y-100730000D01*
X109902898Y-100690226D01*
X110091256Y-100612205D01*
X110260774Y-100498937D01*
X110404937Y-100354774D01*
X110518205Y-100185256D01*
X110596226Y-99996898D01*
X110636000Y-99796939D01*
X110636000Y-99593061D01*
X117710000Y-99593061D01*
X117710000Y-99796939D01*
X117749774Y-99996898D01*
X117827795Y-100185256D01*
X117941063Y-100354774D01*
X118085226Y-100498937D01*
X118254744Y-100612205D01*
X118443102Y-100690226D01*
X118643061Y-100730000D01*
X118846939Y-100730000D01*
X119046898Y-100690226D01*
X119235256Y-100612205D01*
X119404774Y-100498937D01*
X119548937Y-100354774D01*
X119662205Y-100185256D01*
X119740226Y-99996898D01*
X119780000Y-99796939D01*
X119780000Y-99593061D01*
X119740226Y-99393102D01*
X119662205Y-99204744D01*
X119548937Y-99035226D01*
X119404774Y-98891063D01*
X119235256Y-98777795D01*
X119046898Y-98699774D01*
X118846939Y-98660000D01*
X118643061Y-98660000D01*
X118443102Y-98699774D01*
X118254744Y-98777795D01*
X118085226Y-98891063D01*
X117941063Y-99035226D01*
X117827795Y-99204744D01*
X117749774Y-99393102D01*
X117710000Y-99593061D01*
X110636000Y-99593061D01*
X110596226Y-99393102D01*
X110518205Y-99204744D01*
X110404937Y-99035226D01*
X110260774Y-98891063D01*
X110091256Y-98777795D01*
X109902898Y-98699774D01*
X109702939Y-98660000D01*
X109499061Y-98660000D01*
X109299102Y-98699774D01*
X109110744Y-98777795D01*
X108941226Y-98891063D01*
X108797063Y-99035226D01*
X108683795Y-99204744D01*
X108605774Y-99393102D01*
X108566000Y-99593061D01*
X101238000Y-99593061D01*
X101198226Y-99393106D01*
X101120205Y-99204748D01*
X101006937Y-99035230D01*
X100862774Y-98891067D01*
X100693256Y-98777799D01*
X100504898Y-98699778D01*
X100304939Y-98660004D01*
X100101061Y-98660004D01*
X99901102Y-98699778D01*
X99712744Y-98777799D01*
X99543226Y-98891067D01*
X99399063Y-99035230D01*
X99285795Y-99204748D01*
X99207774Y-99393106D01*
X99168000Y-99593065D01*
X93598601Y-99593065D01*
X93627205Y-99550256D01*
X93705226Y-99361898D01*
X93745000Y-99161939D01*
X93745000Y-98958061D01*
X93705226Y-98758102D01*
X93627205Y-98569744D01*
X93513937Y-98400226D01*
X93369774Y-98256063D01*
X93200256Y-98142795D01*
X93011898Y-98064774D01*
X92811939Y-98025000D01*
X92608061Y-98025000D01*
X92408102Y-98064774D01*
X92219744Y-98142795D01*
X92050226Y-98256063D01*
X91906063Y-98400226D01*
X91792795Y-98569744D01*
X91714774Y-98758102D01*
X91675000Y-98958061D01*
X90950999Y-98958061D01*
X90911226Y-98758108D01*
X90833205Y-98569750D01*
X90719937Y-98400232D01*
X90575774Y-98256069D01*
X90406256Y-98142801D01*
X90217898Y-98064780D01*
X90017939Y-98025006D01*
X89814061Y-98025006D01*
X89614102Y-98064780D01*
X89425744Y-98142801D01*
X89256226Y-98256069D01*
X89112063Y-98400232D01*
X88998795Y-98569750D01*
X88920774Y-98758108D01*
X88881000Y-98958067D01*
X84378000Y-98958067D01*
X84378000Y-95656061D01*
X85325000Y-95656061D01*
X85325000Y-95859939D01*
X85364774Y-96059898D01*
X85442795Y-96248256D01*
X85556063Y-96417774D01*
X85700226Y-96561937D01*
X85869744Y-96675205D01*
X86058102Y-96753226D01*
X86258061Y-96793000D01*
X86461939Y-96793000D01*
X86661898Y-96753226D01*
X86850256Y-96675205D01*
X87019774Y-96561937D01*
X87163937Y-96417774D01*
X87277205Y-96248256D01*
X87355226Y-96059898D01*
X87395000Y-95859939D01*
X87395000Y-95656061D01*
X87355226Y-95456102D01*
X87277205Y-95267744D01*
X87163937Y-95098226D01*
X87019774Y-94954063D01*
X86850256Y-94840795D01*
X86661898Y-94762774D01*
X86461939Y-94723000D01*
X86258061Y-94723000D01*
X86058102Y-94762774D01*
X85869744Y-94840795D01*
X85700226Y-94954063D01*
X85556063Y-95098226D01*
X85442795Y-95267744D01*
X85364774Y-95456102D01*
X85325000Y-95656061D01*
X84378000Y-95656061D01*
X84378000Y-94005061D01*
X96501000Y-94005061D01*
X96501000Y-94208939D01*
X96540774Y-94408898D01*
X96618795Y-94597256D01*
X96732063Y-94766774D01*
X96876226Y-94910937D01*
X97045744Y-95024205D01*
X97234102Y-95102226D01*
X97434061Y-95142000D01*
X97637939Y-95142000D01*
X97837898Y-95102226D01*
X98026256Y-95024205D01*
X98195774Y-94910937D01*
X98339937Y-94766774D01*
X98424603Y-94640061D01*
X98787000Y-94640061D01*
X98787000Y-94843939D01*
X98826774Y-95043898D01*
X98904795Y-95232256D01*
X99018063Y-95401774D01*
X99162226Y-95545937D01*
X99331744Y-95659205D01*
X99520102Y-95737226D01*
X99720061Y-95777000D01*
X99923939Y-95777000D01*
X100123898Y-95737226D01*
X100312256Y-95659205D01*
X100481774Y-95545937D01*
X100625937Y-95401774D01*
X100739205Y-95232256D01*
X100817226Y-95043898D01*
X100857000Y-94843939D01*
X100857000Y-94640061D01*
X100817226Y-94440102D01*
X100739205Y-94251744D01*
X100625937Y-94082226D01*
X100481774Y-93938063D01*
X100312256Y-93824795D01*
X100123898Y-93746774D01*
X99923939Y-93707000D01*
X99720061Y-93707000D01*
X99520102Y-93746774D01*
X99331744Y-93824795D01*
X99162226Y-93938063D01*
X99018063Y-94082226D01*
X98904795Y-94251744D01*
X98826774Y-94440102D01*
X98787000Y-94640061D01*
X98424603Y-94640061D01*
X98453205Y-94597256D01*
X98531226Y-94408898D01*
X98571000Y-94208939D01*
X98571000Y-94005061D01*
X98531226Y-93805102D01*
X98453205Y-93616744D01*
X98373236Y-93497061D01*
X108733000Y-93497061D01*
X108733000Y-93700939D01*
X108772774Y-93900898D01*
X108850795Y-94089256D01*
X108964063Y-94258774D01*
X109108226Y-94402937D01*
X109277744Y-94516205D01*
X109466102Y-94594226D01*
X109666061Y-94634000D01*
X109869939Y-94634000D01*
X110069898Y-94594226D01*
X110258256Y-94516205D01*
X110427774Y-94402937D01*
X110571937Y-94258774D01*
X110685205Y-94089256D01*
X110763226Y-93900898D01*
X110803000Y-93700939D01*
X110803000Y-93497061D01*
X117583000Y-93497061D01*
X117583000Y-93700939D01*
X117622774Y-93900898D01*
X117700795Y-94089256D01*
X117814063Y-94258774D01*
X117958226Y-94402937D01*
X118127744Y-94516205D01*
X118316102Y-94594226D01*
X118516061Y-94634000D01*
X118719939Y-94634000D01*
X118919898Y-94594226D01*
X119108256Y-94516205D01*
X119277774Y-94402937D01*
X119421937Y-94258774D01*
X119535205Y-94089256D01*
X119613226Y-93900898D01*
X119653000Y-93700939D01*
X119653000Y-93497061D01*
X119613226Y-93297102D01*
X119535205Y-93108744D01*
X119421937Y-92939226D01*
X119277774Y-92795063D01*
X119108256Y-92681795D01*
X118919898Y-92603774D01*
X118719939Y-92564000D01*
X118516061Y-92564000D01*
X118316102Y-92603774D01*
X118127744Y-92681795D01*
X117958226Y-92795063D01*
X117814063Y-92939226D01*
X117700795Y-93108744D01*
X117622774Y-93297102D01*
X117583000Y-93497061D01*
X110803000Y-93497061D01*
X110763226Y-93297102D01*
X110685205Y-93108744D01*
X110571937Y-92939226D01*
X110427774Y-92795063D01*
X110258256Y-92681795D01*
X110069898Y-92603774D01*
X109869939Y-92564000D01*
X109666061Y-92564000D01*
X109466102Y-92603774D01*
X109277744Y-92681795D01*
X109108226Y-92795063D01*
X108964063Y-92939226D01*
X108850795Y-93108744D01*
X108772774Y-93297102D01*
X108733000Y-93497061D01*
X98373236Y-93497061D01*
X98339937Y-93447226D01*
X98195774Y-93303063D01*
X98026256Y-93189795D01*
X97837898Y-93111774D01*
X97637939Y-93072000D01*
X97434061Y-93072000D01*
X97234102Y-93111774D01*
X97045744Y-93189795D01*
X96876226Y-93303063D01*
X96732063Y-93447226D01*
X96618795Y-93616744D01*
X96540774Y-93805102D01*
X96501000Y-94005061D01*
X84378000Y-94005061D01*
X84378000Y-86004061D01*
X98787000Y-86004061D01*
X98787000Y-86207939D01*
X98826774Y-86407898D01*
X98904795Y-86596256D01*
X99018063Y-86765774D01*
X99162226Y-86909937D01*
X99331744Y-87023205D01*
X99520102Y-87101226D01*
X99720061Y-87141000D01*
X99923939Y-87141000D01*
X100123898Y-87101226D01*
X100312256Y-87023205D01*
X100481774Y-86909937D01*
X100625937Y-86765774D01*
X100739205Y-86596256D01*
X100817226Y-86407898D01*
X100857000Y-86207939D01*
X100857000Y-86004061D01*
X100817226Y-85804102D01*
X100739205Y-85615744D01*
X100625937Y-85446226D01*
X100481774Y-85302063D01*
X100312256Y-85188795D01*
X100123898Y-85110774D01*
X99923939Y-85071000D01*
X99720061Y-85071000D01*
X99520102Y-85110774D01*
X99331744Y-85188795D01*
X99162226Y-85302063D01*
X99018063Y-85446226D01*
X98904795Y-85615744D01*
X98826774Y-85804102D01*
X98787000Y-86004061D01*
X84378000Y-86004061D01*
X84378000Y-84226061D01*
X92818000Y-84226061D01*
X92818000Y-84429939D01*
X92857774Y-84629898D01*
X92935795Y-84818256D01*
X93049063Y-84987774D01*
X93193226Y-85131937D01*
X93362744Y-85245205D01*
X93551102Y-85323226D01*
X93751061Y-85363000D01*
X93954939Y-85363000D01*
X94154898Y-85323226D01*
X94343256Y-85245205D01*
X94512774Y-85131937D01*
X94551500Y-85093211D01*
X94590226Y-85131937D01*
X94759744Y-85245205D01*
X94948102Y-85323226D01*
X95148061Y-85363000D01*
X95351939Y-85363000D01*
X95551898Y-85323226D01*
X95740256Y-85245205D01*
X95885000Y-85148490D01*
X96029744Y-85245205D01*
X96218102Y-85323226D01*
X96418061Y-85363000D01*
X96621939Y-85363000D01*
X96821898Y-85323226D01*
X97010256Y-85245205D01*
X97179774Y-85131937D01*
X97323937Y-84987774D01*
X97437205Y-84818256D01*
X97515226Y-84629898D01*
X97555000Y-84429939D01*
X97555000Y-84226061D01*
X97515226Y-84026102D01*
X97437205Y-83837744D01*
X97323937Y-83668226D01*
X97202272Y-83546561D01*
X106870500Y-83546561D01*
X106870500Y-83750439D01*
X106910274Y-83950398D01*
X106988295Y-84138756D01*
X107101563Y-84308274D01*
X107245726Y-84452437D01*
X107415244Y-84565705D01*
X107603602Y-84643726D01*
X107803561Y-84683500D01*
X108007439Y-84683500D01*
X108207398Y-84643726D01*
X108395756Y-84565705D01*
X108565274Y-84452437D01*
X108709437Y-84308274D01*
X108822705Y-84138756D01*
X108900726Y-83950398D01*
X108940500Y-83750439D01*
X108940500Y-83546561D01*
X108900726Y-83346602D01*
X108822705Y-83158244D01*
X108709437Y-82988726D01*
X108565274Y-82844563D01*
X108395756Y-82731295D01*
X108207398Y-82653274D01*
X108007439Y-82613500D01*
X107803561Y-82613500D01*
X107603602Y-82653274D01*
X107415244Y-82731295D01*
X107245726Y-82844563D01*
X107101563Y-82988726D01*
X106988295Y-83158244D01*
X106910274Y-83346602D01*
X106870500Y-83546561D01*
X97202272Y-83546561D01*
X97179774Y-83524063D01*
X97010256Y-83410795D01*
X96821898Y-83332774D01*
X96621939Y-83293000D01*
X96418061Y-83293000D01*
X96218102Y-83332774D01*
X96029744Y-83410795D01*
X95885000Y-83507510D01*
X95740256Y-83410795D01*
X95551898Y-83332774D01*
X95351939Y-83293000D01*
X95148061Y-83293000D01*
X94948102Y-83332774D01*
X94759744Y-83410795D01*
X94590226Y-83524063D01*
X94551500Y-83562789D01*
X94512774Y-83524063D01*
X94343256Y-83410795D01*
X94154898Y-83332774D01*
X93954939Y-83293000D01*
X93751061Y-83293000D01*
X93551102Y-83332774D01*
X93362744Y-83410795D01*
X93193226Y-83524063D01*
X93049063Y-83668226D01*
X92935795Y-83837744D01*
X92857774Y-84026102D01*
X92818000Y-84226061D01*
X84378000Y-84226061D01*
X84378000Y-80211560D01*
X84424068Y-80443158D01*
X84536010Y-80713411D01*
X84698525Y-80956632D01*
X84905368Y-81163475D01*
X85148589Y-81325990D01*
X85418842Y-81437932D01*
X85705740Y-81495000D01*
X85998260Y-81495000D01*
X86285158Y-81437932D01*
X86555411Y-81325990D01*
X86798632Y-81163475D01*
X87005475Y-80956632D01*
X87167990Y-80713411D01*
X87279932Y-80443158D01*
X87337000Y-80156260D01*
X87337000Y-79863740D01*
X87279932Y-79576842D01*
X87167990Y-79306589D01*
X87005475Y-79063368D01*
X86798632Y-78856525D01*
X86624240Y-78740000D01*
X86798632Y-78623475D01*
X87005475Y-78416632D01*
X87167990Y-78173411D01*
X87185946Y-78130061D01*
X93199000Y-78130061D01*
X93199000Y-78333939D01*
X93238774Y-78533898D01*
X93316795Y-78722256D01*
X93430063Y-78891774D01*
X93574226Y-79035937D01*
X93743744Y-79149205D01*
X93932102Y-79227226D01*
X94132061Y-79267000D01*
X94335939Y-79267000D01*
X94535898Y-79227226D01*
X94724256Y-79149205D01*
X94893774Y-79035937D01*
X95037937Y-78891774D01*
X95151205Y-78722256D01*
X95229226Y-78533898D01*
X95269000Y-78333939D01*
X95269000Y-78130061D01*
X95229226Y-77930102D01*
X95206842Y-77876061D01*
X98025000Y-77876061D01*
X98025000Y-78079939D01*
X98064774Y-78279898D01*
X98142795Y-78468256D01*
X98256063Y-78637774D01*
X98400226Y-78781937D01*
X98569744Y-78895205D01*
X98758102Y-78973226D01*
X98958061Y-79013000D01*
X99161939Y-79013000D01*
X99361898Y-78973226D01*
X99550256Y-78895205D01*
X99719774Y-78781937D01*
X99863937Y-78637774D01*
X99977205Y-78468256D01*
X100055226Y-78279898D01*
X100095000Y-78079939D01*
X100095000Y-78003061D01*
X104121000Y-78003061D01*
X104121000Y-78206939D01*
X104160774Y-78406898D01*
X104238795Y-78595256D01*
X104352063Y-78764774D01*
X104496226Y-78908937D01*
X104665744Y-79022205D01*
X104854102Y-79100226D01*
X105054061Y-79140000D01*
X105257939Y-79140000D01*
X105457898Y-79100226D01*
X105646256Y-79022205D01*
X105815774Y-78908937D01*
X105959937Y-78764774D01*
X106073205Y-78595256D01*
X106151226Y-78406898D01*
X106191000Y-78206939D01*
X106191000Y-78003061D01*
X106151226Y-77803102D01*
X106073205Y-77614744D01*
X105959937Y-77445226D01*
X105815774Y-77301063D01*
X105646256Y-77187795D01*
X105457898Y-77109774D01*
X105257939Y-77070000D01*
X105054061Y-77070000D01*
X104854102Y-77109774D01*
X104665744Y-77187795D01*
X104496226Y-77301063D01*
X104352063Y-77445226D01*
X104238795Y-77614744D01*
X104160774Y-77803102D01*
X104121000Y-78003061D01*
X100095000Y-78003061D01*
X100095000Y-77876061D01*
X100055226Y-77676102D01*
X99977205Y-77487744D01*
X99863937Y-77318226D01*
X99719774Y-77174063D01*
X99550256Y-77060795D01*
X99361898Y-76982774D01*
X99161939Y-76943000D01*
X98958061Y-76943000D01*
X98758102Y-76982774D01*
X98569744Y-77060795D01*
X98400226Y-77174063D01*
X98256063Y-77318226D01*
X98142795Y-77487744D01*
X98064774Y-77676102D01*
X98025000Y-77876061D01*
X95206842Y-77876061D01*
X95151205Y-77741744D01*
X95037937Y-77572226D01*
X94893774Y-77428063D01*
X94724256Y-77314795D01*
X94535898Y-77236774D01*
X94335939Y-77197000D01*
X94132061Y-77197000D01*
X93932102Y-77236774D01*
X93743744Y-77314795D01*
X93574226Y-77428063D01*
X93430063Y-77572226D01*
X93316795Y-77741744D01*
X93238774Y-77930102D01*
X93199000Y-78130061D01*
X87185946Y-78130061D01*
X87279932Y-77903158D01*
X87337000Y-77616260D01*
X87337000Y-77323740D01*
X87279932Y-77036842D01*
X87167990Y-76766589D01*
X87005475Y-76523368D01*
X86798632Y-76316525D01*
X86624240Y-76200000D01*
X86798632Y-76083475D01*
X87005475Y-75876632D01*
X87167990Y-75633411D01*
X87279932Y-75363158D01*
X87337000Y-75076260D01*
X87337000Y-74783740D01*
X87279932Y-74496842D01*
X87167990Y-74226589D01*
X87005475Y-73983368D01*
X86873620Y-73851513D01*
X86946180Y-73829502D01*
X87056494Y-73770537D01*
X87153185Y-73691185D01*
X87232537Y-73594494D01*
X87291502Y-73484180D01*
X87327812Y-73364482D01*
X87340072Y-73240000D01*
X87340072Y-71540000D01*
X87327812Y-71415518D01*
X87322820Y-71399061D01*
X99422000Y-71399061D01*
X99422000Y-71602939D01*
X99461774Y-71802898D01*
X99539795Y-71991256D01*
X99653063Y-72160774D01*
X99797226Y-72304937D01*
X99924532Y-72390000D01*
X99797226Y-72475063D01*
X99653063Y-72619226D01*
X99539795Y-72788744D01*
X99461774Y-72977102D01*
X99422000Y-73177061D01*
X99422000Y-73380939D01*
X99461774Y-73580898D01*
X99539795Y-73769256D01*
X99653063Y-73938774D01*
X99797226Y-74082937D01*
X99924532Y-74168000D01*
X99797226Y-74253063D01*
X99653063Y-74397226D01*
X99539795Y-74566744D01*
X99461774Y-74755102D01*
X99422000Y-74955061D01*
X99422000Y-75158939D01*
X99461774Y-75358898D01*
X99539795Y-75547256D01*
X99653063Y-75716774D01*
X99797226Y-75860937D01*
X99966744Y-75974205D01*
X100155102Y-76052226D01*
X100355061Y-76092000D01*
X100558939Y-76092000D01*
X100758898Y-76052226D01*
X100947256Y-75974205D01*
X101116774Y-75860937D01*
X101260937Y-75716774D01*
X101374205Y-75547256D01*
X101452226Y-75358898D01*
X101492000Y-75158939D01*
X101492000Y-74955061D01*
X101452226Y-74755102D01*
X101374205Y-74566744D01*
X101260937Y-74397226D01*
X101116774Y-74253063D01*
X100989468Y-74168000D01*
X101116774Y-74082937D01*
X101260937Y-73938774D01*
X101374205Y-73769256D01*
X101452226Y-73580898D01*
X101492000Y-73380939D01*
X101492000Y-73177061D01*
X101452226Y-72977102D01*
X101374205Y-72788744D01*
X101260937Y-72619226D01*
X101116774Y-72475063D01*
X100989468Y-72390000D01*
X101116774Y-72304937D01*
X101260937Y-72160774D01*
X101374205Y-71991256D01*
X101452226Y-71802898D01*
X101492000Y-71602939D01*
X101492000Y-71399061D01*
X101452226Y-71199102D01*
X101374205Y-71010744D01*
X101260937Y-70841226D01*
X101116774Y-70697063D01*
X100947256Y-70583795D01*
X100758898Y-70505774D01*
X100558939Y-70466000D01*
X100355061Y-70466000D01*
X100155102Y-70505774D01*
X99966744Y-70583795D01*
X99797226Y-70697063D01*
X99653063Y-70841226D01*
X99539795Y-71010744D01*
X99461774Y-71199102D01*
X99422000Y-71399061D01*
X87322820Y-71399061D01*
X87291502Y-71295820D01*
X87232537Y-71185506D01*
X87153185Y-71088815D01*
X87056494Y-71009463D01*
X86946180Y-70950498D01*
X86826482Y-70914188D01*
X86702000Y-70901928D01*
X85002000Y-70901928D01*
X84877518Y-70914188D01*
X84757820Y-70950498D01*
X84647506Y-71009463D01*
X84550815Y-71088815D01*
X84471463Y-71185506D01*
X84412498Y-71295820D01*
X84378000Y-71409545D01*
X84378000Y-69113061D01*
X94215000Y-69113061D01*
X94215000Y-69316939D01*
X94254774Y-69516898D01*
X94332795Y-69705256D01*
X94446063Y-69874774D01*
X94590226Y-70018937D01*
X94759744Y-70132205D01*
X94948102Y-70210226D01*
X95148061Y-70250000D01*
X95351939Y-70250000D01*
X95551898Y-70210226D01*
X95740256Y-70132205D01*
X95909774Y-70018937D01*
X96053937Y-69874774D01*
X96167205Y-69705256D01*
X96245226Y-69516898D01*
X96285000Y-69316939D01*
X96285000Y-69113061D01*
X99041000Y-69113061D01*
X99041000Y-69316939D01*
X99080774Y-69516898D01*
X99158795Y-69705256D01*
X99272063Y-69874774D01*
X99416226Y-70018937D01*
X99585744Y-70132205D01*
X99774102Y-70210226D01*
X99974061Y-70250000D01*
X100177939Y-70250000D01*
X100377898Y-70210226D01*
X100512284Y-70154561D01*
X102495500Y-70154561D01*
X102495500Y-70358439D01*
X102535274Y-70558398D01*
X102613295Y-70746756D01*
X102726563Y-70916274D01*
X102870726Y-71060437D01*
X103040244Y-71173705D01*
X103228602Y-71251726D01*
X103428561Y-71291500D01*
X103632439Y-71291500D01*
X103832398Y-71251726D01*
X104020756Y-71173705D01*
X104190274Y-71060437D01*
X104334437Y-70916274D01*
X104447705Y-70746756D01*
X104525726Y-70558398D01*
X104565500Y-70358439D01*
X104565500Y-70154561D01*
X104545006Y-70051531D01*
X104665744Y-70132205D01*
X104854102Y-70210226D01*
X105054061Y-70250000D01*
X105257939Y-70250000D01*
X105457898Y-70210226D01*
X105646256Y-70132205D01*
X105815774Y-70018937D01*
X105959937Y-69874774D01*
X106073205Y-69705256D01*
X106151226Y-69516898D01*
X106191000Y-69316939D01*
X106191000Y-69113061D01*
X106151226Y-68913102D01*
X106073205Y-68724744D01*
X105959937Y-68555226D01*
X105815774Y-68411063D01*
X105646256Y-68297795D01*
X105457898Y-68219774D01*
X105257939Y-68180000D01*
X105054061Y-68180000D01*
X104854102Y-68219774D01*
X104665744Y-68297795D01*
X104496226Y-68411063D01*
X104352063Y-68555226D01*
X104238795Y-68724744D01*
X104160774Y-68913102D01*
X104121000Y-69113061D01*
X104121000Y-69316939D01*
X104141494Y-69419969D01*
X104020756Y-69339295D01*
X103832398Y-69261274D01*
X103632439Y-69221500D01*
X103428561Y-69221500D01*
X103228602Y-69261274D01*
X103040244Y-69339295D01*
X102870726Y-69452563D01*
X102726563Y-69596726D01*
X102613295Y-69766244D01*
X102535274Y-69954602D01*
X102495500Y-70154561D01*
X100512284Y-70154561D01*
X100566256Y-70132205D01*
X100735774Y-70018937D01*
X100879937Y-69874774D01*
X100993205Y-69705256D01*
X101071226Y-69516898D01*
X101111000Y-69316939D01*
X101111000Y-69113061D01*
X101071226Y-68913102D01*
X100993205Y-68724744D01*
X100879937Y-68555226D01*
X100735774Y-68411063D01*
X100566256Y-68297795D01*
X100377898Y-68219774D01*
X100177939Y-68180000D01*
X99974061Y-68180000D01*
X99774102Y-68219774D01*
X99585744Y-68297795D01*
X99416226Y-68411063D01*
X99272063Y-68555226D01*
X99158795Y-68724744D01*
X99080774Y-68913102D01*
X99041000Y-69113061D01*
X96285000Y-69113061D01*
X96245226Y-68913102D01*
X96167205Y-68724744D01*
X96053937Y-68555226D01*
X95909774Y-68411063D01*
X95740256Y-68297795D01*
X95551898Y-68219774D01*
X95351939Y-68180000D01*
X95148061Y-68180000D01*
X94948102Y-68219774D01*
X94759744Y-68297795D01*
X94590226Y-68411063D01*
X94446063Y-68555226D01*
X94332795Y-68724744D01*
X94254774Y-68913102D01*
X94215000Y-69113061D01*
X84378000Y-69113061D01*
X84378000Y-67634000D01*
X122138709Y-67634000D01*
X122138709Y-70034000D01*
X122179776Y-70450965D01*
X122301401Y-70851906D01*
X122498907Y-71221415D01*
X122764707Y-71545293D01*
X123088585Y-71811093D01*
X123458094Y-72008599D01*
X123859035Y-72130224D01*
X124276000Y-72171291D01*
X126676000Y-72171291D01*
X127092965Y-72130224D01*
X127493906Y-72008599D01*
X127863415Y-71811093D01*
X128187293Y-71545293D01*
X128453093Y-71221415D01*
X128650599Y-70851906D01*
X128772224Y-70450965D01*
X128813291Y-70034000D01*
X128813291Y-67751509D01*
X132912000Y-67751509D01*
X132912000Y-69092492D01*
X132932764Y-69303309D01*
X133014818Y-69573808D01*
X133148069Y-69823101D01*
X133327393Y-70041608D01*
X133545900Y-70220932D01*
X133795193Y-70354182D01*
X134065692Y-70436236D01*
X134347000Y-70463943D01*
X134628309Y-70436236D01*
X134898808Y-70354182D01*
X135148101Y-70220932D01*
X135366608Y-70041608D01*
X135545932Y-69823101D01*
X135679182Y-69573808D01*
X135761236Y-69303309D01*
X135782000Y-69092492D01*
X135782000Y-67751508D01*
X135761236Y-67540691D01*
X135679182Y-67270192D01*
X135545932Y-67020899D01*
X135366607Y-66802392D01*
X135148100Y-66623068D01*
X134898807Y-66489818D01*
X134628308Y-66407764D01*
X134347000Y-66380057D01*
X134065691Y-66407764D01*
X133795192Y-66489818D01*
X133545899Y-66623068D01*
X133327392Y-66802393D01*
X133148068Y-67020900D01*
X133014818Y-67270193D01*
X132932764Y-67540692D01*
X132912000Y-67751509D01*
X128813291Y-67751509D01*
X128813291Y-67634000D01*
X128772224Y-67217035D01*
X128650599Y-66816094D01*
X128453093Y-66446585D01*
X128187293Y-66122707D01*
X127863415Y-65856907D01*
X127493906Y-65659401D01*
X127092965Y-65537776D01*
X126676000Y-65496709D01*
X124276000Y-65496709D01*
X123859035Y-65537776D01*
X123458094Y-65659401D01*
X123088585Y-65856907D01*
X122764707Y-66122707D01*
X122498907Y-66446585D01*
X122301401Y-66816094D01*
X122179776Y-67217035D01*
X122138709Y-67634000D01*
X84378000Y-67634000D01*
X84378000Y-64165505D01*
X84450139Y-63357197D01*
X84656197Y-62603977D01*
X84943773Y-62001061D01*
X102597000Y-62001061D01*
X102597000Y-62204939D01*
X102636774Y-62404898D01*
X102714795Y-62593256D01*
X102828063Y-62762774D01*
X102972226Y-62906937D01*
X103141744Y-63020205D01*
X103330102Y-63098226D01*
X103530061Y-63138000D01*
X103733939Y-63138000D01*
X103933898Y-63098226D01*
X104122256Y-63020205D01*
X104291774Y-62906937D01*
X104435937Y-62762774D01*
X104549205Y-62593256D01*
X104627226Y-62404898D01*
X104667000Y-62204939D01*
X104667000Y-62001061D01*
X104627226Y-61801102D01*
X104549205Y-61612744D01*
X104435937Y-61443226D01*
X104291774Y-61299063D01*
X104122256Y-61185795D01*
X103933898Y-61107774D01*
X103733939Y-61068000D01*
X103530061Y-61068000D01*
X103330102Y-61107774D01*
X103141744Y-61185795D01*
X102972226Y-61299063D01*
X102828063Y-61443226D01*
X102714795Y-61612744D01*
X102636774Y-61801102D01*
X102597000Y-62001061D01*
X84943773Y-62001061D01*
X84992384Y-61899148D01*
X85448065Y-61264998D01*
X86008851Y-60721559D01*
X86657001Y-60286019D01*
X87372043Y-59972138D01*
X88136636Y-59788576D01*
X88798112Y-59740000D01*
X136877063Y-59740000D01*
X136934722Y-59847754D01*
M02*
