G04 #@! TF.GenerationSoftware,KiCad,Pcbnew,(5.1.5)-3*
G04 #@! TF.CreationDate,2020-12-06T21:02:03-03:00*
G04 #@! TF.ProjectId,InversorPMSM,496e7665-7273-46f7-9250-4d534d2e6b69,rev?*
G04 #@! TF.SameCoordinates,Original*
G04 #@! TF.FileFunction,Copper,L4,Bot*
G04 #@! TF.FilePolarity,Positive*
%FSLAX46Y46*%
G04 Gerber Fmt 4.6, Leading zero omitted, Abs format (unit mm)*
G04 Created by KiCad (PCBNEW (5.1.5)-3) date 2020-12-06 21:02:03*
%MOMM*%
%LPD*%
G04 APERTURE LIST*
%ADD10O,1.600000X2.800000*%
%ADD11C,2.200000*%
%ADD12C,0.150000*%
%ADD13C,2.400000*%
%ADD14R,2.400000X2.400000*%
%ADD15O,1.700000X1.700000*%
%ADD16R,1.700000X1.700000*%
%ADD17C,0.800000*%
%ADD18C,7.500000*%
%ADD19C,6.400000*%
%ADD20O,1.727200X1.727200*%
%ADD21R,1.727200X1.727200*%
%ADD22O,2.000000X4.500000*%
%ADD23O,2.500000X4.500000*%
%ADD24C,2.500000*%
%ADD25C,0.250000*%
%ADD26C,0.254000*%
G04 APERTURE END LIST*
D10*
X147847000Y-68422000D03*
X134347000Y-68422000D03*
D11*
X138557000Y-71247000D03*
X143637000Y-71247000D03*
G04 #@! TA.AperFunction,ComponentPad*
D12*
G36*
X139606755Y-66943461D02*
G01*
X139616134Y-66946306D01*
X139624779Y-66950927D01*
X139632355Y-66957145D01*
X139638573Y-66964721D01*
X139643194Y-66973366D01*
X139646039Y-66982745D01*
X139647000Y-66992500D01*
X139647000Y-71247000D01*
X139646280Y-71254304D01*
X139648974Y-71261058D01*
X139650760Y-71270695D01*
X139650880Y-71277399D01*
X139495940Y-74424459D01*
X139494591Y-74433541D01*
X139494591Y-74520135D01*
X139475353Y-74715461D01*
X139437063Y-74907960D01*
X139380088Y-75095780D01*
X139304979Y-75277110D01*
X139212457Y-75450205D01*
X139103415Y-75613399D01*
X138978902Y-75765118D01*
X138840118Y-75903902D01*
X138688399Y-76028415D01*
X138525205Y-76137457D01*
X138352110Y-76229979D01*
X138170780Y-76305088D01*
X137982960Y-76362063D01*
X137790461Y-76400353D01*
X137595135Y-76419591D01*
X137398865Y-76419591D01*
X137203539Y-76400353D01*
X137011040Y-76362063D01*
X136823220Y-76305088D01*
X136641890Y-76229979D01*
X136468795Y-76137457D01*
X136305601Y-76028415D01*
X136153882Y-75903902D01*
X136015098Y-75765118D01*
X135890585Y-75613399D01*
X135781543Y-75450205D01*
X135689021Y-75277110D01*
X135613912Y-75095780D01*
X135556937Y-74907960D01*
X135518647Y-74715461D01*
X135499409Y-74520135D01*
X135499409Y-74323865D01*
X135518647Y-74128539D01*
X135556937Y-73936040D01*
X135613912Y-73748220D01*
X135689021Y-73566890D01*
X135715688Y-73517000D01*
X135715833Y-73516408D01*
X135721546Y-73505043D01*
X135724116Y-73501232D01*
X135781543Y-73393795D01*
X135890585Y-73230601D01*
X135980640Y-73120869D01*
X137563046Y-70774543D01*
X137569297Y-70766993D01*
X137576901Y-70760807D01*
X137588689Y-70755066D01*
X137664860Y-70729676D01*
X137664860Y-66992500D01*
X137665821Y-66982745D01*
X137668666Y-66973366D01*
X137673287Y-66964721D01*
X137679505Y-66957145D01*
X137687081Y-66950927D01*
X137695726Y-66946306D01*
X137705105Y-66943461D01*
X137714860Y-66942500D01*
X139597000Y-66942500D01*
X139606755Y-66943461D01*
G37*
G04 #@! TD.AperFunction*
G04 #@! TA.AperFunction,ComponentPad*
G36*
X144472255Y-66943461D02*
G01*
X144481634Y-66946306D01*
X144490279Y-66950927D01*
X144497855Y-66957145D01*
X144504073Y-66964721D01*
X144508694Y-66973366D01*
X144511539Y-66982745D01*
X144512500Y-66992500D01*
X144512500Y-70616432D01*
X144531195Y-70632975D01*
X144539543Y-70642506D01*
X146179298Y-73079365D01*
X146303415Y-73230601D01*
X146412457Y-73393795D01*
X146504979Y-73566890D01*
X146580088Y-73748220D01*
X146637063Y-73936040D01*
X146675353Y-74128539D01*
X146694591Y-74323865D01*
X146694591Y-74520135D01*
X146675353Y-74715461D01*
X146637063Y-74907960D01*
X146580088Y-75095780D01*
X146504979Y-75277110D01*
X146412457Y-75450205D01*
X146303415Y-75613399D01*
X146178902Y-75765118D01*
X146040118Y-75903902D01*
X145888399Y-76028415D01*
X145725205Y-76137457D01*
X145552110Y-76229979D01*
X145370780Y-76305088D01*
X145182960Y-76362063D01*
X144990461Y-76400353D01*
X144795135Y-76419591D01*
X144598865Y-76419591D01*
X144403539Y-76400353D01*
X144211040Y-76362063D01*
X144023220Y-76305088D01*
X143841890Y-76229979D01*
X143668795Y-76137457D01*
X143505601Y-76028415D01*
X143353882Y-75903902D01*
X143215098Y-75765118D01*
X143090585Y-75613399D01*
X142981543Y-75450205D01*
X142889021Y-75277110D01*
X142813912Y-75095780D01*
X142756937Y-74907960D01*
X142718647Y-74715461D01*
X142704661Y-74573463D01*
X142701931Y-74568434D01*
X142699025Y-74559073D01*
X142698058Y-74551411D01*
X142539944Y-71276188D01*
X142538787Y-71274779D01*
X142534166Y-71266134D01*
X142531321Y-71256755D01*
X142530360Y-71247000D01*
X142530360Y-66992500D01*
X142531321Y-66982745D01*
X142534166Y-66973366D01*
X142538787Y-66964721D01*
X142545005Y-66957145D01*
X142552581Y-66950927D01*
X142561226Y-66946306D01*
X142570605Y-66943461D01*
X142580360Y-66942500D01*
X144462500Y-66942500D01*
X144472255Y-66943461D01*
G37*
G04 #@! TD.AperFunction*
D13*
X137280000Y-68834000D03*
D14*
X144780000Y-68834000D03*
D15*
X85852000Y-139700000D03*
X85852000Y-137160000D03*
X85852000Y-134620000D03*
X85852000Y-132080000D03*
X85852000Y-129540000D03*
X85852000Y-127000000D03*
X85852000Y-124460000D03*
X85852000Y-121920000D03*
X85852000Y-119380000D03*
X85852000Y-116840000D03*
X85852000Y-114300000D03*
X85852000Y-111760000D03*
D16*
X85852000Y-109220000D03*
D17*
X211836000Y-61595000D03*
X209931000Y-60706000D03*
X208026000Y-61595000D03*
X207264000Y-63500000D03*
X208026000Y-65405000D03*
X209931000Y-66294000D03*
X211836000Y-65405000D03*
X212725000Y-63500000D03*
D18*
X209931000Y-63500000D03*
D17*
X201295000Y-61595000D03*
X199390000Y-60706000D03*
X197485000Y-61595000D03*
X196723000Y-63500000D03*
X197485000Y-65405000D03*
X199390000Y-66294000D03*
X201295000Y-65405000D03*
X202184000Y-63500000D03*
D18*
X199390000Y-63500000D03*
D17*
X174117000Y-61595000D03*
X172212000Y-60706000D03*
X170307000Y-61595000D03*
X169545000Y-63500000D03*
X170307000Y-65405000D03*
X172212000Y-66294000D03*
X174117000Y-65405000D03*
X175006000Y-63500000D03*
D18*
X172212000Y-63500000D03*
D17*
X190627000Y-61595000D03*
X188722000Y-60706000D03*
X186817000Y-61595000D03*
X186055000Y-63500000D03*
X186817000Y-65405000D03*
X188722000Y-66294000D03*
X190627000Y-65405000D03*
X191516000Y-63500000D03*
D18*
X188722000Y-63500000D03*
D17*
X162052000Y-61595000D03*
X160147000Y-60706000D03*
X158242000Y-61595000D03*
X157480000Y-63500000D03*
X158242000Y-65405000D03*
X160147000Y-66294000D03*
X162052000Y-65405000D03*
X162941000Y-63500000D03*
D18*
X160147000Y-63500000D03*
D14*
X125476000Y-68834000D03*
D13*
X117976000Y-68834000D03*
D15*
X85852000Y-82550000D03*
X85852000Y-80010000D03*
X85852000Y-77470000D03*
X85852000Y-74930000D03*
D16*
X85852000Y-72390000D03*
D17*
X90470056Y-149305944D03*
X88773000Y-148603000D03*
X87075944Y-149305944D03*
X86373000Y-151003000D03*
X87075944Y-152700056D03*
X88773000Y-153403000D03*
X90470056Y-152700056D03*
X91173000Y-151003000D03*
D19*
X88773000Y-151003000D03*
D17*
X90470056Y-62437944D03*
X88773000Y-61735000D03*
X87075944Y-62437944D03*
X86373000Y-64135000D03*
X87075944Y-65832056D03*
X88773000Y-66535000D03*
X90470056Y-65832056D03*
X91173000Y-64135000D03*
D19*
X88773000Y-64135000D03*
D17*
X230297056Y-62437944D03*
X228600000Y-61735000D03*
X226902944Y-62437944D03*
X226200000Y-64135000D03*
X226902944Y-65832056D03*
X228600000Y-66535000D03*
X230297056Y-65832056D03*
X231000000Y-64135000D03*
D19*
X228600000Y-64135000D03*
D17*
X230297056Y-149305944D03*
X228600000Y-148603000D03*
X226902944Y-149305944D03*
X226200000Y-151003000D03*
X226902944Y-152700056D03*
X228600000Y-153403000D03*
X230297056Y-152700056D03*
X231000000Y-151003000D03*
D19*
X228600000Y-151003000D03*
D20*
X97663000Y-139700000D03*
X95123000Y-139700000D03*
X97663000Y-137160000D03*
X95123000Y-137160000D03*
X97663000Y-134620000D03*
X95123000Y-134620000D03*
X97663000Y-132080000D03*
X95123000Y-132080000D03*
X97663000Y-129540000D03*
X95123000Y-129540000D03*
X97663000Y-127000000D03*
X95123000Y-127000000D03*
X97663000Y-124460000D03*
X95123000Y-124460000D03*
X97663000Y-121920000D03*
X95123000Y-121920000D03*
X97663000Y-119380000D03*
X95123000Y-119380000D03*
X97663000Y-116840000D03*
X95123000Y-116840000D03*
X97663000Y-114300000D03*
X95123000Y-114300000D03*
X97663000Y-111760000D03*
X95123000Y-111760000D03*
X97663000Y-109220000D03*
D21*
X95123000Y-109220000D03*
D22*
X216989000Y-143811500D03*
X211509000Y-143811500D03*
D23*
X208788000Y-143811500D03*
D22*
X214238000Y-143811500D03*
D23*
X219688000Y-143811500D03*
D22*
X216989000Y-107616500D03*
X211509000Y-107616500D03*
D23*
X208788000Y-107616500D03*
D22*
X214238000Y-107616500D03*
D23*
X219688000Y-107616500D03*
D22*
X187779000Y-143811500D03*
X182299000Y-143811500D03*
D23*
X179578000Y-143811500D03*
D22*
X185028000Y-143811500D03*
D23*
X190478000Y-143811500D03*
D22*
X187779000Y-107616500D03*
X182299000Y-107616500D03*
D23*
X179578000Y-107616500D03*
D22*
X185028000Y-107616500D03*
D23*
X190478000Y-107616500D03*
D22*
X158569000Y-143811500D03*
X153089000Y-143811500D03*
D23*
X150368000Y-143811500D03*
D22*
X155818000Y-143811500D03*
D23*
X161268000Y-143811500D03*
D22*
X158569000Y-107616500D03*
X153089000Y-107616500D03*
D23*
X150368000Y-107616500D03*
D22*
X155818000Y-107616500D03*
D23*
X161268000Y-107616500D03*
D17*
X125603000Y-137668000D03*
X115380000Y-128397000D03*
X127000000Y-106680000D03*
X115284500Y-130905500D03*
X127000000Y-111760000D03*
X115316000Y-133287000D03*
X127000000Y-116840000D03*
X158877000Y-97028000D03*
X157353000Y-97028000D03*
X155829000Y-97028000D03*
X154305000Y-97028000D03*
X149733000Y-97028000D03*
X152781000Y-97028000D03*
X151257000Y-97028000D03*
X160401000Y-97028000D03*
X161925000Y-97028000D03*
X152781000Y-95504000D03*
X155829000Y-95504000D03*
X157353000Y-95504000D03*
X158877000Y-95504000D03*
X151257000Y-95504000D03*
X149733000Y-95504000D03*
X154305000Y-95504000D03*
X160401000Y-95504000D03*
X161925000Y-95504000D03*
X152781000Y-93980000D03*
X157353000Y-93980000D03*
X158877000Y-93980000D03*
X151257000Y-93980000D03*
X161925000Y-93980000D03*
X154305000Y-93980000D03*
X155829000Y-93980000D03*
X160401000Y-93980000D03*
X149733000Y-93980000D03*
X157353000Y-92456000D03*
X155829000Y-92456000D03*
X154305000Y-92456000D03*
X160401000Y-92456000D03*
X158877000Y-92456000D03*
X152781000Y-92456000D03*
X161925000Y-92456000D03*
X151257000Y-92456000D03*
X149733000Y-92456000D03*
X152781000Y-90932000D03*
X161925000Y-90932000D03*
X160401000Y-90932000D03*
X155829000Y-90932000D03*
X149733000Y-90932000D03*
X151257000Y-90932000D03*
X157353000Y-90932000D03*
X158877000Y-90932000D03*
X154305000Y-90932000D03*
X151257000Y-89408000D03*
X154305000Y-89408000D03*
X155829000Y-89408000D03*
X157353000Y-89408000D03*
X149733000Y-89408000D03*
X158877000Y-89408000D03*
X160401000Y-89408000D03*
X161925000Y-89408000D03*
X152781000Y-89408000D03*
X161925000Y-87884000D03*
X158877000Y-87884000D03*
X152781000Y-87884000D03*
X149733000Y-87884000D03*
X151257000Y-87884000D03*
X160401000Y-87884000D03*
X152781000Y-86360000D03*
X151257000Y-86360000D03*
X149733000Y-86360000D03*
X161925000Y-86360000D03*
X158877000Y-86360000D03*
X160401000Y-86360000D03*
X149733000Y-84836000D03*
X151257000Y-84836000D03*
X158877000Y-84836000D03*
X161925000Y-84836000D03*
X160401000Y-84836000D03*
X152781000Y-84836000D03*
X158877000Y-83312000D03*
X152781000Y-83312000D03*
X149733000Y-83312000D03*
X160401000Y-83312000D03*
X151257000Y-83312000D03*
X161925000Y-83312000D03*
X157353000Y-83312000D03*
X154305000Y-83312000D03*
X155829000Y-83312000D03*
X158877000Y-81788000D03*
X152781000Y-81788000D03*
X154305000Y-81788000D03*
X149733000Y-81788000D03*
X160401000Y-81788000D03*
X151257000Y-81788000D03*
X155829000Y-81788000D03*
X157353000Y-81788000D03*
X161925000Y-81788000D03*
X181991000Y-97028000D03*
X185039000Y-97028000D03*
X186563000Y-97028000D03*
X188087000Y-97028000D03*
X180467000Y-97028000D03*
X178943000Y-97028000D03*
X183515000Y-97028000D03*
X189611000Y-97028000D03*
X191135000Y-97028000D03*
X181991000Y-95504000D03*
X186563000Y-95504000D03*
X186563000Y-93980000D03*
X185039000Y-93980000D03*
X188087000Y-95504000D03*
X183515000Y-93980000D03*
X189611000Y-93980000D03*
X188087000Y-93980000D03*
X181991000Y-93980000D03*
X180467000Y-95504000D03*
X191135000Y-95504000D03*
X183515000Y-95504000D03*
X191135000Y-93980000D03*
X180467000Y-93980000D03*
X185039000Y-95504000D03*
X178943000Y-93980000D03*
X189611000Y-95504000D03*
X178943000Y-95504000D03*
X191135000Y-89408000D03*
X181991000Y-92456000D03*
X186563000Y-89408000D03*
X188087000Y-89408000D03*
X180467000Y-90932000D03*
X183515000Y-90932000D03*
X191135000Y-92456000D03*
X185039000Y-90932000D03*
X181991000Y-89408000D03*
X189611000Y-92456000D03*
X186563000Y-90932000D03*
X183515000Y-89408000D03*
X178943000Y-89408000D03*
X178943000Y-90932000D03*
X188087000Y-90932000D03*
X185039000Y-92456000D03*
X180467000Y-89408000D03*
X189611000Y-89408000D03*
X185039000Y-89408000D03*
X178943000Y-92456000D03*
X180467000Y-92456000D03*
X189611000Y-90932000D03*
X191135000Y-90932000D03*
X186563000Y-92456000D03*
X181991000Y-90932000D03*
X188087000Y-92456000D03*
X183515000Y-92456000D03*
X188087000Y-84836000D03*
X188087000Y-83312000D03*
X178943000Y-86360000D03*
X181991000Y-87884000D03*
X181991000Y-84836000D03*
X181991000Y-83312000D03*
X178943000Y-84836000D03*
X183515000Y-83312000D03*
X178943000Y-83312000D03*
X189611000Y-83312000D03*
X180467000Y-87884000D03*
X180467000Y-83312000D03*
X178943000Y-87884000D03*
X185039000Y-83312000D03*
X191135000Y-87884000D03*
X180467000Y-86360000D03*
X189611000Y-84836000D03*
X180467000Y-84836000D03*
X186563000Y-83312000D03*
X188087000Y-86360000D03*
X188087000Y-87884000D03*
X191135000Y-84836000D03*
X191135000Y-86360000D03*
X189611000Y-86360000D03*
X191135000Y-83312000D03*
X181991000Y-86360000D03*
X189611000Y-87884000D03*
X185039000Y-81788000D03*
X186563000Y-81788000D03*
X178943000Y-81788000D03*
X183515000Y-81788000D03*
X189611000Y-81788000D03*
X180467000Y-81788000D03*
X188087000Y-81788000D03*
X181991000Y-81788000D03*
X191135000Y-81788000D03*
X211201000Y-97028000D03*
X214249000Y-97028000D03*
X215773000Y-97028000D03*
X217297000Y-97028000D03*
X209677000Y-97028000D03*
X208153000Y-97028000D03*
X212725000Y-97028000D03*
X218821000Y-97028000D03*
X220345000Y-97028000D03*
X211201000Y-95504000D03*
X215773000Y-95504000D03*
X215773000Y-93980000D03*
X214249000Y-93980000D03*
X217297000Y-95504000D03*
X212725000Y-93980000D03*
X218821000Y-93980000D03*
X217297000Y-93980000D03*
X211201000Y-93980000D03*
X209677000Y-95504000D03*
X220345000Y-95504000D03*
X212725000Y-95504000D03*
X220345000Y-93980000D03*
X209677000Y-93980000D03*
X214249000Y-95504000D03*
X208153000Y-93980000D03*
X218821000Y-95504000D03*
X208153000Y-95504000D03*
X220345000Y-89408000D03*
X211201000Y-92456000D03*
X215773000Y-89408000D03*
X217297000Y-89408000D03*
X209677000Y-90932000D03*
X212725000Y-90932000D03*
X220345000Y-92456000D03*
X214249000Y-90932000D03*
X211201000Y-89408000D03*
X218821000Y-92456000D03*
X215773000Y-90932000D03*
X212725000Y-89408000D03*
X208153000Y-89408000D03*
X208153000Y-90932000D03*
X217297000Y-90932000D03*
X214249000Y-92456000D03*
X209677000Y-89408000D03*
X218821000Y-89408000D03*
X214249000Y-89408000D03*
X208153000Y-92456000D03*
X209677000Y-92456000D03*
X218821000Y-90932000D03*
X220345000Y-90932000D03*
X215773000Y-92456000D03*
X211201000Y-90932000D03*
X217297000Y-92456000D03*
X212725000Y-92456000D03*
X217297000Y-84836000D03*
X217297000Y-83312000D03*
X208153000Y-86360000D03*
X211201000Y-87884000D03*
X211201000Y-84836000D03*
X211201000Y-83312000D03*
X208153000Y-84836000D03*
X212725000Y-83312000D03*
X208153000Y-83312000D03*
X218821000Y-83312000D03*
X209677000Y-87884000D03*
X209677000Y-83312000D03*
X208153000Y-87884000D03*
X214249000Y-83312000D03*
X220345000Y-87884000D03*
X209677000Y-86360000D03*
X218821000Y-84836000D03*
X209677000Y-84836000D03*
X215773000Y-83312000D03*
X217297000Y-86360000D03*
X217297000Y-87884000D03*
X220345000Y-84836000D03*
X220345000Y-86360000D03*
X218821000Y-86360000D03*
X220345000Y-83312000D03*
X211201000Y-86360000D03*
X218821000Y-87884000D03*
X214249000Y-81788000D03*
X215773000Y-81788000D03*
X208153000Y-81788000D03*
X212725000Y-81788000D03*
X218821000Y-81788000D03*
X209677000Y-81788000D03*
X217297000Y-81788000D03*
X211201000Y-81788000D03*
X220345000Y-81788000D03*
X170053000Y-140970000D03*
X199263000Y-140970000D03*
X228473000Y-140970000D03*
X170053000Y-130810000D03*
X170053000Y-128270000D03*
X199263000Y-128270000D03*
X228473000Y-128270000D03*
X228473000Y-130810000D03*
D24*
X199263000Y-126238000D03*
X170053000Y-126238000D03*
X228473000Y-126238000D03*
D17*
X123571000Y-136906000D03*
X127508000Y-154051000D03*
X127508000Y-146812000D03*
X127508000Y-152527000D03*
X126746000Y-149352000D03*
X212725000Y-131572000D03*
X211201000Y-131572000D03*
X214249000Y-131572000D03*
X215773000Y-131572000D03*
X218821000Y-131572000D03*
X209677000Y-131572000D03*
X217297000Y-131572000D03*
X220472000Y-131572000D03*
X208026000Y-131572000D03*
X217297000Y-119380000D03*
X211201000Y-119380000D03*
X218821000Y-119380000D03*
X208026000Y-119380000D03*
X209677000Y-119380000D03*
X220472000Y-119380000D03*
X218821000Y-117856000D03*
X217297000Y-117856000D03*
X211201000Y-117856000D03*
X209677000Y-117856000D03*
X208026000Y-117856000D03*
X220472000Y-117856000D03*
X209677000Y-133096000D03*
X217297000Y-133096000D03*
X208026000Y-133096000D03*
X218821000Y-133096000D03*
X220472000Y-133096000D03*
X212725000Y-133096000D03*
X214249000Y-133096000D03*
X211201000Y-133096000D03*
X215773000Y-133096000D03*
X211201000Y-130048000D03*
X212725000Y-130048000D03*
X215773000Y-130048000D03*
X214249000Y-130048000D03*
X220472000Y-130048000D03*
X217297000Y-130048000D03*
X209677000Y-130048000D03*
X208026000Y-130048000D03*
X218821000Y-130048000D03*
X209677000Y-128524000D03*
X217297000Y-128524000D03*
X220472000Y-128524000D03*
X208026000Y-128524000D03*
X211201000Y-128524000D03*
X218821000Y-128524000D03*
X212725000Y-128524000D03*
X215773000Y-128524000D03*
X214249000Y-128524000D03*
X217297000Y-127000000D03*
X214249000Y-127000000D03*
X211201000Y-127000000D03*
X212725000Y-127000000D03*
X208026000Y-127000000D03*
X220472000Y-127000000D03*
X215773000Y-127000000D03*
X218821000Y-127000000D03*
X209677000Y-127000000D03*
X215773000Y-125476000D03*
X211201000Y-125476000D03*
X208026000Y-125476000D03*
X218821000Y-125476000D03*
X209677000Y-125476000D03*
X217297000Y-125476000D03*
X220472000Y-125476000D03*
X214249000Y-125476000D03*
X212725000Y-125476000D03*
X208026000Y-123952000D03*
X211201000Y-123952000D03*
X218821000Y-123952000D03*
X217297000Y-123952000D03*
X209677000Y-123952000D03*
X220472000Y-123952000D03*
X208026000Y-122428000D03*
X217297000Y-122428000D03*
X209677000Y-122428000D03*
X117094000Y-96520000D03*
X126110992Y-96520000D03*
X107442000Y-96520000D03*
X86360000Y-87884000D03*
X198374000Y-108077000D03*
X130810000Y-85979000D03*
X140462000Y-82169000D03*
X145542000Y-83439000D03*
X141732000Y-84709000D03*
X143002000Y-82169000D03*
X144272000Y-83439000D03*
X141732000Y-83439000D03*
X140462000Y-85979000D03*
X141732000Y-82169000D03*
X144272000Y-85979000D03*
X145542000Y-82169000D03*
X145542000Y-85979000D03*
X144272000Y-82169000D03*
X145542000Y-84709000D03*
X143002000Y-85979000D03*
X143002000Y-84709000D03*
X141732000Y-85979000D03*
X140462000Y-83439000D03*
X140462000Y-84709000D03*
X144272000Y-84709000D03*
X143002000Y-83439000D03*
X140462000Y-80899000D03*
X141732000Y-80899000D03*
X144272000Y-80899000D03*
X143002000Y-80899000D03*
X145542000Y-80899000D03*
X107416500Y-143027500D03*
X100584000Y-153289000D03*
X97917000Y-69215000D03*
X118364000Y-79248000D03*
X117856000Y-107950000D03*
X109634952Y-107856952D03*
X110109000Y-110617000D03*
X117856000Y-109220000D03*
X110109000Y-112903000D03*
X117856000Y-110490000D03*
X110109000Y-115189000D03*
X117856000Y-111760000D03*
X110109000Y-117475000D03*
X117856000Y-113030000D03*
X110109000Y-119761000D03*
X117856000Y-114300000D03*
X107905500Y-83648500D03*
X107583000Y-149620000D03*
X94234000Y-78232000D03*
X99060000Y-77978000D03*
X103632000Y-62103000D03*
X109768000Y-93599000D03*
X99822000Y-94742000D03*
X112776000Y-148209000D03*
X93472000Y-148209000D03*
X118618000Y-93599000D03*
X103530500Y-70256500D03*
X110109000Y-127381000D03*
X135001000Y-143510000D03*
X129159000Y-138938000D03*
X130683000Y-127381000D03*
X114554000Y-136906000D03*
X128778000Y-131826000D03*
X114554000Y-138938000D03*
X117348000Y-147066000D03*
X220472000Y-122428000D03*
X211201000Y-122428000D03*
X218821000Y-122428000D03*
X211201000Y-120904000D03*
X217297000Y-120904000D03*
X220472000Y-120904000D03*
X209677000Y-120904000D03*
X218821000Y-120904000D03*
X208026000Y-120904000D03*
X181991000Y-131572000D03*
X186563000Y-131572000D03*
X188087000Y-131572000D03*
X180467000Y-131572000D03*
X191135000Y-131572000D03*
X183515000Y-131572000D03*
X185039000Y-131572000D03*
X189611000Y-131572000D03*
X178943000Y-131572000D03*
X188087000Y-119380000D03*
X181991000Y-119380000D03*
X183515000Y-119380000D03*
X178943000Y-119380000D03*
X189611000Y-119380000D03*
X180467000Y-119380000D03*
X185039000Y-119380000D03*
X186563000Y-119380000D03*
X191135000Y-119380000D03*
X185039000Y-117856000D03*
X186563000Y-117856000D03*
X178943000Y-117856000D03*
X183515000Y-117856000D03*
X189611000Y-117856000D03*
X180467000Y-117856000D03*
X188087000Y-117856000D03*
X181991000Y-117856000D03*
X191135000Y-117856000D03*
X181991000Y-120904000D03*
X178943000Y-120904000D03*
X188087000Y-120904000D03*
X180467000Y-120904000D03*
X189611000Y-120904000D03*
X191135000Y-120904000D03*
X191135000Y-122428000D03*
X189611000Y-122428000D03*
X180467000Y-122428000D03*
X188087000Y-122428000D03*
X183515000Y-125476000D03*
X186563000Y-125476000D03*
X185039000Y-125476000D03*
X178943000Y-122428000D03*
X181991000Y-122428000D03*
X180467000Y-123952000D03*
X178943000Y-123952000D03*
X189611000Y-123952000D03*
X191135000Y-123952000D03*
X181991000Y-123952000D03*
X188087000Y-123952000D03*
X191135000Y-125476000D03*
X178943000Y-125476000D03*
X181991000Y-125476000D03*
X189611000Y-125476000D03*
X180467000Y-125476000D03*
X188087000Y-125476000D03*
X186563000Y-127000000D03*
X188087000Y-127000000D03*
X178943000Y-127000000D03*
X189611000Y-127000000D03*
X180467000Y-127000000D03*
X185039000Y-127000000D03*
X191135000Y-127000000D03*
X183515000Y-127000000D03*
X181991000Y-127000000D03*
X186563000Y-128524000D03*
X181991000Y-128524000D03*
X185039000Y-128524000D03*
X183515000Y-128524000D03*
X191135000Y-128524000D03*
X188087000Y-128524000D03*
X189611000Y-128524000D03*
X178943000Y-128524000D03*
X180467000Y-128524000D03*
X186563000Y-130048000D03*
X191135000Y-130048000D03*
X180467000Y-130048000D03*
X185039000Y-130048000D03*
X178943000Y-130048000D03*
X189611000Y-130048000D03*
X183515000Y-130048000D03*
X181991000Y-130048000D03*
X188087000Y-130048000D03*
X183515000Y-133096000D03*
X191135000Y-133096000D03*
X178943000Y-133096000D03*
X185039000Y-133096000D03*
X186563000Y-133096000D03*
X180467000Y-133096000D03*
X181991000Y-133096000D03*
X189611000Y-133096000D03*
X188087000Y-133096000D03*
X161925000Y-127000000D03*
X152781000Y-125476000D03*
X151257000Y-127000000D03*
X149733000Y-127000000D03*
X158877000Y-131572000D03*
X157353000Y-125476000D03*
X160401000Y-125476000D03*
X154305000Y-130048000D03*
X155829000Y-125476000D03*
X149733000Y-128524000D03*
X155829000Y-127000000D03*
X160401000Y-133096000D03*
X152781000Y-130048000D03*
X160401000Y-131572000D03*
X157353000Y-131572000D03*
X157353000Y-128524000D03*
X154305000Y-133096000D03*
X152781000Y-133096000D03*
X152781000Y-128524000D03*
X158877000Y-133096000D03*
X151257000Y-131572000D03*
X158877000Y-125476000D03*
X160401000Y-128524000D03*
X161925000Y-133096000D03*
X151257000Y-125476000D03*
X158877000Y-128524000D03*
X160401000Y-130048000D03*
X154305000Y-128524000D03*
X158877000Y-120904000D03*
X158877000Y-130048000D03*
X151257000Y-128524000D03*
X158877000Y-119380000D03*
X154305000Y-131572000D03*
X161925000Y-130048000D03*
X155829000Y-133096000D03*
X151257000Y-130048000D03*
X152781000Y-127000000D03*
X157353000Y-127000000D03*
X149733000Y-122428000D03*
X152781000Y-123952000D03*
X157353000Y-130048000D03*
X155829000Y-130048000D03*
X152781000Y-120904000D03*
X161925000Y-131572000D03*
X157353000Y-133096000D03*
X154305000Y-127000000D03*
X149733000Y-130048000D03*
X152781000Y-119380000D03*
X151257000Y-133096000D03*
X149733000Y-125476000D03*
X149733000Y-133096000D03*
X161925000Y-125476000D03*
X152781000Y-131572000D03*
X154305000Y-125476000D03*
X149733000Y-120904000D03*
X149733000Y-131572000D03*
X161925000Y-128524000D03*
X155829000Y-131572000D03*
X158877000Y-127000000D03*
X160401000Y-127000000D03*
X155829000Y-128524000D03*
X155829000Y-119380000D03*
X149733000Y-119380000D03*
X157353000Y-117856000D03*
X152781000Y-117856000D03*
X160401000Y-119380000D03*
X154305000Y-117856000D03*
X161925000Y-123952000D03*
X151257000Y-123952000D03*
X161925000Y-117856000D03*
X157353000Y-119380000D03*
X160401000Y-123952000D03*
X158877000Y-122428000D03*
X155829000Y-117856000D03*
X160401000Y-120904000D03*
X151257000Y-119380000D03*
X152781000Y-122428000D03*
X149733000Y-123952000D03*
X151257000Y-120904000D03*
X160401000Y-122428000D03*
X158877000Y-117856000D03*
X158877000Y-123952000D03*
X151257000Y-117856000D03*
X161925000Y-119380000D03*
X149733000Y-117856000D03*
X161925000Y-122428000D03*
X151257000Y-122428000D03*
X154305000Y-119380000D03*
X161925000Y-120904000D03*
X160401000Y-117856000D03*
X117856000Y-106680000D03*
X105156000Y-78105000D03*
X110109000Y-122047000D03*
X100457000Y-75057000D03*
X95250000Y-69215000D03*
X93853000Y-84328000D03*
X130048000Y-133350000D03*
X114553996Y-143002000D03*
X215773000Y-119380000D03*
X212725000Y-117856000D03*
X215773000Y-117856000D03*
X214249000Y-119380000D03*
X214249000Y-117856000D03*
X212725000Y-119380000D03*
X219710000Y-111760000D03*
X190500000Y-111760000D03*
X161290000Y-110998000D03*
X103505000Y-123063000D03*
X103505000Y-125222000D03*
X117856000Y-116840000D03*
X136779000Y-145415000D03*
X142240000Y-151130000D03*
X91186000Y-102870000D03*
X89916000Y-102870000D03*
X88646000Y-102870000D03*
X100457000Y-73279000D03*
X100076000Y-69215000D03*
X95250000Y-84328000D03*
X100457000Y-71501000D03*
X105156000Y-69215000D03*
X96520000Y-84328000D03*
X100203000Y-99695004D03*
X97536000Y-94107000D03*
X92710000Y-99060000D03*
X109601000Y-99695000D03*
X118745000Y-99695000D03*
X89916000Y-99060006D03*
X86360000Y-95758000D03*
X99822000Y-86106000D03*
X110109000Y-124206000D03*
X117856000Y-118110000D03*
X117856000Y-115570000D03*
X107953750Y-127377250D03*
X117856000Y-119380000D03*
X134112000Y-107950000D03*
X143510000Y-129794000D03*
X146558000Y-146304000D03*
X131572000Y-121920000D03*
X127000000Y-113030000D03*
X167640000Y-119888000D03*
X131572000Y-123190000D03*
X175514000Y-146431000D03*
X198374000Y-120142000D03*
X123190000Y-115316000D03*
X131572000Y-125095000D03*
X204089000Y-146304000D03*
X171069000Y-128270000D03*
X172085000Y-128270000D03*
X172085000Y-127254000D03*
X172085000Y-126238000D03*
X172085000Y-125222000D03*
X172085000Y-124206000D03*
X171069000Y-124206000D03*
X170053000Y-124206000D03*
X169037000Y-124206000D03*
X168021000Y-124206000D03*
X168021000Y-125222000D03*
X168021000Y-126238000D03*
X169037000Y-125222000D03*
X171069000Y-125222000D03*
X171069000Y-127254000D03*
X169037000Y-127254000D03*
X168021000Y-127254000D03*
X168021000Y-128270000D03*
X169037000Y-128270000D03*
X229489000Y-128270000D03*
X230505000Y-128270000D03*
X230505000Y-127254000D03*
X230505000Y-126238000D03*
X230505000Y-125222000D03*
X230505000Y-124206000D03*
X229489000Y-124206000D03*
X228473000Y-124206000D03*
X227457000Y-124206000D03*
X226441000Y-124206000D03*
X226441000Y-126238000D03*
X226441000Y-125222000D03*
X226441000Y-127254000D03*
X226441000Y-128270000D03*
X227457000Y-128270000D03*
X227457000Y-127254000D03*
X227457000Y-125222000D03*
X229489000Y-125222000D03*
X229489000Y-127254000D03*
X200279000Y-128270000D03*
X201295000Y-128270000D03*
X201295000Y-127254000D03*
X201295000Y-126238000D03*
X201295000Y-125222000D03*
X201295000Y-124206000D03*
X200279000Y-124206000D03*
X199263000Y-124206000D03*
X198247000Y-124206000D03*
X197231000Y-124206000D03*
X197231000Y-125222000D03*
X197231000Y-126238000D03*
X197231000Y-127254000D03*
X197231000Y-128270000D03*
X198247000Y-128270000D03*
X198247000Y-127254000D03*
X200279000Y-127254000D03*
X200279000Y-125222000D03*
X198247000Y-125222000D03*
X132080000Y-85979000D03*
X133350000Y-85979000D03*
X134620000Y-85979000D03*
X135890000Y-85979000D03*
X133350000Y-84709000D03*
X134620000Y-84709000D03*
X132080000Y-84709000D03*
X135890000Y-84709000D03*
X130810000Y-84709000D03*
X132080000Y-83439000D03*
X134620000Y-83439000D03*
X130810000Y-83439000D03*
X133350000Y-83439000D03*
X135890000Y-83439000D03*
X133350000Y-82169000D03*
X132080000Y-82169000D03*
X135890000Y-82169000D03*
X130810000Y-82169000D03*
X134620000Y-82169000D03*
X135890000Y-80899000D03*
X132080000Y-80899000D03*
X133350000Y-80899000D03*
X130810000Y-80899000D03*
X134620000Y-80899000D03*
X127762000Y-148717000D03*
X133223000Y-144526000D03*
X127127000Y-127508000D03*
X117856000Y-120650000D03*
X111379000Y-153289000D03*
X112801500Y-123164500D03*
X199263000Y-130810000D03*
X140843000Y-137668000D03*
X115697000Y-151130000D03*
X142367000Y-136144000D03*
X117729000Y-131318000D03*
X139446000Y-141859000D03*
X199898000Y-108077000D03*
X140716000Y-114300000D03*
X140716000Y-110998000D03*
X140716000Y-107696000D03*
X199898000Y-112141000D03*
X90297000Y-116840000D03*
X91948000Y-133223000D03*
X102235000Y-138557000D03*
X135890000Y-141097000D03*
X143383000Y-139192000D03*
X140843000Y-139192000D03*
X140843000Y-153670000D03*
X110109000Y-137668000D03*
X110109000Y-139700000D03*
X110109000Y-141732000D03*
D25*
X115443000Y-128397000D02*
X124460000Y-119380000D01*
X115380000Y-128397000D02*
X115443000Y-128397000D01*
X124460000Y-119380000D02*
X124460000Y-109220000D01*
X124460000Y-109220000D02*
X126600001Y-107079999D01*
X126600001Y-107079999D02*
X127000000Y-106680000D01*
X127000000Y-111760000D02*
X127000000Y-111760000D01*
X125730000Y-119507000D02*
X125730000Y-113030000D01*
X125730000Y-113030000D02*
X127000000Y-111760000D01*
X115284500Y-130905500D02*
X115284500Y-129952500D01*
X115284500Y-129952500D02*
X125730000Y-119507000D01*
X127000000Y-116840000D02*
X127000000Y-116840000D01*
X116332000Y-130175000D02*
X127000000Y-119507000D01*
X115316000Y-133287000D02*
X116332000Y-132271000D01*
X127000000Y-119507000D02*
X127000000Y-116840000D01*
X116332000Y-132271000D02*
X116332000Y-130175000D01*
X128073685Y-154051000D02*
X128778000Y-153346685D01*
X127508000Y-154051000D02*
X128073685Y-154051000D01*
X128778000Y-153346685D02*
X128778000Y-148082000D01*
X128778000Y-148082000D02*
X127508000Y-146812000D01*
X127508000Y-146812000D02*
X127508000Y-146812000D01*
X127508000Y-150114000D02*
X127508000Y-152527000D01*
X126746000Y-149352000D02*
X127508000Y-150114000D01*
X112464315Y-107950000D02*
X117856000Y-107950000D01*
X117856000Y-107950000D02*
X117856000Y-107950000D01*
X109728000Y-107950000D02*
X109634952Y-107856952D01*
X112522000Y-107950000D02*
X109728000Y-107950000D01*
X114046000Y-109220000D02*
X117856000Y-109220000D01*
X117856000Y-109220000D02*
X117856000Y-109220000D01*
X111506000Y-109220000D02*
X114046000Y-109220000D01*
X110109000Y-110617000D02*
X111506000Y-109220000D01*
X115062000Y-110490000D02*
X117856000Y-110490000D01*
X117856000Y-110490000D02*
X117856000Y-110490000D01*
X112522000Y-110490000D02*
X115062000Y-110490000D01*
X110109000Y-112903000D02*
X112522000Y-110490000D01*
X116078000Y-111760000D02*
X117856000Y-111760000D01*
X117856000Y-111760000D02*
X117856000Y-111760000D01*
X113538000Y-111760000D02*
X116078000Y-111760000D01*
X110109000Y-115189000D02*
X113538000Y-111760000D01*
X117856000Y-113030000D02*
X117856000Y-113030000D01*
X114554000Y-113030000D02*
X110109000Y-117475000D01*
X117856000Y-113030000D02*
X114554000Y-113030000D01*
X117856000Y-114300000D02*
X117856000Y-114300000D01*
X115570000Y-114300000D02*
X117856000Y-114300000D01*
X110109000Y-119761000D02*
X115570000Y-114300000D01*
X107905500Y-83648500D02*
X107905500Y-95078500D01*
X107905500Y-95078500D02*
X110744000Y-97917000D01*
X110744000Y-97917000D02*
X119253000Y-97917000D01*
X119253000Y-97917000D02*
X120269000Y-98933000D01*
X120269000Y-98933000D02*
X120269000Y-100076000D01*
X120269000Y-100076000D02*
X118110000Y-102235000D01*
X118110000Y-102235000D02*
X104013000Y-102235000D01*
X104013000Y-102235000D02*
X101092000Y-105156000D01*
X101092000Y-105156000D02*
X101092000Y-117983000D01*
X101092000Y-117983000D02*
X104902000Y-121793000D01*
X104902000Y-121793000D02*
X104902000Y-128397000D01*
X104902000Y-128397000D02*
X100838000Y-132461000D01*
X100838000Y-132461000D02*
X98679000Y-134620000D01*
X98679000Y-134620000D02*
X97536000Y-134620000D01*
X112776000Y-148209000D02*
X93472000Y-148209000D01*
X93472000Y-148209000D02*
X93472000Y-148209000D01*
X95250000Y-69850000D02*
X100457000Y-75057000D01*
X95250000Y-69215000D02*
X95250000Y-69850000D01*
X93853000Y-84328000D02*
X95885000Y-82296000D01*
X95885000Y-82296000D02*
X103124000Y-82296000D01*
X103124000Y-82296000D02*
X103886000Y-81534000D01*
X103886000Y-81534000D02*
X103886000Y-76962000D01*
X101981000Y-75057000D02*
X100457000Y-75057000D01*
X103886000Y-76962000D02*
X101981000Y-75057000D01*
X114554000Y-136906000D02*
X119634000Y-131826000D01*
X121412000Y-131826000D02*
X128778000Y-131826000D01*
X119634000Y-131826000D02*
X121412000Y-131826000D01*
X119380000Y-133350000D02*
X129482315Y-133350000D01*
X129482315Y-133350000D02*
X130048000Y-133350000D01*
X114554000Y-138938000D02*
X114554000Y-138176000D01*
X114554000Y-138176000D02*
X119380000Y-133350000D01*
X114554000Y-143002000D02*
X114553996Y-143002000D01*
X117348000Y-147066000D02*
X117348000Y-145796000D01*
X117348000Y-145796000D02*
X114554000Y-143002000D01*
X103505000Y-127889000D02*
X103505000Y-125222000D01*
X97663000Y-132080000D02*
X99314000Y-132080000D01*
X99314000Y-132080000D02*
X103505000Y-127889000D01*
X136779000Y-145415000D02*
X136779000Y-145415000D01*
X136779000Y-145980685D02*
X136779000Y-145415000D01*
X141674315Y-151130000D02*
X136779000Y-146234685D01*
X136779000Y-146234685D02*
X136779000Y-145980685D01*
X142240000Y-151130000D02*
X141674315Y-151130000D01*
X98806000Y-71628000D02*
X100457000Y-73279000D01*
X100076000Y-69215000D02*
X98806000Y-70485000D01*
X98806000Y-70485000D02*
X98806000Y-71628000D01*
X105283000Y-73279000D02*
X100457000Y-73279000D01*
X106426000Y-80264000D02*
X106426000Y-74422000D01*
X95250000Y-84328000D02*
X96266000Y-83312000D01*
X103378000Y-83312000D02*
X106426000Y-80264000D01*
X96266000Y-83312000D02*
X103378000Y-83312000D01*
X106426000Y-74422000D02*
X105283000Y-73279000D01*
X102743000Y-69215000D02*
X100457000Y-71501000D01*
X105156000Y-69215000D02*
X102743000Y-69215000D01*
X96520000Y-84328000D02*
X103632000Y-84328000D01*
X103632000Y-84328000D02*
X107442000Y-80518000D01*
X107442000Y-71501000D02*
X105156000Y-69215000D01*
X107442000Y-80518000D02*
X107442000Y-71501000D01*
X100203000Y-99695004D02*
X99314004Y-99695004D01*
X97536000Y-94107000D02*
X97536000Y-93980000D01*
X97536000Y-97917000D02*
X97536000Y-94107000D01*
X99314000Y-99695000D02*
X97536000Y-97917000D01*
X109601000Y-99695000D02*
X109601000Y-99695000D01*
X108839000Y-100457000D02*
X109601000Y-99695000D01*
X92710000Y-99060000D02*
X94107000Y-100457000D01*
X94107000Y-100457000D02*
X108839000Y-100457000D01*
X118745000Y-99695000D02*
X118745000Y-99695000D01*
X90315999Y-99460005D02*
X89916000Y-99060006D01*
X118745000Y-99695000D02*
X117348000Y-101092000D01*
X91947994Y-101092000D02*
X90315999Y-99460005D01*
X117348000Y-101092000D02*
X91947994Y-101092000D01*
X99822000Y-86106000D02*
X99822000Y-86106000D01*
X86360000Y-95758000D02*
X86360000Y-90297000D01*
X90551000Y-86106000D02*
X99822000Y-86106000D01*
X86360000Y-90297000D02*
X90551000Y-86106000D01*
X96799401Y-126136401D02*
X97663000Y-127000000D01*
X87884000Y-125730000D02*
X96393000Y-125730000D01*
X96393000Y-125730000D02*
X96799401Y-126136401D01*
X85852000Y-124460000D02*
X86614000Y-124460000D01*
X86614000Y-124460000D02*
X87884000Y-125730000D01*
X96393000Y-123190000D02*
X96799401Y-123596401D01*
X87884000Y-123190000D02*
X96393000Y-123190000D01*
X85852000Y-121920000D02*
X86614000Y-121920000D01*
X96799401Y-123596401D02*
X97663000Y-124460000D01*
X86614000Y-121920000D02*
X87884000Y-123190000D01*
X96799401Y-121056401D02*
X97663000Y-121920000D01*
X96393000Y-120650000D02*
X96799401Y-121056401D01*
X87884000Y-120650000D02*
X96393000Y-120650000D01*
X85852000Y-119380000D02*
X86614000Y-119380000D01*
X86614000Y-119380000D02*
X87884000Y-120650000D01*
X96799401Y-118516401D02*
X97663000Y-119380000D01*
X96393000Y-118110000D02*
X96799401Y-118516401D01*
X85852000Y-116840000D02*
X87122000Y-118110000D01*
X87122000Y-118110000D02*
X96393000Y-118110000D01*
X96799401Y-115976401D02*
X97663000Y-116840000D01*
X96393000Y-115570000D02*
X96799401Y-115976401D01*
X85852000Y-114300000D02*
X87122000Y-115570000D01*
X87122000Y-115570000D02*
X96393000Y-115570000D01*
X97663000Y-114300000D02*
X97790000Y-114300000D01*
X96799401Y-113436401D02*
X97663000Y-114300000D01*
X96393000Y-113030000D02*
X96799401Y-113436401D01*
X85852000Y-111760000D02*
X87122000Y-113030000D01*
X87122000Y-113030000D02*
X96393000Y-113030000D01*
X110109000Y-124206000D02*
X108966000Y-123063000D01*
X108966000Y-123063000D02*
X108966000Y-121539000D01*
X108966000Y-121539000D02*
X109601000Y-120904000D01*
X109601000Y-120904000D02*
X110871000Y-120904000D01*
X110871000Y-120904000D02*
X113665000Y-118110000D01*
X113665000Y-118110000D02*
X117856000Y-118110000D01*
X117856000Y-118110000D02*
X117856000Y-118110000D01*
X97663000Y-129540000D02*
X99441000Y-129540000D01*
X99441000Y-129540000D02*
X100203000Y-128778000D01*
X100203000Y-128778000D02*
X100203000Y-107950000D01*
X100203000Y-107950000D02*
X98679000Y-106426000D01*
X98679000Y-106426000D02*
X88519000Y-106426000D01*
X88519000Y-106426000D02*
X85725000Y-109220000D01*
X117856000Y-119380000D02*
X117856000Y-119380000D01*
X113792000Y-119380000D02*
X117856000Y-119380000D01*
X110109000Y-122047000D02*
X111125000Y-122047000D01*
X111125000Y-122047000D02*
X113792000Y-119380000D01*
X146558000Y-146304000D02*
X146558000Y-135890000D01*
X146558000Y-135890000D02*
X132588000Y-121920000D01*
X132588000Y-121920000D02*
X131572000Y-121920000D01*
X131572000Y-121920000D02*
X131572000Y-121920000D01*
X175514000Y-146431000D02*
X175514000Y-146431000D01*
X172085000Y-114300000D02*
X175514000Y-117729000D01*
X145542000Y-114300000D02*
X172085000Y-114300000D01*
X139573000Y-120269000D02*
X145542000Y-114300000D01*
X130556000Y-123190000D02*
X129794000Y-122428000D01*
X175514000Y-117729000D02*
X175514000Y-143129000D01*
X131572000Y-123190000D02*
X130556000Y-123190000D01*
X175514000Y-143129000D02*
X175514000Y-146431000D01*
X129794000Y-122428000D02*
X129794000Y-121158000D01*
X129794000Y-121158000D02*
X130683000Y-120269000D01*
X130683000Y-120269000D02*
X139573000Y-120269000D01*
X131572000Y-125095000D02*
X130429000Y-125095000D01*
X130429000Y-125095000D02*
X128905000Y-123571000D01*
X128905000Y-123571000D02*
X128905000Y-120904000D01*
X128905000Y-120904000D02*
X130429000Y-119380000D01*
X130429000Y-119380000D02*
X138684000Y-119380000D01*
X138684000Y-119380000D02*
X144780000Y-113284000D01*
X144780000Y-113284000D02*
X175260000Y-113284000D01*
X175260000Y-113284000D02*
X176784000Y-114808000D01*
X176784000Y-114808000D02*
X202692000Y-114808000D01*
X202692000Y-114808000D02*
X204597000Y-116713000D01*
X204597000Y-116713000D02*
X204597000Y-145796000D01*
X204597000Y-145796000D02*
X204089000Y-146304000D01*
X204089000Y-146304000D02*
X204089000Y-146304000D01*
X126111000Y-145415000D02*
X136779000Y-145415000D01*
X116205000Y-149225000D02*
X122301000Y-149225000D01*
X111760000Y-144780000D02*
X116205000Y-149225000D01*
X119507000Y-117925315D02*
X119507000Y-120777000D01*
X119507000Y-120777000D02*
X115062000Y-125222000D01*
X115062000Y-125222000D02*
X108077000Y-125222000D01*
X118421685Y-116840000D02*
X119507000Y-117925315D01*
X108077000Y-125222000D02*
X106680000Y-126619000D01*
X106680000Y-126619000D02*
X106680000Y-133223000D01*
X117856000Y-116840000D02*
X118421685Y-116840000D01*
X110744000Y-136017000D02*
X111760000Y-137033000D01*
X106680000Y-133223000D02*
X109474000Y-136017000D01*
X109474000Y-136017000D02*
X110744000Y-136017000D01*
X122301000Y-149225000D02*
X126111000Y-145415000D01*
X111760000Y-137033000D02*
X111760000Y-144780000D01*
X95123000Y-116840000D02*
X90297000Y-116840000D01*
X90297000Y-116840000D02*
X90297000Y-116840000D01*
X91948000Y-133223000D02*
X91948000Y-133788685D01*
X91948000Y-133788685D02*
X91948000Y-139446000D01*
X91948000Y-139446000D02*
X93853000Y-141351000D01*
X93853000Y-141351000D02*
X99441000Y-141351000D01*
X99441000Y-141351000D02*
X102235000Y-138557000D01*
X102235000Y-138557000D02*
X102235000Y-138557000D01*
X109093000Y-126238000D02*
X115316000Y-126238000D01*
X107953750Y-127377250D02*
X109093000Y-126238000D01*
X115316000Y-126238000D02*
X121285000Y-120269000D01*
X119888000Y-115570000D02*
X117856000Y-115570000D01*
X121285000Y-120269000D02*
X121285000Y-116967000D01*
X121285000Y-116967000D02*
X119888000Y-115570000D01*
X86701999Y-127849999D02*
X85852000Y-127000000D01*
X90932000Y-132080000D02*
X86701999Y-127849999D01*
X110109000Y-137668000D02*
X104648000Y-137668000D01*
X90932000Y-139573000D02*
X90932000Y-132080000D01*
X104648000Y-137668000D02*
X100203000Y-142113000D01*
X93472000Y-142113000D02*
X90932000Y-139573000D01*
X100203000Y-142113000D02*
X93472000Y-142113000D01*
X103886000Y-139700000D02*
X100838000Y-142748000D01*
X90170000Y-133858000D02*
X85852000Y-129540000D01*
X110109000Y-139700000D02*
X103886000Y-139700000D01*
X90170000Y-139827000D02*
X90170000Y-133858000D01*
X100838000Y-142748000D02*
X93091000Y-142748000D01*
X93091000Y-142748000D02*
X90170000Y-139827000D01*
X85979000Y-132207000D02*
X85852000Y-132080000D01*
X102870000Y-141732000D02*
X101219000Y-143383000D01*
X110109000Y-141732000D02*
X102870000Y-141732000D01*
X101219000Y-143383000D02*
X92583000Y-143383000D01*
X88900000Y-135128000D02*
X85979000Y-132207000D01*
X92583000Y-143383000D02*
X88900000Y-139700000D01*
X88900000Y-139700000D02*
X88900000Y-135128000D01*
D26*
G36*
X221928189Y-79900376D02*
G01*
X222091850Y-79950022D01*
X222242672Y-80030638D01*
X222374870Y-80139130D01*
X222483362Y-80271328D01*
X222563978Y-80422150D01*
X222613624Y-80585811D01*
X222631000Y-80762234D01*
X222631000Y-97291766D01*
X222613624Y-97468189D01*
X222563978Y-97631850D01*
X222483362Y-97782672D01*
X222374870Y-97914870D01*
X222242672Y-98023362D01*
X222091850Y-98103978D01*
X221928189Y-98153624D01*
X221751766Y-98171000D01*
X218424000Y-98171000D01*
X218411552Y-98171612D01*
X218216462Y-98190827D01*
X218192044Y-98195683D01*
X218004451Y-98252588D01*
X217981450Y-98262116D01*
X217808563Y-98354526D01*
X217787862Y-98368358D01*
X217636325Y-98492721D01*
X217618721Y-98510325D01*
X217494358Y-98661862D01*
X217480526Y-98682563D01*
X217388116Y-98855450D01*
X217378588Y-98878451D01*
X217321683Y-99066044D01*
X217316827Y-99090462D01*
X217297612Y-99285552D01*
X217297000Y-99298000D01*
X217297000Y-102068552D01*
X217279624Y-102244976D01*
X217229978Y-102408637D01*
X217149363Y-102559458D01*
X217036898Y-102696496D01*
X215468090Y-104265304D01*
X215459721Y-104274539D01*
X215335358Y-104426075D01*
X215321526Y-104446776D01*
X215229116Y-104619663D01*
X215219588Y-104642664D01*
X215162683Y-104830257D01*
X215157827Y-104854675D01*
X215138612Y-105049766D01*
X215138000Y-105062214D01*
X215138000Y-105830123D01*
X215089883Y-105988743D01*
X215062000Y-106271843D01*
X215062001Y-108062645D01*
X214990362Y-108196672D01*
X214881870Y-108328870D01*
X214749672Y-108437362D01*
X214598850Y-108517978D01*
X214435189Y-108567624D01*
X214258766Y-108585000D01*
X214239234Y-108585000D01*
X214062811Y-108567624D01*
X213899150Y-108517978D01*
X213748328Y-108437362D01*
X213616130Y-108328870D01*
X213507638Y-108196672D01*
X213436000Y-108062647D01*
X213436000Y-106271842D01*
X213408117Y-105988742D01*
X213360000Y-105830122D01*
X213360000Y-105062214D01*
X213359388Y-105049766D01*
X213340173Y-104854675D01*
X213335317Y-104830257D01*
X213278412Y-104642664D01*
X213268884Y-104619663D01*
X213176474Y-104446776D01*
X213162642Y-104426075D01*
X213038279Y-104274539D01*
X213029910Y-104265304D01*
X211461102Y-102696496D01*
X211348637Y-102559458D01*
X211268022Y-102408637D01*
X211218376Y-102244976D01*
X211201000Y-102068552D01*
X211201000Y-99298000D01*
X211200388Y-99285552D01*
X211181173Y-99090462D01*
X211176317Y-99066044D01*
X211119412Y-98878451D01*
X211109884Y-98855450D01*
X211017474Y-98682563D01*
X211003642Y-98661862D01*
X210879279Y-98510325D01*
X210861675Y-98492721D01*
X210710138Y-98368358D01*
X210689437Y-98354526D01*
X210516550Y-98262116D01*
X210493549Y-98252588D01*
X210305956Y-98195683D01*
X210281538Y-98190827D01*
X210086448Y-98171612D01*
X210074000Y-98171000D01*
X189214000Y-98171000D01*
X189201552Y-98171612D01*
X189006462Y-98190827D01*
X188982044Y-98195683D01*
X188794451Y-98252588D01*
X188771450Y-98262116D01*
X188598563Y-98354526D01*
X188577862Y-98368358D01*
X188426325Y-98492721D01*
X188408721Y-98510325D01*
X188284358Y-98661862D01*
X188270526Y-98682563D01*
X188178116Y-98855450D01*
X188168588Y-98878451D01*
X188111683Y-99066044D01*
X188106827Y-99090462D01*
X188087612Y-99285552D01*
X188087000Y-99298000D01*
X188087000Y-102068552D01*
X188069624Y-102244976D01*
X188019978Y-102408637D01*
X187939363Y-102559458D01*
X187826898Y-102696496D01*
X186258090Y-104265304D01*
X186249721Y-104274539D01*
X186125358Y-104426075D01*
X186111526Y-104446776D01*
X186019116Y-104619663D01*
X186009588Y-104642664D01*
X185952683Y-104830257D01*
X185947827Y-104854675D01*
X185928612Y-105049766D01*
X185928000Y-105062214D01*
X185928000Y-105830123D01*
X185879883Y-105988743D01*
X185852000Y-106271843D01*
X185852001Y-108062645D01*
X185780362Y-108196672D01*
X185671870Y-108328870D01*
X185539672Y-108437362D01*
X185388850Y-108517978D01*
X185225189Y-108567624D01*
X185048766Y-108585000D01*
X185029234Y-108585000D01*
X184852811Y-108567624D01*
X184689150Y-108517978D01*
X184538328Y-108437362D01*
X184406130Y-108328870D01*
X184297638Y-108196672D01*
X184226000Y-108062647D01*
X184226000Y-106271842D01*
X184198117Y-105988742D01*
X184150000Y-105830122D01*
X184150000Y-105062214D01*
X184149388Y-105049766D01*
X184130173Y-104854675D01*
X184125317Y-104830257D01*
X184068412Y-104642664D01*
X184058884Y-104619663D01*
X183966474Y-104446776D01*
X183952642Y-104426075D01*
X183828279Y-104274539D01*
X183819910Y-104265304D01*
X182251102Y-102696496D01*
X182138637Y-102559458D01*
X182058022Y-102408637D01*
X182008376Y-102244976D01*
X181991000Y-102068552D01*
X181991000Y-99298000D01*
X181990388Y-99285552D01*
X181971173Y-99090462D01*
X181966317Y-99066044D01*
X181909412Y-98878451D01*
X181899884Y-98855450D01*
X181807474Y-98682563D01*
X181793642Y-98661862D01*
X181669279Y-98510325D01*
X181651675Y-98492721D01*
X181500138Y-98368358D01*
X181479437Y-98354526D01*
X181306550Y-98262116D01*
X181283549Y-98252588D01*
X181095956Y-98195683D01*
X181071538Y-98190827D01*
X180876448Y-98171612D01*
X180864000Y-98171000D01*
X160131000Y-98171000D01*
X160118552Y-98171612D01*
X159923462Y-98190827D01*
X159899044Y-98195683D01*
X159711451Y-98252588D01*
X159688450Y-98262116D01*
X159515563Y-98354526D01*
X159494862Y-98368358D01*
X159343325Y-98492721D01*
X159325721Y-98510325D01*
X159201358Y-98661862D01*
X159187526Y-98682563D01*
X159095116Y-98855450D01*
X159085588Y-98878451D01*
X159028683Y-99066044D01*
X159023827Y-99090462D01*
X159004612Y-99285552D01*
X159004000Y-99298000D01*
X159004000Y-102051490D01*
X158985341Y-102234241D01*
X158932085Y-102403264D01*
X158845777Y-102558025D01*
X158725724Y-102697074D01*
X157071175Y-104259702D01*
X157062248Y-104269037D01*
X156929494Y-104422797D01*
X156914705Y-104443936D01*
X156815763Y-104621351D01*
X156805550Y-104645042D01*
X156744503Y-104838791D01*
X156739290Y-104864058D01*
X156718657Y-105066147D01*
X156718000Y-105079046D01*
X156718000Y-105830123D01*
X156669883Y-105988743D01*
X156642000Y-106271843D01*
X156642001Y-108316645D01*
X156570362Y-108450672D01*
X156461870Y-108582870D01*
X156329672Y-108691362D01*
X156178850Y-108771978D01*
X156015189Y-108821624D01*
X155838766Y-108839000D01*
X155819234Y-108839000D01*
X155642811Y-108821624D01*
X155479150Y-108771978D01*
X155328328Y-108691362D01*
X155196130Y-108582870D01*
X155087638Y-108450672D01*
X155016000Y-108316647D01*
X155016000Y-106271842D01*
X154988117Y-105988742D01*
X154940000Y-105830122D01*
X154940000Y-105062214D01*
X154939388Y-105049766D01*
X154920173Y-104854675D01*
X154915317Y-104830257D01*
X154858412Y-104642664D01*
X154848884Y-104619663D01*
X154756474Y-104446776D01*
X154742642Y-104426075D01*
X154618279Y-104274539D01*
X154609910Y-104265304D01*
X153041102Y-102696496D01*
X152928637Y-102559458D01*
X152848022Y-102408637D01*
X152798376Y-102244976D01*
X152781000Y-102068552D01*
X152781000Y-99298000D01*
X152780388Y-99285552D01*
X152761173Y-99090462D01*
X152756317Y-99066044D01*
X152699412Y-98878451D01*
X152689884Y-98855450D01*
X152597474Y-98682563D01*
X152583642Y-98661862D01*
X152459279Y-98510325D01*
X152441675Y-98492721D01*
X152290138Y-98368358D01*
X152269437Y-98354526D01*
X152096550Y-98262116D01*
X152073549Y-98252588D01*
X151885956Y-98195683D01*
X151861538Y-98190827D01*
X151666448Y-98171612D01*
X151654000Y-98171000D01*
X148326234Y-98171000D01*
X148149811Y-98153624D01*
X147986150Y-98103978D01*
X147835328Y-98023362D01*
X147703130Y-97914870D01*
X147594638Y-97782672D01*
X147514022Y-97631850D01*
X147464376Y-97468189D01*
X147447000Y-97291766D01*
X147447000Y-86170414D01*
X153091000Y-86170414D01*
X153091000Y-86707586D01*
X153195797Y-87234437D01*
X153401364Y-87730719D01*
X153699801Y-88177361D01*
X154079639Y-88557199D01*
X154526281Y-88855636D01*
X155022563Y-89061203D01*
X155549414Y-89166000D01*
X156086586Y-89166000D01*
X156613437Y-89061203D01*
X157109719Y-88855636D01*
X157556361Y-88557199D01*
X157936199Y-88177361D01*
X158234636Y-87730719D01*
X158440203Y-87234437D01*
X158545000Y-86707586D01*
X158545000Y-86170414D01*
X182301000Y-86170414D01*
X182301000Y-86707586D01*
X182405797Y-87234437D01*
X182611364Y-87730719D01*
X182909801Y-88177361D01*
X183289639Y-88557199D01*
X183736281Y-88855636D01*
X184232563Y-89061203D01*
X184759414Y-89166000D01*
X185296586Y-89166000D01*
X185823437Y-89061203D01*
X186319719Y-88855636D01*
X186766361Y-88557199D01*
X187146199Y-88177361D01*
X187444636Y-87730719D01*
X187650203Y-87234437D01*
X187755000Y-86707586D01*
X187755000Y-86170414D01*
X211511000Y-86170414D01*
X211511000Y-86707586D01*
X211615797Y-87234437D01*
X211821364Y-87730719D01*
X212119801Y-88177361D01*
X212499639Y-88557199D01*
X212946281Y-88855636D01*
X213442563Y-89061203D01*
X213969414Y-89166000D01*
X214506586Y-89166000D01*
X215033437Y-89061203D01*
X215529719Y-88855636D01*
X215976361Y-88557199D01*
X216356199Y-88177361D01*
X216654636Y-87730719D01*
X216860203Y-87234437D01*
X216965000Y-86707586D01*
X216965000Y-86170414D01*
X216860203Y-85643563D01*
X216654636Y-85147281D01*
X216356199Y-84700639D01*
X215976361Y-84320801D01*
X215529719Y-84022364D01*
X215033437Y-83816797D01*
X214506586Y-83712000D01*
X213969414Y-83712000D01*
X213442563Y-83816797D01*
X212946281Y-84022364D01*
X212499639Y-84320801D01*
X212119801Y-84700639D01*
X211821364Y-85147281D01*
X211615797Y-85643563D01*
X211511000Y-86170414D01*
X187755000Y-86170414D01*
X187650203Y-85643563D01*
X187444636Y-85147281D01*
X187146199Y-84700639D01*
X186766361Y-84320801D01*
X186319719Y-84022364D01*
X185823437Y-83816797D01*
X185296586Y-83712000D01*
X184759414Y-83712000D01*
X184232563Y-83816797D01*
X183736281Y-84022364D01*
X183289639Y-84320801D01*
X182909801Y-84700639D01*
X182611364Y-85147281D01*
X182405797Y-85643563D01*
X182301000Y-86170414D01*
X158545000Y-86170414D01*
X158440203Y-85643563D01*
X158234636Y-85147281D01*
X157936199Y-84700639D01*
X157556361Y-84320801D01*
X157109719Y-84022364D01*
X156613437Y-83816797D01*
X156086586Y-83712000D01*
X155549414Y-83712000D01*
X155022563Y-83816797D01*
X154526281Y-84022364D01*
X154079639Y-84320801D01*
X153699801Y-84700639D01*
X153401364Y-85147281D01*
X153195797Y-85643563D01*
X153091000Y-86170414D01*
X147447000Y-86170414D01*
X147447000Y-80762234D01*
X147464376Y-80585811D01*
X147514022Y-80422150D01*
X147594638Y-80271328D01*
X147703130Y-80139130D01*
X147835328Y-80030638D01*
X147986150Y-79950022D01*
X148149811Y-79900376D01*
X148326234Y-79883000D01*
X221751766Y-79883000D01*
X221928189Y-79900376D01*
G37*
X221928189Y-79900376D02*
X222091850Y-79950022D01*
X222242672Y-80030638D01*
X222374870Y-80139130D01*
X222483362Y-80271328D01*
X222563978Y-80422150D01*
X222613624Y-80585811D01*
X222631000Y-80762234D01*
X222631000Y-97291766D01*
X222613624Y-97468189D01*
X222563978Y-97631850D01*
X222483362Y-97782672D01*
X222374870Y-97914870D01*
X222242672Y-98023362D01*
X222091850Y-98103978D01*
X221928189Y-98153624D01*
X221751766Y-98171000D01*
X218424000Y-98171000D01*
X218411552Y-98171612D01*
X218216462Y-98190827D01*
X218192044Y-98195683D01*
X218004451Y-98252588D01*
X217981450Y-98262116D01*
X217808563Y-98354526D01*
X217787862Y-98368358D01*
X217636325Y-98492721D01*
X217618721Y-98510325D01*
X217494358Y-98661862D01*
X217480526Y-98682563D01*
X217388116Y-98855450D01*
X217378588Y-98878451D01*
X217321683Y-99066044D01*
X217316827Y-99090462D01*
X217297612Y-99285552D01*
X217297000Y-99298000D01*
X217297000Y-102068552D01*
X217279624Y-102244976D01*
X217229978Y-102408637D01*
X217149363Y-102559458D01*
X217036898Y-102696496D01*
X215468090Y-104265304D01*
X215459721Y-104274539D01*
X215335358Y-104426075D01*
X215321526Y-104446776D01*
X215229116Y-104619663D01*
X215219588Y-104642664D01*
X215162683Y-104830257D01*
X215157827Y-104854675D01*
X215138612Y-105049766D01*
X215138000Y-105062214D01*
X215138000Y-105830123D01*
X215089883Y-105988743D01*
X215062000Y-106271843D01*
X215062001Y-108062645D01*
X214990362Y-108196672D01*
X214881870Y-108328870D01*
X214749672Y-108437362D01*
X214598850Y-108517978D01*
X214435189Y-108567624D01*
X214258766Y-108585000D01*
X214239234Y-108585000D01*
X214062811Y-108567624D01*
X213899150Y-108517978D01*
X213748328Y-108437362D01*
X213616130Y-108328870D01*
X213507638Y-108196672D01*
X213436000Y-108062647D01*
X213436000Y-106271842D01*
X213408117Y-105988742D01*
X213360000Y-105830122D01*
X213360000Y-105062214D01*
X213359388Y-105049766D01*
X213340173Y-104854675D01*
X213335317Y-104830257D01*
X213278412Y-104642664D01*
X213268884Y-104619663D01*
X213176474Y-104446776D01*
X213162642Y-104426075D01*
X213038279Y-104274539D01*
X213029910Y-104265304D01*
X211461102Y-102696496D01*
X211348637Y-102559458D01*
X211268022Y-102408637D01*
X211218376Y-102244976D01*
X211201000Y-102068552D01*
X211201000Y-99298000D01*
X211200388Y-99285552D01*
X211181173Y-99090462D01*
X211176317Y-99066044D01*
X211119412Y-98878451D01*
X211109884Y-98855450D01*
X211017474Y-98682563D01*
X211003642Y-98661862D01*
X210879279Y-98510325D01*
X210861675Y-98492721D01*
X210710138Y-98368358D01*
X210689437Y-98354526D01*
X210516550Y-98262116D01*
X210493549Y-98252588D01*
X210305956Y-98195683D01*
X210281538Y-98190827D01*
X210086448Y-98171612D01*
X210074000Y-98171000D01*
X189214000Y-98171000D01*
X189201552Y-98171612D01*
X189006462Y-98190827D01*
X188982044Y-98195683D01*
X188794451Y-98252588D01*
X188771450Y-98262116D01*
X188598563Y-98354526D01*
X188577862Y-98368358D01*
X188426325Y-98492721D01*
X188408721Y-98510325D01*
X188284358Y-98661862D01*
X188270526Y-98682563D01*
X188178116Y-98855450D01*
X188168588Y-98878451D01*
X188111683Y-99066044D01*
X188106827Y-99090462D01*
X188087612Y-99285552D01*
X188087000Y-99298000D01*
X188087000Y-102068552D01*
X188069624Y-102244976D01*
X188019978Y-102408637D01*
X187939363Y-102559458D01*
X187826898Y-102696496D01*
X186258090Y-104265304D01*
X186249721Y-104274539D01*
X186125358Y-104426075D01*
X186111526Y-104446776D01*
X186019116Y-104619663D01*
X186009588Y-104642664D01*
X185952683Y-104830257D01*
X185947827Y-104854675D01*
X185928612Y-105049766D01*
X185928000Y-105062214D01*
X185928000Y-105830123D01*
X185879883Y-105988743D01*
X185852000Y-106271843D01*
X185852001Y-108062645D01*
X185780362Y-108196672D01*
X185671870Y-108328870D01*
X185539672Y-108437362D01*
X185388850Y-108517978D01*
X185225189Y-108567624D01*
X185048766Y-108585000D01*
X185029234Y-108585000D01*
X184852811Y-108567624D01*
X184689150Y-108517978D01*
X184538328Y-108437362D01*
X184406130Y-108328870D01*
X184297638Y-108196672D01*
X184226000Y-108062647D01*
X184226000Y-106271842D01*
X184198117Y-105988742D01*
X184150000Y-105830122D01*
X184150000Y-105062214D01*
X184149388Y-105049766D01*
X184130173Y-104854675D01*
X184125317Y-104830257D01*
X184068412Y-104642664D01*
X184058884Y-104619663D01*
X183966474Y-104446776D01*
X183952642Y-104426075D01*
X183828279Y-104274539D01*
X183819910Y-104265304D01*
X182251102Y-102696496D01*
X182138637Y-102559458D01*
X182058022Y-102408637D01*
X182008376Y-102244976D01*
X181991000Y-102068552D01*
X181991000Y-99298000D01*
X181990388Y-99285552D01*
X181971173Y-99090462D01*
X181966317Y-99066044D01*
X181909412Y-98878451D01*
X181899884Y-98855450D01*
X181807474Y-98682563D01*
X181793642Y-98661862D01*
X181669279Y-98510325D01*
X181651675Y-98492721D01*
X181500138Y-98368358D01*
X181479437Y-98354526D01*
X181306550Y-98262116D01*
X181283549Y-98252588D01*
X181095956Y-98195683D01*
X181071538Y-98190827D01*
X180876448Y-98171612D01*
X180864000Y-98171000D01*
X160131000Y-98171000D01*
X160118552Y-98171612D01*
X159923462Y-98190827D01*
X159899044Y-98195683D01*
X159711451Y-98252588D01*
X159688450Y-98262116D01*
X159515563Y-98354526D01*
X159494862Y-98368358D01*
X159343325Y-98492721D01*
X159325721Y-98510325D01*
X159201358Y-98661862D01*
X159187526Y-98682563D01*
X159095116Y-98855450D01*
X159085588Y-98878451D01*
X159028683Y-99066044D01*
X159023827Y-99090462D01*
X159004612Y-99285552D01*
X159004000Y-99298000D01*
X159004000Y-102051490D01*
X158985341Y-102234241D01*
X158932085Y-102403264D01*
X158845777Y-102558025D01*
X158725724Y-102697074D01*
X157071175Y-104259702D01*
X157062248Y-104269037D01*
X156929494Y-104422797D01*
X156914705Y-104443936D01*
X156815763Y-104621351D01*
X156805550Y-104645042D01*
X156744503Y-104838791D01*
X156739290Y-104864058D01*
X156718657Y-105066147D01*
X156718000Y-105079046D01*
X156718000Y-105830123D01*
X156669883Y-105988743D01*
X156642000Y-106271843D01*
X156642001Y-108316645D01*
X156570362Y-108450672D01*
X156461870Y-108582870D01*
X156329672Y-108691362D01*
X156178850Y-108771978D01*
X156015189Y-108821624D01*
X155838766Y-108839000D01*
X155819234Y-108839000D01*
X155642811Y-108821624D01*
X155479150Y-108771978D01*
X155328328Y-108691362D01*
X155196130Y-108582870D01*
X155087638Y-108450672D01*
X155016000Y-108316647D01*
X155016000Y-106271842D01*
X154988117Y-105988742D01*
X154940000Y-105830122D01*
X154940000Y-105062214D01*
X154939388Y-105049766D01*
X154920173Y-104854675D01*
X154915317Y-104830257D01*
X154858412Y-104642664D01*
X154848884Y-104619663D01*
X154756474Y-104446776D01*
X154742642Y-104426075D01*
X154618279Y-104274539D01*
X154609910Y-104265304D01*
X153041102Y-102696496D01*
X152928637Y-102559458D01*
X152848022Y-102408637D01*
X152798376Y-102244976D01*
X152781000Y-102068552D01*
X152781000Y-99298000D01*
X152780388Y-99285552D01*
X152761173Y-99090462D01*
X152756317Y-99066044D01*
X152699412Y-98878451D01*
X152689884Y-98855450D01*
X152597474Y-98682563D01*
X152583642Y-98661862D01*
X152459279Y-98510325D01*
X152441675Y-98492721D01*
X152290138Y-98368358D01*
X152269437Y-98354526D01*
X152096550Y-98262116D01*
X152073549Y-98252588D01*
X151885956Y-98195683D01*
X151861538Y-98190827D01*
X151666448Y-98171612D01*
X151654000Y-98171000D01*
X148326234Y-98171000D01*
X148149811Y-98153624D01*
X147986150Y-98103978D01*
X147835328Y-98023362D01*
X147703130Y-97914870D01*
X147594638Y-97782672D01*
X147514022Y-97631850D01*
X147464376Y-97468189D01*
X147447000Y-97291766D01*
X147447000Y-86170414D01*
X153091000Y-86170414D01*
X153091000Y-86707586D01*
X153195797Y-87234437D01*
X153401364Y-87730719D01*
X153699801Y-88177361D01*
X154079639Y-88557199D01*
X154526281Y-88855636D01*
X155022563Y-89061203D01*
X155549414Y-89166000D01*
X156086586Y-89166000D01*
X156613437Y-89061203D01*
X157109719Y-88855636D01*
X157556361Y-88557199D01*
X157936199Y-88177361D01*
X158234636Y-87730719D01*
X158440203Y-87234437D01*
X158545000Y-86707586D01*
X158545000Y-86170414D01*
X182301000Y-86170414D01*
X182301000Y-86707586D01*
X182405797Y-87234437D01*
X182611364Y-87730719D01*
X182909801Y-88177361D01*
X183289639Y-88557199D01*
X183736281Y-88855636D01*
X184232563Y-89061203D01*
X184759414Y-89166000D01*
X185296586Y-89166000D01*
X185823437Y-89061203D01*
X186319719Y-88855636D01*
X186766361Y-88557199D01*
X187146199Y-88177361D01*
X187444636Y-87730719D01*
X187650203Y-87234437D01*
X187755000Y-86707586D01*
X187755000Y-86170414D01*
X211511000Y-86170414D01*
X211511000Y-86707586D01*
X211615797Y-87234437D01*
X211821364Y-87730719D01*
X212119801Y-88177361D01*
X212499639Y-88557199D01*
X212946281Y-88855636D01*
X213442563Y-89061203D01*
X213969414Y-89166000D01*
X214506586Y-89166000D01*
X215033437Y-89061203D01*
X215529719Y-88855636D01*
X215976361Y-88557199D01*
X216356199Y-88177361D01*
X216654636Y-87730719D01*
X216860203Y-87234437D01*
X216965000Y-86707586D01*
X216965000Y-86170414D01*
X216860203Y-85643563D01*
X216654636Y-85147281D01*
X216356199Y-84700639D01*
X215976361Y-84320801D01*
X215529719Y-84022364D01*
X215033437Y-83816797D01*
X214506586Y-83712000D01*
X213969414Y-83712000D01*
X213442563Y-83816797D01*
X212946281Y-84022364D01*
X212499639Y-84320801D01*
X212119801Y-84700639D01*
X211821364Y-85147281D01*
X211615797Y-85643563D01*
X211511000Y-86170414D01*
X187755000Y-86170414D01*
X187650203Y-85643563D01*
X187444636Y-85147281D01*
X187146199Y-84700639D01*
X186766361Y-84320801D01*
X186319719Y-84022364D01*
X185823437Y-83816797D01*
X185296586Y-83712000D01*
X184759414Y-83712000D01*
X184232563Y-83816797D01*
X183736281Y-84022364D01*
X183289639Y-84320801D01*
X182909801Y-84700639D01*
X182611364Y-85147281D01*
X182405797Y-85643563D01*
X182301000Y-86170414D01*
X158545000Y-86170414D01*
X158440203Y-85643563D01*
X158234636Y-85147281D01*
X157936199Y-84700639D01*
X157556361Y-84320801D01*
X157109719Y-84022364D01*
X156613437Y-83816797D01*
X156086586Y-83712000D01*
X155549414Y-83712000D01*
X155022563Y-83816797D01*
X154526281Y-84022364D01*
X154079639Y-84320801D01*
X153699801Y-84700639D01*
X153401364Y-85147281D01*
X153195797Y-85643563D01*
X153091000Y-86170414D01*
X147447000Y-86170414D01*
X147447000Y-80762234D01*
X147464376Y-80585811D01*
X147514022Y-80422150D01*
X147594638Y-80271328D01*
X147703130Y-80139130D01*
X147835328Y-80030638D01*
X147986150Y-79950022D01*
X148149811Y-79900376D01*
X148326234Y-79883000D01*
X221751766Y-79883000D01*
X221928189Y-79900376D01*
G36*
X163508189Y-116095376D02*
G01*
X163671850Y-116145022D01*
X163822672Y-116225638D01*
X163954870Y-116334130D01*
X164063362Y-116466328D01*
X164143978Y-116617150D01*
X164193624Y-116780811D01*
X164211000Y-116957234D01*
X164211000Y-133613766D01*
X164193624Y-133790189D01*
X164143978Y-133953850D01*
X164063362Y-134104672D01*
X163954870Y-134236870D01*
X163822672Y-134345362D01*
X163671850Y-134425978D01*
X163508189Y-134475624D01*
X163331766Y-134493000D01*
X159940043Y-134493000D01*
X159927596Y-134493611D01*
X159732520Y-134512823D01*
X159708103Y-134517680D01*
X159520522Y-134574578D01*
X159497523Y-134584104D01*
X159324645Y-134676501D01*
X159303945Y-134690331D01*
X159152413Y-134814677D01*
X159134809Y-134832279D01*
X159010446Y-134983797D01*
X158996614Y-135004495D01*
X158904197Y-135177362D01*
X158894668Y-135200361D01*
X158837749Y-135387936D01*
X158832890Y-135412351D01*
X158813656Y-135607425D01*
X158813043Y-135619873D01*
X158812760Y-138136602D01*
X158795367Y-138313005D01*
X158745719Y-138476635D01*
X158665108Y-138627431D01*
X158552658Y-138764448D01*
X156983802Y-140333304D01*
X156975433Y-140342539D01*
X156851070Y-140494075D01*
X156837238Y-140514776D01*
X156744828Y-140687663D01*
X156735300Y-140710664D01*
X156678395Y-140898257D01*
X156673539Y-140922675D01*
X156654324Y-141117766D01*
X156653712Y-141130214D01*
X156653712Y-143773766D01*
X156636336Y-143950189D01*
X156586690Y-144113850D01*
X156506074Y-144264672D01*
X156397582Y-144396870D01*
X156265384Y-144505362D01*
X156114562Y-144585978D01*
X155950901Y-144635624D01*
X155774478Y-144653000D01*
X155754946Y-144653000D01*
X155578523Y-144635624D01*
X155414862Y-144585978D01*
X155264040Y-144505362D01*
X155131842Y-144396870D01*
X155023350Y-144264672D01*
X154942734Y-144113850D01*
X154893088Y-143950189D01*
X154875712Y-143773766D01*
X154875712Y-141130214D01*
X154875100Y-141117766D01*
X154855885Y-140922675D01*
X154851029Y-140898257D01*
X154794124Y-140710664D01*
X154784596Y-140687663D01*
X154692186Y-140514776D01*
X154678354Y-140494075D01*
X154553991Y-140342539D01*
X154545622Y-140333304D01*
X152976862Y-138764544D01*
X152864383Y-138627485D01*
X152783761Y-138476635D01*
X152734122Y-138312956D01*
X152716760Y-138136491D01*
X152717043Y-135620127D01*
X152716433Y-135607679D01*
X152697238Y-135412572D01*
X152692383Y-135388151D01*
X152635490Y-135200540D01*
X152625964Y-135177537D01*
X152533561Y-135004630D01*
X152519729Y-134983926D01*
X152395367Y-134832371D01*
X152377763Y-134814765D01*
X152226222Y-134690386D01*
X152205520Y-134676552D01*
X152032624Y-134584129D01*
X152009622Y-134574600D01*
X151822016Y-134517686D01*
X151797596Y-134512829D01*
X151602492Y-134493612D01*
X151590043Y-134493000D01*
X148326234Y-134493000D01*
X148149811Y-134475624D01*
X147986150Y-134425978D01*
X147835328Y-134345362D01*
X147703130Y-134236870D01*
X147594638Y-134104672D01*
X147514022Y-133953850D01*
X147464376Y-133790189D01*
X147447000Y-133613766D01*
X147447000Y-122394173D01*
X153383000Y-122394173D01*
X153383000Y-122873827D01*
X153476576Y-123344263D01*
X153660131Y-123787405D01*
X153926612Y-124186222D01*
X154265778Y-124525388D01*
X154664595Y-124791869D01*
X155107737Y-124975424D01*
X155578173Y-125069000D01*
X156057827Y-125069000D01*
X156528263Y-124975424D01*
X156971405Y-124791869D01*
X157370222Y-124525388D01*
X157709388Y-124186222D01*
X157975869Y-123787405D01*
X158159424Y-123344263D01*
X158253000Y-122873827D01*
X158253000Y-122394173D01*
X158159424Y-121923737D01*
X157975869Y-121480595D01*
X157709388Y-121081778D01*
X157370222Y-120742612D01*
X156971405Y-120476131D01*
X156528263Y-120292576D01*
X156057827Y-120199000D01*
X155578173Y-120199000D01*
X155107737Y-120292576D01*
X154664595Y-120476131D01*
X154265778Y-120742612D01*
X153926612Y-121081778D01*
X153660131Y-121480595D01*
X153476576Y-121923737D01*
X153383000Y-122394173D01*
X147447000Y-122394173D01*
X147447000Y-116957234D01*
X147464376Y-116780811D01*
X147514022Y-116617150D01*
X147594638Y-116466328D01*
X147703130Y-116334130D01*
X147835328Y-116225638D01*
X147986150Y-116145022D01*
X148149811Y-116095376D01*
X148326234Y-116078000D01*
X163331766Y-116078000D01*
X163508189Y-116095376D01*
G37*
X163508189Y-116095376D02*
X163671850Y-116145022D01*
X163822672Y-116225638D01*
X163954870Y-116334130D01*
X164063362Y-116466328D01*
X164143978Y-116617150D01*
X164193624Y-116780811D01*
X164211000Y-116957234D01*
X164211000Y-133613766D01*
X164193624Y-133790189D01*
X164143978Y-133953850D01*
X164063362Y-134104672D01*
X163954870Y-134236870D01*
X163822672Y-134345362D01*
X163671850Y-134425978D01*
X163508189Y-134475624D01*
X163331766Y-134493000D01*
X159940043Y-134493000D01*
X159927596Y-134493611D01*
X159732520Y-134512823D01*
X159708103Y-134517680D01*
X159520522Y-134574578D01*
X159497523Y-134584104D01*
X159324645Y-134676501D01*
X159303945Y-134690331D01*
X159152413Y-134814677D01*
X159134809Y-134832279D01*
X159010446Y-134983797D01*
X158996614Y-135004495D01*
X158904197Y-135177362D01*
X158894668Y-135200361D01*
X158837749Y-135387936D01*
X158832890Y-135412351D01*
X158813656Y-135607425D01*
X158813043Y-135619873D01*
X158812760Y-138136602D01*
X158795367Y-138313005D01*
X158745719Y-138476635D01*
X158665108Y-138627431D01*
X158552658Y-138764448D01*
X156983802Y-140333304D01*
X156975433Y-140342539D01*
X156851070Y-140494075D01*
X156837238Y-140514776D01*
X156744828Y-140687663D01*
X156735300Y-140710664D01*
X156678395Y-140898257D01*
X156673539Y-140922675D01*
X156654324Y-141117766D01*
X156653712Y-141130214D01*
X156653712Y-143773766D01*
X156636336Y-143950189D01*
X156586690Y-144113850D01*
X156506074Y-144264672D01*
X156397582Y-144396870D01*
X156265384Y-144505362D01*
X156114562Y-144585978D01*
X155950901Y-144635624D01*
X155774478Y-144653000D01*
X155754946Y-144653000D01*
X155578523Y-144635624D01*
X155414862Y-144585978D01*
X155264040Y-144505362D01*
X155131842Y-144396870D01*
X155023350Y-144264672D01*
X154942734Y-144113850D01*
X154893088Y-143950189D01*
X154875712Y-143773766D01*
X154875712Y-141130214D01*
X154875100Y-141117766D01*
X154855885Y-140922675D01*
X154851029Y-140898257D01*
X154794124Y-140710664D01*
X154784596Y-140687663D01*
X154692186Y-140514776D01*
X154678354Y-140494075D01*
X154553991Y-140342539D01*
X154545622Y-140333304D01*
X152976862Y-138764544D01*
X152864383Y-138627485D01*
X152783761Y-138476635D01*
X152734122Y-138312956D01*
X152716760Y-138136491D01*
X152717043Y-135620127D01*
X152716433Y-135607679D01*
X152697238Y-135412572D01*
X152692383Y-135388151D01*
X152635490Y-135200540D01*
X152625964Y-135177537D01*
X152533561Y-135004630D01*
X152519729Y-134983926D01*
X152395367Y-134832371D01*
X152377763Y-134814765D01*
X152226222Y-134690386D01*
X152205520Y-134676552D01*
X152032624Y-134584129D01*
X152009622Y-134574600D01*
X151822016Y-134517686D01*
X151797596Y-134512829D01*
X151602492Y-134493612D01*
X151590043Y-134493000D01*
X148326234Y-134493000D01*
X148149811Y-134475624D01*
X147986150Y-134425978D01*
X147835328Y-134345362D01*
X147703130Y-134236870D01*
X147594638Y-134104672D01*
X147514022Y-133953850D01*
X147464376Y-133790189D01*
X147447000Y-133613766D01*
X147447000Y-122394173D01*
X153383000Y-122394173D01*
X153383000Y-122873827D01*
X153476576Y-123344263D01*
X153660131Y-123787405D01*
X153926612Y-124186222D01*
X154265778Y-124525388D01*
X154664595Y-124791869D01*
X155107737Y-124975424D01*
X155578173Y-125069000D01*
X156057827Y-125069000D01*
X156528263Y-124975424D01*
X156971405Y-124791869D01*
X157370222Y-124525388D01*
X157709388Y-124186222D01*
X157975869Y-123787405D01*
X158159424Y-123344263D01*
X158253000Y-122873827D01*
X158253000Y-122394173D01*
X158159424Y-121923737D01*
X157975869Y-121480595D01*
X157709388Y-121081778D01*
X157370222Y-120742612D01*
X156971405Y-120476131D01*
X156528263Y-120292576D01*
X156057827Y-120199000D01*
X155578173Y-120199000D01*
X155107737Y-120292576D01*
X154664595Y-120476131D01*
X154265778Y-120742612D01*
X153926612Y-121081778D01*
X153660131Y-121480595D01*
X153476576Y-121923737D01*
X153383000Y-122394173D01*
X147447000Y-122394173D01*
X147447000Y-116957234D01*
X147464376Y-116780811D01*
X147514022Y-116617150D01*
X147594638Y-116466328D01*
X147703130Y-116334130D01*
X147835328Y-116225638D01*
X147986150Y-116145022D01*
X148149811Y-116095376D01*
X148326234Y-116078000D01*
X163331766Y-116078000D01*
X163508189Y-116095376D01*
G36*
X192718189Y-116095376D02*
G01*
X192881850Y-116145022D01*
X193032672Y-116225638D01*
X193164870Y-116334130D01*
X193273362Y-116466328D01*
X193353978Y-116617150D01*
X193403624Y-116780811D01*
X193421000Y-116957234D01*
X193421000Y-133613766D01*
X193403624Y-133790189D01*
X193353978Y-133953850D01*
X193273362Y-134104672D01*
X193164870Y-134236870D01*
X193032672Y-134345362D01*
X192881850Y-134425978D01*
X192718189Y-134475624D01*
X192541766Y-134493000D01*
X189214000Y-134493000D01*
X189201552Y-134493612D01*
X189006462Y-134512827D01*
X188982044Y-134517683D01*
X188794451Y-134574588D01*
X188771450Y-134584116D01*
X188598563Y-134676526D01*
X188577862Y-134690358D01*
X188426325Y-134814721D01*
X188408721Y-134832325D01*
X188284358Y-134983862D01*
X188270526Y-135004563D01*
X188178116Y-135177450D01*
X188168588Y-135200451D01*
X188111683Y-135388044D01*
X188106827Y-135412462D01*
X188087612Y-135607552D01*
X188087000Y-135620000D01*
X188087000Y-138154313D01*
X188069624Y-138330737D01*
X188019978Y-138494398D01*
X187939363Y-138645219D01*
X187826898Y-138782257D01*
X186258090Y-140351065D01*
X186249721Y-140360300D01*
X186125358Y-140511836D01*
X186111526Y-140532537D01*
X186019116Y-140705424D01*
X186009588Y-140728425D01*
X185952683Y-140916018D01*
X185947827Y-140940436D01*
X185928612Y-141135527D01*
X185928000Y-141147975D01*
X185928000Y-143791527D01*
X185910624Y-143967950D01*
X185860978Y-144131611D01*
X185780362Y-144282433D01*
X185671870Y-144414631D01*
X185539672Y-144523123D01*
X185388850Y-144603739D01*
X185225189Y-144653385D01*
X185048766Y-144670761D01*
X185029234Y-144670761D01*
X184852811Y-144653385D01*
X184689150Y-144603739D01*
X184538328Y-144523123D01*
X184406130Y-144414631D01*
X184297638Y-144282433D01*
X184217022Y-144131611D01*
X184167376Y-143967950D01*
X184150000Y-143791527D01*
X184150000Y-141147975D01*
X184149388Y-141135527D01*
X184130173Y-140940436D01*
X184125317Y-140916018D01*
X184068412Y-140728425D01*
X184058884Y-140705424D01*
X183966474Y-140532537D01*
X183952642Y-140511836D01*
X183828279Y-140360300D01*
X183819910Y-140351065D01*
X182251102Y-138782257D01*
X182138637Y-138645219D01*
X182058022Y-138494398D01*
X182008376Y-138330737D01*
X181991000Y-138154313D01*
X181991000Y-135620000D01*
X181990388Y-135607552D01*
X181971173Y-135412462D01*
X181966317Y-135388044D01*
X181909412Y-135200451D01*
X181899884Y-135177450D01*
X181807474Y-135004563D01*
X181793642Y-134983862D01*
X181669279Y-134832325D01*
X181651675Y-134814721D01*
X181500138Y-134690358D01*
X181479437Y-134676526D01*
X181306550Y-134584116D01*
X181283549Y-134574588D01*
X181095956Y-134517683D01*
X181071538Y-134512827D01*
X180876448Y-134493612D01*
X180864000Y-134493000D01*
X177536234Y-134493000D01*
X177359811Y-134475624D01*
X177196150Y-134425978D01*
X177045328Y-134345362D01*
X176913130Y-134236870D01*
X176804638Y-134104672D01*
X176724022Y-133953850D01*
X176674376Y-133790189D01*
X176657000Y-133613766D01*
X176657000Y-122394173D01*
X182593000Y-122394173D01*
X182593000Y-122873827D01*
X182686576Y-123344263D01*
X182870131Y-123787405D01*
X183136612Y-124186222D01*
X183475778Y-124525388D01*
X183874595Y-124791869D01*
X184317737Y-124975424D01*
X184788173Y-125069000D01*
X185267827Y-125069000D01*
X185738263Y-124975424D01*
X186181405Y-124791869D01*
X186580222Y-124525388D01*
X186919388Y-124186222D01*
X187185869Y-123787405D01*
X187369424Y-123344263D01*
X187463000Y-122873827D01*
X187463000Y-122394173D01*
X187369424Y-121923737D01*
X187185869Y-121480595D01*
X186919388Y-121081778D01*
X186580222Y-120742612D01*
X186181405Y-120476131D01*
X185738263Y-120292576D01*
X185267827Y-120199000D01*
X184788173Y-120199000D01*
X184317737Y-120292576D01*
X183874595Y-120476131D01*
X183475778Y-120742612D01*
X183136612Y-121081778D01*
X182870131Y-121480595D01*
X182686576Y-121923737D01*
X182593000Y-122394173D01*
X176657000Y-122394173D01*
X176657000Y-116957234D01*
X176674376Y-116780811D01*
X176724022Y-116617150D01*
X176804638Y-116466328D01*
X176913130Y-116334130D01*
X177045328Y-116225638D01*
X177196150Y-116145022D01*
X177359811Y-116095376D01*
X177536234Y-116078000D01*
X192541766Y-116078000D01*
X192718189Y-116095376D01*
G37*
X192718189Y-116095376D02*
X192881850Y-116145022D01*
X193032672Y-116225638D01*
X193164870Y-116334130D01*
X193273362Y-116466328D01*
X193353978Y-116617150D01*
X193403624Y-116780811D01*
X193421000Y-116957234D01*
X193421000Y-133613766D01*
X193403624Y-133790189D01*
X193353978Y-133953850D01*
X193273362Y-134104672D01*
X193164870Y-134236870D01*
X193032672Y-134345362D01*
X192881850Y-134425978D01*
X192718189Y-134475624D01*
X192541766Y-134493000D01*
X189214000Y-134493000D01*
X189201552Y-134493612D01*
X189006462Y-134512827D01*
X188982044Y-134517683D01*
X188794451Y-134574588D01*
X188771450Y-134584116D01*
X188598563Y-134676526D01*
X188577862Y-134690358D01*
X188426325Y-134814721D01*
X188408721Y-134832325D01*
X188284358Y-134983862D01*
X188270526Y-135004563D01*
X188178116Y-135177450D01*
X188168588Y-135200451D01*
X188111683Y-135388044D01*
X188106827Y-135412462D01*
X188087612Y-135607552D01*
X188087000Y-135620000D01*
X188087000Y-138154313D01*
X188069624Y-138330737D01*
X188019978Y-138494398D01*
X187939363Y-138645219D01*
X187826898Y-138782257D01*
X186258090Y-140351065D01*
X186249721Y-140360300D01*
X186125358Y-140511836D01*
X186111526Y-140532537D01*
X186019116Y-140705424D01*
X186009588Y-140728425D01*
X185952683Y-140916018D01*
X185947827Y-140940436D01*
X185928612Y-141135527D01*
X185928000Y-141147975D01*
X185928000Y-143791527D01*
X185910624Y-143967950D01*
X185860978Y-144131611D01*
X185780362Y-144282433D01*
X185671870Y-144414631D01*
X185539672Y-144523123D01*
X185388850Y-144603739D01*
X185225189Y-144653385D01*
X185048766Y-144670761D01*
X185029234Y-144670761D01*
X184852811Y-144653385D01*
X184689150Y-144603739D01*
X184538328Y-144523123D01*
X184406130Y-144414631D01*
X184297638Y-144282433D01*
X184217022Y-144131611D01*
X184167376Y-143967950D01*
X184150000Y-143791527D01*
X184150000Y-141147975D01*
X184149388Y-141135527D01*
X184130173Y-140940436D01*
X184125317Y-140916018D01*
X184068412Y-140728425D01*
X184058884Y-140705424D01*
X183966474Y-140532537D01*
X183952642Y-140511836D01*
X183828279Y-140360300D01*
X183819910Y-140351065D01*
X182251102Y-138782257D01*
X182138637Y-138645219D01*
X182058022Y-138494398D01*
X182008376Y-138330737D01*
X181991000Y-138154313D01*
X181991000Y-135620000D01*
X181990388Y-135607552D01*
X181971173Y-135412462D01*
X181966317Y-135388044D01*
X181909412Y-135200451D01*
X181899884Y-135177450D01*
X181807474Y-135004563D01*
X181793642Y-134983862D01*
X181669279Y-134832325D01*
X181651675Y-134814721D01*
X181500138Y-134690358D01*
X181479437Y-134676526D01*
X181306550Y-134584116D01*
X181283549Y-134574588D01*
X181095956Y-134517683D01*
X181071538Y-134512827D01*
X180876448Y-134493612D01*
X180864000Y-134493000D01*
X177536234Y-134493000D01*
X177359811Y-134475624D01*
X177196150Y-134425978D01*
X177045328Y-134345362D01*
X176913130Y-134236870D01*
X176804638Y-134104672D01*
X176724022Y-133953850D01*
X176674376Y-133790189D01*
X176657000Y-133613766D01*
X176657000Y-122394173D01*
X182593000Y-122394173D01*
X182593000Y-122873827D01*
X182686576Y-123344263D01*
X182870131Y-123787405D01*
X183136612Y-124186222D01*
X183475778Y-124525388D01*
X183874595Y-124791869D01*
X184317737Y-124975424D01*
X184788173Y-125069000D01*
X185267827Y-125069000D01*
X185738263Y-124975424D01*
X186181405Y-124791869D01*
X186580222Y-124525388D01*
X186919388Y-124186222D01*
X187185869Y-123787405D01*
X187369424Y-123344263D01*
X187463000Y-122873827D01*
X187463000Y-122394173D01*
X187369424Y-121923737D01*
X187185869Y-121480595D01*
X186919388Y-121081778D01*
X186580222Y-120742612D01*
X186181405Y-120476131D01*
X185738263Y-120292576D01*
X185267827Y-120199000D01*
X184788173Y-120199000D01*
X184317737Y-120292576D01*
X183874595Y-120476131D01*
X183475778Y-120742612D01*
X183136612Y-121081778D01*
X182870131Y-121480595D01*
X182686576Y-121923737D01*
X182593000Y-122394173D01*
X176657000Y-122394173D01*
X176657000Y-116957234D01*
X176674376Y-116780811D01*
X176724022Y-116617150D01*
X176804638Y-116466328D01*
X176913130Y-116334130D01*
X177045328Y-116225638D01*
X177196150Y-116145022D01*
X177359811Y-116095376D01*
X177536234Y-116078000D01*
X192541766Y-116078000D01*
X192718189Y-116095376D01*
G36*
X221928189Y-116095376D02*
G01*
X222091850Y-116145022D01*
X222242672Y-116225638D01*
X222374870Y-116334130D01*
X222483362Y-116466328D01*
X222563978Y-116617150D01*
X222613624Y-116780811D01*
X222631000Y-116957234D01*
X222631000Y-133733237D01*
X222613458Y-133910501D01*
X222563349Y-134074860D01*
X222482000Y-134226203D01*
X222372559Y-134358672D01*
X222239280Y-134467118D01*
X222087330Y-134547338D01*
X221922598Y-134596221D01*
X221745217Y-134612439D01*
X218432410Y-134587716D01*
X218419898Y-134588240D01*
X218223754Y-134606174D01*
X218199189Y-134610893D01*
X218010364Y-134666925D01*
X217987201Y-134676368D01*
X217813022Y-134768323D01*
X217792159Y-134782123D01*
X217639382Y-134906434D01*
X217621628Y-134924056D01*
X217496179Y-135075902D01*
X217482224Y-135096662D01*
X217388972Y-135270150D01*
X217379356Y-135293242D01*
X217321917Y-135481643D01*
X217317014Y-135506172D01*
X217297617Y-135702178D01*
X217297000Y-135714685D01*
X217297000Y-138136552D01*
X217279624Y-138312976D01*
X217229978Y-138476637D01*
X217149363Y-138627458D01*
X217036898Y-138764496D01*
X215468090Y-140333304D01*
X215459721Y-140342539D01*
X215335358Y-140494075D01*
X215321526Y-140514776D01*
X215229116Y-140687663D01*
X215219588Y-140710664D01*
X215162683Y-140898257D01*
X215157827Y-140922675D01*
X215138612Y-141117766D01*
X215138000Y-141130214D01*
X215138000Y-143773766D01*
X215120624Y-143950189D01*
X215070978Y-144113850D01*
X214990362Y-144264672D01*
X214881870Y-144396870D01*
X214749672Y-144505362D01*
X214598850Y-144585978D01*
X214435189Y-144635624D01*
X214258766Y-144653000D01*
X214239234Y-144653000D01*
X214062811Y-144635624D01*
X213899150Y-144585978D01*
X213748328Y-144505362D01*
X213616130Y-144396870D01*
X213507638Y-144264672D01*
X213427022Y-144113850D01*
X213377376Y-143950189D01*
X213360000Y-143773766D01*
X213360000Y-141130214D01*
X213359388Y-141117766D01*
X213340173Y-140922675D01*
X213335317Y-140898257D01*
X213278412Y-140710664D01*
X213268884Y-140687663D01*
X213176474Y-140514776D01*
X213162642Y-140494075D01*
X213038279Y-140342539D01*
X213029910Y-140333304D01*
X211461102Y-138764496D01*
X211348637Y-138627458D01*
X211268022Y-138476637D01*
X211218376Y-138312976D01*
X211201000Y-138136552D01*
X211201000Y-135652371D01*
X211200394Y-135639982D01*
X211181361Y-135445807D01*
X211176550Y-135421500D01*
X211120175Y-135234716D01*
X211110735Y-135211806D01*
X211019164Y-135039524D01*
X211005456Y-135018883D01*
X210882175Y-134867661D01*
X210864719Y-134850075D01*
X210714421Y-134725669D01*
X210693883Y-134711807D01*
X210522289Y-134618953D01*
X210499450Y-134609342D01*
X210313092Y-134551575D01*
X210288822Y-134546583D01*
X210094794Y-134526101D01*
X210082410Y-134525403D01*
X206739697Y-134500457D01*
X206564224Y-134481934D01*
X206401642Y-134431537D01*
X206251948Y-134350534D01*
X206120831Y-134242004D01*
X206013278Y-134110076D01*
X205933395Y-133959782D01*
X205884212Y-133796830D01*
X205867000Y-133621228D01*
X205867000Y-122394173D01*
X211803000Y-122394173D01*
X211803000Y-122873827D01*
X211896576Y-123344263D01*
X212080131Y-123787405D01*
X212346612Y-124186222D01*
X212685778Y-124525388D01*
X213084595Y-124791869D01*
X213527737Y-124975424D01*
X213998173Y-125069000D01*
X214477827Y-125069000D01*
X214948263Y-124975424D01*
X215391405Y-124791869D01*
X215790222Y-124525388D01*
X216129388Y-124186222D01*
X216395869Y-123787405D01*
X216579424Y-123344263D01*
X216673000Y-122873827D01*
X216673000Y-122394173D01*
X216579424Y-121923737D01*
X216395869Y-121480595D01*
X216129388Y-121081778D01*
X215790222Y-120742612D01*
X215391405Y-120476131D01*
X214948263Y-120292576D01*
X214477827Y-120199000D01*
X213998173Y-120199000D01*
X213527737Y-120292576D01*
X213084595Y-120476131D01*
X212685778Y-120742612D01*
X212346612Y-121081778D01*
X212080131Y-121480595D01*
X211896576Y-121923737D01*
X211803000Y-122394173D01*
X205867000Y-122394173D01*
X205867000Y-116957234D01*
X205884376Y-116780811D01*
X205934022Y-116617150D01*
X206014638Y-116466328D01*
X206123130Y-116334130D01*
X206255328Y-116225638D01*
X206406150Y-116145022D01*
X206569811Y-116095376D01*
X206746234Y-116078000D01*
X221751766Y-116078000D01*
X221928189Y-116095376D01*
G37*
X221928189Y-116095376D02*
X222091850Y-116145022D01*
X222242672Y-116225638D01*
X222374870Y-116334130D01*
X222483362Y-116466328D01*
X222563978Y-116617150D01*
X222613624Y-116780811D01*
X222631000Y-116957234D01*
X222631000Y-133733237D01*
X222613458Y-133910501D01*
X222563349Y-134074860D01*
X222482000Y-134226203D01*
X222372559Y-134358672D01*
X222239280Y-134467118D01*
X222087330Y-134547338D01*
X221922598Y-134596221D01*
X221745217Y-134612439D01*
X218432410Y-134587716D01*
X218419898Y-134588240D01*
X218223754Y-134606174D01*
X218199189Y-134610893D01*
X218010364Y-134666925D01*
X217987201Y-134676368D01*
X217813022Y-134768323D01*
X217792159Y-134782123D01*
X217639382Y-134906434D01*
X217621628Y-134924056D01*
X217496179Y-135075902D01*
X217482224Y-135096662D01*
X217388972Y-135270150D01*
X217379356Y-135293242D01*
X217321917Y-135481643D01*
X217317014Y-135506172D01*
X217297617Y-135702178D01*
X217297000Y-135714685D01*
X217297000Y-138136552D01*
X217279624Y-138312976D01*
X217229978Y-138476637D01*
X217149363Y-138627458D01*
X217036898Y-138764496D01*
X215468090Y-140333304D01*
X215459721Y-140342539D01*
X215335358Y-140494075D01*
X215321526Y-140514776D01*
X215229116Y-140687663D01*
X215219588Y-140710664D01*
X215162683Y-140898257D01*
X215157827Y-140922675D01*
X215138612Y-141117766D01*
X215138000Y-141130214D01*
X215138000Y-143773766D01*
X215120624Y-143950189D01*
X215070978Y-144113850D01*
X214990362Y-144264672D01*
X214881870Y-144396870D01*
X214749672Y-144505362D01*
X214598850Y-144585978D01*
X214435189Y-144635624D01*
X214258766Y-144653000D01*
X214239234Y-144653000D01*
X214062811Y-144635624D01*
X213899150Y-144585978D01*
X213748328Y-144505362D01*
X213616130Y-144396870D01*
X213507638Y-144264672D01*
X213427022Y-144113850D01*
X213377376Y-143950189D01*
X213360000Y-143773766D01*
X213360000Y-141130214D01*
X213359388Y-141117766D01*
X213340173Y-140922675D01*
X213335317Y-140898257D01*
X213278412Y-140710664D01*
X213268884Y-140687663D01*
X213176474Y-140514776D01*
X213162642Y-140494075D01*
X213038279Y-140342539D01*
X213029910Y-140333304D01*
X211461102Y-138764496D01*
X211348637Y-138627458D01*
X211268022Y-138476637D01*
X211218376Y-138312976D01*
X211201000Y-138136552D01*
X211201000Y-135652371D01*
X211200394Y-135639982D01*
X211181361Y-135445807D01*
X211176550Y-135421500D01*
X211120175Y-135234716D01*
X211110735Y-135211806D01*
X211019164Y-135039524D01*
X211005456Y-135018883D01*
X210882175Y-134867661D01*
X210864719Y-134850075D01*
X210714421Y-134725669D01*
X210693883Y-134711807D01*
X210522289Y-134618953D01*
X210499450Y-134609342D01*
X210313092Y-134551575D01*
X210288822Y-134546583D01*
X210094794Y-134526101D01*
X210082410Y-134525403D01*
X206739697Y-134500457D01*
X206564224Y-134481934D01*
X206401642Y-134431537D01*
X206251948Y-134350534D01*
X206120831Y-134242004D01*
X206013278Y-134110076D01*
X205933395Y-133959782D01*
X205884212Y-133796830D01*
X205867000Y-133621228D01*
X205867000Y-122394173D01*
X211803000Y-122394173D01*
X211803000Y-122873827D01*
X211896576Y-123344263D01*
X212080131Y-123787405D01*
X212346612Y-124186222D01*
X212685778Y-124525388D01*
X213084595Y-124791869D01*
X213527737Y-124975424D01*
X213998173Y-125069000D01*
X214477827Y-125069000D01*
X214948263Y-124975424D01*
X215391405Y-124791869D01*
X215790222Y-124525388D01*
X216129388Y-124186222D01*
X216395869Y-123787405D01*
X216579424Y-123344263D01*
X216673000Y-122873827D01*
X216673000Y-122394173D01*
X216579424Y-121923737D01*
X216395869Y-121480595D01*
X216129388Y-121081778D01*
X215790222Y-120742612D01*
X215391405Y-120476131D01*
X214948263Y-120292576D01*
X214477827Y-120199000D01*
X213998173Y-120199000D01*
X213527737Y-120292576D01*
X213084595Y-120476131D01*
X212685778Y-120742612D01*
X212346612Y-121081778D01*
X212080131Y-121480595D01*
X211896576Y-121923737D01*
X211803000Y-122394173D01*
X205867000Y-122394173D01*
X205867000Y-116957234D01*
X205884376Y-116780811D01*
X205934022Y-116617150D01*
X206014638Y-116466328D01*
X206123130Y-116334130D01*
X206255328Y-116225638D01*
X206406150Y-116145022D01*
X206569811Y-116095376D01*
X206746234Y-116078000D01*
X221751766Y-116078000D01*
X221928189Y-116095376D01*
G36*
X155582036Y-59753631D02*
G01*
X154938870Y-60716197D01*
X154495850Y-61785742D01*
X154270000Y-62921166D01*
X154270000Y-64078834D01*
X154495850Y-65214258D01*
X154938870Y-66283803D01*
X155582036Y-67246369D01*
X156400631Y-68064964D01*
X157363197Y-68708130D01*
X158432742Y-69151150D01*
X159568166Y-69377000D01*
X160725834Y-69377000D01*
X161861258Y-69151150D01*
X162930803Y-68708130D01*
X163893369Y-68064964D01*
X164711964Y-67246369D01*
X165355130Y-66283803D01*
X165798150Y-65214258D01*
X166024000Y-64078834D01*
X166024000Y-62921166D01*
X165798150Y-61785742D01*
X165355130Y-60716197D01*
X164711964Y-59753631D01*
X164698333Y-59740000D01*
X186456447Y-59740000D01*
X185926726Y-60093948D01*
X185315948Y-60704726D01*
X184836064Y-61422924D01*
X184505513Y-62220943D01*
X184337000Y-63068115D01*
X184337000Y-63931885D01*
X184505513Y-64779057D01*
X184836064Y-65577076D01*
X185315948Y-66295274D01*
X185926726Y-66906052D01*
X186644924Y-67385936D01*
X187442943Y-67716487D01*
X188290115Y-67885000D01*
X189153885Y-67885000D01*
X190001057Y-67716487D01*
X190799076Y-67385936D01*
X191517274Y-66906052D01*
X192128052Y-66295274D01*
X192607936Y-65577076D01*
X192938487Y-64779057D01*
X193107000Y-63931885D01*
X193107000Y-63068115D01*
X192938487Y-62220943D01*
X192607936Y-61422924D01*
X192128052Y-60704726D01*
X191517274Y-60093948D01*
X190987553Y-59740000D01*
X197124447Y-59740000D01*
X196594726Y-60093948D01*
X195983948Y-60704726D01*
X195504064Y-61422924D01*
X195173513Y-62220943D01*
X195005000Y-63068115D01*
X195005000Y-63931885D01*
X195173513Y-64779057D01*
X195504064Y-65577076D01*
X195983948Y-66295274D01*
X196594726Y-66906052D01*
X197312924Y-67385936D01*
X198110943Y-67716487D01*
X198958115Y-67885000D01*
X199821885Y-67885000D01*
X200669057Y-67716487D01*
X201467076Y-67385936D01*
X202185274Y-66906052D01*
X202796052Y-66295274D01*
X203275936Y-65577076D01*
X203606487Y-64779057D01*
X203775000Y-63931885D01*
X203775000Y-63068115D01*
X203606487Y-62220943D01*
X203275936Y-61422924D01*
X202796052Y-60704726D01*
X202185274Y-60093948D01*
X201655553Y-59740000D01*
X207665447Y-59740000D01*
X207135726Y-60093948D01*
X206524948Y-60704726D01*
X206045064Y-61422924D01*
X205714513Y-62220943D01*
X205546000Y-63068115D01*
X205546000Y-63931885D01*
X205714513Y-64779057D01*
X206045064Y-65577076D01*
X206524948Y-66295274D01*
X207135726Y-66906052D01*
X207853924Y-67385936D01*
X208651943Y-67716487D01*
X209499115Y-67885000D01*
X210362885Y-67885000D01*
X211210057Y-67716487D01*
X212008076Y-67385936D01*
X212726274Y-66906052D01*
X213337052Y-66295274D01*
X213816936Y-65577076D01*
X214147487Y-64779057D01*
X214316000Y-63931885D01*
X214316000Y-63068115D01*
X214147487Y-62220943D01*
X213816936Y-61422924D01*
X213337052Y-60704726D01*
X212726274Y-60093948D01*
X212196553Y-59740000D01*
X228569495Y-59740000D01*
X229377803Y-59812139D01*
X230131023Y-60018197D01*
X230835852Y-60354384D01*
X231470002Y-60810065D01*
X232013441Y-61370851D01*
X232448981Y-62019001D01*
X232762862Y-62734043D01*
X232946424Y-63498636D01*
X232995000Y-64160112D01*
X232995001Y-150972483D01*
X232922861Y-151780805D01*
X232716803Y-152534023D01*
X232380616Y-153238852D01*
X231924932Y-153873005D01*
X231364149Y-154416441D01*
X230715996Y-154851982D01*
X230000956Y-155165863D01*
X229236364Y-155349424D01*
X228574887Y-155398000D01*
X166875829Y-155398000D01*
X166818022Y-155289850D01*
X166768376Y-155126189D01*
X166751000Y-154949766D01*
X166751000Y-140868061D01*
X169018000Y-140868061D01*
X169018000Y-141071939D01*
X169057774Y-141271898D01*
X169135795Y-141460256D01*
X169249063Y-141629774D01*
X169393226Y-141773937D01*
X169562744Y-141887205D01*
X169751102Y-141965226D01*
X169951061Y-142005000D01*
X170154939Y-142005000D01*
X170354898Y-141965226D01*
X170543256Y-141887205D01*
X170712774Y-141773937D01*
X170856937Y-141629774D01*
X170970205Y-141460256D01*
X171048226Y-141271898D01*
X171088000Y-141071939D01*
X171088000Y-140868061D01*
X171048226Y-140668102D01*
X170970205Y-140479744D01*
X170856937Y-140310226D01*
X170712774Y-140166063D01*
X170543256Y-140052795D01*
X170354898Y-139974774D01*
X170154939Y-139935000D01*
X169951061Y-139935000D01*
X169751102Y-139974774D01*
X169562744Y-140052795D01*
X169393226Y-140166063D01*
X169249063Y-140310226D01*
X169135795Y-140479744D01*
X169057774Y-140668102D01*
X169018000Y-140868061D01*
X166751000Y-140868061D01*
X166751000Y-130708061D01*
X169018000Y-130708061D01*
X169018000Y-130911939D01*
X169057774Y-131111898D01*
X169135795Y-131300256D01*
X169249063Y-131469774D01*
X169393226Y-131613937D01*
X169562744Y-131727205D01*
X169751102Y-131805226D01*
X169951061Y-131845000D01*
X170154939Y-131845000D01*
X170354898Y-131805226D01*
X170543256Y-131727205D01*
X170712774Y-131613937D01*
X170856937Y-131469774D01*
X170970205Y-131300256D01*
X171048226Y-131111898D01*
X171088000Y-130911939D01*
X171088000Y-130708061D01*
X171048226Y-130508102D01*
X170970205Y-130319744D01*
X170856937Y-130150226D01*
X170712774Y-130006063D01*
X170543256Y-129892795D01*
X170354898Y-129814774D01*
X170154939Y-129775000D01*
X169951061Y-129775000D01*
X169751102Y-129814774D01*
X169562744Y-129892795D01*
X169393226Y-130006063D01*
X169249063Y-130150226D01*
X169135795Y-130319744D01*
X169057774Y-130508102D01*
X169018000Y-130708061D01*
X166751000Y-130708061D01*
X166751000Y-123942234D01*
X166768376Y-123765811D01*
X166818022Y-123602150D01*
X166898638Y-123451328D01*
X167007130Y-123319130D01*
X167139328Y-123210638D01*
X167290150Y-123130022D01*
X167453811Y-123080376D01*
X167630234Y-123063000D01*
X172475766Y-123063000D01*
X172652189Y-123080376D01*
X172815850Y-123130022D01*
X172966672Y-123210638D01*
X173098870Y-123319130D01*
X173207362Y-123451328D01*
X173287978Y-123602150D01*
X173337624Y-123765811D01*
X173355000Y-123942234D01*
X173355000Y-147082000D01*
X173355612Y-147094448D01*
X173374827Y-147289538D01*
X173379683Y-147313956D01*
X173436588Y-147501549D01*
X173446116Y-147524550D01*
X173538526Y-147697437D01*
X173552358Y-147718138D01*
X173676721Y-147869675D01*
X173694325Y-147887279D01*
X173845862Y-148011642D01*
X173866563Y-148025474D01*
X174039450Y-148117884D01*
X174062451Y-148127412D01*
X174250044Y-148184317D01*
X174274462Y-148189173D01*
X174469552Y-148208388D01*
X174482000Y-148209000D01*
X194834000Y-148209000D01*
X194846448Y-148208388D01*
X195041538Y-148189173D01*
X195065956Y-148184317D01*
X195253549Y-148127412D01*
X195276550Y-148117884D01*
X195449437Y-148025474D01*
X195470138Y-148011642D01*
X195621675Y-147887279D01*
X195639279Y-147869675D01*
X195763642Y-147718138D01*
X195777474Y-147697437D01*
X195869884Y-147524550D01*
X195879412Y-147501549D01*
X195936317Y-147313956D01*
X195941173Y-147289538D01*
X195960388Y-147094448D01*
X195961000Y-147082000D01*
X195961000Y-140868061D01*
X198228000Y-140868061D01*
X198228000Y-141071939D01*
X198267774Y-141271898D01*
X198345795Y-141460256D01*
X198459063Y-141629774D01*
X198603226Y-141773937D01*
X198772744Y-141887205D01*
X198961102Y-141965226D01*
X199161061Y-142005000D01*
X199364939Y-142005000D01*
X199564898Y-141965226D01*
X199753256Y-141887205D01*
X199922774Y-141773937D01*
X200066937Y-141629774D01*
X200180205Y-141460256D01*
X200258226Y-141271898D01*
X200298000Y-141071939D01*
X200298000Y-140868061D01*
X200258226Y-140668102D01*
X200180205Y-140479744D01*
X200066937Y-140310226D01*
X199922774Y-140166063D01*
X199753256Y-140052795D01*
X199564898Y-139974774D01*
X199364939Y-139935000D01*
X199161061Y-139935000D01*
X198961102Y-139974774D01*
X198772744Y-140052795D01*
X198603226Y-140166063D01*
X198459063Y-140310226D01*
X198345795Y-140479744D01*
X198267774Y-140668102D01*
X198228000Y-140868061D01*
X195961000Y-140868061D01*
X195961000Y-130708061D01*
X198228000Y-130708061D01*
X198228000Y-130911939D01*
X198267774Y-131111898D01*
X198345795Y-131300256D01*
X198459063Y-131469774D01*
X198603226Y-131613937D01*
X198772744Y-131727205D01*
X198961102Y-131805226D01*
X199161061Y-131845000D01*
X199364939Y-131845000D01*
X199564898Y-131805226D01*
X199753256Y-131727205D01*
X199922774Y-131613937D01*
X200066937Y-131469774D01*
X200180205Y-131300256D01*
X200258226Y-131111898D01*
X200298000Y-130911939D01*
X200298000Y-130708061D01*
X200258226Y-130508102D01*
X200180205Y-130319744D01*
X200066937Y-130150226D01*
X199922774Y-130006063D01*
X199753256Y-129892795D01*
X199564898Y-129814774D01*
X199364939Y-129775000D01*
X199161061Y-129775000D01*
X198961102Y-129814774D01*
X198772744Y-129892795D01*
X198603226Y-130006063D01*
X198459063Y-130150226D01*
X198345795Y-130319744D01*
X198267774Y-130508102D01*
X198228000Y-130708061D01*
X195961000Y-130708061D01*
X195961000Y-123942234D01*
X195978376Y-123765811D01*
X196028022Y-123602150D01*
X196108638Y-123451328D01*
X196217130Y-123319130D01*
X196349328Y-123210638D01*
X196500150Y-123130022D01*
X196663811Y-123080376D01*
X196840234Y-123063000D01*
X201685766Y-123063000D01*
X201862189Y-123080376D01*
X202025850Y-123130022D01*
X202176672Y-123210638D01*
X202308870Y-123319130D01*
X202417362Y-123451328D01*
X202497978Y-123602150D01*
X202547624Y-123765811D01*
X202565000Y-123942234D01*
X202565000Y-147082000D01*
X202565612Y-147094448D01*
X202584827Y-147289538D01*
X202589683Y-147313956D01*
X202646588Y-147501549D01*
X202656116Y-147524550D01*
X202748526Y-147697437D01*
X202762358Y-147718138D01*
X202886721Y-147869675D01*
X202904325Y-147887279D01*
X203055862Y-148011642D01*
X203076563Y-148025474D01*
X203249450Y-148117884D01*
X203272451Y-148127412D01*
X203460044Y-148184317D01*
X203484462Y-148189173D01*
X203679552Y-148208388D01*
X203692000Y-148209000D01*
X223790000Y-148209000D01*
X223802448Y-148208388D01*
X223997538Y-148189173D01*
X224021956Y-148184317D01*
X224209549Y-148127412D01*
X224232550Y-148117884D01*
X224405437Y-148025474D01*
X224426138Y-148011642D01*
X224577675Y-147887279D01*
X224595279Y-147869675D01*
X224719642Y-147718138D01*
X224733474Y-147697437D01*
X224825884Y-147524550D01*
X224835412Y-147501549D01*
X224892317Y-147313956D01*
X224897173Y-147289538D01*
X224916388Y-147094448D01*
X224917000Y-147082000D01*
X224917000Y-140868061D01*
X227438000Y-140868061D01*
X227438000Y-141071939D01*
X227477774Y-141271898D01*
X227555795Y-141460256D01*
X227669063Y-141629774D01*
X227813226Y-141773937D01*
X227982744Y-141887205D01*
X228171102Y-141965226D01*
X228371061Y-142005000D01*
X228574939Y-142005000D01*
X228774898Y-141965226D01*
X228963256Y-141887205D01*
X229132774Y-141773937D01*
X229276937Y-141629774D01*
X229390205Y-141460256D01*
X229468226Y-141271898D01*
X229508000Y-141071939D01*
X229508000Y-140868061D01*
X229468226Y-140668102D01*
X229390205Y-140479744D01*
X229276937Y-140310226D01*
X229132774Y-140166063D01*
X228963256Y-140052795D01*
X228774898Y-139974774D01*
X228574939Y-139935000D01*
X228371061Y-139935000D01*
X228171102Y-139974774D01*
X227982744Y-140052795D01*
X227813226Y-140166063D01*
X227669063Y-140310226D01*
X227555795Y-140479744D01*
X227477774Y-140668102D01*
X227438000Y-140868061D01*
X224917000Y-140868061D01*
X224917000Y-130708061D01*
X227438000Y-130708061D01*
X227438000Y-130911939D01*
X227477774Y-131111898D01*
X227555795Y-131300256D01*
X227669063Y-131469774D01*
X227813226Y-131613937D01*
X227982744Y-131727205D01*
X228171102Y-131805226D01*
X228371061Y-131845000D01*
X228574939Y-131845000D01*
X228774898Y-131805226D01*
X228963256Y-131727205D01*
X229132774Y-131613937D01*
X229276937Y-131469774D01*
X229390205Y-131300256D01*
X229468226Y-131111898D01*
X229508000Y-130911939D01*
X229508000Y-130708061D01*
X229468226Y-130508102D01*
X229390205Y-130319744D01*
X229276937Y-130150226D01*
X229132774Y-130006063D01*
X228963256Y-129892795D01*
X228774898Y-129814774D01*
X228574939Y-129775000D01*
X228371061Y-129775000D01*
X228171102Y-129814774D01*
X227982744Y-129892795D01*
X227813226Y-130006063D01*
X227669063Y-130150226D01*
X227555795Y-130319744D01*
X227477774Y-130508102D01*
X227438000Y-130708061D01*
X224917000Y-130708061D01*
X224917000Y-77454000D01*
X224916388Y-77441552D01*
X224897173Y-77246462D01*
X224892317Y-77222044D01*
X224835412Y-77034451D01*
X224825884Y-77011450D01*
X224733474Y-76838563D01*
X224719642Y-76817862D01*
X224595279Y-76666325D01*
X224577675Y-76648721D01*
X224426138Y-76524358D01*
X224405437Y-76510526D01*
X224232550Y-76418116D01*
X224209549Y-76408588D01*
X224021956Y-76351683D01*
X223997538Y-76346827D01*
X223802448Y-76327612D01*
X223790000Y-76327000D01*
X148358313Y-76327000D01*
X148435444Y-76182699D01*
X148585482Y-75820475D01*
X148707106Y-75419530D01*
X148783594Y-75034995D01*
X148824661Y-74618034D01*
X148824661Y-74225966D01*
X148783594Y-73809005D01*
X148707106Y-73424470D01*
X148585482Y-73023525D01*
X148435444Y-72661301D01*
X148237937Y-72291792D01*
X148020115Y-71965798D01*
X147942275Y-71870950D01*
X146873356Y-70282417D01*
X146893587Y-70215724D01*
X146904503Y-70104891D01*
X147045900Y-70220932D01*
X147295193Y-70354182D01*
X147565692Y-70436236D01*
X147847000Y-70463943D01*
X148128309Y-70436236D01*
X148398808Y-70354182D01*
X148648101Y-70220932D01*
X148866608Y-70041608D01*
X149045932Y-69823101D01*
X149179182Y-69573808D01*
X149261236Y-69303309D01*
X149282000Y-69092492D01*
X149282000Y-67751508D01*
X149261236Y-67540691D01*
X149179182Y-67270192D01*
X149045932Y-67020899D01*
X148866607Y-66802392D01*
X148648100Y-66623068D01*
X148398807Y-66489818D01*
X148128308Y-66407764D01*
X147847000Y-66380057D01*
X147565691Y-66407764D01*
X147295192Y-66489818D01*
X147045899Y-66623068D01*
X146827392Y-66802393D01*
X146662058Y-67003853D01*
X146649604Y-66988678D01*
X146639496Y-66782962D01*
X146638535Y-66773207D01*
X146556805Y-66362340D01*
X146553960Y-66352961D01*
X146393604Y-65965828D01*
X146388983Y-65957183D01*
X146156165Y-65608767D01*
X146149947Y-65601191D01*
X145853809Y-65305053D01*
X145846233Y-65298835D01*
X145497817Y-65066017D01*
X145489172Y-65061396D01*
X145102039Y-64901040D01*
X145092660Y-64898195D01*
X144681793Y-64816465D01*
X144672038Y-64815504D01*
X144462500Y-64805208D01*
X142580360Y-64805208D01*
X142370822Y-64815504D01*
X142361067Y-64816465D01*
X141950200Y-64898195D01*
X141940821Y-64901040D01*
X141553688Y-65061396D01*
X141545043Y-65066017D01*
X141196627Y-65298835D01*
X141189051Y-65305053D01*
X140892913Y-65601191D01*
X140886695Y-65608767D01*
X140653877Y-65957183D01*
X140649256Y-65965828D01*
X140488900Y-66352961D01*
X140486055Y-66362340D01*
X140404325Y-66773207D01*
X140403364Y-66782962D01*
X140393068Y-66992500D01*
X140393068Y-71247000D01*
X140403364Y-71456538D01*
X140404325Y-71466293D01*
X140410947Y-71499585D01*
X140563252Y-74654470D01*
X140577587Y-74819030D01*
X140578554Y-74826692D01*
X140599346Y-74922698D01*
X140610406Y-75034995D01*
X140686894Y-75419530D01*
X140808518Y-75820475D01*
X140958556Y-76182699D01*
X141035687Y-76327000D01*
X138160000Y-76327000D01*
X138147552Y-76327612D01*
X137952462Y-76346827D01*
X137928044Y-76351683D01*
X137740451Y-76408588D01*
X137717450Y-76418116D01*
X137544563Y-76510526D01*
X137523862Y-76524358D01*
X137372325Y-76648721D01*
X137354721Y-76666325D01*
X137230358Y-76817862D01*
X137216526Y-76838563D01*
X137124116Y-77011450D01*
X137114588Y-77034451D01*
X137057683Y-77222044D01*
X137052827Y-77246462D01*
X137033612Y-77441552D01*
X137033000Y-77454000D01*
X137033000Y-97291766D01*
X137015624Y-97468189D01*
X136965978Y-97631850D01*
X136885362Y-97782672D01*
X136776870Y-97914870D01*
X136644672Y-98023362D01*
X136493850Y-98103978D01*
X136330189Y-98153624D01*
X136153766Y-98171000D01*
X130546234Y-98171000D01*
X130369811Y-98153624D01*
X130206150Y-98103978D01*
X130055328Y-98023362D01*
X129923130Y-97914870D01*
X129814638Y-97782672D01*
X129734022Y-97631850D01*
X129684376Y-97468189D01*
X129667000Y-97291766D01*
X129667000Y-77446565D01*
X129666394Y-77434176D01*
X129647361Y-77240001D01*
X129642550Y-77215694D01*
X129586175Y-77028910D01*
X129576735Y-77006000D01*
X129485164Y-76833718D01*
X129471456Y-76813077D01*
X129348175Y-76661855D01*
X129330719Y-76644269D01*
X129180421Y-76519863D01*
X129159883Y-76506001D01*
X128988289Y-76413147D01*
X128965450Y-76403536D01*
X128779092Y-76345769D01*
X128754822Y-76340777D01*
X128560794Y-76320295D01*
X128548410Y-76319597D01*
X113514394Y-76207403D01*
X113339734Y-76189047D01*
X113177853Y-76139111D01*
X113028669Y-76058826D01*
X112897816Y-75951224D01*
X112790229Y-75820361D01*
X112709963Y-75671173D01*
X112660043Y-75509279D01*
X112641707Y-75334622D01*
X112585085Y-67634000D01*
X122138709Y-67634000D01*
X122138709Y-70034000D01*
X122179776Y-70450965D01*
X122301401Y-70851906D01*
X122498907Y-71221415D01*
X122764707Y-71545293D01*
X123088585Y-71811093D01*
X123458094Y-72008599D01*
X123859035Y-72130224D01*
X124276000Y-72171291D01*
X126676000Y-72171291D01*
X127092965Y-72130224D01*
X127493906Y-72008599D01*
X127863415Y-71811093D01*
X128187293Y-71545293D01*
X128453093Y-71221415D01*
X128650599Y-70851906D01*
X128772224Y-70450965D01*
X128813291Y-70034000D01*
X128813291Y-67751509D01*
X132912000Y-67751509D01*
X132912000Y-69092492D01*
X132932764Y-69303309D01*
X133014818Y-69573808D01*
X133148069Y-69823101D01*
X133327393Y-70041608D01*
X133545900Y-70220932D01*
X133795193Y-70354182D01*
X134065692Y-70436236D01*
X134347000Y-70463943D01*
X134628309Y-70436236D01*
X134898808Y-70354182D01*
X135148101Y-70220932D01*
X135366608Y-70041608D01*
X135545932Y-69823101D01*
X135679182Y-69573808D01*
X135761236Y-69303309D01*
X135782000Y-69092492D01*
X135782000Y-67751508D01*
X135761236Y-67540691D01*
X135679182Y-67270192D01*
X135545932Y-67020899D01*
X135366607Y-66802392D01*
X135148100Y-66623068D01*
X134898807Y-66489818D01*
X134628308Y-66407764D01*
X134347000Y-66380057D01*
X134065691Y-66407764D01*
X133795192Y-66489818D01*
X133545899Y-66623068D01*
X133327392Y-66802393D01*
X133148068Y-67020900D01*
X133014818Y-67270193D01*
X132932764Y-67540692D01*
X132912000Y-67751509D01*
X128813291Y-67751509D01*
X128813291Y-67634000D01*
X128772224Y-67217035D01*
X128650599Y-66816094D01*
X128453093Y-66446585D01*
X128187293Y-66122707D01*
X127863415Y-65856907D01*
X127493906Y-65659401D01*
X127092965Y-65537776D01*
X126676000Y-65496709D01*
X124276000Y-65496709D01*
X123859035Y-65537776D01*
X123458094Y-65659401D01*
X123088585Y-65856907D01*
X122764707Y-66122707D01*
X122498907Y-66446585D01*
X122301401Y-66816094D01*
X122179776Y-67217035D01*
X122138709Y-67634000D01*
X112585085Y-67634000D01*
X112529450Y-60067681D01*
X112545685Y-59890319D01*
X112590305Y-59740000D01*
X155595667Y-59740000D01*
X155582036Y-59753631D01*
G37*
X155582036Y-59753631D02*
X154938870Y-60716197D01*
X154495850Y-61785742D01*
X154270000Y-62921166D01*
X154270000Y-64078834D01*
X154495850Y-65214258D01*
X154938870Y-66283803D01*
X155582036Y-67246369D01*
X156400631Y-68064964D01*
X157363197Y-68708130D01*
X158432742Y-69151150D01*
X159568166Y-69377000D01*
X160725834Y-69377000D01*
X161861258Y-69151150D01*
X162930803Y-68708130D01*
X163893369Y-68064964D01*
X164711964Y-67246369D01*
X165355130Y-66283803D01*
X165798150Y-65214258D01*
X166024000Y-64078834D01*
X166024000Y-62921166D01*
X165798150Y-61785742D01*
X165355130Y-60716197D01*
X164711964Y-59753631D01*
X164698333Y-59740000D01*
X186456447Y-59740000D01*
X185926726Y-60093948D01*
X185315948Y-60704726D01*
X184836064Y-61422924D01*
X184505513Y-62220943D01*
X184337000Y-63068115D01*
X184337000Y-63931885D01*
X184505513Y-64779057D01*
X184836064Y-65577076D01*
X185315948Y-66295274D01*
X185926726Y-66906052D01*
X186644924Y-67385936D01*
X187442943Y-67716487D01*
X188290115Y-67885000D01*
X189153885Y-67885000D01*
X190001057Y-67716487D01*
X190799076Y-67385936D01*
X191517274Y-66906052D01*
X192128052Y-66295274D01*
X192607936Y-65577076D01*
X192938487Y-64779057D01*
X193107000Y-63931885D01*
X193107000Y-63068115D01*
X192938487Y-62220943D01*
X192607936Y-61422924D01*
X192128052Y-60704726D01*
X191517274Y-60093948D01*
X190987553Y-59740000D01*
X197124447Y-59740000D01*
X196594726Y-60093948D01*
X195983948Y-60704726D01*
X195504064Y-61422924D01*
X195173513Y-62220943D01*
X195005000Y-63068115D01*
X195005000Y-63931885D01*
X195173513Y-64779057D01*
X195504064Y-65577076D01*
X195983948Y-66295274D01*
X196594726Y-66906052D01*
X197312924Y-67385936D01*
X198110943Y-67716487D01*
X198958115Y-67885000D01*
X199821885Y-67885000D01*
X200669057Y-67716487D01*
X201467076Y-67385936D01*
X202185274Y-66906052D01*
X202796052Y-66295274D01*
X203275936Y-65577076D01*
X203606487Y-64779057D01*
X203775000Y-63931885D01*
X203775000Y-63068115D01*
X203606487Y-62220943D01*
X203275936Y-61422924D01*
X202796052Y-60704726D01*
X202185274Y-60093948D01*
X201655553Y-59740000D01*
X207665447Y-59740000D01*
X207135726Y-60093948D01*
X206524948Y-60704726D01*
X206045064Y-61422924D01*
X205714513Y-62220943D01*
X205546000Y-63068115D01*
X205546000Y-63931885D01*
X205714513Y-64779057D01*
X206045064Y-65577076D01*
X206524948Y-66295274D01*
X207135726Y-66906052D01*
X207853924Y-67385936D01*
X208651943Y-67716487D01*
X209499115Y-67885000D01*
X210362885Y-67885000D01*
X211210057Y-67716487D01*
X212008076Y-67385936D01*
X212726274Y-66906052D01*
X213337052Y-66295274D01*
X213816936Y-65577076D01*
X214147487Y-64779057D01*
X214316000Y-63931885D01*
X214316000Y-63068115D01*
X214147487Y-62220943D01*
X213816936Y-61422924D01*
X213337052Y-60704726D01*
X212726274Y-60093948D01*
X212196553Y-59740000D01*
X228569495Y-59740000D01*
X229377803Y-59812139D01*
X230131023Y-60018197D01*
X230835852Y-60354384D01*
X231470002Y-60810065D01*
X232013441Y-61370851D01*
X232448981Y-62019001D01*
X232762862Y-62734043D01*
X232946424Y-63498636D01*
X232995000Y-64160112D01*
X232995001Y-150972483D01*
X232922861Y-151780805D01*
X232716803Y-152534023D01*
X232380616Y-153238852D01*
X231924932Y-153873005D01*
X231364149Y-154416441D01*
X230715996Y-154851982D01*
X230000956Y-155165863D01*
X229236364Y-155349424D01*
X228574887Y-155398000D01*
X166875829Y-155398000D01*
X166818022Y-155289850D01*
X166768376Y-155126189D01*
X166751000Y-154949766D01*
X166751000Y-140868061D01*
X169018000Y-140868061D01*
X169018000Y-141071939D01*
X169057774Y-141271898D01*
X169135795Y-141460256D01*
X169249063Y-141629774D01*
X169393226Y-141773937D01*
X169562744Y-141887205D01*
X169751102Y-141965226D01*
X169951061Y-142005000D01*
X170154939Y-142005000D01*
X170354898Y-141965226D01*
X170543256Y-141887205D01*
X170712774Y-141773937D01*
X170856937Y-141629774D01*
X170970205Y-141460256D01*
X171048226Y-141271898D01*
X171088000Y-141071939D01*
X171088000Y-140868061D01*
X171048226Y-140668102D01*
X170970205Y-140479744D01*
X170856937Y-140310226D01*
X170712774Y-140166063D01*
X170543256Y-140052795D01*
X170354898Y-139974774D01*
X170154939Y-139935000D01*
X169951061Y-139935000D01*
X169751102Y-139974774D01*
X169562744Y-140052795D01*
X169393226Y-140166063D01*
X169249063Y-140310226D01*
X169135795Y-140479744D01*
X169057774Y-140668102D01*
X169018000Y-140868061D01*
X166751000Y-140868061D01*
X166751000Y-130708061D01*
X169018000Y-130708061D01*
X169018000Y-130911939D01*
X169057774Y-131111898D01*
X169135795Y-131300256D01*
X169249063Y-131469774D01*
X169393226Y-131613937D01*
X169562744Y-131727205D01*
X169751102Y-131805226D01*
X169951061Y-131845000D01*
X170154939Y-131845000D01*
X170354898Y-131805226D01*
X170543256Y-131727205D01*
X170712774Y-131613937D01*
X170856937Y-131469774D01*
X170970205Y-131300256D01*
X171048226Y-131111898D01*
X171088000Y-130911939D01*
X171088000Y-130708061D01*
X171048226Y-130508102D01*
X170970205Y-130319744D01*
X170856937Y-130150226D01*
X170712774Y-130006063D01*
X170543256Y-129892795D01*
X170354898Y-129814774D01*
X170154939Y-129775000D01*
X169951061Y-129775000D01*
X169751102Y-129814774D01*
X169562744Y-129892795D01*
X169393226Y-130006063D01*
X169249063Y-130150226D01*
X169135795Y-130319744D01*
X169057774Y-130508102D01*
X169018000Y-130708061D01*
X166751000Y-130708061D01*
X166751000Y-123942234D01*
X166768376Y-123765811D01*
X166818022Y-123602150D01*
X166898638Y-123451328D01*
X167007130Y-123319130D01*
X167139328Y-123210638D01*
X167290150Y-123130022D01*
X167453811Y-123080376D01*
X167630234Y-123063000D01*
X172475766Y-123063000D01*
X172652189Y-123080376D01*
X172815850Y-123130022D01*
X172966672Y-123210638D01*
X173098870Y-123319130D01*
X173207362Y-123451328D01*
X173287978Y-123602150D01*
X173337624Y-123765811D01*
X173355000Y-123942234D01*
X173355000Y-147082000D01*
X173355612Y-147094448D01*
X173374827Y-147289538D01*
X173379683Y-147313956D01*
X173436588Y-147501549D01*
X173446116Y-147524550D01*
X173538526Y-147697437D01*
X173552358Y-147718138D01*
X173676721Y-147869675D01*
X173694325Y-147887279D01*
X173845862Y-148011642D01*
X173866563Y-148025474D01*
X174039450Y-148117884D01*
X174062451Y-148127412D01*
X174250044Y-148184317D01*
X174274462Y-148189173D01*
X174469552Y-148208388D01*
X174482000Y-148209000D01*
X194834000Y-148209000D01*
X194846448Y-148208388D01*
X195041538Y-148189173D01*
X195065956Y-148184317D01*
X195253549Y-148127412D01*
X195276550Y-148117884D01*
X195449437Y-148025474D01*
X195470138Y-148011642D01*
X195621675Y-147887279D01*
X195639279Y-147869675D01*
X195763642Y-147718138D01*
X195777474Y-147697437D01*
X195869884Y-147524550D01*
X195879412Y-147501549D01*
X195936317Y-147313956D01*
X195941173Y-147289538D01*
X195960388Y-147094448D01*
X195961000Y-147082000D01*
X195961000Y-140868061D01*
X198228000Y-140868061D01*
X198228000Y-141071939D01*
X198267774Y-141271898D01*
X198345795Y-141460256D01*
X198459063Y-141629774D01*
X198603226Y-141773937D01*
X198772744Y-141887205D01*
X198961102Y-141965226D01*
X199161061Y-142005000D01*
X199364939Y-142005000D01*
X199564898Y-141965226D01*
X199753256Y-141887205D01*
X199922774Y-141773937D01*
X200066937Y-141629774D01*
X200180205Y-141460256D01*
X200258226Y-141271898D01*
X200298000Y-141071939D01*
X200298000Y-140868061D01*
X200258226Y-140668102D01*
X200180205Y-140479744D01*
X200066937Y-140310226D01*
X199922774Y-140166063D01*
X199753256Y-140052795D01*
X199564898Y-139974774D01*
X199364939Y-139935000D01*
X199161061Y-139935000D01*
X198961102Y-139974774D01*
X198772744Y-140052795D01*
X198603226Y-140166063D01*
X198459063Y-140310226D01*
X198345795Y-140479744D01*
X198267774Y-140668102D01*
X198228000Y-140868061D01*
X195961000Y-140868061D01*
X195961000Y-130708061D01*
X198228000Y-130708061D01*
X198228000Y-130911939D01*
X198267774Y-131111898D01*
X198345795Y-131300256D01*
X198459063Y-131469774D01*
X198603226Y-131613937D01*
X198772744Y-131727205D01*
X198961102Y-131805226D01*
X199161061Y-131845000D01*
X199364939Y-131845000D01*
X199564898Y-131805226D01*
X199753256Y-131727205D01*
X199922774Y-131613937D01*
X200066937Y-131469774D01*
X200180205Y-131300256D01*
X200258226Y-131111898D01*
X200298000Y-130911939D01*
X200298000Y-130708061D01*
X200258226Y-130508102D01*
X200180205Y-130319744D01*
X200066937Y-130150226D01*
X199922774Y-130006063D01*
X199753256Y-129892795D01*
X199564898Y-129814774D01*
X199364939Y-129775000D01*
X199161061Y-129775000D01*
X198961102Y-129814774D01*
X198772744Y-129892795D01*
X198603226Y-130006063D01*
X198459063Y-130150226D01*
X198345795Y-130319744D01*
X198267774Y-130508102D01*
X198228000Y-130708061D01*
X195961000Y-130708061D01*
X195961000Y-123942234D01*
X195978376Y-123765811D01*
X196028022Y-123602150D01*
X196108638Y-123451328D01*
X196217130Y-123319130D01*
X196349328Y-123210638D01*
X196500150Y-123130022D01*
X196663811Y-123080376D01*
X196840234Y-123063000D01*
X201685766Y-123063000D01*
X201862189Y-123080376D01*
X202025850Y-123130022D01*
X202176672Y-123210638D01*
X202308870Y-123319130D01*
X202417362Y-123451328D01*
X202497978Y-123602150D01*
X202547624Y-123765811D01*
X202565000Y-123942234D01*
X202565000Y-147082000D01*
X202565612Y-147094448D01*
X202584827Y-147289538D01*
X202589683Y-147313956D01*
X202646588Y-147501549D01*
X202656116Y-147524550D01*
X202748526Y-147697437D01*
X202762358Y-147718138D01*
X202886721Y-147869675D01*
X202904325Y-147887279D01*
X203055862Y-148011642D01*
X203076563Y-148025474D01*
X203249450Y-148117884D01*
X203272451Y-148127412D01*
X203460044Y-148184317D01*
X203484462Y-148189173D01*
X203679552Y-148208388D01*
X203692000Y-148209000D01*
X223790000Y-148209000D01*
X223802448Y-148208388D01*
X223997538Y-148189173D01*
X224021956Y-148184317D01*
X224209549Y-148127412D01*
X224232550Y-148117884D01*
X224405437Y-148025474D01*
X224426138Y-148011642D01*
X224577675Y-147887279D01*
X224595279Y-147869675D01*
X224719642Y-147718138D01*
X224733474Y-147697437D01*
X224825884Y-147524550D01*
X224835412Y-147501549D01*
X224892317Y-147313956D01*
X224897173Y-147289538D01*
X224916388Y-147094448D01*
X224917000Y-147082000D01*
X224917000Y-140868061D01*
X227438000Y-140868061D01*
X227438000Y-141071939D01*
X227477774Y-141271898D01*
X227555795Y-141460256D01*
X227669063Y-141629774D01*
X227813226Y-141773937D01*
X227982744Y-141887205D01*
X228171102Y-141965226D01*
X228371061Y-142005000D01*
X228574939Y-142005000D01*
X228774898Y-141965226D01*
X228963256Y-141887205D01*
X229132774Y-141773937D01*
X229276937Y-141629774D01*
X229390205Y-141460256D01*
X229468226Y-141271898D01*
X229508000Y-141071939D01*
X229508000Y-140868061D01*
X229468226Y-140668102D01*
X229390205Y-140479744D01*
X229276937Y-140310226D01*
X229132774Y-140166063D01*
X228963256Y-140052795D01*
X228774898Y-139974774D01*
X228574939Y-139935000D01*
X228371061Y-139935000D01*
X228171102Y-139974774D01*
X227982744Y-140052795D01*
X227813226Y-140166063D01*
X227669063Y-140310226D01*
X227555795Y-140479744D01*
X227477774Y-140668102D01*
X227438000Y-140868061D01*
X224917000Y-140868061D01*
X224917000Y-130708061D01*
X227438000Y-130708061D01*
X227438000Y-130911939D01*
X227477774Y-131111898D01*
X227555795Y-131300256D01*
X227669063Y-131469774D01*
X227813226Y-131613937D01*
X227982744Y-131727205D01*
X228171102Y-131805226D01*
X228371061Y-131845000D01*
X228574939Y-131845000D01*
X228774898Y-131805226D01*
X228963256Y-131727205D01*
X229132774Y-131613937D01*
X229276937Y-131469774D01*
X229390205Y-131300256D01*
X229468226Y-131111898D01*
X229508000Y-130911939D01*
X229508000Y-130708061D01*
X229468226Y-130508102D01*
X229390205Y-130319744D01*
X229276937Y-130150226D01*
X229132774Y-130006063D01*
X228963256Y-129892795D01*
X228774898Y-129814774D01*
X228574939Y-129775000D01*
X228371061Y-129775000D01*
X228171102Y-129814774D01*
X227982744Y-129892795D01*
X227813226Y-130006063D01*
X227669063Y-130150226D01*
X227555795Y-130319744D01*
X227477774Y-130508102D01*
X227438000Y-130708061D01*
X224917000Y-130708061D01*
X224917000Y-77454000D01*
X224916388Y-77441552D01*
X224897173Y-77246462D01*
X224892317Y-77222044D01*
X224835412Y-77034451D01*
X224825884Y-77011450D01*
X224733474Y-76838563D01*
X224719642Y-76817862D01*
X224595279Y-76666325D01*
X224577675Y-76648721D01*
X224426138Y-76524358D01*
X224405437Y-76510526D01*
X224232550Y-76418116D01*
X224209549Y-76408588D01*
X224021956Y-76351683D01*
X223997538Y-76346827D01*
X223802448Y-76327612D01*
X223790000Y-76327000D01*
X148358313Y-76327000D01*
X148435444Y-76182699D01*
X148585482Y-75820475D01*
X148707106Y-75419530D01*
X148783594Y-75034995D01*
X148824661Y-74618034D01*
X148824661Y-74225966D01*
X148783594Y-73809005D01*
X148707106Y-73424470D01*
X148585482Y-73023525D01*
X148435444Y-72661301D01*
X148237937Y-72291792D01*
X148020115Y-71965798D01*
X147942275Y-71870950D01*
X146873356Y-70282417D01*
X146893587Y-70215724D01*
X146904503Y-70104891D01*
X147045900Y-70220932D01*
X147295193Y-70354182D01*
X147565692Y-70436236D01*
X147847000Y-70463943D01*
X148128309Y-70436236D01*
X148398808Y-70354182D01*
X148648101Y-70220932D01*
X148866608Y-70041608D01*
X149045932Y-69823101D01*
X149179182Y-69573808D01*
X149261236Y-69303309D01*
X149282000Y-69092492D01*
X149282000Y-67751508D01*
X149261236Y-67540691D01*
X149179182Y-67270192D01*
X149045932Y-67020899D01*
X148866607Y-66802392D01*
X148648100Y-66623068D01*
X148398807Y-66489818D01*
X148128308Y-66407764D01*
X147847000Y-66380057D01*
X147565691Y-66407764D01*
X147295192Y-66489818D01*
X147045899Y-66623068D01*
X146827392Y-66802393D01*
X146662058Y-67003853D01*
X146649604Y-66988678D01*
X146639496Y-66782962D01*
X146638535Y-66773207D01*
X146556805Y-66362340D01*
X146553960Y-66352961D01*
X146393604Y-65965828D01*
X146388983Y-65957183D01*
X146156165Y-65608767D01*
X146149947Y-65601191D01*
X145853809Y-65305053D01*
X145846233Y-65298835D01*
X145497817Y-65066017D01*
X145489172Y-65061396D01*
X145102039Y-64901040D01*
X145092660Y-64898195D01*
X144681793Y-64816465D01*
X144672038Y-64815504D01*
X144462500Y-64805208D01*
X142580360Y-64805208D01*
X142370822Y-64815504D01*
X142361067Y-64816465D01*
X141950200Y-64898195D01*
X141940821Y-64901040D01*
X141553688Y-65061396D01*
X141545043Y-65066017D01*
X141196627Y-65298835D01*
X141189051Y-65305053D01*
X140892913Y-65601191D01*
X140886695Y-65608767D01*
X140653877Y-65957183D01*
X140649256Y-65965828D01*
X140488900Y-66352961D01*
X140486055Y-66362340D01*
X140404325Y-66773207D01*
X140403364Y-66782962D01*
X140393068Y-66992500D01*
X140393068Y-71247000D01*
X140403364Y-71456538D01*
X140404325Y-71466293D01*
X140410947Y-71499585D01*
X140563252Y-74654470D01*
X140577587Y-74819030D01*
X140578554Y-74826692D01*
X140599346Y-74922698D01*
X140610406Y-75034995D01*
X140686894Y-75419530D01*
X140808518Y-75820475D01*
X140958556Y-76182699D01*
X141035687Y-76327000D01*
X138160000Y-76327000D01*
X138147552Y-76327612D01*
X137952462Y-76346827D01*
X137928044Y-76351683D01*
X137740451Y-76408588D01*
X137717450Y-76418116D01*
X137544563Y-76510526D01*
X137523862Y-76524358D01*
X137372325Y-76648721D01*
X137354721Y-76666325D01*
X137230358Y-76817862D01*
X137216526Y-76838563D01*
X137124116Y-77011450D01*
X137114588Y-77034451D01*
X137057683Y-77222044D01*
X137052827Y-77246462D01*
X137033612Y-77441552D01*
X137033000Y-77454000D01*
X137033000Y-97291766D01*
X137015624Y-97468189D01*
X136965978Y-97631850D01*
X136885362Y-97782672D01*
X136776870Y-97914870D01*
X136644672Y-98023362D01*
X136493850Y-98103978D01*
X136330189Y-98153624D01*
X136153766Y-98171000D01*
X130546234Y-98171000D01*
X130369811Y-98153624D01*
X130206150Y-98103978D01*
X130055328Y-98023362D01*
X129923130Y-97914870D01*
X129814638Y-97782672D01*
X129734022Y-97631850D01*
X129684376Y-97468189D01*
X129667000Y-97291766D01*
X129667000Y-77446565D01*
X129666394Y-77434176D01*
X129647361Y-77240001D01*
X129642550Y-77215694D01*
X129586175Y-77028910D01*
X129576735Y-77006000D01*
X129485164Y-76833718D01*
X129471456Y-76813077D01*
X129348175Y-76661855D01*
X129330719Y-76644269D01*
X129180421Y-76519863D01*
X129159883Y-76506001D01*
X128988289Y-76413147D01*
X128965450Y-76403536D01*
X128779092Y-76345769D01*
X128754822Y-76340777D01*
X128560794Y-76320295D01*
X128548410Y-76319597D01*
X113514394Y-76207403D01*
X113339734Y-76189047D01*
X113177853Y-76139111D01*
X113028669Y-76058826D01*
X112897816Y-75951224D01*
X112790229Y-75820361D01*
X112709963Y-75671173D01*
X112660043Y-75509279D01*
X112641707Y-75334622D01*
X112585085Y-67634000D01*
X122138709Y-67634000D01*
X122138709Y-70034000D01*
X122179776Y-70450965D01*
X122301401Y-70851906D01*
X122498907Y-71221415D01*
X122764707Y-71545293D01*
X123088585Y-71811093D01*
X123458094Y-72008599D01*
X123859035Y-72130224D01*
X124276000Y-72171291D01*
X126676000Y-72171291D01*
X127092965Y-72130224D01*
X127493906Y-72008599D01*
X127863415Y-71811093D01*
X128187293Y-71545293D01*
X128453093Y-71221415D01*
X128650599Y-70851906D01*
X128772224Y-70450965D01*
X128813291Y-70034000D01*
X128813291Y-67751509D01*
X132912000Y-67751509D01*
X132912000Y-69092492D01*
X132932764Y-69303309D01*
X133014818Y-69573808D01*
X133148069Y-69823101D01*
X133327393Y-70041608D01*
X133545900Y-70220932D01*
X133795193Y-70354182D01*
X134065692Y-70436236D01*
X134347000Y-70463943D01*
X134628309Y-70436236D01*
X134898808Y-70354182D01*
X135148101Y-70220932D01*
X135366608Y-70041608D01*
X135545932Y-69823101D01*
X135679182Y-69573808D01*
X135761236Y-69303309D01*
X135782000Y-69092492D01*
X135782000Y-67751508D01*
X135761236Y-67540691D01*
X135679182Y-67270192D01*
X135545932Y-67020899D01*
X135366607Y-66802392D01*
X135148100Y-66623068D01*
X134898807Y-66489818D01*
X134628308Y-66407764D01*
X134347000Y-66380057D01*
X134065691Y-66407764D01*
X133795192Y-66489818D01*
X133545899Y-66623068D01*
X133327392Y-66802393D01*
X133148068Y-67020900D01*
X133014818Y-67270193D01*
X132932764Y-67540692D01*
X132912000Y-67751509D01*
X128813291Y-67751509D01*
X128813291Y-67634000D01*
X128772224Y-67217035D01*
X128650599Y-66816094D01*
X128453093Y-66446585D01*
X128187293Y-66122707D01*
X127863415Y-65856907D01*
X127493906Y-65659401D01*
X127092965Y-65537776D01*
X126676000Y-65496709D01*
X124276000Y-65496709D01*
X123859035Y-65537776D01*
X123458094Y-65659401D01*
X123088585Y-65856907D01*
X122764707Y-66122707D01*
X122498907Y-66446585D01*
X122301401Y-66816094D01*
X122179776Y-67217035D01*
X122138709Y-67634000D01*
X112585085Y-67634000D01*
X112529450Y-60067681D01*
X112545685Y-59890319D01*
X112590305Y-59740000D01*
X155595667Y-59740000D01*
X155582036Y-59753631D01*
M02*
