G04 #@! TF.GenerationSoftware,KiCad,Pcbnew,(5.1.5)-3*
G04 #@! TF.CreationDate,2020-12-06T21:02:03-03:00*
G04 #@! TF.ProjectId,InversorPMSM,496e7665-7273-46f7-9250-4d534d2e6b69,rev?*
G04 #@! TF.SameCoordinates,Original*
G04 #@! TF.FileFunction,Legend,Bot*
G04 #@! TF.FilePolarity,Positive*
%FSLAX46Y46*%
G04 Gerber Fmt 4.6, Leading zero omitted, Abs format (unit mm)*
G04 Created by KiCad (PCBNEW (5.1.5)-3) date 2020-12-06 21:02:03*
%MOMM*%
%LPD*%
G04 APERTURE LIST*
%ADD10C,0.400000*%
%ADD11C,0.010000*%
G04 APERTURE END LIST*
D10*
X143793333Y-136725761D02*
X143793333Y-134725761D01*
X143031428Y-134725761D01*
X142840952Y-134821000D01*
X142745714Y-134916238D01*
X142650476Y-135106714D01*
X142650476Y-135392428D01*
X142745714Y-135582904D01*
X142840952Y-135678142D01*
X143031428Y-135773380D01*
X143793333Y-135773380D01*
X141793333Y-135678142D02*
X141126666Y-135678142D01*
X140840952Y-136725761D02*
X141793333Y-136725761D01*
X141793333Y-134725761D01*
X140840952Y-134725761D01*
X138936190Y-134821000D02*
X139126666Y-134725761D01*
X139412380Y-134725761D01*
X139698095Y-134821000D01*
X139888571Y-135011476D01*
X139983809Y-135201952D01*
X140079047Y-135582904D01*
X140079047Y-135868619D01*
X139983809Y-136249571D01*
X139888571Y-136440047D01*
X139698095Y-136630523D01*
X139412380Y-136725761D01*
X139221904Y-136725761D01*
X138936190Y-136630523D01*
X138840952Y-136535285D01*
X138840952Y-135868619D01*
X139221904Y-135868619D01*
X138079047Y-136154333D02*
X137126666Y-136154333D01*
X138269523Y-136725761D02*
X137602857Y-134725761D01*
X136936190Y-136725761D01*
X136364761Y-136630523D02*
X136079047Y-136725761D01*
X135602857Y-136725761D01*
X135412380Y-136630523D01*
X135317142Y-136535285D01*
X135221904Y-136344809D01*
X135221904Y-136154333D01*
X135317142Y-135963857D01*
X135412380Y-135868619D01*
X135602857Y-135773380D01*
X135983809Y-135678142D01*
X136174285Y-135582904D01*
X136269523Y-135487666D01*
X136364761Y-135297190D01*
X136364761Y-135106714D01*
X136269523Y-134916238D01*
X136174285Y-134821000D01*
X135983809Y-134725761D01*
X135507619Y-134725761D01*
X135221904Y-134821000D01*
X134364761Y-134725761D02*
X134364761Y-136344809D01*
X134269523Y-136535285D01*
X134174285Y-136630523D01*
X133983809Y-136725761D01*
X133602857Y-136725761D01*
X133412380Y-136630523D01*
X133317142Y-136535285D01*
X133221904Y-136344809D01*
X133221904Y-134725761D01*
X132364761Y-136630523D02*
X132079047Y-136725761D01*
X131602857Y-136725761D01*
X131412380Y-136630523D01*
X131317142Y-136535285D01*
X131221904Y-136344809D01*
X131221904Y-136154333D01*
X131317142Y-135963857D01*
X131412380Y-135868619D01*
X131602857Y-135773380D01*
X131983809Y-135678142D01*
X132174285Y-135582904D01*
X132269523Y-135487666D01*
X132364761Y-135297190D01*
X132364761Y-135106714D01*
X132269523Y-134916238D01*
X132174285Y-134821000D01*
X131983809Y-134725761D01*
X131507619Y-134725761D01*
X131221904Y-134821000D01*
X128840952Y-136725761D02*
X128840952Y-134725761D01*
X128174285Y-136154333D01*
X127507619Y-134725761D01*
X127507619Y-136725761D01*
X126269523Y-136725761D02*
X126460000Y-136630523D01*
X126555238Y-136535285D01*
X126650476Y-136344809D01*
X126650476Y-135773380D01*
X126555238Y-135582904D01*
X126460000Y-135487666D01*
X126269523Y-135392428D01*
X125983809Y-135392428D01*
X125793333Y-135487666D01*
X125698095Y-135582904D01*
X125602857Y-135773380D01*
X125602857Y-136344809D01*
X125698095Y-136535285D01*
X125793333Y-136630523D01*
X125983809Y-136725761D01*
X126269523Y-136725761D01*
X125031428Y-135392428D02*
X124269523Y-135392428D01*
X124745714Y-134725761D02*
X124745714Y-136440047D01*
X124650476Y-136630523D01*
X124460000Y-136725761D01*
X124269523Y-136725761D01*
X123317142Y-136725761D02*
X123507619Y-136630523D01*
X123602857Y-136535285D01*
X123698095Y-136344809D01*
X123698095Y-135773380D01*
X123602857Y-135582904D01*
X123507619Y-135487666D01*
X123317142Y-135392428D01*
X123031428Y-135392428D01*
X122840952Y-135487666D01*
X122745714Y-135582904D01*
X122650476Y-135773380D01*
X122650476Y-136344809D01*
X122745714Y-136535285D01*
X122840952Y-136630523D01*
X123031428Y-136725761D01*
X123317142Y-136725761D01*
X121793333Y-136725761D02*
X121793333Y-135392428D01*
X121793333Y-135773380D02*
X121698095Y-135582904D01*
X121602857Y-135487666D01*
X121412380Y-135392428D01*
X121221904Y-135392428D01*
X117888571Y-136535285D02*
X117983809Y-136630523D01*
X118269523Y-136725761D01*
X118460000Y-136725761D01*
X118745714Y-136630523D01*
X118936190Y-136440047D01*
X119031428Y-136249571D01*
X119126666Y-135868619D01*
X119126666Y-135582904D01*
X119031428Y-135201952D01*
X118936190Y-135011476D01*
X118745714Y-134821000D01*
X118460000Y-134725761D01*
X118269523Y-134725761D01*
X117983809Y-134821000D01*
X117888571Y-134916238D01*
X116745714Y-136725761D02*
X116936190Y-136630523D01*
X117031428Y-136535285D01*
X117126666Y-136344809D01*
X117126666Y-135773380D01*
X117031428Y-135582904D01*
X116936190Y-135487666D01*
X116745714Y-135392428D01*
X116460000Y-135392428D01*
X116269523Y-135487666D01*
X116174285Y-135582904D01*
X116079047Y-135773380D01*
X116079047Y-136344809D01*
X116174285Y-136535285D01*
X116269523Y-136630523D01*
X116460000Y-136725761D01*
X116745714Y-136725761D01*
X115221904Y-135392428D02*
X115221904Y-136725761D01*
X115221904Y-135582904D02*
X115126666Y-135487666D01*
X114936190Y-135392428D01*
X114650476Y-135392428D01*
X114460000Y-135487666D01*
X114364761Y-135678142D01*
X114364761Y-136725761D01*
X113698095Y-135392428D02*
X112936190Y-135392428D01*
X113412380Y-134725761D02*
X113412380Y-136440047D01*
X113317142Y-136630523D01*
X113126666Y-136725761D01*
X112936190Y-136725761D01*
X112269523Y-136725761D02*
X112269523Y-135392428D01*
X112269523Y-135773380D02*
X112174285Y-135582904D01*
X112079047Y-135487666D01*
X111888571Y-135392428D01*
X111698095Y-135392428D01*
X110745714Y-136725761D02*
X110936190Y-136630523D01*
X111031428Y-136535285D01*
X111126666Y-136344809D01*
X111126666Y-135773380D01*
X111031428Y-135582904D01*
X110936190Y-135487666D01*
X110745714Y-135392428D01*
X110460000Y-135392428D01*
X110269523Y-135487666D01*
X110174285Y-135582904D01*
X110079047Y-135773380D01*
X110079047Y-136344809D01*
X110174285Y-136535285D01*
X110269523Y-136630523D01*
X110460000Y-136725761D01*
X110745714Y-136725761D01*
X108936190Y-136725761D02*
X109126666Y-136630523D01*
X109221904Y-136440047D01*
X109221904Y-134725761D01*
X107888571Y-136725761D02*
X108079047Y-136630523D01*
X108174285Y-136440047D01*
X108174285Y-134725761D01*
X106364761Y-136630523D02*
X106555238Y-136725761D01*
X106936190Y-136725761D01*
X107126666Y-136630523D01*
X107221904Y-136440047D01*
X107221904Y-135678142D01*
X107126666Y-135487666D01*
X106936190Y-135392428D01*
X106555238Y-135392428D01*
X106364761Y-135487666D01*
X106269523Y-135678142D01*
X106269523Y-135868619D01*
X107221904Y-136059095D01*
X105412380Y-136725761D02*
X105412380Y-135392428D01*
X105412380Y-135773380D02*
X105317142Y-135582904D01*
X105221904Y-135487666D01*
X105031428Y-135392428D01*
X104840952Y-135392428D01*
X133412380Y-138792428D02*
X132936190Y-140125761D01*
X132460000Y-138792428D01*
X130650476Y-140125761D02*
X131793333Y-140125761D01*
X131221904Y-140125761D02*
X131221904Y-138125761D01*
X131412380Y-138411476D01*
X131602857Y-138601952D01*
X131793333Y-138697190D01*
X127221904Y-140125761D02*
X128364761Y-140125761D01*
X127793333Y-140125761D02*
X127793333Y-138125761D01*
X127983809Y-138411476D01*
X128174285Y-138601952D01*
X128364761Y-138697190D01*
X125317142Y-140125761D02*
X126460000Y-140125761D01*
X125888571Y-140125761D02*
X125888571Y-138125761D01*
X126079047Y-138411476D01*
X126269523Y-138601952D01*
X126460000Y-138697190D01*
X123031428Y-138030523D02*
X124745714Y-140601952D01*
X122460000Y-138316238D02*
X122364761Y-138221000D01*
X122174285Y-138125761D01*
X121698095Y-138125761D01*
X121507619Y-138221000D01*
X121412380Y-138316238D01*
X121317142Y-138506714D01*
X121317142Y-138697190D01*
X121412380Y-138982904D01*
X122555238Y-140125761D01*
X121317142Y-140125761D01*
X120079047Y-138125761D02*
X119888571Y-138125761D01*
X119698095Y-138221000D01*
X119602857Y-138316238D01*
X119507619Y-138506714D01*
X119412380Y-138887666D01*
X119412380Y-139363857D01*
X119507619Y-139744809D01*
X119602857Y-139935285D01*
X119698095Y-140030523D01*
X119888571Y-140125761D01*
X120079047Y-140125761D01*
X120269523Y-140030523D01*
X120364761Y-139935285D01*
X120460000Y-139744809D01*
X120555238Y-139363857D01*
X120555238Y-138887666D01*
X120460000Y-138506714D01*
X120364761Y-138316238D01*
X120269523Y-138221000D01*
X120079047Y-138125761D01*
X118650476Y-138316238D02*
X118555238Y-138221000D01*
X118364761Y-138125761D01*
X117888571Y-138125761D01*
X117698095Y-138221000D01*
X117602857Y-138316238D01*
X117507619Y-138506714D01*
X117507619Y-138697190D01*
X117602857Y-138982904D01*
X118745714Y-140125761D01*
X117507619Y-140125761D01*
X116269523Y-138125761D02*
X116079047Y-138125761D01*
X115888571Y-138221000D01*
X115793333Y-138316238D01*
X115698095Y-138506714D01*
X115602857Y-138887666D01*
X115602857Y-139363857D01*
X115698095Y-139744809D01*
X115793333Y-139935285D01*
X115888571Y-140030523D01*
X116079047Y-140125761D01*
X116269523Y-140125761D01*
X116460000Y-140030523D01*
X116555238Y-139935285D01*
X116650476Y-139744809D01*
X116745714Y-139363857D01*
X116745714Y-138887666D01*
X116650476Y-138506714D01*
X116555238Y-138316238D01*
X116460000Y-138221000D01*
X116269523Y-138125761D01*
X136840952Y-145021000D02*
X137031428Y-144925761D01*
X137317142Y-144925761D01*
X137602857Y-145021000D01*
X137793333Y-145211476D01*
X137888571Y-145401952D01*
X137983809Y-145782904D01*
X137983809Y-146068619D01*
X137888571Y-146449571D01*
X137793333Y-146640047D01*
X137602857Y-146830523D01*
X137317142Y-146925761D01*
X137126666Y-146925761D01*
X136840952Y-146830523D01*
X136745714Y-146735285D01*
X136745714Y-146068619D01*
X137126666Y-146068619D01*
X135983809Y-146354333D02*
X135031428Y-146354333D01*
X136174285Y-146925761D02*
X135507619Y-144925761D01*
X134840952Y-146925761D01*
X133507619Y-145878142D02*
X133221904Y-145973380D01*
X133126666Y-146068619D01*
X133031428Y-146259095D01*
X133031428Y-146544809D01*
X133126666Y-146735285D01*
X133221904Y-146830523D01*
X133412380Y-146925761D01*
X134174285Y-146925761D01*
X134174285Y-144925761D01*
X133507619Y-144925761D01*
X133317142Y-145021000D01*
X133221904Y-145116238D01*
X133126666Y-145306714D01*
X133126666Y-145497190D01*
X133221904Y-145687666D01*
X133317142Y-145782904D01*
X133507619Y-145878142D01*
X134174285Y-145878142D01*
X131031428Y-146925761D02*
X131698095Y-145973380D01*
X132174285Y-146925761D02*
X132174285Y-144925761D01*
X131412380Y-144925761D01*
X131221904Y-145021000D01*
X131126666Y-145116238D01*
X131031428Y-145306714D01*
X131031428Y-145592428D01*
X131126666Y-145782904D01*
X131221904Y-145878142D01*
X131412380Y-145973380D01*
X132174285Y-145973380D01*
X130174285Y-146925761D02*
X130174285Y-144925761D01*
X129221904Y-145878142D02*
X128555238Y-145878142D01*
X128269523Y-146925761D02*
X129221904Y-146925761D01*
X129221904Y-144925761D01*
X128269523Y-144925761D01*
X126460000Y-146925761D02*
X127412380Y-146925761D01*
X127412380Y-144925761D01*
X123221904Y-145021000D02*
X123412380Y-144925761D01*
X123698095Y-144925761D01*
X123983809Y-145021000D01*
X124174285Y-145211476D01*
X124269523Y-145401952D01*
X124364761Y-145782904D01*
X124364761Y-146068619D01*
X124269523Y-146449571D01*
X124174285Y-146640047D01*
X123983809Y-146830523D01*
X123698095Y-146925761D01*
X123507619Y-146925761D01*
X123221904Y-146830523D01*
X123126666Y-146735285D01*
X123126666Y-146068619D01*
X123507619Y-146068619D01*
X121888571Y-144925761D02*
X121507619Y-144925761D01*
X121317142Y-145021000D01*
X121126666Y-145211476D01*
X121031428Y-145592428D01*
X121031428Y-146259095D01*
X121126666Y-146640047D01*
X121317142Y-146830523D01*
X121507619Y-146925761D01*
X121888571Y-146925761D01*
X122079047Y-146830523D01*
X122269523Y-146640047D01*
X122364761Y-146259095D01*
X122364761Y-145592428D01*
X122269523Y-145211476D01*
X122079047Y-145021000D01*
X121888571Y-144925761D01*
X120269523Y-146830523D02*
X119983809Y-146925761D01*
X119507619Y-146925761D01*
X119317142Y-146830523D01*
X119221904Y-146735285D01*
X119126666Y-146544809D01*
X119126666Y-146354333D01*
X119221904Y-146163857D01*
X119317142Y-146068619D01*
X119507619Y-145973380D01*
X119888571Y-145878142D01*
X120079047Y-145782904D01*
X120174285Y-145687666D01*
X120269523Y-145497190D01*
X120269523Y-145306714D01*
X120174285Y-145116238D01*
X120079047Y-145021000D01*
X119888571Y-144925761D01*
X119412380Y-144925761D01*
X119126666Y-145021000D01*
X118269523Y-146925761D02*
X118269523Y-144925761D01*
X117602857Y-146354333D01*
X116936190Y-144925761D01*
X116936190Y-146925761D01*
X116079047Y-146354333D02*
X115126666Y-146354333D01*
X116269523Y-146925761D02*
X115602857Y-144925761D01*
X114936190Y-146925761D01*
X114269523Y-146925761D02*
X114269523Y-144925761D01*
X113126666Y-146925761D01*
X113126666Y-144925761D01*
X112174285Y-146925761D02*
X112174285Y-144925761D01*
X111031428Y-146925761D01*
X111031428Y-144925761D01*
X140174285Y-150325761D02*
X140174285Y-148325761D01*
X139412380Y-148325761D01*
X139221904Y-148421000D01*
X139126666Y-148516238D01*
X139031428Y-148706714D01*
X139031428Y-148992428D01*
X139126666Y-149182904D01*
X139221904Y-149278142D01*
X139412380Y-149373380D01*
X140174285Y-149373380D01*
X138174285Y-149278142D02*
X137507619Y-149278142D01*
X137221904Y-150325761D02*
X138174285Y-150325761D01*
X138174285Y-148325761D01*
X137221904Y-148325761D01*
X136364761Y-150325761D02*
X136364761Y-148325761D01*
X135888571Y-148325761D01*
X135602857Y-148421000D01*
X135412380Y-148611476D01*
X135317142Y-148801952D01*
X135221904Y-149182904D01*
X135221904Y-149468619D01*
X135317142Y-149849571D01*
X135412380Y-150040047D01*
X135602857Y-150230523D01*
X135888571Y-150325761D01*
X136364761Y-150325761D01*
X133221904Y-150325761D02*
X133888571Y-149373380D01*
X134364761Y-150325761D02*
X134364761Y-148325761D01*
X133602857Y-148325761D01*
X133412380Y-148421000D01*
X133317142Y-148516238D01*
X133221904Y-148706714D01*
X133221904Y-148992428D01*
X133317142Y-149182904D01*
X133412380Y-149278142D01*
X133602857Y-149373380D01*
X134364761Y-149373380D01*
X131983809Y-148325761D02*
X131602857Y-148325761D01*
X131412380Y-148421000D01*
X131221904Y-148611476D01*
X131126666Y-148992428D01*
X131126666Y-149659095D01*
X131221904Y-150040047D01*
X131412380Y-150230523D01*
X131602857Y-150325761D01*
X131983809Y-150325761D01*
X132174285Y-150230523D01*
X132364761Y-150040047D01*
X132460000Y-149659095D01*
X132460000Y-148992428D01*
X132364761Y-148611476D01*
X132174285Y-148421000D01*
X131983809Y-148325761D01*
X128745714Y-150325761D02*
X128745714Y-148325761D01*
X128745714Y-149278142D02*
X127602857Y-149278142D01*
X127602857Y-150325761D02*
X127602857Y-148325761D01*
X126650476Y-150135285D02*
X126555238Y-150230523D01*
X126650476Y-150325761D01*
X126745714Y-150230523D01*
X126650476Y-150135285D01*
X126650476Y-150325761D01*
X123031428Y-150135285D02*
X123126666Y-150230523D01*
X123412380Y-150325761D01*
X123602857Y-150325761D01*
X123888571Y-150230523D01*
X124079047Y-150040047D01*
X124174285Y-149849571D01*
X124269523Y-149468619D01*
X124269523Y-149182904D01*
X124174285Y-148801952D01*
X124079047Y-148611476D01*
X123888571Y-148421000D01*
X123602857Y-148325761D01*
X123412380Y-148325761D01*
X123126666Y-148421000D01*
X123031428Y-148516238D01*
X122174285Y-150135285D02*
X122079047Y-150230523D01*
X122174285Y-150325761D01*
X122269523Y-150230523D01*
X122174285Y-150135285D01*
X122174285Y-150325761D01*
X119698095Y-150325761D02*
X119698095Y-148325761D01*
X118555238Y-150325761D02*
X119412380Y-149182904D01*
X118555238Y-148325761D02*
X119698095Y-149468619D01*
X117317142Y-148325761D02*
X116936190Y-148325761D01*
X116745714Y-148421000D01*
X116555238Y-148611476D01*
X116460000Y-148992428D01*
X116460000Y-149659095D01*
X116555238Y-150040047D01*
X116745714Y-150230523D01*
X116936190Y-150325761D01*
X117317142Y-150325761D01*
X117507619Y-150230523D01*
X117698095Y-150040047D01*
X117793333Y-149659095D01*
X117793333Y-148992428D01*
X117698095Y-148611476D01*
X117507619Y-148421000D01*
X117317142Y-148325761D01*
X115602857Y-150325761D02*
X115602857Y-148325761D01*
X114840952Y-148325761D01*
X114650476Y-148421000D01*
X114555238Y-148516238D01*
X114460000Y-148706714D01*
X114460000Y-148992428D01*
X114555238Y-149182904D01*
X114650476Y-149278142D01*
X114840952Y-149373380D01*
X115602857Y-149373380D01*
X113602857Y-150325761D02*
X113602857Y-148325761D01*
X112840952Y-148325761D01*
X112650476Y-148421000D01*
X112555238Y-148516238D01*
X112460000Y-148706714D01*
X112460000Y-148992428D01*
X112555238Y-149182904D01*
X112650476Y-149278142D01*
X112840952Y-149373380D01*
X113602857Y-149373380D01*
X111602857Y-149278142D02*
X110936190Y-149278142D01*
X110650476Y-150325761D02*
X111602857Y-150325761D01*
X111602857Y-148325761D01*
X110650476Y-148325761D01*
X108650476Y-150325761D02*
X109317142Y-149373380D01*
X109793333Y-150325761D02*
X109793333Y-148325761D01*
X109031428Y-148325761D01*
X108840952Y-148421000D01*
X108745714Y-148516238D01*
X108650476Y-148706714D01*
X108650476Y-148992428D01*
X108745714Y-149182904D01*
X108840952Y-149278142D01*
X109031428Y-149373380D01*
X109793333Y-149373380D01*
D11*
G36*
X112186393Y-105564836D02*
G01*
X112222949Y-105792663D01*
X112300687Y-106082284D01*
X112406369Y-106386980D01*
X112526755Y-106660035D01*
X112571897Y-106742879D01*
X112877335Y-107142168D01*
X113309451Y-107539141D01*
X113827985Y-107903096D01*
X114392680Y-108203327D01*
X114601137Y-108290524D01*
X114911778Y-108415175D01*
X115147201Y-108518404D01*
X115274193Y-108585191D01*
X115286471Y-108600418D01*
X115203545Y-108579611D01*
X114990009Y-108506594D01*
X114672689Y-108391508D01*
X114278410Y-108244497D01*
X113833997Y-108075701D01*
X113366276Y-107895263D01*
X112902072Y-107713325D01*
X112468212Y-107540029D01*
X112289166Y-107467217D01*
X112198398Y-107480868D01*
X112181515Y-107608457D01*
X112226350Y-107818084D01*
X112320736Y-108077851D01*
X112452507Y-108355856D01*
X112609496Y-108620200D01*
X112779536Y-108838982D01*
X112832696Y-108892287D01*
X113104687Y-109121310D01*
X113411999Y-109329082D01*
X113773578Y-109523073D01*
X114208372Y-109710748D01*
X114735326Y-109899577D01*
X115373387Y-110097025D01*
X116141502Y-110310562D01*
X116986420Y-110529440D01*
X117757792Y-110725167D01*
X118376337Y-110884036D01*
X118853746Y-111009290D01*
X119201707Y-111104173D01*
X119431912Y-111171929D01*
X119556049Y-111215801D01*
X119585808Y-111239035D01*
X119563040Y-111244429D01*
X119438772Y-111226653D01*
X119357965Y-111209667D01*
X117940666Y-111209667D01*
X117898333Y-111252000D01*
X117856000Y-111209667D01*
X117898333Y-111167334D01*
X117940666Y-111209667D01*
X119357965Y-111209667D01*
X119174336Y-111171068D01*
X118793151Y-111083588D01*
X118612258Y-111040334D01*
X117178666Y-111040334D01*
X117136333Y-111082667D01*
X117094000Y-111040334D01*
X117136333Y-110998000D01*
X117178666Y-111040334D01*
X118612258Y-111040334D01*
X118318642Y-110970127D01*
X118259687Y-110955667D01*
X116755333Y-110955667D01*
X116713000Y-110998000D01*
X116670666Y-110955667D01*
X116713000Y-110913334D01*
X116755333Y-110955667D01*
X118259687Y-110955667D01*
X117774229Y-110836598D01*
X117183335Y-110688916D01*
X116569382Y-110532993D01*
X115955791Y-110374743D01*
X115365985Y-110220080D01*
X114823387Y-110074918D01*
X114351417Y-109945170D01*
X113973497Y-109836750D01*
X113897458Y-109813974D01*
X113483832Y-109690332D01*
X113126959Y-109586787D01*
X112858755Y-109512365D01*
X112711137Y-109476094D01*
X112695363Y-109474000D01*
X112663918Y-109543746D01*
X112702213Y-109725404D01*
X112710148Y-109749167D01*
X112986390Y-110294881D01*
X113414260Y-110766396D01*
X113994160Y-111164091D01*
X114450064Y-111382045D01*
X114678149Y-111485013D01*
X114804195Y-111558865D01*
X114802383Y-111587088D01*
X114644576Y-111573729D01*
X114380582Y-111535845D01*
X114069957Y-111483597D01*
X113772257Y-111427147D01*
X113547038Y-111376653D01*
X113511307Y-111366820D01*
X113422137Y-111350631D01*
X113409721Y-111399542D01*
X113475964Y-111548120D01*
X113526739Y-111646707D01*
X113860706Y-112139760D01*
X114310941Y-112546273D01*
X114893795Y-112878680D01*
X115415571Y-113082744D01*
X115660996Y-113165110D01*
X115818867Y-113221960D01*
X115876280Y-113254422D01*
X115820331Y-113263627D01*
X115638116Y-113250706D01*
X115316731Y-113216789D01*
X114843272Y-113163007D01*
X114694010Y-113145947D01*
X114199020Y-113089435D01*
X114375728Y-113435813D01*
X114661254Y-113824205D01*
X115078967Y-114160037D01*
X115594798Y-114422881D01*
X116174676Y-114592312D01*
X116353250Y-114621499D01*
X116797666Y-114681000D01*
X116167209Y-114723334D01*
X115536751Y-114765667D01*
X115820526Y-115088155D01*
X116254960Y-115456464D01*
X116812813Y-115722021D01*
X117478506Y-115878791D01*
X117966001Y-115919629D01*
X118113362Y-115929154D01*
X118123673Y-115947233D01*
X117986629Y-115977773D01*
X117691925Y-116024677D01*
X117686666Y-116025463D01*
X117051666Y-116120334D01*
X117237664Y-116306331D01*
X117596923Y-116576100D01*
X118050384Y-116748489D01*
X118522001Y-116826940D01*
X119080393Y-116882334D01*
X118593252Y-117035439D01*
X118345534Y-117127716D01*
X118188599Y-117214569D01*
X118156134Y-117269483D01*
X118256857Y-117354195D01*
X118453047Y-117474041D01*
X118555199Y-117528489D01*
X118769423Y-117621583D01*
X118987309Y-117669550D01*
X119267468Y-117680382D01*
X119576003Y-117667670D01*
X120247764Y-117628782D01*
X119729215Y-117864169D01*
X119467565Y-117994167D01*
X119281193Y-118108187D01*
X119210666Y-118181163D01*
X119289608Y-118276553D01*
X119503648Y-118359000D01*
X119818609Y-118419994D01*
X120200314Y-118451024D01*
X120302801Y-118453108D01*
X120594434Y-118458819D01*
X120741367Y-118475231D01*
X120768207Y-118510133D01*
X120699560Y-118571316D01*
X120692333Y-118576421D01*
X120427634Y-118766373D01*
X120280591Y-118885722D01*
X120227317Y-118956815D01*
X120240742Y-118998965D01*
X120360971Y-119035220D01*
X120596679Y-119054274D01*
X120894879Y-119056038D01*
X121202586Y-119040425D01*
X121466811Y-119007346D01*
X121498547Y-119001057D01*
X121793000Y-118938854D01*
X121123634Y-119634000D01*
X121500650Y-119634317D01*
X121877666Y-119634633D01*
X121623664Y-119789535D01*
X121407095Y-119952660D01*
X121171258Y-120174213D01*
X121100529Y-120250961D01*
X120831398Y-120557485D01*
X120511842Y-120340629D01*
X120321298Y-120190001D01*
X120054310Y-119951131D01*
X119749730Y-119659794D01*
X119510110Y-119418169D01*
X119088609Y-119005103D01*
X118726867Y-118712468D01*
X118388192Y-118521512D01*
X118035896Y-118413482D01*
X117633288Y-118369629D01*
X117451114Y-118365860D01*
X116944126Y-118394714D01*
X116553038Y-118495059D01*
X116233966Y-118682320D01*
X116040993Y-118861573D01*
X115806965Y-119055153D01*
X115557395Y-119126067D01*
X115490659Y-119128817D01*
X115189000Y-119131634D01*
X115377809Y-119289186D01*
X115500044Y-119414043D01*
X115492132Y-119502183D01*
X115449669Y-119543799D01*
X115349628Y-119669090D01*
X115211804Y-119892806D01*
X115101671Y-120097516D01*
X114959406Y-120357632D01*
X114836278Y-120503913D01*
X114685300Y-120578412D01*
X114526470Y-120612318D01*
X114317053Y-120653842D01*
X114251664Y-120695704D01*
X114306466Y-120760504D01*
X114342007Y-120787231D01*
X114546353Y-120874981D01*
X114748286Y-120904000D01*
X114994875Y-120904000D01*
X114732104Y-121203280D01*
X114584506Y-121390666D01*
X114505333Y-121566883D01*
X114473941Y-121797747D01*
X114469333Y-122040992D01*
X114460287Y-122352377D01*
X114419999Y-122557792D01*
X114328749Y-122720210D01*
X114215656Y-122850987D01*
X114048909Y-123068998D01*
X114030047Y-123206246D01*
X114158517Y-123261135D01*
X114353097Y-123246988D01*
X114545584Y-123227914D01*
X114623354Y-123278674D01*
X114636807Y-123428157D01*
X114588317Y-123726928D01*
X114466894Y-124026629D01*
X114301726Y-124273734D01*
X114122006Y-124414715D01*
X114093810Y-124423858D01*
X113913952Y-124498137D01*
X113898730Y-124580177D01*
X114049741Y-124655792D01*
X114067166Y-124660636D01*
X114511014Y-124708357D01*
X114939639Y-124602659D01*
X115370456Y-124337877D01*
X115558943Y-124175355D01*
X115844219Y-123909667D01*
X115787614Y-124304996D01*
X115759480Y-124541911D01*
X115773323Y-124650386D01*
X115841672Y-124668731D01*
X115902242Y-124655546D01*
X116079859Y-124565610D01*
X116274759Y-124409391D01*
X116282958Y-124401285D01*
X116378510Y-124292392D01*
X116463746Y-124155886D01*
X116550152Y-123963404D01*
X116649217Y-123686584D01*
X116772428Y-123297063D01*
X116893602Y-122893667D01*
X117044398Y-122385667D01*
X117096807Y-122893667D01*
X117154012Y-123305336D01*
X117227339Y-123563235D01*
X117322132Y-123682586D01*
X117378225Y-123695096D01*
X117466283Y-123618867D01*
X117587502Y-123420516D01*
X117724792Y-123139626D01*
X117861062Y-122815780D01*
X117979219Y-122488561D01*
X118032685Y-122301000D01*
X117178666Y-122301000D01*
X117136333Y-122343334D01*
X117094000Y-122301000D01*
X117136333Y-122258667D01*
X117178666Y-122301000D01*
X118032685Y-122301000D01*
X118062175Y-122197551D01*
X118088809Y-122049385D01*
X118129723Y-121809396D01*
X118183433Y-121726136D01*
X118223211Y-121745345D01*
X118386873Y-121819295D01*
X118622329Y-121830023D01*
X118873886Y-121788450D01*
X119085854Y-121705500D01*
X119202543Y-121592094D01*
X119210666Y-121551679D01*
X119136820Y-121458902D01*
X118995472Y-121433167D01*
X118814101Y-121415810D01*
X118731304Y-121384193D01*
X118704313Y-121252903D01*
X118763866Y-121060729D01*
X118882811Y-120872273D01*
X118986256Y-120777564D01*
X119244894Y-120705849D01*
X119578028Y-120782251D01*
X119987989Y-121007386D01*
X120072319Y-121065304D01*
X120325311Y-121274100D01*
X120494496Y-121504036D01*
X120599949Y-121798918D01*
X120661742Y-122202550D01*
X120677370Y-122385667D01*
X120726347Y-122795054D01*
X120806568Y-123218218D01*
X120900700Y-123563801D01*
X120901075Y-123564885D01*
X121074570Y-124066770D01*
X120883451Y-124272380D01*
X120696624Y-124445644D01*
X120445750Y-124645473D01*
X120332500Y-124727062D01*
X120109923Y-124900797D01*
X120002786Y-125052440D01*
X119974707Y-125234890D01*
X119974736Y-125247234D01*
X119999547Y-125562597D01*
X120075704Y-125911342D01*
X120212867Y-126324087D01*
X120420697Y-126831450D01*
X120601349Y-127233186D01*
X120904687Y-127951902D01*
X121099154Y-128562669D01*
X121188363Y-129084111D01*
X121175928Y-129534851D01*
X121105064Y-129829011D01*
X121035617Y-130066710D01*
X121008638Y-130232327D01*
X121016420Y-130273309D01*
X121131341Y-130308405D01*
X121365847Y-130335614D01*
X121670313Y-130353584D01*
X121995117Y-130360962D01*
X122290636Y-130356396D01*
X122507246Y-130338535D01*
X122587328Y-130316120D01*
X122659327Y-130175741D01*
X122651765Y-129954429D01*
X122576659Y-129713689D01*
X122446024Y-129515023D01*
X122427311Y-129497044D01*
X122177066Y-129201177D01*
X121921581Y-128778718D01*
X121678311Y-128270883D01*
X121464712Y-127718884D01*
X121298237Y-127163937D01*
X121196341Y-126647255D01*
X121186903Y-126568146D01*
X121188028Y-126070884D01*
X121293293Y-125637454D01*
X121489713Y-125294718D01*
X121764299Y-125069535D01*
X121942198Y-125005901D01*
X122541910Y-124803456D01*
X123137711Y-124473545D01*
X123675763Y-124050508D01*
X124017381Y-123682224D01*
X124263595Y-123370115D01*
X124533241Y-123534096D01*
X124810759Y-123778243D01*
X124928076Y-124065469D01*
X124883542Y-124379395D01*
X124675506Y-124703639D01*
X124653499Y-124727668D01*
X124442688Y-124953002D01*
X124809149Y-125350566D01*
X125019237Y-125548853D01*
X125332099Y-125807257D01*
X125707978Y-126094471D01*
X126107116Y-126379188D01*
X126169392Y-126421682D01*
X126756323Y-126839616D01*
X127201686Y-127206430D01*
X127519286Y-127538333D01*
X127722928Y-127851534D01*
X127826417Y-128162241D01*
X127846666Y-128391017D01*
X127874314Y-128533778D01*
X127986149Y-128625735D01*
X128204878Y-128698597D01*
X128516993Y-128749453D01*
X128844041Y-128751417D01*
X129126178Y-128708561D01*
X129303558Y-128624960D01*
X129304817Y-128623717D01*
X129358512Y-128460553D01*
X129306015Y-128225511D01*
X129164295Y-127962926D01*
X128961985Y-127727888D01*
X128829978Y-127606631D01*
X128691967Y-127485235D01*
X128526086Y-127345907D01*
X128310469Y-127170855D01*
X128023247Y-126942287D01*
X127642554Y-126642410D01*
X127236187Y-126323680D01*
X126777036Y-125939358D01*
X126436780Y-125601364D01*
X126225514Y-125321008D01*
X126153333Y-125110451D01*
X126208783Y-124996870D01*
X126359372Y-124792560D01*
X126581454Y-124527476D01*
X126825019Y-124259463D01*
X127204472Y-123830084D01*
X127459935Y-123469181D01*
X127605278Y-123146904D01*
X127654372Y-122833403D01*
X127627457Y-122532579D01*
X127548971Y-122210610D01*
X127424520Y-121951343D01*
X127216867Y-121685885D01*
X127104454Y-121564926D01*
X127078798Y-121539000D01*
X125560666Y-121539000D01*
X125518333Y-121581334D01*
X125476000Y-121539000D01*
X125518333Y-121496667D01*
X125560666Y-121539000D01*
X127078798Y-121539000D01*
X126979407Y-121438566D01*
X126899948Y-121348409D01*
X126885042Y-121283572D01*
X126953659Y-121233166D01*
X127124764Y-121186306D01*
X127417324Y-121132105D01*
X127850308Y-121059678D01*
X128040508Y-121027673D01*
X128725447Y-120874389D01*
X129295391Y-120669554D01*
X129733719Y-120420879D01*
X130023815Y-120136071D01*
X130050823Y-120095098D01*
X130167053Y-119912819D01*
X130238898Y-119811028D01*
X130247347Y-119803334D01*
X130330733Y-119822771D01*
X130542870Y-119875219D01*
X130848416Y-119951885D01*
X131097965Y-120015000D01*
X131476638Y-120105542D01*
X131815829Y-120176748D01*
X132067832Y-120219086D01*
X132157268Y-120226667D01*
X132359746Y-120283173D01*
X132527861Y-120473866D01*
X132542246Y-120497675D01*
X132660198Y-120669899D01*
X132859851Y-120933313D01*
X133112384Y-121250816D01*
X133364834Y-121556643D01*
X133674741Y-121942607D01*
X133893972Y-122253133D01*
X134010862Y-122470867D01*
X134027333Y-122542512D01*
X133951383Y-122781423D01*
X133755310Y-122954979D01*
X133491500Y-123020667D01*
X133350150Y-123042989D01*
X133280095Y-123125738D01*
X133281215Y-123292584D01*
X133353391Y-123567198D01*
X133486809Y-123947156D01*
X133610354Y-124259460D01*
X133708283Y-124441637D01*
X133803114Y-124525905D01*
X133904377Y-124544667D01*
X134112387Y-124463719D01*
X134314627Y-124235140D01*
X134495152Y-123880325D01*
X134579544Y-123638673D01*
X134674892Y-123264525D01*
X134709375Y-122931471D01*
X134674452Y-122608116D01*
X134561578Y-122263059D01*
X134362213Y-121864902D01*
X134067814Y-121382247D01*
X133893115Y-121115667D01*
X133648585Y-120733375D01*
X133431637Y-120367550D01*
X133264823Y-120058018D01*
X133170695Y-119844605D01*
X133167262Y-119833806D01*
X133112848Y-119668325D01*
X133048268Y-119541897D01*
X133014872Y-119507000D01*
X122512666Y-119507000D01*
X122470333Y-119549334D01*
X122428000Y-119507000D01*
X122470333Y-119464667D01*
X122512666Y-119507000D01*
X133014872Y-119507000D01*
X132946962Y-119436038D01*
X132782375Y-119332260D01*
X132527949Y-119212079D01*
X132157126Y-119057009D01*
X131903105Y-118953864D01*
X131808522Y-118914334D01*
X121920000Y-118914334D01*
X121877666Y-118956667D01*
X121835333Y-118914334D01*
X121877666Y-118872000D01*
X121920000Y-118914334D01*
X131808522Y-118914334D01*
X131538820Y-118801616D01*
X131228700Y-118663281D01*
X131009265Y-118555694D01*
X130921933Y-118501585D01*
X130864560Y-118363172D01*
X130870789Y-118174996D01*
X130927789Y-118009892D01*
X131020754Y-117940667D01*
X131060065Y-117919959D01*
X125020462Y-117919959D01*
X125010333Y-117994064D01*
X124891256Y-118047400D01*
X124675413Y-118148717D01*
X124502333Y-118231475D01*
X124265326Y-118344462D01*
X124099588Y-118421344D01*
X124050890Y-118441989D01*
X124087321Y-118387895D01*
X124209885Y-118239728D01*
X124389557Y-118032413D01*
X124507698Y-117898334D01*
X122428000Y-117898334D01*
X122385666Y-117940667D01*
X122343333Y-117898334D01*
X122385666Y-117856000D01*
X122428000Y-117898334D01*
X124507698Y-117898334D01*
X124756333Y-117616159D01*
X124925666Y-117788324D01*
X125020462Y-117919959D01*
X131060065Y-117919959D01*
X131140626Y-117877522D01*
X131329412Y-117709757D01*
X131471607Y-117559667D01*
X120396000Y-117559667D01*
X120353666Y-117602000D01*
X120311333Y-117559667D01*
X120353666Y-117517334D01*
X120396000Y-117559667D01*
X131471607Y-117559667D01*
X131556672Y-117469880D01*
X131758922Y-117229650D01*
X124252540Y-117229650D01*
X124206000Y-117305667D01*
X124078514Y-117412390D01*
X124015933Y-117432667D01*
X123990126Y-117381684D01*
X124036666Y-117305667D01*
X124164152Y-117198944D01*
X124226734Y-117178667D01*
X124252540Y-117229650D01*
X131758922Y-117229650D01*
X131791971Y-117190395D01*
X132004872Y-116903809D01*
X132038916Y-116853298D01*
X132086861Y-116783556D01*
X119267111Y-116783556D01*
X119255489Y-116833890D01*
X119210666Y-116840000D01*
X119140976Y-116809022D01*
X119154222Y-116783556D01*
X119254702Y-116773423D01*
X119267111Y-116783556D01*
X132086861Y-116783556D01*
X132140953Y-116704874D01*
X132238692Y-116598425D01*
X132363328Y-116522737D01*
X132546056Y-116466596D01*
X132818070Y-116418791D01*
X133210566Y-116368109D01*
X133477000Y-116336376D01*
X133853842Y-116281056D01*
X134214340Y-116210213D01*
X134485866Y-116138304D01*
X134504868Y-116131774D01*
X134734563Y-116060660D01*
X134892053Y-116063007D01*
X135062317Y-116149291D01*
X135156676Y-116212128D01*
X135342026Y-116346490D01*
X135410194Y-116450590D01*
X135384313Y-116588955D01*
X135335308Y-116710372D01*
X135255433Y-116913525D01*
X135214202Y-117041804D01*
X135212666Y-117053268D01*
X135289569Y-117135763D01*
X135490121Y-117218484D01*
X135769092Y-117289288D01*
X136081252Y-117336033D01*
X136310614Y-117348000D01*
X136821333Y-117348000D01*
X136821333Y-117045711D01*
X136806989Y-116889756D01*
X136748377Y-116745009D01*
X136622127Y-116577762D01*
X136404871Y-116354305D01*
X136219674Y-116177878D01*
X135916598Y-115905663D01*
X135656094Y-115716359D01*
X135398592Y-115599100D01*
X135104524Y-115543021D01*
X134734318Y-115537257D01*
X134248404Y-115570945D01*
X134069666Y-115587549D01*
X133614282Y-115618897D01*
X133132975Y-115632323D01*
X132707686Y-115626117D01*
X132582382Y-115618615D01*
X132248077Y-115597161D01*
X132022882Y-115604661D01*
X131847411Y-115653256D01*
X131662280Y-115755087D01*
X131546634Y-115830355D01*
X131266655Y-116028984D01*
X131001219Y-116238290D01*
X130897423Y-116329426D01*
X130643341Y-116566773D01*
X130374011Y-116289667D01*
X126322666Y-116289667D01*
X126280333Y-116332000D01*
X126238000Y-116289667D01*
X126280333Y-116247334D01*
X126322666Y-116289667D01*
X130374011Y-116289667D01*
X130282170Y-116195175D01*
X130152690Y-116035667D01*
X126238000Y-116035667D01*
X126195666Y-116078000D01*
X126153333Y-116035667D01*
X126195666Y-115993334D01*
X126238000Y-116035667D01*
X130152690Y-116035667D01*
X129946506Y-115781667D01*
X126153333Y-115781667D01*
X126111000Y-115824000D01*
X126068666Y-115781667D01*
X126111000Y-115739334D01*
X126153333Y-115781667D01*
X129946506Y-115781667D01*
X129814213Y-115618695D01*
X129409070Y-114932002D01*
X129099442Y-114191518D01*
X129071894Y-114106915D01*
X128952013Y-113716562D01*
X128888342Y-113469755D01*
X128881680Y-113350029D01*
X128932828Y-113340918D01*
X129042584Y-113425958D01*
X129102258Y-113481863D01*
X129412441Y-113679107D01*
X129649189Y-113722961D01*
X129837824Y-113745653D01*
X129918943Y-113787358D01*
X129916745Y-113798885D01*
X129932506Y-113901419D01*
X130012573Y-114106591D01*
X130131814Y-114354460D01*
X130265374Y-114640681D01*
X130357643Y-114893458D01*
X130386666Y-115038499D01*
X130412674Y-115169678D01*
X130522952Y-115223203D01*
X130683000Y-115231334D01*
X130905973Y-115194425D01*
X130976847Y-115085724D01*
X130895425Y-114908265D01*
X130716379Y-114714969D01*
X130574063Y-114560053D01*
X130548958Y-114477344D01*
X130574621Y-114469334D01*
X130711546Y-114526882D01*
X130881098Y-114666844D01*
X130894666Y-114681000D01*
X131141191Y-114855870D01*
X131387814Y-114872323D01*
X131607394Y-114731001D01*
X131704734Y-114605861D01*
X131680688Y-114532198D01*
X131599350Y-114479576D01*
X131503804Y-114407442D01*
X131534844Y-114390157D01*
X131658286Y-114429404D01*
X131746899Y-114472312D01*
X131852826Y-114515895D01*
X131896598Y-114488310D01*
X131874355Y-114369960D01*
X131782237Y-114141250D01*
X131616385Y-113782583D01*
X131607278Y-113763391D01*
X131408175Y-113284023D01*
X131314296Y-112898157D01*
X131303889Y-112739240D01*
X131288225Y-112498134D01*
X131248665Y-112336250D01*
X131226278Y-112305973D01*
X131150611Y-112199013D01*
X131206944Y-112111386D01*
X131272688Y-112098667D01*
X131407433Y-112031443D01*
X131487333Y-111929334D01*
X131613095Y-111781816D01*
X131729495Y-111791694D01*
X131801219Y-111928381D01*
X131868765Y-112046242D01*
X131944564Y-112022291D01*
X131992065Y-111878013D01*
X131995333Y-111814270D01*
X131981767Y-111764997D01*
X130979333Y-111764997D01*
X130952125Y-111841925D01*
X130889690Y-111774814D01*
X130862361Y-111713269D01*
X130856444Y-111625870D01*
X130895636Y-111633600D01*
X130976324Y-111742001D01*
X130979333Y-111764997D01*
X131981767Y-111764997D01*
X131929329Y-111574550D01*
X131736163Y-111444284D01*
X131555066Y-111421334D01*
X131371834Y-111389994D01*
X131322526Y-111316295D01*
X131422940Y-111230717D01*
X131450366Y-111219323D01*
X131541123Y-111140665D01*
X131503544Y-111066072D01*
X131372143Y-111046022D01*
X131336796Y-111053219D01*
X131233053Y-111042306D01*
X131152669Y-110923800D01*
X131082013Y-110702144D01*
X130994540Y-110469853D01*
X130905278Y-110372853D01*
X130835372Y-110418912D01*
X130806181Y-110600830D01*
X130794545Y-110705066D01*
X130754192Y-110671427D01*
X130686058Y-110532334D01*
X130606219Y-110377842D01*
X130566057Y-110369891D01*
X130550862Y-110447667D01*
X130528208Y-110481306D01*
X130492702Y-110371100D01*
X130474940Y-110278334D01*
X130417910Y-109939667D01*
X130317622Y-110178012D01*
X130251592Y-110422541D01*
X130218296Y-110717345D01*
X130217333Y-110768327D01*
X130217333Y-111120296D01*
X129858191Y-110761154D01*
X130054112Y-110412559D01*
X130250033Y-110063965D01*
X129958516Y-109814757D01*
X129731867Y-109633920D01*
X129610885Y-109574617D01*
X129584659Y-109635567D01*
X129626762Y-109775845D01*
X129687468Y-109945963D01*
X129709333Y-110025282D01*
X129638776Y-110026828D01*
X129461194Y-109984196D01*
X129227724Y-109913695D01*
X128989501Y-109831639D01*
X128797662Y-109754338D01*
X128712454Y-109707296D01*
X128587762Y-109655676D01*
X128536281Y-109726374D01*
X128579788Y-109880374D01*
X128598183Y-109912010D01*
X128657913Y-110023207D01*
X128624625Y-110061232D01*
X128466998Y-110042932D01*
X128383311Y-110027583D01*
X128147362Y-109968265D01*
X127979601Y-109899340D01*
X127960733Y-109886223D01*
X127861812Y-109854995D01*
X127821324Y-109933380D01*
X127847978Y-110069122D01*
X127913045Y-110172362D01*
X127977035Y-110255268D01*
X127955236Y-110281003D01*
X127820208Y-110251683D01*
X127626830Y-110194445D01*
X127190936Y-110092988D01*
X126849469Y-110077345D01*
X126624707Y-110147696D01*
X126582987Y-110186051D01*
X126542776Y-110276722D01*
X126633297Y-110334701D01*
X126733282Y-110360207D01*
X126982657Y-110414979D01*
X126782895Y-110614742D01*
X126562216Y-110762018D01*
X126410566Y-110769378D01*
X126270112Y-110773377D01*
X126248099Y-110855759D01*
X126351644Y-110967308D01*
X126379513Y-110984114D01*
X126454728Y-111048033D01*
X126405980Y-111115703D01*
X126267513Y-111194405D01*
X126005537Y-111359401D01*
X125862647Y-111513639D01*
X125855196Y-111636325D01*
X125892541Y-111671136D01*
X125949870Y-111750056D01*
X125905688Y-111887663D01*
X125850509Y-111982183D01*
X125624712Y-112299165D01*
X125397070Y-112539752D01*
X125198630Y-112673742D01*
X125121493Y-112691333D01*
X124992756Y-112730035D01*
X124968000Y-112776000D01*
X125039834Y-112843083D01*
X125158500Y-112863241D01*
X125284641Y-112874900D01*
X125254812Y-112919407D01*
X125207415Y-112948432D01*
X125034542Y-113111092D01*
X124866545Y-113362033D01*
X124746553Y-113627418D01*
X124714000Y-113793190D01*
X124720005Y-113914481D01*
X124761294Y-113923366D01*
X124872774Y-113814606D01*
X124921624Y-113762030D01*
X125095399Y-113592644D01*
X125183370Y-113546736D01*
X125175987Y-113626588D01*
X125135415Y-113710918D01*
X125079676Y-113911451D01*
X125067042Y-114170223D01*
X125068936Y-114197751D01*
X125095000Y-114511667D01*
X125239777Y-114257667D01*
X125337955Y-114109097D01*
X125382497Y-114109768D01*
X125387943Y-114157400D01*
X125317997Y-114443654D01*
X125104746Y-114775617D01*
X124986544Y-114911332D01*
X124854988Y-115066374D01*
X124836611Y-115148163D01*
X124912876Y-115195808D01*
X125081209Y-115191789D01*
X125264987Y-115111691D01*
X125412902Y-115023624D01*
X125467236Y-115035808D01*
X125473307Y-115123548D01*
X125421681Y-115308637D01*
X125346307Y-115438016D01*
X125248486Y-115609985D01*
X125222000Y-115713182D01*
X125286286Y-115803596D01*
X125434758Y-115816123D01*
X125600835Y-115749969D01*
X125640431Y-115718167D01*
X125677109Y-115711685D01*
X125632263Y-115822778D01*
X125598315Y-115884895D01*
X125505495Y-116104047D01*
X125520510Y-116225743D01*
X125635228Y-116230947D01*
X125726321Y-116184613D01*
X125859820Y-116130463D01*
X125928920Y-116202476D01*
X125931480Y-116208985D01*
X125945728Y-116396242D01*
X125929951Y-116459000D01*
X125940137Y-116556429D01*
X126089956Y-116585988D01*
X126094886Y-116586000D01*
X126272844Y-116555300D01*
X126351594Y-116499217D01*
X126379087Y-116478060D01*
X126374777Y-116514335D01*
X126277332Y-116662774D01*
X126078871Y-116700632D01*
X125799626Y-116635535D01*
X125784374Y-116628334D01*
X120988666Y-116628334D01*
X120946333Y-116670667D01*
X120904000Y-116628334D01*
X120946333Y-116586000D01*
X120988666Y-116628334D01*
X125784374Y-116628334D01*
X125605040Y-116543667D01*
X121242666Y-116543667D01*
X121200333Y-116586000D01*
X121158000Y-116543667D01*
X121200333Y-116501334D01*
X121242666Y-116543667D01*
X125605040Y-116543667D01*
X125459827Y-116475109D01*
X125435150Y-116459000D01*
X121412000Y-116459000D01*
X121369666Y-116501334D01*
X121327333Y-116459000D01*
X121369666Y-116416667D01*
X121412000Y-116459000D01*
X125435150Y-116459000D01*
X125305448Y-116374334D01*
X121666000Y-116374334D01*
X121623666Y-116416667D01*
X121581333Y-116374334D01*
X121623666Y-116332000D01*
X121666000Y-116374334D01*
X125305448Y-116374334D01*
X125154128Y-116275556D01*
X121891778Y-116275556D01*
X121880155Y-116325890D01*
X121835333Y-116332000D01*
X121765643Y-116301022D01*
X121778889Y-116275556D01*
X121879368Y-116265423D01*
X121891778Y-116275556D01*
X125154128Y-116275556D01*
X125079708Y-116226977D01*
X125035704Y-116190889D01*
X122145778Y-116190889D01*
X122134155Y-116241223D01*
X122089333Y-116247334D01*
X122019643Y-116216355D01*
X122032889Y-116190889D01*
X122133368Y-116180756D01*
X122145778Y-116190889D01*
X125035704Y-116190889D01*
X124949672Y-116120334D01*
X122343333Y-116120334D01*
X122301000Y-116162667D01*
X122258666Y-116120334D01*
X122301000Y-116078000D01*
X122343333Y-116120334D01*
X124949672Y-116120334D01*
X124846432Y-116035667D01*
X122597333Y-116035667D01*
X122555000Y-116078000D01*
X122512666Y-116035667D01*
X122555000Y-115993334D01*
X122597333Y-116035667D01*
X124846432Y-116035667D01*
X124679500Y-115898767D01*
X124636111Y-115859021D01*
X124331464Y-115527667D01*
X122512666Y-115527667D01*
X122470333Y-115570000D01*
X122428000Y-115527667D01*
X122470333Y-115485334D01*
X122512666Y-115527667D01*
X124331464Y-115527667D01*
X124247378Y-115436210D01*
X124166933Y-115309480D01*
X122470333Y-115309480D01*
X122455064Y-115349985D01*
X122316940Y-115395554D01*
X122101772Y-115436219D01*
X121855370Y-115462014D01*
X121750666Y-115466060D01*
X121703839Y-115451174D01*
X121801450Y-115409542D01*
X121962333Y-115365399D01*
X122219996Y-115314709D01*
X122412389Y-115299307D01*
X122470333Y-115309480D01*
X124166933Y-115309480D01*
X123974007Y-115005556D01*
X119436444Y-115005556D01*
X119424822Y-115055890D01*
X119380000Y-115062000D01*
X119310310Y-115031022D01*
X119323555Y-115005556D01*
X119424035Y-114995423D01*
X119436444Y-115005556D01*
X123974007Y-115005556D01*
X123971841Y-115002144D01*
X123902346Y-114806387D01*
X122428000Y-114806387D01*
X122354125Y-114865710D01*
X122174803Y-114892534D01*
X122159889Y-114892667D01*
X121986943Y-114884489D01*
X121925142Y-114864566D01*
X121927055Y-114862244D01*
X122054214Y-114804239D01*
X122228856Y-114771732D01*
X122377346Y-114772933D01*
X122428000Y-114806387D01*
X123902346Y-114806387D01*
X123826955Y-114594020D01*
X121835735Y-114594020D01*
X121749295Y-114606164D01*
X121531491Y-114611497D01*
X121496666Y-114611567D01*
X121264061Y-114607232D01*
X121160492Y-114595796D01*
X121204938Y-114579615D01*
X121221500Y-114577419D01*
X121518385Y-114563408D01*
X121771833Y-114577419D01*
X121835735Y-114594020D01*
X123826955Y-114594020D01*
X123823579Y-114584513D01*
X123811820Y-114237820D01*
X123860782Y-114088334D01*
X122512666Y-114088334D01*
X122470333Y-114130667D01*
X122428000Y-114088334D01*
X122470333Y-114046000D01*
X122512666Y-114088334D01*
X123860782Y-114088334D01*
X123879463Y-114031303D01*
X123882091Y-114025758D01*
X122052612Y-114025758D01*
X121969389Y-114039316D01*
X121859575Y-114023749D01*
X121858264Y-113994847D01*
X121971581Y-113974636D01*
X122020541Y-113988163D01*
X122052612Y-114025758D01*
X123882091Y-114025758D01*
X123924555Y-113936163D01*
X121020469Y-113936163D01*
X120904000Y-113947965D01*
X120783804Y-113934660D01*
X120798166Y-113905260D01*
X120971509Y-113894078D01*
X121009833Y-113905260D01*
X121020469Y-113936163D01*
X123924555Y-113936163D01*
X124017078Y-113740953D01*
X124082153Y-113626119D01*
X122766666Y-113626119D01*
X122688841Y-113649749D01*
X122481898Y-113662629D01*
X122185633Y-113665885D01*
X121839846Y-113660643D01*
X121484335Y-113648028D01*
X121158896Y-113629165D01*
X120903329Y-113605180D01*
X120757431Y-113577197D01*
X120741722Y-113568860D01*
X120806907Y-113557063D01*
X121010394Y-113547348D01*
X121321154Y-113540677D01*
X121708158Y-113538012D01*
X121736555Y-113538000D01*
X122212125Y-113545070D01*
X122547839Y-113565651D01*
X122732662Y-113598798D01*
X122766666Y-113626119D01*
X124082153Y-113626119D01*
X124197880Y-113421903D01*
X124243841Y-113348563D01*
X124419797Y-113066828D01*
X124424869Y-113058222D01*
X122569111Y-113058222D01*
X122557489Y-113108557D01*
X122512666Y-113114667D01*
X122442976Y-113083689D01*
X122456222Y-113058222D01*
X122556702Y-113048089D01*
X122569111Y-113058222D01*
X124424869Y-113058222D01*
X124466453Y-112987667D01*
X123190000Y-112987667D01*
X123147666Y-113030000D01*
X123105333Y-112987667D01*
X123147666Y-112945334D01*
X123190000Y-112987667D01*
X124466453Y-112987667D01*
X124516354Y-112903000D01*
X122682000Y-112903000D01*
X122639666Y-112945334D01*
X122597333Y-112903000D01*
X122639666Y-112860667D01*
X122682000Y-112903000D01*
X124516354Y-112903000D01*
X124553623Y-112839768D01*
X124564734Y-112818334D01*
X122174000Y-112818334D01*
X122131666Y-112860667D01*
X122089333Y-112818334D01*
X122131666Y-112776000D01*
X122174000Y-112818334D01*
X124564734Y-112818334D01*
X124608625Y-112733667D01*
X121666000Y-112733667D01*
X121623666Y-112776000D01*
X121581333Y-112733667D01*
X121623666Y-112691334D01*
X121666000Y-112733667D01*
X124608625Y-112733667D01*
X124623795Y-112704404D01*
X124629333Y-112685529D01*
X124701425Y-112624038D01*
X124862166Y-112567473D01*
X124869354Y-112564334D01*
X118533333Y-112564334D01*
X118491000Y-112606667D01*
X118448666Y-112564334D01*
X118491000Y-112522000D01*
X118533333Y-112564334D01*
X124869354Y-112564334D01*
X125063246Y-112479667D01*
X117940666Y-112479667D01*
X117898333Y-112522000D01*
X117856000Y-112479667D01*
X117898333Y-112437334D01*
X117940666Y-112479667D01*
X125063246Y-112479667D01*
X125107839Y-112460195D01*
X125156396Y-112421738D01*
X123664874Y-112421738D01*
X123662684Y-112425979D01*
X123567906Y-112458801D01*
X123402932Y-112457390D01*
X123249828Y-112428837D01*
X123190000Y-112385130D01*
X123263838Y-112362487D01*
X123442172Y-112352678D01*
X123448997Y-112352667D01*
X123614424Y-112372814D01*
X123664874Y-112421738D01*
X125156396Y-112421738D01*
X125269168Y-112332425D01*
X123068612Y-112332425D01*
X122985389Y-112345983D01*
X122875575Y-112330416D01*
X122874264Y-112301514D01*
X122987581Y-112281303D01*
X123036541Y-112294830D01*
X123068612Y-112332425D01*
X125269168Y-112332425D01*
X125324508Y-112288597D01*
X125382330Y-112211556D01*
X123669778Y-112211556D01*
X123658155Y-112261890D01*
X123613333Y-112268000D01*
X123543643Y-112237022D01*
X123549549Y-112225667D01*
X122597333Y-112225667D01*
X122555000Y-112268000D01*
X122512666Y-112225667D01*
X122555000Y-112183334D01*
X122597333Y-112225667D01*
X123549549Y-112225667D01*
X123556889Y-112211556D01*
X123657368Y-112201423D01*
X123669778Y-112211556D01*
X125382330Y-112211556D01*
X125445877Y-112126889D01*
X123331111Y-112126889D01*
X123319489Y-112177223D01*
X123274666Y-112183334D01*
X123204976Y-112152355D01*
X123210882Y-112141000D01*
X122174000Y-112141000D01*
X122131666Y-112183334D01*
X122089333Y-112141000D01*
X122131666Y-112098667D01*
X122174000Y-112141000D01*
X123210882Y-112141000D01*
X123218222Y-112126889D01*
X123318702Y-112116756D01*
X123331111Y-112126889D01*
X125445877Y-112126889D01*
X125469278Y-112095711D01*
X125476489Y-112056334D01*
X122936000Y-112056334D01*
X122893666Y-112098667D01*
X122851333Y-112056334D01*
X122893666Y-112014000D01*
X122936000Y-112056334D01*
X125476489Y-112056334D01*
X125491995Y-111971667D01*
X122597333Y-111971667D01*
X122555000Y-112014000D01*
X122512666Y-111971667D01*
X122555000Y-111929334D01*
X122597333Y-111971667D01*
X125491995Y-111971667D01*
X125500071Y-111927571D01*
X125501928Y-111887000D01*
X122258666Y-111887000D01*
X122216333Y-111929334D01*
X122174000Y-111887000D01*
X122216333Y-111844667D01*
X122258666Y-111887000D01*
X125501928Y-111887000D01*
X125505803Y-111802334D01*
X121920000Y-111802334D01*
X121877666Y-111844667D01*
X121835333Y-111802334D01*
X115993333Y-111802334D01*
X115951000Y-111844667D01*
X115908666Y-111802334D01*
X115951000Y-111760000D01*
X115993333Y-111802334D01*
X121835333Y-111802334D01*
X121877666Y-111760000D01*
X121920000Y-111802334D01*
X125505803Y-111802334D01*
X125508307Y-111747639D01*
X125518230Y-111717667D01*
X121581333Y-111717667D01*
X121539000Y-111760000D01*
X121496666Y-111717667D01*
X121510777Y-111703556D01*
X115541778Y-111703556D01*
X115530155Y-111753890D01*
X115485333Y-111760000D01*
X115415643Y-111729022D01*
X115428889Y-111703556D01*
X115529368Y-111693423D01*
X115541778Y-111703556D01*
X121510777Y-111703556D01*
X121539000Y-111675334D01*
X121581333Y-111717667D01*
X125518230Y-111717667D01*
X125546264Y-111633000D01*
X123613333Y-111633000D01*
X123571000Y-111675334D01*
X123528666Y-111633000D01*
X121242666Y-111633000D01*
X121200333Y-111675334D01*
X121180091Y-111655091D01*
X115194612Y-111655091D01*
X115111389Y-111668649D01*
X115001575Y-111653083D01*
X115000264Y-111624181D01*
X115113581Y-111603969D01*
X115162541Y-111617497D01*
X115194612Y-111655091D01*
X121180091Y-111655091D01*
X121158000Y-111633000D01*
X121200333Y-111590667D01*
X121242666Y-111633000D01*
X123528666Y-111633000D01*
X123571000Y-111590667D01*
X123613333Y-111633000D01*
X125546264Y-111633000D01*
X125574297Y-111548334D01*
X120904000Y-111548334D01*
X120861666Y-111590667D01*
X120819333Y-111548334D01*
X120861666Y-111506000D01*
X120904000Y-111548334D01*
X125574297Y-111548334D01*
X125583612Y-111520204D01*
X125594388Y-111497824D01*
X125615648Y-111449556D01*
X120537111Y-111449556D01*
X120525489Y-111499890D01*
X120480666Y-111506000D01*
X120410976Y-111475022D01*
X120424222Y-111449556D01*
X120524702Y-111439423D01*
X120537111Y-111449556D01*
X125615648Y-111449556D01*
X125636995Y-111401091D01*
X120274612Y-111401091D01*
X120191389Y-111414649D01*
X120081575Y-111399083D01*
X120080264Y-111370181D01*
X120193581Y-111349969D01*
X120242541Y-111363497D01*
X120274612Y-111401091D01*
X125636995Y-111401091D01*
X125684018Y-111294334D01*
X122682000Y-111294334D01*
X122639666Y-111336667D01*
X122597333Y-111294334D01*
X122089333Y-111294334D01*
X122047000Y-111336667D01*
X122026758Y-111316425D01*
X119935945Y-111316425D01*
X119852722Y-111329983D01*
X119742908Y-111314416D01*
X119741597Y-111285514D01*
X119854914Y-111265303D01*
X119903875Y-111278830D01*
X119935945Y-111316425D01*
X122026758Y-111316425D01*
X122004666Y-111294334D01*
X122047000Y-111252000D01*
X122089333Y-111294334D01*
X122597333Y-111294334D01*
X122639666Y-111252000D01*
X122682000Y-111294334D01*
X125684018Y-111294334D01*
X125702241Y-111252962D01*
X125705482Y-111209667D01*
X122428000Y-111209667D01*
X122385666Y-111252000D01*
X122343333Y-111209667D01*
X121835333Y-111209667D01*
X121793000Y-111252000D01*
X121750666Y-111209667D01*
X121793000Y-111167334D01*
X121835333Y-111209667D01*
X122343333Y-111209667D01*
X122385666Y-111167334D01*
X122428000Y-111209667D01*
X125705482Y-111209667D01*
X125711800Y-111125304D01*
X125710975Y-111125000D01*
X122258666Y-111125000D01*
X122216333Y-111167334D01*
X122174000Y-111125000D01*
X121581333Y-111125000D01*
X121539000Y-111167334D01*
X121496666Y-111125000D01*
X121539000Y-111082667D01*
X121581333Y-111125000D01*
X122174000Y-111125000D01*
X122216333Y-111082667D01*
X122258666Y-111125000D01*
X125710975Y-111125000D01*
X125618210Y-111090833D01*
X125514787Y-111104067D01*
X125340228Y-111099900D01*
X125279537Y-111040334D01*
X122004666Y-111040334D01*
X121962333Y-111082667D01*
X121920000Y-111040334D01*
X121327333Y-111040334D01*
X121285000Y-111082667D01*
X121242666Y-111040334D01*
X121285000Y-110998000D01*
X121327333Y-111040334D01*
X121920000Y-111040334D01*
X121962333Y-110998000D01*
X122004666Y-111040334D01*
X125279537Y-111040334D01*
X125216480Y-110978447D01*
X125203706Y-110955667D01*
X121750666Y-110955667D01*
X121708333Y-110998000D01*
X121666000Y-110955667D01*
X121680111Y-110941556D01*
X121045111Y-110941556D01*
X121033489Y-110991890D01*
X120988666Y-110998000D01*
X120918976Y-110967022D01*
X120932222Y-110941556D01*
X121032702Y-110931423D01*
X121045111Y-110941556D01*
X121680111Y-110941556D01*
X121708333Y-110913334D01*
X121750666Y-110955667D01*
X125203706Y-110955667D01*
X125176120Y-110906475D01*
X125156593Y-110856889D01*
X120791111Y-110856889D01*
X120779489Y-110907223D01*
X120734666Y-110913334D01*
X120664976Y-110882355D01*
X120678222Y-110856889D01*
X120778702Y-110846756D01*
X120791111Y-110856889D01*
X125156593Y-110856889D01*
X125128808Y-110786334D01*
X120480666Y-110786334D01*
X120438333Y-110828667D01*
X120396000Y-110786334D01*
X120438333Y-110744000D01*
X120480666Y-110786334D01*
X125128808Y-110786334D01*
X125095465Y-110701667D01*
X120226666Y-110701667D01*
X120184333Y-110744000D01*
X120142000Y-110701667D01*
X120184333Y-110659334D01*
X120226666Y-110701667D01*
X125095465Y-110701667D01*
X125086756Y-110679553D01*
X125075251Y-110617000D01*
X119972666Y-110617000D01*
X119930333Y-110659334D01*
X119888000Y-110617000D01*
X119930333Y-110574667D01*
X119972666Y-110617000D01*
X125075251Y-110617000D01*
X125052666Y-110494205D01*
X124998707Y-110354930D01*
X124881954Y-110326308D01*
X124770094Y-110411065D01*
X124740716Y-110481648D01*
X124695198Y-110586401D01*
X124604645Y-110586490D01*
X124492149Y-110532334D01*
X119718666Y-110532334D01*
X119676333Y-110574667D01*
X119634000Y-110532334D01*
X119676333Y-110490000D01*
X119718666Y-110532334D01*
X124492149Y-110532334D01*
X124473476Y-110523345D01*
X124318496Y-110447667D01*
X119464666Y-110447667D01*
X119422333Y-110490000D01*
X119380000Y-110447667D01*
X119422333Y-110405334D01*
X119464666Y-110447667D01*
X124318496Y-110447667D01*
X124271936Y-110424932D01*
X123986089Y-110295097D01*
X123761110Y-110197517D01*
X123753463Y-110193667D01*
X119634000Y-110193667D01*
X119591666Y-110236000D01*
X119549333Y-110193667D01*
X119591666Y-110151334D01*
X119634000Y-110193667D01*
X123753463Y-110193667D01*
X123585286Y-110109000D01*
X119380000Y-110109000D01*
X119337666Y-110151334D01*
X119295333Y-110109000D01*
X119337666Y-110066667D01*
X119380000Y-110109000D01*
X123585286Y-110109000D01*
X123433313Y-110032491D01*
X123423956Y-110024334D01*
X118110000Y-110024334D01*
X118067666Y-110066667D01*
X118025333Y-110024334D01*
X118067666Y-109982000D01*
X118110000Y-110024334D01*
X123423956Y-110024334D01*
X123326832Y-109939667D01*
X118956666Y-109939667D01*
X118914333Y-109982000D01*
X118872000Y-109939667D01*
X118914333Y-109897334D01*
X118956666Y-109939667D01*
X123326832Y-109939667D01*
X123244712Y-109868080D01*
X123237452Y-109855000D01*
X118702666Y-109855000D01*
X118660333Y-109897334D01*
X118618000Y-109855000D01*
X118660333Y-109812667D01*
X118702666Y-109855000D01*
X123237452Y-109855000D01*
X123190458Y-109770334D01*
X118448666Y-109770334D01*
X118406333Y-109812667D01*
X118364000Y-109770334D01*
X118406333Y-109728000D01*
X118448666Y-109770334D01*
X123190458Y-109770334D01*
X123189004Y-109767715D01*
X123142184Y-109578988D01*
X123152058Y-109466895D01*
X123121398Y-109406607D01*
X123017737Y-109389333D01*
X122845060Y-109460162D01*
X122791199Y-109558667D01*
X122744548Y-109695372D01*
X122720433Y-109728000D01*
X122637785Y-109694389D01*
X122618298Y-109685667D01*
X118279333Y-109685667D01*
X118237000Y-109728000D01*
X118194666Y-109685667D01*
X118237000Y-109643334D01*
X118279333Y-109685667D01*
X122618298Y-109685667D01*
X122434396Y-109603359D01*
X122429252Y-109601000D01*
X118025333Y-109601000D01*
X117983000Y-109643334D01*
X117940666Y-109601000D01*
X117983000Y-109558667D01*
X118025333Y-109601000D01*
X122429252Y-109601000D01*
X122244611Y-109516334D01*
X117771333Y-109516334D01*
X117729000Y-109558667D01*
X117686666Y-109516334D01*
X117729000Y-109474000D01*
X117771333Y-109516334D01*
X122244611Y-109516334D01*
X122142731Y-109469618D01*
X122030740Y-109417556D01*
X117573778Y-109417556D01*
X117562155Y-109467890D01*
X117517333Y-109474000D01*
X117447643Y-109443022D01*
X117460889Y-109417556D01*
X117561368Y-109407423D01*
X117573778Y-109417556D01*
X122030740Y-109417556D01*
X121862475Y-109339334D01*
X121848392Y-109332889D01*
X117319778Y-109332889D01*
X117308155Y-109383223D01*
X117263333Y-109389334D01*
X117193643Y-109358355D01*
X117206889Y-109332889D01*
X117307368Y-109322756D01*
X117319778Y-109332889D01*
X121848392Y-109332889D01*
X121694218Y-109262334D01*
X117094000Y-109262334D01*
X117051666Y-109304667D01*
X117009333Y-109262334D01*
X117051666Y-109220000D01*
X117094000Y-109262334D01*
X121694218Y-109262334D01*
X121478371Y-109163556D01*
X116896444Y-109163556D01*
X116884822Y-109213890D01*
X116840000Y-109220000D01*
X116770310Y-109189022D01*
X116783555Y-109163556D01*
X116884035Y-109153423D01*
X116896444Y-109163556D01*
X121478371Y-109163556D01*
X121333054Y-109097055D01*
X121291770Y-109078889D01*
X116642444Y-109078889D01*
X116630822Y-109129223D01*
X116586000Y-109135334D01*
X116516310Y-109104355D01*
X116529555Y-109078889D01*
X116630035Y-109068756D01*
X116642444Y-109078889D01*
X121291770Y-109078889D01*
X121131424Y-109008334D01*
X116416666Y-109008334D01*
X116374333Y-109050667D01*
X116332000Y-109008334D01*
X116374333Y-108966000D01*
X116416666Y-109008334D01*
X121131424Y-109008334D01*
X120906937Y-108909556D01*
X116219111Y-108909556D01*
X116207489Y-108959890D01*
X116162666Y-108966000D01*
X116092976Y-108935022D01*
X116106222Y-108909556D01*
X116206702Y-108899423D01*
X116219111Y-108909556D01*
X120906937Y-108909556D01*
X120803881Y-108864210D01*
X120802804Y-108863754D01*
X115976436Y-108863754D01*
X115951000Y-108878741D01*
X115811861Y-108836584D01*
X115739333Y-108796667D01*
X115671564Y-108729579D01*
X115697000Y-108714593D01*
X115836139Y-108756749D01*
X115908666Y-108796667D01*
X115976436Y-108863754D01*
X120802804Y-108863754D01*
X120310916Y-108655556D01*
X115541778Y-108655556D01*
X115530155Y-108705890D01*
X115485333Y-108712000D01*
X115415643Y-108681022D01*
X115428889Y-108655556D01*
X115529368Y-108645423D01*
X115541778Y-108655556D01*
X120310916Y-108655556D01*
X120300726Y-108651243D01*
X119849360Y-108468595D01*
X119475554Y-108326710D01*
X119205078Y-108236029D01*
X119067600Y-108206817D01*
X118980873Y-108223749D01*
X119015981Y-108288919D01*
X119121313Y-108381900D01*
X119328293Y-108554165D01*
X119100146Y-108496904D01*
X118919706Y-108481199D01*
X118872000Y-108543226D01*
X118832142Y-108595429D01*
X118696690Y-108532239D01*
X118681500Y-108522441D01*
X118522608Y-108438732D01*
X118250015Y-108314637D01*
X117908301Y-108169949D01*
X117686666Y-108080708D01*
X117402004Y-107959268D01*
X116994714Y-107772793D01*
X116492318Y-107534534D01*
X115922339Y-107257740D01*
X115312301Y-106955659D01*
X114689726Y-106641542D01*
X114568218Y-106579509D01*
X113992838Y-106287521D01*
X113466424Y-106024906D01*
X113007632Y-105800612D01*
X112635119Y-105623588D01*
X112367540Y-105502786D01*
X112223553Y-105447153D01*
X112204257Y-105445521D01*
X112186393Y-105564836D01*
G37*
X112186393Y-105564836D02*
X112222949Y-105792663D01*
X112300687Y-106082284D01*
X112406369Y-106386980D01*
X112526755Y-106660035D01*
X112571897Y-106742879D01*
X112877335Y-107142168D01*
X113309451Y-107539141D01*
X113827985Y-107903096D01*
X114392680Y-108203327D01*
X114601137Y-108290524D01*
X114911778Y-108415175D01*
X115147201Y-108518404D01*
X115274193Y-108585191D01*
X115286471Y-108600418D01*
X115203545Y-108579611D01*
X114990009Y-108506594D01*
X114672689Y-108391508D01*
X114278410Y-108244497D01*
X113833997Y-108075701D01*
X113366276Y-107895263D01*
X112902072Y-107713325D01*
X112468212Y-107540029D01*
X112289166Y-107467217D01*
X112198398Y-107480868D01*
X112181515Y-107608457D01*
X112226350Y-107818084D01*
X112320736Y-108077851D01*
X112452507Y-108355856D01*
X112609496Y-108620200D01*
X112779536Y-108838982D01*
X112832696Y-108892287D01*
X113104687Y-109121310D01*
X113411999Y-109329082D01*
X113773578Y-109523073D01*
X114208372Y-109710748D01*
X114735326Y-109899577D01*
X115373387Y-110097025D01*
X116141502Y-110310562D01*
X116986420Y-110529440D01*
X117757792Y-110725167D01*
X118376337Y-110884036D01*
X118853746Y-111009290D01*
X119201707Y-111104173D01*
X119431912Y-111171929D01*
X119556049Y-111215801D01*
X119585808Y-111239035D01*
X119563040Y-111244429D01*
X119438772Y-111226653D01*
X119357965Y-111209667D01*
X117940666Y-111209667D01*
X117898333Y-111252000D01*
X117856000Y-111209667D01*
X117898333Y-111167334D01*
X117940666Y-111209667D01*
X119357965Y-111209667D01*
X119174336Y-111171068D01*
X118793151Y-111083588D01*
X118612258Y-111040334D01*
X117178666Y-111040334D01*
X117136333Y-111082667D01*
X117094000Y-111040334D01*
X117136333Y-110998000D01*
X117178666Y-111040334D01*
X118612258Y-111040334D01*
X118318642Y-110970127D01*
X118259687Y-110955667D01*
X116755333Y-110955667D01*
X116713000Y-110998000D01*
X116670666Y-110955667D01*
X116713000Y-110913334D01*
X116755333Y-110955667D01*
X118259687Y-110955667D01*
X117774229Y-110836598D01*
X117183335Y-110688916D01*
X116569382Y-110532993D01*
X115955791Y-110374743D01*
X115365985Y-110220080D01*
X114823387Y-110074918D01*
X114351417Y-109945170D01*
X113973497Y-109836750D01*
X113897458Y-109813974D01*
X113483832Y-109690332D01*
X113126959Y-109586787D01*
X112858755Y-109512365D01*
X112711137Y-109476094D01*
X112695363Y-109474000D01*
X112663918Y-109543746D01*
X112702213Y-109725404D01*
X112710148Y-109749167D01*
X112986390Y-110294881D01*
X113414260Y-110766396D01*
X113994160Y-111164091D01*
X114450064Y-111382045D01*
X114678149Y-111485013D01*
X114804195Y-111558865D01*
X114802383Y-111587088D01*
X114644576Y-111573729D01*
X114380582Y-111535845D01*
X114069957Y-111483597D01*
X113772257Y-111427147D01*
X113547038Y-111376653D01*
X113511307Y-111366820D01*
X113422137Y-111350631D01*
X113409721Y-111399542D01*
X113475964Y-111548120D01*
X113526739Y-111646707D01*
X113860706Y-112139760D01*
X114310941Y-112546273D01*
X114893795Y-112878680D01*
X115415571Y-113082744D01*
X115660996Y-113165110D01*
X115818867Y-113221960D01*
X115876280Y-113254422D01*
X115820331Y-113263627D01*
X115638116Y-113250706D01*
X115316731Y-113216789D01*
X114843272Y-113163007D01*
X114694010Y-113145947D01*
X114199020Y-113089435D01*
X114375728Y-113435813D01*
X114661254Y-113824205D01*
X115078967Y-114160037D01*
X115594798Y-114422881D01*
X116174676Y-114592312D01*
X116353250Y-114621499D01*
X116797666Y-114681000D01*
X116167209Y-114723334D01*
X115536751Y-114765667D01*
X115820526Y-115088155D01*
X116254960Y-115456464D01*
X116812813Y-115722021D01*
X117478506Y-115878791D01*
X117966001Y-115919629D01*
X118113362Y-115929154D01*
X118123673Y-115947233D01*
X117986629Y-115977773D01*
X117691925Y-116024677D01*
X117686666Y-116025463D01*
X117051666Y-116120334D01*
X117237664Y-116306331D01*
X117596923Y-116576100D01*
X118050384Y-116748489D01*
X118522001Y-116826940D01*
X119080393Y-116882334D01*
X118593252Y-117035439D01*
X118345534Y-117127716D01*
X118188599Y-117214569D01*
X118156134Y-117269483D01*
X118256857Y-117354195D01*
X118453047Y-117474041D01*
X118555199Y-117528489D01*
X118769423Y-117621583D01*
X118987309Y-117669550D01*
X119267468Y-117680382D01*
X119576003Y-117667670D01*
X120247764Y-117628782D01*
X119729215Y-117864169D01*
X119467565Y-117994167D01*
X119281193Y-118108187D01*
X119210666Y-118181163D01*
X119289608Y-118276553D01*
X119503648Y-118359000D01*
X119818609Y-118419994D01*
X120200314Y-118451024D01*
X120302801Y-118453108D01*
X120594434Y-118458819D01*
X120741367Y-118475231D01*
X120768207Y-118510133D01*
X120699560Y-118571316D01*
X120692333Y-118576421D01*
X120427634Y-118766373D01*
X120280591Y-118885722D01*
X120227317Y-118956815D01*
X120240742Y-118998965D01*
X120360971Y-119035220D01*
X120596679Y-119054274D01*
X120894879Y-119056038D01*
X121202586Y-119040425D01*
X121466811Y-119007346D01*
X121498547Y-119001057D01*
X121793000Y-118938854D01*
X121123634Y-119634000D01*
X121500650Y-119634317D01*
X121877666Y-119634633D01*
X121623664Y-119789535D01*
X121407095Y-119952660D01*
X121171258Y-120174213D01*
X121100529Y-120250961D01*
X120831398Y-120557485D01*
X120511842Y-120340629D01*
X120321298Y-120190001D01*
X120054310Y-119951131D01*
X119749730Y-119659794D01*
X119510110Y-119418169D01*
X119088609Y-119005103D01*
X118726867Y-118712468D01*
X118388192Y-118521512D01*
X118035896Y-118413482D01*
X117633288Y-118369629D01*
X117451114Y-118365860D01*
X116944126Y-118394714D01*
X116553038Y-118495059D01*
X116233966Y-118682320D01*
X116040993Y-118861573D01*
X115806965Y-119055153D01*
X115557395Y-119126067D01*
X115490659Y-119128817D01*
X115189000Y-119131634D01*
X115377809Y-119289186D01*
X115500044Y-119414043D01*
X115492132Y-119502183D01*
X115449669Y-119543799D01*
X115349628Y-119669090D01*
X115211804Y-119892806D01*
X115101671Y-120097516D01*
X114959406Y-120357632D01*
X114836278Y-120503913D01*
X114685300Y-120578412D01*
X114526470Y-120612318D01*
X114317053Y-120653842D01*
X114251664Y-120695704D01*
X114306466Y-120760504D01*
X114342007Y-120787231D01*
X114546353Y-120874981D01*
X114748286Y-120904000D01*
X114994875Y-120904000D01*
X114732104Y-121203280D01*
X114584506Y-121390666D01*
X114505333Y-121566883D01*
X114473941Y-121797747D01*
X114469333Y-122040992D01*
X114460287Y-122352377D01*
X114419999Y-122557792D01*
X114328749Y-122720210D01*
X114215656Y-122850987D01*
X114048909Y-123068998D01*
X114030047Y-123206246D01*
X114158517Y-123261135D01*
X114353097Y-123246988D01*
X114545584Y-123227914D01*
X114623354Y-123278674D01*
X114636807Y-123428157D01*
X114588317Y-123726928D01*
X114466894Y-124026629D01*
X114301726Y-124273734D01*
X114122006Y-124414715D01*
X114093810Y-124423858D01*
X113913952Y-124498137D01*
X113898730Y-124580177D01*
X114049741Y-124655792D01*
X114067166Y-124660636D01*
X114511014Y-124708357D01*
X114939639Y-124602659D01*
X115370456Y-124337877D01*
X115558943Y-124175355D01*
X115844219Y-123909667D01*
X115787614Y-124304996D01*
X115759480Y-124541911D01*
X115773323Y-124650386D01*
X115841672Y-124668731D01*
X115902242Y-124655546D01*
X116079859Y-124565610D01*
X116274759Y-124409391D01*
X116282958Y-124401285D01*
X116378510Y-124292392D01*
X116463746Y-124155886D01*
X116550152Y-123963404D01*
X116649217Y-123686584D01*
X116772428Y-123297063D01*
X116893602Y-122893667D01*
X117044398Y-122385667D01*
X117096807Y-122893667D01*
X117154012Y-123305336D01*
X117227339Y-123563235D01*
X117322132Y-123682586D01*
X117378225Y-123695096D01*
X117466283Y-123618867D01*
X117587502Y-123420516D01*
X117724792Y-123139626D01*
X117861062Y-122815780D01*
X117979219Y-122488561D01*
X118032685Y-122301000D01*
X117178666Y-122301000D01*
X117136333Y-122343334D01*
X117094000Y-122301000D01*
X117136333Y-122258667D01*
X117178666Y-122301000D01*
X118032685Y-122301000D01*
X118062175Y-122197551D01*
X118088809Y-122049385D01*
X118129723Y-121809396D01*
X118183433Y-121726136D01*
X118223211Y-121745345D01*
X118386873Y-121819295D01*
X118622329Y-121830023D01*
X118873886Y-121788450D01*
X119085854Y-121705500D01*
X119202543Y-121592094D01*
X119210666Y-121551679D01*
X119136820Y-121458902D01*
X118995472Y-121433167D01*
X118814101Y-121415810D01*
X118731304Y-121384193D01*
X118704313Y-121252903D01*
X118763866Y-121060729D01*
X118882811Y-120872273D01*
X118986256Y-120777564D01*
X119244894Y-120705849D01*
X119578028Y-120782251D01*
X119987989Y-121007386D01*
X120072319Y-121065304D01*
X120325311Y-121274100D01*
X120494496Y-121504036D01*
X120599949Y-121798918D01*
X120661742Y-122202550D01*
X120677370Y-122385667D01*
X120726347Y-122795054D01*
X120806568Y-123218218D01*
X120900700Y-123563801D01*
X120901075Y-123564885D01*
X121074570Y-124066770D01*
X120883451Y-124272380D01*
X120696624Y-124445644D01*
X120445750Y-124645473D01*
X120332500Y-124727062D01*
X120109923Y-124900797D01*
X120002786Y-125052440D01*
X119974707Y-125234890D01*
X119974736Y-125247234D01*
X119999547Y-125562597D01*
X120075704Y-125911342D01*
X120212867Y-126324087D01*
X120420697Y-126831450D01*
X120601349Y-127233186D01*
X120904687Y-127951902D01*
X121099154Y-128562669D01*
X121188363Y-129084111D01*
X121175928Y-129534851D01*
X121105064Y-129829011D01*
X121035617Y-130066710D01*
X121008638Y-130232327D01*
X121016420Y-130273309D01*
X121131341Y-130308405D01*
X121365847Y-130335614D01*
X121670313Y-130353584D01*
X121995117Y-130360962D01*
X122290636Y-130356396D01*
X122507246Y-130338535D01*
X122587328Y-130316120D01*
X122659327Y-130175741D01*
X122651765Y-129954429D01*
X122576659Y-129713689D01*
X122446024Y-129515023D01*
X122427311Y-129497044D01*
X122177066Y-129201177D01*
X121921581Y-128778718D01*
X121678311Y-128270883D01*
X121464712Y-127718884D01*
X121298237Y-127163937D01*
X121196341Y-126647255D01*
X121186903Y-126568146D01*
X121188028Y-126070884D01*
X121293293Y-125637454D01*
X121489713Y-125294718D01*
X121764299Y-125069535D01*
X121942198Y-125005901D01*
X122541910Y-124803456D01*
X123137711Y-124473545D01*
X123675763Y-124050508D01*
X124017381Y-123682224D01*
X124263595Y-123370115D01*
X124533241Y-123534096D01*
X124810759Y-123778243D01*
X124928076Y-124065469D01*
X124883542Y-124379395D01*
X124675506Y-124703639D01*
X124653499Y-124727668D01*
X124442688Y-124953002D01*
X124809149Y-125350566D01*
X125019237Y-125548853D01*
X125332099Y-125807257D01*
X125707978Y-126094471D01*
X126107116Y-126379188D01*
X126169392Y-126421682D01*
X126756323Y-126839616D01*
X127201686Y-127206430D01*
X127519286Y-127538333D01*
X127722928Y-127851534D01*
X127826417Y-128162241D01*
X127846666Y-128391017D01*
X127874314Y-128533778D01*
X127986149Y-128625735D01*
X128204878Y-128698597D01*
X128516993Y-128749453D01*
X128844041Y-128751417D01*
X129126178Y-128708561D01*
X129303558Y-128624960D01*
X129304817Y-128623717D01*
X129358512Y-128460553D01*
X129306015Y-128225511D01*
X129164295Y-127962926D01*
X128961985Y-127727888D01*
X128829978Y-127606631D01*
X128691967Y-127485235D01*
X128526086Y-127345907D01*
X128310469Y-127170855D01*
X128023247Y-126942287D01*
X127642554Y-126642410D01*
X127236187Y-126323680D01*
X126777036Y-125939358D01*
X126436780Y-125601364D01*
X126225514Y-125321008D01*
X126153333Y-125110451D01*
X126208783Y-124996870D01*
X126359372Y-124792560D01*
X126581454Y-124527476D01*
X126825019Y-124259463D01*
X127204472Y-123830084D01*
X127459935Y-123469181D01*
X127605278Y-123146904D01*
X127654372Y-122833403D01*
X127627457Y-122532579D01*
X127548971Y-122210610D01*
X127424520Y-121951343D01*
X127216867Y-121685885D01*
X127104454Y-121564926D01*
X127078798Y-121539000D01*
X125560666Y-121539000D01*
X125518333Y-121581334D01*
X125476000Y-121539000D01*
X125518333Y-121496667D01*
X125560666Y-121539000D01*
X127078798Y-121539000D01*
X126979407Y-121438566D01*
X126899948Y-121348409D01*
X126885042Y-121283572D01*
X126953659Y-121233166D01*
X127124764Y-121186306D01*
X127417324Y-121132105D01*
X127850308Y-121059678D01*
X128040508Y-121027673D01*
X128725447Y-120874389D01*
X129295391Y-120669554D01*
X129733719Y-120420879D01*
X130023815Y-120136071D01*
X130050823Y-120095098D01*
X130167053Y-119912819D01*
X130238898Y-119811028D01*
X130247347Y-119803334D01*
X130330733Y-119822771D01*
X130542870Y-119875219D01*
X130848416Y-119951885D01*
X131097965Y-120015000D01*
X131476638Y-120105542D01*
X131815829Y-120176748D01*
X132067832Y-120219086D01*
X132157268Y-120226667D01*
X132359746Y-120283173D01*
X132527861Y-120473866D01*
X132542246Y-120497675D01*
X132660198Y-120669899D01*
X132859851Y-120933313D01*
X133112384Y-121250816D01*
X133364834Y-121556643D01*
X133674741Y-121942607D01*
X133893972Y-122253133D01*
X134010862Y-122470867D01*
X134027333Y-122542512D01*
X133951383Y-122781423D01*
X133755310Y-122954979D01*
X133491500Y-123020667D01*
X133350150Y-123042989D01*
X133280095Y-123125738D01*
X133281215Y-123292584D01*
X133353391Y-123567198D01*
X133486809Y-123947156D01*
X133610354Y-124259460D01*
X133708283Y-124441637D01*
X133803114Y-124525905D01*
X133904377Y-124544667D01*
X134112387Y-124463719D01*
X134314627Y-124235140D01*
X134495152Y-123880325D01*
X134579544Y-123638673D01*
X134674892Y-123264525D01*
X134709375Y-122931471D01*
X134674452Y-122608116D01*
X134561578Y-122263059D01*
X134362213Y-121864902D01*
X134067814Y-121382247D01*
X133893115Y-121115667D01*
X133648585Y-120733375D01*
X133431637Y-120367550D01*
X133264823Y-120058018D01*
X133170695Y-119844605D01*
X133167262Y-119833806D01*
X133112848Y-119668325D01*
X133048268Y-119541897D01*
X133014872Y-119507000D01*
X122512666Y-119507000D01*
X122470333Y-119549334D01*
X122428000Y-119507000D01*
X122470333Y-119464667D01*
X122512666Y-119507000D01*
X133014872Y-119507000D01*
X132946962Y-119436038D01*
X132782375Y-119332260D01*
X132527949Y-119212079D01*
X132157126Y-119057009D01*
X131903105Y-118953864D01*
X131808522Y-118914334D01*
X121920000Y-118914334D01*
X121877666Y-118956667D01*
X121835333Y-118914334D01*
X121877666Y-118872000D01*
X121920000Y-118914334D01*
X131808522Y-118914334D01*
X131538820Y-118801616D01*
X131228700Y-118663281D01*
X131009265Y-118555694D01*
X130921933Y-118501585D01*
X130864560Y-118363172D01*
X130870789Y-118174996D01*
X130927789Y-118009892D01*
X131020754Y-117940667D01*
X131060065Y-117919959D01*
X125020462Y-117919959D01*
X125010333Y-117994064D01*
X124891256Y-118047400D01*
X124675413Y-118148717D01*
X124502333Y-118231475D01*
X124265326Y-118344462D01*
X124099588Y-118421344D01*
X124050890Y-118441989D01*
X124087321Y-118387895D01*
X124209885Y-118239728D01*
X124389557Y-118032413D01*
X124507698Y-117898334D01*
X122428000Y-117898334D01*
X122385666Y-117940667D01*
X122343333Y-117898334D01*
X122385666Y-117856000D01*
X122428000Y-117898334D01*
X124507698Y-117898334D01*
X124756333Y-117616159D01*
X124925666Y-117788324D01*
X125020462Y-117919959D01*
X131060065Y-117919959D01*
X131140626Y-117877522D01*
X131329412Y-117709757D01*
X131471607Y-117559667D01*
X120396000Y-117559667D01*
X120353666Y-117602000D01*
X120311333Y-117559667D01*
X120353666Y-117517334D01*
X120396000Y-117559667D01*
X131471607Y-117559667D01*
X131556672Y-117469880D01*
X131758922Y-117229650D01*
X124252540Y-117229650D01*
X124206000Y-117305667D01*
X124078514Y-117412390D01*
X124015933Y-117432667D01*
X123990126Y-117381684D01*
X124036666Y-117305667D01*
X124164152Y-117198944D01*
X124226734Y-117178667D01*
X124252540Y-117229650D01*
X131758922Y-117229650D01*
X131791971Y-117190395D01*
X132004872Y-116903809D01*
X132038916Y-116853298D01*
X132086861Y-116783556D01*
X119267111Y-116783556D01*
X119255489Y-116833890D01*
X119210666Y-116840000D01*
X119140976Y-116809022D01*
X119154222Y-116783556D01*
X119254702Y-116773423D01*
X119267111Y-116783556D01*
X132086861Y-116783556D01*
X132140953Y-116704874D01*
X132238692Y-116598425D01*
X132363328Y-116522737D01*
X132546056Y-116466596D01*
X132818070Y-116418791D01*
X133210566Y-116368109D01*
X133477000Y-116336376D01*
X133853842Y-116281056D01*
X134214340Y-116210213D01*
X134485866Y-116138304D01*
X134504868Y-116131774D01*
X134734563Y-116060660D01*
X134892053Y-116063007D01*
X135062317Y-116149291D01*
X135156676Y-116212128D01*
X135342026Y-116346490D01*
X135410194Y-116450590D01*
X135384313Y-116588955D01*
X135335308Y-116710372D01*
X135255433Y-116913525D01*
X135214202Y-117041804D01*
X135212666Y-117053268D01*
X135289569Y-117135763D01*
X135490121Y-117218484D01*
X135769092Y-117289288D01*
X136081252Y-117336033D01*
X136310614Y-117348000D01*
X136821333Y-117348000D01*
X136821333Y-117045711D01*
X136806989Y-116889756D01*
X136748377Y-116745009D01*
X136622127Y-116577762D01*
X136404871Y-116354305D01*
X136219674Y-116177878D01*
X135916598Y-115905663D01*
X135656094Y-115716359D01*
X135398592Y-115599100D01*
X135104524Y-115543021D01*
X134734318Y-115537257D01*
X134248404Y-115570945D01*
X134069666Y-115587549D01*
X133614282Y-115618897D01*
X133132975Y-115632323D01*
X132707686Y-115626117D01*
X132582382Y-115618615D01*
X132248077Y-115597161D01*
X132022882Y-115604661D01*
X131847411Y-115653256D01*
X131662280Y-115755087D01*
X131546634Y-115830355D01*
X131266655Y-116028984D01*
X131001219Y-116238290D01*
X130897423Y-116329426D01*
X130643341Y-116566773D01*
X130374011Y-116289667D01*
X126322666Y-116289667D01*
X126280333Y-116332000D01*
X126238000Y-116289667D01*
X126280333Y-116247334D01*
X126322666Y-116289667D01*
X130374011Y-116289667D01*
X130282170Y-116195175D01*
X130152690Y-116035667D01*
X126238000Y-116035667D01*
X126195666Y-116078000D01*
X126153333Y-116035667D01*
X126195666Y-115993334D01*
X126238000Y-116035667D01*
X130152690Y-116035667D01*
X129946506Y-115781667D01*
X126153333Y-115781667D01*
X126111000Y-115824000D01*
X126068666Y-115781667D01*
X126111000Y-115739334D01*
X126153333Y-115781667D01*
X129946506Y-115781667D01*
X129814213Y-115618695D01*
X129409070Y-114932002D01*
X129099442Y-114191518D01*
X129071894Y-114106915D01*
X128952013Y-113716562D01*
X128888342Y-113469755D01*
X128881680Y-113350029D01*
X128932828Y-113340918D01*
X129042584Y-113425958D01*
X129102258Y-113481863D01*
X129412441Y-113679107D01*
X129649189Y-113722961D01*
X129837824Y-113745653D01*
X129918943Y-113787358D01*
X129916745Y-113798885D01*
X129932506Y-113901419D01*
X130012573Y-114106591D01*
X130131814Y-114354460D01*
X130265374Y-114640681D01*
X130357643Y-114893458D01*
X130386666Y-115038499D01*
X130412674Y-115169678D01*
X130522952Y-115223203D01*
X130683000Y-115231334D01*
X130905973Y-115194425D01*
X130976847Y-115085724D01*
X130895425Y-114908265D01*
X130716379Y-114714969D01*
X130574063Y-114560053D01*
X130548958Y-114477344D01*
X130574621Y-114469334D01*
X130711546Y-114526882D01*
X130881098Y-114666844D01*
X130894666Y-114681000D01*
X131141191Y-114855870D01*
X131387814Y-114872323D01*
X131607394Y-114731001D01*
X131704734Y-114605861D01*
X131680688Y-114532198D01*
X131599350Y-114479576D01*
X131503804Y-114407442D01*
X131534844Y-114390157D01*
X131658286Y-114429404D01*
X131746899Y-114472312D01*
X131852826Y-114515895D01*
X131896598Y-114488310D01*
X131874355Y-114369960D01*
X131782237Y-114141250D01*
X131616385Y-113782583D01*
X131607278Y-113763391D01*
X131408175Y-113284023D01*
X131314296Y-112898157D01*
X131303889Y-112739240D01*
X131288225Y-112498134D01*
X131248665Y-112336250D01*
X131226278Y-112305973D01*
X131150611Y-112199013D01*
X131206944Y-112111386D01*
X131272688Y-112098667D01*
X131407433Y-112031443D01*
X131487333Y-111929334D01*
X131613095Y-111781816D01*
X131729495Y-111791694D01*
X131801219Y-111928381D01*
X131868765Y-112046242D01*
X131944564Y-112022291D01*
X131992065Y-111878013D01*
X131995333Y-111814270D01*
X131981767Y-111764997D01*
X130979333Y-111764997D01*
X130952125Y-111841925D01*
X130889690Y-111774814D01*
X130862361Y-111713269D01*
X130856444Y-111625870D01*
X130895636Y-111633600D01*
X130976324Y-111742001D01*
X130979333Y-111764997D01*
X131981767Y-111764997D01*
X131929329Y-111574550D01*
X131736163Y-111444284D01*
X131555066Y-111421334D01*
X131371834Y-111389994D01*
X131322526Y-111316295D01*
X131422940Y-111230717D01*
X131450366Y-111219323D01*
X131541123Y-111140665D01*
X131503544Y-111066072D01*
X131372143Y-111046022D01*
X131336796Y-111053219D01*
X131233053Y-111042306D01*
X131152669Y-110923800D01*
X131082013Y-110702144D01*
X130994540Y-110469853D01*
X130905278Y-110372853D01*
X130835372Y-110418912D01*
X130806181Y-110600830D01*
X130794545Y-110705066D01*
X130754192Y-110671427D01*
X130686058Y-110532334D01*
X130606219Y-110377842D01*
X130566057Y-110369891D01*
X130550862Y-110447667D01*
X130528208Y-110481306D01*
X130492702Y-110371100D01*
X130474940Y-110278334D01*
X130417910Y-109939667D01*
X130317622Y-110178012D01*
X130251592Y-110422541D01*
X130218296Y-110717345D01*
X130217333Y-110768327D01*
X130217333Y-111120296D01*
X129858191Y-110761154D01*
X130054112Y-110412559D01*
X130250033Y-110063965D01*
X129958516Y-109814757D01*
X129731867Y-109633920D01*
X129610885Y-109574617D01*
X129584659Y-109635567D01*
X129626762Y-109775845D01*
X129687468Y-109945963D01*
X129709333Y-110025282D01*
X129638776Y-110026828D01*
X129461194Y-109984196D01*
X129227724Y-109913695D01*
X128989501Y-109831639D01*
X128797662Y-109754338D01*
X128712454Y-109707296D01*
X128587762Y-109655676D01*
X128536281Y-109726374D01*
X128579788Y-109880374D01*
X128598183Y-109912010D01*
X128657913Y-110023207D01*
X128624625Y-110061232D01*
X128466998Y-110042932D01*
X128383311Y-110027583D01*
X128147362Y-109968265D01*
X127979601Y-109899340D01*
X127960733Y-109886223D01*
X127861812Y-109854995D01*
X127821324Y-109933380D01*
X127847978Y-110069122D01*
X127913045Y-110172362D01*
X127977035Y-110255268D01*
X127955236Y-110281003D01*
X127820208Y-110251683D01*
X127626830Y-110194445D01*
X127190936Y-110092988D01*
X126849469Y-110077345D01*
X126624707Y-110147696D01*
X126582987Y-110186051D01*
X126542776Y-110276722D01*
X126633297Y-110334701D01*
X126733282Y-110360207D01*
X126982657Y-110414979D01*
X126782895Y-110614742D01*
X126562216Y-110762018D01*
X126410566Y-110769378D01*
X126270112Y-110773377D01*
X126248099Y-110855759D01*
X126351644Y-110967308D01*
X126379513Y-110984114D01*
X126454728Y-111048033D01*
X126405980Y-111115703D01*
X126267513Y-111194405D01*
X126005537Y-111359401D01*
X125862647Y-111513639D01*
X125855196Y-111636325D01*
X125892541Y-111671136D01*
X125949870Y-111750056D01*
X125905688Y-111887663D01*
X125850509Y-111982183D01*
X125624712Y-112299165D01*
X125397070Y-112539752D01*
X125198630Y-112673742D01*
X125121493Y-112691333D01*
X124992756Y-112730035D01*
X124968000Y-112776000D01*
X125039834Y-112843083D01*
X125158500Y-112863241D01*
X125284641Y-112874900D01*
X125254812Y-112919407D01*
X125207415Y-112948432D01*
X125034542Y-113111092D01*
X124866545Y-113362033D01*
X124746553Y-113627418D01*
X124714000Y-113793190D01*
X124720005Y-113914481D01*
X124761294Y-113923366D01*
X124872774Y-113814606D01*
X124921624Y-113762030D01*
X125095399Y-113592644D01*
X125183370Y-113546736D01*
X125175987Y-113626588D01*
X125135415Y-113710918D01*
X125079676Y-113911451D01*
X125067042Y-114170223D01*
X125068936Y-114197751D01*
X125095000Y-114511667D01*
X125239777Y-114257667D01*
X125337955Y-114109097D01*
X125382497Y-114109768D01*
X125387943Y-114157400D01*
X125317997Y-114443654D01*
X125104746Y-114775617D01*
X124986544Y-114911332D01*
X124854988Y-115066374D01*
X124836611Y-115148163D01*
X124912876Y-115195808D01*
X125081209Y-115191789D01*
X125264987Y-115111691D01*
X125412902Y-115023624D01*
X125467236Y-115035808D01*
X125473307Y-115123548D01*
X125421681Y-115308637D01*
X125346307Y-115438016D01*
X125248486Y-115609985D01*
X125222000Y-115713182D01*
X125286286Y-115803596D01*
X125434758Y-115816123D01*
X125600835Y-115749969D01*
X125640431Y-115718167D01*
X125677109Y-115711685D01*
X125632263Y-115822778D01*
X125598315Y-115884895D01*
X125505495Y-116104047D01*
X125520510Y-116225743D01*
X125635228Y-116230947D01*
X125726321Y-116184613D01*
X125859820Y-116130463D01*
X125928920Y-116202476D01*
X125931480Y-116208985D01*
X125945728Y-116396242D01*
X125929951Y-116459000D01*
X125940137Y-116556429D01*
X126089956Y-116585988D01*
X126094886Y-116586000D01*
X126272844Y-116555300D01*
X126351594Y-116499217D01*
X126379087Y-116478060D01*
X126374777Y-116514335D01*
X126277332Y-116662774D01*
X126078871Y-116700632D01*
X125799626Y-116635535D01*
X125784374Y-116628334D01*
X120988666Y-116628334D01*
X120946333Y-116670667D01*
X120904000Y-116628334D01*
X120946333Y-116586000D01*
X120988666Y-116628334D01*
X125784374Y-116628334D01*
X125605040Y-116543667D01*
X121242666Y-116543667D01*
X121200333Y-116586000D01*
X121158000Y-116543667D01*
X121200333Y-116501334D01*
X121242666Y-116543667D01*
X125605040Y-116543667D01*
X125459827Y-116475109D01*
X125435150Y-116459000D01*
X121412000Y-116459000D01*
X121369666Y-116501334D01*
X121327333Y-116459000D01*
X121369666Y-116416667D01*
X121412000Y-116459000D01*
X125435150Y-116459000D01*
X125305448Y-116374334D01*
X121666000Y-116374334D01*
X121623666Y-116416667D01*
X121581333Y-116374334D01*
X121623666Y-116332000D01*
X121666000Y-116374334D01*
X125305448Y-116374334D01*
X125154128Y-116275556D01*
X121891778Y-116275556D01*
X121880155Y-116325890D01*
X121835333Y-116332000D01*
X121765643Y-116301022D01*
X121778889Y-116275556D01*
X121879368Y-116265423D01*
X121891778Y-116275556D01*
X125154128Y-116275556D01*
X125079708Y-116226977D01*
X125035704Y-116190889D01*
X122145778Y-116190889D01*
X122134155Y-116241223D01*
X122089333Y-116247334D01*
X122019643Y-116216355D01*
X122032889Y-116190889D01*
X122133368Y-116180756D01*
X122145778Y-116190889D01*
X125035704Y-116190889D01*
X124949672Y-116120334D01*
X122343333Y-116120334D01*
X122301000Y-116162667D01*
X122258666Y-116120334D01*
X122301000Y-116078000D01*
X122343333Y-116120334D01*
X124949672Y-116120334D01*
X124846432Y-116035667D01*
X122597333Y-116035667D01*
X122555000Y-116078000D01*
X122512666Y-116035667D01*
X122555000Y-115993334D01*
X122597333Y-116035667D01*
X124846432Y-116035667D01*
X124679500Y-115898767D01*
X124636111Y-115859021D01*
X124331464Y-115527667D01*
X122512666Y-115527667D01*
X122470333Y-115570000D01*
X122428000Y-115527667D01*
X122470333Y-115485334D01*
X122512666Y-115527667D01*
X124331464Y-115527667D01*
X124247378Y-115436210D01*
X124166933Y-115309480D01*
X122470333Y-115309480D01*
X122455064Y-115349985D01*
X122316940Y-115395554D01*
X122101772Y-115436219D01*
X121855370Y-115462014D01*
X121750666Y-115466060D01*
X121703839Y-115451174D01*
X121801450Y-115409542D01*
X121962333Y-115365399D01*
X122219996Y-115314709D01*
X122412389Y-115299307D01*
X122470333Y-115309480D01*
X124166933Y-115309480D01*
X123974007Y-115005556D01*
X119436444Y-115005556D01*
X119424822Y-115055890D01*
X119380000Y-115062000D01*
X119310310Y-115031022D01*
X119323555Y-115005556D01*
X119424035Y-114995423D01*
X119436444Y-115005556D01*
X123974007Y-115005556D01*
X123971841Y-115002144D01*
X123902346Y-114806387D01*
X122428000Y-114806387D01*
X122354125Y-114865710D01*
X122174803Y-114892534D01*
X122159889Y-114892667D01*
X121986943Y-114884489D01*
X121925142Y-114864566D01*
X121927055Y-114862244D01*
X122054214Y-114804239D01*
X122228856Y-114771732D01*
X122377346Y-114772933D01*
X122428000Y-114806387D01*
X123902346Y-114806387D01*
X123826955Y-114594020D01*
X121835735Y-114594020D01*
X121749295Y-114606164D01*
X121531491Y-114611497D01*
X121496666Y-114611567D01*
X121264061Y-114607232D01*
X121160492Y-114595796D01*
X121204938Y-114579615D01*
X121221500Y-114577419D01*
X121518385Y-114563408D01*
X121771833Y-114577419D01*
X121835735Y-114594020D01*
X123826955Y-114594020D01*
X123823579Y-114584513D01*
X123811820Y-114237820D01*
X123860782Y-114088334D01*
X122512666Y-114088334D01*
X122470333Y-114130667D01*
X122428000Y-114088334D01*
X122470333Y-114046000D01*
X122512666Y-114088334D01*
X123860782Y-114088334D01*
X123879463Y-114031303D01*
X123882091Y-114025758D01*
X122052612Y-114025758D01*
X121969389Y-114039316D01*
X121859575Y-114023749D01*
X121858264Y-113994847D01*
X121971581Y-113974636D01*
X122020541Y-113988163D01*
X122052612Y-114025758D01*
X123882091Y-114025758D01*
X123924555Y-113936163D01*
X121020469Y-113936163D01*
X120904000Y-113947965D01*
X120783804Y-113934660D01*
X120798166Y-113905260D01*
X120971509Y-113894078D01*
X121009833Y-113905260D01*
X121020469Y-113936163D01*
X123924555Y-113936163D01*
X124017078Y-113740953D01*
X124082153Y-113626119D01*
X122766666Y-113626119D01*
X122688841Y-113649749D01*
X122481898Y-113662629D01*
X122185633Y-113665885D01*
X121839846Y-113660643D01*
X121484335Y-113648028D01*
X121158896Y-113629165D01*
X120903329Y-113605180D01*
X120757431Y-113577197D01*
X120741722Y-113568860D01*
X120806907Y-113557063D01*
X121010394Y-113547348D01*
X121321154Y-113540677D01*
X121708158Y-113538012D01*
X121736555Y-113538000D01*
X122212125Y-113545070D01*
X122547839Y-113565651D01*
X122732662Y-113598798D01*
X122766666Y-113626119D01*
X124082153Y-113626119D01*
X124197880Y-113421903D01*
X124243841Y-113348563D01*
X124419797Y-113066828D01*
X124424869Y-113058222D01*
X122569111Y-113058222D01*
X122557489Y-113108557D01*
X122512666Y-113114667D01*
X122442976Y-113083689D01*
X122456222Y-113058222D01*
X122556702Y-113048089D01*
X122569111Y-113058222D01*
X124424869Y-113058222D01*
X124466453Y-112987667D01*
X123190000Y-112987667D01*
X123147666Y-113030000D01*
X123105333Y-112987667D01*
X123147666Y-112945334D01*
X123190000Y-112987667D01*
X124466453Y-112987667D01*
X124516354Y-112903000D01*
X122682000Y-112903000D01*
X122639666Y-112945334D01*
X122597333Y-112903000D01*
X122639666Y-112860667D01*
X122682000Y-112903000D01*
X124516354Y-112903000D01*
X124553623Y-112839768D01*
X124564734Y-112818334D01*
X122174000Y-112818334D01*
X122131666Y-112860667D01*
X122089333Y-112818334D01*
X122131666Y-112776000D01*
X122174000Y-112818334D01*
X124564734Y-112818334D01*
X124608625Y-112733667D01*
X121666000Y-112733667D01*
X121623666Y-112776000D01*
X121581333Y-112733667D01*
X121623666Y-112691334D01*
X121666000Y-112733667D01*
X124608625Y-112733667D01*
X124623795Y-112704404D01*
X124629333Y-112685529D01*
X124701425Y-112624038D01*
X124862166Y-112567473D01*
X124869354Y-112564334D01*
X118533333Y-112564334D01*
X118491000Y-112606667D01*
X118448666Y-112564334D01*
X118491000Y-112522000D01*
X118533333Y-112564334D01*
X124869354Y-112564334D01*
X125063246Y-112479667D01*
X117940666Y-112479667D01*
X117898333Y-112522000D01*
X117856000Y-112479667D01*
X117898333Y-112437334D01*
X117940666Y-112479667D01*
X125063246Y-112479667D01*
X125107839Y-112460195D01*
X125156396Y-112421738D01*
X123664874Y-112421738D01*
X123662684Y-112425979D01*
X123567906Y-112458801D01*
X123402932Y-112457390D01*
X123249828Y-112428837D01*
X123190000Y-112385130D01*
X123263838Y-112362487D01*
X123442172Y-112352678D01*
X123448997Y-112352667D01*
X123614424Y-112372814D01*
X123664874Y-112421738D01*
X125156396Y-112421738D01*
X125269168Y-112332425D01*
X123068612Y-112332425D01*
X122985389Y-112345983D01*
X122875575Y-112330416D01*
X122874264Y-112301514D01*
X122987581Y-112281303D01*
X123036541Y-112294830D01*
X123068612Y-112332425D01*
X125269168Y-112332425D01*
X125324508Y-112288597D01*
X125382330Y-112211556D01*
X123669778Y-112211556D01*
X123658155Y-112261890D01*
X123613333Y-112268000D01*
X123543643Y-112237022D01*
X123549549Y-112225667D01*
X122597333Y-112225667D01*
X122555000Y-112268000D01*
X122512666Y-112225667D01*
X122555000Y-112183334D01*
X122597333Y-112225667D01*
X123549549Y-112225667D01*
X123556889Y-112211556D01*
X123657368Y-112201423D01*
X123669778Y-112211556D01*
X125382330Y-112211556D01*
X125445877Y-112126889D01*
X123331111Y-112126889D01*
X123319489Y-112177223D01*
X123274666Y-112183334D01*
X123204976Y-112152355D01*
X123210882Y-112141000D01*
X122174000Y-112141000D01*
X122131666Y-112183334D01*
X122089333Y-112141000D01*
X122131666Y-112098667D01*
X122174000Y-112141000D01*
X123210882Y-112141000D01*
X123218222Y-112126889D01*
X123318702Y-112116756D01*
X123331111Y-112126889D01*
X125445877Y-112126889D01*
X125469278Y-112095711D01*
X125476489Y-112056334D01*
X122936000Y-112056334D01*
X122893666Y-112098667D01*
X122851333Y-112056334D01*
X122893666Y-112014000D01*
X122936000Y-112056334D01*
X125476489Y-112056334D01*
X125491995Y-111971667D01*
X122597333Y-111971667D01*
X122555000Y-112014000D01*
X122512666Y-111971667D01*
X122555000Y-111929334D01*
X122597333Y-111971667D01*
X125491995Y-111971667D01*
X125500071Y-111927571D01*
X125501928Y-111887000D01*
X122258666Y-111887000D01*
X122216333Y-111929334D01*
X122174000Y-111887000D01*
X122216333Y-111844667D01*
X122258666Y-111887000D01*
X125501928Y-111887000D01*
X125505803Y-111802334D01*
X121920000Y-111802334D01*
X121877666Y-111844667D01*
X121835333Y-111802334D01*
X115993333Y-111802334D01*
X115951000Y-111844667D01*
X115908666Y-111802334D01*
X115951000Y-111760000D01*
X115993333Y-111802334D01*
X121835333Y-111802334D01*
X121877666Y-111760000D01*
X121920000Y-111802334D01*
X125505803Y-111802334D01*
X125508307Y-111747639D01*
X125518230Y-111717667D01*
X121581333Y-111717667D01*
X121539000Y-111760000D01*
X121496666Y-111717667D01*
X121510777Y-111703556D01*
X115541778Y-111703556D01*
X115530155Y-111753890D01*
X115485333Y-111760000D01*
X115415643Y-111729022D01*
X115428889Y-111703556D01*
X115529368Y-111693423D01*
X115541778Y-111703556D01*
X121510777Y-111703556D01*
X121539000Y-111675334D01*
X121581333Y-111717667D01*
X125518230Y-111717667D01*
X125546264Y-111633000D01*
X123613333Y-111633000D01*
X123571000Y-111675334D01*
X123528666Y-111633000D01*
X121242666Y-111633000D01*
X121200333Y-111675334D01*
X121180091Y-111655091D01*
X115194612Y-111655091D01*
X115111389Y-111668649D01*
X115001575Y-111653083D01*
X115000264Y-111624181D01*
X115113581Y-111603969D01*
X115162541Y-111617497D01*
X115194612Y-111655091D01*
X121180091Y-111655091D01*
X121158000Y-111633000D01*
X121200333Y-111590667D01*
X121242666Y-111633000D01*
X123528666Y-111633000D01*
X123571000Y-111590667D01*
X123613333Y-111633000D01*
X125546264Y-111633000D01*
X125574297Y-111548334D01*
X120904000Y-111548334D01*
X120861666Y-111590667D01*
X120819333Y-111548334D01*
X120861666Y-111506000D01*
X120904000Y-111548334D01*
X125574297Y-111548334D01*
X125583612Y-111520204D01*
X125594388Y-111497824D01*
X125615648Y-111449556D01*
X120537111Y-111449556D01*
X120525489Y-111499890D01*
X120480666Y-111506000D01*
X120410976Y-111475022D01*
X120424222Y-111449556D01*
X120524702Y-111439423D01*
X120537111Y-111449556D01*
X125615648Y-111449556D01*
X125636995Y-111401091D01*
X120274612Y-111401091D01*
X120191389Y-111414649D01*
X120081575Y-111399083D01*
X120080264Y-111370181D01*
X120193581Y-111349969D01*
X120242541Y-111363497D01*
X120274612Y-111401091D01*
X125636995Y-111401091D01*
X125684018Y-111294334D01*
X122682000Y-111294334D01*
X122639666Y-111336667D01*
X122597333Y-111294334D01*
X122089333Y-111294334D01*
X122047000Y-111336667D01*
X122026758Y-111316425D01*
X119935945Y-111316425D01*
X119852722Y-111329983D01*
X119742908Y-111314416D01*
X119741597Y-111285514D01*
X119854914Y-111265303D01*
X119903875Y-111278830D01*
X119935945Y-111316425D01*
X122026758Y-111316425D01*
X122004666Y-111294334D01*
X122047000Y-111252000D01*
X122089333Y-111294334D01*
X122597333Y-111294334D01*
X122639666Y-111252000D01*
X122682000Y-111294334D01*
X125684018Y-111294334D01*
X125702241Y-111252962D01*
X125705482Y-111209667D01*
X122428000Y-111209667D01*
X122385666Y-111252000D01*
X122343333Y-111209667D01*
X121835333Y-111209667D01*
X121793000Y-111252000D01*
X121750666Y-111209667D01*
X121793000Y-111167334D01*
X121835333Y-111209667D01*
X122343333Y-111209667D01*
X122385666Y-111167334D01*
X122428000Y-111209667D01*
X125705482Y-111209667D01*
X125711800Y-111125304D01*
X125710975Y-111125000D01*
X122258666Y-111125000D01*
X122216333Y-111167334D01*
X122174000Y-111125000D01*
X121581333Y-111125000D01*
X121539000Y-111167334D01*
X121496666Y-111125000D01*
X121539000Y-111082667D01*
X121581333Y-111125000D01*
X122174000Y-111125000D01*
X122216333Y-111082667D01*
X122258666Y-111125000D01*
X125710975Y-111125000D01*
X125618210Y-111090833D01*
X125514787Y-111104067D01*
X125340228Y-111099900D01*
X125279537Y-111040334D01*
X122004666Y-111040334D01*
X121962333Y-111082667D01*
X121920000Y-111040334D01*
X121327333Y-111040334D01*
X121285000Y-111082667D01*
X121242666Y-111040334D01*
X121285000Y-110998000D01*
X121327333Y-111040334D01*
X121920000Y-111040334D01*
X121962333Y-110998000D01*
X122004666Y-111040334D01*
X125279537Y-111040334D01*
X125216480Y-110978447D01*
X125203706Y-110955667D01*
X121750666Y-110955667D01*
X121708333Y-110998000D01*
X121666000Y-110955667D01*
X121680111Y-110941556D01*
X121045111Y-110941556D01*
X121033489Y-110991890D01*
X120988666Y-110998000D01*
X120918976Y-110967022D01*
X120932222Y-110941556D01*
X121032702Y-110931423D01*
X121045111Y-110941556D01*
X121680111Y-110941556D01*
X121708333Y-110913334D01*
X121750666Y-110955667D01*
X125203706Y-110955667D01*
X125176120Y-110906475D01*
X125156593Y-110856889D01*
X120791111Y-110856889D01*
X120779489Y-110907223D01*
X120734666Y-110913334D01*
X120664976Y-110882355D01*
X120678222Y-110856889D01*
X120778702Y-110846756D01*
X120791111Y-110856889D01*
X125156593Y-110856889D01*
X125128808Y-110786334D01*
X120480666Y-110786334D01*
X120438333Y-110828667D01*
X120396000Y-110786334D01*
X120438333Y-110744000D01*
X120480666Y-110786334D01*
X125128808Y-110786334D01*
X125095465Y-110701667D01*
X120226666Y-110701667D01*
X120184333Y-110744000D01*
X120142000Y-110701667D01*
X120184333Y-110659334D01*
X120226666Y-110701667D01*
X125095465Y-110701667D01*
X125086756Y-110679553D01*
X125075251Y-110617000D01*
X119972666Y-110617000D01*
X119930333Y-110659334D01*
X119888000Y-110617000D01*
X119930333Y-110574667D01*
X119972666Y-110617000D01*
X125075251Y-110617000D01*
X125052666Y-110494205D01*
X124998707Y-110354930D01*
X124881954Y-110326308D01*
X124770094Y-110411065D01*
X124740716Y-110481648D01*
X124695198Y-110586401D01*
X124604645Y-110586490D01*
X124492149Y-110532334D01*
X119718666Y-110532334D01*
X119676333Y-110574667D01*
X119634000Y-110532334D01*
X119676333Y-110490000D01*
X119718666Y-110532334D01*
X124492149Y-110532334D01*
X124473476Y-110523345D01*
X124318496Y-110447667D01*
X119464666Y-110447667D01*
X119422333Y-110490000D01*
X119380000Y-110447667D01*
X119422333Y-110405334D01*
X119464666Y-110447667D01*
X124318496Y-110447667D01*
X124271936Y-110424932D01*
X123986089Y-110295097D01*
X123761110Y-110197517D01*
X123753463Y-110193667D01*
X119634000Y-110193667D01*
X119591666Y-110236000D01*
X119549333Y-110193667D01*
X119591666Y-110151334D01*
X119634000Y-110193667D01*
X123753463Y-110193667D01*
X123585286Y-110109000D01*
X119380000Y-110109000D01*
X119337666Y-110151334D01*
X119295333Y-110109000D01*
X119337666Y-110066667D01*
X119380000Y-110109000D01*
X123585286Y-110109000D01*
X123433313Y-110032491D01*
X123423956Y-110024334D01*
X118110000Y-110024334D01*
X118067666Y-110066667D01*
X118025333Y-110024334D01*
X118067666Y-109982000D01*
X118110000Y-110024334D01*
X123423956Y-110024334D01*
X123326832Y-109939667D01*
X118956666Y-109939667D01*
X118914333Y-109982000D01*
X118872000Y-109939667D01*
X118914333Y-109897334D01*
X118956666Y-109939667D01*
X123326832Y-109939667D01*
X123244712Y-109868080D01*
X123237452Y-109855000D01*
X118702666Y-109855000D01*
X118660333Y-109897334D01*
X118618000Y-109855000D01*
X118660333Y-109812667D01*
X118702666Y-109855000D01*
X123237452Y-109855000D01*
X123190458Y-109770334D01*
X118448666Y-109770334D01*
X118406333Y-109812667D01*
X118364000Y-109770334D01*
X118406333Y-109728000D01*
X118448666Y-109770334D01*
X123190458Y-109770334D01*
X123189004Y-109767715D01*
X123142184Y-109578988D01*
X123152058Y-109466895D01*
X123121398Y-109406607D01*
X123017737Y-109389333D01*
X122845060Y-109460162D01*
X122791199Y-109558667D01*
X122744548Y-109695372D01*
X122720433Y-109728000D01*
X122637785Y-109694389D01*
X122618298Y-109685667D01*
X118279333Y-109685667D01*
X118237000Y-109728000D01*
X118194666Y-109685667D01*
X118237000Y-109643334D01*
X118279333Y-109685667D01*
X122618298Y-109685667D01*
X122434396Y-109603359D01*
X122429252Y-109601000D01*
X118025333Y-109601000D01*
X117983000Y-109643334D01*
X117940666Y-109601000D01*
X117983000Y-109558667D01*
X118025333Y-109601000D01*
X122429252Y-109601000D01*
X122244611Y-109516334D01*
X117771333Y-109516334D01*
X117729000Y-109558667D01*
X117686666Y-109516334D01*
X117729000Y-109474000D01*
X117771333Y-109516334D01*
X122244611Y-109516334D01*
X122142731Y-109469618D01*
X122030740Y-109417556D01*
X117573778Y-109417556D01*
X117562155Y-109467890D01*
X117517333Y-109474000D01*
X117447643Y-109443022D01*
X117460889Y-109417556D01*
X117561368Y-109407423D01*
X117573778Y-109417556D01*
X122030740Y-109417556D01*
X121862475Y-109339334D01*
X121848392Y-109332889D01*
X117319778Y-109332889D01*
X117308155Y-109383223D01*
X117263333Y-109389334D01*
X117193643Y-109358355D01*
X117206889Y-109332889D01*
X117307368Y-109322756D01*
X117319778Y-109332889D01*
X121848392Y-109332889D01*
X121694218Y-109262334D01*
X117094000Y-109262334D01*
X117051666Y-109304667D01*
X117009333Y-109262334D01*
X117051666Y-109220000D01*
X117094000Y-109262334D01*
X121694218Y-109262334D01*
X121478371Y-109163556D01*
X116896444Y-109163556D01*
X116884822Y-109213890D01*
X116840000Y-109220000D01*
X116770310Y-109189022D01*
X116783555Y-109163556D01*
X116884035Y-109153423D01*
X116896444Y-109163556D01*
X121478371Y-109163556D01*
X121333054Y-109097055D01*
X121291770Y-109078889D01*
X116642444Y-109078889D01*
X116630822Y-109129223D01*
X116586000Y-109135334D01*
X116516310Y-109104355D01*
X116529555Y-109078889D01*
X116630035Y-109068756D01*
X116642444Y-109078889D01*
X121291770Y-109078889D01*
X121131424Y-109008334D01*
X116416666Y-109008334D01*
X116374333Y-109050667D01*
X116332000Y-109008334D01*
X116374333Y-108966000D01*
X116416666Y-109008334D01*
X121131424Y-109008334D01*
X120906937Y-108909556D01*
X116219111Y-108909556D01*
X116207489Y-108959890D01*
X116162666Y-108966000D01*
X116092976Y-108935022D01*
X116106222Y-108909556D01*
X116206702Y-108899423D01*
X116219111Y-108909556D01*
X120906937Y-108909556D01*
X120803881Y-108864210D01*
X120802804Y-108863754D01*
X115976436Y-108863754D01*
X115951000Y-108878741D01*
X115811861Y-108836584D01*
X115739333Y-108796667D01*
X115671564Y-108729579D01*
X115697000Y-108714593D01*
X115836139Y-108756749D01*
X115908666Y-108796667D01*
X115976436Y-108863754D01*
X120802804Y-108863754D01*
X120310916Y-108655556D01*
X115541778Y-108655556D01*
X115530155Y-108705890D01*
X115485333Y-108712000D01*
X115415643Y-108681022D01*
X115428889Y-108655556D01*
X115529368Y-108645423D01*
X115541778Y-108655556D01*
X120310916Y-108655556D01*
X120300726Y-108651243D01*
X119849360Y-108468595D01*
X119475554Y-108326710D01*
X119205078Y-108236029D01*
X119067600Y-108206817D01*
X118980873Y-108223749D01*
X119015981Y-108288919D01*
X119121313Y-108381900D01*
X119328293Y-108554165D01*
X119100146Y-108496904D01*
X118919706Y-108481199D01*
X118872000Y-108543226D01*
X118832142Y-108595429D01*
X118696690Y-108532239D01*
X118681500Y-108522441D01*
X118522608Y-108438732D01*
X118250015Y-108314637D01*
X117908301Y-108169949D01*
X117686666Y-108080708D01*
X117402004Y-107959268D01*
X116994714Y-107772793D01*
X116492318Y-107534534D01*
X115922339Y-107257740D01*
X115312301Y-106955659D01*
X114689726Y-106641542D01*
X114568218Y-106579509D01*
X113992838Y-106287521D01*
X113466424Y-106024906D01*
X113007632Y-105800612D01*
X112635119Y-105623588D01*
X112367540Y-105502786D01*
X112223553Y-105447153D01*
X112204257Y-105445521D01*
X112186393Y-105564836D01*
M02*
