M48
; DRILL file {KiCad (5.1.5)-3} date 12/6/2020 9:02:06 PM
; FORMAT={-:-/ absolute / inch / decimal}
; #@! TF.CreationDate,2020-12-06T21:02:06-03:00
; #@! TF.GenerationSoftware,Kicad,Pcbnew,(5.1.5)-3
; #@! TF.FileFunction,Plated,1,4,PTH
FMAT,2
INCH
T1C0.0157
T2C0.0197
T3C0.0315
T4C0.0394
T5C0.0400
T6C0.0433
T7C0.0472
T8C0.0591
T9C0.0827
T10C0.1063
T11C0.1260
T12C0.1339
%
G90
G05
T1
X3.4Y-3.46
X3.4Y-3.77
X3.49Y-4.05
X3.54Y-3.9
X3.54Y-4.05
X3.555Y-4.6
X3.59Y-4.05
X3.62Y-5.245
X3.65Y-3.9
X3.68Y-5.835
X3.695Y-3.32
X3.71Y-3.08
X3.75Y-2.725
X3.75Y-3.32
X3.8Y-3.32
X3.84Y-3.705
X3.855Y-2.725
X3.9Y-3.07
X3.93Y-3.39
X3.93Y-3.73
X3.94Y-2.725
X3.945Y-3.925
X3.955Y-2.815
X3.955Y-2.885
X3.955Y-2.955
X3.96Y-6.035
X4.025Y-5.455
X4.075Y-4.845
X4.075Y-4.93
X4.076Y-2.766
X4.08Y-2.445
X4.14Y-2.725
X4.14Y-3.075
X4.229Y-5.631
X4.23Y-3.8
X4.2356Y-5.8906
X4.2482Y-3.2932
X4.2501Y-5.0149
X4.315Y-3.925
X4.3163Y-4.2463
X4.3216Y-3.685
X4.335Y-4.355
X4.335Y-4.445
X4.335Y-4.535
X4.335Y-4.625
X4.335Y-4.715
X4.335Y-4.805
X4.335Y-4.89
X4.335Y-5.015
X4.335Y-5.42
X4.335Y-5.5
X4.335Y-5.58
X4.385Y-6.035
X4.44Y-5.835
X4.441Y-4.849
X4.51Y-5.63
X4.51Y-5.39
X4.51Y-5.47
X4.5388Y-5.1538
X4.54Y-5.2475
X4.5425Y-5.055
X4.555Y-5.95
X4.61Y-3.8
X4.62Y-5.79
X4.635Y-5.17
X4.64Y-4.2
X4.64Y-4.25
X4.64Y-4.3
X4.64Y-4.35
X4.64Y-4.4
X4.64Y-4.45
X4.64Y-4.5
X4.64Y-4.55
X4.64Y-4.6
X4.64Y-4.65
X4.64Y-4.7
X4.64Y-4.75
X4.66Y-3.12
X4.67Y-3.685
X4.675Y-3.925
X4.85Y-4.54
X4.865Y-5.39
X4.945Y-5.42
X4.965Y-3.8
X4.99Y-5.88
X5.0Y-4.2
X5.0Y-4.4
X5.0Y-4.45
X5.0Y-4.6
X5.005Y-5.02
X5.02Y-5.78
X5.02Y-6.005
X5.02Y-6.065
X5.03Y-5.855
X5.07Y-5.19
X5.085Y-5.47
X5.12Y-5.25
X5.145Y-5.015
X5.15Y-3.185
X5.15Y-3.235
X5.15Y-3.285
X5.15Y-3.335
X5.15Y-3.385
X5.18Y-4.8
X5.18Y-4.85
X5.18Y-4.925
X5.2Y-3.185
X5.2Y-3.235
X5.2Y-3.285
X5.2Y-3.335
X5.2Y-3.385
X5.245Y-5.69
X5.25Y-3.185
X5.25Y-3.235
X5.25Y-3.285
X5.25Y-3.335
X5.25Y-3.385
X5.28Y-4.25
X5.3Y-3.185
X5.3Y-3.235
X5.3Y-3.285
X5.3Y-3.335
X5.3Y-3.385
X5.315Y-5.65
X5.35Y-3.185
X5.35Y-3.235
X5.35Y-3.285
X5.35Y-3.335
X5.35Y-3.385
X5.35Y-5.555
X5.385Y-5.725
X5.49Y-5.585
X5.53Y-3.185
X5.53Y-3.235
X5.53Y-3.285
X5.53Y-3.335
X5.53Y-3.385
X5.54Y-4.24
X5.54Y-4.37
X5.54Y-4.5
X5.545Y-5.42
X5.545Y-5.48
X5.545Y-6.05
X5.58Y-3.185
X5.58Y-3.235
X5.58Y-3.285
X5.58Y-3.335
X5.58Y-3.385
X5.6Y-5.95
X5.605Y-5.36
X5.63Y-3.185
X5.63Y-3.235
X5.63Y-3.285
X5.63Y-3.335
X5.63Y-3.385
X5.645Y-5.48
X5.65Y-5.11
X5.68Y-3.185
X5.68Y-3.235
X5.68Y-3.285
X5.68Y-3.335
X5.68Y-3.385
X5.73Y-3.185
X5.73Y-3.235
X5.73Y-3.285
X5.73Y-3.335
X5.73Y-3.385
X5.77Y-5.76
X5.895Y-3.22
X5.895Y-3.28
X5.895Y-3.34
X5.895Y-3.4
X5.895Y-3.46
X5.895Y-3.52
X5.895Y-3.58
X5.895Y-3.64
X5.895Y-3.7
X5.895Y-3.76
X5.895Y-3.82
X5.895Y-4.64
X5.895Y-4.7
X5.895Y-4.76
X5.895Y-4.82
X5.895Y-4.88
X5.895Y-4.94
X5.895Y-5.0
X5.895Y-5.06
X5.895Y-5.12
X5.895Y-5.18
X5.895Y-5.24
X5.955Y-3.22
X5.955Y-3.28
X5.955Y-3.34
X5.955Y-3.4
X5.955Y-3.46
X5.955Y-3.52
X5.955Y-3.58
X5.955Y-3.64
X5.955Y-3.7
X5.955Y-3.76
X5.955Y-3.82
X5.955Y-4.64
X5.955Y-4.7
X5.955Y-4.76
X5.955Y-4.82
X5.955Y-4.88
X5.955Y-4.94
X5.955Y-5.0
X5.955Y-5.06
X5.955Y-5.12
X5.955Y-5.18
X5.955Y-5.24
X6.015Y-3.22
X6.015Y-3.28
X6.015Y-3.34
X6.015Y-3.4
X6.015Y-3.46
X6.015Y-3.52
X6.015Y-3.58
X6.015Y-3.64
X6.015Y-3.7
X6.015Y-3.76
X6.015Y-3.82
X6.015Y-4.64
X6.015Y-4.7
X6.015Y-4.76
X6.015Y-4.82
X6.015Y-4.88
X6.015Y-4.94
X6.015Y-5.0
X6.015Y-5.06
X6.015Y-5.12
X6.015Y-5.18
X6.015Y-5.24
X6.075Y-3.22
X6.075Y-3.28
X6.075Y-3.52
X6.075Y-3.58
X6.075Y-3.64
X6.075Y-3.7
X6.075Y-3.76
X6.075Y-3.82
X6.075Y-4.64
X6.075Y-4.7
X6.075Y-4.94
X6.075Y-5.0
X6.075Y-5.06
X6.075Y-5.12
X6.075Y-5.18
X6.075Y-5.24
X6.135Y-3.22
X6.135Y-3.28
X6.135Y-3.52
X6.135Y-3.58
X6.135Y-3.64
X6.135Y-3.7
X6.135Y-3.76
X6.135Y-3.82
X6.135Y-4.64
X6.135Y-4.7
X6.135Y-4.94
X6.135Y-5.0
X6.135Y-5.06
X6.135Y-5.12
X6.135Y-5.18
X6.135Y-5.24
X6.195Y-3.22
X6.195Y-3.28
X6.195Y-3.52
X6.195Y-3.58
X6.195Y-3.64
X6.195Y-3.7
X6.195Y-3.76
X6.195Y-3.82
X6.195Y-4.64
X6.195Y-4.7
X6.195Y-4.94
X6.195Y-5.0
X6.195Y-5.06
X6.195Y-5.12
X6.195Y-5.18
X6.195Y-5.24
X6.255Y-3.22
X6.255Y-3.28
X6.255Y-3.34
X6.255Y-3.4
X6.255Y-3.46
X6.255Y-3.52
X6.255Y-3.58
X6.255Y-3.64
X6.255Y-3.7
X6.255Y-3.76
X6.255Y-3.82
X6.255Y-4.64
X6.255Y-4.7
X6.255Y-4.76
X6.255Y-4.82
X6.255Y-4.88
X6.255Y-4.94
X6.255Y-5.0
X6.255Y-5.06
X6.255Y-5.12
X6.255Y-5.18
X6.255Y-5.24
X6.315Y-3.22
X6.315Y-3.28
X6.315Y-3.34
X6.315Y-3.4
X6.315Y-3.46
X6.315Y-3.52
X6.315Y-3.58
X6.315Y-3.64
X6.315Y-3.7
X6.315Y-3.76
X6.315Y-3.82
X6.315Y-4.64
X6.315Y-4.7
X6.315Y-4.76
X6.315Y-4.82
X6.315Y-4.88
X6.315Y-4.94
X6.315Y-5.0
X6.315Y-5.06
X6.315Y-5.12
X6.315Y-5.18
X6.315Y-5.24
X6.35Y-4.37
X6.375Y-3.22
X6.375Y-3.28
X6.375Y-3.34
X6.375Y-3.4
X6.375Y-3.46
X6.375Y-3.52
X6.375Y-3.58
X6.375Y-3.64
X6.375Y-3.7
X6.375Y-3.76
X6.375Y-3.82
X6.375Y-4.64
X6.375Y-4.7
X6.375Y-4.76
X6.375Y-4.82
X6.375Y-4.88
X6.375Y-4.94
X6.375Y-5.0
X6.375Y-5.06
X6.375Y-5.12
X6.375Y-5.18
X6.375Y-5.24
X6.6Y-4.72
X6.615Y-4.89
X6.615Y-4.93
X6.615Y-4.97
X6.615Y-5.01
X6.615Y-5.05
X6.655Y-4.89
X6.655Y-4.93
X6.655Y-5.01
X6.655Y-5.05
X6.695Y-4.89
X6.695Y-5.05
X6.695Y-5.15
X6.695Y-5.55
X6.735Y-4.89
X6.735Y-4.93
X6.735Y-5.01
X6.735Y-5.05
X6.775Y-4.89
X6.775Y-4.93
X6.775Y-4.97
X6.775Y-5.01
X6.775Y-5.05
X6.91Y-5.765
X7.045Y-3.22
X7.045Y-3.28
X7.045Y-3.34
X7.045Y-3.4
X7.045Y-3.46
X7.045Y-3.52
X7.045Y-3.58
X7.045Y-3.64
X7.045Y-3.7
X7.045Y-3.76
X7.045Y-3.82
X7.045Y-4.64
X7.045Y-4.7
X7.045Y-4.76
X7.045Y-4.82
X7.045Y-4.88
X7.045Y-4.94
X7.045Y-5.0
X7.045Y-5.06
X7.045Y-5.12
X7.045Y-5.18
X7.045Y-5.24
X7.105Y-3.22
X7.105Y-3.28
X7.105Y-3.34
X7.105Y-3.4
X7.105Y-3.46
X7.105Y-3.52
X7.105Y-3.58
X7.105Y-3.64
X7.105Y-3.7
X7.105Y-3.76
X7.105Y-3.82
X7.105Y-4.64
X7.105Y-4.7
X7.105Y-4.76
X7.105Y-4.82
X7.105Y-4.88
X7.105Y-4.94
X7.105Y-5.0
X7.105Y-5.06
X7.105Y-5.12
X7.105Y-5.18
X7.105Y-5.24
X7.165Y-3.22
X7.165Y-3.28
X7.165Y-3.34
X7.165Y-3.4
X7.165Y-3.46
X7.165Y-3.52
X7.165Y-3.58
X7.165Y-3.64
X7.165Y-3.7
X7.165Y-3.76
X7.165Y-3.82
X7.165Y-4.64
X7.165Y-4.7
X7.165Y-4.76
X7.165Y-4.82
X7.165Y-4.88
X7.165Y-4.94
X7.165Y-5.0
X7.165Y-5.06
X7.165Y-5.12
X7.165Y-5.18
X7.165Y-5.24
X7.225Y-3.22
X7.225Y-3.28
X7.225Y-3.52
X7.225Y-3.58
X7.225Y-3.64
X7.225Y-3.7
X7.225Y-3.76
X7.225Y-3.82
X7.225Y-4.64
X7.225Y-4.7
X7.225Y-4.94
X7.225Y-5.0
X7.225Y-5.06
X7.225Y-5.12
X7.225Y-5.18
X7.225Y-5.24
X7.285Y-3.22
X7.285Y-3.28
X7.285Y-3.52
X7.285Y-3.58
X7.285Y-3.64
X7.285Y-3.7
X7.285Y-3.76
X7.285Y-3.82
X7.285Y-4.64
X7.285Y-4.7
X7.285Y-4.94
X7.285Y-5.0
X7.285Y-5.06
X7.285Y-5.12
X7.285Y-5.18
X7.285Y-5.24
X7.345Y-3.22
X7.345Y-3.28
X7.345Y-3.52
X7.345Y-3.58
X7.345Y-3.64
X7.345Y-3.7
X7.345Y-3.76
X7.345Y-3.82
X7.345Y-4.64
X7.345Y-4.7
X7.345Y-4.94
X7.345Y-5.0
X7.345Y-5.06
X7.345Y-5.12
X7.345Y-5.18
X7.345Y-5.24
X7.405Y-3.22
X7.405Y-3.28
X7.405Y-3.34
X7.405Y-3.4
X7.405Y-3.46
X7.405Y-3.52
X7.405Y-3.58
X7.405Y-3.64
X7.405Y-3.7
X7.405Y-3.76
X7.405Y-3.82
X7.405Y-4.64
X7.405Y-4.7
X7.405Y-4.76
X7.405Y-4.82
X7.405Y-4.88
X7.405Y-4.94
X7.405Y-5.0
X7.405Y-5.06
X7.405Y-5.12
X7.405Y-5.18
X7.405Y-5.24
X7.465Y-3.22
X7.465Y-3.28
X7.465Y-3.34
X7.465Y-3.4
X7.465Y-3.46
X7.465Y-3.52
X7.465Y-3.58
X7.465Y-3.64
X7.465Y-3.7
X7.465Y-3.76
X7.465Y-3.82
X7.465Y-4.64
X7.465Y-4.7
X7.465Y-4.76
X7.465Y-4.82
X7.465Y-4.88
X7.465Y-4.94
X7.465Y-5.0
X7.465Y-5.06
X7.465Y-5.12
X7.465Y-5.18
X7.465Y-5.24
X7.5Y-4.4
X7.525Y-3.22
X7.525Y-3.28
X7.525Y-3.34
X7.525Y-3.4
X7.525Y-3.46
X7.525Y-3.52
X7.525Y-3.58
X7.525Y-3.64
X7.525Y-3.7
X7.525Y-3.76
X7.525Y-3.82
X7.525Y-4.64
X7.525Y-4.7
X7.525Y-4.76
X7.525Y-4.82
X7.525Y-4.88
X7.525Y-4.94
X7.525Y-5.0
X7.525Y-5.06
X7.525Y-5.12
X7.525Y-5.18
X7.525Y-5.24
X7.765Y-4.89
X7.765Y-4.93
X7.765Y-4.97
X7.765Y-5.01
X7.765Y-5.05
X7.805Y-4.89
X7.805Y-4.93
X7.805Y-5.01
X7.805Y-5.05
X7.81Y-4.255
X7.81Y-4.73
X7.845Y-4.89
X7.845Y-5.05
X7.845Y-5.15
X7.845Y-5.55
X7.87Y-4.255
X7.87Y-4.415
X7.885Y-4.89
X7.885Y-4.93
X7.885Y-5.01
X7.885Y-5.05
X7.925Y-4.89
X7.925Y-4.93
X7.925Y-4.97
X7.925Y-5.01
X7.925Y-5.05
X8.035Y-5.76
X8.19Y-4.64
X8.19Y-4.7
X8.19Y-4.76
X8.19Y-4.82
X8.19Y-4.88
X8.19Y-4.94
X8.19Y-5.0
X8.19Y-5.06
X8.19Y-5.12
X8.19Y-5.18
X8.19Y-5.24
X8.195Y-3.22
X8.195Y-3.28
X8.195Y-3.34
X8.195Y-3.4
X8.195Y-3.46
X8.195Y-3.52
X8.195Y-3.58
X8.195Y-3.64
X8.195Y-3.7
X8.195Y-3.76
X8.195Y-3.82
X8.255Y-3.22
X8.255Y-3.28
X8.255Y-3.34
X8.255Y-3.4
X8.255Y-3.46
X8.255Y-3.52
X8.255Y-3.58
X8.255Y-3.64
X8.255Y-3.7
X8.255Y-3.76
X8.255Y-3.82
X8.255Y-4.64
X8.255Y-4.7
X8.255Y-4.76
X8.255Y-4.82
X8.255Y-4.88
X8.255Y-4.94
X8.255Y-5.0
X8.255Y-5.06
X8.255Y-5.12
X8.255Y-5.18
X8.255Y-5.24
X8.315Y-3.22
X8.315Y-3.28
X8.315Y-3.34
X8.315Y-3.4
X8.315Y-3.46
X8.315Y-3.52
X8.315Y-3.58
X8.315Y-3.64
X8.315Y-3.7
X8.315Y-3.76
X8.315Y-3.82
X8.315Y-4.64
X8.315Y-4.7
X8.315Y-4.76
X8.315Y-4.82
X8.315Y-4.88
X8.315Y-4.94
X8.315Y-5.0
X8.315Y-5.06
X8.315Y-5.12
X8.315Y-5.18
X8.315Y-5.24
X8.375Y-3.22
X8.375Y-3.28
X8.375Y-3.52
X8.375Y-3.58
X8.375Y-3.64
X8.375Y-3.7
X8.375Y-3.76
X8.375Y-3.82
X8.375Y-4.64
X8.375Y-4.7
X8.375Y-4.94
X8.375Y-5.0
X8.375Y-5.06
X8.375Y-5.12
X8.375Y-5.18
X8.375Y-5.24
X8.435Y-3.22
X8.435Y-3.28
X8.435Y-3.52
X8.435Y-3.58
X8.435Y-3.64
X8.435Y-3.7
X8.435Y-3.76
X8.435Y-3.82
X8.435Y-4.64
X8.435Y-4.7
X8.435Y-4.94
X8.435Y-5.0
X8.435Y-5.06
X8.435Y-5.12
X8.435Y-5.18
X8.435Y-5.24
X8.495Y-3.22
X8.495Y-3.28
X8.495Y-3.52
X8.495Y-3.58
X8.495Y-3.64
X8.495Y-3.7
X8.495Y-3.76
X8.495Y-3.82
X8.495Y-4.64
X8.495Y-4.7
X8.495Y-4.94
X8.495Y-5.0
X8.495Y-5.06
X8.495Y-5.12
X8.495Y-5.18
X8.495Y-5.24
X8.555Y-3.22
X8.555Y-3.28
X8.555Y-3.34
X8.555Y-3.4
X8.555Y-3.46
X8.555Y-3.52
X8.555Y-3.58
X8.555Y-3.64
X8.555Y-3.7
X8.555Y-3.76
X8.555Y-3.82
X8.555Y-4.64
X8.555Y-4.7
X8.555Y-4.76
X8.555Y-4.82
X8.555Y-4.88
X8.555Y-4.94
X8.555Y-5.0
X8.555Y-5.06
X8.555Y-5.12
X8.555Y-5.18
X8.555Y-5.24
X8.615Y-3.22
X8.615Y-3.28
X8.615Y-3.34
X8.615Y-3.4
X8.615Y-3.46
X8.615Y-3.52
X8.615Y-3.58
X8.615Y-3.64
X8.615Y-3.7
X8.615Y-3.76
X8.615Y-3.82
X8.615Y-4.64
X8.615Y-4.7
X8.615Y-4.76
X8.615Y-4.82
X8.615Y-4.88
X8.615Y-4.94
X8.615Y-5.0
X8.615Y-5.06
X8.615Y-5.12
X8.615Y-5.18
X8.615Y-5.24
X8.65Y-4.4
X8.675Y-3.22
X8.675Y-3.28
X8.675Y-3.34
X8.675Y-3.4
X8.675Y-3.46
X8.675Y-3.52
X8.675Y-3.58
X8.675Y-3.64
X8.675Y-3.7
X8.675Y-3.76
X8.675Y-3.82
X8.68Y-4.64
X8.68Y-4.7
X8.68Y-4.76
X8.68Y-4.82
X8.68Y-4.88
X8.68Y-4.94
X8.68Y-5.0
X8.68Y-5.06
X8.68Y-5.12
X8.68Y-5.18
X8.68Y-5.24
X8.915Y-4.89
X8.915Y-4.93
X8.915Y-4.97
X8.915Y-5.01
X8.915Y-5.05
X8.955Y-4.89
X8.955Y-4.93
X8.955Y-5.01
X8.955Y-5.05
X8.995Y-4.89
X8.995Y-5.05
X8.995Y-5.15
X8.995Y-5.55
X9.035Y-4.89
X9.035Y-4.93
X9.035Y-5.01
X9.035Y-5.05
X9.075Y-4.89
X9.075Y-4.93
X9.075Y-4.97
X9.075Y-5.01
X9.075Y-5.05
T2
X3.4005Y-2.525
X3.4282Y-2.4582
X3.4282Y-2.5918
X3.495Y-2.4305
X3.495Y-2.6195
X3.5618Y-2.4582
X3.5618Y-2.5918
X3.5895Y-2.525
X6.2Y-2.5
X6.23Y-2.425
X6.23Y-2.575
X6.305Y-2.39
X6.305Y-2.61
X6.38Y-2.425
X6.38Y-2.575
X6.415Y-2.5
X8.9055Y-2.525
X8.9332Y-2.4582
X8.9332Y-2.5918
X9.0Y-2.4305
X9.0Y-2.6195
X9.0668Y-2.4582
X9.0668Y-2.5918
X9.0945Y-2.525
X8.9055Y-5.945
X8.9332Y-5.8782
X8.9332Y-6.0118
X9.0Y-5.8505
X9.0Y-6.0395
X9.0668Y-5.8782
X9.0668Y-6.0118
X9.0945Y-5.945
X8.16Y-2.5
X8.19Y-2.425
X8.19Y-2.575
X8.265Y-2.39
X8.265Y-2.61
X8.34Y-2.425
X8.34Y-2.575
X8.375Y-2.5
X3.4005Y-5.945
X3.4282Y-5.8782
X3.4282Y-6.0118
X3.495Y-5.8505
X3.495Y-6.0395
X3.5618Y-5.8782
X3.5618Y-6.0118
X3.5895Y-5.945
X7.745Y-2.5
X7.775Y-2.425
X7.775Y-2.575
X7.85Y-2.39
X7.85Y-2.61
X7.925Y-2.425
X7.925Y-2.575
X7.96Y-2.5
X6.675Y-2.5
X6.705Y-2.425
X6.705Y-2.575
X6.78Y-2.39
X6.78Y-2.61
X6.855Y-2.425
X6.855Y-2.575
X6.89Y-2.5
X7.325Y-2.5
X7.355Y-2.425
X7.355Y-2.575
X7.43Y-2.39
X7.43Y-2.61
X7.505Y-2.425
X7.505Y-2.575
X7.54Y-2.5
T4
X3.38Y-2.85
X3.38Y-2.95
X3.38Y-3.05
X3.38Y-3.15
X3.38Y-3.25
X3.38Y-4.3
X3.38Y-4.4
X3.38Y-4.5
X3.38Y-4.6
X3.38Y-4.7
X3.38Y-4.8
X3.38Y-4.9
X3.38Y-5.0
X3.38Y-5.1
X3.38Y-5.2
X3.38Y-5.3
X3.38Y-5.4
X3.38Y-5.5
T5
X3.745Y-4.3
X3.745Y-4.4
X3.745Y-4.5
X3.745Y-4.6
X3.745Y-4.7
X3.745Y-4.8
X3.745Y-4.9
X3.745Y-5.0
X3.745Y-5.1
X3.745Y-5.2
X3.745Y-5.3
X3.745Y-5.4
X3.745Y-5.5
X3.845Y-4.3
X3.845Y-4.4
X3.845Y-4.5
X3.845Y-4.6
X3.845Y-4.7
X3.845Y-4.8
X3.845Y-4.9
X3.845Y-5.0
X3.845Y-5.1
X3.845Y-5.2
X3.845Y-5.3
X3.845Y-5.4
X3.845Y-5.5
T6
X5.455Y-2.805
X5.655Y-2.805
X6.035Y-4.1975
X6.235Y-4.1975
X8.335Y-4.1975
X8.535Y-4.1975
X7.185Y-5.6225
X7.385Y-5.6225
X7.185Y-4.1975
X7.385Y-4.1975
X8.335Y-5.6225
X8.535Y-5.6225
X6.035Y-5.6225
X6.235Y-5.6225
T7
X4.6447Y-2.71
X4.94Y-2.71
X5.4047Y-2.71
X5.7Y-2.71
T8
X7.07Y-4.1975
X7.2846Y-4.1975
X7.4991Y-4.1975
X8.22Y-5.6225
X8.4346Y-5.6225
X8.6491Y-5.6225
X5.92Y-5.6225
X6.1346Y-5.6225
X6.3491Y-5.6225
X5.92Y-4.1975
X6.1346Y-4.1975
X6.3491Y-4.1975
X8.22Y-4.1975
X8.4346Y-4.1975
X8.6491Y-4.1975
X7.07Y-5.6225
X7.2846Y-5.6225
X7.4991Y-5.6225
T9
X6.695Y-4.97
X7.845Y-4.97
X8.995Y-4.97
T10
X5.4133Y-2.93
X5.6967Y-2.93
T11
X3.495Y-2.525
X9.0Y-2.525
X9.0Y-5.945
X3.495Y-5.945
T12
X6.305Y-2.5
X8.265Y-2.5
X7.85Y-2.5
X6.78Y-2.5
X7.43Y-2.5
T3
G00X5.2893Y-2.6741
M15
G01X5.2893Y-2.7135
M16
G05
G00X5.8207Y-2.6741
M15
G01X5.8207Y-2.7135
M16
G05
T0
M30
