%TF.GenerationSoftware,KiCad,Pcbnew,5.1.6*%
%TF.CreationDate,2020-12-14T11:26:32-03:00*%
%TF.ProjectId,MCU_Comms_Control,4d43555f-436f-46d6-9d73-5f436f6e7472,rev?*%
%TF.SameCoordinates,Original*%
%TF.FileFunction,Legend,Bot*%
%TF.FilePolarity,Positive*%
%FSLAX46Y46*%
G04 Gerber Fmt 4.6, Leading zero omitted, Abs format (unit mm)*
G04 Created by KiCad (PCBNEW 5.1.6) date 2020-12-14 11:26:32*
%MOMM*%
%LPD*%
G01*
G04 APERTURE LIST*
%ADD10C,0.300000*%
%ADD11C,0.010000*%
G04 APERTURE END LIST*
D10*
X96960571Y-55034571D02*
X96960571Y-53534571D01*
X96317714Y-55034571D02*
X96317714Y-54248857D01*
X96389142Y-54106000D01*
X96532000Y-54034571D01*
X96746285Y-54034571D01*
X96889142Y-54106000D01*
X96960571Y-54177428D01*
X95817714Y-54034571D02*
X95246285Y-54034571D01*
X95603428Y-53534571D02*
X95603428Y-54820285D01*
X95532000Y-54963142D01*
X95389142Y-55034571D01*
X95246285Y-55034571D01*
X94960571Y-54034571D02*
X94389142Y-54034571D01*
X94746285Y-53534571D02*
X94746285Y-54820285D01*
X94674857Y-54963142D01*
X94532000Y-55034571D01*
X94389142Y-55034571D01*
X93889142Y-54034571D02*
X93889142Y-55534571D01*
X93889142Y-54106000D02*
X93746285Y-54034571D01*
X93460571Y-54034571D01*
X93317714Y-54106000D01*
X93246285Y-54177428D01*
X93174857Y-54320285D01*
X93174857Y-54748857D01*
X93246285Y-54891714D01*
X93317714Y-54963142D01*
X93460571Y-55034571D01*
X93746285Y-55034571D01*
X93889142Y-54963142D01*
X92603428Y-54963142D02*
X92460571Y-55034571D01*
X92174857Y-55034571D01*
X92032000Y-54963142D01*
X91960571Y-54820285D01*
X91960571Y-54748857D01*
X92032000Y-54606000D01*
X92174857Y-54534571D01*
X92389142Y-54534571D01*
X92532000Y-54463142D01*
X92603428Y-54320285D01*
X92603428Y-54248857D01*
X92532000Y-54106000D01*
X92389142Y-54034571D01*
X92174857Y-54034571D01*
X92032000Y-54106000D01*
X91317714Y-54891714D02*
X91246285Y-54963142D01*
X91317714Y-55034571D01*
X91389142Y-54963142D01*
X91317714Y-54891714D01*
X91317714Y-55034571D01*
X91317714Y-54106000D02*
X91246285Y-54177428D01*
X91317714Y-54248857D01*
X91389142Y-54177428D01*
X91317714Y-54106000D01*
X91317714Y-54248857D01*
X89532000Y-53463142D02*
X90817714Y-55391714D01*
X87960571Y-53463142D02*
X89246285Y-55391714D01*
X86817714Y-54034571D02*
X86817714Y-55248857D01*
X86889142Y-55391714D01*
X86960571Y-55463142D01*
X87103428Y-55534571D01*
X87317714Y-55534571D01*
X87460571Y-55463142D01*
X86817714Y-54963142D02*
X86960571Y-55034571D01*
X87246285Y-55034571D01*
X87389142Y-54963142D01*
X87460571Y-54891714D01*
X87532000Y-54748857D01*
X87532000Y-54320285D01*
X87460571Y-54177428D01*
X87389142Y-54106000D01*
X87246285Y-54034571D01*
X86960571Y-54034571D01*
X86817714Y-54106000D01*
X86103428Y-55034571D02*
X86103428Y-54034571D01*
X86103428Y-53534571D02*
X86174857Y-53606000D01*
X86103428Y-53677428D01*
X86032000Y-53606000D01*
X86103428Y-53534571D01*
X86103428Y-53677428D01*
X85603428Y-54034571D02*
X85031999Y-54034571D01*
X85389142Y-53534571D02*
X85389142Y-54820285D01*
X85317714Y-54963142D01*
X85174857Y-55034571D01*
X85031999Y-55034571D01*
X84531999Y-55034571D02*
X84531999Y-53534571D01*
X83889142Y-55034571D02*
X83889142Y-54248857D01*
X83960571Y-54106000D01*
X84103428Y-54034571D01*
X84317714Y-54034571D01*
X84460571Y-54106000D01*
X84531999Y-54177428D01*
X82531999Y-54034571D02*
X82531999Y-55034571D01*
X83174857Y-54034571D02*
X83174857Y-54820285D01*
X83103428Y-54963142D01*
X82960571Y-55034571D01*
X82746285Y-55034571D01*
X82603428Y-54963142D01*
X82531999Y-54891714D01*
X81817714Y-55034571D02*
X81817714Y-53534571D01*
X81817714Y-54106000D02*
X81674857Y-54034571D01*
X81389142Y-54034571D01*
X81246285Y-54106000D01*
X81174857Y-54177428D01*
X81103428Y-54320285D01*
X81103428Y-54748857D01*
X81174857Y-54891714D01*
X81246285Y-54963142D01*
X81389142Y-55034571D01*
X81674857Y-55034571D01*
X81817714Y-54963142D01*
X80460571Y-54891714D02*
X80389142Y-54963142D01*
X80460571Y-55034571D01*
X80531999Y-54963142D01*
X80460571Y-54891714D01*
X80460571Y-55034571D01*
X79103428Y-54963142D02*
X79246285Y-55034571D01*
X79531999Y-55034571D01*
X79674857Y-54963142D01*
X79746285Y-54891714D01*
X79817714Y-54748857D01*
X79817714Y-54320285D01*
X79746285Y-54177428D01*
X79674857Y-54106000D01*
X79531999Y-54034571D01*
X79246285Y-54034571D01*
X79103428Y-54106000D01*
X78246285Y-55034571D02*
X78389142Y-54963142D01*
X78460571Y-54891714D01*
X78531999Y-54748857D01*
X78531999Y-54320285D01*
X78460571Y-54177428D01*
X78389142Y-54106000D01*
X78246285Y-54034571D01*
X78031999Y-54034571D01*
X77889142Y-54106000D01*
X77817714Y-54177428D01*
X77746285Y-54320285D01*
X77746285Y-54748857D01*
X77817714Y-54891714D01*
X77889142Y-54963142D01*
X78031999Y-55034571D01*
X78246285Y-55034571D01*
X77103428Y-55034571D02*
X77103428Y-54034571D01*
X77103428Y-54177428D02*
X77031999Y-54106000D01*
X76889142Y-54034571D01*
X76674857Y-54034571D01*
X76531999Y-54106000D01*
X76460571Y-54248857D01*
X76460571Y-55034571D01*
X76460571Y-54248857D02*
X76389142Y-54106000D01*
X76246285Y-54034571D01*
X76031999Y-54034571D01*
X75889142Y-54106000D01*
X75817714Y-54248857D01*
X75817714Y-55034571D01*
X74031999Y-53463142D02*
X75317714Y-55391714D01*
X73531999Y-54034571D02*
X73531999Y-55534571D01*
X73531999Y-54106000D02*
X73389142Y-54034571D01*
X73103428Y-54034571D01*
X72960571Y-54106000D01*
X72889142Y-54177428D01*
X72817714Y-54320285D01*
X72817714Y-54748857D01*
X72889142Y-54891714D01*
X72960571Y-54963142D01*
X73103428Y-55034571D01*
X73389142Y-55034571D01*
X73531999Y-54963142D01*
X72174857Y-55034571D02*
X72174857Y-53534571D01*
X71531999Y-55034571D02*
X71531999Y-54248857D01*
X71603428Y-54106000D01*
X71746285Y-54034571D01*
X71960571Y-54034571D01*
X72103428Y-54106000D01*
X72174857Y-54177428D01*
X70174857Y-54963142D02*
X70317714Y-55034571D01*
X70603428Y-55034571D01*
X70746285Y-54963142D01*
X70817714Y-54891714D01*
X70889142Y-54748857D01*
X70889142Y-54320285D01*
X70817714Y-54177428D01*
X70746285Y-54106000D01*
X70603428Y-54034571D01*
X70317714Y-54034571D01*
X70174857Y-54106000D01*
X69531999Y-55034571D02*
X69531999Y-53534571D01*
X69389142Y-54463142D02*
X68960571Y-55034571D01*
X68960571Y-54034571D02*
X69531999Y-54606000D01*
X68103428Y-55034571D02*
X68246285Y-54963142D01*
X68317714Y-54891714D01*
X68389142Y-54748857D01*
X68389142Y-54320285D01*
X68317714Y-54177428D01*
X68246285Y-54106000D01*
X68103428Y-54034571D01*
X67889142Y-54034571D01*
X67746285Y-54106000D01*
X67674857Y-54177428D01*
X67603428Y-54320285D01*
X67603428Y-54748857D01*
X67674857Y-54891714D01*
X67746285Y-54963142D01*
X67889142Y-55034571D01*
X68103428Y-55034571D01*
X66960571Y-54034571D02*
X66960571Y-55534571D01*
X66960571Y-54106000D02*
X66817714Y-54034571D01*
X66531999Y-54034571D01*
X66389142Y-54106000D01*
X66317714Y-54177428D01*
X66246285Y-54320285D01*
X66246285Y-54748857D01*
X66317714Y-54891714D01*
X66389142Y-54963142D01*
X66531999Y-55034571D01*
X66817714Y-55034571D01*
X66960571Y-54963142D01*
X65603428Y-54034571D02*
X65603428Y-55534571D01*
X65603428Y-54106000D02*
X65460571Y-54034571D01*
X65174857Y-54034571D01*
X65031999Y-54106000D01*
X64960571Y-54177428D01*
X64889142Y-54320285D01*
X64889142Y-54748857D01*
X64960571Y-54891714D01*
X65031999Y-54963142D01*
X65174857Y-55034571D01*
X65460571Y-55034571D01*
X65603428Y-54963142D01*
X63674857Y-54963142D02*
X63817714Y-55034571D01*
X64103428Y-55034571D01*
X64246285Y-54963142D01*
X64317714Y-54820285D01*
X64317714Y-54248857D01*
X64246285Y-54106000D01*
X64103428Y-54034571D01*
X63817714Y-54034571D01*
X63674857Y-54106000D01*
X63603428Y-54248857D01*
X63603428Y-54391714D01*
X64317714Y-54534571D01*
X62960571Y-55034571D02*
X62960571Y-54034571D01*
X62960571Y-54320285D02*
X62889142Y-54177428D01*
X62817714Y-54106000D01*
X62674857Y-54034571D01*
X62531999Y-54034571D01*
X60960571Y-53463142D02*
X62246285Y-55391714D01*
X60460571Y-54034571D02*
X60460571Y-55534571D01*
X60460571Y-54106000D02*
X60317714Y-54034571D01*
X60031999Y-54034571D01*
X59889142Y-54106000D01*
X59817714Y-54177428D01*
X59746285Y-54320285D01*
X59746285Y-54748857D01*
X59817714Y-54891714D01*
X59889142Y-54963142D01*
X60031999Y-55034571D01*
X60317714Y-55034571D01*
X60460571Y-54963142D01*
X59103428Y-55034571D02*
X59103428Y-54034571D01*
X59103428Y-54320285D02*
X59031999Y-54177428D01*
X58960571Y-54106000D01*
X58817714Y-54034571D01*
X58674857Y-54034571D01*
X57960571Y-55034571D02*
X58103428Y-54963142D01*
X58174857Y-54891714D01*
X58246285Y-54748857D01*
X58246285Y-54320285D01*
X58174857Y-54177428D01*
X58103428Y-54106000D01*
X57960571Y-54034571D01*
X57746285Y-54034571D01*
X57603428Y-54106000D01*
X57531999Y-54177428D01*
X57460571Y-54320285D01*
X57460571Y-54748857D01*
X57531999Y-54891714D01*
X57603428Y-54963142D01*
X57746285Y-55034571D01*
X57960571Y-55034571D01*
X56817714Y-54034571D02*
X56817714Y-55320285D01*
X56889142Y-55463142D01*
X57031999Y-55534571D01*
X57103428Y-55534571D01*
X56817714Y-53534571D02*
X56889142Y-53606000D01*
X56817714Y-53677428D01*
X56746285Y-53606000D01*
X56817714Y-53534571D01*
X56817714Y-53677428D01*
X55531999Y-54963142D02*
X55674857Y-55034571D01*
X55960571Y-55034571D01*
X56103428Y-54963142D01*
X56174857Y-54820285D01*
X56174857Y-54248857D01*
X56103428Y-54106000D01*
X55960571Y-54034571D01*
X55674857Y-54034571D01*
X55531999Y-54106000D01*
X55460571Y-54248857D01*
X55460571Y-54391714D01*
X56174857Y-54534571D01*
X55031999Y-54034571D02*
X54460571Y-54034571D01*
X54817714Y-53534571D02*
X54817714Y-54820285D01*
X54746285Y-54963142D01*
X54603428Y-55034571D01*
X54460571Y-55034571D01*
X53746285Y-55034571D02*
X53889142Y-54963142D01*
X53960571Y-54891714D01*
X54031999Y-54748857D01*
X54031999Y-54320285D01*
X53960571Y-54177428D01*
X53889142Y-54106000D01*
X53746285Y-54034571D01*
X53531999Y-54034571D01*
X53389142Y-54106000D01*
X53317714Y-54177428D01*
X53246285Y-54320285D01*
X53246285Y-54748857D01*
X53317714Y-54891714D01*
X53389142Y-54963142D01*
X53531999Y-55034571D01*
X53746285Y-55034571D01*
X52603428Y-54463142D02*
X51460571Y-54463142D01*
X50746285Y-55034571D02*
X50746285Y-54034571D01*
X50746285Y-53534571D02*
X50817714Y-53606000D01*
X50746285Y-53677428D01*
X50674857Y-53606000D01*
X50746285Y-53534571D01*
X50746285Y-53677428D01*
X50031999Y-54034571D02*
X50031999Y-55034571D01*
X50031999Y-54177428D02*
X49960571Y-54106000D01*
X49817714Y-54034571D01*
X49603428Y-54034571D01*
X49460571Y-54106000D01*
X49389142Y-54248857D01*
X49389142Y-55034571D01*
X48817714Y-54034571D02*
X48460571Y-55034571D01*
X48103428Y-54034571D01*
X46960571Y-54963142D02*
X47103428Y-55034571D01*
X47389142Y-55034571D01*
X47531999Y-54963142D01*
X47603428Y-54820285D01*
X47603428Y-54248857D01*
X47531999Y-54106000D01*
X47389142Y-54034571D01*
X47103428Y-54034571D01*
X46960571Y-54106000D01*
X46889142Y-54248857D01*
X46889142Y-54391714D01*
X47603428Y-54534571D01*
X46246285Y-55034571D02*
X46246285Y-54034571D01*
X46246285Y-54320285D02*
X46174857Y-54177428D01*
X46103428Y-54106000D01*
X45960571Y-54034571D01*
X45817714Y-54034571D01*
X45389142Y-54963142D02*
X45246285Y-55034571D01*
X44960571Y-55034571D01*
X44817714Y-54963142D01*
X44746285Y-54820285D01*
X44746285Y-54748857D01*
X44817714Y-54606000D01*
X44960571Y-54534571D01*
X45174857Y-54534571D01*
X45317714Y-54463142D01*
X45389142Y-54320285D01*
X45389142Y-54248857D01*
X45317714Y-54106000D01*
X45174857Y-54034571D01*
X44960571Y-54034571D01*
X44817714Y-54106000D01*
X43889142Y-55034571D02*
X44031999Y-54963142D01*
X44103428Y-54891714D01*
X44174857Y-54748857D01*
X44174857Y-54320285D01*
X44103428Y-54177428D01*
X44031999Y-54106000D01*
X43889142Y-54034571D01*
X43674857Y-54034571D01*
X43531999Y-54106000D01*
X43460571Y-54177428D01*
X43389142Y-54320285D01*
X43389142Y-54748857D01*
X43460571Y-54891714D01*
X43531999Y-54963142D01*
X43674857Y-55034571D01*
X43889142Y-55034571D01*
X42746285Y-55034571D02*
X42746285Y-54034571D01*
X42746285Y-54320285D02*
X42674857Y-54177428D01*
X42603428Y-54106000D01*
X42460571Y-54034571D01*
X42317714Y-54034571D01*
X41817714Y-54463142D02*
X40674857Y-54463142D01*
X39960571Y-54034571D02*
X39960571Y-55534571D01*
X39960571Y-54106000D02*
X39817714Y-54034571D01*
X39531999Y-54034571D01*
X39389142Y-54106000D01*
X39317714Y-54177428D01*
X39246285Y-54320285D01*
X39246285Y-54748857D01*
X39317714Y-54891714D01*
X39389142Y-54963142D01*
X39531999Y-55034571D01*
X39817714Y-55034571D01*
X39960571Y-54963142D01*
X38603428Y-55034571D02*
X38603428Y-54034571D01*
X38603428Y-54177428D02*
X38531999Y-54106000D01*
X38389142Y-54034571D01*
X38174857Y-54034571D01*
X38031999Y-54106000D01*
X37960571Y-54248857D01*
X37960571Y-55034571D01*
X37960571Y-54248857D02*
X37889142Y-54106000D01*
X37746285Y-54034571D01*
X37531999Y-54034571D01*
X37389142Y-54106000D01*
X37317714Y-54248857D01*
X37317714Y-55034571D01*
X36674857Y-54963142D02*
X36531999Y-55034571D01*
X36246285Y-55034571D01*
X36103428Y-54963142D01*
X36031999Y-54820285D01*
X36031999Y-54748857D01*
X36103428Y-54606000D01*
X36246285Y-54534571D01*
X36460571Y-54534571D01*
X36603428Y-54463142D01*
X36674857Y-54320285D01*
X36674857Y-54248857D01*
X36603428Y-54106000D01*
X36460571Y-54034571D01*
X36246285Y-54034571D01*
X36103428Y-54106000D01*
X35389142Y-55034571D02*
X35389142Y-54034571D01*
X35389142Y-54177428D02*
X35317714Y-54106000D01*
X35174857Y-54034571D01*
X34960571Y-54034571D01*
X34817714Y-54106000D01*
X34746285Y-54248857D01*
X34746285Y-55034571D01*
X34746285Y-54248857D02*
X34674857Y-54106000D01*
X34531999Y-54034571D01*
X34317714Y-54034571D01*
X34174857Y-54106000D01*
X34103428Y-54248857D01*
X34103428Y-55034571D01*
X80004285Y-63427571D02*
X80004285Y-64927571D01*
X80004285Y-63499000D02*
X79861428Y-63427571D01*
X79575714Y-63427571D01*
X79432857Y-63499000D01*
X79361428Y-63570428D01*
X79290000Y-63713285D01*
X79290000Y-64141857D01*
X79361428Y-64284714D01*
X79432857Y-64356142D01*
X79575714Y-64427571D01*
X79861428Y-64427571D01*
X80004285Y-64356142D01*
X78075714Y-64356142D02*
X78218571Y-64427571D01*
X78504285Y-64427571D01*
X78647142Y-64356142D01*
X78718571Y-64213285D01*
X78718571Y-63641857D01*
X78647142Y-63499000D01*
X78504285Y-63427571D01*
X78218571Y-63427571D01*
X78075714Y-63499000D01*
X78004285Y-63641857D01*
X78004285Y-63784714D01*
X78718571Y-63927571D01*
X76718571Y-64427571D02*
X76718571Y-62927571D01*
X76718571Y-64356142D02*
X76861428Y-64427571D01*
X77147142Y-64427571D01*
X77290000Y-64356142D01*
X77361428Y-64284714D01*
X77432857Y-64141857D01*
X77432857Y-63713285D01*
X77361428Y-63570428D01*
X77290000Y-63499000D01*
X77147142Y-63427571D01*
X76861428Y-63427571D01*
X76718571Y-63499000D01*
X76004285Y-64427571D02*
X76004285Y-63427571D01*
X76004285Y-63713285D02*
X75932857Y-63570428D01*
X75861428Y-63499000D01*
X75718571Y-63427571D01*
X75575714Y-63427571D01*
X74861428Y-64427571D02*
X75004285Y-64356142D01*
X75075714Y-64284714D01*
X75147142Y-64141857D01*
X75147142Y-63713285D01*
X75075714Y-63570428D01*
X75004285Y-63499000D01*
X74861428Y-63427571D01*
X74647142Y-63427571D01*
X74504285Y-63499000D01*
X74432857Y-63570428D01*
X74361428Y-63713285D01*
X74361428Y-64141857D01*
X74432857Y-64284714D01*
X74504285Y-64356142D01*
X74647142Y-64427571D01*
X74861428Y-64427571D01*
X73718571Y-64427571D02*
X73718571Y-62927571D01*
X73075714Y-64427571D02*
X73075714Y-63641857D01*
X73147142Y-63499000D01*
X73290000Y-63427571D01*
X73504285Y-63427571D01*
X73647142Y-63499000D01*
X73718571Y-63570428D01*
X72361428Y-64427571D02*
X72361428Y-62927571D01*
X72218571Y-63856142D02*
X71790000Y-64427571D01*
X71790000Y-63427571D02*
X72361428Y-63999000D01*
X70932857Y-64427571D02*
X71075714Y-64356142D01*
X71147142Y-64284714D01*
X71218571Y-64141857D01*
X71218571Y-63713285D01*
X71147142Y-63570428D01*
X71075714Y-63499000D01*
X70932857Y-63427571D01*
X70718571Y-63427571D01*
X70575714Y-63499000D01*
X70504285Y-63570428D01*
X70432857Y-63713285D01*
X70432857Y-64141857D01*
X70504285Y-64284714D01*
X70575714Y-64356142D01*
X70718571Y-64427571D01*
X70932857Y-64427571D01*
X69790000Y-63427571D02*
X69790000Y-64927571D01*
X69790000Y-63499000D02*
X69647142Y-63427571D01*
X69361428Y-63427571D01*
X69218571Y-63499000D01*
X69147142Y-63570428D01*
X69075714Y-63713285D01*
X69075714Y-64141857D01*
X69147142Y-64284714D01*
X69218571Y-64356142D01*
X69361428Y-64427571D01*
X69647142Y-64427571D01*
X69790000Y-64356142D01*
X68432857Y-63427571D02*
X68432857Y-64927571D01*
X68432857Y-63499000D02*
X68290000Y-63427571D01*
X68004285Y-63427571D01*
X67861428Y-63499000D01*
X67790000Y-63570428D01*
X67718571Y-63713285D01*
X67718571Y-64141857D01*
X67790000Y-64284714D01*
X67861428Y-64356142D01*
X68004285Y-64427571D01*
X68290000Y-64427571D01*
X68432857Y-64356142D01*
X66504285Y-64356142D02*
X66647142Y-64427571D01*
X66932857Y-64427571D01*
X67075714Y-64356142D01*
X67147142Y-64213285D01*
X67147142Y-63641857D01*
X67075714Y-63499000D01*
X66932857Y-63427571D01*
X66647142Y-63427571D01*
X66504285Y-63499000D01*
X66432857Y-63641857D01*
X66432857Y-63784714D01*
X67147142Y-63927571D01*
X65790000Y-64427571D02*
X65790000Y-63427571D01*
X65790000Y-63713285D02*
X65718571Y-63570428D01*
X65647142Y-63499000D01*
X65504285Y-63427571D01*
X65361428Y-63427571D01*
X63932857Y-63713285D02*
X64004285Y-63641857D01*
X64147142Y-63570428D01*
X64290000Y-63570428D01*
X64432857Y-63641857D01*
X64504285Y-63713285D01*
X64575714Y-63856142D01*
X64575714Y-63999000D01*
X64504285Y-64141857D01*
X64432857Y-64213285D01*
X64290000Y-64284714D01*
X64147142Y-64284714D01*
X64004285Y-64213285D01*
X63932857Y-64141857D01*
X63932857Y-63570428D02*
X63932857Y-64141857D01*
X63861428Y-64213285D01*
X63790000Y-64213285D01*
X63647142Y-64141857D01*
X63575714Y-63999000D01*
X63575714Y-63641857D01*
X63718571Y-63427571D01*
X63932857Y-63284714D01*
X64218571Y-63213285D01*
X64504285Y-63284714D01*
X64718571Y-63427571D01*
X64861428Y-63641857D01*
X64932857Y-63927571D01*
X64861428Y-64213285D01*
X64718571Y-64427571D01*
X64504285Y-64570428D01*
X64218571Y-64641857D01*
X63932857Y-64570428D01*
X63718571Y-64427571D01*
X62290000Y-63427571D02*
X62290000Y-64641857D01*
X62361428Y-64784714D01*
X62432857Y-64856142D01*
X62575714Y-64927571D01*
X62790000Y-64927571D01*
X62932857Y-64856142D01*
X62290000Y-64356142D02*
X62432857Y-64427571D01*
X62718571Y-64427571D01*
X62861428Y-64356142D01*
X62932857Y-64284714D01*
X63004285Y-64141857D01*
X63004285Y-63713285D01*
X62932857Y-63570428D01*
X62861428Y-63499000D01*
X62718571Y-63427571D01*
X62432857Y-63427571D01*
X62290000Y-63499000D01*
X61575714Y-64427571D02*
X61575714Y-63427571D01*
X61575714Y-63570428D02*
X61504285Y-63499000D01*
X61361428Y-63427571D01*
X61147142Y-63427571D01*
X61004285Y-63499000D01*
X60932857Y-63641857D01*
X60932857Y-64427571D01*
X60932857Y-63641857D02*
X60861428Y-63499000D01*
X60718571Y-63427571D01*
X60504285Y-63427571D01*
X60361428Y-63499000D01*
X60290000Y-63641857D01*
X60290000Y-64427571D01*
X58932857Y-64427571D02*
X58932857Y-63641857D01*
X59004285Y-63499000D01*
X59147142Y-63427571D01*
X59432857Y-63427571D01*
X59575714Y-63499000D01*
X58932857Y-64356142D02*
X59075714Y-64427571D01*
X59432857Y-64427571D01*
X59575714Y-64356142D01*
X59647142Y-64213285D01*
X59647142Y-64070428D01*
X59575714Y-63927571D01*
X59432857Y-63856142D01*
X59075714Y-63856142D01*
X58932857Y-63784714D01*
X58218571Y-64427571D02*
X58218571Y-63427571D01*
X58218571Y-62927571D02*
X58290000Y-62999000D01*
X58218571Y-63070428D01*
X58147142Y-62999000D01*
X58218571Y-62927571D01*
X58218571Y-63070428D01*
X57290000Y-64427571D02*
X57432857Y-64356142D01*
X57504285Y-64213285D01*
X57504285Y-62927571D01*
X56718571Y-64284714D02*
X56647142Y-64356142D01*
X56718571Y-64427571D01*
X56790000Y-64356142D01*
X56718571Y-64284714D01*
X56718571Y-64427571D01*
X55361428Y-64356142D02*
X55504285Y-64427571D01*
X55790000Y-64427571D01*
X55932857Y-64356142D01*
X56004285Y-64284714D01*
X56075714Y-64141857D01*
X56075714Y-63713285D01*
X56004285Y-63570428D01*
X55932857Y-63499000D01*
X55790000Y-63427571D01*
X55504285Y-63427571D01*
X55361428Y-63499000D01*
X54504285Y-64427571D02*
X54647142Y-64356142D01*
X54718571Y-64284714D01*
X54790000Y-64141857D01*
X54790000Y-63713285D01*
X54718571Y-63570428D01*
X54647142Y-63499000D01*
X54504285Y-63427571D01*
X54290000Y-63427571D01*
X54147142Y-63499000D01*
X54075714Y-63570428D01*
X54004285Y-63713285D01*
X54004285Y-64141857D01*
X54075714Y-64284714D01*
X54147142Y-64356142D01*
X54290000Y-64427571D01*
X54504285Y-64427571D01*
X53361428Y-64427571D02*
X53361428Y-63427571D01*
X53361428Y-63570428D02*
X53290000Y-63499000D01*
X53147142Y-63427571D01*
X52932857Y-63427571D01*
X52790000Y-63499000D01*
X52718571Y-63641857D01*
X52718571Y-64427571D01*
X52718571Y-63641857D02*
X52647142Y-63499000D01*
X52504285Y-63427571D01*
X52290000Y-63427571D01*
X52147142Y-63499000D01*
X52075714Y-63641857D01*
X52075714Y-64427571D01*
X81040000Y-65977571D02*
X81040000Y-67191857D01*
X81111428Y-67334714D01*
X81182857Y-67406142D01*
X81325714Y-67477571D01*
X81540000Y-67477571D01*
X81682857Y-67406142D01*
X81040000Y-66906142D02*
X81182857Y-66977571D01*
X81468571Y-66977571D01*
X81611428Y-66906142D01*
X81682857Y-66834714D01*
X81754285Y-66691857D01*
X81754285Y-66263285D01*
X81682857Y-66120428D01*
X81611428Y-66049000D01*
X81468571Y-65977571D01*
X81182857Y-65977571D01*
X81040000Y-66049000D01*
X79682857Y-66977571D02*
X79682857Y-66191857D01*
X79754285Y-66049000D01*
X79897142Y-65977571D01*
X80182857Y-65977571D01*
X80325714Y-66049000D01*
X79682857Y-66906142D02*
X79825714Y-66977571D01*
X80182857Y-66977571D01*
X80325714Y-66906142D01*
X80397142Y-66763285D01*
X80397142Y-66620428D01*
X80325714Y-66477571D01*
X80182857Y-66406142D01*
X79825714Y-66406142D01*
X79682857Y-66334714D01*
X78968571Y-66977571D02*
X78968571Y-65477571D01*
X78968571Y-66049000D02*
X78825714Y-65977571D01*
X78539999Y-65977571D01*
X78397142Y-66049000D01*
X78325714Y-66120428D01*
X78254285Y-66263285D01*
X78254285Y-66691857D01*
X78325714Y-66834714D01*
X78397142Y-66906142D01*
X78539999Y-66977571D01*
X78825714Y-66977571D01*
X78968571Y-66906142D01*
X77611428Y-66977571D02*
X77611428Y-65977571D01*
X77611428Y-66263285D02*
X77539999Y-66120428D01*
X77468571Y-66049000D01*
X77325714Y-65977571D01*
X77182857Y-65977571D01*
X76682857Y-66977571D02*
X76682857Y-65977571D01*
X76682857Y-65477571D02*
X76754285Y-65549000D01*
X76682857Y-65620428D01*
X76611428Y-65549000D01*
X76682857Y-65477571D01*
X76682857Y-65620428D01*
X75397142Y-66906142D02*
X75539999Y-66977571D01*
X75825714Y-66977571D01*
X75968571Y-66906142D01*
X76039999Y-66763285D01*
X76039999Y-66191857D01*
X75968571Y-66049000D01*
X75825714Y-65977571D01*
X75539999Y-65977571D01*
X75397142Y-66049000D01*
X75325714Y-66191857D01*
X75325714Y-66334714D01*
X76039999Y-66477571D01*
X74468571Y-66977571D02*
X74611428Y-66906142D01*
X74682857Y-66763285D01*
X74682857Y-65477571D01*
X73897142Y-66834714D02*
X73825714Y-66906142D01*
X73897142Y-66977571D01*
X73968571Y-66906142D01*
X73897142Y-66834714D01*
X73897142Y-66977571D01*
X72539999Y-65977571D02*
X72539999Y-67191857D01*
X72611428Y-67334714D01*
X72682857Y-67406142D01*
X72825714Y-67477571D01*
X73039999Y-67477571D01*
X73182857Y-67406142D01*
X72539999Y-66906142D02*
X72682857Y-66977571D01*
X72968571Y-66977571D01*
X73111428Y-66906142D01*
X73182857Y-66834714D01*
X73254285Y-66691857D01*
X73254285Y-66263285D01*
X73182857Y-66120428D01*
X73111428Y-66049000D01*
X72968571Y-65977571D01*
X72682857Y-65977571D01*
X72539999Y-66049000D01*
X71611428Y-66977571D02*
X71754285Y-66906142D01*
X71825714Y-66834714D01*
X71897142Y-66691857D01*
X71897142Y-66263285D01*
X71825714Y-66120428D01*
X71754285Y-66049000D01*
X71611428Y-65977571D01*
X71397142Y-65977571D01*
X71254285Y-66049000D01*
X71182857Y-66120428D01*
X71111428Y-66263285D01*
X71111428Y-66691857D01*
X71182857Y-66834714D01*
X71254285Y-66906142D01*
X71397142Y-66977571D01*
X71611428Y-66977571D01*
X70539999Y-66906142D02*
X70397142Y-66977571D01*
X70111428Y-66977571D01*
X69968571Y-66906142D01*
X69897142Y-66763285D01*
X69897142Y-66691857D01*
X69968571Y-66549000D01*
X70111428Y-66477571D01*
X70325714Y-66477571D01*
X70468571Y-66406142D01*
X70539999Y-66263285D01*
X70539999Y-66191857D01*
X70468571Y-66049000D01*
X70325714Y-65977571D01*
X70111428Y-65977571D01*
X69968571Y-66049000D01*
X69254285Y-66977571D02*
X69254285Y-65977571D01*
X69254285Y-66120428D02*
X69182857Y-66049000D01*
X69039999Y-65977571D01*
X68825714Y-65977571D01*
X68682857Y-66049000D01*
X68611428Y-66191857D01*
X68611428Y-66977571D01*
X68611428Y-66191857D02*
X68539999Y-66049000D01*
X68397142Y-65977571D01*
X68182857Y-65977571D01*
X68039999Y-66049000D01*
X67968571Y-66191857D01*
X67968571Y-66977571D01*
X66611428Y-66977571D02*
X66611428Y-66191857D01*
X66682857Y-66049000D01*
X66825714Y-65977571D01*
X67111428Y-65977571D01*
X67254285Y-66049000D01*
X66611428Y-66906142D02*
X66754285Y-66977571D01*
X67111428Y-66977571D01*
X67254285Y-66906142D01*
X67325714Y-66763285D01*
X67325714Y-66620428D01*
X67254285Y-66477571D01*
X67111428Y-66406142D01*
X66754285Y-66406142D01*
X66611428Y-66334714D01*
X65897142Y-65977571D02*
X65897142Y-66977571D01*
X65897142Y-66120428D02*
X65825714Y-66049000D01*
X65682857Y-65977571D01*
X65468571Y-65977571D01*
X65325714Y-66049000D01*
X65254285Y-66191857D01*
X65254285Y-66977571D01*
X64539999Y-65977571D02*
X64539999Y-66977571D01*
X64539999Y-66120428D02*
X64468571Y-66049000D01*
X64325714Y-65977571D01*
X64111428Y-65977571D01*
X63968571Y-66049000D01*
X63897142Y-66191857D01*
X63897142Y-66977571D01*
X62254285Y-66263285D02*
X62325714Y-66191857D01*
X62468571Y-66120428D01*
X62611428Y-66120428D01*
X62754285Y-66191857D01*
X62825714Y-66263285D01*
X62897142Y-66406142D01*
X62897142Y-66549000D01*
X62825714Y-66691857D01*
X62754285Y-66763285D01*
X62611428Y-66834714D01*
X62468571Y-66834714D01*
X62325714Y-66763285D01*
X62254285Y-66691857D01*
X62254285Y-66120428D02*
X62254285Y-66691857D01*
X62182857Y-66763285D01*
X62111428Y-66763285D01*
X61968571Y-66691857D01*
X61897142Y-66549000D01*
X61897142Y-66191857D01*
X62039999Y-65977571D01*
X62254285Y-65834714D01*
X62539999Y-65763285D01*
X62825714Y-65834714D01*
X63039999Y-65977571D01*
X63182857Y-66191857D01*
X63254285Y-66477571D01*
X63182857Y-66763285D01*
X63039999Y-66977571D01*
X62825714Y-67120428D01*
X62539999Y-67191857D01*
X62254285Y-67120428D01*
X62039999Y-66977571D01*
X60611428Y-65977571D02*
X60611428Y-67191857D01*
X60682857Y-67334714D01*
X60754285Y-67406142D01*
X60897142Y-67477571D01*
X61111428Y-67477571D01*
X61254285Y-67406142D01*
X60611428Y-66906142D02*
X60754285Y-66977571D01*
X61039999Y-66977571D01*
X61182857Y-66906142D01*
X61254285Y-66834714D01*
X61325714Y-66691857D01*
X61325714Y-66263285D01*
X61254285Y-66120428D01*
X61182857Y-66049000D01*
X61039999Y-65977571D01*
X60754285Y-65977571D01*
X60611428Y-66049000D01*
X59897142Y-66977571D02*
X59897142Y-65977571D01*
X59897142Y-66120428D02*
X59825714Y-66049000D01*
X59682857Y-65977571D01*
X59468571Y-65977571D01*
X59325714Y-66049000D01*
X59254285Y-66191857D01*
X59254285Y-66977571D01*
X59254285Y-66191857D02*
X59182857Y-66049000D01*
X59039999Y-65977571D01*
X58825714Y-65977571D01*
X58682857Y-66049000D01*
X58611428Y-66191857D01*
X58611428Y-66977571D01*
X57254285Y-66977571D02*
X57254285Y-66191857D01*
X57325714Y-66049000D01*
X57468571Y-65977571D01*
X57754285Y-65977571D01*
X57897142Y-66049000D01*
X57254285Y-66906142D02*
X57397142Y-66977571D01*
X57754285Y-66977571D01*
X57897142Y-66906142D01*
X57968571Y-66763285D01*
X57968571Y-66620428D01*
X57897142Y-66477571D01*
X57754285Y-66406142D01*
X57397142Y-66406142D01*
X57254285Y-66334714D01*
X56539999Y-66977571D02*
X56539999Y-65977571D01*
X56539999Y-65477571D02*
X56611428Y-65549000D01*
X56539999Y-65620428D01*
X56468571Y-65549000D01*
X56539999Y-65477571D01*
X56539999Y-65620428D01*
X55611428Y-66977571D02*
X55754285Y-66906142D01*
X55825714Y-66763285D01*
X55825714Y-65477571D01*
X55039999Y-66834714D02*
X54968571Y-66906142D01*
X55039999Y-66977571D01*
X55111428Y-66906142D01*
X55039999Y-66834714D01*
X55039999Y-66977571D01*
X53682857Y-66906142D02*
X53825714Y-66977571D01*
X54111428Y-66977571D01*
X54254285Y-66906142D01*
X54325714Y-66834714D01*
X54397142Y-66691857D01*
X54397142Y-66263285D01*
X54325714Y-66120428D01*
X54254285Y-66049000D01*
X54111428Y-65977571D01*
X53825714Y-65977571D01*
X53682857Y-66049000D01*
X52825714Y-66977571D02*
X52968571Y-66906142D01*
X53039999Y-66834714D01*
X53111428Y-66691857D01*
X53111428Y-66263285D01*
X53039999Y-66120428D01*
X52968571Y-66049000D01*
X52825714Y-65977571D01*
X52611428Y-65977571D01*
X52468571Y-66049000D01*
X52397142Y-66120428D01*
X52325714Y-66263285D01*
X52325714Y-66691857D01*
X52397142Y-66834714D01*
X52468571Y-66906142D01*
X52611428Y-66977571D01*
X52825714Y-66977571D01*
X51682857Y-66977571D02*
X51682857Y-65977571D01*
X51682857Y-66120428D02*
X51611428Y-66049000D01*
X51468571Y-65977571D01*
X51254285Y-65977571D01*
X51111428Y-66049000D01*
X51039999Y-66191857D01*
X51039999Y-66977571D01*
X51039999Y-66191857D02*
X50968571Y-66049000D01*
X50825714Y-65977571D01*
X50611428Y-65977571D01*
X50468571Y-66049000D01*
X50397142Y-66191857D01*
X50397142Y-66977571D01*
D11*
%TO.C,G\u002A\u002A\u002A*%
G36*
X78486000Y-118618000D02*
G01*
X89154000Y-118618000D01*
X89154000Y-109474000D01*
X87630000Y-109474000D01*
X87630000Y-117094000D01*
X80010000Y-117094000D01*
X80010000Y-109474000D01*
X87630000Y-109474000D01*
X89154000Y-109474000D01*
X89154000Y-107950000D01*
X78486000Y-107950000D01*
X78486000Y-118618000D01*
G37*
X78486000Y-118618000D02*
X89154000Y-118618000D01*
X89154000Y-109474000D01*
X87630000Y-109474000D01*
X87630000Y-117094000D01*
X80010000Y-117094000D01*
X80010000Y-109474000D01*
X87630000Y-109474000D01*
X89154000Y-109474000D01*
X89154000Y-107950000D01*
X78486000Y-107950000D01*
X78486000Y-118618000D01*
G36*
X67818000Y-82042000D02*
G01*
X68580000Y-82042000D01*
X69119725Y-81979062D01*
X69318656Y-81682180D01*
X69342000Y-81280000D01*
X69404938Y-80740275D01*
X69701820Y-80541344D01*
X70104000Y-80518000D01*
X70643725Y-80580937D01*
X70842656Y-80877819D01*
X70866000Y-81280000D01*
X70928938Y-81819724D01*
X71225820Y-82018655D01*
X71628000Y-82042000D01*
X72390000Y-82042000D01*
X72390000Y-78994000D01*
X67818000Y-78994000D01*
X67818000Y-82042000D01*
G37*
X67818000Y-82042000D02*
X68580000Y-82042000D01*
X69119725Y-81979062D01*
X69318656Y-81682180D01*
X69342000Y-81280000D01*
X69404938Y-80740275D01*
X69701820Y-80541344D01*
X70104000Y-80518000D01*
X70643725Y-80580937D01*
X70842656Y-80877819D01*
X70866000Y-81280000D01*
X70928938Y-81819724D01*
X71225820Y-82018655D01*
X71628000Y-82042000D01*
X72390000Y-82042000D01*
X72390000Y-78994000D01*
X67818000Y-78994000D01*
X67818000Y-82042000D01*
G36*
X73914000Y-89662000D02*
G01*
X73152000Y-89662000D01*
X72612276Y-89599062D01*
X72413345Y-89302180D01*
X72390000Y-88900000D01*
X72327063Y-88360275D01*
X72030181Y-88161344D01*
X71628000Y-88138000D01*
X71088276Y-88200937D01*
X70889345Y-88497819D01*
X70866000Y-88900000D01*
X70928938Y-89439724D01*
X71225820Y-89638655D01*
X71628000Y-89662000D01*
X72167725Y-89724937D01*
X72366656Y-90021819D01*
X72390000Y-90424000D01*
X72452938Y-90963724D01*
X72749820Y-91162655D01*
X73152000Y-91186000D01*
X73914000Y-91186000D01*
X73914000Y-97282000D01*
X73152000Y-97282000D01*
X72612276Y-97344937D01*
X72413345Y-97641819D01*
X72390000Y-98044000D01*
X72390000Y-98806000D01*
X75438000Y-98806000D01*
X75438000Y-101854000D01*
X76200000Y-101854000D01*
X76739725Y-101916937D01*
X76938656Y-102213819D01*
X76962000Y-102616000D01*
X76962000Y-103378000D01*
X80010000Y-103378000D01*
X80010000Y-101854000D01*
X76962000Y-101854000D01*
X76962000Y-98806000D01*
X77724000Y-98806000D01*
X78263725Y-98868937D01*
X78462656Y-99165819D01*
X78486000Y-99568000D01*
X78486000Y-100330000D01*
X81534000Y-100330000D01*
X81534000Y-103378000D01*
X82296000Y-103378000D01*
X82835725Y-103315062D01*
X83034656Y-103018180D01*
X83058000Y-102616000D01*
X83058000Y-101854000D01*
X86106000Y-101854000D01*
X86106000Y-102616000D01*
X86043063Y-103155724D01*
X85746181Y-103354655D01*
X85344000Y-103378000D01*
X84582000Y-103378000D01*
X84582000Y-106426000D01*
X86106000Y-106426000D01*
X86106000Y-103378000D01*
X87630000Y-103378000D01*
X87630000Y-106426000D01*
X89154000Y-106426000D01*
X89154000Y-101092000D01*
X87630000Y-101092000D01*
X87567063Y-101631724D01*
X87270181Y-101830655D01*
X86868000Y-101854000D01*
X86328276Y-101791062D01*
X86129345Y-101494180D01*
X86106000Y-101092000D01*
X86168938Y-100552275D01*
X86465820Y-100353344D01*
X86868000Y-100330000D01*
X87407725Y-100392937D01*
X87606656Y-100689819D01*
X87630000Y-101092000D01*
X89154000Y-101092000D01*
X89154000Y-100330000D01*
X88392000Y-100330000D01*
X87852276Y-100267062D01*
X87653345Y-99970180D01*
X87630000Y-99568000D01*
X87567063Y-99028275D01*
X87270181Y-98829344D01*
X86868000Y-98806000D01*
X84582000Y-98806000D01*
X84582000Y-100330000D01*
X81534000Y-100330000D01*
X81534000Y-98806000D01*
X84582000Y-98806000D01*
X86868000Y-98806000D01*
X86328276Y-98743062D01*
X86129345Y-98446180D01*
X86106000Y-98044000D01*
X86168938Y-97504275D01*
X86465820Y-97305344D01*
X86868000Y-97282000D01*
X87407725Y-97219062D01*
X87606656Y-96922180D01*
X87630000Y-96520000D01*
X87692938Y-95980275D01*
X87989820Y-95781344D01*
X88392000Y-95758000D01*
X88931725Y-95695062D01*
X89130656Y-95398180D01*
X89154000Y-94996000D01*
X89091063Y-94456275D01*
X88794181Y-94257344D01*
X88392000Y-94234000D01*
X87630000Y-94234000D01*
X87630000Y-94996000D01*
X87567063Y-95535724D01*
X87270181Y-95734655D01*
X86868000Y-95758000D01*
X86328276Y-95820937D01*
X86129345Y-96117819D01*
X86106000Y-96520000D01*
X86106000Y-97282000D01*
X83058000Y-97282000D01*
X83058000Y-91186000D01*
X86106000Y-91186000D01*
X86106000Y-91948000D01*
X86043063Y-92487724D01*
X85746181Y-92686655D01*
X85344000Y-92710000D01*
X84804276Y-92772937D01*
X84605345Y-93069819D01*
X84582000Y-93472000D01*
X84582000Y-94234000D01*
X87630000Y-94234000D01*
X88392000Y-94234000D01*
X87852276Y-94171062D01*
X87653345Y-93874180D01*
X87630000Y-93472000D01*
X87692938Y-92932275D01*
X87989820Y-92733344D01*
X88392000Y-92710000D01*
X88931725Y-92647062D01*
X89130656Y-92350180D01*
X89154000Y-91948000D01*
X89091063Y-91408275D01*
X88794181Y-91209344D01*
X88392000Y-91186000D01*
X87852276Y-91123062D01*
X87653345Y-90826180D01*
X87630000Y-90424000D01*
X83058000Y-90424000D01*
X83058000Y-91186000D01*
X81534000Y-91186000D01*
X81534000Y-95758000D01*
X78486000Y-95758000D01*
X78486000Y-97282000D01*
X81534000Y-97282000D01*
X81534000Y-98806000D01*
X78486000Y-98806000D01*
X78486000Y-98044000D01*
X78423063Y-97504275D01*
X78126181Y-97305344D01*
X77724000Y-97282000D01*
X77184276Y-97344937D01*
X76985345Y-97641819D01*
X76962000Y-98044000D01*
X76899063Y-98583724D01*
X76602181Y-98782655D01*
X76200000Y-98806000D01*
X75438000Y-98806000D01*
X75438000Y-91186000D01*
X74676000Y-91186000D01*
X74136276Y-91123062D01*
X73937345Y-90826180D01*
X73914000Y-90424000D01*
X73976938Y-89884275D01*
X74273820Y-89685344D01*
X74676000Y-89662000D01*
X75215725Y-89724937D01*
X75414656Y-90021819D01*
X75438000Y-90424000D01*
X75500938Y-90963724D01*
X75797820Y-91162655D01*
X76200000Y-91186000D01*
X76962000Y-91186000D01*
X76962000Y-88138000D01*
X81534000Y-88138000D01*
X81534000Y-88900000D01*
X81596938Y-89439724D01*
X81893820Y-89638655D01*
X82296000Y-89662000D01*
X82835725Y-89724937D01*
X83034656Y-90021819D01*
X83058000Y-90424000D01*
X87630000Y-90424000D01*
X87692938Y-89884275D01*
X87989820Y-89685344D01*
X88392000Y-89662000D01*
X89154000Y-89662000D01*
X89154000Y-86614000D01*
X86106000Y-86614000D01*
X86106000Y-87376000D01*
X86168938Y-87915724D01*
X86465820Y-88114655D01*
X86868000Y-88138000D01*
X87407725Y-88200937D01*
X87606656Y-88497819D01*
X87630000Y-88900000D01*
X87630000Y-89662000D01*
X84582000Y-89662000D01*
X84582000Y-88138000D01*
X81534000Y-88138000D01*
X81534000Y-86614000D01*
X76962000Y-86614000D01*
X76962000Y-87376000D01*
X76899063Y-87915724D01*
X76602181Y-88114655D01*
X76200000Y-88138000D01*
X75660276Y-88075062D01*
X75461345Y-87778180D01*
X75438000Y-87376000D01*
X75375063Y-86836275D01*
X75078181Y-86637344D01*
X74676000Y-86614000D01*
X73914000Y-86614000D01*
X73914000Y-89662000D01*
G37*
X73914000Y-89662000D02*
X73152000Y-89662000D01*
X72612276Y-89599062D01*
X72413345Y-89302180D01*
X72390000Y-88900000D01*
X72327063Y-88360275D01*
X72030181Y-88161344D01*
X71628000Y-88138000D01*
X71088276Y-88200937D01*
X70889345Y-88497819D01*
X70866000Y-88900000D01*
X70928938Y-89439724D01*
X71225820Y-89638655D01*
X71628000Y-89662000D01*
X72167725Y-89724937D01*
X72366656Y-90021819D01*
X72390000Y-90424000D01*
X72452938Y-90963724D01*
X72749820Y-91162655D01*
X73152000Y-91186000D01*
X73914000Y-91186000D01*
X73914000Y-97282000D01*
X73152000Y-97282000D01*
X72612276Y-97344937D01*
X72413345Y-97641819D01*
X72390000Y-98044000D01*
X72390000Y-98806000D01*
X75438000Y-98806000D01*
X75438000Y-101854000D01*
X76200000Y-101854000D01*
X76739725Y-101916937D01*
X76938656Y-102213819D01*
X76962000Y-102616000D01*
X76962000Y-103378000D01*
X80010000Y-103378000D01*
X80010000Y-101854000D01*
X76962000Y-101854000D01*
X76962000Y-98806000D01*
X77724000Y-98806000D01*
X78263725Y-98868937D01*
X78462656Y-99165819D01*
X78486000Y-99568000D01*
X78486000Y-100330000D01*
X81534000Y-100330000D01*
X81534000Y-103378000D01*
X82296000Y-103378000D01*
X82835725Y-103315062D01*
X83034656Y-103018180D01*
X83058000Y-102616000D01*
X83058000Y-101854000D01*
X86106000Y-101854000D01*
X86106000Y-102616000D01*
X86043063Y-103155724D01*
X85746181Y-103354655D01*
X85344000Y-103378000D01*
X84582000Y-103378000D01*
X84582000Y-106426000D01*
X86106000Y-106426000D01*
X86106000Y-103378000D01*
X87630000Y-103378000D01*
X87630000Y-106426000D01*
X89154000Y-106426000D01*
X89154000Y-101092000D01*
X87630000Y-101092000D01*
X87567063Y-101631724D01*
X87270181Y-101830655D01*
X86868000Y-101854000D01*
X86328276Y-101791062D01*
X86129345Y-101494180D01*
X86106000Y-101092000D01*
X86168938Y-100552275D01*
X86465820Y-100353344D01*
X86868000Y-100330000D01*
X87407725Y-100392937D01*
X87606656Y-100689819D01*
X87630000Y-101092000D01*
X89154000Y-101092000D01*
X89154000Y-100330000D01*
X88392000Y-100330000D01*
X87852276Y-100267062D01*
X87653345Y-99970180D01*
X87630000Y-99568000D01*
X87567063Y-99028275D01*
X87270181Y-98829344D01*
X86868000Y-98806000D01*
X84582000Y-98806000D01*
X84582000Y-100330000D01*
X81534000Y-100330000D01*
X81534000Y-98806000D01*
X84582000Y-98806000D01*
X86868000Y-98806000D01*
X86328276Y-98743062D01*
X86129345Y-98446180D01*
X86106000Y-98044000D01*
X86168938Y-97504275D01*
X86465820Y-97305344D01*
X86868000Y-97282000D01*
X87407725Y-97219062D01*
X87606656Y-96922180D01*
X87630000Y-96520000D01*
X87692938Y-95980275D01*
X87989820Y-95781344D01*
X88392000Y-95758000D01*
X88931725Y-95695062D01*
X89130656Y-95398180D01*
X89154000Y-94996000D01*
X89091063Y-94456275D01*
X88794181Y-94257344D01*
X88392000Y-94234000D01*
X87630000Y-94234000D01*
X87630000Y-94996000D01*
X87567063Y-95535724D01*
X87270181Y-95734655D01*
X86868000Y-95758000D01*
X86328276Y-95820937D01*
X86129345Y-96117819D01*
X86106000Y-96520000D01*
X86106000Y-97282000D01*
X83058000Y-97282000D01*
X83058000Y-91186000D01*
X86106000Y-91186000D01*
X86106000Y-91948000D01*
X86043063Y-92487724D01*
X85746181Y-92686655D01*
X85344000Y-92710000D01*
X84804276Y-92772937D01*
X84605345Y-93069819D01*
X84582000Y-93472000D01*
X84582000Y-94234000D01*
X87630000Y-94234000D01*
X88392000Y-94234000D01*
X87852276Y-94171062D01*
X87653345Y-93874180D01*
X87630000Y-93472000D01*
X87692938Y-92932275D01*
X87989820Y-92733344D01*
X88392000Y-92710000D01*
X88931725Y-92647062D01*
X89130656Y-92350180D01*
X89154000Y-91948000D01*
X89091063Y-91408275D01*
X88794181Y-91209344D01*
X88392000Y-91186000D01*
X87852276Y-91123062D01*
X87653345Y-90826180D01*
X87630000Y-90424000D01*
X83058000Y-90424000D01*
X83058000Y-91186000D01*
X81534000Y-91186000D01*
X81534000Y-95758000D01*
X78486000Y-95758000D01*
X78486000Y-97282000D01*
X81534000Y-97282000D01*
X81534000Y-98806000D01*
X78486000Y-98806000D01*
X78486000Y-98044000D01*
X78423063Y-97504275D01*
X78126181Y-97305344D01*
X77724000Y-97282000D01*
X77184276Y-97344937D01*
X76985345Y-97641819D01*
X76962000Y-98044000D01*
X76899063Y-98583724D01*
X76602181Y-98782655D01*
X76200000Y-98806000D01*
X75438000Y-98806000D01*
X75438000Y-91186000D01*
X74676000Y-91186000D01*
X74136276Y-91123062D01*
X73937345Y-90826180D01*
X73914000Y-90424000D01*
X73976938Y-89884275D01*
X74273820Y-89685344D01*
X74676000Y-89662000D01*
X75215725Y-89724937D01*
X75414656Y-90021819D01*
X75438000Y-90424000D01*
X75500938Y-90963724D01*
X75797820Y-91162655D01*
X76200000Y-91186000D01*
X76962000Y-91186000D01*
X76962000Y-88138000D01*
X81534000Y-88138000D01*
X81534000Y-88900000D01*
X81596938Y-89439724D01*
X81893820Y-89638655D01*
X82296000Y-89662000D01*
X82835725Y-89724937D01*
X83034656Y-90021819D01*
X83058000Y-90424000D01*
X87630000Y-90424000D01*
X87692938Y-89884275D01*
X87989820Y-89685344D01*
X88392000Y-89662000D01*
X89154000Y-89662000D01*
X89154000Y-86614000D01*
X86106000Y-86614000D01*
X86106000Y-87376000D01*
X86168938Y-87915724D01*
X86465820Y-88114655D01*
X86868000Y-88138000D01*
X87407725Y-88200937D01*
X87606656Y-88497819D01*
X87630000Y-88900000D01*
X87630000Y-89662000D01*
X84582000Y-89662000D01*
X84582000Y-88138000D01*
X81534000Y-88138000D01*
X81534000Y-86614000D01*
X76962000Y-86614000D01*
X76962000Y-87376000D01*
X76899063Y-87915724D01*
X76602181Y-88114655D01*
X76200000Y-88138000D01*
X75660276Y-88075062D01*
X75461345Y-87778180D01*
X75438000Y-87376000D01*
X75375063Y-86836275D01*
X75078181Y-86637344D01*
X74676000Y-86614000D01*
X73914000Y-86614000D01*
X73914000Y-89662000D01*
G36*
X71628000Y-95758000D02*
G01*
X72167725Y-95695062D01*
X72366656Y-95398180D01*
X72390000Y-94996000D01*
X72327063Y-94456275D01*
X72030181Y-94257344D01*
X71628000Y-94234000D01*
X71088276Y-94171062D01*
X70889345Y-93874180D01*
X70866000Y-93472000D01*
X70803063Y-92932275D01*
X70506181Y-92733344D01*
X70104000Y-92710000D01*
X69564276Y-92772937D01*
X69365345Y-93069819D01*
X69342000Y-93472000D01*
X69404938Y-94011724D01*
X69701820Y-94210655D01*
X70104000Y-94234000D01*
X70643725Y-94296937D01*
X70842656Y-94593819D01*
X70866000Y-94996000D01*
X70866000Y-95758000D01*
X71628000Y-95758000D01*
G37*
X71628000Y-95758000D02*
X72167725Y-95695062D01*
X72366656Y-95398180D01*
X72390000Y-94996000D01*
X72327063Y-94456275D01*
X72030181Y-94257344D01*
X71628000Y-94234000D01*
X71088276Y-94171062D01*
X70889345Y-93874180D01*
X70866000Y-93472000D01*
X70803063Y-92932275D01*
X70506181Y-92733344D01*
X70104000Y-92710000D01*
X69564276Y-92772937D01*
X69365345Y-93069819D01*
X69342000Y-93472000D01*
X69404938Y-94011724D01*
X69701820Y-94210655D01*
X70104000Y-94234000D01*
X70643725Y-94296937D01*
X70842656Y-94593819D01*
X70866000Y-94996000D01*
X70866000Y-95758000D01*
X71628000Y-95758000D01*
G36*
X73914000Y-83566000D02*
G01*
X73152000Y-83566000D01*
X72612276Y-83628937D01*
X72413345Y-83925819D01*
X72390000Y-84328000D01*
X72327063Y-84867724D01*
X72030181Y-85066655D01*
X71628000Y-85090000D01*
X71088276Y-85027062D01*
X70889345Y-84730180D01*
X70866000Y-84328000D01*
X70803063Y-83788275D01*
X70506181Y-83589344D01*
X70104000Y-83566000D01*
X69342000Y-83566000D01*
X69342000Y-86614000D01*
X73914000Y-86614000D01*
X73914000Y-83566000D01*
G37*
X73914000Y-83566000D02*
X73152000Y-83566000D01*
X72612276Y-83628937D01*
X72413345Y-83925819D01*
X72390000Y-84328000D01*
X72327063Y-84867724D01*
X72030181Y-85066655D01*
X71628000Y-85090000D01*
X71088276Y-85027062D01*
X70889345Y-84730180D01*
X70866000Y-84328000D01*
X70803063Y-83788275D01*
X70506181Y-83589344D01*
X70104000Y-83566000D01*
X69342000Y-83566000D01*
X69342000Y-86614000D01*
X73914000Y-86614000D01*
X73914000Y-83566000D01*
G36*
X48006000Y-94996000D02*
G01*
X47943063Y-94456275D01*
X47646181Y-94257344D01*
X47244000Y-94234000D01*
X46704276Y-94171062D01*
X46505345Y-93874180D01*
X46482000Y-93472000D01*
X46419063Y-92932275D01*
X46122181Y-92733344D01*
X45720000Y-92710000D01*
X44958000Y-92710000D01*
X44958000Y-95758000D01*
X48006000Y-95758000D01*
X48006000Y-94996000D01*
G37*
X48006000Y-94996000D02*
X47943063Y-94456275D01*
X47646181Y-94257344D01*
X47244000Y-94234000D01*
X46704276Y-94171062D01*
X46505345Y-93874180D01*
X46482000Y-93472000D01*
X46419063Y-92932275D01*
X46122181Y-92733344D01*
X45720000Y-92710000D01*
X44958000Y-92710000D01*
X44958000Y-95758000D01*
X48006000Y-95758000D01*
X48006000Y-94996000D01*
G36*
X60198000Y-86614000D02*
G01*
X58674000Y-86614000D01*
X58674000Y-89662000D01*
X60198000Y-89662000D01*
X60198000Y-86614000D01*
G37*
X60198000Y-86614000D02*
X58674000Y-86614000D01*
X58674000Y-89662000D01*
X60198000Y-89662000D01*
X60198000Y-86614000D01*
G36*
X56388000Y-92710000D02*
G01*
X56927725Y-92647062D01*
X57126656Y-92350180D01*
X57150000Y-91948000D01*
X57087063Y-91408275D01*
X56790181Y-91209344D01*
X56388000Y-91186000D01*
X55848276Y-91248937D01*
X55649345Y-91545819D01*
X55626000Y-91948000D01*
X55626000Y-92710000D01*
X56388000Y-92710000D01*
G37*
X56388000Y-92710000D02*
X56927725Y-92647062D01*
X57126656Y-92350180D01*
X57150000Y-91948000D01*
X57087063Y-91408275D01*
X56790181Y-91209344D01*
X56388000Y-91186000D01*
X55848276Y-91248937D01*
X55649345Y-91545819D01*
X55626000Y-91948000D01*
X55626000Y-92710000D01*
X56388000Y-92710000D01*
G36*
X59436000Y-92710000D02*
G01*
X58896276Y-92772937D01*
X58697345Y-93069819D01*
X58674000Y-93472000D01*
X58611063Y-94011724D01*
X58314181Y-94210655D01*
X57912000Y-94234000D01*
X57372276Y-94296937D01*
X57173345Y-94593819D01*
X57150000Y-94996000D01*
X57087063Y-95535724D01*
X56790181Y-95734655D01*
X56388000Y-95758000D01*
X55626000Y-95758000D01*
X55626000Y-97282000D01*
X58674000Y-97282000D01*
X58674000Y-103378000D01*
X57912000Y-103378000D01*
X57372276Y-103440937D01*
X57173345Y-103737819D01*
X57150000Y-104140000D01*
X57087063Y-104679724D01*
X56790181Y-104878655D01*
X56388000Y-104902000D01*
X55848276Y-104839062D01*
X55649345Y-104542180D01*
X55626000Y-104140000D01*
X55563063Y-103600275D01*
X55266181Y-103401344D01*
X54864000Y-103378000D01*
X54324276Y-103440937D01*
X54125345Y-103737819D01*
X54102000Y-104140000D01*
X54102000Y-104902000D01*
X51054000Y-104902000D01*
X51054000Y-105664000D01*
X50991063Y-106203724D01*
X50694181Y-106402655D01*
X50292000Y-106426000D01*
X49752276Y-106363062D01*
X49553345Y-106066180D01*
X49530000Y-105664000D01*
X49530000Y-104902000D01*
X44958000Y-104902000D01*
X44958000Y-106426000D01*
X49530000Y-106426000D01*
X49530000Y-107188000D01*
X49467063Y-107727724D01*
X49170181Y-107926655D01*
X48768000Y-107950000D01*
X48228276Y-108012937D01*
X48029345Y-108309819D01*
X48006000Y-108712000D01*
X48006000Y-109474000D01*
X51054000Y-109474000D01*
X51054000Y-110236000D01*
X50991063Y-110775724D01*
X50694181Y-110974655D01*
X50292000Y-110998000D01*
X49752276Y-111060937D01*
X49553345Y-111357819D01*
X49530000Y-111760000D01*
X49467063Y-112299724D01*
X49170181Y-112498655D01*
X48768000Y-112522000D01*
X48228276Y-112459062D01*
X48029345Y-112162180D01*
X48006000Y-111760000D01*
X47943063Y-111220275D01*
X47646181Y-111021344D01*
X47244000Y-110998000D01*
X46704276Y-110935062D01*
X46505345Y-110638180D01*
X46482000Y-110236000D01*
X46419063Y-109696275D01*
X46122181Y-109497344D01*
X45720000Y-109474000D01*
X44958000Y-109474000D01*
X44958000Y-114046000D01*
X45720000Y-114046000D01*
X46259725Y-114108937D01*
X46458656Y-114405819D01*
X46482000Y-114808000D01*
X46419063Y-115347724D01*
X46122181Y-115546655D01*
X45720000Y-115570000D01*
X45180276Y-115632937D01*
X44981345Y-115929819D01*
X44958000Y-116332000D01*
X45020938Y-116871724D01*
X45317820Y-117070655D01*
X45720000Y-117094000D01*
X46259725Y-117031062D01*
X46458656Y-116734180D01*
X46482000Y-116332000D01*
X46544938Y-115792275D01*
X46841820Y-115593344D01*
X47244000Y-115570000D01*
X48006000Y-115570000D01*
X48006000Y-118618000D01*
X48768000Y-118618000D01*
X49307725Y-118555062D01*
X49506656Y-118258180D01*
X49530000Y-117856000D01*
X49592938Y-117316275D01*
X49889820Y-117117344D01*
X50292000Y-117094000D01*
X50831725Y-117156937D01*
X51030656Y-117453819D01*
X51054000Y-117856000D01*
X51054000Y-118618000D01*
X55626000Y-118618000D01*
X55626000Y-116332000D01*
X52578000Y-116332000D01*
X52515063Y-116871724D01*
X52218181Y-117070655D01*
X51816000Y-117094000D01*
X51276276Y-117031062D01*
X51077345Y-116734180D01*
X51054000Y-116332000D01*
X51116938Y-115792275D01*
X51413820Y-115593344D01*
X51816000Y-115570000D01*
X52355725Y-115632937D01*
X52554656Y-115929819D01*
X52578000Y-116332000D01*
X55626000Y-116332000D01*
X55626000Y-115570000D01*
X60198000Y-115570000D01*
X60198000Y-114808000D01*
X60260938Y-114268275D01*
X60557820Y-114069344D01*
X60960000Y-114046000D01*
X61499725Y-114108937D01*
X61698656Y-114405819D01*
X61722000Y-114808000D01*
X61784938Y-115347724D01*
X62081820Y-115546655D01*
X62484000Y-115570000D01*
X63023725Y-115632937D01*
X63222656Y-115929819D01*
X63246000Y-116332000D01*
X63183063Y-116871724D01*
X62886181Y-117070655D01*
X62484000Y-117094000D01*
X61944276Y-117156937D01*
X61745345Y-117453819D01*
X61722000Y-117856000D01*
X61722000Y-118618000D01*
X76962000Y-118618000D01*
X76962000Y-116332000D01*
X75438000Y-116332000D01*
X75375063Y-116871724D01*
X75078181Y-117070655D01*
X74676000Y-117094000D01*
X74136276Y-117031062D01*
X73937345Y-116734180D01*
X73914000Y-116332000D01*
X73976938Y-115792275D01*
X74273820Y-115593344D01*
X74676000Y-115570000D01*
X75215725Y-115632937D01*
X75414656Y-115929819D01*
X75438000Y-116332000D01*
X76962000Y-116332000D01*
X76962000Y-115570000D01*
X76200000Y-115570000D01*
X75660276Y-115507062D01*
X75461345Y-115210180D01*
X75438000Y-114808000D01*
X72390000Y-114808000D01*
X72327063Y-115347724D01*
X72030181Y-115546655D01*
X71628000Y-115570000D01*
X71088276Y-115632937D01*
X70889345Y-115929819D01*
X70866000Y-116332000D01*
X70866000Y-117094000D01*
X64770000Y-117094000D01*
X64770000Y-116332000D01*
X64707063Y-115792275D01*
X64410181Y-115593344D01*
X64008000Y-115570000D01*
X63468276Y-115507062D01*
X63269345Y-115210180D01*
X63246000Y-114808000D01*
X63308938Y-114268275D01*
X63605820Y-114069344D01*
X64008000Y-114046000D01*
X64547725Y-114108937D01*
X64746656Y-114405819D01*
X64770000Y-114808000D01*
X64832938Y-115347724D01*
X65129820Y-115546655D01*
X65532000Y-115570000D01*
X66071725Y-115507062D01*
X66270656Y-115210180D01*
X66294000Y-114808000D01*
X66356938Y-114268275D01*
X66653820Y-114069344D01*
X67056000Y-114046000D01*
X67595725Y-113983062D01*
X67794656Y-113686180D01*
X67818000Y-113284000D01*
X67755063Y-112744275D01*
X67458181Y-112545344D01*
X67056000Y-112522000D01*
X66294000Y-112522000D01*
X66294000Y-106426000D01*
X69342000Y-106426000D01*
X69342000Y-107188000D01*
X69279063Y-107727724D01*
X68982181Y-107926655D01*
X68580000Y-107950000D01*
X68040276Y-108012937D01*
X67841345Y-108309819D01*
X67818000Y-108712000D01*
X67880938Y-109251724D01*
X68177820Y-109450655D01*
X68580000Y-109474000D01*
X69119725Y-109536937D01*
X69318656Y-109833819D01*
X69342000Y-110236000D01*
X69404938Y-110775724D01*
X69701820Y-110974655D01*
X70104000Y-110998000D01*
X70866000Y-110998000D01*
X70866000Y-114046000D01*
X71628000Y-114046000D01*
X72167725Y-114108937D01*
X72366656Y-114405819D01*
X72390000Y-114808000D01*
X75438000Y-114808000D01*
X75375063Y-114268275D01*
X75078181Y-114069344D01*
X74676000Y-114046000D01*
X74136276Y-113983062D01*
X73937345Y-113686180D01*
X73914000Y-113284000D01*
X73976938Y-112744275D01*
X74273820Y-112545344D01*
X74676000Y-112522000D01*
X75215725Y-112459062D01*
X75414656Y-112162180D01*
X75438000Y-111760000D01*
X75500938Y-111220275D01*
X75797820Y-111021344D01*
X76200000Y-110998000D01*
X76962000Y-110998000D01*
X76962000Y-107950000D01*
X75438000Y-107950000D01*
X75438000Y-109474000D01*
X70866000Y-109474000D01*
X70866000Y-107950000D01*
X75438000Y-107950000D01*
X76962000Y-107950000D01*
X76962000Y-104902000D01*
X67818000Y-104902000D01*
X67818000Y-104140000D01*
X67880938Y-103600275D01*
X68177820Y-103401344D01*
X68580000Y-103378000D01*
X69119725Y-103315062D01*
X69318656Y-103018180D01*
X69342000Y-102616000D01*
X69279063Y-102076275D01*
X68982181Y-101877344D01*
X68580000Y-101854000D01*
X68040276Y-101916937D01*
X67841345Y-102213819D01*
X67818000Y-102616000D01*
X67755063Y-103155724D01*
X67458181Y-103354655D01*
X67056000Y-103378000D01*
X66294000Y-103378000D01*
X66294000Y-100330000D01*
X69342000Y-100330000D01*
X69342000Y-99568000D01*
X69404938Y-99028275D01*
X69701820Y-98829344D01*
X70104000Y-98806000D01*
X70866000Y-98806000D01*
X70866000Y-98044000D01*
X69342000Y-98044000D01*
X69279063Y-98583724D01*
X68982181Y-98782655D01*
X68580000Y-98806000D01*
X66294000Y-98806000D01*
X66294000Y-100330000D01*
X63246000Y-100330000D01*
X63246000Y-101092000D01*
X63308938Y-101631724D01*
X63605820Y-101830655D01*
X64008000Y-101854000D01*
X64547725Y-101916937D01*
X64746656Y-102213819D01*
X64770000Y-102616000D01*
X64707063Y-103155724D01*
X64410181Y-103354655D01*
X64008000Y-103378000D01*
X63468276Y-103440937D01*
X63269345Y-103737819D01*
X63246000Y-104140000D01*
X63246000Y-104902000D01*
X66294000Y-104902000D01*
X66294000Y-106426000D01*
X64770000Y-106426000D01*
X64770000Y-112522000D01*
X61722000Y-112522000D01*
X55626000Y-112522000D01*
X55626000Y-114046000D01*
X51054000Y-114046000D01*
X51054000Y-112522000D01*
X55626000Y-112522000D01*
X61722000Y-112522000D01*
X61722000Y-109474000D01*
X62484000Y-109474000D01*
X63023725Y-109411062D01*
X63222656Y-109114180D01*
X63246000Y-108712000D01*
X63246000Y-107950000D01*
X58674000Y-107950000D01*
X58674000Y-107188000D01*
X58736938Y-106648275D01*
X59033820Y-106449344D01*
X59436000Y-106426000D01*
X57150000Y-106426000D01*
X57150000Y-110998000D01*
X52578000Y-110998000D01*
X52578000Y-106426000D01*
X57150000Y-106426000D01*
X59436000Y-106426000D01*
X59975725Y-106363062D01*
X60174656Y-106066180D01*
X60198000Y-105664000D01*
X60135063Y-105124275D01*
X59838181Y-104925344D01*
X59436000Y-104902000D01*
X58896276Y-104839062D01*
X58697345Y-104542180D01*
X58674000Y-104140000D01*
X58736938Y-103600275D01*
X59033820Y-103401344D01*
X59436000Y-103378000D01*
X59975725Y-103315062D01*
X60174656Y-103018180D01*
X60198000Y-102616000D01*
X60260938Y-102076275D01*
X60557820Y-101877344D01*
X60960000Y-101854000D01*
X61499725Y-101791062D01*
X61698656Y-101494180D01*
X61722000Y-101092000D01*
X61659063Y-100552275D01*
X61362181Y-100353344D01*
X60960000Y-100330000D01*
X60420276Y-100267062D01*
X60221345Y-99970180D01*
X60198000Y-99568000D01*
X60260938Y-99028275D01*
X60557820Y-98829344D01*
X60960000Y-98806000D01*
X61499725Y-98868937D01*
X61698656Y-99165819D01*
X61722000Y-99568000D01*
X61784938Y-100107724D01*
X62081820Y-100306655D01*
X62484000Y-100330000D01*
X63023725Y-100267062D01*
X63222656Y-99970180D01*
X63246000Y-99568000D01*
X63246000Y-98806000D01*
X66294000Y-98806000D01*
X68580000Y-98806000D01*
X68040276Y-98743062D01*
X67841345Y-98446180D01*
X67818000Y-98044000D01*
X67880938Y-97504275D01*
X68177820Y-97305344D01*
X68580000Y-97282000D01*
X69119725Y-97344937D01*
X69318656Y-97641819D01*
X69342000Y-98044000D01*
X70866000Y-98044000D01*
X70866000Y-95758000D01*
X67818000Y-95758000D01*
X67818000Y-94996000D01*
X67755063Y-94456275D01*
X67458181Y-94257344D01*
X67056000Y-94234000D01*
X66516276Y-94171062D01*
X66317345Y-93874180D01*
X66294000Y-93472000D01*
X66231063Y-92932275D01*
X65934181Y-92733344D01*
X65532000Y-92710000D01*
X64992276Y-92647062D01*
X64793345Y-92350180D01*
X64770000Y-91948000D01*
X64770000Y-91186000D01*
X69342000Y-91186000D01*
X69342000Y-86614000D01*
X67818000Y-86614000D01*
X67818000Y-83566000D01*
X66294000Y-83566000D01*
X66294000Y-86614000D01*
X64770000Y-86614000D01*
X64770000Y-83566000D01*
X64008000Y-83566000D01*
X63468276Y-83503062D01*
X63269345Y-83206180D01*
X63246000Y-82804000D01*
X63308938Y-82264275D01*
X63605820Y-82065344D01*
X64008000Y-82042000D01*
X64547725Y-81979062D01*
X64746656Y-81682180D01*
X64770000Y-81280000D01*
X64832938Y-80740275D01*
X65129820Y-80541344D01*
X65532000Y-80518000D01*
X66071725Y-80455062D01*
X66270656Y-80158180D01*
X66294000Y-79756000D01*
X66356938Y-79216275D01*
X66653820Y-79017344D01*
X67056000Y-78994000D01*
X67818000Y-78994000D01*
X67818000Y-74422000D01*
X66294000Y-74422000D01*
X66294000Y-78994000D01*
X64770000Y-78994000D01*
X64770000Y-77470000D01*
X63246000Y-77470000D01*
X63246000Y-78232000D01*
X63183063Y-78771724D01*
X62886181Y-78970655D01*
X62484000Y-78994000D01*
X61944276Y-79056937D01*
X61745345Y-79353819D01*
X61722000Y-79756000D01*
X61722000Y-80518000D01*
X58674000Y-80518000D01*
X58674000Y-79756000D01*
X58736938Y-79216275D01*
X59033820Y-79017344D01*
X59436000Y-78994000D01*
X59975725Y-78931062D01*
X60174656Y-78634180D01*
X60198000Y-78232000D01*
X60198000Y-77470000D01*
X63246000Y-77470000D01*
X64770000Y-77470000D01*
X64770000Y-74422000D01*
X64008000Y-74422000D01*
X63468276Y-74484937D01*
X63269345Y-74781819D01*
X63246000Y-75184000D01*
X63183063Y-75723724D01*
X62886181Y-75922655D01*
X62484000Y-75946000D01*
X61944276Y-75883062D01*
X61745345Y-75586180D01*
X61722000Y-75184000D01*
X61659063Y-74644275D01*
X61362181Y-74445344D01*
X60960000Y-74422000D01*
X60198000Y-74422000D01*
X60198000Y-77470000D01*
X59436000Y-77470000D01*
X58896276Y-77407062D01*
X58697345Y-77110180D01*
X58674000Y-76708000D01*
X58611063Y-76168275D01*
X58314181Y-75969344D01*
X57912000Y-75946000D01*
X57372276Y-76008937D01*
X57173345Y-76305819D01*
X57150000Y-76708000D01*
X57212938Y-77247724D01*
X57509820Y-77446655D01*
X57912000Y-77470000D01*
X58451725Y-77532937D01*
X58650656Y-77829819D01*
X58674000Y-78232000D01*
X58611063Y-78771724D01*
X58314181Y-78970655D01*
X57912000Y-78994000D01*
X57150000Y-78994000D01*
X57150000Y-82042000D01*
X61722000Y-82042000D01*
X61722000Y-82804000D01*
X61659063Y-83343724D01*
X61362181Y-83542655D01*
X60960000Y-83566000D01*
X60420276Y-83628937D01*
X60221345Y-83925819D01*
X60198000Y-84328000D01*
X60260938Y-84867724D01*
X60557820Y-85066655D01*
X60960000Y-85090000D01*
X61499725Y-85027062D01*
X61698656Y-84730180D01*
X61722000Y-84328000D01*
X61784938Y-83788275D01*
X62081820Y-83589344D01*
X62484000Y-83566000D01*
X63246000Y-83566000D01*
X63246000Y-86614000D01*
X62484000Y-86614000D01*
X61944276Y-86676937D01*
X61745345Y-86973819D01*
X61722000Y-87376000D01*
X61722000Y-88138000D01*
X64770000Y-88138000D01*
X64770000Y-88900000D01*
X64707063Y-89439724D01*
X64410181Y-89638655D01*
X64008000Y-89662000D01*
X63246000Y-89662000D01*
X63246000Y-95758000D01*
X64008000Y-95758000D01*
X64547725Y-95820937D01*
X64746656Y-96117819D01*
X64770000Y-96520000D01*
X64707063Y-97059724D01*
X64410181Y-97258655D01*
X64008000Y-97282000D01*
X63468276Y-97344937D01*
X63269345Y-97641819D01*
X63246000Y-98044000D01*
X63183063Y-98583724D01*
X62886181Y-98782655D01*
X62484000Y-98806000D01*
X61722000Y-98806000D01*
X61722000Y-96520000D01*
X60198000Y-96520000D01*
X60135063Y-97059724D01*
X59838181Y-97258655D01*
X59436000Y-97282000D01*
X58896276Y-97219062D01*
X58697345Y-96922180D01*
X58674000Y-96520000D01*
X58736938Y-95980275D01*
X59033820Y-95781344D01*
X59436000Y-95758000D01*
X59975725Y-95820937D01*
X60174656Y-96117819D01*
X60198000Y-96520000D01*
X61722000Y-96520000D01*
X61722000Y-95758000D01*
X60198000Y-95758000D01*
X60198000Y-92710000D01*
X59436000Y-92710000D01*
G37*
X59436000Y-92710000D02*
X58896276Y-92772937D01*
X58697345Y-93069819D01*
X58674000Y-93472000D01*
X58611063Y-94011724D01*
X58314181Y-94210655D01*
X57912000Y-94234000D01*
X57372276Y-94296937D01*
X57173345Y-94593819D01*
X57150000Y-94996000D01*
X57087063Y-95535724D01*
X56790181Y-95734655D01*
X56388000Y-95758000D01*
X55626000Y-95758000D01*
X55626000Y-97282000D01*
X58674000Y-97282000D01*
X58674000Y-103378000D01*
X57912000Y-103378000D01*
X57372276Y-103440937D01*
X57173345Y-103737819D01*
X57150000Y-104140000D01*
X57087063Y-104679724D01*
X56790181Y-104878655D01*
X56388000Y-104902000D01*
X55848276Y-104839062D01*
X55649345Y-104542180D01*
X55626000Y-104140000D01*
X55563063Y-103600275D01*
X55266181Y-103401344D01*
X54864000Y-103378000D01*
X54324276Y-103440937D01*
X54125345Y-103737819D01*
X54102000Y-104140000D01*
X54102000Y-104902000D01*
X51054000Y-104902000D01*
X51054000Y-105664000D01*
X50991063Y-106203724D01*
X50694181Y-106402655D01*
X50292000Y-106426000D01*
X49752276Y-106363062D01*
X49553345Y-106066180D01*
X49530000Y-105664000D01*
X49530000Y-104902000D01*
X44958000Y-104902000D01*
X44958000Y-106426000D01*
X49530000Y-106426000D01*
X49530000Y-107188000D01*
X49467063Y-107727724D01*
X49170181Y-107926655D01*
X48768000Y-107950000D01*
X48228276Y-108012937D01*
X48029345Y-108309819D01*
X48006000Y-108712000D01*
X48006000Y-109474000D01*
X51054000Y-109474000D01*
X51054000Y-110236000D01*
X50991063Y-110775724D01*
X50694181Y-110974655D01*
X50292000Y-110998000D01*
X49752276Y-111060937D01*
X49553345Y-111357819D01*
X49530000Y-111760000D01*
X49467063Y-112299724D01*
X49170181Y-112498655D01*
X48768000Y-112522000D01*
X48228276Y-112459062D01*
X48029345Y-112162180D01*
X48006000Y-111760000D01*
X47943063Y-111220275D01*
X47646181Y-111021344D01*
X47244000Y-110998000D01*
X46704276Y-110935062D01*
X46505345Y-110638180D01*
X46482000Y-110236000D01*
X46419063Y-109696275D01*
X46122181Y-109497344D01*
X45720000Y-109474000D01*
X44958000Y-109474000D01*
X44958000Y-114046000D01*
X45720000Y-114046000D01*
X46259725Y-114108937D01*
X46458656Y-114405819D01*
X46482000Y-114808000D01*
X46419063Y-115347724D01*
X46122181Y-115546655D01*
X45720000Y-115570000D01*
X45180276Y-115632937D01*
X44981345Y-115929819D01*
X44958000Y-116332000D01*
X45020938Y-116871724D01*
X45317820Y-117070655D01*
X45720000Y-117094000D01*
X46259725Y-117031062D01*
X46458656Y-116734180D01*
X46482000Y-116332000D01*
X46544938Y-115792275D01*
X46841820Y-115593344D01*
X47244000Y-115570000D01*
X48006000Y-115570000D01*
X48006000Y-118618000D01*
X48768000Y-118618000D01*
X49307725Y-118555062D01*
X49506656Y-118258180D01*
X49530000Y-117856000D01*
X49592938Y-117316275D01*
X49889820Y-117117344D01*
X50292000Y-117094000D01*
X50831725Y-117156937D01*
X51030656Y-117453819D01*
X51054000Y-117856000D01*
X51054000Y-118618000D01*
X55626000Y-118618000D01*
X55626000Y-116332000D01*
X52578000Y-116332000D01*
X52515063Y-116871724D01*
X52218181Y-117070655D01*
X51816000Y-117094000D01*
X51276276Y-117031062D01*
X51077345Y-116734180D01*
X51054000Y-116332000D01*
X51116938Y-115792275D01*
X51413820Y-115593344D01*
X51816000Y-115570000D01*
X52355725Y-115632937D01*
X52554656Y-115929819D01*
X52578000Y-116332000D01*
X55626000Y-116332000D01*
X55626000Y-115570000D01*
X60198000Y-115570000D01*
X60198000Y-114808000D01*
X60260938Y-114268275D01*
X60557820Y-114069344D01*
X60960000Y-114046000D01*
X61499725Y-114108937D01*
X61698656Y-114405819D01*
X61722000Y-114808000D01*
X61784938Y-115347724D01*
X62081820Y-115546655D01*
X62484000Y-115570000D01*
X63023725Y-115632937D01*
X63222656Y-115929819D01*
X63246000Y-116332000D01*
X63183063Y-116871724D01*
X62886181Y-117070655D01*
X62484000Y-117094000D01*
X61944276Y-117156937D01*
X61745345Y-117453819D01*
X61722000Y-117856000D01*
X61722000Y-118618000D01*
X76962000Y-118618000D01*
X76962000Y-116332000D01*
X75438000Y-116332000D01*
X75375063Y-116871724D01*
X75078181Y-117070655D01*
X74676000Y-117094000D01*
X74136276Y-117031062D01*
X73937345Y-116734180D01*
X73914000Y-116332000D01*
X73976938Y-115792275D01*
X74273820Y-115593344D01*
X74676000Y-115570000D01*
X75215725Y-115632937D01*
X75414656Y-115929819D01*
X75438000Y-116332000D01*
X76962000Y-116332000D01*
X76962000Y-115570000D01*
X76200000Y-115570000D01*
X75660276Y-115507062D01*
X75461345Y-115210180D01*
X75438000Y-114808000D01*
X72390000Y-114808000D01*
X72327063Y-115347724D01*
X72030181Y-115546655D01*
X71628000Y-115570000D01*
X71088276Y-115632937D01*
X70889345Y-115929819D01*
X70866000Y-116332000D01*
X70866000Y-117094000D01*
X64770000Y-117094000D01*
X64770000Y-116332000D01*
X64707063Y-115792275D01*
X64410181Y-115593344D01*
X64008000Y-115570000D01*
X63468276Y-115507062D01*
X63269345Y-115210180D01*
X63246000Y-114808000D01*
X63308938Y-114268275D01*
X63605820Y-114069344D01*
X64008000Y-114046000D01*
X64547725Y-114108937D01*
X64746656Y-114405819D01*
X64770000Y-114808000D01*
X64832938Y-115347724D01*
X65129820Y-115546655D01*
X65532000Y-115570000D01*
X66071725Y-115507062D01*
X66270656Y-115210180D01*
X66294000Y-114808000D01*
X66356938Y-114268275D01*
X66653820Y-114069344D01*
X67056000Y-114046000D01*
X67595725Y-113983062D01*
X67794656Y-113686180D01*
X67818000Y-113284000D01*
X67755063Y-112744275D01*
X67458181Y-112545344D01*
X67056000Y-112522000D01*
X66294000Y-112522000D01*
X66294000Y-106426000D01*
X69342000Y-106426000D01*
X69342000Y-107188000D01*
X69279063Y-107727724D01*
X68982181Y-107926655D01*
X68580000Y-107950000D01*
X68040276Y-108012937D01*
X67841345Y-108309819D01*
X67818000Y-108712000D01*
X67880938Y-109251724D01*
X68177820Y-109450655D01*
X68580000Y-109474000D01*
X69119725Y-109536937D01*
X69318656Y-109833819D01*
X69342000Y-110236000D01*
X69404938Y-110775724D01*
X69701820Y-110974655D01*
X70104000Y-110998000D01*
X70866000Y-110998000D01*
X70866000Y-114046000D01*
X71628000Y-114046000D01*
X72167725Y-114108937D01*
X72366656Y-114405819D01*
X72390000Y-114808000D01*
X75438000Y-114808000D01*
X75375063Y-114268275D01*
X75078181Y-114069344D01*
X74676000Y-114046000D01*
X74136276Y-113983062D01*
X73937345Y-113686180D01*
X73914000Y-113284000D01*
X73976938Y-112744275D01*
X74273820Y-112545344D01*
X74676000Y-112522000D01*
X75215725Y-112459062D01*
X75414656Y-112162180D01*
X75438000Y-111760000D01*
X75500938Y-111220275D01*
X75797820Y-111021344D01*
X76200000Y-110998000D01*
X76962000Y-110998000D01*
X76962000Y-107950000D01*
X75438000Y-107950000D01*
X75438000Y-109474000D01*
X70866000Y-109474000D01*
X70866000Y-107950000D01*
X75438000Y-107950000D01*
X76962000Y-107950000D01*
X76962000Y-104902000D01*
X67818000Y-104902000D01*
X67818000Y-104140000D01*
X67880938Y-103600275D01*
X68177820Y-103401344D01*
X68580000Y-103378000D01*
X69119725Y-103315062D01*
X69318656Y-103018180D01*
X69342000Y-102616000D01*
X69279063Y-102076275D01*
X68982181Y-101877344D01*
X68580000Y-101854000D01*
X68040276Y-101916937D01*
X67841345Y-102213819D01*
X67818000Y-102616000D01*
X67755063Y-103155724D01*
X67458181Y-103354655D01*
X67056000Y-103378000D01*
X66294000Y-103378000D01*
X66294000Y-100330000D01*
X69342000Y-100330000D01*
X69342000Y-99568000D01*
X69404938Y-99028275D01*
X69701820Y-98829344D01*
X70104000Y-98806000D01*
X70866000Y-98806000D01*
X70866000Y-98044000D01*
X69342000Y-98044000D01*
X69279063Y-98583724D01*
X68982181Y-98782655D01*
X68580000Y-98806000D01*
X66294000Y-98806000D01*
X66294000Y-100330000D01*
X63246000Y-100330000D01*
X63246000Y-101092000D01*
X63308938Y-101631724D01*
X63605820Y-101830655D01*
X64008000Y-101854000D01*
X64547725Y-101916937D01*
X64746656Y-102213819D01*
X64770000Y-102616000D01*
X64707063Y-103155724D01*
X64410181Y-103354655D01*
X64008000Y-103378000D01*
X63468276Y-103440937D01*
X63269345Y-103737819D01*
X63246000Y-104140000D01*
X63246000Y-104902000D01*
X66294000Y-104902000D01*
X66294000Y-106426000D01*
X64770000Y-106426000D01*
X64770000Y-112522000D01*
X61722000Y-112522000D01*
X55626000Y-112522000D01*
X55626000Y-114046000D01*
X51054000Y-114046000D01*
X51054000Y-112522000D01*
X55626000Y-112522000D01*
X61722000Y-112522000D01*
X61722000Y-109474000D01*
X62484000Y-109474000D01*
X63023725Y-109411062D01*
X63222656Y-109114180D01*
X63246000Y-108712000D01*
X63246000Y-107950000D01*
X58674000Y-107950000D01*
X58674000Y-107188000D01*
X58736938Y-106648275D01*
X59033820Y-106449344D01*
X59436000Y-106426000D01*
X57150000Y-106426000D01*
X57150000Y-110998000D01*
X52578000Y-110998000D01*
X52578000Y-106426000D01*
X57150000Y-106426000D01*
X59436000Y-106426000D01*
X59975725Y-106363062D01*
X60174656Y-106066180D01*
X60198000Y-105664000D01*
X60135063Y-105124275D01*
X59838181Y-104925344D01*
X59436000Y-104902000D01*
X58896276Y-104839062D01*
X58697345Y-104542180D01*
X58674000Y-104140000D01*
X58736938Y-103600275D01*
X59033820Y-103401344D01*
X59436000Y-103378000D01*
X59975725Y-103315062D01*
X60174656Y-103018180D01*
X60198000Y-102616000D01*
X60260938Y-102076275D01*
X60557820Y-101877344D01*
X60960000Y-101854000D01*
X61499725Y-101791062D01*
X61698656Y-101494180D01*
X61722000Y-101092000D01*
X61659063Y-100552275D01*
X61362181Y-100353344D01*
X60960000Y-100330000D01*
X60420276Y-100267062D01*
X60221345Y-99970180D01*
X60198000Y-99568000D01*
X60260938Y-99028275D01*
X60557820Y-98829344D01*
X60960000Y-98806000D01*
X61499725Y-98868937D01*
X61698656Y-99165819D01*
X61722000Y-99568000D01*
X61784938Y-100107724D01*
X62081820Y-100306655D01*
X62484000Y-100330000D01*
X63023725Y-100267062D01*
X63222656Y-99970180D01*
X63246000Y-99568000D01*
X63246000Y-98806000D01*
X66294000Y-98806000D01*
X68580000Y-98806000D01*
X68040276Y-98743062D01*
X67841345Y-98446180D01*
X67818000Y-98044000D01*
X67880938Y-97504275D01*
X68177820Y-97305344D01*
X68580000Y-97282000D01*
X69119725Y-97344937D01*
X69318656Y-97641819D01*
X69342000Y-98044000D01*
X70866000Y-98044000D01*
X70866000Y-95758000D01*
X67818000Y-95758000D01*
X67818000Y-94996000D01*
X67755063Y-94456275D01*
X67458181Y-94257344D01*
X67056000Y-94234000D01*
X66516276Y-94171062D01*
X66317345Y-93874180D01*
X66294000Y-93472000D01*
X66231063Y-92932275D01*
X65934181Y-92733344D01*
X65532000Y-92710000D01*
X64992276Y-92647062D01*
X64793345Y-92350180D01*
X64770000Y-91948000D01*
X64770000Y-91186000D01*
X69342000Y-91186000D01*
X69342000Y-86614000D01*
X67818000Y-86614000D01*
X67818000Y-83566000D01*
X66294000Y-83566000D01*
X66294000Y-86614000D01*
X64770000Y-86614000D01*
X64770000Y-83566000D01*
X64008000Y-83566000D01*
X63468276Y-83503062D01*
X63269345Y-83206180D01*
X63246000Y-82804000D01*
X63308938Y-82264275D01*
X63605820Y-82065344D01*
X64008000Y-82042000D01*
X64547725Y-81979062D01*
X64746656Y-81682180D01*
X64770000Y-81280000D01*
X64832938Y-80740275D01*
X65129820Y-80541344D01*
X65532000Y-80518000D01*
X66071725Y-80455062D01*
X66270656Y-80158180D01*
X66294000Y-79756000D01*
X66356938Y-79216275D01*
X66653820Y-79017344D01*
X67056000Y-78994000D01*
X67818000Y-78994000D01*
X67818000Y-74422000D01*
X66294000Y-74422000D01*
X66294000Y-78994000D01*
X64770000Y-78994000D01*
X64770000Y-77470000D01*
X63246000Y-77470000D01*
X63246000Y-78232000D01*
X63183063Y-78771724D01*
X62886181Y-78970655D01*
X62484000Y-78994000D01*
X61944276Y-79056937D01*
X61745345Y-79353819D01*
X61722000Y-79756000D01*
X61722000Y-80518000D01*
X58674000Y-80518000D01*
X58674000Y-79756000D01*
X58736938Y-79216275D01*
X59033820Y-79017344D01*
X59436000Y-78994000D01*
X59975725Y-78931062D01*
X60174656Y-78634180D01*
X60198000Y-78232000D01*
X60198000Y-77470000D01*
X63246000Y-77470000D01*
X64770000Y-77470000D01*
X64770000Y-74422000D01*
X64008000Y-74422000D01*
X63468276Y-74484937D01*
X63269345Y-74781819D01*
X63246000Y-75184000D01*
X63183063Y-75723724D01*
X62886181Y-75922655D01*
X62484000Y-75946000D01*
X61944276Y-75883062D01*
X61745345Y-75586180D01*
X61722000Y-75184000D01*
X61659063Y-74644275D01*
X61362181Y-74445344D01*
X60960000Y-74422000D01*
X60198000Y-74422000D01*
X60198000Y-77470000D01*
X59436000Y-77470000D01*
X58896276Y-77407062D01*
X58697345Y-77110180D01*
X58674000Y-76708000D01*
X58611063Y-76168275D01*
X58314181Y-75969344D01*
X57912000Y-75946000D01*
X57372276Y-76008937D01*
X57173345Y-76305819D01*
X57150000Y-76708000D01*
X57212938Y-77247724D01*
X57509820Y-77446655D01*
X57912000Y-77470000D01*
X58451725Y-77532937D01*
X58650656Y-77829819D01*
X58674000Y-78232000D01*
X58611063Y-78771724D01*
X58314181Y-78970655D01*
X57912000Y-78994000D01*
X57150000Y-78994000D01*
X57150000Y-82042000D01*
X61722000Y-82042000D01*
X61722000Y-82804000D01*
X61659063Y-83343724D01*
X61362181Y-83542655D01*
X60960000Y-83566000D01*
X60420276Y-83628937D01*
X60221345Y-83925819D01*
X60198000Y-84328000D01*
X60260938Y-84867724D01*
X60557820Y-85066655D01*
X60960000Y-85090000D01*
X61499725Y-85027062D01*
X61698656Y-84730180D01*
X61722000Y-84328000D01*
X61784938Y-83788275D01*
X62081820Y-83589344D01*
X62484000Y-83566000D01*
X63246000Y-83566000D01*
X63246000Y-86614000D01*
X62484000Y-86614000D01*
X61944276Y-86676937D01*
X61745345Y-86973819D01*
X61722000Y-87376000D01*
X61722000Y-88138000D01*
X64770000Y-88138000D01*
X64770000Y-88900000D01*
X64707063Y-89439724D01*
X64410181Y-89638655D01*
X64008000Y-89662000D01*
X63246000Y-89662000D01*
X63246000Y-95758000D01*
X64008000Y-95758000D01*
X64547725Y-95820937D01*
X64746656Y-96117819D01*
X64770000Y-96520000D01*
X64707063Y-97059724D01*
X64410181Y-97258655D01*
X64008000Y-97282000D01*
X63468276Y-97344937D01*
X63269345Y-97641819D01*
X63246000Y-98044000D01*
X63183063Y-98583724D01*
X62886181Y-98782655D01*
X62484000Y-98806000D01*
X61722000Y-98806000D01*
X61722000Y-96520000D01*
X60198000Y-96520000D01*
X60135063Y-97059724D01*
X59838181Y-97258655D01*
X59436000Y-97282000D01*
X58896276Y-97219062D01*
X58697345Y-96922180D01*
X58674000Y-96520000D01*
X58736938Y-95980275D01*
X59033820Y-95781344D01*
X59436000Y-95758000D01*
X59975725Y-95820937D01*
X60174656Y-96117819D01*
X60198000Y-96520000D01*
X61722000Y-96520000D01*
X61722000Y-95758000D01*
X60198000Y-95758000D01*
X60198000Y-92710000D01*
X59436000Y-92710000D01*
G36*
X60198000Y-92710000D02*
G01*
X61722000Y-92710000D01*
X61722000Y-89662000D01*
X60198000Y-89662000D01*
X60198000Y-92710000D01*
G37*
X60198000Y-92710000D02*
X61722000Y-92710000D01*
X61722000Y-89662000D01*
X60198000Y-89662000D01*
X60198000Y-92710000D01*
G36*
X52578000Y-92710000D02*
G01*
X52578000Y-93472000D01*
X52515063Y-94011724D01*
X52218181Y-94210655D01*
X51816000Y-94234000D01*
X51276276Y-94296937D01*
X51077345Y-94593819D01*
X51054000Y-94996000D01*
X51054000Y-95758000D01*
X48006000Y-95758000D01*
X48006000Y-100330000D01*
X44958000Y-100330000D01*
X44958000Y-103378000D01*
X45720000Y-103378000D01*
X46259725Y-103315062D01*
X46458656Y-103018180D01*
X46482000Y-102616000D01*
X46482000Y-101854000D01*
X49530000Y-101854000D01*
X49530000Y-103378000D01*
X52578000Y-103378000D01*
X52578000Y-101854000D01*
X55626000Y-101854000D01*
X55626000Y-101092000D01*
X55688938Y-100552275D01*
X55985820Y-100353344D01*
X56388000Y-100330000D01*
X56927725Y-100267062D01*
X57126656Y-99970180D01*
X57150000Y-99568000D01*
X57087063Y-99028275D01*
X56790181Y-98829344D01*
X56388000Y-98806000D01*
X55848276Y-98868937D01*
X55649345Y-99165819D01*
X55626000Y-99568000D01*
X55563063Y-100107724D01*
X55266181Y-100306655D01*
X54864000Y-100330000D01*
X54102000Y-100330000D01*
X54102000Y-99568000D01*
X52578000Y-99568000D01*
X52515063Y-100107724D01*
X52218181Y-100306655D01*
X51816000Y-100330000D01*
X51276276Y-100392937D01*
X51077345Y-100689819D01*
X51054000Y-101092000D01*
X50991063Y-101631724D01*
X50694181Y-101830655D01*
X50292000Y-101854000D01*
X49752276Y-101791062D01*
X49553345Y-101494180D01*
X49530000Y-101092000D01*
X49592938Y-100552275D01*
X49889820Y-100353344D01*
X50292000Y-100330000D01*
X50831725Y-100267062D01*
X51030656Y-99970180D01*
X51054000Y-99568000D01*
X50991063Y-99028275D01*
X50694181Y-98829344D01*
X50292000Y-98806000D01*
X49752276Y-98743062D01*
X49553345Y-98446180D01*
X49530000Y-98044000D01*
X49592938Y-97504275D01*
X49889820Y-97305344D01*
X50292000Y-97282000D01*
X50831725Y-97344937D01*
X51030656Y-97641819D01*
X51054000Y-98044000D01*
X51116938Y-98583724D01*
X51413820Y-98782655D01*
X51816000Y-98806000D01*
X52355725Y-98868937D01*
X52554656Y-99165819D01*
X52578000Y-99568000D01*
X54102000Y-99568000D01*
X54102000Y-97282000D01*
X53340000Y-97282000D01*
X52800276Y-97219062D01*
X52601345Y-96922180D01*
X52578000Y-96520000D01*
X52578000Y-95758000D01*
X55626000Y-95758000D01*
X55626000Y-92710000D01*
X52578000Y-92710000D01*
G37*
X52578000Y-92710000D02*
X52578000Y-93472000D01*
X52515063Y-94011724D01*
X52218181Y-94210655D01*
X51816000Y-94234000D01*
X51276276Y-94296937D01*
X51077345Y-94593819D01*
X51054000Y-94996000D01*
X51054000Y-95758000D01*
X48006000Y-95758000D01*
X48006000Y-100330000D01*
X44958000Y-100330000D01*
X44958000Y-103378000D01*
X45720000Y-103378000D01*
X46259725Y-103315062D01*
X46458656Y-103018180D01*
X46482000Y-102616000D01*
X46482000Y-101854000D01*
X49530000Y-101854000D01*
X49530000Y-103378000D01*
X52578000Y-103378000D01*
X52578000Y-101854000D01*
X55626000Y-101854000D01*
X55626000Y-101092000D01*
X55688938Y-100552275D01*
X55985820Y-100353344D01*
X56388000Y-100330000D01*
X56927725Y-100267062D01*
X57126656Y-99970180D01*
X57150000Y-99568000D01*
X57087063Y-99028275D01*
X56790181Y-98829344D01*
X56388000Y-98806000D01*
X55848276Y-98868937D01*
X55649345Y-99165819D01*
X55626000Y-99568000D01*
X55563063Y-100107724D01*
X55266181Y-100306655D01*
X54864000Y-100330000D01*
X54102000Y-100330000D01*
X54102000Y-99568000D01*
X52578000Y-99568000D01*
X52515063Y-100107724D01*
X52218181Y-100306655D01*
X51816000Y-100330000D01*
X51276276Y-100392937D01*
X51077345Y-100689819D01*
X51054000Y-101092000D01*
X50991063Y-101631724D01*
X50694181Y-101830655D01*
X50292000Y-101854000D01*
X49752276Y-101791062D01*
X49553345Y-101494180D01*
X49530000Y-101092000D01*
X49592938Y-100552275D01*
X49889820Y-100353344D01*
X50292000Y-100330000D01*
X50831725Y-100267062D01*
X51030656Y-99970180D01*
X51054000Y-99568000D01*
X50991063Y-99028275D01*
X50694181Y-98829344D01*
X50292000Y-98806000D01*
X49752276Y-98743062D01*
X49553345Y-98446180D01*
X49530000Y-98044000D01*
X49592938Y-97504275D01*
X49889820Y-97305344D01*
X50292000Y-97282000D01*
X50831725Y-97344937D01*
X51030656Y-97641819D01*
X51054000Y-98044000D01*
X51116938Y-98583724D01*
X51413820Y-98782655D01*
X51816000Y-98806000D01*
X52355725Y-98868937D01*
X52554656Y-99165819D01*
X52578000Y-99568000D01*
X54102000Y-99568000D01*
X54102000Y-97282000D01*
X53340000Y-97282000D01*
X52800276Y-97219062D01*
X52601345Y-96922180D01*
X52578000Y-96520000D01*
X52578000Y-95758000D01*
X55626000Y-95758000D01*
X55626000Y-92710000D01*
X52578000Y-92710000D01*
G36*
X58896276Y-117156937D02*
G01*
X58697345Y-117453819D01*
X58674000Y-117856000D01*
X58736938Y-118395724D01*
X59033820Y-118594655D01*
X59436000Y-118618000D01*
X59975725Y-118555062D01*
X60174656Y-118258180D01*
X60198000Y-117856000D01*
X60135063Y-117316275D01*
X59838181Y-117117344D01*
X59436000Y-117094000D01*
X58896276Y-117156937D01*
G37*
X58896276Y-117156937D02*
X58697345Y-117453819D01*
X58674000Y-117856000D01*
X58736938Y-118395724D01*
X59033820Y-118594655D01*
X59436000Y-118618000D01*
X59975725Y-118555062D01*
X60174656Y-118258180D01*
X60198000Y-117856000D01*
X60135063Y-117316275D01*
X59838181Y-117117344D01*
X59436000Y-117094000D01*
X58896276Y-117156937D01*
G36*
X78708276Y-104964937D02*
G01*
X78509345Y-105261819D01*
X78486000Y-105664000D01*
X78548938Y-106203724D01*
X78845820Y-106402655D01*
X79248000Y-106426000D01*
X79787725Y-106363062D01*
X79986656Y-106066180D01*
X80010000Y-105664000D01*
X79947063Y-105124275D01*
X79650181Y-104925344D01*
X79248000Y-104902000D01*
X78708276Y-104964937D01*
G37*
X78708276Y-104964937D02*
X78509345Y-105261819D01*
X78486000Y-105664000D01*
X78548938Y-106203724D01*
X78845820Y-106402655D01*
X79248000Y-106426000D01*
X79787725Y-106363062D01*
X79986656Y-106066180D01*
X80010000Y-105664000D01*
X79947063Y-105124275D01*
X79650181Y-104925344D01*
X79248000Y-104902000D01*
X78708276Y-104964937D01*
G36*
X70866000Y-103378000D02*
G01*
X71628000Y-103378000D01*
X72167725Y-103315062D01*
X72366656Y-103018180D01*
X72390000Y-102616000D01*
X72452938Y-102076275D01*
X72749820Y-101877344D01*
X73152000Y-101854000D01*
X73691725Y-101791062D01*
X73890656Y-101494180D01*
X73914000Y-101092000D01*
X73914000Y-100330000D01*
X70866000Y-100330000D01*
X70866000Y-103378000D01*
G37*
X70866000Y-103378000D02*
X71628000Y-103378000D01*
X72167725Y-103315062D01*
X72366656Y-103018180D01*
X72390000Y-102616000D01*
X72452938Y-102076275D01*
X72749820Y-101877344D01*
X73152000Y-101854000D01*
X73691725Y-101791062D01*
X73890656Y-101494180D01*
X73914000Y-101092000D01*
X73914000Y-100330000D01*
X70866000Y-100330000D01*
X70866000Y-103378000D01*
G36*
X45180276Y-97344937D02*
G01*
X44981345Y-97641819D01*
X44958000Y-98044000D01*
X45020938Y-98583724D01*
X45317820Y-98782655D01*
X45720000Y-98806000D01*
X46259725Y-98743062D01*
X46458656Y-98446180D01*
X46482000Y-98044000D01*
X46419063Y-97504275D01*
X46122181Y-97305344D01*
X45720000Y-97282000D01*
X45180276Y-97344937D01*
G37*
X45180276Y-97344937D02*
X44981345Y-97641819D01*
X44958000Y-98044000D01*
X45020938Y-98583724D01*
X45317820Y-98782655D01*
X45720000Y-98806000D01*
X46259725Y-98743062D01*
X46458656Y-98446180D01*
X46482000Y-98044000D01*
X46419063Y-97504275D01*
X46122181Y-97305344D01*
X45720000Y-97282000D01*
X45180276Y-97344937D01*
G36*
X49530000Y-88138000D02*
G01*
X46482000Y-88138000D01*
X46482000Y-89662000D01*
X49530000Y-89662000D01*
X49530000Y-88900000D01*
X49592938Y-88360275D01*
X49889820Y-88161344D01*
X50292000Y-88138000D01*
X51054000Y-88138000D01*
X51054000Y-91186000D01*
X50292000Y-91186000D01*
X49752276Y-91248937D01*
X49553345Y-91545819D01*
X49530000Y-91948000D01*
X49592938Y-92487724D01*
X49889820Y-92686655D01*
X50292000Y-92710000D01*
X50831725Y-92647062D01*
X51030656Y-92350180D01*
X51054000Y-91948000D01*
X51116938Y-91408275D01*
X51413820Y-91209344D01*
X51816000Y-91186000D01*
X52355725Y-91123062D01*
X52554656Y-90826180D01*
X52578000Y-90424000D01*
X52640938Y-89884275D01*
X52937820Y-89685344D01*
X53340000Y-89662000D01*
X53879725Y-89599062D01*
X54078656Y-89302180D01*
X54102000Y-88900000D01*
X54039063Y-88360275D01*
X53742181Y-88161344D01*
X53340000Y-88138000D01*
X52800276Y-88075062D01*
X52601345Y-87778180D01*
X52578000Y-87376000D01*
X52578000Y-86614000D01*
X49530000Y-86614000D01*
X49530000Y-88138000D01*
G37*
X49530000Y-88138000D02*
X46482000Y-88138000D01*
X46482000Y-89662000D01*
X49530000Y-89662000D01*
X49530000Y-88900000D01*
X49592938Y-88360275D01*
X49889820Y-88161344D01*
X50292000Y-88138000D01*
X51054000Y-88138000D01*
X51054000Y-91186000D01*
X50292000Y-91186000D01*
X49752276Y-91248937D01*
X49553345Y-91545819D01*
X49530000Y-91948000D01*
X49592938Y-92487724D01*
X49889820Y-92686655D01*
X50292000Y-92710000D01*
X50831725Y-92647062D01*
X51030656Y-92350180D01*
X51054000Y-91948000D01*
X51116938Y-91408275D01*
X51413820Y-91209344D01*
X51816000Y-91186000D01*
X52355725Y-91123062D01*
X52554656Y-90826180D01*
X52578000Y-90424000D01*
X52640938Y-89884275D01*
X52937820Y-89685344D01*
X53340000Y-89662000D01*
X53879725Y-89599062D01*
X54078656Y-89302180D01*
X54102000Y-88900000D01*
X54039063Y-88360275D01*
X53742181Y-88161344D01*
X53340000Y-88138000D01*
X52800276Y-88075062D01*
X52601345Y-87778180D01*
X52578000Y-87376000D01*
X52578000Y-86614000D01*
X49530000Y-86614000D01*
X49530000Y-88138000D01*
G36*
X55848276Y-88200937D02*
G01*
X55649345Y-88497819D01*
X55626000Y-88900000D01*
X55688938Y-89439724D01*
X55985820Y-89638655D01*
X56388000Y-89662000D01*
X56927725Y-89599062D01*
X57126656Y-89302180D01*
X57150000Y-88900000D01*
X57087063Y-88360275D01*
X56790181Y-88161344D01*
X56388000Y-88138000D01*
X55848276Y-88200937D01*
G37*
X55848276Y-88200937D02*
X55649345Y-88497819D01*
X55626000Y-88900000D01*
X55688938Y-89439724D01*
X55985820Y-89638655D01*
X56388000Y-89662000D01*
X56927725Y-89599062D01*
X57126656Y-89302180D01*
X57150000Y-88900000D01*
X57087063Y-88360275D01*
X56790181Y-88161344D01*
X56388000Y-88138000D01*
X55848276Y-88200937D01*
G36*
X78486000Y-85090000D02*
G01*
X89154000Y-85090000D01*
X89154000Y-75946000D01*
X87630000Y-75946000D01*
X87630000Y-83566000D01*
X80010000Y-83566000D01*
X80010000Y-75946000D01*
X87630000Y-75946000D01*
X89154000Y-75946000D01*
X89154000Y-74422000D01*
X78486000Y-74422000D01*
X78486000Y-85090000D01*
G37*
X78486000Y-85090000D02*
X89154000Y-85090000D01*
X89154000Y-75946000D01*
X87630000Y-75946000D01*
X87630000Y-83566000D01*
X80010000Y-83566000D01*
X80010000Y-75946000D01*
X87630000Y-75946000D01*
X89154000Y-75946000D01*
X89154000Y-74422000D01*
X78486000Y-74422000D01*
X78486000Y-85090000D01*
G36*
X75660276Y-83628937D02*
G01*
X75461345Y-83925819D01*
X75438000Y-84328000D01*
X75500938Y-84867724D01*
X75797820Y-85066655D01*
X76200000Y-85090000D01*
X76739725Y-85027062D01*
X76938656Y-84730180D01*
X76962000Y-84328000D01*
X76899063Y-83788275D01*
X76602181Y-83589344D01*
X76200000Y-83566000D01*
X75660276Y-83628937D01*
G37*
X75660276Y-83628937D02*
X75461345Y-83925819D01*
X75438000Y-84328000D01*
X75500938Y-84867724D01*
X75797820Y-85066655D01*
X76200000Y-85090000D01*
X76739725Y-85027062D01*
X76938656Y-84730180D01*
X76962000Y-84328000D01*
X76899063Y-83788275D01*
X76602181Y-83589344D01*
X76200000Y-83566000D01*
X75660276Y-83628937D01*
G36*
X57372276Y-83628937D02*
G01*
X57173345Y-83925819D01*
X57150000Y-84328000D01*
X57212938Y-84867724D01*
X57509820Y-85066655D01*
X57912000Y-85090000D01*
X58451725Y-85027062D01*
X58650656Y-84730180D01*
X58674000Y-84328000D01*
X58611063Y-83788275D01*
X58314181Y-83589344D01*
X57912000Y-83566000D01*
X57372276Y-83628937D01*
G37*
X57372276Y-83628937D02*
X57173345Y-83925819D01*
X57150000Y-84328000D01*
X57212938Y-84867724D01*
X57509820Y-85066655D01*
X57912000Y-85090000D01*
X58451725Y-85027062D01*
X58650656Y-84730180D01*
X58674000Y-84328000D01*
X58611063Y-83788275D01*
X58314181Y-83589344D01*
X57912000Y-83566000D01*
X57372276Y-83628937D01*
G36*
X44958000Y-85090000D02*
G01*
X55626000Y-85090000D01*
X55626000Y-75946000D01*
X54102000Y-75946000D01*
X54102000Y-83566000D01*
X46482000Y-83566000D01*
X46482000Y-75946000D01*
X54102000Y-75946000D01*
X55626000Y-75946000D01*
X55626000Y-74422000D01*
X44958000Y-74422000D01*
X44958000Y-85090000D01*
G37*
X44958000Y-85090000D02*
X55626000Y-85090000D01*
X55626000Y-75946000D01*
X54102000Y-75946000D01*
X54102000Y-83566000D01*
X46482000Y-83566000D01*
X46482000Y-75946000D01*
X54102000Y-75946000D01*
X55626000Y-75946000D01*
X55626000Y-74422000D01*
X44958000Y-74422000D01*
X44958000Y-85090000D01*
G36*
X75660276Y-79056937D02*
G01*
X75461345Y-79353819D01*
X75438000Y-79756000D01*
X75375063Y-80295724D01*
X75078181Y-80494655D01*
X74676000Y-80518000D01*
X74136276Y-80580937D01*
X73937345Y-80877819D01*
X73914000Y-81280000D01*
X73914000Y-82042000D01*
X76962000Y-82042000D01*
X76962000Y-78994000D01*
X76200000Y-78994000D01*
X75660276Y-79056937D01*
G37*
X75660276Y-79056937D02*
X75461345Y-79353819D01*
X75438000Y-79756000D01*
X75375063Y-80295724D01*
X75078181Y-80494655D01*
X74676000Y-80518000D01*
X74136276Y-80580937D01*
X73937345Y-80877819D01*
X73914000Y-81280000D01*
X73914000Y-82042000D01*
X76962000Y-82042000D01*
X76962000Y-78994000D01*
X76200000Y-78994000D01*
X75660276Y-79056937D01*
G36*
X69342000Y-75946000D02*
G01*
X72390000Y-75946000D01*
X72390000Y-77470000D01*
X75438000Y-77470000D01*
X75438000Y-76708000D01*
X75375063Y-76168275D01*
X75078181Y-75969344D01*
X74676000Y-75946000D01*
X74136276Y-75883062D01*
X73937345Y-75586180D01*
X73914000Y-75184000D01*
X73914000Y-74422000D01*
X69342000Y-74422000D01*
X69342000Y-75946000D01*
G37*
X69342000Y-75946000D02*
X72390000Y-75946000D01*
X72390000Y-77470000D01*
X75438000Y-77470000D01*
X75438000Y-76708000D01*
X75375063Y-76168275D01*
X75078181Y-75969344D01*
X74676000Y-75946000D01*
X74136276Y-75883062D01*
X73937345Y-75586180D01*
X73914000Y-75184000D01*
X73914000Y-74422000D01*
X69342000Y-74422000D01*
X69342000Y-75946000D01*
G36*
X81534000Y-115570000D02*
G01*
X86106000Y-115570000D01*
X86106000Y-110998000D01*
X81534000Y-110998000D01*
X81534000Y-115570000D01*
G37*
X81534000Y-115570000D02*
X86106000Y-115570000D01*
X86106000Y-110998000D01*
X81534000Y-110998000D01*
X81534000Y-115570000D01*
G36*
X68040276Y-114108937D02*
G01*
X67841345Y-114405819D01*
X67818000Y-114808000D01*
X67880938Y-115347724D01*
X68177820Y-115546655D01*
X68580000Y-115570000D01*
X69119725Y-115507062D01*
X69318656Y-115210180D01*
X69342000Y-114808000D01*
X69279063Y-114268275D01*
X68982181Y-114069344D01*
X68580000Y-114046000D01*
X68040276Y-114108937D01*
G37*
X68040276Y-114108937D02*
X67841345Y-114405819D01*
X67818000Y-114808000D01*
X67880938Y-115347724D01*
X68177820Y-115546655D01*
X68580000Y-115570000D01*
X69119725Y-115507062D01*
X69318656Y-115210180D01*
X69342000Y-114808000D01*
X69279063Y-114268275D01*
X68982181Y-114069344D01*
X68580000Y-114046000D01*
X68040276Y-114108937D01*
G36*
X61944276Y-104964937D02*
G01*
X61745345Y-105261819D01*
X61722000Y-105664000D01*
X61784938Y-106203724D01*
X62081820Y-106402655D01*
X62484000Y-106426000D01*
X63023725Y-106363062D01*
X63222656Y-106066180D01*
X63246000Y-105664000D01*
X63183063Y-105124275D01*
X62886181Y-104925344D01*
X62484000Y-104902000D01*
X61944276Y-104964937D01*
G37*
X61944276Y-104964937D02*
X61745345Y-105261819D01*
X61722000Y-105664000D01*
X61784938Y-106203724D01*
X62081820Y-106402655D01*
X62484000Y-106426000D01*
X63023725Y-106363062D01*
X63222656Y-106066180D01*
X63246000Y-105664000D01*
X63183063Y-105124275D01*
X62886181Y-104925344D01*
X62484000Y-104902000D01*
X61944276Y-104964937D01*
G36*
X61944276Y-101916937D02*
G01*
X61745345Y-102213819D01*
X61722000Y-102616000D01*
X61784938Y-103155724D01*
X62081820Y-103354655D01*
X62484000Y-103378000D01*
X63023725Y-103315062D01*
X63222656Y-103018180D01*
X63246000Y-102616000D01*
X63183063Y-102076275D01*
X62886181Y-101877344D01*
X62484000Y-101854000D01*
X61944276Y-101916937D01*
G37*
X61944276Y-101916937D02*
X61745345Y-102213819D01*
X61722000Y-102616000D01*
X61784938Y-103155724D01*
X62081820Y-103354655D01*
X62484000Y-103378000D01*
X63023725Y-103315062D01*
X63222656Y-103018180D01*
X63246000Y-102616000D01*
X63183063Y-102076275D01*
X62886181Y-101877344D01*
X62484000Y-101854000D01*
X61944276Y-101916937D01*
G36*
X54324276Y-108012937D02*
G01*
X54125345Y-108309819D01*
X54102000Y-108712000D01*
X54164938Y-109251724D01*
X54461820Y-109450655D01*
X54864000Y-109474000D01*
X55403725Y-109411062D01*
X55602656Y-109114180D01*
X55626000Y-108712000D01*
X55563063Y-108172275D01*
X55266181Y-107973344D01*
X54864000Y-107950000D01*
X54324276Y-108012937D01*
G37*
X54324276Y-108012937D02*
X54125345Y-108309819D01*
X54102000Y-108712000D01*
X54164938Y-109251724D01*
X54461820Y-109450655D01*
X54864000Y-109474000D01*
X55403725Y-109411062D01*
X55602656Y-109114180D01*
X55626000Y-108712000D01*
X55563063Y-108172275D01*
X55266181Y-107973344D01*
X54864000Y-107950000D01*
X54324276Y-108012937D01*
G36*
X76962000Y-94234000D02*
G01*
X80010000Y-94234000D01*
X80010000Y-92710000D01*
X76962000Y-92710000D01*
X76962000Y-94234000D01*
G37*
X76962000Y-94234000D02*
X80010000Y-94234000D01*
X80010000Y-92710000D01*
X76962000Y-92710000D01*
X76962000Y-94234000D01*
G36*
X78486000Y-91186000D02*
G01*
X81534000Y-91186000D01*
X81534000Y-89662000D01*
X78486000Y-89662000D01*
X78486000Y-91186000D01*
G37*
X78486000Y-91186000D02*
X81534000Y-91186000D01*
X81534000Y-89662000D01*
X78486000Y-89662000D01*
X78486000Y-91186000D01*
G36*
X81534000Y-82042000D02*
G01*
X86106000Y-82042000D01*
X86106000Y-77470000D01*
X81534000Y-77470000D01*
X81534000Y-82042000D01*
G37*
X81534000Y-82042000D02*
X86106000Y-82042000D01*
X86106000Y-77470000D01*
X81534000Y-77470000D01*
X81534000Y-82042000D01*
G36*
X48006000Y-82042000D02*
G01*
X52578000Y-82042000D01*
X52578000Y-77470000D01*
X48006000Y-77470000D01*
X48006000Y-82042000D01*
G37*
X48006000Y-82042000D02*
X52578000Y-82042000D01*
X52578000Y-77470000D01*
X48006000Y-77470000D01*
X48006000Y-82042000D01*
%TO.C,REF\u002A\u002A*%
G36*
X73783089Y-126201660D02*
G01*
X73433540Y-126201707D01*
X73270830Y-126201714D01*
X70666429Y-126201715D01*
X70666429Y-126355238D01*
X70650043Y-126542063D01*
X70600588Y-126714367D01*
X70517620Y-126873175D01*
X70400695Y-127019510D01*
X70361136Y-127059032D01*
X70218830Y-127171138D01*
X70061922Y-127252899D01*
X69895072Y-127304353D01*
X69722939Y-127325537D01*
X69550185Y-127316487D01*
X69381470Y-127277242D01*
X69221454Y-127207838D01*
X69074798Y-127108311D01*
X69008932Y-127048265D01*
X68886192Y-126901043D01*
X68796188Y-126739147D01*
X68739706Y-126564427D01*
X68717529Y-126378735D01*
X68717234Y-126360467D01*
X68716072Y-126201720D01*
X68646300Y-126201717D01*
X68584405Y-126210118D01*
X68527865Y-126230556D01*
X68524128Y-126232667D01*
X68511358Y-126239293D01*
X68499632Y-126244454D01*
X68488906Y-126249651D01*
X68479139Y-126256390D01*
X68470288Y-126266171D01*
X68462311Y-126280500D01*
X68455165Y-126300878D01*
X68448808Y-126328808D01*
X68443198Y-126365795D01*
X68438293Y-126413340D01*
X68434049Y-126472947D01*
X68430424Y-126546119D01*
X68427377Y-126634359D01*
X68424864Y-126739170D01*
X68422844Y-126862055D01*
X68421274Y-127004517D01*
X68420112Y-127168060D01*
X68419314Y-127354186D01*
X68418840Y-127564398D01*
X68418646Y-127800200D01*
X68418690Y-128063094D01*
X68418930Y-128354584D01*
X68419323Y-128676172D01*
X68419827Y-129029362D01*
X68420400Y-129415657D01*
X68420999Y-129836560D01*
X68421068Y-129887840D01*
X68421605Y-130311426D01*
X68422061Y-130700230D01*
X68422484Y-131055753D01*
X68422921Y-131379498D01*
X68423422Y-131672966D01*
X68424035Y-131937661D01*
X68424808Y-132175085D01*
X68425789Y-132386740D01*
X68427026Y-132574129D01*
X68428568Y-132738754D01*
X68430463Y-132882117D01*
X68432759Y-133005720D01*
X68435504Y-133111067D01*
X68438747Y-133199659D01*
X68442536Y-133273000D01*
X68446919Y-133332590D01*
X68451945Y-133379933D01*
X68457661Y-133416531D01*
X68464116Y-133443886D01*
X68471359Y-133463502D01*
X68479437Y-133476879D01*
X68488398Y-133485521D01*
X68498292Y-133490930D01*
X68509165Y-133494608D01*
X68521067Y-133498058D01*
X68534046Y-133502782D01*
X68537217Y-133504220D01*
X68547181Y-133507451D01*
X68563859Y-133510420D01*
X68588707Y-133513137D01*
X68623180Y-133515613D01*
X68668736Y-133517858D01*
X68726830Y-133519883D01*
X68798919Y-133521698D01*
X68886458Y-133523315D01*
X68990905Y-133524743D01*
X69113715Y-133525993D01*
X69256345Y-133527076D01*
X69420251Y-133528002D01*
X69606890Y-133528782D01*
X69817716Y-133529426D01*
X70054188Y-133529946D01*
X70317761Y-133530351D01*
X70609890Y-133530652D01*
X70932034Y-133530860D01*
X71285647Y-133530985D01*
X71672186Y-133531038D01*
X72093108Y-133531029D01*
X72229456Y-133531016D01*
X72659716Y-133530947D01*
X73055164Y-133530834D01*
X73417273Y-133530665D01*
X73747517Y-133530430D01*
X74047371Y-133530116D01*
X74318308Y-133529713D01*
X74561800Y-133529207D01*
X74779323Y-133528589D01*
X74972350Y-133527846D01*
X75142354Y-133526968D01*
X75290810Y-133525941D01*
X75419190Y-133524756D01*
X75528969Y-133523400D01*
X75621620Y-133521862D01*
X75698617Y-133520130D01*
X75761434Y-133518194D01*
X75811544Y-133516040D01*
X75850421Y-133513659D01*
X75879538Y-133511037D01*
X75900371Y-133508165D01*
X75914391Y-133505030D01*
X75922034Y-133502159D01*
X75935618Y-133496430D01*
X75948090Y-133492206D01*
X75959498Y-133487985D01*
X75969889Y-133482268D01*
X75979309Y-133473555D01*
X75987808Y-133460345D01*
X75995430Y-133441137D01*
X76002225Y-133414433D01*
X76008238Y-133378730D01*
X76013517Y-133332530D01*
X76018110Y-133274332D01*
X76022064Y-133202635D01*
X76025425Y-133115940D01*
X76028241Y-133012746D01*
X76030560Y-132891553D01*
X76032428Y-132750860D01*
X76032916Y-132696857D01*
X75548704Y-132696857D01*
X73837256Y-132696857D01*
X73870187Y-132646964D01*
X73902947Y-132595693D01*
X73930689Y-132546869D01*
X73953807Y-132497076D01*
X73972697Y-132442898D01*
X73987751Y-132380916D01*
X73999367Y-132307715D01*
X74007936Y-132219878D01*
X74013856Y-132113988D01*
X74017519Y-131986628D01*
X74019321Y-131834381D01*
X74019656Y-131653832D01*
X74018919Y-131441562D01*
X74018501Y-131362755D01*
X74013786Y-130517911D01*
X73478572Y-131246557D01*
X73326946Y-131453265D01*
X73195581Y-131633260D01*
X73083057Y-131788925D01*
X72987957Y-131922647D01*
X72908862Y-132036809D01*
X72844353Y-132133797D01*
X72793012Y-132215994D01*
X72753420Y-132285786D01*
X72724160Y-132345558D01*
X72703812Y-132397693D01*
X72690958Y-132444576D01*
X72684181Y-132488593D01*
X72682060Y-132532127D01*
X72683179Y-132577564D01*
X72683464Y-132583275D01*
X72689357Y-132696933D01*
X70813771Y-132696857D01*
X70953278Y-132556189D01*
X70991135Y-132517715D01*
X71027047Y-132480279D01*
X71062593Y-132441814D01*
X71099347Y-132400258D01*
X71138886Y-132353545D01*
X71182786Y-132299610D01*
X71232623Y-132236390D01*
X71289972Y-132161818D01*
X71356411Y-132073832D01*
X71433515Y-131970365D01*
X71522861Y-131849354D01*
X71626024Y-131708734D01*
X71744580Y-131546440D01*
X71880105Y-131360407D01*
X72034177Y-131148571D01*
X72160462Y-130974804D01*
X72318954Y-130756501D01*
X72457216Y-130565629D01*
X72576499Y-130400374D01*
X72678057Y-130258926D01*
X72763141Y-130139471D01*
X72833005Y-130040198D01*
X72888900Y-129959295D01*
X72932080Y-129894949D01*
X72963797Y-129845347D01*
X72985302Y-129808679D01*
X72997850Y-129783132D01*
X73002692Y-129766893D01*
X73001237Y-129758355D01*
X72983599Y-129735635D01*
X72945466Y-129687543D01*
X72889138Y-129616938D01*
X72816916Y-129526678D01*
X72731101Y-129419621D01*
X72633994Y-129298627D01*
X72527896Y-129166554D01*
X72415109Y-129026260D01*
X72297932Y-128880603D01*
X72178667Y-128732444D01*
X72113067Y-128651000D01*
X70484314Y-128651000D01*
X70416621Y-128773465D01*
X70348929Y-128895929D01*
X70348929Y-132451929D01*
X70416621Y-132574393D01*
X70484314Y-132696857D01*
X69683559Y-132696857D01*
X69492398Y-132696802D01*
X69334501Y-132696551D01*
X69206848Y-132695979D01*
X69106419Y-132694959D01*
X69030193Y-132693365D01*
X68975148Y-132691070D01*
X68938264Y-132687950D01*
X68916521Y-132683877D01*
X68906898Y-132678725D01*
X68906373Y-132672367D01*
X68911926Y-132664679D01*
X68911984Y-132664615D01*
X68934860Y-132631524D01*
X68965151Y-132577719D01*
X68991903Y-132524008D01*
X69042643Y-132415643D01*
X69047818Y-130533322D01*
X69052993Y-128651000D01*
X70484314Y-128651000D01*
X72113067Y-128651000D01*
X72059615Y-128584639D01*
X71943077Y-128440047D01*
X71831354Y-128301528D01*
X71726746Y-128171939D01*
X71631556Y-128054140D01*
X71548083Y-127950988D01*
X71478629Y-127865343D01*
X71425494Y-127800062D01*
X71394285Y-127762000D01*
X71273097Y-127619670D01*
X71156507Y-127491230D01*
X71048603Y-127380886D01*
X70953470Y-127292841D01*
X70885957Y-127238862D01*
X70806127Y-127181429D01*
X72642108Y-127181429D01*
X72641592Y-127289165D01*
X72646724Y-127368372D01*
X72666015Y-127441805D01*
X72695877Y-127511415D01*
X72715288Y-127550741D01*
X72736159Y-127589707D01*
X72760396Y-127630901D01*
X72789906Y-127676908D01*
X72826594Y-127730317D01*
X72872368Y-127793714D01*
X72929135Y-127869685D01*
X72998800Y-127960817D01*
X73083270Y-128069698D01*
X73184453Y-128198914D01*
X73304253Y-128351052D01*
X73444579Y-128528698D01*
X73460429Y-128548742D01*
X74013786Y-129248508D01*
X74019143Y-128473504D01*
X74020221Y-128241368D01*
X74019992Y-128044846D01*
X74018443Y-127883292D01*
X74015563Y-127756056D01*
X74011341Y-127662492D01*
X74005766Y-127601952D01*
X74003893Y-127590468D01*
X73974495Y-127469499D01*
X73935978Y-127360446D01*
X73892026Y-127272763D01*
X73865621Y-127235574D01*
X73820060Y-127181429D01*
X74684530Y-127181429D01*
X74890745Y-127181605D01*
X75063188Y-127182179D01*
X75204373Y-127183217D01*
X75316812Y-127184787D01*
X75403017Y-127186954D01*
X75465502Y-127189788D01*
X75506779Y-127193353D01*
X75529360Y-127197718D01*
X75535759Y-127202949D01*
X75535317Y-127204107D01*
X75516991Y-127231769D01*
X75486396Y-127275615D01*
X75470567Y-127297791D01*
X75454202Y-127319920D01*
X75439492Y-127339709D01*
X75426344Y-127359106D01*
X75414667Y-127380058D01*
X75404368Y-127404512D01*
X75395354Y-127434416D01*
X75387532Y-127471717D01*
X75380809Y-127518363D01*
X75375094Y-127576301D01*
X75370293Y-127647479D01*
X75366315Y-127733844D01*
X75363065Y-127837344D01*
X75360452Y-127959925D01*
X75358383Y-128103537D01*
X75356766Y-128270125D01*
X75355507Y-128461637D01*
X75354515Y-128680022D01*
X75353696Y-128927226D01*
X75352958Y-129205196D01*
X75352209Y-129515881D01*
X75351508Y-129801300D01*
X75350847Y-130119492D01*
X75350503Y-130423077D01*
X75350468Y-130710115D01*
X75350732Y-130978669D01*
X75351285Y-131226798D01*
X75352120Y-131452563D01*
X75353227Y-131654026D01*
X75354596Y-131829246D01*
X75356219Y-131976286D01*
X75358087Y-132093206D01*
X75360189Y-132178067D01*
X75362518Y-132228929D01*
X75362959Y-132234304D01*
X75379008Y-132357613D01*
X75404064Y-132456644D01*
X75442221Y-132543070D01*
X75497572Y-132628565D01*
X75504496Y-132637893D01*
X75548704Y-132696857D01*
X76032916Y-132696857D01*
X76033892Y-132589168D01*
X76035001Y-132404976D01*
X76035801Y-132196784D01*
X76036339Y-131963091D01*
X76036662Y-131702398D01*
X76036817Y-131413204D01*
X76036854Y-131094009D01*
X76036817Y-130743313D01*
X76036755Y-130359614D01*
X76036715Y-129941414D01*
X76036714Y-129858393D01*
X76036691Y-129435789D01*
X76036612Y-129047981D01*
X76036467Y-128693480D01*
X76036244Y-128370797D01*
X76035931Y-128078442D01*
X76035517Y-127814927D01*
X76034991Y-127578762D01*
X76034340Y-127368458D01*
X76033553Y-127182526D01*
X76032619Y-127019475D01*
X76031526Y-126877818D01*
X76030263Y-126756064D01*
X76028817Y-126652725D01*
X76027179Y-126566311D01*
X76025334Y-126495333D01*
X76023274Y-126438301D01*
X76020985Y-126393727D01*
X76018456Y-126360121D01*
X76015676Y-126335993D01*
X76012633Y-126319856D01*
X76009316Y-126310218D01*
X76009193Y-126309978D01*
X76002360Y-126295255D01*
X75996670Y-126281926D01*
X75990374Y-126269922D01*
X75981728Y-126259173D01*
X75968986Y-126249611D01*
X75950400Y-126241167D01*
X75924226Y-126233771D01*
X75888716Y-126227354D01*
X75842125Y-126221848D01*
X75782707Y-126217183D01*
X75708715Y-126213291D01*
X75618403Y-126210102D01*
X75510025Y-126207547D01*
X75381835Y-126205558D01*
X75232087Y-126204065D01*
X75059034Y-126202998D01*
X74860931Y-126202291D01*
X74636031Y-126201872D01*
X74382588Y-126201673D01*
X74098856Y-126201626D01*
X73783089Y-126201660D01*
G37*
X73783089Y-126201660D02*
X73433540Y-126201707D01*
X73270830Y-126201714D01*
X70666429Y-126201715D01*
X70666429Y-126355238D01*
X70650043Y-126542063D01*
X70600588Y-126714367D01*
X70517620Y-126873175D01*
X70400695Y-127019510D01*
X70361136Y-127059032D01*
X70218830Y-127171138D01*
X70061922Y-127252899D01*
X69895072Y-127304353D01*
X69722939Y-127325537D01*
X69550185Y-127316487D01*
X69381470Y-127277242D01*
X69221454Y-127207838D01*
X69074798Y-127108311D01*
X69008932Y-127048265D01*
X68886192Y-126901043D01*
X68796188Y-126739147D01*
X68739706Y-126564427D01*
X68717529Y-126378735D01*
X68717234Y-126360467D01*
X68716072Y-126201720D01*
X68646300Y-126201717D01*
X68584405Y-126210118D01*
X68527865Y-126230556D01*
X68524128Y-126232667D01*
X68511358Y-126239293D01*
X68499632Y-126244454D01*
X68488906Y-126249651D01*
X68479139Y-126256390D01*
X68470288Y-126266171D01*
X68462311Y-126280500D01*
X68455165Y-126300878D01*
X68448808Y-126328808D01*
X68443198Y-126365795D01*
X68438293Y-126413340D01*
X68434049Y-126472947D01*
X68430424Y-126546119D01*
X68427377Y-126634359D01*
X68424864Y-126739170D01*
X68422844Y-126862055D01*
X68421274Y-127004517D01*
X68420112Y-127168060D01*
X68419314Y-127354186D01*
X68418840Y-127564398D01*
X68418646Y-127800200D01*
X68418690Y-128063094D01*
X68418930Y-128354584D01*
X68419323Y-128676172D01*
X68419827Y-129029362D01*
X68420400Y-129415657D01*
X68420999Y-129836560D01*
X68421068Y-129887840D01*
X68421605Y-130311426D01*
X68422061Y-130700230D01*
X68422484Y-131055753D01*
X68422921Y-131379498D01*
X68423422Y-131672966D01*
X68424035Y-131937661D01*
X68424808Y-132175085D01*
X68425789Y-132386740D01*
X68427026Y-132574129D01*
X68428568Y-132738754D01*
X68430463Y-132882117D01*
X68432759Y-133005720D01*
X68435504Y-133111067D01*
X68438747Y-133199659D01*
X68442536Y-133273000D01*
X68446919Y-133332590D01*
X68451945Y-133379933D01*
X68457661Y-133416531D01*
X68464116Y-133443886D01*
X68471359Y-133463502D01*
X68479437Y-133476879D01*
X68488398Y-133485521D01*
X68498292Y-133490930D01*
X68509165Y-133494608D01*
X68521067Y-133498058D01*
X68534046Y-133502782D01*
X68537217Y-133504220D01*
X68547181Y-133507451D01*
X68563859Y-133510420D01*
X68588707Y-133513137D01*
X68623180Y-133515613D01*
X68668736Y-133517858D01*
X68726830Y-133519883D01*
X68798919Y-133521698D01*
X68886458Y-133523315D01*
X68990905Y-133524743D01*
X69113715Y-133525993D01*
X69256345Y-133527076D01*
X69420251Y-133528002D01*
X69606890Y-133528782D01*
X69817716Y-133529426D01*
X70054188Y-133529946D01*
X70317761Y-133530351D01*
X70609890Y-133530652D01*
X70932034Y-133530860D01*
X71285647Y-133530985D01*
X71672186Y-133531038D01*
X72093108Y-133531029D01*
X72229456Y-133531016D01*
X72659716Y-133530947D01*
X73055164Y-133530834D01*
X73417273Y-133530665D01*
X73747517Y-133530430D01*
X74047371Y-133530116D01*
X74318308Y-133529713D01*
X74561800Y-133529207D01*
X74779323Y-133528589D01*
X74972350Y-133527846D01*
X75142354Y-133526968D01*
X75290810Y-133525941D01*
X75419190Y-133524756D01*
X75528969Y-133523400D01*
X75621620Y-133521862D01*
X75698617Y-133520130D01*
X75761434Y-133518194D01*
X75811544Y-133516040D01*
X75850421Y-133513659D01*
X75879538Y-133511037D01*
X75900371Y-133508165D01*
X75914391Y-133505030D01*
X75922034Y-133502159D01*
X75935618Y-133496430D01*
X75948090Y-133492206D01*
X75959498Y-133487985D01*
X75969889Y-133482268D01*
X75979309Y-133473555D01*
X75987808Y-133460345D01*
X75995430Y-133441137D01*
X76002225Y-133414433D01*
X76008238Y-133378730D01*
X76013517Y-133332530D01*
X76018110Y-133274332D01*
X76022064Y-133202635D01*
X76025425Y-133115940D01*
X76028241Y-133012746D01*
X76030560Y-132891553D01*
X76032428Y-132750860D01*
X76032916Y-132696857D01*
X75548704Y-132696857D01*
X73837256Y-132696857D01*
X73870187Y-132646964D01*
X73902947Y-132595693D01*
X73930689Y-132546869D01*
X73953807Y-132497076D01*
X73972697Y-132442898D01*
X73987751Y-132380916D01*
X73999367Y-132307715D01*
X74007936Y-132219878D01*
X74013856Y-132113988D01*
X74017519Y-131986628D01*
X74019321Y-131834381D01*
X74019656Y-131653832D01*
X74018919Y-131441562D01*
X74018501Y-131362755D01*
X74013786Y-130517911D01*
X73478572Y-131246557D01*
X73326946Y-131453265D01*
X73195581Y-131633260D01*
X73083057Y-131788925D01*
X72987957Y-131922647D01*
X72908862Y-132036809D01*
X72844353Y-132133797D01*
X72793012Y-132215994D01*
X72753420Y-132285786D01*
X72724160Y-132345558D01*
X72703812Y-132397693D01*
X72690958Y-132444576D01*
X72684181Y-132488593D01*
X72682060Y-132532127D01*
X72683179Y-132577564D01*
X72683464Y-132583275D01*
X72689357Y-132696933D01*
X70813771Y-132696857D01*
X70953278Y-132556189D01*
X70991135Y-132517715D01*
X71027047Y-132480279D01*
X71062593Y-132441814D01*
X71099347Y-132400258D01*
X71138886Y-132353545D01*
X71182786Y-132299610D01*
X71232623Y-132236390D01*
X71289972Y-132161818D01*
X71356411Y-132073832D01*
X71433515Y-131970365D01*
X71522861Y-131849354D01*
X71626024Y-131708734D01*
X71744580Y-131546440D01*
X71880105Y-131360407D01*
X72034177Y-131148571D01*
X72160462Y-130974804D01*
X72318954Y-130756501D01*
X72457216Y-130565629D01*
X72576499Y-130400374D01*
X72678057Y-130258926D01*
X72763141Y-130139471D01*
X72833005Y-130040198D01*
X72888900Y-129959295D01*
X72932080Y-129894949D01*
X72963797Y-129845347D01*
X72985302Y-129808679D01*
X72997850Y-129783132D01*
X73002692Y-129766893D01*
X73001237Y-129758355D01*
X72983599Y-129735635D01*
X72945466Y-129687543D01*
X72889138Y-129616938D01*
X72816916Y-129526678D01*
X72731101Y-129419621D01*
X72633994Y-129298627D01*
X72527896Y-129166554D01*
X72415109Y-129026260D01*
X72297932Y-128880603D01*
X72178667Y-128732444D01*
X72113067Y-128651000D01*
X70484314Y-128651000D01*
X70416621Y-128773465D01*
X70348929Y-128895929D01*
X70348929Y-132451929D01*
X70416621Y-132574393D01*
X70484314Y-132696857D01*
X69683559Y-132696857D01*
X69492398Y-132696802D01*
X69334501Y-132696551D01*
X69206848Y-132695979D01*
X69106419Y-132694959D01*
X69030193Y-132693365D01*
X68975148Y-132691070D01*
X68938264Y-132687950D01*
X68916521Y-132683877D01*
X68906898Y-132678725D01*
X68906373Y-132672367D01*
X68911926Y-132664679D01*
X68911984Y-132664615D01*
X68934860Y-132631524D01*
X68965151Y-132577719D01*
X68991903Y-132524008D01*
X69042643Y-132415643D01*
X69047818Y-130533322D01*
X69052993Y-128651000D01*
X70484314Y-128651000D01*
X72113067Y-128651000D01*
X72059615Y-128584639D01*
X71943077Y-128440047D01*
X71831354Y-128301528D01*
X71726746Y-128171939D01*
X71631556Y-128054140D01*
X71548083Y-127950988D01*
X71478629Y-127865343D01*
X71425494Y-127800062D01*
X71394285Y-127762000D01*
X71273097Y-127619670D01*
X71156507Y-127491230D01*
X71048603Y-127380886D01*
X70953470Y-127292841D01*
X70885957Y-127238862D01*
X70806127Y-127181429D01*
X72642108Y-127181429D01*
X72641592Y-127289165D01*
X72646724Y-127368372D01*
X72666015Y-127441805D01*
X72695877Y-127511415D01*
X72715288Y-127550741D01*
X72736159Y-127589707D01*
X72760396Y-127630901D01*
X72789906Y-127676908D01*
X72826594Y-127730317D01*
X72872368Y-127793714D01*
X72929135Y-127869685D01*
X72998800Y-127960817D01*
X73083270Y-128069698D01*
X73184453Y-128198914D01*
X73304253Y-128351052D01*
X73444579Y-128528698D01*
X73460429Y-128548742D01*
X74013786Y-129248508D01*
X74019143Y-128473504D01*
X74020221Y-128241368D01*
X74019992Y-128044846D01*
X74018443Y-127883292D01*
X74015563Y-127756056D01*
X74011341Y-127662492D01*
X74005766Y-127601952D01*
X74003893Y-127590468D01*
X73974495Y-127469499D01*
X73935978Y-127360446D01*
X73892026Y-127272763D01*
X73865621Y-127235574D01*
X73820060Y-127181429D01*
X74684530Y-127181429D01*
X74890745Y-127181605D01*
X75063188Y-127182179D01*
X75204373Y-127183217D01*
X75316812Y-127184787D01*
X75403017Y-127186954D01*
X75465502Y-127189788D01*
X75506779Y-127193353D01*
X75529360Y-127197718D01*
X75535759Y-127202949D01*
X75535317Y-127204107D01*
X75516991Y-127231769D01*
X75486396Y-127275615D01*
X75470567Y-127297791D01*
X75454202Y-127319920D01*
X75439492Y-127339709D01*
X75426344Y-127359106D01*
X75414667Y-127380058D01*
X75404368Y-127404512D01*
X75395354Y-127434416D01*
X75387532Y-127471717D01*
X75380809Y-127518363D01*
X75375094Y-127576301D01*
X75370293Y-127647479D01*
X75366315Y-127733844D01*
X75363065Y-127837344D01*
X75360452Y-127959925D01*
X75358383Y-128103537D01*
X75356766Y-128270125D01*
X75355507Y-128461637D01*
X75354515Y-128680022D01*
X75353696Y-128927226D01*
X75352958Y-129205196D01*
X75352209Y-129515881D01*
X75351508Y-129801300D01*
X75350847Y-130119492D01*
X75350503Y-130423077D01*
X75350468Y-130710115D01*
X75350732Y-130978669D01*
X75351285Y-131226798D01*
X75352120Y-131452563D01*
X75353227Y-131654026D01*
X75354596Y-131829246D01*
X75356219Y-131976286D01*
X75358087Y-132093206D01*
X75360189Y-132178067D01*
X75362518Y-132228929D01*
X75362959Y-132234304D01*
X75379008Y-132357613D01*
X75404064Y-132456644D01*
X75442221Y-132543070D01*
X75497572Y-132628565D01*
X75504496Y-132637893D01*
X75548704Y-132696857D01*
X76032916Y-132696857D01*
X76033892Y-132589168D01*
X76035001Y-132404976D01*
X76035801Y-132196784D01*
X76036339Y-131963091D01*
X76036662Y-131702398D01*
X76036817Y-131413204D01*
X76036854Y-131094009D01*
X76036817Y-130743313D01*
X76036755Y-130359614D01*
X76036715Y-129941414D01*
X76036714Y-129858393D01*
X76036691Y-129435789D01*
X76036612Y-129047981D01*
X76036467Y-128693480D01*
X76036244Y-128370797D01*
X76035931Y-128078442D01*
X76035517Y-127814927D01*
X76034991Y-127578762D01*
X76034340Y-127368458D01*
X76033553Y-127182526D01*
X76032619Y-127019475D01*
X76031526Y-126877818D01*
X76030263Y-126756064D01*
X76028817Y-126652725D01*
X76027179Y-126566311D01*
X76025334Y-126495333D01*
X76023274Y-126438301D01*
X76020985Y-126393727D01*
X76018456Y-126360121D01*
X76015676Y-126335993D01*
X76012633Y-126319856D01*
X76009316Y-126310218D01*
X76009193Y-126309978D01*
X76002360Y-126295255D01*
X75996670Y-126281926D01*
X75990374Y-126269922D01*
X75981728Y-126259173D01*
X75968986Y-126249611D01*
X75950400Y-126241167D01*
X75924226Y-126233771D01*
X75888716Y-126227354D01*
X75842125Y-126221848D01*
X75782707Y-126217183D01*
X75708715Y-126213291D01*
X75618403Y-126210102D01*
X75510025Y-126207547D01*
X75381835Y-126205558D01*
X75232087Y-126204065D01*
X75059034Y-126202998D01*
X74860931Y-126202291D01*
X74636031Y-126201872D01*
X74382588Y-126201673D01*
X74098856Y-126201626D01*
X73783089Y-126201660D01*
G36*
X65331622Y-127109231D02*
G01*
X65135981Y-127130649D01*
X64946438Y-127168985D01*
X64755283Y-127226238D01*
X64554804Y-127304409D01*
X64337292Y-127405496D01*
X64298120Y-127425076D01*
X64208228Y-127469362D01*
X64123447Y-127509239D01*
X64052145Y-127540898D01*
X64002690Y-127560532D01*
X63995092Y-127563004D01*
X63922286Y-127584817D01*
X64248197Y-128058944D01*
X64327877Y-128174823D01*
X64400728Y-128280694D01*
X64464270Y-128372962D01*
X64516028Y-128448033D01*
X64553523Y-128502313D01*
X64574277Y-128532207D01*
X64577649Y-128536941D01*
X64591345Y-128527042D01*
X64625057Y-128497285D01*
X64672756Y-128453073D01*
X64699080Y-128428084D01*
X64848228Y-128309456D01*
X65015732Y-128219313D01*
X65160072Y-128169936D01*
X65246717Y-128154429D01*
X65355204Y-128144979D01*
X65472773Y-128141761D01*
X65586666Y-128144951D01*
X65684121Y-128154724D01*
X65723010Y-128162209D01*
X65898288Y-128222512D01*
X66056235Y-128314590D01*
X66196732Y-128438273D01*
X66319665Y-128593393D01*
X66424915Y-128779781D01*
X66512365Y-128997270D01*
X66581900Y-129245692D01*
X66623225Y-129458357D01*
X66634006Y-129552241D01*
X66641352Y-129673524D01*
X66645333Y-129813493D01*
X66646021Y-129963431D01*
X66643486Y-130114622D01*
X66637800Y-130258351D01*
X66629033Y-130385903D01*
X66617256Y-130488562D01*
X66614707Y-130504401D01*
X66558519Y-130759536D01*
X66481964Y-130985342D01*
X66384574Y-131182831D01*
X66265886Y-131353014D01*
X66181637Y-131445022D01*
X66030230Y-131569943D01*
X65864183Y-131662540D01*
X65686299Y-131722309D01*
X65499378Y-131748746D01*
X65306222Y-131741348D01*
X65109631Y-131699611D01*
X64993403Y-131658771D01*
X64832562Y-131576990D01*
X64666787Y-131459678D01*
X64573927Y-131380345D01*
X64521786Y-131334429D01*
X64480820Y-131300742D01*
X64457502Y-131284510D01*
X64454607Y-131284015D01*
X64444200Y-131300601D01*
X64417233Y-131344432D01*
X64376004Y-131411748D01*
X64322811Y-131498794D01*
X64259950Y-131601810D01*
X64189719Y-131717041D01*
X64150628Y-131781231D01*
X63852036Y-132271677D01*
X64224839Y-132455915D01*
X64359631Y-132522093D01*
X64468825Y-132574278D01*
X64559093Y-132615060D01*
X64637112Y-132647033D01*
X64709556Y-132672787D01*
X64783099Y-132694914D01*
X64864416Y-132716007D01*
X64942357Y-132734530D01*
X65011634Y-132748863D01*
X65084083Y-132759694D01*
X65166958Y-132767626D01*
X65267512Y-132773258D01*
X65392997Y-132777192D01*
X65477572Y-132778891D01*
X65598246Y-132780050D01*
X65713958Y-132779465D01*
X65817049Y-132777304D01*
X65899862Y-132773732D01*
X65954740Y-132768917D01*
X65957992Y-132768437D01*
X66242957Y-132706786D01*
X66510558Y-132613285D01*
X66760703Y-132487993D01*
X66993296Y-132330974D01*
X67208243Y-132142289D01*
X67405450Y-131922000D01*
X67548273Y-131726214D01*
X67700320Y-131469949D01*
X67823227Y-131199317D01*
X67917590Y-130912149D01*
X67984001Y-130606276D01*
X68023056Y-130279528D01*
X68035360Y-129947739D01*
X68025241Y-129626779D01*
X67993439Y-129330646D01*
X67938946Y-129054345D01*
X67860750Y-128792881D01*
X67757841Y-128541258D01*
X67745553Y-128515190D01*
X67610180Y-128271507D01*
X67443911Y-128039618D01*
X67251459Y-127824323D01*
X67037534Y-127630422D01*
X66806845Y-127462715D01*
X66591891Y-127339696D01*
X66374742Y-127243345D01*
X66157132Y-127173551D01*
X65930638Y-127128413D01*
X65686834Y-127106031D01*
X65541072Y-127102731D01*
X65331622Y-127109231D01*
G37*
X65331622Y-127109231D02*
X65135981Y-127130649D01*
X64946438Y-127168985D01*
X64755283Y-127226238D01*
X64554804Y-127304409D01*
X64337292Y-127405496D01*
X64298120Y-127425076D01*
X64208228Y-127469362D01*
X64123447Y-127509239D01*
X64052145Y-127540898D01*
X64002690Y-127560532D01*
X63995092Y-127563004D01*
X63922286Y-127584817D01*
X64248197Y-128058944D01*
X64327877Y-128174823D01*
X64400728Y-128280694D01*
X64464270Y-128372962D01*
X64516028Y-128448033D01*
X64553523Y-128502313D01*
X64574277Y-128532207D01*
X64577649Y-128536941D01*
X64591345Y-128527042D01*
X64625057Y-128497285D01*
X64672756Y-128453073D01*
X64699080Y-128428084D01*
X64848228Y-128309456D01*
X65015732Y-128219313D01*
X65160072Y-128169936D01*
X65246717Y-128154429D01*
X65355204Y-128144979D01*
X65472773Y-128141761D01*
X65586666Y-128144951D01*
X65684121Y-128154724D01*
X65723010Y-128162209D01*
X65898288Y-128222512D01*
X66056235Y-128314590D01*
X66196732Y-128438273D01*
X66319665Y-128593393D01*
X66424915Y-128779781D01*
X66512365Y-128997270D01*
X66581900Y-129245692D01*
X66623225Y-129458357D01*
X66634006Y-129552241D01*
X66641352Y-129673524D01*
X66645333Y-129813493D01*
X66646021Y-129963431D01*
X66643486Y-130114622D01*
X66637800Y-130258351D01*
X66629033Y-130385903D01*
X66617256Y-130488562D01*
X66614707Y-130504401D01*
X66558519Y-130759536D01*
X66481964Y-130985342D01*
X66384574Y-131182831D01*
X66265886Y-131353014D01*
X66181637Y-131445022D01*
X66030230Y-131569943D01*
X65864183Y-131662540D01*
X65686299Y-131722309D01*
X65499378Y-131748746D01*
X65306222Y-131741348D01*
X65109631Y-131699611D01*
X64993403Y-131658771D01*
X64832562Y-131576990D01*
X64666787Y-131459678D01*
X64573927Y-131380345D01*
X64521786Y-131334429D01*
X64480820Y-131300742D01*
X64457502Y-131284510D01*
X64454607Y-131284015D01*
X64444200Y-131300601D01*
X64417233Y-131344432D01*
X64376004Y-131411748D01*
X64322811Y-131498794D01*
X64259950Y-131601810D01*
X64189719Y-131717041D01*
X64150628Y-131781231D01*
X63852036Y-132271677D01*
X64224839Y-132455915D01*
X64359631Y-132522093D01*
X64468825Y-132574278D01*
X64559093Y-132615060D01*
X64637112Y-132647033D01*
X64709556Y-132672787D01*
X64783099Y-132694914D01*
X64864416Y-132716007D01*
X64942357Y-132734530D01*
X65011634Y-132748863D01*
X65084083Y-132759694D01*
X65166958Y-132767626D01*
X65267512Y-132773258D01*
X65392997Y-132777192D01*
X65477572Y-132778891D01*
X65598246Y-132780050D01*
X65713958Y-132779465D01*
X65817049Y-132777304D01*
X65899862Y-132773732D01*
X65954740Y-132768917D01*
X65957992Y-132768437D01*
X66242957Y-132706786D01*
X66510558Y-132613285D01*
X66760703Y-132487993D01*
X66993296Y-132330974D01*
X67208243Y-132142289D01*
X67405450Y-131922000D01*
X67548273Y-131726214D01*
X67700320Y-131469949D01*
X67823227Y-131199317D01*
X67917590Y-130912149D01*
X67984001Y-130606276D01*
X68023056Y-130279528D01*
X68035360Y-129947739D01*
X68025241Y-129626779D01*
X67993439Y-129330646D01*
X67938946Y-129054345D01*
X67860750Y-128792881D01*
X67757841Y-128541258D01*
X67745553Y-128515190D01*
X67610180Y-128271507D01*
X67443911Y-128039618D01*
X67251459Y-127824323D01*
X67037534Y-127630422D01*
X66806845Y-127462715D01*
X66591891Y-127339696D01*
X66374742Y-127243345D01*
X66157132Y-127173551D01*
X65930638Y-127128413D01*
X65686834Y-127106031D01*
X65541072Y-127102731D01*
X65331622Y-127109231D01*
G36*
X61727368Y-128567730D02*
G01*
X61637477Y-128574535D01*
X61380285Y-128608753D01*
X61152515Y-128663331D01*
X60953057Y-128739020D01*
X60780803Y-128836570D01*
X60634641Y-128956732D01*
X60513464Y-129100258D01*
X60416161Y-129267898D01*
X60345109Y-129449286D01*
X60327073Y-129507146D01*
X60311368Y-129561329D01*
X60297808Y-129614752D01*
X60286208Y-129670333D01*
X60276383Y-129730988D01*
X60268147Y-129799635D01*
X60261316Y-129879190D01*
X60255705Y-129972572D01*
X60251128Y-130082696D01*
X60247400Y-130212481D01*
X60244335Y-130364842D01*
X60241750Y-130542698D01*
X60239458Y-130748965D01*
X60237275Y-130986561D01*
X60235714Y-131172857D01*
X60225215Y-132451929D01*
X60157179Y-132575018D01*
X60124962Y-132634317D01*
X60100988Y-132680377D01*
X60089550Y-132704893D01*
X60089143Y-132706553D01*
X60106625Y-132708454D01*
X60156426Y-132710205D01*
X60234579Y-132711758D01*
X60337118Y-132713062D01*
X60460078Y-132714070D01*
X60599490Y-132714731D01*
X60751389Y-132714997D01*
X60769500Y-132715000D01*
X61449857Y-132715000D01*
X61449857Y-132560786D01*
X61451018Y-132491094D01*
X61454113Y-132437794D01*
X61458568Y-132409217D01*
X61460537Y-132406572D01*
X61478545Y-132417653D01*
X61515607Y-132446736D01*
X61563778Y-132487579D01*
X61564859Y-132488524D01*
X61652765Y-132553971D01*
X61763783Y-132619688D01*
X61885369Y-132679219D01*
X62004979Y-132726109D01*
X62057643Y-132742133D01*
X62162449Y-132762485D01*
X62291050Y-132775472D01*
X62431675Y-132780909D01*
X62572552Y-132778611D01*
X62701907Y-132768392D01*
X62792429Y-132753689D01*
X63014420Y-132688499D01*
X63214271Y-132595594D01*
X63390681Y-132476126D01*
X63542350Y-132331247D01*
X63667976Y-132162110D01*
X63766259Y-131969867D01*
X63808659Y-131853214D01*
X63835232Y-131739833D01*
X63852842Y-131603722D01*
X63860990Y-131457437D01*
X63860722Y-131436151D01*
X62633679Y-131436151D01*
X62623504Y-131544850D01*
X62589622Y-131635185D01*
X62527000Y-131718995D01*
X62502948Y-131743571D01*
X62417449Y-131810011D01*
X62318627Y-131852574D01*
X62200232Y-131873177D01*
X62075555Y-131874694D01*
X61957302Y-131864677D01*
X61866761Y-131845085D01*
X61827440Y-131830370D01*
X61756568Y-131790265D01*
X61681475Y-131733863D01*
X61612962Y-131670561D01*
X61561828Y-131609755D01*
X61548250Y-131587449D01*
X61537695Y-131556212D01*
X61530190Y-131506507D01*
X61525387Y-131433587D01*
X61522935Y-131332703D01*
X61522429Y-131236689D01*
X61522772Y-131124750D01*
X61524157Y-131043809D01*
X61527119Y-130988585D01*
X61532192Y-130953794D01*
X61539910Y-130934154D01*
X61550808Y-130924380D01*
X61554179Y-130922824D01*
X61583471Y-130918029D01*
X61641244Y-130914108D01*
X61719696Y-130911414D01*
X61811026Y-130910299D01*
X61830857Y-130910298D01*
X61952937Y-130912246D01*
X62047251Y-130918041D01*
X62122193Y-130928475D01*
X62184097Y-130943714D01*
X62337651Y-131001784D01*
X62458068Y-131073179D01*
X62546390Y-131159039D01*
X62603661Y-131260507D01*
X62630922Y-131378725D01*
X62633679Y-131436151D01*
X63860722Y-131436151D01*
X63859177Y-131313533D01*
X63846904Y-131184565D01*
X63837330Y-131132460D01*
X63776199Y-130938997D01*
X63683243Y-130760993D01*
X63560217Y-130600155D01*
X63408876Y-130458190D01*
X63230975Y-130336806D01*
X63028268Y-130237709D01*
X62855929Y-130177533D01*
X62740747Y-130145919D01*
X62630577Y-130121354D01*
X62518281Y-130103039D01*
X62396725Y-130090178D01*
X62258771Y-130081972D01*
X62097285Y-130077624D01*
X61951285Y-130076400D01*
X61518355Y-130075215D01*
X61526649Y-129945080D01*
X61550199Y-129803883D01*
X61600297Y-129682518D01*
X61674809Y-129584017D01*
X61771601Y-129511409D01*
X61856829Y-129475979D01*
X61978944Y-129453650D01*
X62124317Y-129450443D01*
X62286133Y-129465177D01*
X62457578Y-129496670D01*
X62631837Y-129543740D01*
X62802096Y-129605203D01*
X62925824Y-129661417D01*
X62985353Y-129690283D01*
X63030758Y-129710443D01*
X63053850Y-129718310D01*
X63055103Y-129718058D01*
X63063071Y-129700437D01*
X63082969Y-129653733D01*
X63112923Y-129582418D01*
X63151061Y-129490969D01*
X63195512Y-129383859D01*
X63240695Y-129274549D01*
X63421333Y-128836740D01*
X63292845Y-128815636D01*
X63237154Y-128805047D01*
X63153436Y-128787263D01*
X63048861Y-128763898D01*
X62930601Y-128736565D01*
X62805828Y-128706881D01*
X62756143Y-128694818D01*
X62541193Y-128644962D01*
X62353005Y-128607584D01*
X62184554Y-128581927D01*
X62028814Y-128567235D01*
X61878760Y-128562755D01*
X61727368Y-128567730D01*
G37*
X61727368Y-128567730D02*
X61637477Y-128574535D01*
X61380285Y-128608753D01*
X61152515Y-128663331D01*
X60953057Y-128739020D01*
X60780803Y-128836570D01*
X60634641Y-128956732D01*
X60513464Y-129100258D01*
X60416161Y-129267898D01*
X60345109Y-129449286D01*
X60327073Y-129507146D01*
X60311368Y-129561329D01*
X60297808Y-129614752D01*
X60286208Y-129670333D01*
X60276383Y-129730988D01*
X60268147Y-129799635D01*
X60261316Y-129879190D01*
X60255705Y-129972572D01*
X60251128Y-130082696D01*
X60247400Y-130212481D01*
X60244335Y-130364842D01*
X60241750Y-130542698D01*
X60239458Y-130748965D01*
X60237275Y-130986561D01*
X60235714Y-131172857D01*
X60225215Y-132451929D01*
X60157179Y-132575018D01*
X60124962Y-132634317D01*
X60100988Y-132680377D01*
X60089550Y-132704893D01*
X60089143Y-132706553D01*
X60106625Y-132708454D01*
X60156426Y-132710205D01*
X60234579Y-132711758D01*
X60337118Y-132713062D01*
X60460078Y-132714070D01*
X60599490Y-132714731D01*
X60751389Y-132714997D01*
X60769500Y-132715000D01*
X61449857Y-132715000D01*
X61449857Y-132560786D01*
X61451018Y-132491094D01*
X61454113Y-132437794D01*
X61458568Y-132409217D01*
X61460537Y-132406572D01*
X61478545Y-132417653D01*
X61515607Y-132446736D01*
X61563778Y-132487579D01*
X61564859Y-132488524D01*
X61652765Y-132553971D01*
X61763783Y-132619688D01*
X61885369Y-132679219D01*
X62004979Y-132726109D01*
X62057643Y-132742133D01*
X62162449Y-132762485D01*
X62291050Y-132775472D01*
X62431675Y-132780909D01*
X62572552Y-132778611D01*
X62701907Y-132768392D01*
X62792429Y-132753689D01*
X63014420Y-132688499D01*
X63214271Y-132595594D01*
X63390681Y-132476126D01*
X63542350Y-132331247D01*
X63667976Y-132162110D01*
X63766259Y-131969867D01*
X63808659Y-131853214D01*
X63835232Y-131739833D01*
X63852842Y-131603722D01*
X63860990Y-131457437D01*
X63860722Y-131436151D01*
X62633679Y-131436151D01*
X62623504Y-131544850D01*
X62589622Y-131635185D01*
X62527000Y-131718995D01*
X62502948Y-131743571D01*
X62417449Y-131810011D01*
X62318627Y-131852574D01*
X62200232Y-131873177D01*
X62075555Y-131874694D01*
X61957302Y-131864677D01*
X61866761Y-131845085D01*
X61827440Y-131830370D01*
X61756568Y-131790265D01*
X61681475Y-131733863D01*
X61612962Y-131670561D01*
X61561828Y-131609755D01*
X61548250Y-131587449D01*
X61537695Y-131556212D01*
X61530190Y-131506507D01*
X61525387Y-131433587D01*
X61522935Y-131332703D01*
X61522429Y-131236689D01*
X61522772Y-131124750D01*
X61524157Y-131043809D01*
X61527119Y-130988585D01*
X61532192Y-130953794D01*
X61539910Y-130934154D01*
X61550808Y-130924380D01*
X61554179Y-130922824D01*
X61583471Y-130918029D01*
X61641244Y-130914108D01*
X61719696Y-130911414D01*
X61811026Y-130910299D01*
X61830857Y-130910298D01*
X61952937Y-130912246D01*
X62047251Y-130918041D01*
X62122193Y-130928475D01*
X62184097Y-130943714D01*
X62337651Y-131001784D01*
X62458068Y-131073179D01*
X62546390Y-131159039D01*
X62603661Y-131260507D01*
X62630922Y-131378725D01*
X62633679Y-131436151D01*
X63860722Y-131436151D01*
X63859177Y-131313533D01*
X63846904Y-131184565D01*
X63837330Y-131132460D01*
X63776199Y-130938997D01*
X63683243Y-130760993D01*
X63560217Y-130600155D01*
X63408876Y-130458190D01*
X63230975Y-130336806D01*
X63028268Y-130237709D01*
X62855929Y-130177533D01*
X62740747Y-130145919D01*
X62630577Y-130121354D01*
X62518281Y-130103039D01*
X62396725Y-130090178D01*
X62258771Y-130081972D01*
X62097285Y-130077624D01*
X61951285Y-130076400D01*
X61518355Y-130075215D01*
X61526649Y-129945080D01*
X61550199Y-129803883D01*
X61600297Y-129682518D01*
X61674809Y-129584017D01*
X61771601Y-129511409D01*
X61856829Y-129475979D01*
X61978944Y-129453650D01*
X62124317Y-129450443D01*
X62286133Y-129465177D01*
X62457578Y-129496670D01*
X62631837Y-129543740D01*
X62802096Y-129605203D01*
X62925824Y-129661417D01*
X62985353Y-129690283D01*
X63030758Y-129710443D01*
X63053850Y-129718310D01*
X63055103Y-129718058D01*
X63063071Y-129700437D01*
X63082969Y-129653733D01*
X63112923Y-129582418D01*
X63151061Y-129490969D01*
X63195512Y-129383859D01*
X63240695Y-129274549D01*
X63421333Y-128836740D01*
X63292845Y-128815636D01*
X63237154Y-128805047D01*
X63153436Y-128787263D01*
X63048861Y-128763898D01*
X62930601Y-128736565D01*
X62805828Y-128706881D01*
X62756143Y-128694818D01*
X62541193Y-128644962D01*
X62353005Y-128607584D01*
X62184554Y-128581927D01*
X62028814Y-128567235D01*
X61878760Y-128562755D01*
X61727368Y-128567730D01*
G36*
X56871429Y-126840089D02*
G01*
X56717124Y-126840723D01*
X56664679Y-126841042D01*
X55943500Y-126845786D01*
X55934429Y-129612572D01*
X55933231Y-129987756D01*
X55932168Y-130328417D01*
X55931173Y-130636318D01*
X55930177Y-130913221D01*
X55929112Y-131160888D01*
X55927909Y-131381081D01*
X55926501Y-131575562D01*
X55924818Y-131746094D01*
X55922794Y-131894440D01*
X55920359Y-132022361D01*
X55917446Y-132131620D01*
X55913985Y-132223979D01*
X55909910Y-132301200D01*
X55905151Y-132365046D01*
X55899640Y-132417278D01*
X55893309Y-132459660D01*
X55886090Y-132493953D01*
X55877915Y-132521920D01*
X55868715Y-132545324D01*
X55858423Y-132565925D01*
X55846969Y-132585487D01*
X55834285Y-132605772D01*
X55820305Y-132628543D01*
X55817439Y-132633393D01*
X55769360Y-132715433D01*
X57159072Y-132705929D01*
X57168143Y-132553295D01*
X57173082Y-132480045D01*
X57178229Y-132437696D01*
X57185214Y-132420892D01*
X57195663Y-132424277D01*
X57204429Y-132433960D01*
X57242612Y-132469229D01*
X57304845Y-132514563D01*
X57382359Y-132564546D01*
X57466387Y-132613761D01*
X57548161Y-132656791D01*
X57610948Y-132685101D01*
X57758046Y-132731624D01*
X57926820Y-132764579D01*
X58104809Y-132782707D01*
X58279553Y-132784750D01*
X58438593Y-132769447D01*
X58441212Y-132769009D01*
X58658832Y-132714402D01*
X58862545Y-132627401D01*
X59050387Y-132509876D01*
X59220393Y-132363697D01*
X59370598Y-132190734D01*
X59499036Y-131992857D01*
X59603743Y-131771936D01*
X59660754Y-131608286D01*
X59698349Y-131471375D01*
X59726229Y-131338798D01*
X59745247Y-131202502D01*
X59756255Y-131054433D01*
X59760105Y-130886537D01*
X59758400Y-130749440D01*
X58419641Y-130749440D01*
X58413306Y-130979329D01*
X58393321Y-131177111D01*
X58359073Y-131344539D01*
X58309945Y-131483369D01*
X58245324Y-131595358D01*
X58164595Y-131682259D01*
X58071409Y-131743692D01*
X58022920Y-131766626D01*
X57980866Y-131780375D01*
X57933980Y-131786666D01*
X57870996Y-131787222D01*
X57803143Y-131784773D01*
X57669705Y-131773004D01*
X57564168Y-131749955D01*
X57531000Y-131738410D01*
X57455265Y-131704311D01*
X57375386Y-131661491D01*
X57340500Y-131640057D01*
X57249786Y-131580556D01*
X57249786Y-129694584D01*
X57349572Y-129634771D01*
X57488733Y-129567185D01*
X57630913Y-129527214D01*
X57770910Y-129514622D01*
X57903526Y-129529173D01*
X58023560Y-129570632D01*
X58125812Y-129638763D01*
X58158805Y-129671466D01*
X58238333Y-129778619D01*
X58302701Y-129908327D01*
X58352447Y-130062814D01*
X58388109Y-130244302D01*
X58410225Y-130455015D01*
X58419333Y-130697175D01*
X58419641Y-130749440D01*
X59758400Y-130749440D01*
X59757690Y-130692374D01*
X59742395Y-130393713D01*
X59711642Y-130124325D01*
X59664619Y-129880285D01*
X59600518Y-129657670D01*
X59518528Y-129452556D01*
X59489270Y-129391746D01*
X59371419Y-129193440D01*
X59229004Y-129017212D01*
X59065371Y-128865908D01*
X58883869Y-128742371D01*
X58687847Y-128649447D01*
X58570345Y-128611115D01*
X58454946Y-128588359D01*
X58316093Y-128574820D01*
X58165426Y-128570492D01*
X58014587Y-128575368D01*
X57875215Y-128589444D01*
X57763309Y-128611525D01*
X57630116Y-128654828D01*
X57501021Y-128710511D01*
X57388072Y-128772936D01*
X57327957Y-128815303D01*
X57286490Y-128846807D01*
X57257455Y-128865990D01*
X57250850Y-128868714D01*
X57248802Y-128851163D01*
X57246893Y-128800875D01*
X57245164Y-128721400D01*
X57243659Y-128616286D01*
X57242419Y-128489083D01*
X57241487Y-128343339D01*
X57240905Y-128182603D01*
X57240714Y-128018884D01*
X57240821Y-127809188D01*
X57241342Y-127632396D01*
X57242584Y-127485126D01*
X57244852Y-127363997D01*
X57248450Y-127265627D01*
X57253683Y-127186634D01*
X57260856Y-127123638D01*
X57270274Y-127073255D01*
X57282242Y-127032105D01*
X57297065Y-126996806D01*
X57315048Y-126963977D01*
X57336495Y-126930235D01*
X57339255Y-126926057D01*
X57366917Y-126882356D01*
X57383618Y-126852305D01*
X57385857Y-126845967D01*
X57368357Y-126843967D01*
X57318426Y-126842340D01*
X57239915Y-126841112D01*
X57136677Y-126840311D01*
X57012564Y-126839961D01*
X56871429Y-126840089D01*
G37*
X56871429Y-126840089D02*
X56717124Y-126840723D01*
X56664679Y-126841042D01*
X55943500Y-126845786D01*
X55934429Y-129612572D01*
X55933231Y-129987756D01*
X55932168Y-130328417D01*
X55931173Y-130636318D01*
X55930177Y-130913221D01*
X55929112Y-131160888D01*
X55927909Y-131381081D01*
X55926501Y-131575562D01*
X55924818Y-131746094D01*
X55922794Y-131894440D01*
X55920359Y-132022361D01*
X55917446Y-132131620D01*
X55913985Y-132223979D01*
X55909910Y-132301200D01*
X55905151Y-132365046D01*
X55899640Y-132417278D01*
X55893309Y-132459660D01*
X55886090Y-132493953D01*
X55877915Y-132521920D01*
X55868715Y-132545324D01*
X55858423Y-132565925D01*
X55846969Y-132585487D01*
X55834285Y-132605772D01*
X55820305Y-132628543D01*
X55817439Y-132633393D01*
X55769360Y-132715433D01*
X57159072Y-132705929D01*
X57168143Y-132553295D01*
X57173082Y-132480045D01*
X57178229Y-132437696D01*
X57185214Y-132420892D01*
X57195663Y-132424277D01*
X57204429Y-132433960D01*
X57242612Y-132469229D01*
X57304845Y-132514563D01*
X57382359Y-132564546D01*
X57466387Y-132613761D01*
X57548161Y-132656791D01*
X57610948Y-132685101D01*
X57758046Y-132731624D01*
X57926820Y-132764579D01*
X58104809Y-132782707D01*
X58279553Y-132784750D01*
X58438593Y-132769447D01*
X58441212Y-132769009D01*
X58658832Y-132714402D01*
X58862545Y-132627401D01*
X59050387Y-132509876D01*
X59220393Y-132363697D01*
X59370598Y-132190734D01*
X59499036Y-131992857D01*
X59603743Y-131771936D01*
X59660754Y-131608286D01*
X59698349Y-131471375D01*
X59726229Y-131338798D01*
X59745247Y-131202502D01*
X59756255Y-131054433D01*
X59760105Y-130886537D01*
X59758400Y-130749440D01*
X58419641Y-130749440D01*
X58413306Y-130979329D01*
X58393321Y-131177111D01*
X58359073Y-131344539D01*
X58309945Y-131483369D01*
X58245324Y-131595358D01*
X58164595Y-131682259D01*
X58071409Y-131743692D01*
X58022920Y-131766626D01*
X57980866Y-131780375D01*
X57933980Y-131786666D01*
X57870996Y-131787222D01*
X57803143Y-131784773D01*
X57669705Y-131773004D01*
X57564168Y-131749955D01*
X57531000Y-131738410D01*
X57455265Y-131704311D01*
X57375386Y-131661491D01*
X57340500Y-131640057D01*
X57249786Y-131580556D01*
X57249786Y-129694584D01*
X57349572Y-129634771D01*
X57488733Y-129567185D01*
X57630913Y-129527214D01*
X57770910Y-129514622D01*
X57903526Y-129529173D01*
X58023560Y-129570632D01*
X58125812Y-129638763D01*
X58158805Y-129671466D01*
X58238333Y-129778619D01*
X58302701Y-129908327D01*
X58352447Y-130062814D01*
X58388109Y-130244302D01*
X58410225Y-130455015D01*
X58419333Y-130697175D01*
X58419641Y-130749440D01*
X59758400Y-130749440D01*
X59757690Y-130692374D01*
X59742395Y-130393713D01*
X59711642Y-130124325D01*
X59664619Y-129880285D01*
X59600518Y-129657670D01*
X59518528Y-129452556D01*
X59489270Y-129391746D01*
X59371419Y-129193440D01*
X59229004Y-129017212D01*
X59065371Y-128865908D01*
X58883869Y-128742371D01*
X58687847Y-128649447D01*
X58570345Y-128611115D01*
X58454946Y-128588359D01*
X58316093Y-128574820D01*
X58165426Y-128570492D01*
X58014587Y-128575368D01*
X57875215Y-128589444D01*
X57763309Y-128611525D01*
X57630116Y-128654828D01*
X57501021Y-128710511D01*
X57388072Y-128772936D01*
X57327957Y-128815303D01*
X57286490Y-128846807D01*
X57257455Y-128865990D01*
X57250850Y-128868714D01*
X57248802Y-128851163D01*
X57246893Y-128800875D01*
X57245164Y-128721400D01*
X57243659Y-128616286D01*
X57242419Y-128489083D01*
X57241487Y-128343339D01*
X57240905Y-128182603D01*
X57240714Y-128018884D01*
X57240821Y-127809188D01*
X57241342Y-127632396D01*
X57242584Y-127485126D01*
X57244852Y-127363997D01*
X57248450Y-127265627D01*
X57253683Y-127186634D01*
X57260856Y-127123638D01*
X57270274Y-127073255D01*
X57282242Y-127032105D01*
X57297065Y-126996806D01*
X57315048Y-126963977D01*
X57336495Y-126930235D01*
X57339255Y-126926057D01*
X57366917Y-126882356D01*
X57383618Y-126852305D01*
X57385857Y-126845967D01*
X57368357Y-126843967D01*
X57318426Y-126842340D01*
X57239915Y-126841112D01*
X57136677Y-126840311D01*
X57012564Y-126839961D01*
X56871429Y-126840089D01*
G36*
X69515318Y-125623933D02*
G01*
X69379071Y-125671172D01*
X69252221Y-125745527D01*
X69138933Y-125846987D01*
X69043372Y-125975543D01*
X69000446Y-126056572D01*
X68963295Y-126169908D01*
X68945288Y-126300751D01*
X68947283Y-126435265D01*
X68969423Y-126557158D01*
X69029936Y-126706107D01*
X69117686Y-126835309D01*
X69228212Y-126942223D01*
X69357054Y-127024306D01*
X69499753Y-127079016D01*
X69651849Y-127103810D01*
X69808881Y-127096147D01*
X69886286Y-127079772D01*
X70037141Y-127021089D01*
X70171125Y-126931543D01*
X70285006Y-126813893D01*
X70375552Y-126670902D01*
X70383212Y-126655286D01*
X70409694Y-126596686D01*
X70426322Y-126547334D01*
X70435350Y-126495270D01*
X70439032Y-126428539D01*
X70439643Y-126355929D01*
X70438633Y-126268691D01*
X70434072Y-126205624D01*
X70423666Y-126154636D01*
X70405121Y-126103633D01*
X70382230Y-126053313D01*
X70296846Y-125910470D01*
X70191699Y-125794810D01*
X70070955Y-125706325D01*
X69938779Y-125645005D01*
X69799337Y-125610839D01*
X69656795Y-125603818D01*
X69515318Y-125623933D01*
G37*
X69515318Y-125623933D02*
X69379071Y-125671172D01*
X69252221Y-125745527D01*
X69138933Y-125846987D01*
X69043372Y-125975543D01*
X69000446Y-126056572D01*
X68963295Y-126169908D01*
X68945288Y-126300751D01*
X68947283Y-126435265D01*
X68969423Y-126557158D01*
X69029936Y-126706107D01*
X69117686Y-126835309D01*
X69228212Y-126942223D01*
X69357054Y-127024306D01*
X69499753Y-127079016D01*
X69651849Y-127103810D01*
X69808881Y-127096147D01*
X69886286Y-127079772D01*
X70037141Y-127021089D01*
X70171125Y-126931543D01*
X70285006Y-126813893D01*
X70375552Y-126670902D01*
X70383212Y-126655286D01*
X70409694Y-126596686D01*
X70426322Y-126547334D01*
X70435350Y-126495270D01*
X70439032Y-126428539D01*
X70439643Y-126355929D01*
X70438633Y-126268691D01*
X70434072Y-126205624D01*
X70423666Y-126154636D01*
X70405121Y-126103633D01*
X70382230Y-126053313D01*
X70296846Y-125910470D01*
X70191699Y-125794810D01*
X70070955Y-125706325D01*
X69938779Y-125645005D01*
X69799337Y-125610839D01*
X69656795Y-125603818D01*
X69515318Y-125623933D01*
G36*
X57445141Y-134153688D02*
G01*
X57403365Y-134183301D01*
X57366475Y-134220192D01*
X57366475Y-134632162D01*
X57366571Y-134754486D01*
X57367028Y-134850398D01*
X57368097Y-134923544D01*
X57370029Y-134977570D01*
X57373077Y-135016123D01*
X57377491Y-135042848D01*
X57383524Y-135061394D01*
X57391426Y-135075405D01*
X57397625Y-135083733D01*
X57438539Y-135116449D01*
X57485518Y-135120000D01*
X57528456Y-135099937D01*
X57542644Y-135088092D01*
X57552128Y-135072358D01*
X57557849Y-135047022D01*
X57560747Y-135006370D01*
X57561762Y-134944688D01*
X57561859Y-134897038D01*
X57561859Y-134717535D01*
X58223161Y-134717535D01*
X58223161Y-134880833D01*
X58223845Y-134955505D01*
X58226581Y-135006824D01*
X58232396Y-135041477D01*
X58242316Y-135066155D01*
X58254311Y-135083733D01*
X58295454Y-135116357D01*
X58341983Y-135120220D01*
X58386527Y-135097032D01*
X58398688Y-135084876D01*
X58407277Y-135068761D01*
X58412942Y-135043660D01*
X58416331Y-135004544D01*
X58418092Y-134946386D01*
X58418872Y-134864158D01*
X58418964Y-134845286D01*
X58419608Y-134690357D01*
X58419940Y-134562674D01*
X58419832Y-134459427D01*
X58419155Y-134377803D01*
X58417782Y-134314992D01*
X58415584Y-134268181D01*
X58412434Y-134234559D01*
X58408202Y-134211315D01*
X58402762Y-134195636D01*
X58395985Y-134184711D01*
X58388486Y-134176470D01*
X58346067Y-134150107D01*
X58301828Y-134153688D01*
X58260052Y-134183301D01*
X58243147Y-134202407D01*
X58232371Y-134223511D01*
X58226359Y-134253568D01*
X58223744Y-134299533D01*
X58223161Y-134368360D01*
X58223161Y-134522150D01*
X57561859Y-134522150D01*
X57561859Y-134364339D01*
X57561184Y-134291636D01*
X57558474Y-134242545D01*
X57552699Y-134210636D01*
X57542831Y-134189478D01*
X57531800Y-134176470D01*
X57489381Y-134150107D01*
X57445141Y-134153688D01*
G37*
X57445141Y-134153688D02*
X57403365Y-134183301D01*
X57366475Y-134220192D01*
X57366475Y-134632162D01*
X57366571Y-134754486D01*
X57367028Y-134850398D01*
X57368097Y-134923544D01*
X57370029Y-134977570D01*
X57373077Y-135016123D01*
X57377491Y-135042848D01*
X57383524Y-135061394D01*
X57391426Y-135075405D01*
X57397625Y-135083733D01*
X57438539Y-135116449D01*
X57485518Y-135120000D01*
X57528456Y-135099937D01*
X57542644Y-135088092D01*
X57552128Y-135072358D01*
X57557849Y-135047022D01*
X57560747Y-135006370D01*
X57561762Y-134944688D01*
X57561859Y-134897038D01*
X57561859Y-134717535D01*
X58223161Y-134717535D01*
X58223161Y-134880833D01*
X58223845Y-134955505D01*
X58226581Y-135006824D01*
X58232396Y-135041477D01*
X58242316Y-135066155D01*
X58254311Y-135083733D01*
X58295454Y-135116357D01*
X58341983Y-135120220D01*
X58386527Y-135097032D01*
X58398688Y-135084876D01*
X58407277Y-135068761D01*
X58412942Y-135043660D01*
X58416331Y-135004544D01*
X58418092Y-134946386D01*
X58418872Y-134864158D01*
X58418964Y-134845286D01*
X58419608Y-134690357D01*
X58419940Y-134562674D01*
X58419832Y-134459427D01*
X58419155Y-134377803D01*
X58417782Y-134314992D01*
X58415584Y-134268181D01*
X58412434Y-134234559D01*
X58408202Y-134211315D01*
X58402762Y-134195636D01*
X58395985Y-134184711D01*
X58388486Y-134176470D01*
X58346067Y-134150107D01*
X58301828Y-134153688D01*
X58260052Y-134183301D01*
X58243147Y-134202407D01*
X58232371Y-134223511D01*
X58226359Y-134253568D01*
X58223744Y-134299533D01*
X58223161Y-134368360D01*
X58223161Y-134522150D01*
X57561859Y-134522150D01*
X57561859Y-134364339D01*
X57561184Y-134291636D01*
X57558474Y-134242545D01*
X57552699Y-134210636D01*
X57542831Y-134189478D01*
X57531800Y-134176470D01*
X57489381Y-134150107D01*
X57445141Y-134153688D01*
G36*
X59130323Y-134146539D02*
G01*
X59025535Y-134147043D01*
X58944201Y-134148096D01*
X58883020Y-134149876D01*
X58838689Y-134152557D01*
X58807906Y-134156314D01*
X58787369Y-134161325D01*
X58773775Y-134167763D01*
X58767197Y-134172712D01*
X58733056Y-134216029D01*
X58728926Y-134261003D01*
X58750024Y-134301860D01*
X58763821Y-134318186D01*
X58778668Y-134329318D01*
X58800185Y-134336250D01*
X58833992Y-134339977D01*
X58885708Y-134341494D01*
X58960953Y-134341794D01*
X58975731Y-134341795D01*
X59170025Y-134341795D01*
X59170025Y-134702505D01*
X59170153Y-134816201D01*
X59170734Y-134903685D01*
X59172064Y-134968802D01*
X59174440Y-135015398D01*
X59178156Y-135047319D01*
X59183508Y-135068412D01*
X59190793Y-135082523D01*
X59200084Y-135093274D01*
X59243929Y-135119696D01*
X59289700Y-135117614D01*
X59331210Y-135087469D01*
X59334259Y-135083733D01*
X59344188Y-135069610D01*
X59351752Y-135053086D01*
X59357271Y-135030146D01*
X59361067Y-134996773D01*
X59363458Y-134948955D01*
X59364766Y-134882674D01*
X59365309Y-134793918D01*
X59365409Y-134692963D01*
X59365409Y-134341795D01*
X59550950Y-134341795D01*
X59630573Y-134341256D01*
X59685696Y-134339157D01*
X59721868Y-134334771D01*
X59744638Y-134327376D01*
X59759553Y-134316245D01*
X59761364Y-134314310D01*
X59783142Y-134270057D01*
X59781216Y-134220029D01*
X59756179Y-134176470D01*
X59746496Y-134168020D01*
X59734012Y-134161321D01*
X59715397Y-134156169D01*
X59687323Y-134152361D01*
X59646459Y-134149697D01*
X59589478Y-134147972D01*
X59513048Y-134146984D01*
X59413843Y-134146532D01*
X59288531Y-134146412D01*
X59261867Y-134146410D01*
X59130323Y-134146539D01*
G37*
X59130323Y-134146539D02*
X59025535Y-134147043D01*
X58944201Y-134148096D01*
X58883020Y-134149876D01*
X58838689Y-134152557D01*
X58807906Y-134156314D01*
X58787369Y-134161325D01*
X58773775Y-134167763D01*
X58767197Y-134172712D01*
X58733056Y-134216029D01*
X58728926Y-134261003D01*
X58750024Y-134301860D01*
X58763821Y-134318186D01*
X58778668Y-134329318D01*
X58800185Y-134336250D01*
X58833992Y-134339977D01*
X58885708Y-134341494D01*
X58960953Y-134341794D01*
X58975731Y-134341795D01*
X59170025Y-134341795D01*
X59170025Y-134702505D01*
X59170153Y-134816201D01*
X59170734Y-134903685D01*
X59172064Y-134968802D01*
X59174440Y-135015398D01*
X59178156Y-135047319D01*
X59183508Y-135068412D01*
X59190793Y-135082523D01*
X59200084Y-135093274D01*
X59243929Y-135119696D01*
X59289700Y-135117614D01*
X59331210Y-135087469D01*
X59334259Y-135083733D01*
X59344188Y-135069610D01*
X59351752Y-135053086D01*
X59357271Y-135030146D01*
X59361067Y-134996773D01*
X59363458Y-134948955D01*
X59364766Y-134882674D01*
X59365309Y-134793918D01*
X59365409Y-134692963D01*
X59365409Y-134341795D01*
X59550950Y-134341795D01*
X59630573Y-134341256D01*
X59685696Y-134339157D01*
X59721868Y-134334771D01*
X59744638Y-134327376D01*
X59759553Y-134316245D01*
X59761364Y-134314310D01*
X59783142Y-134270057D01*
X59781216Y-134220029D01*
X59756179Y-134176470D01*
X59746496Y-134168020D01*
X59734012Y-134161321D01*
X59715397Y-134156169D01*
X59687323Y-134152361D01*
X59646459Y-134149697D01*
X59589478Y-134147972D01*
X59513048Y-134146984D01*
X59413843Y-134146532D01*
X59288531Y-134146412D01*
X59261867Y-134146410D01*
X59130323Y-134146539D01*
G36*
X60161396Y-134155477D02*
G01*
X60129826Y-134175142D01*
X60094344Y-134203873D01*
X60094344Y-134631966D01*
X60094457Y-134757190D01*
X60094941Y-134855847D01*
X60096014Y-134931430D01*
X60097892Y-134987433D01*
X60100794Y-135027347D01*
X60104937Y-135054666D01*
X60110538Y-135072881D01*
X60117815Y-135085486D01*
X60122976Y-135091696D01*
X60164832Y-135118980D01*
X60212495Y-135117867D01*
X60254247Y-135094602D01*
X60289729Y-135065871D01*
X60289729Y-134203873D01*
X60254247Y-134175142D01*
X60220002Y-134154242D01*
X60192037Y-134146410D01*
X60161396Y-134155477D01*
G37*
X60161396Y-134155477D02*
X60129826Y-134175142D01*
X60094344Y-134203873D01*
X60094344Y-134631966D01*
X60094457Y-134757190D01*
X60094941Y-134855847D01*
X60096014Y-134931430D01*
X60097892Y-134987433D01*
X60100794Y-135027347D01*
X60104937Y-135054666D01*
X60110538Y-135072881D01*
X60117815Y-135085486D01*
X60122976Y-135091696D01*
X60164832Y-135118980D01*
X60212495Y-135117867D01*
X60254247Y-135094602D01*
X60289729Y-135065871D01*
X60289729Y-134203873D01*
X60254247Y-134175142D01*
X60220002Y-134154242D01*
X60192037Y-134146410D01*
X60161396Y-134155477D01*
G36*
X60752453Y-134149030D02*
G01*
X60726372Y-134158350D01*
X60725366Y-134158806D01*
X60689948Y-134185834D01*
X60670434Y-134213636D01*
X60666616Y-134226672D01*
X60666805Y-134243992D01*
X60672178Y-134268667D01*
X60683912Y-134303764D01*
X60703187Y-134352353D01*
X60731178Y-134417502D01*
X60769064Y-134502281D01*
X60818022Y-134609759D01*
X60844969Y-134668503D01*
X60893630Y-134773373D01*
X60939310Y-134869814D01*
X60980266Y-134954298D01*
X61014754Y-135023300D01*
X61041031Y-135073294D01*
X61057354Y-135100754D01*
X61060584Y-135104547D01*
X61101911Y-135121280D01*
X61148591Y-135119039D01*
X61186030Y-135098687D01*
X61187556Y-135097032D01*
X61202449Y-135074486D01*
X61227431Y-135030571D01*
X61259421Y-134970940D01*
X61295340Y-134901246D01*
X61308248Y-134875563D01*
X61405686Y-134680397D01*
X61511894Y-134892407D01*
X61549803Y-134965661D01*
X61584973Y-135029190D01*
X61614532Y-135078131D01*
X61635606Y-135107622D01*
X61642748Y-135113876D01*
X61698262Y-135122345D01*
X61744071Y-135104547D01*
X61757546Y-135085525D01*
X61780864Y-135043249D01*
X61812123Y-134981880D01*
X61849420Y-134905576D01*
X61890854Y-134818499D01*
X61934522Y-134724807D01*
X61978522Y-134628661D01*
X62020952Y-134534221D01*
X62059910Y-134445645D01*
X62093493Y-134367096D01*
X62119799Y-134302731D01*
X62136926Y-134256711D01*
X62142971Y-134233197D01*
X62142909Y-134232345D01*
X62128200Y-134202756D01*
X62098798Y-134172620D01*
X62097067Y-134171308D01*
X62060930Y-134150882D01*
X62027506Y-134151080D01*
X62014978Y-134154931D01*
X61999713Y-134163253D01*
X61983502Y-134179625D01*
X61964401Y-134207442D01*
X61940465Y-134250100D01*
X61909749Y-134310995D01*
X61870309Y-134393525D01*
X61834742Y-134469707D01*
X61793823Y-134558014D01*
X61757156Y-134637426D01*
X61726646Y-134703796D01*
X61704198Y-134752975D01*
X61691717Y-134780813D01*
X61689897Y-134785168D01*
X61681710Y-134778049D01*
X61662895Y-134748241D01*
X61635954Y-134700096D01*
X61603392Y-134637963D01*
X61590434Y-134612328D01*
X61546540Y-134525765D01*
X61512689Y-134462725D01*
X61486103Y-134419542D01*
X61464005Y-134392552D01*
X61443616Y-134378088D01*
X61422160Y-134372487D01*
X61408177Y-134371854D01*
X61383512Y-134374040D01*
X61361898Y-134383079D01*
X61340422Y-134402697D01*
X61316170Y-134436617D01*
X61286230Y-134488562D01*
X61247687Y-134562258D01*
X61226422Y-134604180D01*
X61191928Y-134670994D01*
X61161844Y-134726401D01*
X61138823Y-134765727D01*
X61125520Y-134784296D01*
X61123711Y-134785069D01*
X61115120Y-134770455D01*
X61095886Y-134732507D01*
X61067935Y-134675196D01*
X61033193Y-134602496D01*
X60993587Y-134518376D01*
X60974104Y-134476594D01*
X60923420Y-134368763D01*
X60882607Y-134285790D01*
X60849546Y-134224966D01*
X60822119Y-134183585D01*
X60798208Y-134158940D01*
X60775692Y-134148324D01*
X60752453Y-134149030D01*
G37*
X60752453Y-134149030D02*
X60726372Y-134158350D01*
X60725366Y-134158806D01*
X60689948Y-134185834D01*
X60670434Y-134213636D01*
X60666616Y-134226672D01*
X60666805Y-134243992D01*
X60672178Y-134268667D01*
X60683912Y-134303764D01*
X60703187Y-134352353D01*
X60731178Y-134417502D01*
X60769064Y-134502281D01*
X60818022Y-134609759D01*
X60844969Y-134668503D01*
X60893630Y-134773373D01*
X60939310Y-134869814D01*
X60980266Y-134954298D01*
X61014754Y-135023300D01*
X61041031Y-135073294D01*
X61057354Y-135100754D01*
X61060584Y-135104547D01*
X61101911Y-135121280D01*
X61148591Y-135119039D01*
X61186030Y-135098687D01*
X61187556Y-135097032D01*
X61202449Y-135074486D01*
X61227431Y-135030571D01*
X61259421Y-134970940D01*
X61295340Y-134901246D01*
X61308248Y-134875563D01*
X61405686Y-134680397D01*
X61511894Y-134892407D01*
X61549803Y-134965661D01*
X61584973Y-135029190D01*
X61614532Y-135078131D01*
X61635606Y-135107622D01*
X61642748Y-135113876D01*
X61698262Y-135122345D01*
X61744071Y-135104547D01*
X61757546Y-135085525D01*
X61780864Y-135043249D01*
X61812123Y-134981880D01*
X61849420Y-134905576D01*
X61890854Y-134818499D01*
X61934522Y-134724807D01*
X61978522Y-134628661D01*
X62020952Y-134534221D01*
X62059910Y-134445645D01*
X62093493Y-134367096D01*
X62119799Y-134302731D01*
X62136926Y-134256711D01*
X62142971Y-134233197D01*
X62142909Y-134232345D01*
X62128200Y-134202756D01*
X62098798Y-134172620D01*
X62097067Y-134171308D01*
X62060930Y-134150882D01*
X62027506Y-134151080D01*
X62014978Y-134154931D01*
X61999713Y-134163253D01*
X61983502Y-134179625D01*
X61964401Y-134207442D01*
X61940465Y-134250100D01*
X61909749Y-134310995D01*
X61870309Y-134393525D01*
X61834742Y-134469707D01*
X61793823Y-134558014D01*
X61757156Y-134637426D01*
X61726646Y-134703796D01*
X61704198Y-134752975D01*
X61691717Y-134780813D01*
X61689897Y-134785168D01*
X61681710Y-134778049D01*
X61662895Y-134748241D01*
X61635954Y-134700096D01*
X61603392Y-134637963D01*
X61590434Y-134612328D01*
X61546540Y-134525765D01*
X61512689Y-134462725D01*
X61486103Y-134419542D01*
X61464005Y-134392552D01*
X61443616Y-134378088D01*
X61422160Y-134372487D01*
X61408177Y-134371854D01*
X61383512Y-134374040D01*
X61361898Y-134383079D01*
X61340422Y-134402697D01*
X61316170Y-134436617D01*
X61286230Y-134488562D01*
X61247687Y-134562258D01*
X61226422Y-134604180D01*
X61191928Y-134670994D01*
X61161844Y-134726401D01*
X61138823Y-134765727D01*
X61125520Y-134784296D01*
X61123711Y-134785069D01*
X61115120Y-134770455D01*
X61095886Y-134732507D01*
X61067935Y-134675196D01*
X61033193Y-134602496D01*
X60993587Y-134518376D01*
X60974104Y-134476594D01*
X60923420Y-134368763D01*
X60882607Y-134285790D01*
X60849546Y-134224966D01*
X60822119Y-134183585D01*
X60798208Y-134158940D01*
X60775692Y-134148324D01*
X60752453Y-134149030D01*
G36*
X64382217Y-134146687D02*
G01*
X64210499Y-134152493D01*
X64064445Y-134170101D01*
X63941647Y-134200563D01*
X63839697Y-134244935D01*
X63756186Y-134304271D01*
X63688707Y-134379624D01*
X63634851Y-134472050D01*
X63633792Y-134474304D01*
X63601651Y-134557024D01*
X63590199Y-134630284D01*
X63599480Y-134704012D01*
X63629539Y-134788135D01*
X63635239Y-134800937D01*
X63674115Y-134875862D01*
X63717805Y-134933757D01*
X63774194Y-134982972D01*
X63851162Y-135031857D01*
X63855634Y-135034409D01*
X63922637Y-135066595D01*
X63998369Y-135090632D01*
X64087696Y-135107351D01*
X64195485Y-135117579D01*
X64326602Y-135122146D01*
X64372928Y-135122543D01*
X64593524Y-135123334D01*
X64624674Y-135083733D01*
X64633914Y-135070711D01*
X64641122Y-135055504D01*
X64646550Y-135034466D01*
X64650449Y-135003950D01*
X64653071Y-134960311D01*
X64653926Y-134927949D01*
X64445409Y-134927949D01*
X64320418Y-134927949D01*
X64247277Y-134925810D01*
X64172193Y-134920181D01*
X64110570Y-134912243D01*
X64106851Y-134911575D01*
X63997401Y-134882212D01*
X63912506Y-134838097D01*
X63849482Y-134777183D01*
X63805640Y-134697424D01*
X63798017Y-134676284D01*
X63790544Y-134643362D01*
X63793779Y-134610836D01*
X63809521Y-134567564D01*
X63819010Y-134546307D01*
X63850083Y-134489820D01*
X63887521Y-134450191D01*
X63928713Y-134422594D01*
X64011224Y-134386682D01*
X64116821Y-134360668D01*
X64239836Y-134345688D01*
X64328930Y-134342392D01*
X64445409Y-134341795D01*
X64445409Y-134927949D01*
X64653926Y-134927949D01*
X64654668Y-134899900D01*
X64655490Y-134819072D01*
X64655790Y-134714181D01*
X64655824Y-134632162D01*
X64655824Y-134220192D01*
X64618933Y-134183301D01*
X64602560Y-134168348D01*
X64584857Y-134158108D01*
X64560135Y-134151701D01*
X64522706Y-134148247D01*
X64466881Y-134146867D01*
X64386972Y-134146681D01*
X64382217Y-134146687D01*
G37*
X64382217Y-134146687D02*
X64210499Y-134152493D01*
X64064445Y-134170101D01*
X63941647Y-134200563D01*
X63839697Y-134244935D01*
X63756186Y-134304271D01*
X63688707Y-134379624D01*
X63634851Y-134472050D01*
X63633792Y-134474304D01*
X63601651Y-134557024D01*
X63590199Y-134630284D01*
X63599480Y-134704012D01*
X63629539Y-134788135D01*
X63635239Y-134800937D01*
X63674115Y-134875862D01*
X63717805Y-134933757D01*
X63774194Y-134982972D01*
X63851162Y-135031857D01*
X63855634Y-135034409D01*
X63922637Y-135066595D01*
X63998369Y-135090632D01*
X64087696Y-135107351D01*
X64195485Y-135117579D01*
X64326602Y-135122146D01*
X64372928Y-135122543D01*
X64593524Y-135123334D01*
X64624674Y-135083733D01*
X64633914Y-135070711D01*
X64641122Y-135055504D01*
X64646550Y-135034466D01*
X64650449Y-135003950D01*
X64653071Y-134960311D01*
X64653926Y-134927949D01*
X64445409Y-134927949D01*
X64320418Y-134927949D01*
X64247277Y-134925810D01*
X64172193Y-134920181D01*
X64110570Y-134912243D01*
X64106851Y-134911575D01*
X63997401Y-134882212D01*
X63912506Y-134838097D01*
X63849482Y-134777183D01*
X63805640Y-134697424D01*
X63798017Y-134676284D01*
X63790544Y-134643362D01*
X63793779Y-134610836D01*
X63809521Y-134567564D01*
X63819010Y-134546307D01*
X63850083Y-134489820D01*
X63887521Y-134450191D01*
X63928713Y-134422594D01*
X64011224Y-134386682D01*
X64116821Y-134360668D01*
X64239836Y-134345688D01*
X64328930Y-134342392D01*
X64445409Y-134341795D01*
X64445409Y-134927949D01*
X64653926Y-134927949D01*
X64654668Y-134899900D01*
X64655490Y-134819072D01*
X64655790Y-134714181D01*
X64655824Y-134632162D01*
X64655824Y-134220192D01*
X64618933Y-134183301D01*
X64602560Y-134168348D01*
X64584857Y-134158108D01*
X64560135Y-134151701D01*
X64522706Y-134148247D01*
X64466881Y-134146867D01*
X64386972Y-134146681D01*
X64382217Y-134146687D01*
G36*
X65431284Y-134146667D02*
G01*
X65329623Y-134147884D01*
X65251718Y-134150730D01*
X65194419Y-134155874D01*
X65154573Y-134163984D01*
X65129032Y-134175731D01*
X65114643Y-134191782D01*
X65108255Y-134212808D01*
X65106719Y-134239476D01*
X65106711Y-134242626D01*
X65108045Y-134272790D01*
X65114349Y-134296103D01*
X65129078Y-134313506D01*
X65155685Y-134325940D01*
X65197626Y-134334345D01*
X65258354Y-134339665D01*
X65341324Y-134342839D01*
X65449989Y-134344809D01*
X65483295Y-134345245D01*
X65805587Y-134349310D01*
X65810094Y-134435730D01*
X65814602Y-134522150D01*
X65590737Y-134522150D01*
X65503279Y-134522473D01*
X65440831Y-134523837D01*
X65398346Y-134526839D01*
X65370777Y-134532073D01*
X65353078Y-134540135D01*
X65340203Y-134551620D01*
X65340120Y-134551711D01*
X65316770Y-134596471D01*
X65317614Y-134644847D01*
X65342121Y-134686086D01*
X65346971Y-134690325D01*
X65364185Y-134701249D01*
X65387774Y-134708849D01*
X65422993Y-134713697D01*
X65475100Y-134716366D01*
X65549350Y-134717428D01*
X65596838Y-134717535D01*
X65813102Y-134717535D01*
X65813102Y-134927949D01*
X65484780Y-134927949D01*
X65376382Y-134928139D01*
X65294065Y-134928914D01*
X65233851Y-134930584D01*
X65191765Y-134933458D01*
X65163829Y-134937847D01*
X65146066Y-134944059D01*
X65134500Y-134952404D01*
X65131585Y-134955434D01*
X65110064Y-134997434D01*
X65108490Y-135045214D01*
X65126145Y-135086642D01*
X65140115Y-135099937D01*
X65154646Y-135107256D01*
X65177162Y-135112919D01*
X65211224Y-135117123D01*
X65260393Y-135120068D01*
X65328232Y-135121951D01*
X65418302Y-135122970D01*
X65534163Y-135123325D01*
X65560357Y-135123334D01*
X65678161Y-135123256D01*
X65769604Y-135122831D01*
X65838386Y-135121766D01*
X65888204Y-135119769D01*
X65922760Y-135116550D01*
X65945750Y-135111816D01*
X65960874Y-135105277D01*
X65971831Y-135096641D01*
X65977842Y-135090440D01*
X65986890Y-135079457D01*
X65993958Y-135065852D01*
X65999291Y-135046056D01*
X66003132Y-135016502D01*
X66005725Y-134973621D01*
X66007313Y-134913845D01*
X66008139Y-134833607D01*
X66008448Y-134729339D01*
X66008486Y-134641580D01*
X66008392Y-134518608D01*
X66007943Y-134422069D01*
X66006892Y-134348339D01*
X66004990Y-134293790D01*
X66001991Y-134254799D01*
X65997645Y-134227739D01*
X65991706Y-134208984D01*
X65983925Y-134194910D01*
X65977336Y-134186011D01*
X65946186Y-134146410D01*
X65559852Y-134146410D01*
X65431284Y-134146667D01*
G37*
X65431284Y-134146667D02*
X65329623Y-134147884D01*
X65251718Y-134150730D01*
X65194419Y-134155874D01*
X65154573Y-134163984D01*
X65129032Y-134175731D01*
X65114643Y-134191782D01*
X65108255Y-134212808D01*
X65106719Y-134239476D01*
X65106711Y-134242626D01*
X65108045Y-134272790D01*
X65114349Y-134296103D01*
X65129078Y-134313506D01*
X65155685Y-134325940D01*
X65197626Y-134334345D01*
X65258354Y-134339665D01*
X65341324Y-134342839D01*
X65449989Y-134344809D01*
X65483295Y-134345245D01*
X65805587Y-134349310D01*
X65810094Y-134435730D01*
X65814602Y-134522150D01*
X65590737Y-134522150D01*
X65503279Y-134522473D01*
X65440831Y-134523837D01*
X65398346Y-134526839D01*
X65370777Y-134532073D01*
X65353078Y-134540135D01*
X65340203Y-134551620D01*
X65340120Y-134551711D01*
X65316770Y-134596471D01*
X65317614Y-134644847D01*
X65342121Y-134686086D01*
X65346971Y-134690325D01*
X65364185Y-134701249D01*
X65387774Y-134708849D01*
X65422993Y-134713697D01*
X65475100Y-134716366D01*
X65549350Y-134717428D01*
X65596838Y-134717535D01*
X65813102Y-134717535D01*
X65813102Y-134927949D01*
X65484780Y-134927949D01*
X65376382Y-134928139D01*
X65294065Y-134928914D01*
X65233851Y-134930584D01*
X65191765Y-134933458D01*
X65163829Y-134937847D01*
X65146066Y-134944059D01*
X65134500Y-134952404D01*
X65131585Y-134955434D01*
X65110064Y-134997434D01*
X65108490Y-135045214D01*
X65126145Y-135086642D01*
X65140115Y-135099937D01*
X65154646Y-135107256D01*
X65177162Y-135112919D01*
X65211224Y-135117123D01*
X65260393Y-135120068D01*
X65328232Y-135121951D01*
X65418302Y-135122970D01*
X65534163Y-135123325D01*
X65560357Y-135123334D01*
X65678161Y-135123256D01*
X65769604Y-135122831D01*
X65838386Y-135121766D01*
X65888204Y-135119769D01*
X65922760Y-135116550D01*
X65945750Y-135111816D01*
X65960874Y-135105277D01*
X65971831Y-135096641D01*
X65977842Y-135090440D01*
X65986890Y-135079457D01*
X65993958Y-135065852D01*
X65999291Y-135046056D01*
X66003132Y-135016502D01*
X66005725Y-134973621D01*
X66007313Y-134913845D01*
X66008139Y-134833607D01*
X66008448Y-134729339D01*
X66008486Y-134641580D01*
X66008392Y-134518608D01*
X66007943Y-134422069D01*
X66006892Y-134348339D01*
X66004990Y-134293790D01*
X66001991Y-134254799D01*
X65997645Y-134227739D01*
X65991706Y-134208984D01*
X65983925Y-134194910D01*
X65977336Y-134186011D01*
X65946186Y-134146410D01*
X65559852Y-134146410D01*
X65431284Y-134146667D01*
G36*
X67468874Y-134152244D02*
G01*
X67437499Y-134170649D01*
X67396476Y-134200749D01*
X67343678Y-134243960D01*
X67276979Y-134301702D01*
X67194253Y-134375392D01*
X67093374Y-134466448D01*
X66977895Y-134571138D01*
X66737421Y-134789207D01*
X66729906Y-134496508D01*
X66727193Y-134395754D01*
X66724576Y-134320722D01*
X66721474Y-134267084D01*
X66717310Y-134230510D01*
X66711505Y-134206671D01*
X66703478Y-134191238D01*
X66692651Y-134179882D01*
X66686910Y-134175110D01*
X66640937Y-134149877D01*
X66597191Y-134153566D01*
X66562489Y-134175123D01*
X66527007Y-134203835D01*
X66522594Y-134623150D01*
X66521373Y-134746471D01*
X66520751Y-134843348D01*
X66520944Y-134917394D01*
X66522168Y-134972221D01*
X66524638Y-135011443D01*
X66528568Y-135038673D01*
X66534174Y-135057523D01*
X66541672Y-135071605D01*
X66549987Y-135082899D01*
X66567976Y-135103846D01*
X66585875Y-135117731D01*
X66606166Y-135123060D01*
X66631332Y-135118340D01*
X66663854Y-135102077D01*
X66706217Y-135072777D01*
X66760902Y-135028946D01*
X66830391Y-134969091D01*
X66917169Y-134891718D01*
X67015469Y-134802814D01*
X67368664Y-134482435D01*
X67376179Y-134774177D01*
X67378897Y-134874747D01*
X67381521Y-134949604D01*
X67384633Y-135003084D01*
X67388816Y-135039526D01*
X67394651Y-135063268D01*
X67402720Y-135078646D01*
X67413605Y-135090000D01*
X67419175Y-135094626D01*
X67468410Y-135120042D01*
X67514931Y-135116209D01*
X67555443Y-135083733D01*
X67564710Y-135070667D01*
X67571933Y-135055409D01*
X67577366Y-135034296D01*
X67581262Y-135003669D01*
X67583875Y-134959866D01*
X67585461Y-134899227D01*
X67586272Y-134818091D01*
X67586562Y-134712797D01*
X67586593Y-134634872D01*
X67586495Y-134512988D01*
X67586033Y-134417503D01*
X67584951Y-134344755D01*
X67582997Y-134291083D01*
X67579916Y-134252827D01*
X67575454Y-134226327D01*
X67569357Y-134207920D01*
X67561371Y-134193948D01*
X67555443Y-134186011D01*
X67540416Y-134167212D01*
X67526372Y-134153017D01*
X67511184Y-134144846D01*
X67492727Y-134144116D01*
X67468874Y-134152244D01*
G37*
X67468874Y-134152244D02*
X67437499Y-134170649D01*
X67396476Y-134200749D01*
X67343678Y-134243960D01*
X67276979Y-134301702D01*
X67194253Y-134375392D01*
X67093374Y-134466448D01*
X66977895Y-134571138D01*
X66737421Y-134789207D01*
X66729906Y-134496508D01*
X66727193Y-134395754D01*
X66724576Y-134320722D01*
X66721474Y-134267084D01*
X66717310Y-134230510D01*
X66711505Y-134206671D01*
X66703478Y-134191238D01*
X66692651Y-134179882D01*
X66686910Y-134175110D01*
X66640937Y-134149877D01*
X66597191Y-134153566D01*
X66562489Y-134175123D01*
X66527007Y-134203835D01*
X66522594Y-134623150D01*
X66521373Y-134746471D01*
X66520751Y-134843348D01*
X66520944Y-134917394D01*
X66522168Y-134972221D01*
X66524638Y-135011443D01*
X66528568Y-135038673D01*
X66534174Y-135057523D01*
X66541672Y-135071605D01*
X66549987Y-135082899D01*
X66567976Y-135103846D01*
X66585875Y-135117731D01*
X66606166Y-135123060D01*
X66631332Y-135118340D01*
X66663854Y-135102077D01*
X66706217Y-135072777D01*
X66760902Y-135028946D01*
X66830391Y-134969091D01*
X66917169Y-134891718D01*
X67015469Y-134802814D01*
X67368664Y-134482435D01*
X67376179Y-134774177D01*
X67378897Y-134874747D01*
X67381521Y-134949604D01*
X67384633Y-135003084D01*
X67388816Y-135039526D01*
X67394651Y-135063268D01*
X67402720Y-135078646D01*
X67413605Y-135090000D01*
X67419175Y-135094626D01*
X67468410Y-135120042D01*
X67514931Y-135116209D01*
X67555443Y-135083733D01*
X67564710Y-135070667D01*
X67571933Y-135055409D01*
X67577366Y-135034296D01*
X67581262Y-135003669D01*
X67583875Y-134959866D01*
X67585461Y-134899227D01*
X67586272Y-134818091D01*
X67586562Y-134712797D01*
X67586593Y-134634872D01*
X67586495Y-134512988D01*
X67586033Y-134417503D01*
X67584951Y-134344755D01*
X67582997Y-134291083D01*
X67579916Y-134252827D01*
X67575454Y-134226327D01*
X67569357Y-134207920D01*
X67561371Y-134193948D01*
X67555443Y-134186011D01*
X67540416Y-134167212D01*
X67526372Y-134153017D01*
X67511184Y-134144846D01*
X67492727Y-134144116D01*
X67468874Y-134152244D01*
G36*
X68334216Y-134153776D02*
G01*
X68242995Y-134169082D01*
X68172936Y-134192875D01*
X68127358Y-134224204D01*
X68114938Y-134242078D01*
X68102308Y-134283649D01*
X68110807Y-134321256D01*
X68137639Y-134356919D01*
X68179330Y-134373603D01*
X68239824Y-134372248D01*
X68286613Y-134363209D01*
X68390582Y-134345987D01*
X68496834Y-134344351D01*
X68615763Y-134358329D01*
X68648614Y-134364252D01*
X68759199Y-134395431D01*
X68845713Y-134441810D01*
X68907207Y-134502599D01*
X68942732Y-134577008D01*
X68950079Y-134615478D01*
X68945270Y-134693527D01*
X68914220Y-134762581D01*
X68859760Y-134821293D01*
X68784718Y-134868317D01*
X68691924Y-134902307D01*
X68584206Y-134921918D01*
X68464395Y-134925805D01*
X68335319Y-134912620D01*
X68328031Y-134911376D01*
X68276692Y-134901814D01*
X68248226Y-134892578D01*
X68235888Y-134878873D01*
X68232932Y-134855906D01*
X68232865Y-134843743D01*
X68232865Y-134792683D01*
X68324031Y-134792683D01*
X68404536Y-134787168D01*
X68459475Y-134769594D01*
X68491440Y-134738417D01*
X68503026Y-134692094D01*
X68503167Y-134686048D01*
X68496389Y-134646453D01*
X68473145Y-134618181D01*
X68429884Y-134599471D01*
X68363055Y-134588564D01*
X68298324Y-134584554D01*
X68204241Y-134582253D01*
X68135998Y-134585764D01*
X68089455Y-134598719D01*
X68060472Y-134624750D01*
X68044909Y-134667491D01*
X68038625Y-134730574D01*
X68037480Y-134813428D01*
X68039356Y-134905910D01*
X68045000Y-134968818D01*
X68054436Y-135002403D01*
X68056267Y-135005033D01*
X68108079Y-135046998D01*
X68184044Y-135080232D01*
X68279346Y-135104023D01*
X68389170Y-135117663D01*
X68508700Y-135120442D01*
X68633120Y-135111649D01*
X68706297Y-135100849D01*
X68821074Y-135068362D01*
X68927750Y-135015250D01*
X69017065Y-134946319D01*
X69030640Y-134932542D01*
X69074746Y-134874622D01*
X69114543Y-134802840D01*
X69145381Y-134727583D01*
X69162611Y-134659241D01*
X69164688Y-134632993D01*
X69155847Y-134578241D01*
X69132349Y-134510119D01*
X69098703Y-134438414D01*
X69059418Y-134372913D01*
X69024709Y-134329162D01*
X68943557Y-134264083D01*
X68838652Y-134212285D01*
X68713754Y-134174938D01*
X68572621Y-134153217D01*
X68443279Y-134147909D01*
X68334216Y-134153776D01*
G37*
X68334216Y-134153776D02*
X68242995Y-134169082D01*
X68172936Y-134192875D01*
X68127358Y-134224204D01*
X68114938Y-134242078D01*
X68102308Y-134283649D01*
X68110807Y-134321256D01*
X68137639Y-134356919D01*
X68179330Y-134373603D01*
X68239824Y-134372248D01*
X68286613Y-134363209D01*
X68390582Y-134345987D01*
X68496834Y-134344351D01*
X68615763Y-134358329D01*
X68648614Y-134364252D01*
X68759199Y-134395431D01*
X68845713Y-134441810D01*
X68907207Y-134502599D01*
X68942732Y-134577008D01*
X68950079Y-134615478D01*
X68945270Y-134693527D01*
X68914220Y-134762581D01*
X68859760Y-134821293D01*
X68784718Y-134868317D01*
X68691924Y-134902307D01*
X68584206Y-134921918D01*
X68464395Y-134925805D01*
X68335319Y-134912620D01*
X68328031Y-134911376D01*
X68276692Y-134901814D01*
X68248226Y-134892578D01*
X68235888Y-134878873D01*
X68232932Y-134855906D01*
X68232865Y-134843743D01*
X68232865Y-134792683D01*
X68324031Y-134792683D01*
X68404536Y-134787168D01*
X68459475Y-134769594D01*
X68491440Y-134738417D01*
X68503026Y-134692094D01*
X68503167Y-134686048D01*
X68496389Y-134646453D01*
X68473145Y-134618181D01*
X68429884Y-134599471D01*
X68363055Y-134588564D01*
X68298324Y-134584554D01*
X68204241Y-134582253D01*
X68135998Y-134585764D01*
X68089455Y-134598719D01*
X68060472Y-134624750D01*
X68044909Y-134667491D01*
X68038625Y-134730574D01*
X68037480Y-134813428D01*
X68039356Y-134905910D01*
X68045000Y-134968818D01*
X68054436Y-135002403D01*
X68056267Y-135005033D01*
X68108079Y-135046998D01*
X68184044Y-135080232D01*
X68279346Y-135104023D01*
X68389170Y-135117663D01*
X68508700Y-135120442D01*
X68633120Y-135111649D01*
X68706297Y-135100849D01*
X68821074Y-135068362D01*
X68927750Y-135015250D01*
X69017065Y-134946319D01*
X69030640Y-134932542D01*
X69074746Y-134874622D01*
X69114543Y-134802840D01*
X69145381Y-134727583D01*
X69162611Y-134659241D01*
X69164688Y-134632993D01*
X69155847Y-134578241D01*
X69132349Y-134510119D01*
X69098703Y-134438414D01*
X69059418Y-134372913D01*
X69024709Y-134329162D01*
X68943557Y-134264083D01*
X68838652Y-134212285D01*
X68713754Y-134174938D01*
X68572621Y-134153217D01*
X68443279Y-134147909D01*
X68334216Y-134153776D01*
G36*
X69630617Y-134176470D02*
G01*
X69621855Y-134186552D01*
X69614982Y-134199559D01*
X69609769Y-134218975D01*
X69605988Y-134248284D01*
X69603410Y-134290971D01*
X69601807Y-134350519D01*
X69600949Y-134430414D01*
X69600610Y-134534140D01*
X69600557Y-134634872D01*
X69600650Y-134759816D01*
X69601081Y-134858185D01*
X69602077Y-134933465D01*
X69603869Y-134989138D01*
X69606683Y-135028690D01*
X69610750Y-135055605D01*
X69616296Y-135073367D01*
X69623551Y-135085461D01*
X69630617Y-135093274D01*
X69674556Y-135119476D01*
X69721374Y-135117125D01*
X69763263Y-135088548D01*
X69772888Y-135077391D01*
X69780409Y-135064447D01*
X69786088Y-135046136D01*
X69790181Y-135018882D01*
X69792949Y-134979104D01*
X69794650Y-134923226D01*
X69795543Y-134847668D01*
X69795887Y-134748852D01*
X69795942Y-134636978D01*
X69795942Y-134220192D01*
X69759051Y-134183301D01*
X69713579Y-134152264D01*
X69669470Y-134151145D01*
X69630617Y-134176470D01*
G37*
X69630617Y-134176470D02*
X69621855Y-134186552D01*
X69614982Y-134199559D01*
X69609769Y-134218975D01*
X69605988Y-134248284D01*
X69603410Y-134290971D01*
X69601807Y-134350519D01*
X69600949Y-134430414D01*
X69600610Y-134534140D01*
X69600557Y-134634872D01*
X69600650Y-134759816D01*
X69601081Y-134858185D01*
X69602077Y-134933465D01*
X69603869Y-134989138D01*
X69606683Y-135028690D01*
X69610750Y-135055605D01*
X69616296Y-135073367D01*
X69623551Y-135085461D01*
X69630617Y-135093274D01*
X69674556Y-135119476D01*
X69721374Y-135117125D01*
X69763263Y-135088548D01*
X69772888Y-135077391D01*
X69780409Y-135064447D01*
X69786088Y-135046136D01*
X69790181Y-135018882D01*
X69792949Y-134979104D01*
X69794650Y-134923226D01*
X69795543Y-134847668D01*
X69795887Y-134748852D01*
X69795942Y-134636978D01*
X69795942Y-134220192D01*
X69759051Y-134183301D01*
X69713579Y-134152264D01*
X69669470Y-134151145D01*
X69630617Y-134176470D01*
G36*
X70652942Y-134148121D02*
G01*
X70553337Y-134155084D01*
X70460698Y-134165959D01*
X70380412Y-134180338D01*
X70317862Y-134197810D01*
X70278435Y-134217966D01*
X70272383Y-134223899D01*
X70251338Y-134269939D01*
X70257720Y-134317204D01*
X70290361Y-134357642D01*
X70291918Y-134358801D01*
X70311117Y-134371261D01*
X70331159Y-134377813D01*
X70359114Y-134378608D01*
X70402053Y-134373800D01*
X70467045Y-134363539D01*
X70472273Y-134362675D01*
X70569115Y-134350778D01*
X70673598Y-134344909D01*
X70778389Y-134344852D01*
X70876156Y-134350391D01*
X70959566Y-134361309D01*
X71021287Y-134377389D01*
X71025342Y-134379005D01*
X71070118Y-134404093D01*
X71085850Y-134429482D01*
X71073534Y-134454451D01*
X71034169Y-134478280D01*
X70968752Y-134500246D01*
X70878280Y-134519630D01*
X70817954Y-134528962D01*
X70692554Y-134546913D01*
X70592819Y-134563323D01*
X70514500Y-134579612D01*
X70453347Y-134597202D01*
X70405113Y-134617513D01*
X70365549Y-134641967D01*
X70330406Y-134671984D01*
X70302165Y-134701460D01*
X70268662Y-134742531D01*
X70252173Y-134777846D01*
X70247017Y-134821357D01*
X70246830Y-134837292D01*
X70250702Y-134890169D01*
X70266181Y-134929507D01*
X70292969Y-134964424D01*
X70347413Y-135017798D01*
X70408124Y-135058502D01*
X70479612Y-135087864D01*
X70566390Y-135107211D01*
X70672968Y-135117870D01*
X70803857Y-135121169D01*
X70825469Y-135121113D01*
X70912752Y-135119304D01*
X70999313Y-135115193D01*
X71075716Y-135109370D01*
X71132524Y-135102425D01*
X71137118Y-135101628D01*
X71193599Y-135088248D01*
X71241506Y-135071346D01*
X71268627Y-135055895D01*
X71293865Y-135015130D01*
X71295623Y-134967662D01*
X71273866Y-134925359D01*
X71268998Y-134920576D01*
X71248876Y-134906363D01*
X71223712Y-134900240D01*
X71184767Y-134901282D01*
X71137489Y-134906698D01*
X71084659Y-134911537D01*
X71010602Y-134915619D01*
X70924145Y-134918582D01*
X70834117Y-134920061D01*
X70810439Y-134920158D01*
X70720076Y-134919794D01*
X70653943Y-134918040D01*
X70606221Y-134914287D01*
X70571092Y-134907927D01*
X70542736Y-134898351D01*
X70525695Y-134890375D01*
X70488250Y-134868229D01*
X70464375Y-134848172D01*
X70460886Y-134842487D01*
X70468247Y-134819009D01*
X70503241Y-134796281D01*
X70563442Y-134775334D01*
X70646425Y-134757200D01*
X70670874Y-134753161D01*
X70798576Y-134733103D01*
X70900494Y-134716338D01*
X70980560Y-134701647D01*
X71042708Y-134687812D01*
X71090872Y-134673615D01*
X71128986Y-134657837D01*
X71160984Y-134639260D01*
X71190798Y-134616666D01*
X71222364Y-134588837D01*
X71232986Y-134579080D01*
X71270227Y-134542666D01*
X71289941Y-134513816D01*
X71297653Y-134480802D01*
X71298901Y-134439199D01*
X71285169Y-134357615D01*
X71244132Y-134288298D01*
X71176024Y-134231472D01*
X71081081Y-134187361D01*
X71013338Y-134167576D01*
X70939713Y-134154797D01*
X70851515Y-134147568D01*
X70754130Y-134145479D01*
X70652942Y-134148121D01*
G37*
X70652942Y-134148121D02*
X70553337Y-134155084D01*
X70460698Y-134165959D01*
X70380412Y-134180338D01*
X70317862Y-134197810D01*
X70278435Y-134217966D01*
X70272383Y-134223899D01*
X70251338Y-134269939D01*
X70257720Y-134317204D01*
X70290361Y-134357642D01*
X70291918Y-134358801D01*
X70311117Y-134371261D01*
X70331159Y-134377813D01*
X70359114Y-134378608D01*
X70402053Y-134373800D01*
X70467045Y-134363539D01*
X70472273Y-134362675D01*
X70569115Y-134350778D01*
X70673598Y-134344909D01*
X70778389Y-134344852D01*
X70876156Y-134350391D01*
X70959566Y-134361309D01*
X71021287Y-134377389D01*
X71025342Y-134379005D01*
X71070118Y-134404093D01*
X71085850Y-134429482D01*
X71073534Y-134454451D01*
X71034169Y-134478280D01*
X70968752Y-134500246D01*
X70878280Y-134519630D01*
X70817954Y-134528962D01*
X70692554Y-134546913D01*
X70592819Y-134563323D01*
X70514500Y-134579612D01*
X70453347Y-134597202D01*
X70405113Y-134617513D01*
X70365549Y-134641967D01*
X70330406Y-134671984D01*
X70302165Y-134701460D01*
X70268662Y-134742531D01*
X70252173Y-134777846D01*
X70247017Y-134821357D01*
X70246830Y-134837292D01*
X70250702Y-134890169D01*
X70266181Y-134929507D01*
X70292969Y-134964424D01*
X70347413Y-135017798D01*
X70408124Y-135058502D01*
X70479612Y-135087864D01*
X70566390Y-135107211D01*
X70672968Y-135117870D01*
X70803857Y-135121169D01*
X70825469Y-135121113D01*
X70912752Y-135119304D01*
X70999313Y-135115193D01*
X71075716Y-135109370D01*
X71132524Y-135102425D01*
X71137118Y-135101628D01*
X71193599Y-135088248D01*
X71241506Y-135071346D01*
X71268627Y-135055895D01*
X71293865Y-135015130D01*
X71295623Y-134967662D01*
X71273866Y-134925359D01*
X71268998Y-134920576D01*
X71248876Y-134906363D01*
X71223712Y-134900240D01*
X71184767Y-134901282D01*
X71137489Y-134906698D01*
X71084659Y-134911537D01*
X71010602Y-134915619D01*
X70924145Y-134918582D01*
X70834117Y-134920061D01*
X70810439Y-134920158D01*
X70720076Y-134919794D01*
X70653943Y-134918040D01*
X70606221Y-134914287D01*
X70571092Y-134907927D01*
X70542736Y-134898351D01*
X70525695Y-134890375D01*
X70488250Y-134868229D01*
X70464375Y-134848172D01*
X70460886Y-134842487D01*
X70468247Y-134819009D01*
X70503241Y-134796281D01*
X70563442Y-134775334D01*
X70646425Y-134757200D01*
X70670874Y-134753161D01*
X70798576Y-134733103D01*
X70900494Y-134716338D01*
X70980560Y-134701647D01*
X71042708Y-134687812D01*
X71090872Y-134673615D01*
X71128986Y-134657837D01*
X71160984Y-134639260D01*
X71190798Y-134616666D01*
X71222364Y-134588837D01*
X71232986Y-134579080D01*
X71270227Y-134542666D01*
X71289941Y-134513816D01*
X71297653Y-134480802D01*
X71298901Y-134439199D01*
X71285169Y-134357615D01*
X71244132Y-134288298D01*
X71176024Y-134231472D01*
X71081081Y-134187361D01*
X71013338Y-134167576D01*
X70939713Y-134154797D01*
X70851515Y-134147568D01*
X70754130Y-134145479D01*
X70652942Y-134148121D01*
G36*
X72012384Y-134146516D02*
G01*
X71919976Y-134147012D01*
X71850227Y-134148165D01*
X71799437Y-134150244D01*
X71763905Y-134153515D01*
X71739932Y-134158247D01*
X71723818Y-134164707D01*
X71711863Y-134173163D01*
X71707533Y-134177055D01*
X71681205Y-134218404D01*
X71676465Y-134265916D01*
X71693784Y-134308095D01*
X71701793Y-134316620D01*
X71714746Y-134324885D01*
X71735602Y-134331261D01*
X71768230Y-134336059D01*
X71816496Y-134339588D01*
X71884268Y-134342158D01*
X71975414Y-134344081D01*
X72058745Y-134345251D01*
X72388546Y-134349310D01*
X72397560Y-134522150D01*
X72173696Y-134522150D01*
X72076508Y-134522989D01*
X72005357Y-134526496D01*
X71956245Y-134534159D01*
X71925171Y-134547467D01*
X71908138Y-134567905D01*
X71901146Y-134596963D01*
X71900084Y-134623931D01*
X71903384Y-134657021D01*
X71915837Y-134681404D01*
X71941274Y-134698353D01*
X71983525Y-134709143D01*
X72046420Y-134715048D01*
X72133789Y-134717341D01*
X72181475Y-134717535D01*
X72396060Y-134717535D01*
X72396060Y-134927949D01*
X72065409Y-134927949D01*
X71957024Y-134928100D01*
X71874651Y-134928778D01*
X71814243Y-134930320D01*
X71771753Y-134933063D01*
X71743135Y-134937345D01*
X71724342Y-134943503D01*
X71711328Y-134951873D01*
X71704699Y-134958008D01*
X71681961Y-134993813D01*
X71674640Y-135025641D01*
X71685093Y-135064518D01*
X71704699Y-135093274D01*
X71715159Y-135102327D01*
X71728662Y-135109357D01*
X71748840Y-135114618D01*
X71779325Y-135118365D01*
X71823749Y-135120854D01*
X71885745Y-135122339D01*
X71968945Y-135123075D01*
X72076981Y-135123318D01*
X72133043Y-135123334D01*
X72253098Y-135123227D01*
X72346728Y-135122739D01*
X72417563Y-135121613D01*
X72469235Y-135119595D01*
X72505377Y-135116430D01*
X72529622Y-135111863D01*
X72545601Y-135105640D01*
X72556947Y-135097504D01*
X72561386Y-135093274D01*
X72570171Y-135083160D01*
X72577058Y-135070112D01*
X72582275Y-135050634D01*
X72586053Y-135021228D01*
X72588624Y-134978398D01*
X72590218Y-134918648D01*
X72591065Y-134838481D01*
X72591396Y-134734401D01*
X72591445Y-134637492D01*
X72591400Y-134513387D01*
X72591088Y-134415830D01*
X72590242Y-134341310D01*
X72588596Y-134286315D01*
X72585883Y-134247334D01*
X72581837Y-134220857D01*
X72576191Y-134203370D01*
X72568680Y-134191364D01*
X72559036Y-134181327D01*
X72556660Y-134179090D01*
X72545129Y-134169183D01*
X72531732Y-134161512D01*
X72512750Y-134155790D01*
X72484469Y-134151732D01*
X72443172Y-134149052D01*
X72385142Y-134147466D01*
X72306663Y-134146688D01*
X72204020Y-134146432D01*
X72131150Y-134146410D01*
X72012384Y-134146516D01*
G37*
X72012384Y-134146516D02*
X71919976Y-134147012D01*
X71850227Y-134148165D01*
X71799437Y-134150244D01*
X71763905Y-134153515D01*
X71739932Y-134158247D01*
X71723818Y-134164707D01*
X71711863Y-134173163D01*
X71707533Y-134177055D01*
X71681205Y-134218404D01*
X71676465Y-134265916D01*
X71693784Y-134308095D01*
X71701793Y-134316620D01*
X71714746Y-134324885D01*
X71735602Y-134331261D01*
X71768230Y-134336059D01*
X71816496Y-134339588D01*
X71884268Y-134342158D01*
X71975414Y-134344081D01*
X72058745Y-134345251D01*
X72388546Y-134349310D01*
X72397560Y-134522150D01*
X72173696Y-134522150D01*
X72076508Y-134522989D01*
X72005357Y-134526496D01*
X71956245Y-134534159D01*
X71925171Y-134547467D01*
X71908138Y-134567905D01*
X71901146Y-134596963D01*
X71900084Y-134623931D01*
X71903384Y-134657021D01*
X71915837Y-134681404D01*
X71941274Y-134698353D01*
X71983525Y-134709143D01*
X72046420Y-134715048D01*
X72133789Y-134717341D01*
X72181475Y-134717535D01*
X72396060Y-134717535D01*
X72396060Y-134927949D01*
X72065409Y-134927949D01*
X71957024Y-134928100D01*
X71874651Y-134928778D01*
X71814243Y-134930320D01*
X71771753Y-134933063D01*
X71743135Y-134937345D01*
X71724342Y-134943503D01*
X71711328Y-134951873D01*
X71704699Y-134958008D01*
X71681961Y-134993813D01*
X71674640Y-135025641D01*
X71685093Y-135064518D01*
X71704699Y-135093274D01*
X71715159Y-135102327D01*
X71728662Y-135109357D01*
X71748840Y-135114618D01*
X71779325Y-135118365D01*
X71823749Y-135120854D01*
X71885745Y-135122339D01*
X71968945Y-135123075D01*
X72076981Y-135123318D01*
X72133043Y-135123334D01*
X72253098Y-135123227D01*
X72346728Y-135122739D01*
X72417563Y-135121613D01*
X72469235Y-135119595D01*
X72505377Y-135116430D01*
X72529622Y-135111863D01*
X72545601Y-135105640D01*
X72556947Y-135097504D01*
X72561386Y-135093274D01*
X72570171Y-135083160D01*
X72577058Y-135070112D01*
X72582275Y-135050634D01*
X72586053Y-135021228D01*
X72588624Y-134978398D01*
X72590218Y-134918648D01*
X72591065Y-134838481D01*
X72591396Y-134734401D01*
X72591445Y-134637492D01*
X72591400Y-134513387D01*
X72591088Y-134415830D01*
X72590242Y-134341310D01*
X72588596Y-134286315D01*
X72585883Y-134247334D01*
X72581837Y-134220857D01*
X72576191Y-134203370D01*
X72568680Y-134191364D01*
X72559036Y-134181327D01*
X72556660Y-134179090D01*
X72545129Y-134169183D01*
X72531732Y-134161512D01*
X72512750Y-134155790D01*
X72484469Y-134151732D01*
X72443172Y-134149052D01*
X72385142Y-134147466D01*
X72306663Y-134146688D01*
X72204020Y-134146432D01*
X72131150Y-134146410D01*
X72012384Y-134146516D01*
G36*
X73887708Y-134146409D02*
G01*
X73835143Y-134146944D01*
X73681119Y-134150660D01*
X73552125Y-134161699D01*
X73443763Y-134181246D01*
X73351638Y-134210483D01*
X73271353Y-134250597D01*
X73198512Y-134302769D01*
X73172495Y-134325433D01*
X73129337Y-134378462D01*
X73090421Y-134450421D01*
X73060427Y-134530184D01*
X73044035Y-134606625D01*
X73042332Y-134634872D01*
X73053005Y-134713174D01*
X73081607Y-134798705D01*
X73123011Y-134879663D01*
X73172095Y-134944246D01*
X73180067Y-134952038D01*
X73247600Y-135006808D01*
X73321552Y-135049563D01*
X73406188Y-135081423D01*
X73505771Y-135103508D01*
X73624566Y-135116938D01*
X73766834Y-135122834D01*
X73832000Y-135123334D01*
X73914855Y-135122935D01*
X73973123Y-135121266D01*
X74012270Y-135117622D01*
X74037763Y-135111293D01*
X74055068Y-135101574D01*
X74064344Y-135093274D01*
X74073106Y-135083192D01*
X74079979Y-135070185D01*
X74085192Y-135050769D01*
X74088973Y-135021460D01*
X74091551Y-134978773D01*
X74093154Y-134919225D01*
X74094011Y-134839330D01*
X74094351Y-134735605D01*
X74094403Y-134634872D01*
X74094734Y-134500519D01*
X74094662Y-134393192D01*
X74093384Y-134341795D01*
X73899019Y-134341795D01*
X73899019Y-134927949D01*
X73775025Y-134927835D01*
X73700415Y-134925696D01*
X73622272Y-134920183D01*
X73557074Y-134912472D01*
X73555090Y-134912155D01*
X73449717Y-134886678D01*
X73367986Y-134847000D01*
X73305816Y-134790538D01*
X73266314Y-134729406D01*
X73241974Y-134661593D01*
X73243861Y-134597919D01*
X73272109Y-134529665D01*
X73327362Y-134459056D01*
X73403927Y-134406735D01*
X73503449Y-134371763D01*
X73569961Y-134359386D01*
X73645461Y-134350694D01*
X73725479Y-134344404D01*
X73793538Y-134341788D01*
X73797569Y-134341776D01*
X73899019Y-134341795D01*
X74093384Y-134341795D01*
X74092590Y-134309881D01*
X74086915Y-134247579D01*
X74076041Y-134203275D01*
X74058368Y-134173960D01*
X74032297Y-134156625D01*
X73996229Y-134148261D01*
X73948566Y-134145859D01*
X73887708Y-134146409D01*
G37*
X73887708Y-134146409D02*
X73835143Y-134146944D01*
X73681119Y-134150660D01*
X73552125Y-134161699D01*
X73443763Y-134181246D01*
X73351638Y-134210483D01*
X73271353Y-134250597D01*
X73198512Y-134302769D01*
X73172495Y-134325433D01*
X73129337Y-134378462D01*
X73090421Y-134450421D01*
X73060427Y-134530184D01*
X73044035Y-134606625D01*
X73042332Y-134634872D01*
X73053005Y-134713174D01*
X73081607Y-134798705D01*
X73123011Y-134879663D01*
X73172095Y-134944246D01*
X73180067Y-134952038D01*
X73247600Y-135006808D01*
X73321552Y-135049563D01*
X73406188Y-135081423D01*
X73505771Y-135103508D01*
X73624566Y-135116938D01*
X73766834Y-135122834D01*
X73832000Y-135123334D01*
X73914855Y-135122935D01*
X73973123Y-135121266D01*
X74012270Y-135117622D01*
X74037763Y-135111293D01*
X74055068Y-135101574D01*
X74064344Y-135093274D01*
X74073106Y-135083192D01*
X74079979Y-135070185D01*
X74085192Y-135050769D01*
X74088973Y-135021460D01*
X74091551Y-134978773D01*
X74093154Y-134919225D01*
X74094011Y-134839330D01*
X74094351Y-134735605D01*
X74094403Y-134634872D01*
X74094734Y-134500519D01*
X74094662Y-134393192D01*
X74093384Y-134341795D01*
X73899019Y-134341795D01*
X73899019Y-134927949D01*
X73775025Y-134927835D01*
X73700415Y-134925696D01*
X73622272Y-134920183D01*
X73557074Y-134912472D01*
X73555090Y-134912155D01*
X73449717Y-134886678D01*
X73367986Y-134847000D01*
X73305816Y-134790538D01*
X73266314Y-134729406D01*
X73241974Y-134661593D01*
X73243861Y-134597919D01*
X73272109Y-134529665D01*
X73327362Y-134459056D01*
X73403927Y-134406735D01*
X73503449Y-134371763D01*
X73569961Y-134359386D01*
X73645461Y-134350694D01*
X73725479Y-134344404D01*
X73793538Y-134341788D01*
X73797569Y-134341776D01*
X73899019Y-134341795D01*
X74093384Y-134341795D01*
X74092590Y-134309881D01*
X74086915Y-134247579D01*
X74076041Y-134203275D01*
X74058368Y-134173960D01*
X74032297Y-134156625D01*
X73996229Y-134148261D01*
X73948566Y-134145859D01*
X73887708Y-134146409D01*
%TD*%
M02*
