M48
; DRILL file {KiCad 5.1.6} date Sun Nov 22 23:26:21 2020
; FORMAT={-:-/ absolute / inch / decimal}
; #@! TF.CreationDate,2020-11-22T23:26:21-03:00
; #@! TF.GenerationSoftware,Kicad,Pcbnew,5.1.6
; #@! TF.FileFunction,Plated,1,4,PTH
FMAT,2
INCH
T1C0.0118
T2C0.0157
T3C0.0197
T4C0.0236
T5C0.0335
T6C0.0394
T7C0.0551
T8C0.1260
%
G90
G05
T1
X2.94Y-3.21
X2.94Y-3.45
X2.94Y-3.56
X2.95Y-3.04
X3.11Y-3.1
X3.22Y-3.5
X3.241Y-3.471
X3.26Y-3.21
X3.2715Y-3.4725
X3.31Y-3.47
X3.42Y-3.58
X3.44Y-3.4869
X3.45Y-3.54
X3.45Y-3.64
X3.4505Y-3.4614
X3.4804Y-3.6404
X3.5096Y-3.6409
X3.5372Y-3.6397
X3.5563Y-3.6631
X3.57Y-3.54
X3.6504Y-3.3101
T2
X2.955Y-1.97
X2.965Y-2.32
X2.98Y-2.12
X3.02Y-3.915
X3.02Y-4.26
X3.055Y-2.27
X3.0736Y-2.86
X3.145Y-4.26
X3.1698Y-3.4298
X3.17Y-3.735
X3.19Y-2.69
X3.225Y-3.84
X3.265Y-3.655
X3.27Y-2.905
X3.31Y-2.905
X3.31Y-3.505
X3.33Y-3.095
X3.35Y-2.69
X3.385Y-2.8
X3.395Y-2.58
X3.415Y-3.67
X3.447Y-3.088
X3.555Y-2.975
X3.56Y-3.415
X3.563Y-3.373
X3.5641Y-3.3327
X3.59Y-4.2
X3.59Y-4.265
X3.63Y-3.79
X3.655Y-2.975
X3.665Y-2.31
X3.675Y-3.39
X3.675Y-4.01
X3.705Y-3.76
X3.71Y-2.53
X3.71Y-3.24
X3.715Y-2.745
X3.715Y-2.8
X3.715Y-2.86
X3.74Y-3.57
X3.785Y-2.53
X3.795Y-3.555
X3.81Y-3.165
X3.81Y-3.65
X3.82Y-3.255
X3.85Y-3.76
X3.85Y-3.835
X3.89Y-3.76
X3.89Y-3.835
X3.92Y-2.8
X3.92Y-2.89
X3.92Y-3.35
X3.93Y-3.04
X3.93Y-3.76
X3.93Y-3.835
X3.945Y-2.64
X3.9594Y-3.35
X3.99Y-3.235
X4.035Y-2.96
X4.075Y-2.23
X4.09Y-3.565
X4.1Y-2.03
X4.105Y-2.8
X4.105Y-2.89
X4.14Y-3.76
X4.18Y-3.84
X4.23Y-3.55
X4.4Y-2.135
X4.4Y-2.185
X4.4Y-2.23
X4.4Y-2.275
X4.4Y-2.325
T3
X4.1855Y-1.79
X4.2132Y-1.7232
X4.2132Y-1.8568
X4.28Y-1.6955
X4.28Y-1.8845
X4.3468Y-1.7232
X4.3468Y-1.8568
X4.3745Y-1.79
X2.6655Y-1.79
X2.6932Y-1.7232
X2.6932Y-1.8568
X2.76Y-1.6955
X2.76Y-1.8845
X2.8268Y-1.7232
X2.8268Y-1.8568
X2.8545Y-1.79
X4.1855Y-4.18
X4.2132Y-4.1132
X4.2132Y-4.2468
X4.28Y-4.0855
X4.28Y-4.2745
X4.3468Y-4.1132
X4.3468Y-4.2468
X4.3745Y-4.18
X2.6655Y-4.18
X2.6932Y-4.1132
X2.6932Y-4.2468
X2.76Y-4.0855
X2.76Y-4.2745
X2.8268Y-4.1132
X2.8268Y-4.2468
X2.8545Y-4.18
T5
X4.2524Y-3.6516
X4.2524Y-3.8484
T6
X4.34Y-2.56
X4.34Y-2.66
X4.34Y-2.76
X4.34Y-2.86
X2.75Y-2.6
X2.75Y-2.7
X2.75Y-2.8
X2.75Y-2.9
X2.75Y-3.0
X2.75Y-3.1
X2.75Y-3.2
X2.75Y-3.3
X2.75Y-3.4
X2.75Y-3.5
X2.75Y-3.6
X2.75Y-3.7
X2.75Y-3.8
X2.85Y-2.6
X2.85Y-2.7
X2.85Y-2.8
X2.85Y-2.9
X2.85Y-3.0
X2.85Y-3.1
X2.85Y-3.2
X2.85Y-3.3
X2.85Y-3.4
X2.85Y-3.5
X2.85Y-3.6
X2.85Y-3.7
X2.85Y-3.8
X4.24Y-3.01
X4.24Y-3.11
X4.24Y-3.21
X4.24Y-3.31
X4.24Y-3.41
X4.34Y-3.01
X4.34Y-3.11
X4.34Y-3.21
X4.34Y-3.31
X4.34Y-3.41
T7
X3.2939Y-1.7835
X3.2939Y-2.0
X3.4593Y-1.7835
X3.4593Y-2.0
X3.6246Y-1.7835
X3.6246Y-2.0
X3.79Y-1.7835
X3.79Y-2.0
T8
X4.28Y-1.79
X2.76Y-1.79
X4.28Y-4.18
X2.76Y-4.18
T4
G00X4.3449Y-3.6122
M15
G01X4.3725Y-3.6122
M16
G05
G00X4.3725Y-3.8878
M15
G01X4.3449Y-3.8878
M16
G05
T0
M30
