%TF.GenerationSoftware,KiCad,Pcbnew,5.1.6*%
%TF.CreationDate,2020-11-22T23:26:00-03:00*%
%TF.ProjectId,MCU_Comms_Control,4d43555f-436f-46d6-9d73-5f436f6e7472,rev?*%
%TF.SameCoordinates,Original*%
%TF.FileFunction,Copper,L4,Bot*%
%TF.FilePolarity,Positive*%
%FSLAX46Y46*%
G04 Gerber Fmt 4.6, Leading zero omitted, Abs format (unit mm)*
G04 Created by KiCad (PCBNEW 5.1.6) date 2020-11-22 23:26:00*
%MOMM*%
%LPD*%
G01*
G04 APERTURE LIST*
%TA.AperFunction,ComponentPad*%
%ADD10C,0.800000*%
%TD*%
%TA.AperFunction,ComponentPad*%
%ADD11C,6.400000*%
%TD*%
%TA.AperFunction,ComponentPad*%
%ADD12C,1.450000*%
%TD*%
%TA.AperFunction,ComponentPad*%
%ADD13O,1.900000X1.200000*%
%TD*%
%TA.AperFunction,ComponentPad*%
%ADD14O,2.700000X3.300000*%
%TD*%
%TA.AperFunction,ComponentPad*%
%ADD15C,1.700000*%
%TD*%
%TA.AperFunction,ComponentPad*%
%ADD16R,1.700000X1.700000*%
%TD*%
%TA.AperFunction,ComponentPad*%
%ADD17O,1.700000X1.700000*%
%TD*%
%TA.AperFunction,ViaPad*%
%ADD18C,0.800000*%
%TD*%
%TA.AperFunction,ViaPad*%
%ADD19C,0.500000*%
%TD*%
%TA.AperFunction,Conductor*%
%ADD20C,0.203200*%
%TD*%
%TA.AperFunction,Conductor*%
%ADD21C,0.250000*%
%TD*%
%TA.AperFunction,Conductor*%
%ADD22C,0.254000*%
%TD*%
G04 APERTURE END LIST*
D10*
%TO.P,REF\u002A\u002A,1*%
%TO.N,N/C*%
X110409056Y-43768944D03*
X108712000Y-43066000D03*
X107014944Y-43768944D03*
X106312000Y-45466000D03*
X107014944Y-47163056D03*
X108712000Y-47866000D03*
X110409056Y-47163056D03*
X111112000Y-45466000D03*
D11*
X108712000Y-45466000D03*
%TD*%
D10*
%TO.P,REF\u002A\u002A,1*%
%TO.N,N/C*%
X71801056Y-43768944D03*
X70104000Y-43066000D03*
X68406944Y-43768944D03*
X67704000Y-45466000D03*
X68406944Y-47163056D03*
X70104000Y-47866000D03*
X71801056Y-47163056D03*
X72504000Y-45466000D03*
D11*
X70104000Y-45466000D03*
%TD*%
D10*
%TO.P,REF\u002A\u002A,1*%
%TO.N,N/C*%
X110409056Y-104474944D03*
X108712000Y-103772000D03*
X107014944Y-104474944D03*
X106312000Y-106172000D03*
X107014944Y-107869056D03*
X108712000Y-108572000D03*
X110409056Y-107869056D03*
X111112000Y-106172000D03*
D11*
X108712000Y-106172000D03*
%TD*%
D10*
%TO.P,REF\u002A\u002A,1*%
%TO.N,N/C*%
X71801056Y-104474944D03*
X70104000Y-103772000D03*
X68406944Y-104474944D03*
X67704000Y-106172000D03*
X68406944Y-107869056D03*
X70104000Y-108572000D03*
X71801056Y-107869056D03*
X72504000Y-106172000D03*
D11*
X70104000Y-106172000D03*
%TD*%
D12*
%TO.P,J1,6*%
%TO.N,GND*%
X108011500Y-97750000D03*
X108011500Y-92750000D03*
D13*
X110711500Y-98750000D03*
X110711500Y-91750000D03*
%TD*%
%TO.P,J2,1*%
%TO.N,+12V*%
%TA.AperFunction,ComponentPad*%
G36*
G01*
X97616000Y-49400001D02*
X97616000Y-52199999D01*
G75*
G02*
X97365999Y-52450000I-250001J0D01*
G01*
X95166001Y-52450000D01*
G75*
G02*
X94916000Y-52199999I0J250001D01*
G01*
X94916000Y-49400001D01*
G75*
G02*
X95166001Y-49150000I250001J0D01*
G01*
X97365999Y-49150000D01*
G75*
G02*
X97616000Y-49400001I0J-250001D01*
G01*
G37*
%TD.AperFunction*%
D14*
%TO.P,J2,2*%
%TO.N,GND*%
X92066000Y-50800000D03*
%TO.P,J2,3*%
%TO.N,CAN_L*%
X87866000Y-50800000D03*
%TO.P,J2,4*%
%TO.N,CAN_H*%
X83666000Y-50800000D03*
%TO.P,J2,5*%
%TO.N,GND*%
X96266000Y-45300000D03*
%TO.P,J2,6*%
%TO.N,+12V*%
X92066000Y-45300000D03*
%TO.P,J2,7*%
%TO.N,~ERROR*%
X87866000Y-45300000D03*
%TO.P,J2,8*%
%TO.N,GND*%
X83666000Y-45300000D03*
%TD*%
%TO.P,J3,1*%
%TO.N,GND*%
%TA.AperFunction,ComponentPad*%
G36*
G01*
X73240000Y-95920000D02*
X73240000Y-97120000D01*
G75*
G02*
X72990000Y-97370000I-250000J0D01*
G01*
X71790000Y-97370000D01*
G75*
G02*
X71540000Y-97120000I0J250000D01*
G01*
X71540000Y-95920000D01*
G75*
G02*
X71790000Y-95670000I250000J0D01*
G01*
X72990000Y-95670000D01*
G75*
G02*
X73240000Y-95920000I0J-250000D01*
G01*
G37*
%TD.AperFunction*%
D15*
%TO.P,J3,3*%
%TO.N,+12V*%
X72390000Y-93980000D03*
%TO.P,J3,5*%
%TO.N,Net-(J3-Pad5)*%
X72390000Y-91440000D03*
%TO.P,J3,7*%
%TO.N,Net-(J3-Pad7)*%
X72390000Y-88900000D03*
%TO.P,J3,9*%
%TO.N,CURR_U*%
X72390000Y-86360000D03*
%TO.P,J3,11*%
%TO.N,CURR_V*%
X72390000Y-83820000D03*
%TO.P,J3,13*%
%TO.N,CURR_W*%
X72390000Y-81280000D03*
%TO.P,J3,15*%
%TO.N,HALL3*%
X72390000Y-78740000D03*
%TO.P,J3,17*%
%TO.N,HALL2*%
X72390000Y-76200000D03*
%TO.P,J3,19*%
%TO.N,HALL1*%
X72390000Y-73660000D03*
%TO.P,J3,21*%
%TO.N,+5V*%
X72390000Y-71120000D03*
%TO.P,J3,23*%
%TO.N,+12V*%
X72390000Y-68580000D03*
%TO.P,J3,25*%
%TO.N,GND*%
X72390000Y-66040000D03*
%TO.P,J3,2*%
X69850000Y-96520000D03*
%TO.P,J3,4*%
%TO.N,+12V*%
X69850000Y-93980000D03*
%TO.P,J3,6*%
%TO.N,U_H*%
X69850000Y-91440000D03*
%TO.P,J3,8*%
%TO.N,V_H*%
X69850000Y-88900000D03*
%TO.P,J3,10*%
%TO.N,W_H*%
X69850000Y-86360000D03*
%TO.P,J3,12*%
%TO.N,U_L*%
X69850000Y-83820000D03*
%TO.P,J3,14*%
%TO.N,V_L*%
X69850000Y-81280000D03*
%TO.P,J3,16*%
%TO.N,W_L*%
X69850000Y-78740000D03*
%TO.P,J3,18*%
%TO.N,~ERROR*%
X69850000Y-76200000D03*
%TO.P,J3,20*%
%TO.N,ENABLE*%
X69850000Y-73660000D03*
%TO.P,J3,22*%
%TO.N,VBUS_SCALED*%
X69850000Y-71120000D03*
%TO.P,J3,24*%
%TO.N,+12V*%
X69850000Y-68580000D03*
%TO.P,J3,26*%
%TO.N,GND*%
X69850000Y-66040000D03*
%TD*%
D16*
%TO.P,J4,1*%
%TO.N,~RESET*%
X110236000Y-86614000D03*
D17*
%TO.P,J4,2*%
%TO.N,SWCLK*%
X107696000Y-86614000D03*
%TO.P,J4,3*%
%TO.N,SWO*%
X110236000Y-84074000D03*
%TO.P,J4,4*%
%TO.N,SWDIO*%
X107696000Y-84074000D03*
%TO.P,J4,5*%
%TO.N,GND*%
X110236000Y-81534000D03*
%TO.P,J4,6*%
X107696000Y-81534000D03*
%TO.P,J4,7*%
%TO.N,+3V3*%
X110236000Y-78994000D03*
%TO.P,J4,8*%
X107696000Y-78994000D03*
%TO.P,J4,9*%
%TO.N,Net-(D1-Pad2)*%
X110236000Y-76454000D03*
%TO.P,J4,10*%
X107696000Y-76454000D03*
%TD*%
D16*
%TO.P,J5,1*%
%TO.N,GND*%
X110236000Y-65024000D03*
D17*
%TO.P,J5,2*%
%TO.N,MULTI1*%
X110236000Y-67564000D03*
%TO.P,J5,3*%
%TO.N,MULTI0*%
X110236000Y-70104000D03*
%TO.P,J5,4*%
%TO.N,+3V3*%
X110236000Y-72644000D03*
%TD*%
D18*
%TO.N,GND*%
X96774000Y-92710000D03*
X103886000Y-90551000D03*
X99822000Y-95504000D03*
X98806000Y-95504000D03*
X97790000Y-95504000D03*
X94107000Y-95504000D03*
X111760000Y-54229000D03*
X111760000Y-59055000D03*
X111760000Y-56642000D03*
X111760000Y-55499000D03*
X111760000Y-57785000D03*
X103505000Y-56642000D03*
X104140000Y-51562000D03*
X79883000Y-108204000D03*
X76708000Y-108204000D03*
X91186000Y-108331000D03*
X76708000Y-99441000D03*
X99822000Y-97409000D03*
X98806000Y-97409000D03*
X97790000Y-97409000D03*
X81915000Y-97536000D03*
X92202000Y-96266000D03*
X90424000Y-86741000D03*
X93091000Y-58674000D03*
X99568000Y-71120000D03*
X102489000Y-75184000D03*
X104267000Y-73406000D03*
X100203000Y-67056000D03*
X94234000Y-64262000D03*
X82931000Y-92837000D03*
X92837000Y-75565000D03*
X90297000Y-75565000D03*
X84582000Y-78613000D03*
X96774000Y-80391000D03*
X85979000Y-71120000D03*
D19*
X82804000Y-81534000D03*
X74676000Y-81534000D03*
X74676000Y-87630000D03*
X74676000Y-90424000D03*
X78994000Y-78740000D03*
X81788000Y-88900000D03*
D18*
%TO.N,Net-(C1-Pad1)*%
X105156000Y-95504000D03*
X106172000Y-97536000D03*
X99822000Y-77216000D03*
%TO.N,+5V*%
X99568000Y-73406000D03*
%TO.N,+3V3*%
X94996000Y-90678000D03*
X94234000Y-82296000D03*
X91186000Y-106680000D03*
X83058000Y-73787000D03*
X97028000Y-82677000D03*
X96393000Y-90297000D03*
X86741000Y-93218000D03*
X84074000Y-89027000D03*
X85090000Y-68326000D03*
X94361000Y-71120000D03*
X94361000Y-69723000D03*
X94361000Y-72644000D03*
X96139000Y-64262000D03*
X104267000Y-71120000D03*
X75057000Y-50038000D03*
X107442000Y-90170000D03*
X84074000Y-73787000D03*
D19*
X86868000Y-90932000D03*
D18*
%TO.N,Net-(D1-Pad2)*%
X101346000Y-82169000D03*
D19*
%TO.N,CURR_U*%
X82321587Y-88163587D03*
%TO.N,HALL2*%
X87376000Y-88566400D03*
%TO.N,V_H*%
X90330990Y-93041856D03*
%TO.N,U_L*%
X87630000Y-92456000D03*
%TO.N,W_L*%
X89144976Y-92479213D03*
%TO.N,ENABLE*%
X83096221Y-88202127D03*
%TO.N,HALL3*%
X87643492Y-87919523D03*
X74930000Y-77216000D03*
%TO.N,HALL1*%
X87630000Y-89916000D03*
%TO.N,U_H*%
X89844274Y-92447817D03*
%TO.N,W_H*%
X90678000Y-89916000D03*
%TO.N,V_L*%
X88401041Y-92465041D03*
%TO.N,VBUS_SCALED*%
X84074000Y-88138000D03*
D18*
%TO.N,~RESET*%
X87554607Y-78434393D03*
%TO.N,~BOOT*%
X93345000Y-86106000D03*
X93345000Y-101854000D03*
%TO.N,STATUS*%
X75692000Y-53848000D03*
D19*
X92720249Y-84075438D03*
D18*
%TO.N,ERR_OUT*%
X90499393Y-85673393D03*
X77597000Y-57658000D03*
X78070000Y-72644000D03*
%TO.N,DEBUG_LED*%
X90529291Y-84651281D03*
X75311000Y-58928000D03*
%TO.N,CAN_TX*%
X99568000Y-85090000D03*
X81026000Y-68326000D03*
%TO.N,CAN_RX*%
X100568003Y-85090000D03*
X86233000Y-65532000D03*
%TO.N,FLASH_CLK*%
X80518000Y-94869000D03*
X80513347Y-87117347D03*
%TD*%
D20*
%TO.N,Net-(D1-Pad2)*%
X107061000Y-76454000D02*
X107696000Y-76454000D01*
X101346000Y-82169000D02*
X107061000Y-76454000D01*
X107696000Y-76454000D02*
X110236000Y-76454000D01*
D21*
%TO.N,CURR_U*%
X80871553Y-86360000D02*
X72390000Y-86360000D01*
X82321587Y-87810034D02*
X80871553Y-86360000D01*
X82321587Y-88163587D02*
X82321587Y-87810034D01*
D20*
%TO.N,HALL2*%
X87376000Y-88566400D02*
X86185600Y-87376000D01*
X86185600Y-87376000D02*
X84074000Y-87376000D01*
X72898000Y-76200000D02*
X72390000Y-76200000D01*
X84074000Y-87376000D02*
X72898000Y-76200000D01*
%TO.N,V_H*%
X90580989Y-92260754D02*
X89821424Y-91501189D01*
X90580989Y-92791857D02*
X90580989Y-92260754D01*
X90330990Y-93041856D02*
X90580989Y-92791857D01*
X71001601Y-90051601D02*
X69850000Y-88900000D01*
X72942769Y-90051601D02*
X71001601Y-90051601D01*
X74392357Y-91501189D02*
X72942769Y-90051601D01*
X89821424Y-91501189D02*
X74392357Y-91501189D01*
%TO.N,U_L*%
X68698399Y-84971601D02*
X69850000Y-83820000D01*
X68698399Y-97072769D02*
X68698399Y-84971601D01*
X85598000Y-92456000D02*
X80382399Y-97671601D01*
X69297231Y-97671601D02*
X68698399Y-97072769D01*
X80382399Y-97671601D02*
X69297231Y-97671601D01*
X87630000Y-92456000D02*
X85598000Y-92456000D01*
%TO.N,W_L*%
X69850000Y-79575630D02*
X69850000Y-78740000D01*
X67891979Y-81533651D02*
X69850000Y-79575630D01*
X67891979Y-97406799D02*
X67891979Y-81533651D01*
X69224579Y-98739399D02*
X67891979Y-97406799D01*
X89144976Y-92644883D02*
X83050460Y-98739399D01*
X83050460Y-98739399D02*
X69224579Y-98739399D01*
X89144976Y-92479213D02*
X89144976Y-92644883D01*
D21*
%TO.N,ENABLE*%
X83096221Y-87848574D02*
X75162648Y-79915001D01*
X83096221Y-88202127D02*
X83096221Y-87848574D01*
D20*
X68698399Y-76752769D02*
X68698399Y-74811601D01*
X69297231Y-77351601D02*
X68698399Y-76752769D01*
X70402769Y-77351601D02*
X69297231Y-77351601D01*
X68698399Y-74811601D02*
X69850000Y-73660000D01*
X71001601Y-77950433D02*
X70402769Y-77351601D01*
X71001601Y-79292769D02*
X71001601Y-77950433D01*
X71623833Y-79915001D02*
X71001601Y-79292769D01*
X75162648Y-79915001D02*
X71623833Y-79915001D01*
%TO.N,HALL3*%
X87643492Y-87919523D02*
X86560857Y-86836888D01*
X84550888Y-86836888D02*
X74930000Y-77216000D01*
X86560857Y-86836888D02*
X84550888Y-86836888D01*
%TO.N,HALL1*%
X81788000Y-83058000D02*
X72390000Y-73660000D01*
X84836000Y-86106000D02*
X81788000Y-83058000D01*
X86646339Y-86106000D02*
X84836000Y-86106000D01*
X88195093Y-87654754D02*
X86646339Y-86106000D01*
X88195093Y-89350907D02*
X88195093Y-87654754D01*
X87630000Y-89916000D02*
X88195093Y-89350907D01*
%TO.N,U_H*%
X89844274Y-92447817D02*
X89844274Y-92094264D01*
X71001601Y-92591601D02*
X69850000Y-91440000D01*
X72942769Y-92591601D02*
X71001601Y-92591601D01*
X73629971Y-91904399D02*
X72942769Y-92591601D01*
X89654409Y-91904399D02*
X73629971Y-91904399D01*
X89844274Y-92094264D02*
X89654409Y-91904399D01*
%TO.N,W_H*%
X87365231Y-90467601D02*
X90126399Y-90467601D01*
X87078399Y-90180769D02*
X87365231Y-90467601D01*
X75611937Y-90180769D02*
X87078399Y-90180769D01*
X72942769Y-87511601D02*
X75611937Y-90180769D01*
X90126399Y-90467601D02*
X90678000Y-89916000D01*
X71001601Y-87511601D02*
X72942769Y-87511601D01*
X69850000Y-86360000D02*
X71001601Y-87511601D01*
%TO.N,V_L*%
X68295189Y-97239784D02*
X68295189Y-82834811D01*
X68295189Y-82834811D02*
X69850000Y-81280000D01*
X69353405Y-98298000D02*
X68295189Y-97239784D01*
X82921635Y-98298000D02*
X69353405Y-98298000D01*
X88401041Y-92818594D02*
X82921635Y-98298000D01*
X88401041Y-92465041D02*
X88401041Y-92818594D01*
%TO.N,VBUS_SCALED*%
X71001601Y-72271601D02*
X69850000Y-71120000D01*
X71001601Y-76515971D02*
X71001601Y-72271601D01*
X71837231Y-77351601D02*
X71001601Y-76515971D01*
X73287601Y-77351601D02*
X71837231Y-77351601D01*
X84074000Y-88138000D02*
X73287601Y-77351601D01*
%TO.N,~RESET*%
X109084399Y-87765601D02*
X110236000Y-86614000D01*
X100741971Y-87765601D02*
X109084399Y-87765601D01*
X91410763Y-78434393D02*
X100741971Y-87765601D01*
X87554607Y-78434393D02*
X91410763Y-78434393D01*
%TO.N,~BOOT*%
X93345000Y-86106000D02*
X93345000Y-101854000D01*
%TO.N,STATUS*%
X78546399Y-56702399D02*
X75692000Y-53848000D01*
X78546399Y-70418399D02*
X78546399Y-56702399D01*
X92203438Y-84075438D02*
X78546399Y-70418399D01*
X92720249Y-84075438D02*
X92203438Y-84075438D01*
%TO.N,ERR_OUT*%
X77597000Y-72771000D02*
X77597000Y-57658000D01*
X90499393Y-85673393D02*
X77597000Y-72771000D01*
X77943000Y-72771000D02*
X78070000Y-72644000D01*
X77597000Y-72771000D02*
X77943000Y-72771000D01*
%TO.N,DEBUG_LED*%
X75311000Y-72666370D02*
X75311000Y-58928000D01*
X90087231Y-87442601D02*
X75311000Y-72666370D01*
X90760769Y-87442601D02*
X90087231Y-87442601D01*
X91200994Y-87002376D02*
X90760769Y-87442601D01*
X91200994Y-85322984D02*
X91200994Y-87002376D01*
X90529291Y-84651281D02*
X91200994Y-85322984D01*
%TO.N,CAN_TX*%
X88966601Y-76266601D02*
X81026000Y-68326000D01*
X91655971Y-76266601D02*
X88966601Y-76266601D01*
X99568000Y-84178630D02*
X91655971Y-76266601D01*
X99568000Y-85090000D02*
X99568000Y-84178630D01*
%TO.N,CAN_RX*%
X86233000Y-67922630D02*
X86233000Y-65532000D01*
X100568003Y-82257633D02*
X86233000Y-67922630D01*
X100568003Y-85090000D02*
X100568003Y-82257633D01*
D21*
%TO.N,FLASH_CLK*%
X80518000Y-87122000D02*
X80513347Y-87117347D01*
%TD*%
D22*
%TO.N,GND*%
G36*
X106267330Y-42487161D02*
G01*
X105733161Y-43021330D01*
X105313467Y-43649446D01*
X105024377Y-44347372D01*
X104877000Y-45088285D01*
X104877000Y-45843715D01*
X105024377Y-46584628D01*
X105313467Y-47282554D01*
X105733161Y-47910670D01*
X106267330Y-48444839D01*
X106895446Y-48864533D01*
X107593372Y-49153623D01*
X108334285Y-49301000D01*
X109089715Y-49301000D01*
X109830628Y-49153623D01*
X110528554Y-48864533D01*
X111156670Y-48444839D01*
X111690839Y-47910670D01*
X112091001Y-47311786D01*
X112091000Y-91066865D01*
X112024578Y-90966526D01*
X111853225Y-90793693D01*
X111651446Y-90657610D01*
X111426996Y-90563507D01*
X111188500Y-90515000D01*
X110838500Y-90515000D01*
X110838500Y-91623000D01*
X110858500Y-91623000D01*
X110858500Y-91877000D01*
X110838500Y-91877000D01*
X110838500Y-92985000D01*
X111188500Y-92985000D01*
X111426996Y-92936493D01*
X111651446Y-92842390D01*
X111853225Y-92706307D01*
X112024578Y-92533474D01*
X112091000Y-92433135D01*
X112091000Y-98066864D01*
X112024578Y-97966526D01*
X111853225Y-97793693D01*
X111651446Y-97657610D01*
X111426996Y-97563507D01*
X111188500Y-97515000D01*
X110838500Y-97515000D01*
X110838500Y-98623000D01*
X110858500Y-98623000D01*
X110858500Y-98877000D01*
X110838500Y-98877000D01*
X110838500Y-99985000D01*
X111188500Y-99985000D01*
X111426996Y-99936493D01*
X111651446Y-99842390D01*
X111853225Y-99706307D01*
X112024578Y-99533474D01*
X112091000Y-99433136D01*
X112091000Y-104326213D01*
X111690839Y-103727330D01*
X111156670Y-103193161D01*
X110528554Y-102773467D01*
X109830628Y-102484377D01*
X109089715Y-102337000D01*
X108334285Y-102337000D01*
X107593372Y-102484377D01*
X106895446Y-102773467D01*
X106267330Y-103193161D01*
X105733161Y-103727330D01*
X105313467Y-104355446D01*
X105024377Y-105053372D01*
X104877000Y-105794285D01*
X104877000Y-106549715D01*
X105024377Y-107290628D01*
X105313467Y-107988554D01*
X105733161Y-108616670D01*
X106267330Y-109150839D01*
X106866213Y-109551000D01*
X71949787Y-109551000D01*
X72548670Y-109150839D01*
X73082839Y-108616670D01*
X73502533Y-107988554D01*
X73791623Y-107290628D01*
X73933361Y-106578061D01*
X90151000Y-106578061D01*
X90151000Y-106781939D01*
X90190774Y-106981898D01*
X90268795Y-107170256D01*
X90382063Y-107339774D01*
X90526226Y-107483937D01*
X90695744Y-107597205D01*
X90884102Y-107675226D01*
X91084061Y-107715000D01*
X91287939Y-107715000D01*
X91487898Y-107675226D01*
X91676256Y-107597205D01*
X91845774Y-107483937D01*
X91989937Y-107339774D01*
X92103205Y-107170256D01*
X92181226Y-106981898D01*
X92221000Y-106781939D01*
X92221000Y-106578061D01*
X92181226Y-106378102D01*
X92103205Y-106189744D01*
X91989937Y-106020226D01*
X91845774Y-105876063D01*
X91676256Y-105762795D01*
X91487898Y-105684774D01*
X91287939Y-105645000D01*
X91084061Y-105645000D01*
X90884102Y-105684774D01*
X90695744Y-105762795D01*
X90526226Y-105876063D01*
X90382063Y-106020226D01*
X90268795Y-106189744D01*
X90190774Y-106378102D01*
X90151000Y-106578061D01*
X73933361Y-106578061D01*
X73939000Y-106549715D01*
X73939000Y-105794285D01*
X73791623Y-105053372D01*
X73502533Y-104355446D01*
X73082839Y-103727330D01*
X72548670Y-103193161D01*
X71920554Y-102773467D01*
X71222628Y-102484377D01*
X70481715Y-102337000D01*
X69726285Y-102337000D01*
X68985372Y-102484377D01*
X68287446Y-102773467D01*
X67659330Y-103193161D01*
X67125161Y-103727330D01*
X66725000Y-104326213D01*
X66725000Y-81533651D01*
X67151815Y-81533651D01*
X67155380Y-81569844D01*
X67155379Y-97370616D01*
X67151815Y-97406799D01*
X67155379Y-97442982D01*
X67155379Y-97442984D01*
X67166037Y-97551197D01*
X67208157Y-97690047D01*
X67276555Y-97818011D01*
X67368604Y-97930173D01*
X67396711Y-97953240D01*
X68678138Y-99234668D01*
X68701204Y-99262774D01*
X68729310Y-99285840D01*
X68729311Y-99285841D01*
X68813366Y-99354823D01*
X68941330Y-99423221D01*
X69080180Y-99465341D01*
X69188393Y-99475999D01*
X69188395Y-99475999D01*
X69224579Y-99479563D01*
X69260762Y-99475999D01*
X83014277Y-99475999D01*
X83050460Y-99479563D01*
X83086643Y-99475999D01*
X83086646Y-99475999D01*
X83194859Y-99465341D01*
X83333709Y-99423221D01*
X83461673Y-99354823D01*
X83573835Y-99262774D01*
X83596906Y-99234662D01*
X89495104Y-93336465D01*
X89546713Y-93461061D01*
X89643566Y-93606011D01*
X89766835Y-93729280D01*
X89911785Y-93826133D01*
X90072845Y-93892846D01*
X90243825Y-93926856D01*
X90418155Y-93926856D01*
X90589135Y-93892846D01*
X90750195Y-93826133D01*
X90895145Y-93729280D01*
X91018414Y-93606011D01*
X91115267Y-93461061D01*
X91181980Y-93300001D01*
X91204134Y-93188625D01*
X91264811Y-93075106D01*
X91306931Y-92936256D01*
X91317589Y-92828043D01*
X91317589Y-92828042D01*
X91321153Y-92791857D01*
X91317589Y-92755671D01*
X91317589Y-92296929D01*
X91321152Y-92260753D01*
X91317589Y-92224577D01*
X91317589Y-92224568D01*
X91306931Y-92116355D01*
X91264811Y-91977505D01*
X91196413Y-91849541D01*
X91140343Y-91781219D01*
X91127431Y-91765486D01*
X91127430Y-91765485D01*
X91104364Y-91737379D01*
X91076258Y-91714313D01*
X90477239Y-91115295D01*
X90537612Y-91083025D01*
X90649774Y-90990976D01*
X90672844Y-90962865D01*
X90851977Y-90783732D01*
X90936145Y-90766990D01*
X91097205Y-90700277D01*
X91242155Y-90603424D01*
X91365424Y-90480155D01*
X91462277Y-90335205D01*
X91528990Y-90174145D01*
X91563000Y-90003165D01*
X91563000Y-89828835D01*
X91528990Y-89657855D01*
X91462277Y-89496795D01*
X91365424Y-89351845D01*
X91242155Y-89228576D01*
X91097205Y-89131723D01*
X90936145Y-89065010D01*
X90765165Y-89031000D01*
X90590835Y-89031000D01*
X90419855Y-89065010D01*
X90258795Y-89131723D01*
X90113845Y-89228576D01*
X89990576Y-89351845D01*
X89893723Y-89496795D01*
X89827010Y-89657855D01*
X89812460Y-89731001D01*
X88827150Y-89731001D01*
X88878915Y-89634156D01*
X88921035Y-89495306D01*
X88931693Y-89387093D01*
X88931693Y-89387084D01*
X88935256Y-89350908D01*
X88931693Y-89314732D01*
X88931693Y-87690940D01*
X88935257Y-87654754D01*
X88921035Y-87510355D01*
X88900482Y-87442601D01*
X88878915Y-87371505D01*
X88810517Y-87243541D01*
X88718468Y-87131379D01*
X88690362Y-87108313D01*
X87192784Y-85610736D01*
X87169714Y-85582625D01*
X87057552Y-85490576D01*
X86929588Y-85422178D01*
X86790738Y-85380058D01*
X86682525Y-85369400D01*
X86682522Y-85369400D01*
X86646339Y-85365836D01*
X86610156Y-85369400D01*
X85141110Y-85369400D01*
X82334442Y-82562732D01*
X73825719Y-74054010D01*
X73875000Y-73806260D01*
X73875000Y-73513740D01*
X73817932Y-73226842D01*
X73705990Y-72956589D01*
X73543475Y-72713368D01*
X73336632Y-72506525D01*
X73162240Y-72390000D01*
X73336632Y-72273475D01*
X73543475Y-72066632D01*
X73705990Y-71823411D01*
X73817932Y-71553158D01*
X73875000Y-71266260D01*
X73875000Y-70973740D01*
X73817932Y-70686842D01*
X73705990Y-70416589D01*
X73543475Y-70173368D01*
X73336632Y-69966525D01*
X73162240Y-69850000D01*
X73336632Y-69733475D01*
X73543475Y-69526632D01*
X73705990Y-69283411D01*
X73817932Y-69013158D01*
X73875000Y-68726260D01*
X73875000Y-68433740D01*
X73817932Y-68146842D01*
X73705990Y-67876589D01*
X73543475Y-67633368D01*
X73336632Y-67426525D01*
X73163271Y-67310689D01*
X73238792Y-67068397D01*
X72390000Y-66219605D01*
X71541208Y-67068397D01*
X71616729Y-67310689D01*
X71443368Y-67426525D01*
X71236525Y-67633368D01*
X71120000Y-67807760D01*
X71003475Y-67633368D01*
X70796632Y-67426525D01*
X70623271Y-67310689D01*
X70698792Y-67068397D01*
X69850000Y-66219605D01*
X69001208Y-67068397D01*
X69076729Y-67310689D01*
X68903368Y-67426525D01*
X68696525Y-67633368D01*
X68534010Y-67876589D01*
X68422068Y-68146842D01*
X68365000Y-68433740D01*
X68365000Y-68726260D01*
X68422068Y-69013158D01*
X68534010Y-69283411D01*
X68696525Y-69526632D01*
X68903368Y-69733475D01*
X69077760Y-69850000D01*
X68903368Y-69966525D01*
X68696525Y-70173368D01*
X68534010Y-70416589D01*
X68422068Y-70686842D01*
X68365000Y-70973740D01*
X68365000Y-71266260D01*
X68422068Y-71553158D01*
X68534010Y-71823411D01*
X68696525Y-72066632D01*
X68903368Y-72273475D01*
X69077760Y-72390000D01*
X68903368Y-72506525D01*
X68696525Y-72713368D01*
X68534010Y-72956589D01*
X68422068Y-73226842D01*
X68365000Y-73513740D01*
X68365000Y-73806260D01*
X68414281Y-74054010D01*
X68203131Y-74265160D01*
X68175025Y-74288226D01*
X68151959Y-74316332D01*
X68151957Y-74316334D01*
X68082975Y-74400389D01*
X68014577Y-74528354D01*
X67972458Y-74667203D01*
X67958235Y-74811601D01*
X67961800Y-74847794D01*
X67961799Y-76716585D01*
X67958235Y-76752769D01*
X67961799Y-76788952D01*
X67961799Y-76788954D01*
X67972457Y-76897167D01*
X68014577Y-77036017D01*
X68068993Y-77137822D01*
X68082975Y-77163981D01*
X68120963Y-77210269D01*
X68175024Y-77276143D01*
X68203131Y-77299210D01*
X68696907Y-77792986D01*
X68696525Y-77793368D01*
X68534010Y-78036589D01*
X68422068Y-78306842D01*
X68365000Y-78593740D01*
X68365000Y-78886260D01*
X68422068Y-79173158D01*
X68534010Y-79443411D01*
X68696525Y-79686632D01*
X68696907Y-79687014D01*
X67396711Y-80987210D01*
X67368605Y-81010276D01*
X67345539Y-81038382D01*
X67345537Y-81038384D01*
X67276555Y-81122439D01*
X67208157Y-81250404D01*
X67166038Y-81389253D01*
X67151815Y-81533651D01*
X66725000Y-81533651D01*
X66725000Y-66108531D01*
X68359389Y-66108531D01*
X68401401Y-66398019D01*
X68499081Y-66673747D01*
X68572528Y-66811157D01*
X68821603Y-66888792D01*
X69670395Y-66040000D01*
X70029605Y-66040000D01*
X70878397Y-66888792D01*
X71120000Y-66813486D01*
X71361603Y-66888792D01*
X72210395Y-66040000D01*
X72569605Y-66040000D01*
X73418397Y-66888792D01*
X73667472Y-66811157D01*
X73793371Y-66547117D01*
X73865339Y-66263589D01*
X73880611Y-65971469D01*
X73838599Y-65681981D01*
X73740919Y-65406253D01*
X73667472Y-65268843D01*
X73418397Y-65191208D01*
X72569605Y-66040000D01*
X72210395Y-66040000D01*
X71361603Y-65191208D01*
X71120000Y-65266514D01*
X70878397Y-65191208D01*
X70029605Y-66040000D01*
X69670395Y-66040000D01*
X68821603Y-65191208D01*
X68572528Y-65268843D01*
X68446629Y-65532883D01*
X68374661Y-65816411D01*
X68359389Y-66108531D01*
X66725000Y-66108531D01*
X66725000Y-65011603D01*
X69001208Y-65011603D01*
X69850000Y-65860395D01*
X70698792Y-65011603D01*
X71541208Y-65011603D01*
X72390000Y-65860395D01*
X73238792Y-65011603D01*
X73161157Y-64762528D01*
X72897117Y-64636629D01*
X72613589Y-64564661D01*
X72321469Y-64549389D01*
X72031981Y-64591401D01*
X71756253Y-64689081D01*
X71618843Y-64762528D01*
X71541208Y-65011603D01*
X70698792Y-65011603D01*
X70621157Y-64762528D01*
X70357117Y-64636629D01*
X70073589Y-64564661D01*
X69781469Y-64549389D01*
X69491981Y-64591401D01*
X69216253Y-64689081D01*
X69078843Y-64762528D01*
X69001208Y-65011603D01*
X66725000Y-65011603D01*
X66725000Y-58826061D01*
X74276000Y-58826061D01*
X74276000Y-59029939D01*
X74315774Y-59229898D01*
X74393795Y-59418256D01*
X74507063Y-59587774D01*
X74574401Y-59655112D01*
X74574400Y-72630187D01*
X74570836Y-72666370D01*
X74574400Y-72702553D01*
X74574400Y-72702555D01*
X74585058Y-72810768D01*
X74627178Y-72949618D01*
X74660396Y-73011765D01*
X74695576Y-73077582D01*
X74746200Y-73139267D01*
X74787625Y-73189744D01*
X74815732Y-73212811D01*
X89540790Y-87937870D01*
X89563856Y-87965976D01*
X89591962Y-87989042D01*
X89591963Y-87989043D01*
X89602341Y-87997560D01*
X89676018Y-88058025D01*
X89803982Y-88126423D01*
X89942832Y-88168543D01*
X90051045Y-88179201D01*
X90051054Y-88179201D01*
X90087230Y-88182764D01*
X90123406Y-88179201D01*
X90724586Y-88179201D01*
X90760769Y-88182765D01*
X90796952Y-88179201D01*
X90796955Y-88179201D01*
X90905168Y-88168543D01*
X91044018Y-88126423D01*
X91171982Y-88058025D01*
X91284144Y-87965976D01*
X91307215Y-87937864D01*
X91696257Y-87548822D01*
X91724369Y-87525751D01*
X91816418Y-87413589D01*
X91884816Y-87285625D01*
X91926936Y-87146775D01*
X91937594Y-87038562D01*
X91937594Y-87038553D01*
X91941157Y-87002377D01*
X91937594Y-86966201D01*
X91937594Y-86004061D01*
X92310000Y-86004061D01*
X92310000Y-86207939D01*
X92349774Y-86407898D01*
X92427795Y-86596256D01*
X92541063Y-86765774D01*
X92608400Y-86833111D01*
X92608401Y-101126888D01*
X92541063Y-101194226D01*
X92427795Y-101363744D01*
X92349774Y-101552102D01*
X92310000Y-101752061D01*
X92310000Y-101955939D01*
X92349774Y-102155898D01*
X92427795Y-102344256D01*
X92541063Y-102513774D01*
X92685226Y-102657937D01*
X92854744Y-102771205D01*
X93043102Y-102849226D01*
X93243061Y-102889000D01*
X93446939Y-102889000D01*
X93646898Y-102849226D01*
X93835256Y-102771205D01*
X94004774Y-102657937D01*
X94148937Y-102513774D01*
X94262205Y-102344256D01*
X94340226Y-102155898D01*
X94380000Y-101955939D01*
X94380000Y-101752061D01*
X94340226Y-101552102D01*
X94262205Y-101363744D01*
X94148937Y-101194226D01*
X94081600Y-101126889D01*
X94081600Y-98689133D01*
X107251972Y-98689133D01*
X107314465Y-98925450D01*
X107557178Y-99038850D01*
X107817349Y-99102719D01*
X108084982Y-99114604D01*
X108349791Y-99074048D01*
X108367523Y-99067609D01*
X109168038Y-99067609D01*
X109171909Y-99105282D01*
X109264079Y-99330533D01*
X109398422Y-99533474D01*
X109569775Y-99706307D01*
X109771554Y-99842390D01*
X109996004Y-99936493D01*
X110234500Y-99985000D01*
X110584500Y-99985000D01*
X110584500Y-98877000D01*
X109292769Y-98877000D01*
X109168038Y-99067609D01*
X108367523Y-99067609D01*
X108601600Y-98982609D01*
X108708535Y-98925450D01*
X108771028Y-98689133D01*
X108011500Y-97929605D01*
X107251972Y-98689133D01*
X94081600Y-98689133D01*
X94081600Y-97434061D01*
X105137000Y-97434061D01*
X105137000Y-97637939D01*
X105176774Y-97837898D01*
X105254795Y-98026256D01*
X105368063Y-98195774D01*
X105512226Y-98339937D01*
X105681744Y-98453205D01*
X105870102Y-98531226D01*
X106070061Y-98571000D01*
X106273939Y-98571000D01*
X106473898Y-98531226D01*
X106662256Y-98453205D01*
X106792744Y-98366016D01*
X106836050Y-98447035D01*
X107072367Y-98509528D01*
X107831895Y-97750000D01*
X108191105Y-97750000D01*
X108950633Y-98509528D01*
X109178997Y-98449138D01*
X109292769Y-98623000D01*
X110584500Y-98623000D01*
X110584500Y-97515000D01*
X110234500Y-97515000D01*
X109996004Y-97563507D01*
X109771554Y-97657610D01*
X109569775Y-97793693D01*
X109398422Y-97966526D01*
X109335329Y-98061836D01*
X109364219Y-97944151D01*
X109376104Y-97676518D01*
X109335548Y-97411709D01*
X109244109Y-97159900D01*
X109186950Y-97052965D01*
X108950633Y-96990472D01*
X108191105Y-97750000D01*
X107831895Y-97750000D01*
X107072367Y-96990472D01*
X107055291Y-96994988D01*
X106975937Y-96876226D01*
X106910578Y-96810867D01*
X107251972Y-96810867D01*
X108011500Y-97570395D01*
X108771028Y-96810867D01*
X108708535Y-96574550D01*
X108465822Y-96461150D01*
X108205651Y-96397281D01*
X107938018Y-96385396D01*
X107673209Y-96425952D01*
X107421400Y-96517391D01*
X107314465Y-96574550D01*
X107251972Y-96810867D01*
X106910578Y-96810867D01*
X106831774Y-96732063D01*
X106662256Y-96618795D01*
X106473898Y-96540774D01*
X106273939Y-96501000D01*
X106070061Y-96501000D01*
X105870102Y-96540774D01*
X105681744Y-96618795D01*
X105512226Y-96732063D01*
X105368063Y-96876226D01*
X105254795Y-97045744D01*
X105176774Y-97234102D01*
X105137000Y-97434061D01*
X94081600Y-97434061D01*
X94081600Y-95402061D01*
X104121000Y-95402061D01*
X104121000Y-95605939D01*
X104160774Y-95805898D01*
X104238795Y-95994256D01*
X104352063Y-96163774D01*
X104496226Y-96307937D01*
X104665744Y-96421205D01*
X104854102Y-96499226D01*
X105054061Y-96539000D01*
X105257939Y-96539000D01*
X105457898Y-96499226D01*
X105646256Y-96421205D01*
X105815774Y-96307937D01*
X105959937Y-96163774D01*
X106073205Y-95994256D01*
X106151226Y-95805898D01*
X106191000Y-95605939D01*
X106191000Y-95402061D01*
X106151226Y-95202102D01*
X106073205Y-95013744D01*
X105959937Y-94844226D01*
X105815774Y-94700063D01*
X105646256Y-94586795D01*
X105457898Y-94508774D01*
X105257939Y-94469000D01*
X105054061Y-94469000D01*
X104854102Y-94508774D01*
X104665744Y-94586795D01*
X104496226Y-94700063D01*
X104352063Y-94844226D01*
X104238795Y-95013744D01*
X104160774Y-95202102D01*
X104121000Y-95402061D01*
X94081600Y-95402061D01*
X94081600Y-93689133D01*
X107251972Y-93689133D01*
X107314465Y-93925450D01*
X107557178Y-94038850D01*
X107817349Y-94102719D01*
X108084982Y-94114604D01*
X108349791Y-94074048D01*
X108601600Y-93982609D01*
X108708535Y-93925450D01*
X108771028Y-93689133D01*
X108011500Y-92929605D01*
X107251972Y-93689133D01*
X94081600Y-93689133D01*
X94081600Y-92823482D01*
X106646896Y-92823482D01*
X106687452Y-93088291D01*
X106778891Y-93340100D01*
X106836050Y-93447035D01*
X107072367Y-93509528D01*
X107831895Y-92750000D01*
X108191105Y-92750000D01*
X108950633Y-93509528D01*
X109186950Y-93447035D01*
X109300350Y-93204322D01*
X109364219Y-92944151D01*
X109376104Y-92676518D01*
X109340885Y-92446558D01*
X109398422Y-92533474D01*
X109569775Y-92706307D01*
X109771554Y-92842390D01*
X109996004Y-92936493D01*
X110234500Y-92985000D01*
X110584500Y-92985000D01*
X110584500Y-91877000D01*
X109292769Y-91877000D01*
X109178997Y-92050862D01*
X108950633Y-91990472D01*
X108191105Y-92750000D01*
X107831895Y-92750000D01*
X107072367Y-91990472D01*
X106836050Y-92052965D01*
X106722650Y-92295678D01*
X106658781Y-92555849D01*
X106646896Y-92823482D01*
X94081600Y-92823482D01*
X94081600Y-91810867D01*
X107251972Y-91810867D01*
X108011500Y-92570395D01*
X108771028Y-91810867D01*
X108708535Y-91574550D01*
X108465822Y-91461150D01*
X108348672Y-91432391D01*
X109168038Y-91432391D01*
X109292769Y-91623000D01*
X110584500Y-91623000D01*
X110584500Y-90515000D01*
X110234500Y-90515000D01*
X109996004Y-90563507D01*
X109771554Y-90657610D01*
X109569775Y-90793693D01*
X109398422Y-90966526D01*
X109264079Y-91169467D01*
X109171909Y-91394718D01*
X109168038Y-91432391D01*
X108348672Y-91432391D01*
X108205651Y-91397281D01*
X107938018Y-91385396D01*
X107673209Y-91425952D01*
X107421400Y-91517391D01*
X107314465Y-91574550D01*
X107251972Y-91810867D01*
X94081600Y-91810867D01*
X94081600Y-91172454D01*
X94192063Y-91337774D01*
X94336226Y-91481937D01*
X94505744Y-91595205D01*
X94694102Y-91673226D01*
X94894061Y-91713000D01*
X95097939Y-91713000D01*
X95297898Y-91673226D01*
X95486256Y-91595205D01*
X95655774Y-91481937D01*
X95799937Y-91337774D01*
X95888750Y-91204855D01*
X95902744Y-91214205D01*
X96091102Y-91292226D01*
X96291061Y-91332000D01*
X96494939Y-91332000D01*
X96694898Y-91292226D01*
X96883256Y-91214205D01*
X97052774Y-91100937D01*
X97196937Y-90956774D01*
X97310205Y-90787256D01*
X97388226Y-90598898D01*
X97428000Y-90398939D01*
X97428000Y-90195061D01*
X97402739Y-90068061D01*
X106407000Y-90068061D01*
X106407000Y-90271939D01*
X106446774Y-90471898D01*
X106524795Y-90660256D01*
X106638063Y-90829774D01*
X106782226Y-90973937D01*
X106951744Y-91087205D01*
X107140102Y-91165226D01*
X107340061Y-91205000D01*
X107543939Y-91205000D01*
X107743898Y-91165226D01*
X107932256Y-91087205D01*
X108101774Y-90973937D01*
X108245937Y-90829774D01*
X108359205Y-90660256D01*
X108437226Y-90471898D01*
X108477000Y-90271939D01*
X108477000Y-90068061D01*
X108437226Y-89868102D01*
X108359205Y-89679744D01*
X108245937Y-89510226D01*
X108101774Y-89366063D01*
X107932256Y-89252795D01*
X107743898Y-89174774D01*
X107543939Y-89135000D01*
X107340061Y-89135000D01*
X107140102Y-89174774D01*
X106951744Y-89252795D01*
X106782226Y-89366063D01*
X106638063Y-89510226D01*
X106524795Y-89679744D01*
X106446774Y-89868102D01*
X106407000Y-90068061D01*
X97402739Y-90068061D01*
X97388226Y-89995102D01*
X97310205Y-89806744D01*
X97196937Y-89637226D01*
X97052774Y-89493063D01*
X96883256Y-89379795D01*
X96694898Y-89301774D01*
X96494939Y-89262000D01*
X96291061Y-89262000D01*
X96091102Y-89301774D01*
X95902744Y-89379795D01*
X95733226Y-89493063D01*
X95589063Y-89637226D01*
X95500250Y-89770145D01*
X95486256Y-89760795D01*
X95297898Y-89682774D01*
X95097939Y-89643000D01*
X94894061Y-89643000D01*
X94694102Y-89682774D01*
X94505744Y-89760795D01*
X94336226Y-89874063D01*
X94192063Y-90018226D01*
X94081600Y-90183546D01*
X94081600Y-86833111D01*
X94148937Y-86765774D01*
X94262205Y-86596256D01*
X94340226Y-86407898D01*
X94380000Y-86207939D01*
X94380000Y-86004061D01*
X94340226Y-85804102D01*
X94262205Y-85615744D01*
X94148937Y-85446226D01*
X94004774Y-85302063D01*
X93835256Y-85188795D01*
X93646898Y-85110774D01*
X93446939Y-85071000D01*
X93243061Y-85071000D01*
X93043102Y-85110774D01*
X92854744Y-85188795D01*
X92685226Y-85302063D01*
X92541063Y-85446226D01*
X92427795Y-85615744D01*
X92349774Y-85804102D01*
X92310000Y-86004061D01*
X91937594Y-86004061D01*
X91937594Y-85359159D01*
X91941157Y-85322983D01*
X91937594Y-85286807D01*
X91937594Y-85286798D01*
X91926936Y-85178585D01*
X91884816Y-85039735D01*
X91816418Y-84911771D01*
X91724368Y-84799609D01*
X91696262Y-84776543D01*
X91564291Y-84644572D01*
X91564291Y-84549342D01*
X91546577Y-84460287D01*
X91656997Y-84570707D01*
X91680063Y-84598813D01*
X91708169Y-84621879D01*
X91708170Y-84621880D01*
X91743995Y-84651281D01*
X91792225Y-84690862D01*
X91920189Y-84759260D01*
X92053201Y-84799609D01*
X92059039Y-84801380D01*
X92203438Y-84815602D01*
X92230967Y-84812891D01*
X92301044Y-84859715D01*
X92462104Y-84926428D01*
X92633084Y-84960438D01*
X92807414Y-84960438D01*
X92978394Y-84926428D01*
X93139454Y-84859715D01*
X93284404Y-84762862D01*
X93407673Y-84639593D01*
X93504526Y-84494643D01*
X93571239Y-84333583D01*
X93605249Y-84162603D01*
X93605249Y-83988273D01*
X93571239Y-83817293D01*
X93504526Y-83656233D01*
X93407673Y-83511283D01*
X93284404Y-83388014D01*
X93139454Y-83291161D01*
X92978394Y-83224448D01*
X92807414Y-83190438D01*
X92633084Y-83190438D01*
X92462104Y-83224448D01*
X92414059Y-83244349D01*
X88340703Y-79170993D01*
X91105654Y-79170993D01*
X93500475Y-81565814D01*
X93430063Y-81636226D01*
X93316795Y-81805744D01*
X93238774Y-81994102D01*
X93199000Y-82194061D01*
X93199000Y-82397939D01*
X93238774Y-82597898D01*
X93316795Y-82786256D01*
X93430063Y-82955774D01*
X93574226Y-83099937D01*
X93743744Y-83213205D01*
X93932102Y-83291226D01*
X94132061Y-83331000D01*
X94335939Y-83331000D01*
X94535898Y-83291226D01*
X94724256Y-83213205D01*
X94893774Y-83099937D01*
X94964186Y-83029525D01*
X100195530Y-88260870D01*
X100218596Y-88288976D01*
X100246702Y-88312042D01*
X100246703Y-88312043D01*
X100294309Y-88351112D01*
X100330758Y-88381025D01*
X100458722Y-88449423D01*
X100571216Y-88483548D01*
X100597572Y-88491543D01*
X100741971Y-88505765D01*
X100778157Y-88502201D01*
X109048216Y-88502201D01*
X109084399Y-88505765D01*
X109120582Y-88502201D01*
X109120585Y-88502201D01*
X109228798Y-88491543D01*
X109367648Y-88449423D01*
X109495612Y-88381025D01*
X109607774Y-88288976D01*
X109630844Y-88260865D01*
X109789637Y-88102072D01*
X111086000Y-88102072D01*
X111210482Y-88089812D01*
X111330180Y-88053502D01*
X111440494Y-87994537D01*
X111537185Y-87915185D01*
X111616537Y-87818494D01*
X111675502Y-87708180D01*
X111711812Y-87588482D01*
X111724072Y-87464000D01*
X111724072Y-85764000D01*
X111711812Y-85639518D01*
X111675502Y-85519820D01*
X111616537Y-85409506D01*
X111537185Y-85312815D01*
X111440494Y-85233463D01*
X111330180Y-85174498D01*
X111257620Y-85152487D01*
X111389475Y-85020632D01*
X111551990Y-84777411D01*
X111663932Y-84507158D01*
X111721000Y-84220260D01*
X111721000Y-83927740D01*
X111663932Y-83640842D01*
X111551990Y-83370589D01*
X111389475Y-83127368D01*
X111182632Y-82920525D01*
X111000466Y-82798805D01*
X111117355Y-82729178D01*
X111333588Y-82534269D01*
X111507641Y-82300920D01*
X111632825Y-82038099D01*
X111677476Y-81890890D01*
X111556155Y-81661000D01*
X110363000Y-81661000D01*
X110363000Y-81681000D01*
X110109000Y-81681000D01*
X110109000Y-81661000D01*
X107823000Y-81661000D01*
X107823000Y-81681000D01*
X107569000Y-81681000D01*
X107569000Y-81661000D01*
X106375845Y-81661000D01*
X106254524Y-81890890D01*
X106299175Y-82038099D01*
X106424359Y-82300920D01*
X106598412Y-82534269D01*
X106814645Y-82729178D01*
X106931534Y-82798805D01*
X106749368Y-82920525D01*
X106542525Y-83127368D01*
X106380010Y-83370589D01*
X106268068Y-83640842D01*
X106211000Y-83927740D01*
X106211000Y-84220260D01*
X106268068Y-84507158D01*
X106380010Y-84777411D01*
X106542525Y-85020632D01*
X106749368Y-85227475D01*
X106923760Y-85344000D01*
X106749368Y-85460525D01*
X106542525Y-85667368D01*
X106380010Y-85910589D01*
X106268068Y-86180842D01*
X106211000Y-86467740D01*
X106211000Y-86760260D01*
X106264456Y-87029001D01*
X101047081Y-87029001D01*
X100034942Y-86016862D01*
X100058256Y-86007205D01*
X100068002Y-86000693D01*
X100077747Y-86007205D01*
X100266105Y-86085226D01*
X100466064Y-86125000D01*
X100669942Y-86125000D01*
X100869901Y-86085226D01*
X101058259Y-86007205D01*
X101227777Y-85893937D01*
X101371940Y-85749774D01*
X101485208Y-85580256D01*
X101563229Y-85391898D01*
X101603003Y-85191939D01*
X101603003Y-84988061D01*
X101563229Y-84788102D01*
X101485208Y-84599744D01*
X101371940Y-84430226D01*
X101304603Y-84362889D01*
X101304603Y-83204000D01*
X101447939Y-83204000D01*
X101647898Y-83164226D01*
X101836256Y-83086205D01*
X102005774Y-82972937D01*
X102149937Y-82828774D01*
X102263205Y-82659256D01*
X102341226Y-82470898D01*
X102381000Y-82270939D01*
X102381000Y-82175709D01*
X106869179Y-77687530D01*
X106923760Y-77724000D01*
X106749368Y-77840525D01*
X106542525Y-78047368D01*
X106380010Y-78290589D01*
X106268068Y-78560842D01*
X106211000Y-78847740D01*
X106211000Y-79140260D01*
X106268068Y-79427158D01*
X106380010Y-79697411D01*
X106542525Y-79940632D01*
X106749368Y-80147475D01*
X106931534Y-80269195D01*
X106814645Y-80338822D01*
X106598412Y-80533731D01*
X106424359Y-80767080D01*
X106299175Y-81029901D01*
X106254524Y-81177110D01*
X106375845Y-81407000D01*
X107569000Y-81407000D01*
X107569000Y-81387000D01*
X107823000Y-81387000D01*
X107823000Y-81407000D01*
X110109000Y-81407000D01*
X110109000Y-81387000D01*
X110363000Y-81387000D01*
X110363000Y-81407000D01*
X111556155Y-81407000D01*
X111677476Y-81177110D01*
X111632825Y-81029901D01*
X111507641Y-80767080D01*
X111333588Y-80533731D01*
X111117355Y-80338822D01*
X111000466Y-80269195D01*
X111182632Y-80147475D01*
X111389475Y-79940632D01*
X111551990Y-79697411D01*
X111663932Y-79427158D01*
X111721000Y-79140260D01*
X111721000Y-78847740D01*
X111663932Y-78560842D01*
X111551990Y-78290589D01*
X111389475Y-78047368D01*
X111182632Y-77840525D01*
X111008240Y-77724000D01*
X111182632Y-77607475D01*
X111389475Y-77400632D01*
X111551990Y-77157411D01*
X111663932Y-76887158D01*
X111721000Y-76600260D01*
X111721000Y-76307740D01*
X111663932Y-76020842D01*
X111551990Y-75750589D01*
X111389475Y-75507368D01*
X111182632Y-75300525D01*
X110939411Y-75138010D01*
X110669158Y-75026068D01*
X110382260Y-74969000D01*
X110089740Y-74969000D01*
X109802842Y-75026068D01*
X109532589Y-75138010D01*
X109289368Y-75300525D01*
X109082525Y-75507368D01*
X108966000Y-75681760D01*
X108849475Y-75507368D01*
X108642632Y-75300525D01*
X108399411Y-75138010D01*
X108129158Y-75026068D01*
X107842260Y-74969000D01*
X107549740Y-74969000D01*
X107262842Y-75026068D01*
X106992589Y-75138010D01*
X106749368Y-75300525D01*
X106542525Y-75507368D01*
X106380010Y-75750589D01*
X106268068Y-76020842D01*
X106222285Y-76251005D01*
X101339291Y-81134000D01*
X101244061Y-81134000D01*
X101044102Y-81173774D01*
X100855744Y-81251795D01*
X100704759Y-81352679D01*
X96466141Y-77114061D01*
X98787000Y-77114061D01*
X98787000Y-77317939D01*
X98826774Y-77517898D01*
X98904795Y-77706256D01*
X99018063Y-77875774D01*
X99162226Y-78019937D01*
X99331744Y-78133205D01*
X99520102Y-78211226D01*
X99720061Y-78251000D01*
X99923939Y-78251000D01*
X100123898Y-78211226D01*
X100312256Y-78133205D01*
X100481774Y-78019937D01*
X100625937Y-77875774D01*
X100739205Y-77706256D01*
X100817226Y-77517898D01*
X100857000Y-77317939D01*
X100857000Y-77114061D01*
X100817226Y-76914102D01*
X100739205Y-76725744D01*
X100625937Y-76556226D01*
X100481774Y-76412063D01*
X100312256Y-76298795D01*
X100123898Y-76220774D01*
X99923939Y-76181000D01*
X99720061Y-76181000D01*
X99520102Y-76220774D01*
X99331744Y-76298795D01*
X99162226Y-76412063D01*
X99018063Y-76556226D01*
X98904795Y-76725744D01*
X98826774Y-76914102D01*
X98787000Y-77114061D01*
X96466141Y-77114061D01*
X88973141Y-69621061D01*
X93326000Y-69621061D01*
X93326000Y-69824939D01*
X93365774Y-70024898D01*
X93443795Y-70213256D01*
X93557063Y-70382774D01*
X93595789Y-70421500D01*
X93557063Y-70460226D01*
X93443795Y-70629744D01*
X93365774Y-70818102D01*
X93326000Y-71018061D01*
X93326000Y-71221939D01*
X93365774Y-71421898D01*
X93443795Y-71610256D01*
X93557063Y-71779774D01*
X93659289Y-71882000D01*
X93557063Y-71984226D01*
X93443795Y-72153744D01*
X93365774Y-72342102D01*
X93326000Y-72542061D01*
X93326000Y-72745939D01*
X93365774Y-72945898D01*
X93443795Y-73134256D01*
X93557063Y-73303774D01*
X93701226Y-73447937D01*
X93870744Y-73561205D01*
X94059102Y-73639226D01*
X94259061Y-73679000D01*
X94462939Y-73679000D01*
X94662898Y-73639226D01*
X94851256Y-73561205D01*
X95020774Y-73447937D01*
X95164650Y-73304061D01*
X98533000Y-73304061D01*
X98533000Y-73507939D01*
X98572774Y-73707898D01*
X98650795Y-73896256D01*
X98764063Y-74065774D01*
X98908226Y-74209937D01*
X99077744Y-74323205D01*
X99266102Y-74401226D01*
X99466061Y-74441000D01*
X99669939Y-74441000D01*
X99869898Y-74401226D01*
X100058256Y-74323205D01*
X100227774Y-74209937D01*
X100371937Y-74065774D01*
X100485205Y-73896256D01*
X100563226Y-73707898D01*
X100603000Y-73507939D01*
X100603000Y-73304061D01*
X100563226Y-73104102D01*
X100485205Y-72915744D01*
X100371937Y-72746226D01*
X100227774Y-72602063D01*
X100058256Y-72488795D01*
X99869898Y-72410774D01*
X99669939Y-72371000D01*
X99466061Y-72371000D01*
X99266102Y-72410774D01*
X99077744Y-72488795D01*
X98908226Y-72602063D01*
X98764063Y-72746226D01*
X98650795Y-72915744D01*
X98572774Y-73104102D01*
X98533000Y-73304061D01*
X95164650Y-73304061D01*
X95164937Y-73303774D01*
X95278205Y-73134256D01*
X95356226Y-72945898D01*
X95396000Y-72745939D01*
X95396000Y-72542061D01*
X95356226Y-72342102D01*
X95278205Y-72153744D01*
X95164937Y-71984226D01*
X95062711Y-71882000D01*
X95164937Y-71779774D01*
X95278205Y-71610256D01*
X95356226Y-71421898D01*
X95396000Y-71221939D01*
X95396000Y-71018061D01*
X103232000Y-71018061D01*
X103232000Y-71221939D01*
X103271774Y-71421898D01*
X103349795Y-71610256D01*
X103463063Y-71779774D01*
X103607226Y-71923937D01*
X103776744Y-72037205D01*
X103965102Y-72115226D01*
X104165061Y-72155000D01*
X104368939Y-72155000D01*
X104568898Y-72115226D01*
X104757256Y-72037205D01*
X104926774Y-71923937D01*
X105070937Y-71779774D01*
X105184205Y-71610256D01*
X105262226Y-71421898D01*
X105302000Y-71221939D01*
X105302000Y-71018061D01*
X105262226Y-70818102D01*
X105184205Y-70629744D01*
X105070937Y-70460226D01*
X104926774Y-70316063D01*
X104757256Y-70202795D01*
X104568898Y-70124774D01*
X104368939Y-70085000D01*
X104165061Y-70085000D01*
X103965102Y-70124774D01*
X103776744Y-70202795D01*
X103607226Y-70316063D01*
X103463063Y-70460226D01*
X103349795Y-70629744D01*
X103271774Y-70818102D01*
X103232000Y-71018061D01*
X95396000Y-71018061D01*
X95356226Y-70818102D01*
X95278205Y-70629744D01*
X95164937Y-70460226D01*
X95126211Y-70421500D01*
X95164937Y-70382774D01*
X95278205Y-70213256D01*
X95356226Y-70024898D01*
X95396000Y-69824939D01*
X95396000Y-69621061D01*
X95356226Y-69421102D01*
X95278205Y-69232744D01*
X95164937Y-69063226D01*
X95020774Y-68919063D01*
X94851256Y-68805795D01*
X94662898Y-68727774D01*
X94462939Y-68688000D01*
X94259061Y-68688000D01*
X94059102Y-68727774D01*
X93870744Y-68805795D01*
X93701226Y-68919063D01*
X93557063Y-69063226D01*
X93443795Y-69232744D01*
X93365774Y-69421102D01*
X93326000Y-69621061D01*
X88973141Y-69621061D01*
X86969600Y-67617521D01*
X86969600Y-66259111D01*
X87036937Y-66191774D01*
X87150205Y-66022256D01*
X87211615Y-65874000D01*
X108747928Y-65874000D01*
X108760188Y-65998482D01*
X108796498Y-66118180D01*
X108855463Y-66228494D01*
X108934815Y-66325185D01*
X109031506Y-66404537D01*
X109141820Y-66463502D01*
X109214380Y-66485513D01*
X109082525Y-66617368D01*
X108920010Y-66860589D01*
X108808068Y-67130842D01*
X108751000Y-67417740D01*
X108751000Y-67710260D01*
X108808068Y-67997158D01*
X108920010Y-68267411D01*
X109082525Y-68510632D01*
X109289368Y-68717475D01*
X109463760Y-68834000D01*
X109289368Y-68950525D01*
X109082525Y-69157368D01*
X108920010Y-69400589D01*
X108808068Y-69670842D01*
X108751000Y-69957740D01*
X108751000Y-70250260D01*
X108808068Y-70537158D01*
X108920010Y-70807411D01*
X109082525Y-71050632D01*
X109289368Y-71257475D01*
X109463760Y-71374000D01*
X109289368Y-71490525D01*
X109082525Y-71697368D01*
X108920010Y-71940589D01*
X108808068Y-72210842D01*
X108751000Y-72497740D01*
X108751000Y-72790260D01*
X108808068Y-73077158D01*
X108920010Y-73347411D01*
X109082525Y-73590632D01*
X109289368Y-73797475D01*
X109532589Y-73959990D01*
X109802842Y-74071932D01*
X110089740Y-74129000D01*
X110382260Y-74129000D01*
X110669158Y-74071932D01*
X110939411Y-73959990D01*
X111182632Y-73797475D01*
X111389475Y-73590632D01*
X111551990Y-73347411D01*
X111663932Y-73077158D01*
X111721000Y-72790260D01*
X111721000Y-72497740D01*
X111663932Y-72210842D01*
X111551990Y-71940589D01*
X111389475Y-71697368D01*
X111182632Y-71490525D01*
X111008240Y-71374000D01*
X111182632Y-71257475D01*
X111389475Y-71050632D01*
X111551990Y-70807411D01*
X111663932Y-70537158D01*
X111721000Y-70250260D01*
X111721000Y-69957740D01*
X111663932Y-69670842D01*
X111551990Y-69400589D01*
X111389475Y-69157368D01*
X111182632Y-68950525D01*
X111008240Y-68834000D01*
X111182632Y-68717475D01*
X111389475Y-68510632D01*
X111551990Y-68267411D01*
X111663932Y-67997158D01*
X111721000Y-67710260D01*
X111721000Y-67417740D01*
X111663932Y-67130842D01*
X111551990Y-66860589D01*
X111389475Y-66617368D01*
X111257620Y-66485513D01*
X111330180Y-66463502D01*
X111440494Y-66404537D01*
X111537185Y-66325185D01*
X111616537Y-66228494D01*
X111675502Y-66118180D01*
X111711812Y-65998482D01*
X111724072Y-65874000D01*
X111721000Y-65309750D01*
X111562250Y-65151000D01*
X110363000Y-65151000D01*
X110363000Y-65171000D01*
X110109000Y-65171000D01*
X110109000Y-65151000D01*
X108909750Y-65151000D01*
X108751000Y-65309750D01*
X108747928Y-65874000D01*
X87211615Y-65874000D01*
X87228226Y-65833898D01*
X87268000Y-65633939D01*
X87268000Y-65430061D01*
X87228226Y-65230102D01*
X87150205Y-65041744D01*
X87036937Y-64872226D01*
X86892774Y-64728063D01*
X86723256Y-64614795D01*
X86534898Y-64536774D01*
X86334939Y-64497000D01*
X86131061Y-64497000D01*
X85931102Y-64536774D01*
X85742744Y-64614795D01*
X85573226Y-64728063D01*
X85429063Y-64872226D01*
X85315795Y-65041744D01*
X85237774Y-65230102D01*
X85198000Y-65430061D01*
X85198000Y-65633939D01*
X85237774Y-65833898D01*
X85315795Y-66022256D01*
X85429063Y-66191774D01*
X85496401Y-66259112D01*
X85496400Y-67374061D01*
X85391898Y-67330774D01*
X85191939Y-67291000D01*
X84988061Y-67291000D01*
X84788102Y-67330774D01*
X84599744Y-67408795D01*
X84430226Y-67522063D01*
X84286063Y-67666226D01*
X84172795Y-67835744D01*
X84094774Y-68024102D01*
X84055000Y-68224061D01*
X84055000Y-68427939D01*
X84094774Y-68627898D01*
X84172795Y-68816256D01*
X84286063Y-68985774D01*
X84430226Y-69129937D01*
X84599744Y-69243205D01*
X84788102Y-69321226D01*
X84988061Y-69361000D01*
X85191939Y-69361000D01*
X85391898Y-69321226D01*
X85580256Y-69243205D01*
X85749774Y-69129937D01*
X85893937Y-68985774D01*
X86007205Y-68816256D01*
X86029966Y-68761305D01*
X99831404Y-82562744D01*
X99831404Y-83400324D01*
X92202417Y-75771338D01*
X92179346Y-75743226D01*
X92067184Y-75651177D01*
X91939220Y-75582779D01*
X91800370Y-75540659D01*
X91692157Y-75530001D01*
X91692154Y-75530001D01*
X91655971Y-75526437D01*
X91619788Y-75530001D01*
X89271711Y-75530001D01*
X82061000Y-68319291D01*
X82061000Y-68224061D01*
X82021226Y-68024102D01*
X81943205Y-67835744D01*
X81829937Y-67666226D01*
X81685774Y-67522063D01*
X81516256Y-67408795D01*
X81327898Y-67330774D01*
X81127939Y-67291000D01*
X80924061Y-67291000D01*
X80724102Y-67330774D01*
X80535744Y-67408795D01*
X80366226Y-67522063D01*
X80222063Y-67666226D01*
X80108795Y-67835744D01*
X80030774Y-68024102D01*
X79991000Y-68224061D01*
X79991000Y-68427939D01*
X80030774Y-68627898D01*
X80108795Y-68816256D01*
X80222063Y-68985774D01*
X80366226Y-69129937D01*
X80535744Y-69243205D01*
X80724102Y-69321226D01*
X80924061Y-69361000D01*
X81019291Y-69361000D01*
X84502509Y-72844218D01*
X84375898Y-72791774D01*
X84175939Y-72752000D01*
X83972061Y-72752000D01*
X83772102Y-72791774D01*
X83583744Y-72869795D01*
X83566000Y-72881651D01*
X83548256Y-72869795D01*
X83359898Y-72791774D01*
X83159939Y-72752000D01*
X82956061Y-72752000D01*
X82756102Y-72791774D01*
X82567744Y-72869795D01*
X82398226Y-72983063D01*
X82275499Y-73105790D01*
X79282999Y-70113290D01*
X79282999Y-64160061D01*
X95104000Y-64160061D01*
X95104000Y-64363939D01*
X95143774Y-64563898D01*
X95221795Y-64752256D01*
X95335063Y-64921774D01*
X95479226Y-65065937D01*
X95648744Y-65179205D01*
X95837102Y-65257226D01*
X96037061Y-65297000D01*
X96240939Y-65297000D01*
X96440898Y-65257226D01*
X96629256Y-65179205D01*
X96798774Y-65065937D01*
X96942937Y-64921774D01*
X97056205Y-64752256D01*
X97134226Y-64563898D01*
X97174000Y-64363939D01*
X97174000Y-64174000D01*
X108747928Y-64174000D01*
X108751000Y-64738250D01*
X108909750Y-64897000D01*
X110109000Y-64897000D01*
X110109000Y-63697750D01*
X110363000Y-63697750D01*
X110363000Y-64897000D01*
X111562250Y-64897000D01*
X111721000Y-64738250D01*
X111724072Y-64174000D01*
X111711812Y-64049518D01*
X111675502Y-63929820D01*
X111616537Y-63819506D01*
X111537185Y-63722815D01*
X111440494Y-63643463D01*
X111330180Y-63584498D01*
X111210482Y-63548188D01*
X111086000Y-63535928D01*
X110521750Y-63539000D01*
X110363000Y-63697750D01*
X110109000Y-63697750D01*
X109950250Y-63539000D01*
X109386000Y-63535928D01*
X109261518Y-63548188D01*
X109141820Y-63584498D01*
X109031506Y-63643463D01*
X108934815Y-63722815D01*
X108855463Y-63819506D01*
X108796498Y-63929820D01*
X108760188Y-64049518D01*
X108747928Y-64174000D01*
X97174000Y-64174000D01*
X97174000Y-64160061D01*
X97134226Y-63960102D01*
X97056205Y-63771744D01*
X96942937Y-63602226D01*
X96798774Y-63458063D01*
X96629256Y-63344795D01*
X96440898Y-63266774D01*
X96240939Y-63227000D01*
X96037061Y-63227000D01*
X95837102Y-63266774D01*
X95648744Y-63344795D01*
X95479226Y-63458063D01*
X95335063Y-63602226D01*
X95221795Y-63771744D01*
X95143774Y-63960102D01*
X95104000Y-64160061D01*
X79282999Y-64160061D01*
X79282999Y-56738585D01*
X79286563Y-56702399D01*
X79272341Y-56558000D01*
X79230221Y-56419151D01*
X79230221Y-56419150D01*
X79161823Y-56291186D01*
X79069774Y-56179024D01*
X79041668Y-56155958D01*
X76727000Y-53841291D01*
X76727000Y-53746061D01*
X76687226Y-53546102D01*
X76609205Y-53357744D01*
X76495937Y-53188226D01*
X76351774Y-53044063D01*
X76182256Y-52930795D01*
X75993898Y-52852774D01*
X75793939Y-52813000D01*
X75590061Y-52813000D01*
X75390102Y-52852774D01*
X75201744Y-52930795D01*
X75032226Y-53044063D01*
X74888063Y-53188226D01*
X74774795Y-53357744D01*
X74696774Y-53546102D01*
X74657000Y-53746061D01*
X74657000Y-53949939D01*
X74696774Y-54149898D01*
X74774795Y-54338256D01*
X74888063Y-54507774D01*
X75032226Y-54651937D01*
X75201744Y-54765205D01*
X75390102Y-54843226D01*
X75590061Y-54883000D01*
X75685291Y-54883000D01*
X77436866Y-56634576D01*
X77295102Y-56662774D01*
X77106744Y-56740795D01*
X76937226Y-56854063D01*
X76793063Y-56998226D01*
X76679795Y-57167744D01*
X76601774Y-57356102D01*
X76562000Y-57556061D01*
X76562000Y-57759939D01*
X76601774Y-57959898D01*
X76679795Y-58148256D01*
X76793063Y-58317774D01*
X76860401Y-58385112D01*
X76860400Y-72734814D01*
X76856836Y-72771000D01*
X76871058Y-72915399D01*
X76913178Y-73054249D01*
X76981576Y-73182213D01*
X77073625Y-73294375D01*
X77101737Y-73317446D01*
X89464393Y-85680103D01*
X89464393Y-85775332D01*
X89465069Y-85778729D01*
X76047600Y-72361261D01*
X76047600Y-59655111D01*
X76114937Y-59587774D01*
X76228205Y-59418256D01*
X76306226Y-59229898D01*
X76346000Y-59029939D01*
X76346000Y-58826061D01*
X76306226Y-58626102D01*
X76228205Y-58437744D01*
X76114937Y-58268226D01*
X75970774Y-58124063D01*
X75801256Y-58010795D01*
X75612898Y-57932774D01*
X75412939Y-57893000D01*
X75209061Y-57893000D01*
X75009102Y-57932774D01*
X74820744Y-58010795D01*
X74651226Y-58124063D01*
X74507063Y-58268226D01*
X74393795Y-58437744D01*
X74315774Y-58626102D01*
X74276000Y-58826061D01*
X66725000Y-58826061D01*
X66725000Y-49936061D01*
X74022000Y-49936061D01*
X74022000Y-50139939D01*
X74061774Y-50339898D01*
X74139795Y-50528256D01*
X74253063Y-50697774D01*
X74397226Y-50841937D01*
X74566744Y-50955205D01*
X74755102Y-51033226D01*
X74955061Y-51073000D01*
X75158939Y-51073000D01*
X75358898Y-51033226D01*
X75547256Y-50955205D01*
X75716774Y-50841937D01*
X75860937Y-50697774D01*
X75974205Y-50528256D01*
X76026299Y-50402490D01*
X81681000Y-50402490D01*
X81681000Y-51197509D01*
X81709722Y-51489127D01*
X81823226Y-51863301D01*
X82007547Y-52208143D01*
X82255602Y-52510398D01*
X82557857Y-52758453D01*
X82902698Y-52942774D01*
X83276872Y-53056278D01*
X83666000Y-53094604D01*
X84055127Y-53056278D01*
X84429301Y-52942774D01*
X84774143Y-52758453D01*
X85076398Y-52510398D01*
X85324453Y-52208143D01*
X85508774Y-51863302D01*
X85622278Y-51489128D01*
X85651000Y-51197510D01*
X85651000Y-50402491D01*
X85651000Y-50402490D01*
X85881000Y-50402490D01*
X85881000Y-51197509D01*
X85909722Y-51489127D01*
X86023226Y-51863301D01*
X86207547Y-52208143D01*
X86455602Y-52510398D01*
X86757857Y-52758453D01*
X87102698Y-52942774D01*
X87476872Y-53056278D01*
X87866000Y-53094604D01*
X88255127Y-53056278D01*
X88629301Y-52942774D01*
X88974143Y-52758453D01*
X89276398Y-52510398D01*
X89524453Y-52208143D01*
X89708774Y-51863302D01*
X89822278Y-51489128D01*
X89851000Y-51197510D01*
X89851000Y-50927000D01*
X90081000Y-50927000D01*
X90081000Y-51227000D01*
X90143918Y-51611814D01*
X90280700Y-51976959D01*
X90486090Y-52308403D01*
X90752195Y-52593409D01*
X91068789Y-52821024D01*
X91423705Y-52982501D01*
X91630677Y-53036677D01*
X91939000Y-52921829D01*
X91939000Y-50927000D01*
X92193000Y-50927000D01*
X92193000Y-52921829D01*
X92501323Y-53036677D01*
X92708295Y-52982501D01*
X93063211Y-52821024D01*
X93379805Y-52593409D01*
X93645910Y-52308403D01*
X93851300Y-51976959D01*
X93988082Y-51611814D01*
X94051000Y-51227000D01*
X94051000Y-50927000D01*
X92193000Y-50927000D01*
X91939000Y-50927000D01*
X90081000Y-50927000D01*
X89851000Y-50927000D01*
X89851000Y-50402491D01*
X89848096Y-50373000D01*
X90081000Y-50373000D01*
X90081000Y-50673000D01*
X91939000Y-50673000D01*
X91939000Y-48678171D01*
X92193000Y-48678171D01*
X92193000Y-50673000D01*
X94051000Y-50673000D01*
X94051000Y-50373000D01*
X93988082Y-49988186D01*
X93851300Y-49623041D01*
X93713087Y-49400001D01*
X94277928Y-49400001D01*
X94277928Y-52199999D01*
X94294992Y-52373253D01*
X94345529Y-52539850D01*
X94427595Y-52693386D01*
X94538039Y-52827961D01*
X94672614Y-52938405D01*
X94826150Y-53020471D01*
X94992747Y-53071008D01*
X95166001Y-53088072D01*
X97365999Y-53088072D01*
X97539253Y-53071008D01*
X97705850Y-53020471D01*
X97859386Y-52938405D01*
X97993961Y-52827961D01*
X98104405Y-52693386D01*
X98186471Y-52539850D01*
X98237008Y-52373253D01*
X98254072Y-52199999D01*
X98254072Y-49400001D01*
X98237008Y-49226747D01*
X98186471Y-49060150D01*
X98104405Y-48906614D01*
X97993961Y-48772039D01*
X97859386Y-48661595D01*
X97705850Y-48579529D01*
X97539253Y-48528992D01*
X97365999Y-48511928D01*
X95166001Y-48511928D01*
X94992747Y-48528992D01*
X94826150Y-48579529D01*
X94672614Y-48661595D01*
X94538039Y-48772039D01*
X94427595Y-48906614D01*
X94345529Y-49060150D01*
X94294992Y-49226747D01*
X94277928Y-49400001D01*
X93713087Y-49400001D01*
X93645910Y-49291597D01*
X93379805Y-49006591D01*
X93063211Y-48778976D01*
X92708295Y-48617499D01*
X92501323Y-48563323D01*
X92193000Y-48678171D01*
X91939000Y-48678171D01*
X91630677Y-48563323D01*
X91423705Y-48617499D01*
X91068789Y-48778976D01*
X90752195Y-49006591D01*
X90486090Y-49291597D01*
X90280700Y-49623041D01*
X90143918Y-49988186D01*
X90081000Y-50373000D01*
X89848096Y-50373000D01*
X89822278Y-50110873D01*
X89708774Y-49736698D01*
X89524453Y-49391857D01*
X89276398Y-49089602D01*
X88974143Y-48841547D01*
X88629302Y-48657226D01*
X88255128Y-48543722D01*
X87866000Y-48505396D01*
X87476873Y-48543722D01*
X87102699Y-48657226D01*
X86757858Y-48841547D01*
X86455603Y-49089602D01*
X86207547Y-49391857D01*
X86023226Y-49736698D01*
X85909722Y-50110872D01*
X85881000Y-50402490D01*
X85651000Y-50402490D01*
X85622278Y-50110873D01*
X85508774Y-49736698D01*
X85324453Y-49391857D01*
X85076398Y-49089602D01*
X84774143Y-48841547D01*
X84429302Y-48657226D01*
X84055128Y-48543722D01*
X83666000Y-48505396D01*
X83276873Y-48543722D01*
X82902699Y-48657226D01*
X82557858Y-48841547D01*
X82255603Y-49089602D01*
X82007547Y-49391857D01*
X81823226Y-49736698D01*
X81709722Y-50110872D01*
X81681000Y-50402490D01*
X76026299Y-50402490D01*
X76052226Y-50339898D01*
X76092000Y-50139939D01*
X76092000Y-49936061D01*
X76052226Y-49736102D01*
X75974205Y-49547744D01*
X75860937Y-49378226D01*
X75716774Y-49234063D01*
X75547256Y-49120795D01*
X75358898Y-49042774D01*
X75158939Y-49003000D01*
X74955061Y-49003000D01*
X74755102Y-49042774D01*
X74566744Y-49120795D01*
X74397226Y-49234063D01*
X74253063Y-49378226D01*
X74139795Y-49547744D01*
X74061774Y-49736102D01*
X74022000Y-49936061D01*
X66725000Y-49936061D01*
X66725000Y-47311787D01*
X67125161Y-47910670D01*
X67659330Y-48444839D01*
X68287446Y-48864533D01*
X68985372Y-49153623D01*
X69726285Y-49301000D01*
X70481715Y-49301000D01*
X71222628Y-49153623D01*
X71920554Y-48864533D01*
X72548670Y-48444839D01*
X73082839Y-47910670D01*
X73502533Y-47282554D01*
X73791623Y-46584628D01*
X73939000Y-45843715D01*
X73939000Y-45427000D01*
X81681000Y-45427000D01*
X81681000Y-45727000D01*
X81743918Y-46111814D01*
X81880700Y-46476959D01*
X82086090Y-46808403D01*
X82352195Y-47093409D01*
X82668789Y-47321024D01*
X83023705Y-47482501D01*
X83230677Y-47536677D01*
X83539000Y-47421829D01*
X83539000Y-45427000D01*
X83793000Y-45427000D01*
X83793000Y-47421829D01*
X84101323Y-47536677D01*
X84308295Y-47482501D01*
X84663211Y-47321024D01*
X84979805Y-47093409D01*
X85245910Y-46808403D01*
X85451300Y-46476959D01*
X85588082Y-46111814D01*
X85651000Y-45727000D01*
X85651000Y-45427000D01*
X83793000Y-45427000D01*
X83539000Y-45427000D01*
X81681000Y-45427000D01*
X73939000Y-45427000D01*
X73939000Y-45088285D01*
X73896178Y-44873000D01*
X81681000Y-44873000D01*
X81681000Y-45173000D01*
X83539000Y-45173000D01*
X83539000Y-43178171D01*
X83793000Y-43178171D01*
X83793000Y-45173000D01*
X85651000Y-45173000D01*
X85651000Y-44902490D01*
X85881000Y-44902490D01*
X85881000Y-45697509D01*
X85909722Y-45989127D01*
X86023226Y-46363301D01*
X86207547Y-46708143D01*
X86455602Y-47010398D01*
X86757857Y-47258453D01*
X87102698Y-47442774D01*
X87476872Y-47556278D01*
X87866000Y-47594604D01*
X88255127Y-47556278D01*
X88629301Y-47442774D01*
X88974143Y-47258453D01*
X89276398Y-47010398D01*
X89524453Y-46708143D01*
X89708774Y-46363302D01*
X89822278Y-45989128D01*
X89851000Y-45697510D01*
X89851000Y-44902491D01*
X89851000Y-44902490D01*
X90081000Y-44902490D01*
X90081000Y-45697509D01*
X90109722Y-45989127D01*
X90223226Y-46363301D01*
X90407547Y-46708143D01*
X90655602Y-47010398D01*
X90957857Y-47258453D01*
X91302698Y-47442774D01*
X91676872Y-47556278D01*
X92066000Y-47594604D01*
X92455127Y-47556278D01*
X92829301Y-47442774D01*
X93174143Y-47258453D01*
X93476398Y-47010398D01*
X93724453Y-46708143D01*
X93908774Y-46363302D01*
X94022278Y-45989128D01*
X94051000Y-45697510D01*
X94051000Y-45427000D01*
X94281000Y-45427000D01*
X94281000Y-45727000D01*
X94343918Y-46111814D01*
X94480700Y-46476959D01*
X94686090Y-46808403D01*
X94952195Y-47093409D01*
X95268789Y-47321024D01*
X95623705Y-47482501D01*
X95830677Y-47536677D01*
X96139000Y-47421829D01*
X96139000Y-45427000D01*
X96393000Y-45427000D01*
X96393000Y-47421829D01*
X96701323Y-47536677D01*
X96908295Y-47482501D01*
X97263211Y-47321024D01*
X97579805Y-47093409D01*
X97845910Y-46808403D01*
X98051300Y-46476959D01*
X98188082Y-46111814D01*
X98251000Y-45727000D01*
X98251000Y-45427000D01*
X96393000Y-45427000D01*
X96139000Y-45427000D01*
X94281000Y-45427000D01*
X94051000Y-45427000D01*
X94051000Y-44902491D01*
X94048096Y-44873000D01*
X94281000Y-44873000D01*
X94281000Y-45173000D01*
X96139000Y-45173000D01*
X96139000Y-43178171D01*
X96393000Y-43178171D01*
X96393000Y-45173000D01*
X98251000Y-45173000D01*
X98251000Y-44873000D01*
X98188082Y-44488186D01*
X98051300Y-44123041D01*
X97845910Y-43791597D01*
X97579805Y-43506591D01*
X97263211Y-43278976D01*
X96908295Y-43117499D01*
X96701323Y-43063323D01*
X96393000Y-43178171D01*
X96139000Y-43178171D01*
X95830677Y-43063323D01*
X95623705Y-43117499D01*
X95268789Y-43278976D01*
X94952195Y-43506591D01*
X94686090Y-43791597D01*
X94480700Y-44123041D01*
X94343918Y-44488186D01*
X94281000Y-44873000D01*
X94048096Y-44873000D01*
X94022278Y-44610873D01*
X93908774Y-44236698D01*
X93724453Y-43891857D01*
X93476398Y-43589602D01*
X93174143Y-43341547D01*
X92829302Y-43157226D01*
X92455128Y-43043722D01*
X92066000Y-43005396D01*
X91676873Y-43043722D01*
X91302699Y-43157226D01*
X90957858Y-43341547D01*
X90655603Y-43589602D01*
X90407547Y-43891857D01*
X90223226Y-44236698D01*
X90109722Y-44610872D01*
X90081000Y-44902490D01*
X89851000Y-44902490D01*
X89822278Y-44610873D01*
X89708774Y-44236698D01*
X89524453Y-43891857D01*
X89276398Y-43589602D01*
X88974143Y-43341547D01*
X88629302Y-43157226D01*
X88255128Y-43043722D01*
X87866000Y-43005396D01*
X87476873Y-43043722D01*
X87102699Y-43157226D01*
X86757858Y-43341547D01*
X86455603Y-43589602D01*
X86207547Y-43891857D01*
X86023226Y-44236698D01*
X85909722Y-44610872D01*
X85881000Y-44902490D01*
X85651000Y-44902490D01*
X85651000Y-44873000D01*
X85588082Y-44488186D01*
X85451300Y-44123041D01*
X85245910Y-43791597D01*
X84979805Y-43506591D01*
X84663211Y-43278976D01*
X84308295Y-43117499D01*
X84101323Y-43063323D01*
X83793000Y-43178171D01*
X83539000Y-43178171D01*
X83230677Y-43063323D01*
X83023705Y-43117499D01*
X82668789Y-43278976D01*
X82352195Y-43506591D01*
X82086090Y-43791597D01*
X81880700Y-44123041D01*
X81743918Y-44488186D01*
X81681000Y-44873000D01*
X73896178Y-44873000D01*
X73791623Y-44347372D01*
X73502533Y-43649446D01*
X73082839Y-43021330D01*
X72548670Y-42487161D01*
X71949787Y-42087000D01*
X106866213Y-42087000D01*
X106267330Y-42487161D01*
G37*
X106267330Y-42487161D02*
X105733161Y-43021330D01*
X105313467Y-43649446D01*
X105024377Y-44347372D01*
X104877000Y-45088285D01*
X104877000Y-45843715D01*
X105024377Y-46584628D01*
X105313467Y-47282554D01*
X105733161Y-47910670D01*
X106267330Y-48444839D01*
X106895446Y-48864533D01*
X107593372Y-49153623D01*
X108334285Y-49301000D01*
X109089715Y-49301000D01*
X109830628Y-49153623D01*
X110528554Y-48864533D01*
X111156670Y-48444839D01*
X111690839Y-47910670D01*
X112091001Y-47311786D01*
X112091000Y-91066865D01*
X112024578Y-90966526D01*
X111853225Y-90793693D01*
X111651446Y-90657610D01*
X111426996Y-90563507D01*
X111188500Y-90515000D01*
X110838500Y-90515000D01*
X110838500Y-91623000D01*
X110858500Y-91623000D01*
X110858500Y-91877000D01*
X110838500Y-91877000D01*
X110838500Y-92985000D01*
X111188500Y-92985000D01*
X111426996Y-92936493D01*
X111651446Y-92842390D01*
X111853225Y-92706307D01*
X112024578Y-92533474D01*
X112091000Y-92433135D01*
X112091000Y-98066864D01*
X112024578Y-97966526D01*
X111853225Y-97793693D01*
X111651446Y-97657610D01*
X111426996Y-97563507D01*
X111188500Y-97515000D01*
X110838500Y-97515000D01*
X110838500Y-98623000D01*
X110858500Y-98623000D01*
X110858500Y-98877000D01*
X110838500Y-98877000D01*
X110838500Y-99985000D01*
X111188500Y-99985000D01*
X111426996Y-99936493D01*
X111651446Y-99842390D01*
X111853225Y-99706307D01*
X112024578Y-99533474D01*
X112091000Y-99433136D01*
X112091000Y-104326213D01*
X111690839Y-103727330D01*
X111156670Y-103193161D01*
X110528554Y-102773467D01*
X109830628Y-102484377D01*
X109089715Y-102337000D01*
X108334285Y-102337000D01*
X107593372Y-102484377D01*
X106895446Y-102773467D01*
X106267330Y-103193161D01*
X105733161Y-103727330D01*
X105313467Y-104355446D01*
X105024377Y-105053372D01*
X104877000Y-105794285D01*
X104877000Y-106549715D01*
X105024377Y-107290628D01*
X105313467Y-107988554D01*
X105733161Y-108616670D01*
X106267330Y-109150839D01*
X106866213Y-109551000D01*
X71949787Y-109551000D01*
X72548670Y-109150839D01*
X73082839Y-108616670D01*
X73502533Y-107988554D01*
X73791623Y-107290628D01*
X73933361Y-106578061D01*
X90151000Y-106578061D01*
X90151000Y-106781939D01*
X90190774Y-106981898D01*
X90268795Y-107170256D01*
X90382063Y-107339774D01*
X90526226Y-107483937D01*
X90695744Y-107597205D01*
X90884102Y-107675226D01*
X91084061Y-107715000D01*
X91287939Y-107715000D01*
X91487898Y-107675226D01*
X91676256Y-107597205D01*
X91845774Y-107483937D01*
X91989937Y-107339774D01*
X92103205Y-107170256D01*
X92181226Y-106981898D01*
X92221000Y-106781939D01*
X92221000Y-106578061D01*
X92181226Y-106378102D01*
X92103205Y-106189744D01*
X91989937Y-106020226D01*
X91845774Y-105876063D01*
X91676256Y-105762795D01*
X91487898Y-105684774D01*
X91287939Y-105645000D01*
X91084061Y-105645000D01*
X90884102Y-105684774D01*
X90695744Y-105762795D01*
X90526226Y-105876063D01*
X90382063Y-106020226D01*
X90268795Y-106189744D01*
X90190774Y-106378102D01*
X90151000Y-106578061D01*
X73933361Y-106578061D01*
X73939000Y-106549715D01*
X73939000Y-105794285D01*
X73791623Y-105053372D01*
X73502533Y-104355446D01*
X73082839Y-103727330D01*
X72548670Y-103193161D01*
X71920554Y-102773467D01*
X71222628Y-102484377D01*
X70481715Y-102337000D01*
X69726285Y-102337000D01*
X68985372Y-102484377D01*
X68287446Y-102773467D01*
X67659330Y-103193161D01*
X67125161Y-103727330D01*
X66725000Y-104326213D01*
X66725000Y-81533651D01*
X67151815Y-81533651D01*
X67155380Y-81569844D01*
X67155379Y-97370616D01*
X67151815Y-97406799D01*
X67155379Y-97442982D01*
X67155379Y-97442984D01*
X67166037Y-97551197D01*
X67208157Y-97690047D01*
X67276555Y-97818011D01*
X67368604Y-97930173D01*
X67396711Y-97953240D01*
X68678138Y-99234668D01*
X68701204Y-99262774D01*
X68729310Y-99285840D01*
X68729311Y-99285841D01*
X68813366Y-99354823D01*
X68941330Y-99423221D01*
X69080180Y-99465341D01*
X69188393Y-99475999D01*
X69188395Y-99475999D01*
X69224579Y-99479563D01*
X69260762Y-99475999D01*
X83014277Y-99475999D01*
X83050460Y-99479563D01*
X83086643Y-99475999D01*
X83086646Y-99475999D01*
X83194859Y-99465341D01*
X83333709Y-99423221D01*
X83461673Y-99354823D01*
X83573835Y-99262774D01*
X83596906Y-99234662D01*
X89495104Y-93336465D01*
X89546713Y-93461061D01*
X89643566Y-93606011D01*
X89766835Y-93729280D01*
X89911785Y-93826133D01*
X90072845Y-93892846D01*
X90243825Y-93926856D01*
X90418155Y-93926856D01*
X90589135Y-93892846D01*
X90750195Y-93826133D01*
X90895145Y-93729280D01*
X91018414Y-93606011D01*
X91115267Y-93461061D01*
X91181980Y-93300001D01*
X91204134Y-93188625D01*
X91264811Y-93075106D01*
X91306931Y-92936256D01*
X91317589Y-92828043D01*
X91317589Y-92828042D01*
X91321153Y-92791857D01*
X91317589Y-92755671D01*
X91317589Y-92296929D01*
X91321152Y-92260753D01*
X91317589Y-92224577D01*
X91317589Y-92224568D01*
X91306931Y-92116355D01*
X91264811Y-91977505D01*
X91196413Y-91849541D01*
X91140343Y-91781219D01*
X91127431Y-91765486D01*
X91127430Y-91765485D01*
X91104364Y-91737379D01*
X91076258Y-91714313D01*
X90477239Y-91115295D01*
X90537612Y-91083025D01*
X90649774Y-90990976D01*
X90672844Y-90962865D01*
X90851977Y-90783732D01*
X90936145Y-90766990D01*
X91097205Y-90700277D01*
X91242155Y-90603424D01*
X91365424Y-90480155D01*
X91462277Y-90335205D01*
X91528990Y-90174145D01*
X91563000Y-90003165D01*
X91563000Y-89828835D01*
X91528990Y-89657855D01*
X91462277Y-89496795D01*
X91365424Y-89351845D01*
X91242155Y-89228576D01*
X91097205Y-89131723D01*
X90936145Y-89065010D01*
X90765165Y-89031000D01*
X90590835Y-89031000D01*
X90419855Y-89065010D01*
X90258795Y-89131723D01*
X90113845Y-89228576D01*
X89990576Y-89351845D01*
X89893723Y-89496795D01*
X89827010Y-89657855D01*
X89812460Y-89731001D01*
X88827150Y-89731001D01*
X88878915Y-89634156D01*
X88921035Y-89495306D01*
X88931693Y-89387093D01*
X88931693Y-89387084D01*
X88935256Y-89350908D01*
X88931693Y-89314732D01*
X88931693Y-87690940D01*
X88935257Y-87654754D01*
X88921035Y-87510355D01*
X88900482Y-87442601D01*
X88878915Y-87371505D01*
X88810517Y-87243541D01*
X88718468Y-87131379D01*
X88690362Y-87108313D01*
X87192784Y-85610736D01*
X87169714Y-85582625D01*
X87057552Y-85490576D01*
X86929588Y-85422178D01*
X86790738Y-85380058D01*
X86682525Y-85369400D01*
X86682522Y-85369400D01*
X86646339Y-85365836D01*
X86610156Y-85369400D01*
X85141110Y-85369400D01*
X82334442Y-82562732D01*
X73825719Y-74054010D01*
X73875000Y-73806260D01*
X73875000Y-73513740D01*
X73817932Y-73226842D01*
X73705990Y-72956589D01*
X73543475Y-72713368D01*
X73336632Y-72506525D01*
X73162240Y-72390000D01*
X73336632Y-72273475D01*
X73543475Y-72066632D01*
X73705990Y-71823411D01*
X73817932Y-71553158D01*
X73875000Y-71266260D01*
X73875000Y-70973740D01*
X73817932Y-70686842D01*
X73705990Y-70416589D01*
X73543475Y-70173368D01*
X73336632Y-69966525D01*
X73162240Y-69850000D01*
X73336632Y-69733475D01*
X73543475Y-69526632D01*
X73705990Y-69283411D01*
X73817932Y-69013158D01*
X73875000Y-68726260D01*
X73875000Y-68433740D01*
X73817932Y-68146842D01*
X73705990Y-67876589D01*
X73543475Y-67633368D01*
X73336632Y-67426525D01*
X73163271Y-67310689D01*
X73238792Y-67068397D01*
X72390000Y-66219605D01*
X71541208Y-67068397D01*
X71616729Y-67310689D01*
X71443368Y-67426525D01*
X71236525Y-67633368D01*
X71120000Y-67807760D01*
X71003475Y-67633368D01*
X70796632Y-67426525D01*
X70623271Y-67310689D01*
X70698792Y-67068397D01*
X69850000Y-66219605D01*
X69001208Y-67068397D01*
X69076729Y-67310689D01*
X68903368Y-67426525D01*
X68696525Y-67633368D01*
X68534010Y-67876589D01*
X68422068Y-68146842D01*
X68365000Y-68433740D01*
X68365000Y-68726260D01*
X68422068Y-69013158D01*
X68534010Y-69283411D01*
X68696525Y-69526632D01*
X68903368Y-69733475D01*
X69077760Y-69850000D01*
X68903368Y-69966525D01*
X68696525Y-70173368D01*
X68534010Y-70416589D01*
X68422068Y-70686842D01*
X68365000Y-70973740D01*
X68365000Y-71266260D01*
X68422068Y-71553158D01*
X68534010Y-71823411D01*
X68696525Y-72066632D01*
X68903368Y-72273475D01*
X69077760Y-72390000D01*
X68903368Y-72506525D01*
X68696525Y-72713368D01*
X68534010Y-72956589D01*
X68422068Y-73226842D01*
X68365000Y-73513740D01*
X68365000Y-73806260D01*
X68414281Y-74054010D01*
X68203131Y-74265160D01*
X68175025Y-74288226D01*
X68151959Y-74316332D01*
X68151957Y-74316334D01*
X68082975Y-74400389D01*
X68014577Y-74528354D01*
X67972458Y-74667203D01*
X67958235Y-74811601D01*
X67961800Y-74847794D01*
X67961799Y-76716585D01*
X67958235Y-76752769D01*
X67961799Y-76788952D01*
X67961799Y-76788954D01*
X67972457Y-76897167D01*
X68014577Y-77036017D01*
X68068993Y-77137822D01*
X68082975Y-77163981D01*
X68120963Y-77210269D01*
X68175024Y-77276143D01*
X68203131Y-77299210D01*
X68696907Y-77792986D01*
X68696525Y-77793368D01*
X68534010Y-78036589D01*
X68422068Y-78306842D01*
X68365000Y-78593740D01*
X68365000Y-78886260D01*
X68422068Y-79173158D01*
X68534010Y-79443411D01*
X68696525Y-79686632D01*
X68696907Y-79687014D01*
X67396711Y-80987210D01*
X67368605Y-81010276D01*
X67345539Y-81038382D01*
X67345537Y-81038384D01*
X67276555Y-81122439D01*
X67208157Y-81250404D01*
X67166038Y-81389253D01*
X67151815Y-81533651D01*
X66725000Y-81533651D01*
X66725000Y-66108531D01*
X68359389Y-66108531D01*
X68401401Y-66398019D01*
X68499081Y-66673747D01*
X68572528Y-66811157D01*
X68821603Y-66888792D01*
X69670395Y-66040000D01*
X70029605Y-66040000D01*
X70878397Y-66888792D01*
X71120000Y-66813486D01*
X71361603Y-66888792D01*
X72210395Y-66040000D01*
X72569605Y-66040000D01*
X73418397Y-66888792D01*
X73667472Y-66811157D01*
X73793371Y-66547117D01*
X73865339Y-66263589D01*
X73880611Y-65971469D01*
X73838599Y-65681981D01*
X73740919Y-65406253D01*
X73667472Y-65268843D01*
X73418397Y-65191208D01*
X72569605Y-66040000D01*
X72210395Y-66040000D01*
X71361603Y-65191208D01*
X71120000Y-65266514D01*
X70878397Y-65191208D01*
X70029605Y-66040000D01*
X69670395Y-66040000D01*
X68821603Y-65191208D01*
X68572528Y-65268843D01*
X68446629Y-65532883D01*
X68374661Y-65816411D01*
X68359389Y-66108531D01*
X66725000Y-66108531D01*
X66725000Y-65011603D01*
X69001208Y-65011603D01*
X69850000Y-65860395D01*
X70698792Y-65011603D01*
X71541208Y-65011603D01*
X72390000Y-65860395D01*
X73238792Y-65011603D01*
X73161157Y-64762528D01*
X72897117Y-64636629D01*
X72613589Y-64564661D01*
X72321469Y-64549389D01*
X72031981Y-64591401D01*
X71756253Y-64689081D01*
X71618843Y-64762528D01*
X71541208Y-65011603D01*
X70698792Y-65011603D01*
X70621157Y-64762528D01*
X70357117Y-64636629D01*
X70073589Y-64564661D01*
X69781469Y-64549389D01*
X69491981Y-64591401D01*
X69216253Y-64689081D01*
X69078843Y-64762528D01*
X69001208Y-65011603D01*
X66725000Y-65011603D01*
X66725000Y-58826061D01*
X74276000Y-58826061D01*
X74276000Y-59029939D01*
X74315774Y-59229898D01*
X74393795Y-59418256D01*
X74507063Y-59587774D01*
X74574401Y-59655112D01*
X74574400Y-72630187D01*
X74570836Y-72666370D01*
X74574400Y-72702553D01*
X74574400Y-72702555D01*
X74585058Y-72810768D01*
X74627178Y-72949618D01*
X74660396Y-73011765D01*
X74695576Y-73077582D01*
X74746200Y-73139267D01*
X74787625Y-73189744D01*
X74815732Y-73212811D01*
X89540790Y-87937870D01*
X89563856Y-87965976D01*
X89591962Y-87989042D01*
X89591963Y-87989043D01*
X89602341Y-87997560D01*
X89676018Y-88058025D01*
X89803982Y-88126423D01*
X89942832Y-88168543D01*
X90051045Y-88179201D01*
X90051054Y-88179201D01*
X90087230Y-88182764D01*
X90123406Y-88179201D01*
X90724586Y-88179201D01*
X90760769Y-88182765D01*
X90796952Y-88179201D01*
X90796955Y-88179201D01*
X90905168Y-88168543D01*
X91044018Y-88126423D01*
X91171982Y-88058025D01*
X91284144Y-87965976D01*
X91307215Y-87937864D01*
X91696257Y-87548822D01*
X91724369Y-87525751D01*
X91816418Y-87413589D01*
X91884816Y-87285625D01*
X91926936Y-87146775D01*
X91937594Y-87038562D01*
X91937594Y-87038553D01*
X91941157Y-87002377D01*
X91937594Y-86966201D01*
X91937594Y-86004061D01*
X92310000Y-86004061D01*
X92310000Y-86207939D01*
X92349774Y-86407898D01*
X92427795Y-86596256D01*
X92541063Y-86765774D01*
X92608400Y-86833111D01*
X92608401Y-101126888D01*
X92541063Y-101194226D01*
X92427795Y-101363744D01*
X92349774Y-101552102D01*
X92310000Y-101752061D01*
X92310000Y-101955939D01*
X92349774Y-102155898D01*
X92427795Y-102344256D01*
X92541063Y-102513774D01*
X92685226Y-102657937D01*
X92854744Y-102771205D01*
X93043102Y-102849226D01*
X93243061Y-102889000D01*
X93446939Y-102889000D01*
X93646898Y-102849226D01*
X93835256Y-102771205D01*
X94004774Y-102657937D01*
X94148937Y-102513774D01*
X94262205Y-102344256D01*
X94340226Y-102155898D01*
X94380000Y-101955939D01*
X94380000Y-101752061D01*
X94340226Y-101552102D01*
X94262205Y-101363744D01*
X94148937Y-101194226D01*
X94081600Y-101126889D01*
X94081600Y-98689133D01*
X107251972Y-98689133D01*
X107314465Y-98925450D01*
X107557178Y-99038850D01*
X107817349Y-99102719D01*
X108084982Y-99114604D01*
X108349791Y-99074048D01*
X108367523Y-99067609D01*
X109168038Y-99067609D01*
X109171909Y-99105282D01*
X109264079Y-99330533D01*
X109398422Y-99533474D01*
X109569775Y-99706307D01*
X109771554Y-99842390D01*
X109996004Y-99936493D01*
X110234500Y-99985000D01*
X110584500Y-99985000D01*
X110584500Y-98877000D01*
X109292769Y-98877000D01*
X109168038Y-99067609D01*
X108367523Y-99067609D01*
X108601600Y-98982609D01*
X108708535Y-98925450D01*
X108771028Y-98689133D01*
X108011500Y-97929605D01*
X107251972Y-98689133D01*
X94081600Y-98689133D01*
X94081600Y-97434061D01*
X105137000Y-97434061D01*
X105137000Y-97637939D01*
X105176774Y-97837898D01*
X105254795Y-98026256D01*
X105368063Y-98195774D01*
X105512226Y-98339937D01*
X105681744Y-98453205D01*
X105870102Y-98531226D01*
X106070061Y-98571000D01*
X106273939Y-98571000D01*
X106473898Y-98531226D01*
X106662256Y-98453205D01*
X106792744Y-98366016D01*
X106836050Y-98447035D01*
X107072367Y-98509528D01*
X107831895Y-97750000D01*
X108191105Y-97750000D01*
X108950633Y-98509528D01*
X109178997Y-98449138D01*
X109292769Y-98623000D01*
X110584500Y-98623000D01*
X110584500Y-97515000D01*
X110234500Y-97515000D01*
X109996004Y-97563507D01*
X109771554Y-97657610D01*
X109569775Y-97793693D01*
X109398422Y-97966526D01*
X109335329Y-98061836D01*
X109364219Y-97944151D01*
X109376104Y-97676518D01*
X109335548Y-97411709D01*
X109244109Y-97159900D01*
X109186950Y-97052965D01*
X108950633Y-96990472D01*
X108191105Y-97750000D01*
X107831895Y-97750000D01*
X107072367Y-96990472D01*
X107055291Y-96994988D01*
X106975937Y-96876226D01*
X106910578Y-96810867D01*
X107251972Y-96810867D01*
X108011500Y-97570395D01*
X108771028Y-96810867D01*
X108708535Y-96574550D01*
X108465822Y-96461150D01*
X108205651Y-96397281D01*
X107938018Y-96385396D01*
X107673209Y-96425952D01*
X107421400Y-96517391D01*
X107314465Y-96574550D01*
X107251972Y-96810867D01*
X106910578Y-96810867D01*
X106831774Y-96732063D01*
X106662256Y-96618795D01*
X106473898Y-96540774D01*
X106273939Y-96501000D01*
X106070061Y-96501000D01*
X105870102Y-96540774D01*
X105681744Y-96618795D01*
X105512226Y-96732063D01*
X105368063Y-96876226D01*
X105254795Y-97045744D01*
X105176774Y-97234102D01*
X105137000Y-97434061D01*
X94081600Y-97434061D01*
X94081600Y-95402061D01*
X104121000Y-95402061D01*
X104121000Y-95605939D01*
X104160774Y-95805898D01*
X104238795Y-95994256D01*
X104352063Y-96163774D01*
X104496226Y-96307937D01*
X104665744Y-96421205D01*
X104854102Y-96499226D01*
X105054061Y-96539000D01*
X105257939Y-96539000D01*
X105457898Y-96499226D01*
X105646256Y-96421205D01*
X105815774Y-96307937D01*
X105959937Y-96163774D01*
X106073205Y-95994256D01*
X106151226Y-95805898D01*
X106191000Y-95605939D01*
X106191000Y-95402061D01*
X106151226Y-95202102D01*
X106073205Y-95013744D01*
X105959937Y-94844226D01*
X105815774Y-94700063D01*
X105646256Y-94586795D01*
X105457898Y-94508774D01*
X105257939Y-94469000D01*
X105054061Y-94469000D01*
X104854102Y-94508774D01*
X104665744Y-94586795D01*
X104496226Y-94700063D01*
X104352063Y-94844226D01*
X104238795Y-95013744D01*
X104160774Y-95202102D01*
X104121000Y-95402061D01*
X94081600Y-95402061D01*
X94081600Y-93689133D01*
X107251972Y-93689133D01*
X107314465Y-93925450D01*
X107557178Y-94038850D01*
X107817349Y-94102719D01*
X108084982Y-94114604D01*
X108349791Y-94074048D01*
X108601600Y-93982609D01*
X108708535Y-93925450D01*
X108771028Y-93689133D01*
X108011500Y-92929605D01*
X107251972Y-93689133D01*
X94081600Y-93689133D01*
X94081600Y-92823482D01*
X106646896Y-92823482D01*
X106687452Y-93088291D01*
X106778891Y-93340100D01*
X106836050Y-93447035D01*
X107072367Y-93509528D01*
X107831895Y-92750000D01*
X108191105Y-92750000D01*
X108950633Y-93509528D01*
X109186950Y-93447035D01*
X109300350Y-93204322D01*
X109364219Y-92944151D01*
X109376104Y-92676518D01*
X109340885Y-92446558D01*
X109398422Y-92533474D01*
X109569775Y-92706307D01*
X109771554Y-92842390D01*
X109996004Y-92936493D01*
X110234500Y-92985000D01*
X110584500Y-92985000D01*
X110584500Y-91877000D01*
X109292769Y-91877000D01*
X109178997Y-92050862D01*
X108950633Y-91990472D01*
X108191105Y-92750000D01*
X107831895Y-92750000D01*
X107072367Y-91990472D01*
X106836050Y-92052965D01*
X106722650Y-92295678D01*
X106658781Y-92555849D01*
X106646896Y-92823482D01*
X94081600Y-92823482D01*
X94081600Y-91810867D01*
X107251972Y-91810867D01*
X108011500Y-92570395D01*
X108771028Y-91810867D01*
X108708535Y-91574550D01*
X108465822Y-91461150D01*
X108348672Y-91432391D01*
X109168038Y-91432391D01*
X109292769Y-91623000D01*
X110584500Y-91623000D01*
X110584500Y-90515000D01*
X110234500Y-90515000D01*
X109996004Y-90563507D01*
X109771554Y-90657610D01*
X109569775Y-90793693D01*
X109398422Y-90966526D01*
X109264079Y-91169467D01*
X109171909Y-91394718D01*
X109168038Y-91432391D01*
X108348672Y-91432391D01*
X108205651Y-91397281D01*
X107938018Y-91385396D01*
X107673209Y-91425952D01*
X107421400Y-91517391D01*
X107314465Y-91574550D01*
X107251972Y-91810867D01*
X94081600Y-91810867D01*
X94081600Y-91172454D01*
X94192063Y-91337774D01*
X94336226Y-91481937D01*
X94505744Y-91595205D01*
X94694102Y-91673226D01*
X94894061Y-91713000D01*
X95097939Y-91713000D01*
X95297898Y-91673226D01*
X95486256Y-91595205D01*
X95655774Y-91481937D01*
X95799937Y-91337774D01*
X95888750Y-91204855D01*
X95902744Y-91214205D01*
X96091102Y-91292226D01*
X96291061Y-91332000D01*
X96494939Y-91332000D01*
X96694898Y-91292226D01*
X96883256Y-91214205D01*
X97052774Y-91100937D01*
X97196937Y-90956774D01*
X97310205Y-90787256D01*
X97388226Y-90598898D01*
X97428000Y-90398939D01*
X97428000Y-90195061D01*
X97402739Y-90068061D01*
X106407000Y-90068061D01*
X106407000Y-90271939D01*
X106446774Y-90471898D01*
X106524795Y-90660256D01*
X106638063Y-90829774D01*
X106782226Y-90973937D01*
X106951744Y-91087205D01*
X107140102Y-91165226D01*
X107340061Y-91205000D01*
X107543939Y-91205000D01*
X107743898Y-91165226D01*
X107932256Y-91087205D01*
X108101774Y-90973937D01*
X108245937Y-90829774D01*
X108359205Y-90660256D01*
X108437226Y-90471898D01*
X108477000Y-90271939D01*
X108477000Y-90068061D01*
X108437226Y-89868102D01*
X108359205Y-89679744D01*
X108245937Y-89510226D01*
X108101774Y-89366063D01*
X107932256Y-89252795D01*
X107743898Y-89174774D01*
X107543939Y-89135000D01*
X107340061Y-89135000D01*
X107140102Y-89174774D01*
X106951744Y-89252795D01*
X106782226Y-89366063D01*
X106638063Y-89510226D01*
X106524795Y-89679744D01*
X106446774Y-89868102D01*
X106407000Y-90068061D01*
X97402739Y-90068061D01*
X97388226Y-89995102D01*
X97310205Y-89806744D01*
X97196937Y-89637226D01*
X97052774Y-89493063D01*
X96883256Y-89379795D01*
X96694898Y-89301774D01*
X96494939Y-89262000D01*
X96291061Y-89262000D01*
X96091102Y-89301774D01*
X95902744Y-89379795D01*
X95733226Y-89493063D01*
X95589063Y-89637226D01*
X95500250Y-89770145D01*
X95486256Y-89760795D01*
X95297898Y-89682774D01*
X95097939Y-89643000D01*
X94894061Y-89643000D01*
X94694102Y-89682774D01*
X94505744Y-89760795D01*
X94336226Y-89874063D01*
X94192063Y-90018226D01*
X94081600Y-90183546D01*
X94081600Y-86833111D01*
X94148937Y-86765774D01*
X94262205Y-86596256D01*
X94340226Y-86407898D01*
X94380000Y-86207939D01*
X94380000Y-86004061D01*
X94340226Y-85804102D01*
X94262205Y-85615744D01*
X94148937Y-85446226D01*
X94004774Y-85302063D01*
X93835256Y-85188795D01*
X93646898Y-85110774D01*
X93446939Y-85071000D01*
X93243061Y-85071000D01*
X93043102Y-85110774D01*
X92854744Y-85188795D01*
X92685226Y-85302063D01*
X92541063Y-85446226D01*
X92427795Y-85615744D01*
X92349774Y-85804102D01*
X92310000Y-86004061D01*
X91937594Y-86004061D01*
X91937594Y-85359159D01*
X91941157Y-85322983D01*
X91937594Y-85286807D01*
X91937594Y-85286798D01*
X91926936Y-85178585D01*
X91884816Y-85039735D01*
X91816418Y-84911771D01*
X91724368Y-84799609D01*
X91696262Y-84776543D01*
X91564291Y-84644572D01*
X91564291Y-84549342D01*
X91546577Y-84460287D01*
X91656997Y-84570707D01*
X91680063Y-84598813D01*
X91708169Y-84621879D01*
X91708170Y-84621880D01*
X91743995Y-84651281D01*
X91792225Y-84690862D01*
X91920189Y-84759260D01*
X92053201Y-84799609D01*
X92059039Y-84801380D01*
X92203438Y-84815602D01*
X92230967Y-84812891D01*
X92301044Y-84859715D01*
X92462104Y-84926428D01*
X92633084Y-84960438D01*
X92807414Y-84960438D01*
X92978394Y-84926428D01*
X93139454Y-84859715D01*
X93284404Y-84762862D01*
X93407673Y-84639593D01*
X93504526Y-84494643D01*
X93571239Y-84333583D01*
X93605249Y-84162603D01*
X93605249Y-83988273D01*
X93571239Y-83817293D01*
X93504526Y-83656233D01*
X93407673Y-83511283D01*
X93284404Y-83388014D01*
X93139454Y-83291161D01*
X92978394Y-83224448D01*
X92807414Y-83190438D01*
X92633084Y-83190438D01*
X92462104Y-83224448D01*
X92414059Y-83244349D01*
X88340703Y-79170993D01*
X91105654Y-79170993D01*
X93500475Y-81565814D01*
X93430063Y-81636226D01*
X93316795Y-81805744D01*
X93238774Y-81994102D01*
X93199000Y-82194061D01*
X93199000Y-82397939D01*
X93238774Y-82597898D01*
X93316795Y-82786256D01*
X93430063Y-82955774D01*
X93574226Y-83099937D01*
X93743744Y-83213205D01*
X93932102Y-83291226D01*
X94132061Y-83331000D01*
X94335939Y-83331000D01*
X94535898Y-83291226D01*
X94724256Y-83213205D01*
X94893774Y-83099937D01*
X94964186Y-83029525D01*
X100195530Y-88260870D01*
X100218596Y-88288976D01*
X100246702Y-88312042D01*
X100246703Y-88312043D01*
X100294309Y-88351112D01*
X100330758Y-88381025D01*
X100458722Y-88449423D01*
X100571216Y-88483548D01*
X100597572Y-88491543D01*
X100741971Y-88505765D01*
X100778157Y-88502201D01*
X109048216Y-88502201D01*
X109084399Y-88505765D01*
X109120582Y-88502201D01*
X109120585Y-88502201D01*
X109228798Y-88491543D01*
X109367648Y-88449423D01*
X109495612Y-88381025D01*
X109607774Y-88288976D01*
X109630844Y-88260865D01*
X109789637Y-88102072D01*
X111086000Y-88102072D01*
X111210482Y-88089812D01*
X111330180Y-88053502D01*
X111440494Y-87994537D01*
X111537185Y-87915185D01*
X111616537Y-87818494D01*
X111675502Y-87708180D01*
X111711812Y-87588482D01*
X111724072Y-87464000D01*
X111724072Y-85764000D01*
X111711812Y-85639518D01*
X111675502Y-85519820D01*
X111616537Y-85409506D01*
X111537185Y-85312815D01*
X111440494Y-85233463D01*
X111330180Y-85174498D01*
X111257620Y-85152487D01*
X111389475Y-85020632D01*
X111551990Y-84777411D01*
X111663932Y-84507158D01*
X111721000Y-84220260D01*
X111721000Y-83927740D01*
X111663932Y-83640842D01*
X111551990Y-83370589D01*
X111389475Y-83127368D01*
X111182632Y-82920525D01*
X111000466Y-82798805D01*
X111117355Y-82729178D01*
X111333588Y-82534269D01*
X111507641Y-82300920D01*
X111632825Y-82038099D01*
X111677476Y-81890890D01*
X111556155Y-81661000D01*
X110363000Y-81661000D01*
X110363000Y-81681000D01*
X110109000Y-81681000D01*
X110109000Y-81661000D01*
X107823000Y-81661000D01*
X107823000Y-81681000D01*
X107569000Y-81681000D01*
X107569000Y-81661000D01*
X106375845Y-81661000D01*
X106254524Y-81890890D01*
X106299175Y-82038099D01*
X106424359Y-82300920D01*
X106598412Y-82534269D01*
X106814645Y-82729178D01*
X106931534Y-82798805D01*
X106749368Y-82920525D01*
X106542525Y-83127368D01*
X106380010Y-83370589D01*
X106268068Y-83640842D01*
X106211000Y-83927740D01*
X106211000Y-84220260D01*
X106268068Y-84507158D01*
X106380010Y-84777411D01*
X106542525Y-85020632D01*
X106749368Y-85227475D01*
X106923760Y-85344000D01*
X106749368Y-85460525D01*
X106542525Y-85667368D01*
X106380010Y-85910589D01*
X106268068Y-86180842D01*
X106211000Y-86467740D01*
X106211000Y-86760260D01*
X106264456Y-87029001D01*
X101047081Y-87029001D01*
X100034942Y-86016862D01*
X100058256Y-86007205D01*
X100068002Y-86000693D01*
X100077747Y-86007205D01*
X100266105Y-86085226D01*
X100466064Y-86125000D01*
X100669942Y-86125000D01*
X100869901Y-86085226D01*
X101058259Y-86007205D01*
X101227777Y-85893937D01*
X101371940Y-85749774D01*
X101485208Y-85580256D01*
X101563229Y-85391898D01*
X101603003Y-85191939D01*
X101603003Y-84988061D01*
X101563229Y-84788102D01*
X101485208Y-84599744D01*
X101371940Y-84430226D01*
X101304603Y-84362889D01*
X101304603Y-83204000D01*
X101447939Y-83204000D01*
X101647898Y-83164226D01*
X101836256Y-83086205D01*
X102005774Y-82972937D01*
X102149937Y-82828774D01*
X102263205Y-82659256D01*
X102341226Y-82470898D01*
X102381000Y-82270939D01*
X102381000Y-82175709D01*
X106869179Y-77687530D01*
X106923760Y-77724000D01*
X106749368Y-77840525D01*
X106542525Y-78047368D01*
X106380010Y-78290589D01*
X106268068Y-78560842D01*
X106211000Y-78847740D01*
X106211000Y-79140260D01*
X106268068Y-79427158D01*
X106380010Y-79697411D01*
X106542525Y-79940632D01*
X106749368Y-80147475D01*
X106931534Y-80269195D01*
X106814645Y-80338822D01*
X106598412Y-80533731D01*
X106424359Y-80767080D01*
X106299175Y-81029901D01*
X106254524Y-81177110D01*
X106375845Y-81407000D01*
X107569000Y-81407000D01*
X107569000Y-81387000D01*
X107823000Y-81387000D01*
X107823000Y-81407000D01*
X110109000Y-81407000D01*
X110109000Y-81387000D01*
X110363000Y-81387000D01*
X110363000Y-81407000D01*
X111556155Y-81407000D01*
X111677476Y-81177110D01*
X111632825Y-81029901D01*
X111507641Y-80767080D01*
X111333588Y-80533731D01*
X111117355Y-80338822D01*
X111000466Y-80269195D01*
X111182632Y-80147475D01*
X111389475Y-79940632D01*
X111551990Y-79697411D01*
X111663932Y-79427158D01*
X111721000Y-79140260D01*
X111721000Y-78847740D01*
X111663932Y-78560842D01*
X111551990Y-78290589D01*
X111389475Y-78047368D01*
X111182632Y-77840525D01*
X111008240Y-77724000D01*
X111182632Y-77607475D01*
X111389475Y-77400632D01*
X111551990Y-77157411D01*
X111663932Y-76887158D01*
X111721000Y-76600260D01*
X111721000Y-76307740D01*
X111663932Y-76020842D01*
X111551990Y-75750589D01*
X111389475Y-75507368D01*
X111182632Y-75300525D01*
X110939411Y-75138010D01*
X110669158Y-75026068D01*
X110382260Y-74969000D01*
X110089740Y-74969000D01*
X109802842Y-75026068D01*
X109532589Y-75138010D01*
X109289368Y-75300525D01*
X109082525Y-75507368D01*
X108966000Y-75681760D01*
X108849475Y-75507368D01*
X108642632Y-75300525D01*
X108399411Y-75138010D01*
X108129158Y-75026068D01*
X107842260Y-74969000D01*
X107549740Y-74969000D01*
X107262842Y-75026068D01*
X106992589Y-75138010D01*
X106749368Y-75300525D01*
X106542525Y-75507368D01*
X106380010Y-75750589D01*
X106268068Y-76020842D01*
X106222285Y-76251005D01*
X101339291Y-81134000D01*
X101244061Y-81134000D01*
X101044102Y-81173774D01*
X100855744Y-81251795D01*
X100704759Y-81352679D01*
X96466141Y-77114061D01*
X98787000Y-77114061D01*
X98787000Y-77317939D01*
X98826774Y-77517898D01*
X98904795Y-77706256D01*
X99018063Y-77875774D01*
X99162226Y-78019937D01*
X99331744Y-78133205D01*
X99520102Y-78211226D01*
X99720061Y-78251000D01*
X99923939Y-78251000D01*
X100123898Y-78211226D01*
X100312256Y-78133205D01*
X100481774Y-78019937D01*
X100625937Y-77875774D01*
X100739205Y-77706256D01*
X100817226Y-77517898D01*
X100857000Y-77317939D01*
X100857000Y-77114061D01*
X100817226Y-76914102D01*
X100739205Y-76725744D01*
X100625937Y-76556226D01*
X100481774Y-76412063D01*
X100312256Y-76298795D01*
X100123898Y-76220774D01*
X99923939Y-76181000D01*
X99720061Y-76181000D01*
X99520102Y-76220774D01*
X99331744Y-76298795D01*
X99162226Y-76412063D01*
X99018063Y-76556226D01*
X98904795Y-76725744D01*
X98826774Y-76914102D01*
X98787000Y-77114061D01*
X96466141Y-77114061D01*
X88973141Y-69621061D01*
X93326000Y-69621061D01*
X93326000Y-69824939D01*
X93365774Y-70024898D01*
X93443795Y-70213256D01*
X93557063Y-70382774D01*
X93595789Y-70421500D01*
X93557063Y-70460226D01*
X93443795Y-70629744D01*
X93365774Y-70818102D01*
X93326000Y-71018061D01*
X93326000Y-71221939D01*
X93365774Y-71421898D01*
X93443795Y-71610256D01*
X93557063Y-71779774D01*
X93659289Y-71882000D01*
X93557063Y-71984226D01*
X93443795Y-72153744D01*
X93365774Y-72342102D01*
X93326000Y-72542061D01*
X93326000Y-72745939D01*
X93365774Y-72945898D01*
X93443795Y-73134256D01*
X93557063Y-73303774D01*
X93701226Y-73447937D01*
X93870744Y-73561205D01*
X94059102Y-73639226D01*
X94259061Y-73679000D01*
X94462939Y-73679000D01*
X94662898Y-73639226D01*
X94851256Y-73561205D01*
X95020774Y-73447937D01*
X95164650Y-73304061D01*
X98533000Y-73304061D01*
X98533000Y-73507939D01*
X98572774Y-73707898D01*
X98650795Y-73896256D01*
X98764063Y-74065774D01*
X98908226Y-74209937D01*
X99077744Y-74323205D01*
X99266102Y-74401226D01*
X99466061Y-74441000D01*
X99669939Y-74441000D01*
X99869898Y-74401226D01*
X100058256Y-74323205D01*
X100227774Y-74209937D01*
X100371937Y-74065774D01*
X100485205Y-73896256D01*
X100563226Y-73707898D01*
X100603000Y-73507939D01*
X100603000Y-73304061D01*
X100563226Y-73104102D01*
X100485205Y-72915744D01*
X100371937Y-72746226D01*
X100227774Y-72602063D01*
X100058256Y-72488795D01*
X99869898Y-72410774D01*
X99669939Y-72371000D01*
X99466061Y-72371000D01*
X99266102Y-72410774D01*
X99077744Y-72488795D01*
X98908226Y-72602063D01*
X98764063Y-72746226D01*
X98650795Y-72915744D01*
X98572774Y-73104102D01*
X98533000Y-73304061D01*
X95164650Y-73304061D01*
X95164937Y-73303774D01*
X95278205Y-73134256D01*
X95356226Y-72945898D01*
X95396000Y-72745939D01*
X95396000Y-72542061D01*
X95356226Y-72342102D01*
X95278205Y-72153744D01*
X95164937Y-71984226D01*
X95062711Y-71882000D01*
X95164937Y-71779774D01*
X95278205Y-71610256D01*
X95356226Y-71421898D01*
X95396000Y-71221939D01*
X95396000Y-71018061D01*
X103232000Y-71018061D01*
X103232000Y-71221939D01*
X103271774Y-71421898D01*
X103349795Y-71610256D01*
X103463063Y-71779774D01*
X103607226Y-71923937D01*
X103776744Y-72037205D01*
X103965102Y-72115226D01*
X104165061Y-72155000D01*
X104368939Y-72155000D01*
X104568898Y-72115226D01*
X104757256Y-72037205D01*
X104926774Y-71923937D01*
X105070937Y-71779774D01*
X105184205Y-71610256D01*
X105262226Y-71421898D01*
X105302000Y-71221939D01*
X105302000Y-71018061D01*
X105262226Y-70818102D01*
X105184205Y-70629744D01*
X105070937Y-70460226D01*
X104926774Y-70316063D01*
X104757256Y-70202795D01*
X104568898Y-70124774D01*
X104368939Y-70085000D01*
X104165061Y-70085000D01*
X103965102Y-70124774D01*
X103776744Y-70202795D01*
X103607226Y-70316063D01*
X103463063Y-70460226D01*
X103349795Y-70629744D01*
X103271774Y-70818102D01*
X103232000Y-71018061D01*
X95396000Y-71018061D01*
X95356226Y-70818102D01*
X95278205Y-70629744D01*
X95164937Y-70460226D01*
X95126211Y-70421500D01*
X95164937Y-70382774D01*
X95278205Y-70213256D01*
X95356226Y-70024898D01*
X95396000Y-69824939D01*
X95396000Y-69621061D01*
X95356226Y-69421102D01*
X95278205Y-69232744D01*
X95164937Y-69063226D01*
X95020774Y-68919063D01*
X94851256Y-68805795D01*
X94662898Y-68727774D01*
X94462939Y-68688000D01*
X94259061Y-68688000D01*
X94059102Y-68727774D01*
X93870744Y-68805795D01*
X93701226Y-68919063D01*
X93557063Y-69063226D01*
X93443795Y-69232744D01*
X93365774Y-69421102D01*
X93326000Y-69621061D01*
X88973141Y-69621061D01*
X86969600Y-67617521D01*
X86969600Y-66259111D01*
X87036937Y-66191774D01*
X87150205Y-66022256D01*
X87211615Y-65874000D01*
X108747928Y-65874000D01*
X108760188Y-65998482D01*
X108796498Y-66118180D01*
X108855463Y-66228494D01*
X108934815Y-66325185D01*
X109031506Y-66404537D01*
X109141820Y-66463502D01*
X109214380Y-66485513D01*
X109082525Y-66617368D01*
X108920010Y-66860589D01*
X108808068Y-67130842D01*
X108751000Y-67417740D01*
X108751000Y-67710260D01*
X108808068Y-67997158D01*
X108920010Y-68267411D01*
X109082525Y-68510632D01*
X109289368Y-68717475D01*
X109463760Y-68834000D01*
X109289368Y-68950525D01*
X109082525Y-69157368D01*
X108920010Y-69400589D01*
X108808068Y-69670842D01*
X108751000Y-69957740D01*
X108751000Y-70250260D01*
X108808068Y-70537158D01*
X108920010Y-70807411D01*
X109082525Y-71050632D01*
X109289368Y-71257475D01*
X109463760Y-71374000D01*
X109289368Y-71490525D01*
X109082525Y-71697368D01*
X108920010Y-71940589D01*
X108808068Y-72210842D01*
X108751000Y-72497740D01*
X108751000Y-72790260D01*
X108808068Y-73077158D01*
X108920010Y-73347411D01*
X109082525Y-73590632D01*
X109289368Y-73797475D01*
X109532589Y-73959990D01*
X109802842Y-74071932D01*
X110089740Y-74129000D01*
X110382260Y-74129000D01*
X110669158Y-74071932D01*
X110939411Y-73959990D01*
X111182632Y-73797475D01*
X111389475Y-73590632D01*
X111551990Y-73347411D01*
X111663932Y-73077158D01*
X111721000Y-72790260D01*
X111721000Y-72497740D01*
X111663932Y-72210842D01*
X111551990Y-71940589D01*
X111389475Y-71697368D01*
X111182632Y-71490525D01*
X111008240Y-71374000D01*
X111182632Y-71257475D01*
X111389475Y-71050632D01*
X111551990Y-70807411D01*
X111663932Y-70537158D01*
X111721000Y-70250260D01*
X111721000Y-69957740D01*
X111663932Y-69670842D01*
X111551990Y-69400589D01*
X111389475Y-69157368D01*
X111182632Y-68950525D01*
X111008240Y-68834000D01*
X111182632Y-68717475D01*
X111389475Y-68510632D01*
X111551990Y-68267411D01*
X111663932Y-67997158D01*
X111721000Y-67710260D01*
X111721000Y-67417740D01*
X111663932Y-67130842D01*
X111551990Y-66860589D01*
X111389475Y-66617368D01*
X111257620Y-66485513D01*
X111330180Y-66463502D01*
X111440494Y-66404537D01*
X111537185Y-66325185D01*
X111616537Y-66228494D01*
X111675502Y-66118180D01*
X111711812Y-65998482D01*
X111724072Y-65874000D01*
X111721000Y-65309750D01*
X111562250Y-65151000D01*
X110363000Y-65151000D01*
X110363000Y-65171000D01*
X110109000Y-65171000D01*
X110109000Y-65151000D01*
X108909750Y-65151000D01*
X108751000Y-65309750D01*
X108747928Y-65874000D01*
X87211615Y-65874000D01*
X87228226Y-65833898D01*
X87268000Y-65633939D01*
X87268000Y-65430061D01*
X87228226Y-65230102D01*
X87150205Y-65041744D01*
X87036937Y-64872226D01*
X86892774Y-64728063D01*
X86723256Y-64614795D01*
X86534898Y-64536774D01*
X86334939Y-64497000D01*
X86131061Y-64497000D01*
X85931102Y-64536774D01*
X85742744Y-64614795D01*
X85573226Y-64728063D01*
X85429063Y-64872226D01*
X85315795Y-65041744D01*
X85237774Y-65230102D01*
X85198000Y-65430061D01*
X85198000Y-65633939D01*
X85237774Y-65833898D01*
X85315795Y-66022256D01*
X85429063Y-66191774D01*
X85496401Y-66259112D01*
X85496400Y-67374061D01*
X85391898Y-67330774D01*
X85191939Y-67291000D01*
X84988061Y-67291000D01*
X84788102Y-67330774D01*
X84599744Y-67408795D01*
X84430226Y-67522063D01*
X84286063Y-67666226D01*
X84172795Y-67835744D01*
X84094774Y-68024102D01*
X84055000Y-68224061D01*
X84055000Y-68427939D01*
X84094774Y-68627898D01*
X84172795Y-68816256D01*
X84286063Y-68985774D01*
X84430226Y-69129937D01*
X84599744Y-69243205D01*
X84788102Y-69321226D01*
X84988061Y-69361000D01*
X85191939Y-69361000D01*
X85391898Y-69321226D01*
X85580256Y-69243205D01*
X85749774Y-69129937D01*
X85893937Y-68985774D01*
X86007205Y-68816256D01*
X86029966Y-68761305D01*
X99831404Y-82562744D01*
X99831404Y-83400324D01*
X92202417Y-75771338D01*
X92179346Y-75743226D01*
X92067184Y-75651177D01*
X91939220Y-75582779D01*
X91800370Y-75540659D01*
X91692157Y-75530001D01*
X91692154Y-75530001D01*
X91655971Y-75526437D01*
X91619788Y-75530001D01*
X89271711Y-75530001D01*
X82061000Y-68319291D01*
X82061000Y-68224061D01*
X82021226Y-68024102D01*
X81943205Y-67835744D01*
X81829937Y-67666226D01*
X81685774Y-67522063D01*
X81516256Y-67408795D01*
X81327898Y-67330774D01*
X81127939Y-67291000D01*
X80924061Y-67291000D01*
X80724102Y-67330774D01*
X80535744Y-67408795D01*
X80366226Y-67522063D01*
X80222063Y-67666226D01*
X80108795Y-67835744D01*
X80030774Y-68024102D01*
X79991000Y-68224061D01*
X79991000Y-68427939D01*
X80030774Y-68627898D01*
X80108795Y-68816256D01*
X80222063Y-68985774D01*
X80366226Y-69129937D01*
X80535744Y-69243205D01*
X80724102Y-69321226D01*
X80924061Y-69361000D01*
X81019291Y-69361000D01*
X84502509Y-72844218D01*
X84375898Y-72791774D01*
X84175939Y-72752000D01*
X83972061Y-72752000D01*
X83772102Y-72791774D01*
X83583744Y-72869795D01*
X83566000Y-72881651D01*
X83548256Y-72869795D01*
X83359898Y-72791774D01*
X83159939Y-72752000D01*
X82956061Y-72752000D01*
X82756102Y-72791774D01*
X82567744Y-72869795D01*
X82398226Y-72983063D01*
X82275499Y-73105790D01*
X79282999Y-70113290D01*
X79282999Y-64160061D01*
X95104000Y-64160061D01*
X95104000Y-64363939D01*
X95143774Y-64563898D01*
X95221795Y-64752256D01*
X95335063Y-64921774D01*
X95479226Y-65065937D01*
X95648744Y-65179205D01*
X95837102Y-65257226D01*
X96037061Y-65297000D01*
X96240939Y-65297000D01*
X96440898Y-65257226D01*
X96629256Y-65179205D01*
X96798774Y-65065937D01*
X96942937Y-64921774D01*
X97056205Y-64752256D01*
X97134226Y-64563898D01*
X97174000Y-64363939D01*
X97174000Y-64174000D01*
X108747928Y-64174000D01*
X108751000Y-64738250D01*
X108909750Y-64897000D01*
X110109000Y-64897000D01*
X110109000Y-63697750D01*
X110363000Y-63697750D01*
X110363000Y-64897000D01*
X111562250Y-64897000D01*
X111721000Y-64738250D01*
X111724072Y-64174000D01*
X111711812Y-64049518D01*
X111675502Y-63929820D01*
X111616537Y-63819506D01*
X111537185Y-63722815D01*
X111440494Y-63643463D01*
X111330180Y-63584498D01*
X111210482Y-63548188D01*
X111086000Y-63535928D01*
X110521750Y-63539000D01*
X110363000Y-63697750D01*
X110109000Y-63697750D01*
X109950250Y-63539000D01*
X109386000Y-63535928D01*
X109261518Y-63548188D01*
X109141820Y-63584498D01*
X109031506Y-63643463D01*
X108934815Y-63722815D01*
X108855463Y-63819506D01*
X108796498Y-63929820D01*
X108760188Y-64049518D01*
X108747928Y-64174000D01*
X97174000Y-64174000D01*
X97174000Y-64160061D01*
X97134226Y-63960102D01*
X97056205Y-63771744D01*
X96942937Y-63602226D01*
X96798774Y-63458063D01*
X96629256Y-63344795D01*
X96440898Y-63266774D01*
X96240939Y-63227000D01*
X96037061Y-63227000D01*
X95837102Y-63266774D01*
X95648744Y-63344795D01*
X95479226Y-63458063D01*
X95335063Y-63602226D01*
X95221795Y-63771744D01*
X95143774Y-63960102D01*
X95104000Y-64160061D01*
X79282999Y-64160061D01*
X79282999Y-56738585D01*
X79286563Y-56702399D01*
X79272341Y-56558000D01*
X79230221Y-56419151D01*
X79230221Y-56419150D01*
X79161823Y-56291186D01*
X79069774Y-56179024D01*
X79041668Y-56155958D01*
X76727000Y-53841291D01*
X76727000Y-53746061D01*
X76687226Y-53546102D01*
X76609205Y-53357744D01*
X76495937Y-53188226D01*
X76351774Y-53044063D01*
X76182256Y-52930795D01*
X75993898Y-52852774D01*
X75793939Y-52813000D01*
X75590061Y-52813000D01*
X75390102Y-52852774D01*
X75201744Y-52930795D01*
X75032226Y-53044063D01*
X74888063Y-53188226D01*
X74774795Y-53357744D01*
X74696774Y-53546102D01*
X74657000Y-53746061D01*
X74657000Y-53949939D01*
X74696774Y-54149898D01*
X74774795Y-54338256D01*
X74888063Y-54507774D01*
X75032226Y-54651937D01*
X75201744Y-54765205D01*
X75390102Y-54843226D01*
X75590061Y-54883000D01*
X75685291Y-54883000D01*
X77436866Y-56634576D01*
X77295102Y-56662774D01*
X77106744Y-56740795D01*
X76937226Y-56854063D01*
X76793063Y-56998226D01*
X76679795Y-57167744D01*
X76601774Y-57356102D01*
X76562000Y-57556061D01*
X76562000Y-57759939D01*
X76601774Y-57959898D01*
X76679795Y-58148256D01*
X76793063Y-58317774D01*
X76860401Y-58385112D01*
X76860400Y-72734814D01*
X76856836Y-72771000D01*
X76871058Y-72915399D01*
X76913178Y-73054249D01*
X76981576Y-73182213D01*
X77073625Y-73294375D01*
X77101737Y-73317446D01*
X89464393Y-85680103D01*
X89464393Y-85775332D01*
X89465069Y-85778729D01*
X76047600Y-72361261D01*
X76047600Y-59655111D01*
X76114937Y-59587774D01*
X76228205Y-59418256D01*
X76306226Y-59229898D01*
X76346000Y-59029939D01*
X76346000Y-58826061D01*
X76306226Y-58626102D01*
X76228205Y-58437744D01*
X76114937Y-58268226D01*
X75970774Y-58124063D01*
X75801256Y-58010795D01*
X75612898Y-57932774D01*
X75412939Y-57893000D01*
X75209061Y-57893000D01*
X75009102Y-57932774D01*
X74820744Y-58010795D01*
X74651226Y-58124063D01*
X74507063Y-58268226D01*
X74393795Y-58437744D01*
X74315774Y-58626102D01*
X74276000Y-58826061D01*
X66725000Y-58826061D01*
X66725000Y-49936061D01*
X74022000Y-49936061D01*
X74022000Y-50139939D01*
X74061774Y-50339898D01*
X74139795Y-50528256D01*
X74253063Y-50697774D01*
X74397226Y-50841937D01*
X74566744Y-50955205D01*
X74755102Y-51033226D01*
X74955061Y-51073000D01*
X75158939Y-51073000D01*
X75358898Y-51033226D01*
X75547256Y-50955205D01*
X75716774Y-50841937D01*
X75860937Y-50697774D01*
X75974205Y-50528256D01*
X76026299Y-50402490D01*
X81681000Y-50402490D01*
X81681000Y-51197509D01*
X81709722Y-51489127D01*
X81823226Y-51863301D01*
X82007547Y-52208143D01*
X82255602Y-52510398D01*
X82557857Y-52758453D01*
X82902698Y-52942774D01*
X83276872Y-53056278D01*
X83666000Y-53094604D01*
X84055127Y-53056278D01*
X84429301Y-52942774D01*
X84774143Y-52758453D01*
X85076398Y-52510398D01*
X85324453Y-52208143D01*
X85508774Y-51863302D01*
X85622278Y-51489128D01*
X85651000Y-51197510D01*
X85651000Y-50402491D01*
X85651000Y-50402490D01*
X85881000Y-50402490D01*
X85881000Y-51197509D01*
X85909722Y-51489127D01*
X86023226Y-51863301D01*
X86207547Y-52208143D01*
X86455602Y-52510398D01*
X86757857Y-52758453D01*
X87102698Y-52942774D01*
X87476872Y-53056278D01*
X87866000Y-53094604D01*
X88255127Y-53056278D01*
X88629301Y-52942774D01*
X88974143Y-52758453D01*
X89276398Y-52510398D01*
X89524453Y-52208143D01*
X89708774Y-51863302D01*
X89822278Y-51489128D01*
X89851000Y-51197510D01*
X89851000Y-50927000D01*
X90081000Y-50927000D01*
X90081000Y-51227000D01*
X90143918Y-51611814D01*
X90280700Y-51976959D01*
X90486090Y-52308403D01*
X90752195Y-52593409D01*
X91068789Y-52821024D01*
X91423705Y-52982501D01*
X91630677Y-53036677D01*
X91939000Y-52921829D01*
X91939000Y-50927000D01*
X92193000Y-50927000D01*
X92193000Y-52921829D01*
X92501323Y-53036677D01*
X92708295Y-52982501D01*
X93063211Y-52821024D01*
X93379805Y-52593409D01*
X93645910Y-52308403D01*
X93851300Y-51976959D01*
X93988082Y-51611814D01*
X94051000Y-51227000D01*
X94051000Y-50927000D01*
X92193000Y-50927000D01*
X91939000Y-50927000D01*
X90081000Y-50927000D01*
X89851000Y-50927000D01*
X89851000Y-50402491D01*
X89848096Y-50373000D01*
X90081000Y-50373000D01*
X90081000Y-50673000D01*
X91939000Y-50673000D01*
X91939000Y-48678171D01*
X92193000Y-48678171D01*
X92193000Y-50673000D01*
X94051000Y-50673000D01*
X94051000Y-50373000D01*
X93988082Y-49988186D01*
X93851300Y-49623041D01*
X93713087Y-49400001D01*
X94277928Y-49400001D01*
X94277928Y-52199999D01*
X94294992Y-52373253D01*
X94345529Y-52539850D01*
X94427595Y-52693386D01*
X94538039Y-52827961D01*
X94672614Y-52938405D01*
X94826150Y-53020471D01*
X94992747Y-53071008D01*
X95166001Y-53088072D01*
X97365999Y-53088072D01*
X97539253Y-53071008D01*
X97705850Y-53020471D01*
X97859386Y-52938405D01*
X97993961Y-52827961D01*
X98104405Y-52693386D01*
X98186471Y-52539850D01*
X98237008Y-52373253D01*
X98254072Y-52199999D01*
X98254072Y-49400001D01*
X98237008Y-49226747D01*
X98186471Y-49060150D01*
X98104405Y-48906614D01*
X97993961Y-48772039D01*
X97859386Y-48661595D01*
X97705850Y-48579529D01*
X97539253Y-48528992D01*
X97365999Y-48511928D01*
X95166001Y-48511928D01*
X94992747Y-48528992D01*
X94826150Y-48579529D01*
X94672614Y-48661595D01*
X94538039Y-48772039D01*
X94427595Y-48906614D01*
X94345529Y-49060150D01*
X94294992Y-49226747D01*
X94277928Y-49400001D01*
X93713087Y-49400001D01*
X93645910Y-49291597D01*
X93379805Y-49006591D01*
X93063211Y-48778976D01*
X92708295Y-48617499D01*
X92501323Y-48563323D01*
X92193000Y-48678171D01*
X91939000Y-48678171D01*
X91630677Y-48563323D01*
X91423705Y-48617499D01*
X91068789Y-48778976D01*
X90752195Y-49006591D01*
X90486090Y-49291597D01*
X90280700Y-49623041D01*
X90143918Y-49988186D01*
X90081000Y-50373000D01*
X89848096Y-50373000D01*
X89822278Y-50110873D01*
X89708774Y-49736698D01*
X89524453Y-49391857D01*
X89276398Y-49089602D01*
X88974143Y-48841547D01*
X88629302Y-48657226D01*
X88255128Y-48543722D01*
X87866000Y-48505396D01*
X87476873Y-48543722D01*
X87102699Y-48657226D01*
X86757858Y-48841547D01*
X86455603Y-49089602D01*
X86207547Y-49391857D01*
X86023226Y-49736698D01*
X85909722Y-50110872D01*
X85881000Y-50402490D01*
X85651000Y-50402490D01*
X85622278Y-50110873D01*
X85508774Y-49736698D01*
X85324453Y-49391857D01*
X85076398Y-49089602D01*
X84774143Y-48841547D01*
X84429302Y-48657226D01*
X84055128Y-48543722D01*
X83666000Y-48505396D01*
X83276873Y-48543722D01*
X82902699Y-48657226D01*
X82557858Y-48841547D01*
X82255603Y-49089602D01*
X82007547Y-49391857D01*
X81823226Y-49736698D01*
X81709722Y-50110872D01*
X81681000Y-50402490D01*
X76026299Y-50402490D01*
X76052226Y-50339898D01*
X76092000Y-50139939D01*
X76092000Y-49936061D01*
X76052226Y-49736102D01*
X75974205Y-49547744D01*
X75860937Y-49378226D01*
X75716774Y-49234063D01*
X75547256Y-49120795D01*
X75358898Y-49042774D01*
X75158939Y-49003000D01*
X74955061Y-49003000D01*
X74755102Y-49042774D01*
X74566744Y-49120795D01*
X74397226Y-49234063D01*
X74253063Y-49378226D01*
X74139795Y-49547744D01*
X74061774Y-49736102D01*
X74022000Y-49936061D01*
X66725000Y-49936061D01*
X66725000Y-47311787D01*
X67125161Y-47910670D01*
X67659330Y-48444839D01*
X68287446Y-48864533D01*
X68985372Y-49153623D01*
X69726285Y-49301000D01*
X70481715Y-49301000D01*
X71222628Y-49153623D01*
X71920554Y-48864533D01*
X72548670Y-48444839D01*
X73082839Y-47910670D01*
X73502533Y-47282554D01*
X73791623Y-46584628D01*
X73939000Y-45843715D01*
X73939000Y-45427000D01*
X81681000Y-45427000D01*
X81681000Y-45727000D01*
X81743918Y-46111814D01*
X81880700Y-46476959D01*
X82086090Y-46808403D01*
X82352195Y-47093409D01*
X82668789Y-47321024D01*
X83023705Y-47482501D01*
X83230677Y-47536677D01*
X83539000Y-47421829D01*
X83539000Y-45427000D01*
X83793000Y-45427000D01*
X83793000Y-47421829D01*
X84101323Y-47536677D01*
X84308295Y-47482501D01*
X84663211Y-47321024D01*
X84979805Y-47093409D01*
X85245910Y-46808403D01*
X85451300Y-46476959D01*
X85588082Y-46111814D01*
X85651000Y-45727000D01*
X85651000Y-45427000D01*
X83793000Y-45427000D01*
X83539000Y-45427000D01*
X81681000Y-45427000D01*
X73939000Y-45427000D01*
X73939000Y-45088285D01*
X73896178Y-44873000D01*
X81681000Y-44873000D01*
X81681000Y-45173000D01*
X83539000Y-45173000D01*
X83539000Y-43178171D01*
X83793000Y-43178171D01*
X83793000Y-45173000D01*
X85651000Y-45173000D01*
X85651000Y-44902490D01*
X85881000Y-44902490D01*
X85881000Y-45697509D01*
X85909722Y-45989127D01*
X86023226Y-46363301D01*
X86207547Y-46708143D01*
X86455602Y-47010398D01*
X86757857Y-47258453D01*
X87102698Y-47442774D01*
X87476872Y-47556278D01*
X87866000Y-47594604D01*
X88255127Y-47556278D01*
X88629301Y-47442774D01*
X88974143Y-47258453D01*
X89276398Y-47010398D01*
X89524453Y-46708143D01*
X89708774Y-46363302D01*
X89822278Y-45989128D01*
X89851000Y-45697510D01*
X89851000Y-44902491D01*
X89851000Y-44902490D01*
X90081000Y-44902490D01*
X90081000Y-45697509D01*
X90109722Y-45989127D01*
X90223226Y-46363301D01*
X90407547Y-46708143D01*
X90655602Y-47010398D01*
X90957857Y-47258453D01*
X91302698Y-47442774D01*
X91676872Y-47556278D01*
X92066000Y-47594604D01*
X92455127Y-47556278D01*
X92829301Y-47442774D01*
X93174143Y-47258453D01*
X93476398Y-47010398D01*
X93724453Y-46708143D01*
X93908774Y-46363302D01*
X94022278Y-45989128D01*
X94051000Y-45697510D01*
X94051000Y-45427000D01*
X94281000Y-45427000D01*
X94281000Y-45727000D01*
X94343918Y-46111814D01*
X94480700Y-46476959D01*
X94686090Y-46808403D01*
X94952195Y-47093409D01*
X95268789Y-47321024D01*
X95623705Y-47482501D01*
X95830677Y-47536677D01*
X96139000Y-47421829D01*
X96139000Y-45427000D01*
X96393000Y-45427000D01*
X96393000Y-47421829D01*
X96701323Y-47536677D01*
X96908295Y-47482501D01*
X97263211Y-47321024D01*
X97579805Y-47093409D01*
X97845910Y-46808403D01*
X98051300Y-46476959D01*
X98188082Y-46111814D01*
X98251000Y-45727000D01*
X98251000Y-45427000D01*
X96393000Y-45427000D01*
X96139000Y-45427000D01*
X94281000Y-45427000D01*
X94051000Y-45427000D01*
X94051000Y-44902491D01*
X94048096Y-44873000D01*
X94281000Y-44873000D01*
X94281000Y-45173000D01*
X96139000Y-45173000D01*
X96139000Y-43178171D01*
X96393000Y-43178171D01*
X96393000Y-45173000D01*
X98251000Y-45173000D01*
X98251000Y-44873000D01*
X98188082Y-44488186D01*
X98051300Y-44123041D01*
X97845910Y-43791597D01*
X97579805Y-43506591D01*
X97263211Y-43278976D01*
X96908295Y-43117499D01*
X96701323Y-43063323D01*
X96393000Y-43178171D01*
X96139000Y-43178171D01*
X95830677Y-43063323D01*
X95623705Y-43117499D01*
X95268789Y-43278976D01*
X94952195Y-43506591D01*
X94686090Y-43791597D01*
X94480700Y-44123041D01*
X94343918Y-44488186D01*
X94281000Y-44873000D01*
X94048096Y-44873000D01*
X94022278Y-44610873D01*
X93908774Y-44236698D01*
X93724453Y-43891857D01*
X93476398Y-43589602D01*
X93174143Y-43341547D01*
X92829302Y-43157226D01*
X92455128Y-43043722D01*
X92066000Y-43005396D01*
X91676873Y-43043722D01*
X91302699Y-43157226D01*
X90957858Y-43341547D01*
X90655603Y-43589602D01*
X90407547Y-43891857D01*
X90223226Y-44236698D01*
X90109722Y-44610872D01*
X90081000Y-44902490D01*
X89851000Y-44902490D01*
X89822278Y-44610873D01*
X89708774Y-44236698D01*
X89524453Y-43891857D01*
X89276398Y-43589602D01*
X88974143Y-43341547D01*
X88629302Y-43157226D01*
X88255128Y-43043722D01*
X87866000Y-43005396D01*
X87476873Y-43043722D01*
X87102699Y-43157226D01*
X86757858Y-43341547D01*
X86455603Y-43589602D01*
X86207547Y-43891857D01*
X86023226Y-44236698D01*
X85909722Y-44610872D01*
X85881000Y-44902490D01*
X85651000Y-44902490D01*
X85651000Y-44873000D01*
X85588082Y-44488186D01*
X85451300Y-44123041D01*
X85245910Y-43791597D01*
X84979805Y-43506591D01*
X84663211Y-43278976D01*
X84308295Y-43117499D01*
X84101323Y-43063323D01*
X83793000Y-43178171D01*
X83539000Y-43178171D01*
X83230677Y-43063323D01*
X83023705Y-43117499D01*
X82668789Y-43278976D01*
X82352195Y-43506591D01*
X82086090Y-43791597D01*
X81880700Y-44123041D01*
X81743918Y-44488186D01*
X81681000Y-44873000D01*
X73896178Y-44873000D01*
X73791623Y-44347372D01*
X73502533Y-43649446D01*
X73082839Y-43021330D01*
X72548670Y-42487161D01*
X71949787Y-42087000D01*
X106866213Y-42087000D01*
X106267330Y-42487161D01*
G36*
X85745774Y-93519898D02*
G01*
X85823795Y-93708256D01*
X85937063Y-93877774D01*
X86081226Y-94021937D01*
X86126043Y-94051883D01*
X82616526Y-97561400D01*
X81534309Y-97561400D01*
X85717576Y-93378134D01*
X85745774Y-93519898D01*
G37*
X85745774Y-93519898D02*
X85823795Y-93708256D01*
X85937063Y-93877774D01*
X86081226Y-94021937D01*
X86126043Y-94051883D01*
X82616526Y-97561400D01*
X81534309Y-97561400D01*
X85717576Y-93378134D01*
X85745774Y-93519898D01*
G36*
X80077290Y-96935001D02*
G01*
X73875704Y-96935001D01*
X73875000Y-96805750D01*
X73716250Y-96647000D01*
X72517000Y-96647000D01*
X72517000Y-96667000D01*
X72263000Y-96667000D01*
X72263000Y-96647000D01*
X72243000Y-96647000D01*
X72243000Y-96393000D01*
X72263000Y-96393000D01*
X72263000Y-96373000D01*
X72517000Y-96373000D01*
X72517000Y-96393000D01*
X73716250Y-96393000D01*
X73875000Y-96234250D01*
X73878072Y-95670000D01*
X73865812Y-95545518D01*
X73829502Y-95425820D01*
X73770537Y-95315506D01*
X73691185Y-95218815D01*
X73594494Y-95139463D01*
X73484180Y-95080498D01*
X73411620Y-95058487D01*
X73543475Y-94926632D01*
X73650096Y-94767061D01*
X79483000Y-94767061D01*
X79483000Y-94970939D01*
X79522774Y-95170898D01*
X79600795Y-95359256D01*
X79714063Y-95528774D01*
X79858226Y-95672937D01*
X80027744Y-95786205D01*
X80216102Y-95864226D01*
X80416061Y-95904000D01*
X80619939Y-95904000D01*
X80819898Y-95864226D01*
X81008256Y-95786205D01*
X81177774Y-95672937D01*
X81321937Y-95528774D01*
X81435205Y-95359256D01*
X81513226Y-95170898D01*
X81553000Y-94970939D01*
X81553000Y-94767061D01*
X81513226Y-94567102D01*
X81435205Y-94378744D01*
X81321937Y-94209226D01*
X81177774Y-94065063D01*
X81008256Y-93951795D01*
X80819898Y-93873774D01*
X80619939Y-93834000D01*
X80416061Y-93834000D01*
X80216102Y-93873774D01*
X80027744Y-93951795D01*
X79858226Y-94065063D01*
X79714063Y-94209226D01*
X79600795Y-94378744D01*
X79522774Y-94567102D01*
X79483000Y-94767061D01*
X73650096Y-94767061D01*
X73705990Y-94683411D01*
X73817932Y-94413158D01*
X73875000Y-94126260D01*
X73875000Y-93833740D01*
X73817932Y-93546842D01*
X73705990Y-93276589D01*
X73543475Y-93033368D01*
X73543093Y-93032986D01*
X73935080Y-92640999D01*
X84371291Y-92640999D01*
X80077290Y-96935001D01*
G37*
X80077290Y-96935001D02*
X73875704Y-96935001D01*
X73875000Y-96805750D01*
X73716250Y-96647000D01*
X72517000Y-96647000D01*
X72517000Y-96667000D01*
X72263000Y-96667000D01*
X72263000Y-96647000D01*
X72243000Y-96647000D01*
X72243000Y-96393000D01*
X72263000Y-96393000D01*
X72263000Y-96373000D01*
X72517000Y-96373000D01*
X72517000Y-96393000D01*
X73716250Y-96393000D01*
X73875000Y-96234250D01*
X73878072Y-95670000D01*
X73865812Y-95545518D01*
X73829502Y-95425820D01*
X73770537Y-95315506D01*
X73691185Y-95218815D01*
X73594494Y-95139463D01*
X73484180Y-95080498D01*
X73411620Y-95058487D01*
X73543475Y-94926632D01*
X73650096Y-94767061D01*
X79483000Y-94767061D01*
X79483000Y-94970939D01*
X79522774Y-95170898D01*
X79600795Y-95359256D01*
X79714063Y-95528774D01*
X79858226Y-95672937D01*
X80027744Y-95786205D01*
X80216102Y-95864226D01*
X80416061Y-95904000D01*
X80619939Y-95904000D01*
X80819898Y-95864226D01*
X81008256Y-95786205D01*
X81177774Y-95672937D01*
X81321937Y-95528774D01*
X81435205Y-95359256D01*
X81513226Y-95170898D01*
X81553000Y-94970939D01*
X81553000Y-94767061D01*
X81513226Y-94567102D01*
X81435205Y-94378744D01*
X81321937Y-94209226D01*
X81177774Y-94065063D01*
X81008256Y-93951795D01*
X80819898Y-93873774D01*
X80619939Y-93834000D01*
X80416061Y-93834000D01*
X80216102Y-93873774D01*
X80027744Y-93951795D01*
X79858226Y-94065063D01*
X79714063Y-94209226D01*
X79600795Y-94378744D01*
X79522774Y-94567102D01*
X79483000Y-94767061D01*
X73650096Y-94767061D01*
X73705990Y-94683411D01*
X73817932Y-94413158D01*
X73875000Y-94126260D01*
X73875000Y-93833740D01*
X73817932Y-93546842D01*
X73705990Y-93276589D01*
X73543475Y-93033368D01*
X73543093Y-93032986D01*
X73935080Y-92640999D01*
X84371291Y-92640999D01*
X80077290Y-96935001D01*
G36*
X71236525Y-94926632D02*
G01*
X71368380Y-95058487D01*
X71295820Y-95080498D01*
X71185506Y-95139463D01*
X71088815Y-95218815D01*
X71009463Y-95315506D01*
X70950498Y-95425820D01*
X70914188Y-95545518D01*
X70901928Y-95670000D01*
X70901975Y-95678557D01*
X70878397Y-95671208D01*
X70029605Y-96520000D01*
X70043748Y-96534143D01*
X69864143Y-96713748D01*
X69850000Y-96699605D01*
X69835858Y-96713748D01*
X69656253Y-96534143D01*
X69670395Y-96520000D01*
X69656253Y-96505858D01*
X69835858Y-96326253D01*
X69850000Y-96340395D01*
X70698792Y-95491603D01*
X70623271Y-95249311D01*
X70796632Y-95133475D01*
X71003475Y-94926632D01*
X71120000Y-94752240D01*
X71236525Y-94926632D01*
G37*
X71236525Y-94926632D02*
X71368380Y-95058487D01*
X71295820Y-95080498D01*
X71185506Y-95139463D01*
X71088815Y-95218815D01*
X71009463Y-95315506D01*
X70950498Y-95425820D01*
X70914188Y-95545518D01*
X70901928Y-95670000D01*
X70901975Y-95678557D01*
X70878397Y-95671208D01*
X70029605Y-96520000D01*
X70043748Y-96534143D01*
X69864143Y-96713748D01*
X69850000Y-96699605D01*
X69835858Y-96713748D01*
X69656253Y-96534143D01*
X69670395Y-96520000D01*
X69656253Y-96505858D01*
X69835858Y-96326253D01*
X69850000Y-96340395D01*
X70698792Y-95491603D01*
X70623271Y-95249311D01*
X70796632Y-95133475D01*
X71003475Y-94926632D01*
X71120000Y-94752240D01*
X71236525Y-94926632D01*
G36*
X75065494Y-90676036D02*
G01*
X75088562Y-90704144D01*
X75116668Y-90727210D01*
X75116669Y-90727211D01*
X75157872Y-90761025D01*
X75162214Y-90764589D01*
X74697467Y-90764589D01*
X73638017Y-89705140D01*
X73705990Y-89603411D01*
X73790015Y-89400556D01*
X75065494Y-90676036D01*
G37*
X75065494Y-90676036D02*
X75088562Y-90704144D01*
X75116668Y-90727210D01*
X75116669Y-90727211D01*
X75157872Y-90761025D01*
X75162214Y-90764589D01*
X74697467Y-90764589D01*
X73638017Y-89705140D01*
X73705990Y-89603411D01*
X73790015Y-89400556D01*
X75065494Y-90676036D01*
G36*
X79478347Y-87219286D02*
G01*
X79518121Y-87419245D01*
X79596142Y-87607603D01*
X79709410Y-87777121D01*
X79853573Y-87921284D01*
X80023091Y-88034552D01*
X80211449Y-88112573D01*
X80411408Y-88152347D01*
X80615286Y-88152347D01*
X80815245Y-88112573D01*
X81003603Y-88034552D01*
X81173121Y-87921284D01*
X81265578Y-87828827D01*
X81449293Y-88012542D01*
X81436587Y-88076422D01*
X81436587Y-88250752D01*
X81470597Y-88421732D01*
X81537310Y-88582792D01*
X81634163Y-88727742D01*
X81757432Y-88851011D01*
X81902382Y-88947864D01*
X82063442Y-89014577D01*
X82234422Y-89048587D01*
X82408752Y-89048587D01*
X82579732Y-89014577D01*
X82665816Y-88978920D01*
X82677016Y-88986404D01*
X82838076Y-89053117D01*
X83009056Y-89087127D01*
X83039000Y-89087127D01*
X83039000Y-89128939D01*
X83078774Y-89328898D01*
X83126521Y-89444169D01*
X75917047Y-89444169D01*
X73638017Y-87165140D01*
X73668178Y-87120000D01*
X79478347Y-87120000D01*
X79478347Y-87219286D01*
G37*
X79478347Y-87219286D02*
X79518121Y-87419245D01*
X79596142Y-87607603D01*
X79709410Y-87777121D01*
X79853573Y-87921284D01*
X80023091Y-88034552D01*
X80211449Y-88112573D01*
X80411408Y-88152347D01*
X80615286Y-88152347D01*
X80815245Y-88112573D01*
X81003603Y-88034552D01*
X81173121Y-87921284D01*
X81265578Y-87828827D01*
X81449293Y-88012542D01*
X81436587Y-88076422D01*
X81436587Y-88250752D01*
X81470597Y-88421732D01*
X81537310Y-88582792D01*
X81634163Y-88727742D01*
X81757432Y-88851011D01*
X81902382Y-88947864D01*
X82063442Y-89014577D01*
X82234422Y-89048587D01*
X82408752Y-89048587D01*
X82579732Y-89014577D01*
X82665816Y-88978920D01*
X82677016Y-88986404D01*
X82838076Y-89053117D01*
X83009056Y-89087127D01*
X83039000Y-89087127D01*
X83039000Y-89128939D01*
X83078774Y-89328898D01*
X83126521Y-89444169D01*
X75917047Y-89444169D01*
X73638017Y-87165140D01*
X73668178Y-87120000D01*
X79478347Y-87120000D01*
X79478347Y-87219286D01*
G36*
X79772845Y-85600000D02*
G01*
X73668178Y-85600000D01*
X73543475Y-85413368D01*
X73336632Y-85206525D01*
X73162240Y-85090000D01*
X73336632Y-84973475D01*
X73543475Y-84766632D01*
X73705990Y-84523411D01*
X73817932Y-84253158D01*
X73875000Y-83966260D01*
X73875000Y-83673740D01*
X73817932Y-83386842D01*
X73705990Y-83116589D01*
X73543475Y-82873368D01*
X73336632Y-82666525D01*
X73162240Y-82550000D01*
X73336632Y-82433475D01*
X73543475Y-82226632D01*
X73705990Y-81983411D01*
X73817932Y-81713158D01*
X73875000Y-81426260D01*
X73875000Y-81133740D01*
X73817932Y-80846842D01*
X73737061Y-80651601D01*
X74824447Y-80651601D01*
X79772845Y-85600000D01*
G37*
X79772845Y-85600000D02*
X73668178Y-85600000D01*
X73543475Y-85413368D01*
X73336632Y-85206525D01*
X73162240Y-85090000D01*
X73336632Y-84973475D01*
X73543475Y-84766632D01*
X73705990Y-84523411D01*
X73817932Y-84253158D01*
X73875000Y-83966260D01*
X73875000Y-83673740D01*
X73817932Y-83386842D01*
X73705990Y-83116589D01*
X73543475Y-82873368D01*
X73336632Y-82666525D01*
X73162240Y-82550000D01*
X73336632Y-82433475D01*
X73543475Y-82226632D01*
X73705990Y-81983411D01*
X73817932Y-81713158D01*
X73875000Y-81426260D01*
X73875000Y-81133740D01*
X73817932Y-80846842D01*
X73737061Y-80651601D01*
X74824447Y-80651601D01*
X79772845Y-85600000D01*
G36*
X90720285Y-83633995D02*
G01*
X90631230Y-83616281D01*
X90427352Y-83616281D01*
X90227393Y-83656055D01*
X90039035Y-83734076D01*
X89869517Y-83847344D01*
X89792285Y-83924576D01*
X78991528Y-73123819D01*
X79065226Y-72945898D01*
X79105000Y-72745939D01*
X79105000Y-72542061D01*
X79065226Y-72342102D01*
X78987205Y-72153744D01*
X78873937Y-71984226D01*
X78729774Y-71840063D01*
X78560256Y-71726795D01*
X78371898Y-71648774D01*
X78333600Y-71641156D01*
X78333600Y-71247309D01*
X90720285Y-83633995D01*
G37*
X90720285Y-83633995D02*
X90631230Y-83616281D01*
X90427352Y-83616281D01*
X90227393Y-83656055D01*
X90039035Y-83734076D01*
X89869517Y-83847344D01*
X89792285Y-83924576D01*
X78991528Y-73123819D01*
X79065226Y-72945898D01*
X79105000Y-72745939D01*
X79105000Y-72542061D01*
X79065226Y-72342102D01*
X78987205Y-72153744D01*
X78873937Y-71984226D01*
X78729774Y-71840063D01*
X78560256Y-71726795D01*
X78371898Y-71648774D01*
X78333600Y-71641156D01*
X78333600Y-71247309D01*
X90720285Y-83633995D01*
%TD*%
M02*
