M48
; DRILL file {KiCad 5.1.6} date Mon Dec 14 11:27:17 2020
; FORMAT={-:-/ absolute / inch / decimal}
; #@! TF.CreationDate,2020-12-14T11:27:17-03:00
; #@! TF.GenerationSoftware,Kicad,Pcbnew,5.1.6
FMAT,2
INCH
T1C0.0118
T2C0.0157
T3C0.0197
T4C0.0394
T5C0.0551
T6C0.1260
%
G90
G05
T1
X1.765Y-4.255
X1.84Y-3.575
X1.87Y-3.915
X1.87Y-4.045
X1.87Y-4.145
X1.87Y-4.235
X1.87Y-4.355
X1.87Y-4.435
X2.045Y-2.085
X2.17Y-3.995
X2.345Y-3.89
X2.355Y-3.845
X2.365Y-3.925
X2.37Y-4.11
X2.375Y-4.18
X2.39Y-3.48
X2.39Y-3.72
X2.4Y-4.11
X2.41Y-3.47
X2.42Y-2.895
X2.42Y-3.72
X2.43Y-4.22
X2.44Y-3.465
X2.44Y-4.435
X2.44Y-4.53
X2.45Y-2.68
X2.4752Y-3.84
X2.48Y-2.74
X2.4928Y-3.8128
X2.505Y-3.645
X2.51Y-4.01
X2.5102Y-3.9683
X2.5104Y-3.9404
X2.535Y-4.065
X2.545Y-2.05
X2.57Y-3.61
X2.6Y-4.635
X2.605Y-4.33
X2.61Y-3.865
X2.6288Y-4.6
X2.6385Y-3.7466
X2.6545Y-4.5998
X2.655Y-3.675
X2.6702Y-3.7482
X2.675Y-4.58
X2.6909Y-3.7665
X2.71Y-3.72
X2.71Y-3.865
X2.73Y-4.43
X2.78Y-1.95
X2.81Y-4.31
X2.825Y-3.605
X2.85Y-4.17
X2.85Y-4.56
X2.855Y-3.9
X2.86Y-3.73
X2.86Y-4.25
X2.9Y-3.83
X2.92Y-3.85
X2.96Y-3.92
X2.975Y-4.095
X2.9857Y-3.92
X3.0026Y-4.0969
X3.0114Y-3.92
X3.0312Y-4.0978
X3.055Y-4.135
X3.065Y-3.84
X3.26Y-4.745
X3.275Y-4.55
X3.39Y-3.04
X3.395Y-2.8
X3.395Y-2.92
X3.42Y-4.68
X3.46Y-3.16
X3.475Y-4.515
X3.5Y-4.68
X3.545Y-4.78
X3.645Y-4.615
T2
X2.1Y-1.86
X2.24Y-2.32
X2.3Y-1.86
X2.4Y-2.32
X2.48Y-2.8
X2.6Y-4.74
X2.69Y-4.04
X2.92Y-1.86
X2.95Y-4.51
X2.96Y-4.36
X3.12Y-1.86
X3.22Y-2.52
X3.22Y-2.74
X3.4Y-2.22
X3.52Y-2.725
X3.56Y-2.22
X3.58Y-2.46
X3.58Y-2.52
X3.62Y-2.08
X3.62Y-2.36
X3.63Y-4.54
X3.72Y-2.08
X3.72Y-2.36
X3.78Y-2.48
X3.78Y-2.68
X3.82Y-2.08
X3.82Y-2.36
X3.82Y-2.52
X3.82Y-2.64
X3.84Y-2.58
X3.88Y-2.12
X3.88Y-2.22
X3.88Y-2.32
T3
X1.2455Y-5.2801
X1.2732Y-5.2133
X1.2732Y-5.3469
X1.34Y-5.1856
X1.34Y-5.3746
X1.4068Y-5.2133
X1.4068Y-5.3469
X1.4345Y-5.2801
X3.6855Y-1.86
X3.7132Y-1.7932
X3.7132Y-1.9268
X3.78Y-1.7655
X3.78Y-1.9545
X3.8468Y-1.7932
X3.8468Y-1.9268
X3.8745Y-1.86
X1.2455Y-1.86
X1.2732Y-1.7932
X1.2732Y-1.9268
X1.34Y-1.7655
X1.34Y-1.9545
X1.4068Y-1.7932
X1.4068Y-1.9268
X1.4345Y-1.86
X3.6855Y-5.28
X3.7132Y-5.2132
X3.7132Y-5.3468
X3.78Y-5.1855
X3.78Y-5.3745
X3.8468Y-5.2132
X3.8468Y-5.3468
X3.8745Y-5.28
T4
X3.755Y-3.32
X3.755Y-3.42
X3.755Y-3.52
X3.755Y-3.62
X3.755Y-3.72
X3.755Y-3.82
X1.59Y-3.635
X1.59Y-3.735
X1.59Y-3.835
X1.59Y-3.935
X1.59Y-4.035
X1.59Y-4.135
X1.59Y-4.235
X1.59Y-4.335
X1.59Y-4.435
X1.59Y-4.535
X1.59Y-4.635
X1.59Y-4.735
X1.59Y-4.835
X1.69Y-3.635
X1.69Y-3.735
X1.69Y-3.835
X1.69Y-3.935
X1.69Y-4.035
X1.69Y-4.135
X1.69Y-4.235
X1.69Y-4.335
X1.69Y-4.435
X1.69Y-4.535
X1.69Y-4.635
X1.69Y-4.735
X1.69Y-4.835
X3.66Y-4.0
X3.66Y-4.1
X3.66Y-4.2
X3.66Y-4.3
X3.66Y-4.4
X3.76Y-4.0
X3.76Y-4.1
X3.76Y-4.2
X3.76Y-4.3
X3.76Y-4.4
X1.58Y-3.12
X1.58Y-3.22
X1.68Y-3.12
X1.68Y-3.22
X1.955Y-2.73
X1.955Y-2.83
T5
X1.5235Y-2.34
X1.5235Y-2.5054
X1.5235Y-2.6707
X1.5235Y-2.8361
X1.74Y-2.34
X1.74Y-2.5054
X1.74Y-2.6707
X1.74Y-2.8361
T6
X1.34Y-5.2801
X3.78Y-1.86
X1.34Y-1.86
X3.78Y-5.28
T3
G00X3.6977Y-4.5835
M15
G01X3.6977Y-4.556
M16
G05
G00X3.6977Y-4.804
M15
G01X3.6977Y-4.7765
M16
G05
G00X3.7823Y-4.7017
M15
G01X3.7823Y-4.6583
M16
G05
T0
M30
