%TF.GenerationSoftware,KiCad,Pcbnew,5.1.6*%
%TF.CreationDate,2020-12-09T16:02:00-03:00*%
%TF.ProjectId,MCU_Comms_Control,4d43555f-436f-46d6-9d73-5f436f6e7472,rev?*%
%TF.SameCoordinates,Original*%
%TF.FileFunction,Legend,Top*%
%TF.FilePolarity,Positive*%
%FSLAX46Y46*%
G04 Gerber Fmt 4.6, Leading zero omitted, Abs format (unit mm)*
G04 Created by KiCad (PCBNEW 5.1.6) date 2020-12-09 16:02:00*
%MOMM*%
%LPD*%
G01*
G04 APERTURE LIST*
%ADD10C,0.300000*%
%ADD11C,0.200000*%
%ADD12C,0.120000*%
%ADD13C,0.010000*%
%ADD14C,0.150000*%
G04 APERTURE END LIST*
D10*
X104334571Y-75358285D02*
X104334571Y-74501142D01*
X105834571Y-74929714D02*
X104334571Y-74929714D01*
X105048857Y-74001142D02*
X105048857Y-73501142D01*
X105834571Y-73286857D02*
X105834571Y-74001142D01*
X104334571Y-74001142D01*
X104334571Y-73286857D01*
X105834571Y-72644000D02*
X104334571Y-72644000D01*
X105406000Y-72144000D01*
X104334571Y-71644000D01*
X105834571Y-71644000D01*
X105834571Y-70929714D02*
X104334571Y-70929714D01*
X104334571Y-70358285D01*
X104406000Y-70215428D01*
X104477428Y-70144000D01*
X104620285Y-70072571D01*
X104834571Y-70072571D01*
X104977428Y-70144000D01*
X105048857Y-70215428D01*
X105120285Y-70358285D01*
X105120285Y-70929714D01*
D11*
X75892619Y-59493476D02*
X75892619Y-58243476D01*
X76190238Y-58243476D01*
X76368809Y-58303000D01*
X76487857Y-58422047D01*
X76547380Y-58541095D01*
X76606904Y-58779190D01*
X76606904Y-58957761D01*
X76547380Y-59195857D01*
X76487857Y-59314904D01*
X76368809Y-59433952D01*
X76190238Y-59493476D01*
X75892619Y-59493476D01*
X77559285Y-58838714D02*
X77737857Y-58898238D01*
X77797380Y-58957761D01*
X77856904Y-59076809D01*
X77856904Y-59255380D01*
X77797380Y-59374428D01*
X77737857Y-59433952D01*
X77618809Y-59493476D01*
X77142619Y-59493476D01*
X77142619Y-58243476D01*
X77559285Y-58243476D01*
X77678333Y-58303000D01*
X77737857Y-58362523D01*
X77797380Y-58481571D01*
X77797380Y-58600619D01*
X77737857Y-58719666D01*
X77678333Y-58779190D01*
X77559285Y-58838714D01*
X77142619Y-58838714D01*
X79047380Y-58303000D02*
X78928333Y-58243476D01*
X78749761Y-58243476D01*
X78571190Y-58303000D01*
X78452142Y-58422047D01*
X78392619Y-58541095D01*
X78333095Y-58779190D01*
X78333095Y-58957761D01*
X78392619Y-59195857D01*
X78452142Y-59314904D01*
X78571190Y-59433952D01*
X78749761Y-59493476D01*
X78868809Y-59493476D01*
X79047380Y-59433952D01*
X79106904Y-59374428D01*
X79106904Y-58957761D01*
X78868809Y-58957761D01*
X75952142Y-56298714D02*
X76368809Y-56298714D01*
X76547380Y-56953476D02*
X75952142Y-56953476D01*
X75952142Y-55703476D01*
X76547380Y-55703476D01*
X77797380Y-56953476D02*
X77380714Y-56358238D01*
X77083095Y-56953476D02*
X77083095Y-55703476D01*
X77559285Y-55703476D01*
X77678333Y-55763000D01*
X77737857Y-55822523D01*
X77797380Y-55941571D01*
X77797380Y-56120142D01*
X77737857Y-56239190D01*
X77678333Y-56298714D01*
X77559285Y-56358238D01*
X77083095Y-56358238D01*
X79047380Y-56953476D02*
X78630714Y-56358238D01*
X78333095Y-56953476D02*
X78333095Y-55703476D01*
X78809285Y-55703476D01*
X78928333Y-55763000D01*
X78987857Y-55822523D01*
X79047380Y-55941571D01*
X79047380Y-56120142D01*
X78987857Y-56239190D01*
X78928333Y-56298714D01*
X78809285Y-56358238D01*
X78333095Y-56358238D01*
X76100952Y-54353952D02*
X76279523Y-54413476D01*
X76577142Y-54413476D01*
X76696190Y-54353952D01*
X76755714Y-54294428D01*
X76815238Y-54175380D01*
X76815238Y-54056333D01*
X76755714Y-53937285D01*
X76696190Y-53877761D01*
X76577142Y-53818238D01*
X76339047Y-53758714D01*
X76220000Y-53699190D01*
X76160476Y-53639666D01*
X76100952Y-53520619D01*
X76100952Y-53401571D01*
X76160476Y-53282523D01*
X76220000Y-53223000D01*
X76339047Y-53163476D01*
X76636666Y-53163476D01*
X76815238Y-53223000D01*
X77172380Y-53163476D02*
X77886666Y-53163476D01*
X77529523Y-54413476D02*
X77529523Y-53163476D01*
X78243809Y-54056333D02*
X78839047Y-54056333D01*
X78124761Y-54413476D02*
X78541428Y-53163476D01*
X78958095Y-54413476D01*
X76057333Y-51873476D02*
X76057333Y-50623476D01*
X76533523Y-50623476D01*
X76652571Y-50683000D01*
X76712095Y-50742523D01*
X76771619Y-50861571D01*
X76771619Y-51040142D01*
X76712095Y-51159190D01*
X76652571Y-51218714D01*
X76533523Y-51278238D01*
X76057333Y-51278238D01*
X77188285Y-50623476D02*
X77485904Y-51873476D01*
X77724000Y-50980619D01*
X77962095Y-51873476D01*
X78259714Y-50623476D01*
X79450190Y-51873476D02*
X79033523Y-51278238D01*
X78735904Y-51873476D02*
X78735904Y-50623476D01*
X79212095Y-50623476D01*
X79331142Y-50683000D01*
X79390666Y-50742523D01*
X79450190Y-50861571D01*
X79450190Y-51040142D01*
X79390666Y-51159190D01*
X79331142Y-51218714D01*
X79212095Y-51278238D01*
X78735904Y-51278238D01*
D10*
X86130285Y-55399714D02*
X86058857Y-55471142D01*
X85844571Y-55542571D01*
X85701714Y-55542571D01*
X85487428Y-55471142D01*
X85344571Y-55328285D01*
X85273142Y-55185428D01*
X85201714Y-54899714D01*
X85201714Y-54685428D01*
X85273142Y-54399714D01*
X85344571Y-54256857D01*
X85487428Y-54114000D01*
X85701714Y-54042571D01*
X85844571Y-54042571D01*
X86058857Y-54114000D01*
X86130285Y-54185428D01*
X86701714Y-55114000D02*
X87416000Y-55114000D01*
X86558857Y-55542571D02*
X87058857Y-54042571D01*
X87558857Y-55542571D01*
X88058857Y-55542571D02*
X88058857Y-54042571D01*
X88916000Y-55542571D01*
X88916000Y-54042571D01*
X91273142Y-54756857D02*
X91487428Y-54828285D01*
X91558857Y-54899714D01*
X91630285Y-55042571D01*
X91630285Y-55256857D01*
X91558857Y-55399714D01*
X91487428Y-55471142D01*
X91344571Y-55542571D01*
X90773142Y-55542571D01*
X90773142Y-54042571D01*
X91273142Y-54042571D01*
X91416000Y-54114000D01*
X91487428Y-54185428D01*
X91558857Y-54328285D01*
X91558857Y-54471142D01*
X91487428Y-54614000D01*
X91416000Y-54685428D01*
X91273142Y-54756857D01*
X90773142Y-54756857D01*
X92273142Y-54042571D02*
X92273142Y-55256857D01*
X92344571Y-55399714D01*
X92416000Y-55471142D01*
X92558857Y-55542571D01*
X92844571Y-55542571D01*
X92987428Y-55471142D01*
X93058857Y-55399714D01*
X93130285Y-55256857D01*
X93130285Y-54042571D01*
X93773142Y-55471142D02*
X93987428Y-55542571D01*
X94344571Y-55542571D01*
X94487428Y-55471142D01*
X94558857Y-55399714D01*
X94630285Y-55256857D01*
X94630285Y-55114000D01*
X94558857Y-54971142D01*
X94487428Y-54899714D01*
X94344571Y-54828285D01*
X94058857Y-54756857D01*
X93916000Y-54685428D01*
X93844571Y-54614000D01*
X93773142Y-54471142D01*
X93773142Y-54328285D01*
X93844571Y-54185428D01*
X93916000Y-54114000D01*
X94058857Y-54042571D01*
X94416000Y-54042571D01*
X94630285Y-54114000D01*
X87824571Y-108743428D02*
X89038857Y-108743428D01*
X89181714Y-108672000D01*
X89253142Y-108600571D01*
X89324571Y-108457714D01*
X89324571Y-108172000D01*
X89253142Y-108029142D01*
X89181714Y-107957714D01*
X89038857Y-107886285D01*
X87824571Y-107886285D01*
X89253142Y-107243428D02*
X89324571Y-107029142D01*
X89324571Y-106672000D01*
X89253142Y-106529142D01*
X89181714Y-106457714D01*
X89038857Y-106386285D01*
X88896000Y-106386285D01*
X88753142Y-106457714D01*
X88681714Y-106529142D01*
X88610285Y-106672000D01*
X88538857Y-106957714D01*
X88467428Y-107100571D01*
X88396000Y-107172000D01*
X88253142Y-107243428D01*
X88110285Y-107243428D01*
X87967428Y-107172000D01*
X87896000Y-107100571D01*
X87824571Y-106957714D01*
X87824571Y-106600571D01*
X87896000Y-106386285D01*
X88538857Y-105743428D02*
X88538857Y-105243428D01*
X89324571Y-105029142D02*
X89324571Y-105743428D01*
X87824571Y-105743428D01*
X87824571Y-105029142D01*
X89324571Y-103529142D02*
X88610285Y-104029142D01*
X89324571Y-104386285D02*
X87824571Y-104386285D01*
X87824571Y-103814857D01*
X87896000Y-103672000D01*
X87967428Y-103600571D01*
X88110285Y-103529142D01*
X88324571Y-103529142D01*
X88467428Y-103600571D01*
X88538857Y-103672000D01*
X88610285Y-103814857D01*
X88610285Y-104386285D01*
X103524857Y-108207714D02*
X103596285Y-107993428D01*
X103667714Y-107922000D01*
X103810571Y-107850571D01*
X104024857Y-107850571D01*
X104167714Y-107922000D01*
X104239142Y-107993428D01*
X104310571Y-108136285D01*
X104310571Y-108707714D01*
X102810571Y-108707714D01*
X102810571Y-108207714D01*
X102882000Y-108064857D01*
X102953428Y-107993428D01*
X103096285Y-107922000D01*
X103239142Y-107922000D01*
X103382000Y-107993428D01*
X103453428Y-108064857D01*
X103524857Y-108207714D01*
X103524857Y-108707714D01*
X102810571Y-106922000D02*
X102810571Y-106636285D01*
X102882000Y-106493428D01*
X103024857Y-106350571D01*
X103310571Y-106279142D01*
X103810571Y-106279142D01*
X104096285Y-106350571D01*
X104239142Y-106493428D01*
X104310571Y-106636285D01*
X104310571Y-106922000D01*
X104239142Y-107064857D01*
X104096285Y-107207714D01*
X103810571Y-107279142D01*
X103310571Y-107279142D01*
X103024857Y-107207714D01*
X102882000Y-107064857D01*
X102810571Y-106922000D01*
X102810571Y-105350571D02*
X102810571Y-105064857D01*
X102882000Y-104922000D01*
X103024857Y-104779142D01*
X103310571Y-104707714D01*
X103810571Y-104707714D01*
X104096285Y-104779142D01*
X104239142Y-104922000D01*
X104310571Y-105064857D01*
X104310571Y-105350571D01*
X104239142Y-105493428D01*
X104096285Y-105636285D01*
X103810571Y-105707714D01*
X103310571Y-105707714D01*
X103024857Y-105636285D01*
X102882000Y-105493428D01*
X102810571Y-105350571D01*
X102810571Y-104279142D02*
X102810571Y-103422000D01*
X104310571Y-103850571D02*
X102810571Y-103850571D01*
X105580571Y-89355714D02*
X104080571Y-89355714D01*
X104080571Y-88998571D01*
X104152000Y-88784285D01*
X104294857Y-88641428D01*
X104437714Y-88570000D01*
X104723428Y-88498571D01*
X104937714Y-88498571D01*
X105223428Y-88570000D01*
X105366285Y-88641428D01*
X105509142Y-88784285D01*
X105580571Y-88998571D01*
X105580571Y-89355714D01*
X104794857Y-87855714D02*
X104794857Y-87355714D01*
X105580571Y-87141428D02*
X105580571Y-87855714D01*
X104080571Y-87855714D01*
X104080571Y-87141428D01*
X104794857Y-85998571D02*
X104866285Y-85784285D01*
X104937714Y-85712857D01*
X105080571Y-85641428D01*
X105294857Y-85641428D01*
X105437714Y-85712857D01*
X105509142Y-85784285D01*
X105580571Y-85927142D01*
X105580571Y-86498571D01*
X104080571Y-86498571D01*
X104080571Y-85998571D01*
X104152000Y-85855714D01*
X104223428Y-85784285D01*
X104366285Y-85712857D01*
X104509142Y-85712857D01*
X104652000Y-85784285D01*
X104723428Y-85855714D01*
X104794857Y-85998571D01*
X104794857Y-86498571D01*
X104080571Y-84998571D02*
X105294857Y-84998571D01*
X105437714Y-84927142D01*
X105509142Y-84855714D01*
X105580571Y-84712857D01*
X105580571Y-84427142D01*
X105509142Y-84284285D01*
X105437714Y-84212857D01*
X105294857Y-84141428D01*
X104080571Y-84141428D01*
X104152000Y-82641428D02*
X104080571Y-82784285D01*
X104080571Y-82998571D01*
X104152000Y-83212857D01*
X104294857Y-83355714D01*
X104437714Y-83427142D01*
X104723428Y-83498571D01*
X104937714Y-83498571D01*
X105223428Y-83427142D01*
X105366285Y-83355714D01*
X105509142Y-83212857D01*
X105580571Y-82998571D01*
X105580571Y-82855714D01*
X105509142Y-82641428D01*
X105437714Y-82570000D01*
X104937714Y-82570000D01*
X104937714Y-82855714D01*
X104152000Y-81141428D02*
X104080571Y-81284285D01*
X104080571Y-81498571D01*
X104152000Y-81712857D01*
X104294857Y-81855714D01*
X104437714Y-81927142D01*
X104723428Y-81998571D01*
X104937714Y-81998571D01*
X105223428Y-81927142D01*
X105366285Y-81855714D01*
X105509142Y-81712857D01*
X105580571Y-81498571D01*
X105580571Y-81355714D01*
X105509142Y-81141428D01*
X105437714Y-81070000D01*
X104937714Y-81070000D01*
X104937714Y-81355714D01*
X104794857Y-80427142D02*
X104794857Y-79927142D01*
X105580571Y-79712857D02*
X105580571Y-80427142D01*
X104080571Y-80427142D01*
X104080571Y-79712857D01*
X105580571Y-78212857D02*
X104866285Y-78712857D01*
X105580571Y-79070000D02*
X104080571Y-79070000D01*
X104080571Y-78498571D01*
X104152000Y-78355714D01*
X104223428Y-78284285D01*
X104366285Y-78212857D01*
X104580571Y-78212857D01*
X104723428Y-78284285D01*
X104794857Y-78355714D01*
X104866285Y-78498571D01*
X104866285Y-79070000D01*
D11*
X105962952Y-66000380D02*
X106582000Y-66000380D01*
X106248666Y-66381333D01*
X106391523Y-66381333D01*
X106486761Y-66428952D01*
X106534380Y-66476571D01*
X106582000Y-66571809D01*
X106582000Y-66809904D01*
X106534380Y-66905142D01*
X106486761Y-66952761D01*
X106391523Y-67000380D01*
X106105809Y-67000380D01*
X106010571Y-66952761D01*
X105962952Y-66905142D01*
X106867714Y-66000380D02*
X107201047Y-67000380D01*
X107534380Y-66000380D01*
X107772476Y-66000380D02*
X108391523Y-66000380D01*
X108058190Y-66381333D01*
X108201047Y-66381333D01*
X108296285Y-66428952D01*
X108343904Y-66476571D01*
X108391523Y-66571809D01*
X108391523Y-66809904D01*
X108343904Y-66905142D01*
X108296285Y-66952761D01*
X108201047Y-67000380D01*
X107915333Y-67000380D01*
X107820095Y-66952761D01*
X107772476Y-66905142D01*
X106724857Y-64460380D02*
X106724857Y-63460380D01*
X107058190Y-64174666D01*
X107391523Y-63460380D01*
X107391523Y-64460380D01*
X108058190Y-63460380D02*
X108153428Y-63460380D01*
X108248666Y-63508000D01*
X108296285Y-63555619D01*
X108343904Y-63650857D01*
X108391523Y-63841333D01*
X108391523Y-64079428D01*
X108343904Y-64269904D01*
X108296285Y-64365142D01*
X108248666Y-64412761D01*
X108153428Y-64460380D01*
X108058190Y-64460380D01*
X107962952Y-64412761D01*
X107915333Y-64365142D01*
X107867714Y-64269904D01*
X107820095Y-64079428D01*
X107820095Y-63841333D01*
X107867714Y-63650857D01*
X107915333Y-63555619D01*
X107962952Y-63508000D01*
X108058190Y-63460380D01*
X106724857Y-61920380D02*
X106724857Y-60920380D01*
X107058190Y-61634666D01*
X107391523Y-60920380D01*
X107391523Y-61920380D01*
X108391523Y-61920380D02*
X107820095Y-61920380D01*
X108105809Y-61920380D02*
X108105809Y-60920380D01*
X108010571Y-61063238D01*
X107915333Y-61158476D01*
X107820095Y-61206095D01*
X106296285Y-58682000D02*
X106201047Y-58634380D01*
X106058190Y-58634380D01*
X105915333Y-58682000D01*
X105820095Y-58777238D01*
X105772476Y-58872476D01*
X105724857Y-59062952D01*
X105724857Y-59205809D01*
X105772476Y-59396285D01*
X105820095Y-59491523D01*
X105915333Y-59586761D01*
X106058190Y-59634380D01*
X106153428Y-59634380D01*
X106296285Y-59586761D01*
X106343904Y-59539142D01*
X106343904Y-59205809D01*
X106153428Y-59205809D01*
X106772476Y-59634380D02*
X106772476Y-58634380D01*
X107343904Y-59634380D01*
X107343904Y-58634380D01*
X107820095Y-59634380D02*
X107820095Y-58634380D01*
X108058190Y-58634380D01*
X108201047Y-58682000D01*
X108296285Y-58777238D01*
X108343904Y-58872476D01*
X108391523Y-59062952D01*
X108391523Y-59205809D01*
X108343904Y-59396285D01*
X108296285Y-59491523D01*
X108201047Y-59586761D01*
X108058190Y-59634380D01*
X107820095Y-59634380D01*
D10*
X77640571Y-88994285D02*
X76140571Y-88994285D01*
X76140571Y-88422857D01*
X76212000Y-88280000D01*
X76283428Y-88208571D01*
X76426285Y-88137142D01*
X76640571Y-88137142D01*
X76783428Y-88208571D01*
X76854857Y-88280000D01*
X76926285Y-88422857D01*
X76926285Y-88994285D01*
X76140571Y-87208571D02*
X76140571Y-86922857D01*
X76212000Y-86780000D01*
X76354857Y-86637142D01*
X76640571Y-86565714D01*
X77140571Y-86565714D01*
X77426285Y-86637142D01*
X77569142Y-86780000D01*
X77640571Y-86922857D01*
X77640571Y-87208571D01*
X77569142Y-87351428D01*
X77426285Y-87494285D01*
X77140571Y-87565714D01*
X76640571Y-87565714D01*
X76354857Y-87494285D01*
X76212000Y-87351428D01*
X76140571Y-87208571D01*
X76140571Y-86065714D02*
X77640571Y-85708571D01*
X76569142Y-85422857D01*
X77640571Y-85137142D01*
X76140571Y-84780000D01*
X76854857Y-84208571D02*
X76854857Y-83708571D01*
X77640571Y-83494285D02*
X77640571Y-84208571D01*
X76140571Y-84208571D01*
X76140571Y-83494285D01*
X77640571Y-81994285D02*
X76926285Y-82494285D01*
X77640571Y-82851428D02*
X76140571Y-82851428D01*
X76140571Y-82280000D01*
X76212000Y-82137142D01*
X76283428Y-82065714D01*
X76426285Y-81994285D01*
X76640571Y-81994285D01*
X76783428Y-82065714D01*
X76854857Y-82137142D01*
X76926285Y-82280000D01*
X76926285Y-82851428D01*
X76854857Y-79708571D02*
X76926285Y-79494285D01*
X76997714Y-79422857D01*
X77140571Y-79351428D01*
X77354857Y-79351428D01*
X77497714Y-79422857D01*
X77569142Y-79494285D01*
X77640571Y-79637142D01*
X77640571Y-80208571D01*
X76140571Y-80208571D01*
X76140571Y-79708571D01*
X76212000Y-79565714D01*
X76283428Y-79494285D01*
X76426285Y-79422857D01*
X76569142Y-79422857D01*
X76712000Y-79494285D01*
X76783428Y-79565714D01*
X76854857Y-79708571D01*
X76854857Y-80208571D01*
X76140571Y-78422857D02*
X76140571Y-78137142D01*
X76212000Y-77994285D01*
X76354857Y-77851428D01*
X76640571Y-77780000D01*
X77140571Y-77780000D01*
X77426285Y-77851428D01*
X77569142Y-77994285D01*
X77640571Y-78137142D01*
X77640571Y-78422857D01*
X77569142Y-78565714D01*
X77426285Y-78708571D01*
X77140571Y-78780000D01*
X76640571Y-78780000D01*
X76354857Y-78708571D01*
X76212000Y-78565714D01*
X76140571Y-78422857D01*
X77212000Y-77208571D02*
X77212000Y-76494285D01*
X77640571Y-77351428D02*
X76140571Y-76851428D01*
X77640571Y-76351428D01*
X77640571Y-74994285D02*
X76926285Y-75494285D01*
X77640571Y-75851428D02*
X76140571Y-75851428D01*
X76140571Y-75280000D01*
X76212000Y-75137142D01*
X76283428Y-75065714D01*
X76426285Y-74994285D01*
X76640571Y-74994285D01*
X76783428Y-75065714D01*
X76854857Y-75137142D01*
X76926285Y-75280000D01*
X76926285Y-75851428D01*
X77640571Y-74351428D02*
X76140571Y-74351428D01*
X76140571Y-73994285D01*
X76212000Y-73780000D01*
X76354857Y-73637142D01*
X76497714Y-73565714D01*
X76783428Y-73494285D01*
X76997714Y-73494285D01*
X77283428Y-73565714D01*
X77426285Y-73637142D01*
X77569142Y-73780000D01*
X77640571Y-73994285D01*
X77640571Y-74351428D01*
D12*
%TO.C,J4*%
X111566000Y-90230000D02*
X110236000Y-90230000D01*
X111566000Y-88900000D02*
X111566000Y-90230000D01*
X108966000Y-90230000D02*
X106366000Y-90230000D01*
X108966000Y-87630000D02*
X108966000Y-90230000D01*
X111566000Y-87630000D02*
X108966000Y-87630000D01*
X106366000Y-90230000D02*
X106366000Y-77410000D01*
X111566000Y-87630000D02*
X111566000Y-77410000D01*
X111566000Y-77410000D02*
X106366000Y-77410000D01*
%TO.C,U1*%
X104532000Y-96180000D02*
X102082000Y-96180000D01*
X102732000Y-99400000D02*
X104532000Y-99400000D01*
%TO.C,J6*%
X106366000Y-75244000D02*
X106366000Y-73914000D01*
X107696000Y-75244000D02*
X106366000Y-75244000D01*
X106366000Y-72644000D02*
X106366000Y-70044000D01*
X108966000Y-72644000D02*
X106366000Y-72644000D01*
X108966000Y-75244000D02*
X108966000Y-72644000D01*
X106366000Y-70044000D02*
X111566000Y-70044000D01*
X108966000Y-75244000D02*
X111566000Y-75244000D01*
X111566000Y-75244000D02*
X111566000Y-70044000D01*
%TO.C,J1*%
X107649000Y-95282000D02*
X107649000Y-93132000D01*
X111199000Y-93132000D02*
X111199000Y-96032000D01*
X107649000Y-101432000D02*
X111199000Y-101432000D01*
X111199000Y-101432000D02*
X111199000Y-98532000D01*
X107649000Y-93132000D02*
X111199000Y-93132000D01*
X107649000Y-99282000D02*
X107649000Y-101432000D01*
X107649000Y-98982000D02*
X107649000Y-98382000D01*
X108399000Y-98982000D02*
X107649000Y-98982000D01*
D13*
%TO.C,G\u002A\u002A\u002A*%
G36*
X92116721Y-94823767D02*
G01*
X92109410Y-94869332D01*
X92093862Y-94927257D01*
X92072726Y-94988196D01*
X92048649Y-95042807D01*
X92039620Y-95059376D01*
X91978533Y-95139233D01*
X91892110Y-95218628D01*
X91788403Y-95291419D01*
X91675464Y-95351465D01*
X91633772Y-95368905D01*
X91571644Y-95393835D01*
X91524560Y-95414481D01*
X91499161Y-95427838D01*
X91496706Y-95430883D01*
X91513291Y-95426722D01*
X91555998Y-95412119D01*
X91619462Y-95389101D01*
X91698318Y-95359699D01*
X91787200Y-95325940D01*
X91880745Y-95289852D01*
X91973585Y-95253465D01*
X92060357Y-95218806D01*
X92096167Y-95204243D01*
X92114320Y-95206973D01*
X92117697Y-95232491D01*
X92108730Y-95274417D01*
X92089853Y-95326370D01*
X92063498Y-95381971D01*
X92032101Y-95434840D01*
X91998093Y-95478596D01*
X91987461Y-95489257D01*
X91933062Y-95535062D01*
X91871600Y-95576616D01*
X91799284Y-95615414D01*
X91712325Y-95652949D01*
X91606935Y-95690715D01*
X91479322Y-95730205D01*
X91325699Y-95772912D01*
X91156716Y-95816688D01*
X91002441Y-95855833D01*
X90878732Y-95887607D01*
X90783251Y-95912658D01*
X90713658Y-95931634D01*
X90667617Y-95945186D01*
X90642790Y-95953960D01*
X90636838Y-95958607D01*
X90641392Y-95959686D01*
X90666245Y-95956130D01*
X90682405Y-95952733D01*
X90965866Y-95952733D01*
X90974333Y-95961200D01*
X90982800Y-95952733D01*
X90974333Y-95944267D01*
X90965866Y-95952733D01*
X90682405Y-95952733D01*
X90719133Y-95945013D01*
X90795370Y-95927517D01*
X90831545Y-95918867D01*
X91118266Y-95918867D01*
X91126733Y-95927333D01*
X91135200Y-95918867D01*
X91126733Y-95910400D01*
X91118266Y-95918867D01*
X90831545Y-95918867D01*
X90890271Y-95904825D01*
X90902061Y-95901933D01*
X91202933Y-95901933D01*
X91211400Y-95910400D01*
X91219867Y-95901933D01*
X91211400Y-95893467D01*
X91202933Y-95901933D01*
X90902061Y-95901933D01*
X90999154Y-95878119D01*
X91117333Y-95848583D01*
X91240123Y-95817398D01*
X91362842Y-95785748D01*
X91480803Y-95754816D01*
X91589322Y-95725783D01*
X91683716Y-95699834D01*
X91759300Y-95678150D01*
X91774508Y-95673595D01*
X91857233Y-95648866D01*
X91928608Y-95628157D01*
X91982249Y-95613273D01*
X92011772Y-95606019D01*
X92014927Y-95605600D01*
X92021216Y-95619549D01*
X92013557Y-95655881D01*
X92011970Y-95660633D01*
X91956722Y-95769776D01*
X91871148Y-95864079D01*
X91755168Y-95943618D01*
X91663987Y-95987209D01*
X91618370Y-96007802D01*
X91593161Y-96022573D01*
X91593523Y-96028217D01*
X91625085Y-96025546D01*
X91677883Y-96017969D01*
X91740008Y-96007519D01*
X91799548Y-95996229D01*
X91844592Y-95986130D01*
X91851738Y-95984164D01*
X91869572Y-95980926D01*
X91872056Y-95990708D01*
X91858807Y-96020424D01*
X91848652Y-96040141D01*
X91781859Y-96138752D01*
X91691812Y-96220054D01*
X91575241Y-96286536D01*
X91470886Y-96327349D01*
X91421801Y-96343822D01*
X91390226Y-96355192D01*
X91378744Y-96361684D01*
X91389934Y-96363525D01*
X91426377Y-96360941D01*
X91490654Y-96354158D01*
X91585345Y-96343401D01*
X91615198Y-96339989D01*
X91714196Y-96328687D01*
X91678854Y-96397962D01*
X91621749Y-96475641D01*
X91538206Y-96542807D01*
X91435040Y-96595376D01*
X91319065Y-96629262D01*
X91283350Y-96635100D01*
X91194467Y-96647000D01*
X91320558Y-96655466D01*
X91446650Y-96663933D01*
X91389895Y-96728431D01*
X91303008Y-96802093D01*
X91191437Y-96855204D01*
X91058299Y-96886558D01*
X90960800Y-96894726D01*
X90931327Y-96896631D01*
X90929265Y-96900246D01*
X90956674Y-96906354D01*
X91015615Y-96915735D01*
X91016666Y-96915892D01*
X91143666Y-96934867D01*
X91106467Y-96972066D01*
X91034615Y-97026020D01*
X90943923Y-97060498D01*
X90849600Y-97076188D01*
X90737921Y-97087267D01*
X90835349Y-97117888D01*
X90884893Y-97136343D01*
X90916280Y-97153714D01*
X90922773Y-97164696D01*
X90902628Y-97181639D01*
X90863390Y-97205608D01*
X90842960Y-97216498D01*
X90800115Y-97235116D01*
X90756538Y-97244710D01*
X90700506Y-97246876D01*
X90638799Y-97244334D01*
X90504447Y-97236556D01*
X90608157Y-97283634D01*
X90660487Y-97309633D01*
X90697761Y-97332437D01*
X90711866Y-97347032D01*
X90696078Y-97366110D01*
X90653270Y-97382600D01*
X90590278Y-97394799D01*
X90513937Y-97401005D01*
X90493440Y-97401421D01*
X90435113Y-97402564D01*
X90405726Y-97405846D01*
X90400358Y-97412826D01*
X90414088Y-97425063D01*
X90415533Y-97426084D01*
X90468473Y-97464074D01*
X90497882Y-97487944D01*
X90508536Y-97502163D01*
X90505851Y-97510593D01*
X90481806Y-97517844D01*
X90434664Y-97521655D01*
X90375024Y-97522007D01*
X90313483Y-97518885D01*
X90260638Y-97512269D01*
X90254290Y-97511011D01*
X90195400Y-97498571D01*
X90262336Y-97568085D01*
X90329273Y-97637600D01*
X90178467Y-97637726D01*
X90229267Y-97668707D01*
X90272581Y-97701332D01*
X90319748Y-97745642D01*
X90333894Y-97760992D01*
X90387720Y-97822297D01*
X90451631Y-97778926D01*
X90489740Y-97748800D01*
X90543138Y-97701026D01*
X90604054Y-97642759D01*
X90651978Y-97594434D01*
X90736278Y-97511820D01*
X90808626Y-97453293D01*
X90876361Y-97415102D01*
X90946821Y-97393496D01*
X91027342Y-97384726D01*
X91063777Y-97383972D01*
X91165175Y-97389743D01*
X91243392Y-97409812D01*
X91307207Y-97447264D01*
X91345801Y-97483114D01*
X91392607Y-97521830D01*
X91442521Y-97536013D01*
X91455868Y-97536563D01*
X91516200Y-97537127D01*
X91478438Y-97568637D01*
X91453991Y-97593608D01*
X91455573Y-97611236D01*
X91464066Y-97619560D01*
X91484074Y-97644618D01*
X91511639Y-97689361D01*
X91533666Y-97730303D01*
X91562119Y-97782326D01*
X91586744Y-97811582D01*
X91616940Y-97826482D01*
X91648706Y-97833263D01*
X91690589Y-97841568D01*
X91703667Y-97849941D01*
X91692707Y-97862901D01*
X91685598Y-97868246D01*
X91644729Y-97885796D01*
X91604343Y-97891600D01*
X91555025Y-97891600D01*
X91607579Y-97951456D01*
X91637099Y-97988933D01*
X91652933Y-98024176D01*
X91659212Y-98070349D01*
X91660133Y-98118998D01*
X91661942Y-98181275D01*
X91670000Y-98222358D01*
X91688250Y-98254842D01*
X91710869Y-98280997D01*
X91744218Y-98324599D01*
X91747990Y-98352049D01*
X91722296Y-98363027D01*
X91683380Y-98360197D01*
X91644883Y-98356383D01*
X91629329Y-98366535D01*
X91626638Y-98396431D01*
X91636336Y-98456185D01*
X91660621Y-98516126D01*
X91693655Y-98565547D01*
X91729599Y-98593743D01*
X91735238Y-98595571D01*
X91771209Y-98610427D01*
X91774254Y-98626835D01*
X91744052Y-98641958D01*
X91740567Y-98642927D01*
X91651797Y-98652471D01*
X91566072Y-98631332D01*
X91479909Y-98578375D01*
X91442211Y-98545871D01*
X91385156Y-98492733D01*
X91396477Y-98571799D01*
X91402104Y-98619182D01*
X91399335Y-98640877D01*
X91385665Y-98644546D01*
X91373551Y-98641909D01*
X91338028Y-98623922D01*
X91299048Y-98592678D01*
X91297408Y-98591057D01*
X91278298Y-98569278D01*
X91261251Y-98541977D01*
X91243969Y-98503481D01*
X91224156Y-98448117D01*
X91199514Y-98370212D01*
X91175279Y-98289533D01*
X91145120Y-98187933D01*
X91134638Y-98289533D01*
X91123197Y-98371867D01*
X91108532Y-98423447D01*
X91089573Y-98447317D01*
X91078355Y-98449819D01*
X91060743Y-98434573D01*
X91036499Y-98394903D01*
X91009041Y-98338725D01*
X90981787Y-98273956D01*
X90958156Y-98208512D01*
X90947463Y-98171000D01*
X91118266Y-98171000D01*
X91126733Y-98179466D01*
X91135200Y-98171000D01*
X91126733Y-98162533D01*
X91118266Y-98171000D01*
X90947463Y-98171000D01*
X90941565Y-98150310D01*
X90936238Y-98120677D01*
X90928055Y-98072679D01*
X90917313Y-98056027D01*
X90909358Y-98059869D01*
X90876625Y-98074659D01*
X90829534Y-98076804D01*
X90779223Y-98068490D01*
X90736829Y-98051900D01*
X90713491Y-98029219D01*
X90711866Y-98021136D01*
X90726636Y-98002580D01*
X90754905Y-97997433D01*
X90791180Y-97993962D01*
X90807739Y-97987638D01*
X90813137Y-97961380D01*
X90801227Y-97922946D01*
X90777438Y-97885254D01*
X90756749Y-97866313D01*
X90705021Y-97851970D01*
X90638394Y-97867250D01*
X90556402Y-97912277D01*
X90539536Y-97923861D01*
X90488938Y-97965620D01*
X90455101Y-98011607D01*
X90434010Y-98070583D01*
X90421651Y-98151310D01*
X90418526Y-98187933D01*
X90408730Y-98269811D01*
X90392686Y-98354443D01*
X90373860Y-98423560D01*
X90373785Y-98423777D01*
X90339086Y-98524154D01*
X90377310Y-98565276D01*
X90414675Y-98599929D01*
X90464850Y-98639894D01*
X90487500Y-98656212D01*
X90532015Y-98690959D01*
X90553443Y-98721288D01*
X90559058Y-98757778D01*
X90559053Y-98760247D01*
X90554090Y-98823319D01*
X90538859Y-98893068D01*
X90511426Y-98975617D01*
X90469860Y-99077090D01*
X90433730Y-99157437D01*
X90373062Y-99301180D01*
X90334169Y-99423334D01*
X90316327Y-99527622D01*
X90318814Y-99617770D01*
X90332987Y-99676602D01*
X90346876Y-99724142D01*
X90352272Y-99757265D01*
X90350716Y-99765462D01*
X90327732Y-99772481D01*
X90280830Y-99777923D01*
X90219937Y-99781517D01*
X90154976Y-99782992D01*
X90095873Y-99782079D01*
X90052551Y-99778507D01*
X90036534Y-99774024D01*
X90022134Y-99745948D01*
X90023647Y-99701686D01*
X90038668Y-99653538D01*
X90064795Y-99613804D01*
X90068538Y-99610209D01*
X90118587Y-99551035D01*
X90169684Y-99466543D01*
X90218338Y-99364976D01*
X90261057Y-99254577D01*
X90294352Y-99143587D01*
X90314732Y-99040251D01*
X90316619Y-99024429D01*
X90316394Y-98924977D01*
X90295341Y-98838291D01*
X90256057Y-98769743D01*
X90201140Y-98724707D01*
X90165560Y-98711980D01*
X90045618Y-98671491D01*
X89926458Y-98605509D01*
X89818847Y-98520901D01*
X89750524Y-98447245D01*
X89701281Y-98384823D01*
X89647352Y-98417619D01*
X89591848Y-98466448D01*
X89568385Y-98523894D01*
X89577291Y-98586679D01*
X89618899Y-98651528D01*
X89623300Y-98656333D01*
X89665462Y-98701400D01*
X89592170Y-98780913D01*
X89550152Y-98820570D01*
X89487580Y-98872251D01*
X89412404Y-98929694D01*
X89332577Y-98986637D01*
X89320121Y-98995136D01*
X89202735Y-99078723D01*
X89113663Y-99152086D01*
X89050143Y-99218466D01*
X89009414Y-99281107D01*
X88988716Y-99343248D01*
X88984666Y-99389003D01*
X88979137Y-99417555D01*
X88956770Y-99435947D01*
X88913024Y-99450519D01*
X88850601Y-99460690D01*
X88785192Y-99461083D01*
X88728764Y-99452512D01*
X88693288Y-99435792D01*
X88693036Y-99435543D01*
X88682297Y-99402910D01*
X88692797Y-99355902D01*
X88721141Y-99303385D01*
X88761603Y-99256377D01*
X88788004Y-99232126D01*
X88815606Y-99207847D01*
X88848783Y-99179981D01*
X88891906Y-99144971D01*
X88949350Y-99099257D01*
X89025489Y-99039282D01*
X89106762Y-98975536D01*
X89198593Y-98898671D01*
X89266644Y-98831073D01*
X89308897Y-98775001D01*
X89323333Y-98732890D01*
X89312243Y-98710174D01*
X89282125Y-98669312D01*
X89237709Y-98616295D01*
X89188996Y-98562692D01*
X89113105Y-98476817D01*
X89062013Y-98404636D01*
X89032944Y-98340181D01*
X89023125Y-98277480D01*
X89028508Y-98217316D01*
X89044206Y-98152922D01*
X89069096Y-98101068D01*
X89110626Y-98047977D01*
X89133109Y-98023785D01*
X89138240Y-98018600D01*
X89441867Y-98018600D01*
X89450333Y-98027066D01*
X89458800Y-98018600D01*
X89450333Y-98010133D01*
X89441867Y-98018600D01*
X89138240Y-98018600D01*
X89158118Y-97998513D01*
X89174010Y-97980482D01*
X89176991Y-97967514D01*
X89163268Y-97957433D01*
X89129047Y-97948061D01*
X89070535Y-97937221D01*
X88983938Y-97922735D01*
X88945898Y-97916334D01*
X88808910Y-97885678D01*
X88694922Y-97844711D01*
X88607256Y-97794976D01*
X88549237Y-97738014D01*
X88543835Y-97729819D01*
X88520589Y-97693364D01*
X88506220Y-97673005D01*
X88504530Y-97671467D01*
X88487853Y-97675354D01*
X88445426Y-97685844D01*
X88384317Y-97701177D01*
X88334407Y-97713800D01*
X88258672Y-97731908D01*
X88190834Y-97746149D01*
X88140433Y-97754617D01*
X88122546Y-97756133D01*
X88082051Y-97767434D01*
X88048428Y-97805573D01*
X88045551Y-97810335D01*
X88021960Y-97844780D01*
X87982030Y-97897462D01*
X87931523Y-97960963D01*
X87881033Y-98022128D01*
X87819052Y-98099321D01*
X87775205Y-98161426D01*
X87751827Y-98204973D01*
X87748533Y-98219302D01*
X87763723Y-98267084D01*
X87802938Y-98301796D01*
X87855700Y-98314933D01*
X87883970Y-98319398D01*
X87897981Y-98335947D01*
X87897757Y-98369317D01*
X87883322Y-98424239D01*
X87856638Y-98500231D01*
X87831929Y-98562692D01*
X87812343Y-98599127D01*
X87793377Y-98615981D01*
X87773124Y-98619733D01*
X87731522Y-98603544D01*
X87691074Y-98557828D01*
X87654969Y-98486865D01*
X87638091Y-98438534D01*
X87619021Y-98363705D01*
X87612125Y-98297094D01*
X87619109Y-98232423D01*
X87641684Y-98163412D01*
X87681557Y-98083780D01*
X87740437Y-97987249D01*
X87775377Y-97933933D01*
X87824283Y-97857475D01*
X87867672Y-97784310D01*
X87901035Y-97722403D01*
X87919861Y-97679721D01*
X87920547Y-97677561D01*
X87931430Y-97644465D01*
X87944346Y-97619179D01*
X87951024Y-97612200D01*
X90051467Y-97612200D01*
X90059933Y-97620667D01*
X90068400Y-97612200D01*
X90059933Y-97603733D01*
X90051467Y-97612200D01*
X87951024Y-97612200D01*
X87964607Y-97598007D01*
X87997525Y-97577252D01*
X88048410Y-97553216D01*
X88122575Y-97522202D01*
X88173379Y-97501573D01*
X88192295Y-97493667D01*
X90170000Y-97493667D01*
X90178467Y-97502133D01*
X90186933Y-97493667D01*
X90178467Y-97485200D01*
X90170000Y-97493667D01*
X88192295Y-97493667D01*
X88246236Y-97471123D01*
X88308260Y-97443456D01*
X88352147Y-97421939D01*
X88369613Y-97411117D01*
X88381088Y-97383434D01*
X88379842Y-97345799D01*
X88368442Y-97312778D01*
X88349849Y-97298933D01*
X88341989Y-97294792D01*
X89549907Y-97294792D01*
X89551933Y-97309613D01*
X89575749Y-97320280D01*
X89618917Y-97340543D01*
X89653533Y-97357095D01*
X89700935Y-97379692D01*
X89734082Y-97395069D01*
X89743822Y-97399198D01*
X89736536Y-97388379D01*
X89712023Y-97358745D01*
X89676088Y-97317282D01*
X89652461Y-97290467D01*
X90068400Y-97290467D01*
X90076867Y-97298933D01*
X90085333Y-97290467D01*
X90076867Y-97282000D01*
X90068400Y-97290467D01*
X89652461Y-97290467D01*
X89602733Y-97234032D01*
X89568867Y-97268465D01*
X89549907Y-97294792D01*
X88341989Y-97294792D01*
X88325875Y-97286304D01*
X88288117Y-97252751D01*
X88259678Y-97222733D01*
X90474800Y-97222733D01*
X90483266Y-97231200D01*
X90491733Y-97222733D01*
X90483266Y-97214267D01*
X90474800Y-97222733D01*
X88259678Y-97222733D01*
X88242665Y-97204776D01*
X88202216Y-97156730D01*
X89703492Y-97156730D01*
X89712800Y-97171933D01*
X89738297Y-97193278D01*
X89750813Y-97197333D01*
X89755975Y-97187137D01*
X89746667Y-97171933D01*
X89721169Y-97150589D01*
X89708653Y-97146533D01*
X89703492Y-97156730D01*
X88202216Y-97156730D01*
X88195606Y-97148879D01*
X88153025Y-97091562D01*
X88146217Y-97081459D01*
X88136628Y-97067511D01*
X90700578Y-97067511D01*
X90702902Y-97077578D01*
X90711866Y-97078800D01*
X90725805Y-97072604D01*
X90723155Y-97067511D01*
X90703059Y-97065484D01*
X90700578Y-97067511D01*
X88136628Y-97067511D01*
X88125809Y-97051775D01*
X88106261Y-97030485D01*
X88081334Y-97015347D01*
X88044789Y-97004119D01*
X87990386Y-96994558D01*
X87911887Y-96984422D01*
X87858600Y-96978075D01*
X87783231Y-96967011D01*
X87711132Y-96952842D01*
X87656827Y-96938461D01*
X87653026Y-96937155D01*
X87607087Y-96922932D01*
X87575589Y-96923401D01*
X87541536Y-96940658D01*
X87522665Y-96953225D01*
X87485595Y-96980098D01*
X87471961Y-97000918D01*
X87477137Y-97028591D01*
X87486938Y-97052874D01*
X87502913Y-97093505D01*
X87511159Y-97119161D01*
X87511467Y-97121453D01*
X87496086Y-97137952D01*
X87455976Y-97154497D01*
X87400181Y-97168657D01*
X87337749Y-97178006D01*
X87291877Y-97180400D01*
X87189733Y-97180400D01*
X87189733Y-97119942D01*
X87192602Y-97088751D01*
X87204324Y-97059802D01*
X87229574Y-97026352D01*
X87273026Y-96981661D01*
X87310065Y-96946375D01*
X87370680Y-96891932D01*
X87422781Y-96854072D01*
X87474281Y-96830620D01*
X87533095Y-96819404D01*
X87607136Y-96818251D01*
X87704319Y-96824989D01*
X87740067Y-96828310D01*
X87831143Y-96834579D01*
X87927405Y-96837264D01*
X88012463Y-96836023D01*
X88037523Y-96834523D01*
X88104384Y-96830232D01*
X88149423Y-96831732D01*
X88184518Y-96841451D01*
X88221544Y-96861817D01*
X88244673Y-96876871D01*
X88300669Y-96916597D01*
X88353756Y-96958458D01*
X88374515Y-96976685D01*
X88425332Y-97024154D01*
X88479198Y-96968733D01*
X89289467Y-96968733D01*
X89297933Y-96977200D01*
X89306400Y-96968733D01*
X89297933Y-96960267D01*
X89289467Y-96968733D01*
X88479198Y-96968733D01*
X88497566Y-96949835D01*
X88523462Y-96917933D01*
X89306400Y-96917933D01*
X89314867Y-96926400D01*
X89323333Y-96917933D01*
X89314867Y-96909467D01*
X89306400Y-96917933D01*
X88523462Y-96917933D01*
X88564698Y-96867133D01*
X89323333Y-96867133D01*
X89331800Y-96875600D01*
X89340267Y-96867133D01*
X89331800Y-96858667D01*
X89323333Y-96867133D01*
X88564698Y-96867133D01*
X88591157Y-96834539D01*
X88672186Y-96697200D01*
X88734111Y-96549103D01*
X88739621Y-96532183D01*
X88763597Y-96454112D01*
X88776331Y-96404751D01*
X88777664Y-96380806D01*
X88767434Y-96378983D01*
X88745483Y-96395991D01*
X88733548Y-96407172D01*
X88671512Y-96446621D01*
X88624162Y-96455392D01*
X88586435Y-96459930D01*
X88570211Y-96468271D01*
X88570651Y-96470577D01*
X88567499Y-96491084D01*
X88551485Y-96532118D01*
X88527637Y-96581692D01*
X88500925Y-96638936D01*
X88482471Y-96689491D01*
X88476667Y-96718500D01*
X88471465Y-96744735D01*
X88449409Y-96755440D01*
X88417400Y-96757067D01*
X88372805Y-96749685D01*
X88358630Y-96727945D01*
X88374915Y-96692453D01*
X88410724Y-96653794D01*
X88439187Y-96622810D01*
X88444208Y-96606269D01*
X88439076Y-96604666D01*
X88411691Y-96616176D01*
X88377780Y-96644169D01*
X88375067Y-96647000D01*
X88325762Y-96681974D01*
X88276437Y-96685264D01*
X88232521Y-96657000D01*
X88213053Y-96631972D01*
X88217862Y-96617239D01*
X88234130Y-96606715D01*
X88253239Y-96592288D01*
X88247031Y-96588831D01*
X88222343Y-96596681D01*
X88204620Y-96605262D01*
X88183435Y-96613979D01*
X88174680Y-96608462D01*
X88179129Y-96584792D01*
X88197552Y-96539050D01*
X88230723Y-96467316D01*
X88232544Y-96463478D01*
X88272365Y-96367604D01*
X88291141Y-96290431D01*
X88293222Y-96258648D01*
X88296355Y-96210427D01*
X88304267Y-96178050D01*
X88308744Y-96171994D01*
X88323878Y-96150602D01*
X88312611Y-96133077D01*
X88299462Y-96130533D01*
X88272513Y-96117088D01*
X88256533Y-96096667D01*
X88231381Y-96067163D01*
X88208101Y-96069139D01*
X88193756Y-96096476D01*
X88180247Y-96120048D01*
X88165087Y-96115258D01*
X88155587Y-96086402D01*
X88154933Y-96073654D01*
X88157646Y-96063799D01*
X88358133Y-96063799D01*
X88363575Y-96079185D01*
X88376062Y-96065763D01*
X88381528Y-96053454D01*
X88382711Y-96035974D01*
X88374873Y-96037520D01*
X88358735Y-96059200D01*
X88358133Y-96063799D01*
X88157646Y-96063799D01*
X88168134Y-96025710D01*
X88206767Y-95999657D01*
X88242987Y-95995067D01*
X88279633Y-95988799D01*
X88289495Y-95974059D01*
X88269412Y-95956943D01*
X88263927Y-95954664D01*
X88245775Y-95938933D01*
X88253291Y-95924014D01*
X88279571Y-95920004D01*
X88286641Y-95921444D01*
X88307389Y-95919261D01*
X88323466Y-95895560D01*
X88337597Y-95851229D01*
X88355092Y-95804770D01*
X88372944Y-95785370D01*
X88386925Y-95794582D01*
X88392764Y-95830966D01*
X88395091Y-95851813D01*
X88403161Y-95845085D01*
X88416788Y-95817267D01*
X88432756Y-95786368D01*
X88440788Y-95784778D01*
X88443827Y-95800333D01*
X88448358Y-95807061D01*
X88455459Y-95785020D01*
X88459012Y-95766467D01*
X88470418Y-95698733D01*
X88490475Y-95746402D01*
X88503681Y-95795308D01*
X88510341Y-95854269D01*
X88510533Y-95864465D01*
X88510533Y-95934859D01*
X88546447Y-95898945D01*
X88582362Y-95863031D01*
X88543177Y-95793312D01*
X88503993Y-95723593D01*
X88562297Y-95673751D01*
X88607626Y-95637584D01*
X88631823Y-95625723D01*
X88637068Y-95637913D01*
X88628647Y-95665969D01*
X88616506Y-95699992D01*
X88612133Y-95715856D01*
X88626245Y-95716165D01*
X88661761Y-95707639D01*
X88708455Y-95693539D01*
X88756100Y-95677128D01*
X88794467Y-95661667D01*
X88811509Y-95652259D01*
X88836447Y-95641935D01*
X88846744Y-95656075D01*
X88838042Y-95686875D01*
X88834363Y-95693202D01*
X88822417Y-95715441D01*
X88829075Y-95723046D01*
X88860600Y-95719386D01*
X88877338Y-95716316D01*
X88924527Y-95704453D01*
X88958080Y-95690668D01*
X88961853Y-95688044D01*
X88981637Y-95681799D01*
X88989735Y-95697476D01*
X88984404Y-95724624D01*
X88971391Y-95745272D01*
X88958593Y-95761853D01*
X88962953Y-95767000D01*
X88989958Y-95761136D01*
X89028634Y-95749689D01*
X89115813Y-95729397D01*
X89184106Y-95726269D01*
X89229058Y-95740339D01*
X89237402Y-95748010D01*
X89245445Y-95766144D01*
X89227340Y-95777740D01*
X89207343Y-95782841D01*
X89157468Y-95793796D01*
X89197421Y-95833748D01*
X89241557Y-95863203D01*
X89271887Y-95864675D01*
X89299977Y-95865475D01*
X89304380Y-95881952D01*
X89283671Y-95904261D01*
X89278097Y-95907623D01*
X89263054Y-95920406D01*
X89272804Y-95933940D01*
X89300497Y-95949681D01*
X89352892Y-95982680D01*
X89381470Y-96013528D01*
X89382961Y-96038065D01*
X89375492Y-96045027D01*
X89364026Y-96060811D01*
X89372862Y-96088332D01*
X89383898Y-96107236D01*
X89429057Y-96170633D01*
X89474586Y-96218750D01*
X89514274Y-96245548D01*
X89529701Y-96249066D01*
X89555449Y-96256807D01*
X89560400Y-96266000D01*
X89546033Y-96279416D01*
X89522300Y-96283448D01*
X89497072Y-96285780D01*
X89503037Y-96294681D01*
X89512517Y-96300486D01*
X89547091Y-96333018D01*
X89580691Y-96383206D01*
X89604689Y-96436283D01*
X89611200Y-96469438D01*
X89609999Y-96493696D01*
X89601741Y-96495473D01*
X89579445Y-96473721D01*
X89569675Y-96463206D01*
X89534920Y-96429329D01*
X89517326Y-96420147D01*
X89518802Y-96436117D01*
X89526917Y-96452983D01*
X89538065Y-96493090D01*
X89540591Y-96544844D01*
X89540213Y-96550350D01*
X89535000Y-96613133D01*
X89506044Y-96562333D01*
X89486409Y-96532619D01*
X89477500Y-96532753D01*
X89476411Y-96542280D01*
X89490400Y-96599531D01*
X89533051Y-96665923D01*
X89556691Y-96693066D01*
X89583002Y-96724075D01*
X89586678Y-96740432D01*
X89571425Y-96749961D01*
X89537758Y-96749158D01*
X89501002Y-96733138D01*
X89471419Y-96715525D01*
X89460553Y-96717961D01*
X89459338Y-96735509D01*
X89469664Y-96772527D01*
X89484738Y-96798403D01*
X89504303Y-96832797D01*
X89509600Y-96853436D01*
X89496743Y-96871519D01*
X89467048Y-96874024D01*
X89433833Y-96860794D01*
X89425914Y-96854433D01*
X89418578Y-96853137D01*
X89427547Y-96875355D01*
X89434337Y-96887779D01*
X89452901Y-96931609D01*
X89449898Y-96955948D01*
X89426954Y-96956989D01*
X89408736Y-96947722D01*
X89382036Y-96936892D01*
X89368216Y-96951295D01*
X89367704Y-96952597D01*
X89364854Y-96990048D01*
X89368010Y-97002600D01*
X89365972Y-97022086D01*
X89336009Y-97027997D01*
X89335023Y-97028000D01*
X89299431Y-97021860D01*
X89283681Y-97010643D01*
X89278182Y-97006412D01*
X89279044Y-97013667D01*
X89298533Y-97043355D01*
X89338226Y-97050926D01*
X89394075Y-97037907D01*
X89397124Y-97036467D01*
X90356266Y-97036467D01*
X90364733Y-97044933D01*
X90373200Y-97036467D01*
X90364733Y-97028000D01*
X90356266Y-97036467D01*
X89397124Y-97036467D01*
X89432992Y-97019533D01*
X90305466Y-97019533D01*
X90313933Y-97028000D01*
X90322400Y-97019533D01*
X90313933Y-97011067D01*
X90305466Y-97019533D01*
X89432992Y-97019533D01*
X89462034Y-97005822D01*
X89466969Y-97002600D01*
X90271600Y-97002600D01*
X90280066Y-97011067D01*
X90288533Y-97002600D01*
X90280066Y-96994133D01*
X90271600Y-97002600D01*
X89466969Y-97002600D01*
X89492909Y-96985667D01*
X90220800Y-96985667D01*
X90229266Y-96994133D01*
X90237733Y-96985667D01*
X90229266Y-96977200D01*
X90220800Y-96985667D01*
X89492909Y-96985667D01*
X89523173Y-96965911D01*
X90175644Y-96965911D01*
X90177969Y-96975978D01*
X90186933Y-96977200D01*
X90200871Y-96971004D01*
X90198222Y-96965911D01*
X90178126Y-96963884D01*
X90175644Y-96965911D01*
X89523173Y-96965911D01*
X89538058Y-96956195D01*
X89546857Y-96948978D01*
X90124844Y-96948978D01*
X90127169Y-96959044D01*
X90136133Y-96960267D01*
X90150071Y-96954071D01*
X90147422Y-96948978D01*
X90127326Y-96946951D01*
X90124844Y-96948978D01*
X89546857Y-96948978D01*
X89564064Y-96934867D01*
X90085333Y-96934867D01*
X90093800Y-96943333D01*
X90102267Y-96934867D01*
X90093800Y-96926400D01*
X90085333Y-96934867D01*
X89564064Y-96934867D01*
X89584713Y-96917933D01*
X90034533Y-96917933D01*
X90043000Y-96926400D01*
X90051467Y-96917933D01*
X90043000Y-96909467D01*
X90034533Y-96917933D01*
X89584713Y-96917933D01*
X89618100Y-96890553D01*
X89626778Y-96882604D01*
X89687707Y-96816333D01*
X90051467Y-96816333D01*
X90059933Y-96824800D01*
X90068400Y-96816333D01*
X90059933Y-96807867D01*
X90051467Y-96816333D01*
X89687707Y-96816333D01*
X89704524Y-96798042D01*
X89720613Y-96772696D01*
X90059933Y-96772696D01*
X90062987Y-96780797D01*
X90090612Y-96789911D01*
X90133645Y-96798044D01*
X90182926Y-96803203D01*
X90203867Y-96804012D01*
X90213232Y-96801035D01*
X90193710Y-96792708D01*
X90161533Y-96783880D01*
X90110001Y-96773742D01*
X90071522Y-96770661D01*
X90059933Y-96772696D01*
X89720613Y-96772696D01*
X89759199Y-96711911D01*
X90666711Y-96711911D01*
X90669035Y-96721978D01*
X90678000Y-96723200D01*
X90691938Y-96717004D01*
X90689289Y-96711911D01*
X90669193Y-96709884D01*
X90666711Y-96711911D01*
X89759199Y-96711911D01*
X89759632Y-96711229D01*
X89773530Y-96672077D01*
X90068400Y-96672077D01*
X90083175Y-96683942D01*
X90119039Y-96689307D01*
X90122022Y-96689333D01*
X90156611Y-96687698D01*
X90168971Y-96683713D01*
X90168589Y-96683249D01*
X90143157Y-96671648D01*
X90108229Y-96665146D01*
X90078531Y-96665386D01*
X90068400Y-96672077D01*
X89773530Y-96672077D01*
X89788608Y-96629604D01*
X90186853Y-96629604D01*
X90204141Y-96632033D01*
X90247702Y-96633099D01*
X90254666Y-96633113D01*
X90301188Y-96632246D01*
X90321901Y-96629959D01*
X90313012Y-96626723D01*
X90309700Y-96626284D01*
X90250323Y-96623481D01*
X90199633Y-96626284D01*
X90186853Y-96629604D01*
X89788608Y-96629604D01*
X89789284Y-96627702D01*
X89791636Y-96558364D01*
X89781844Y-96528466D01*
X90051467Y-96528466D01*
X90059933Y-96536933D01*
X90068400Y-96528466D01*
X90059933Y-96520000D01*
X90051467Y-96528466D01*
X89781844Y-96528466D01*
X89778107Y-96517060D01*
X89777582Y-96515951D01*
X90143477Y-96515951D01*
X90160122Y-96518663D01*
X90182085Y-96515550D01*
X90182347Y-96509769D01*
X90159684Y-96505727D01*
X90149892Y-96508432D01*
X90143477Y-96515951D01*
X89777582Y-96515951D01*
X89769089Y-96498032D01*
X90349906Y-96498032D01*
X90373200Y-96500393D01*
X90397239Y-96497732D01*
X90394366Y-96491852D01*
X90359698Y-96489615D01*
X90352033Y-96491852D01*
X90349906Y-96498032D01*
X89769089Y-96498032D01*
X89750584Y-96458990D01*
X89737570Y-96436024D01*
X90000667Y-96436024D01*
X90016232Y-96440750D01*
X90057620Y-96443326D01*
X90116873Y-96443977D01*
X90186031Y-96442928D01*
X90257133Y-96440405D01*
X90322221Y-96436633D01*
X90373334Y-96431836D01*
X90402514Y-96426239D01*
X90405655Y-96424572D01*
X90392618Y-96422212D01*
X90351921Y-96420269D01*
X90289769Y-96418935D01*
X90212368Y-96418402D01*
X90206689Y-96418400D01*
X90111575Y-96419814D01*
X90044432Y-96423930D01*
X90007467Y-96430559D01*
X90000667Y-96436024D01*
X89737570Y-96436024D01*
X89714424Y-96395180D01*
X89705232Y-96380512D01*
X89670040Y-96324165D01*
X89669026Y-96322444D01*
X90040178Y-96322444D01*
X90042502Y-96332511D01*
X90051467Y-96333733D01*
X90065405Y-96327538D01*
X90062755Y-96322444D01*
X90042659Y-96320418D01*
X90040178Y-96322444D01*
X89669026Y-96322444D01*
X89660709Y-96308333D01*
X89916000Y-96308333D01*
X89924467Y-96316800D01*
X89932933Y-96308333D01*
X89924467Y-96299866D01*
X89916000Y-96308333D01*
X89660709Y-96308333D01*
X89650729Y-96291400D01*
X90017600Y-96291400D01*
X90026067Y-96299866D01*
X90034533Y-96291400D01*
X90026067Y-96282933D01*
X90017600Y-96291400D01*
X89650729Y-96291400D01*
X89643275Y-96278753D01*
X89641053Y-96274466D01*
X90119200Y-96274466D01*
X90127667Y-96282933D01*
X90136133Y-96274466D01*
X90127667Y-96266000D01*
X90119200Y-96274466D01*
X89641053Y-96274466D01*
X89632275Y-96257533D01*
X90220800Y-96257533D01*
X90229266Y-96266000D01*
X90237733Y-96257533D01*
X90229266Y-96249066D01*
X90220800Y-96257533D01*
X89632275Y-96257533D01*
X89629241Y-96251681D01*
X89628133Y-96247906D01*
X89613715Y-96235607D01*
X89581567Y-96224294D01*
X89580129Y-96223666D01*
X90847333Y-96223666D01*
X90855800Y-96232133D01*
X90864266Y-96223666D01*
X90855800Y-96215200D01*
X90847333Y-96223666D01*
X89580129Y-96223666D01*
X89541350Y-96206733D01*
X90965866Y-96206733D01*
X90974333Y-96215200D01*
X90982800Y-96206733D01*
X90974333Y-96198267D01*
X90965866Y-96206733D01*
X89541350Y-96206733D01*
X89532432Y-96202839D01*
X89522720Y-96195147D01*
X89821025Y-96195147D01*
X89821463Y-96195996D01*
X89840419Y-96202560D01*
X89873413Y-96202278D01*
X89904034Y-96196567D01*
X89916000Y-96187826D01*
X89901232Y-96183297D01*
X89865565Y-96181335D01*
X89864200Y-96181333D01*
X89831115Y-96185363D01*
X89821025Y-96195147D01*
X89522720Y-96195147D01*
X89500167Y-96177285D01*
X89940277Y-96177285D01*
X89956922Y-96179996D01*
X89978885Y-96176883D01*
X89979147Y-96171103D01*
X89956484Y-96167060D01*
X89946692Y-96169766D01*
X89940277Y-96177285D01*
X89500167Y-96177285D01*
X89489098Y-96168519D01*
X89477534Y-96153111D01*
X89820044Y-96153111D01*
X89822369Y-96163178D01*
X89831333Y-96164400D01*
X89845271Y-96158204D01*
X89844090Y-96155933D01*
X90034533Y-96155933D01*
X90043000Y-96164400D01*
X90051467Y-96155933D01*
X90043000Y-96147467D01*
X90034533Y-96155933D01*
X89844090Y-96155933D01*
X89842622Y-96153111D01*
X89822526Y-96151084D01*
X89820044Y-96153111D01*
X89477534Y-96153111D01*
X89464825Y-96136178D01*
X89887778Y-96136178D01*
X89890102Y-96146244D01*
X89899067Y-96147467D01*
X89913005Y-96141271D01*
X89911824Y-96139000D01*
X90119200Y-96139000D01*
X90127667Y-96147467D01*
X90136133Y-96139000D01*
X90127667Y-96130533D01*
X90119200Y-96139000D01*
X89911824Y-96139000D01*
X89910355Y-96136178D01*
X89890259Y-96134151D01*
X89887778Y-96136178D01*
X89464825Y-96136178D01*
X89460144Y-96129942D01*
X89458702Y-96122067D01*
X89966800Y-96122067D01*
X89975267Y-96130533D01*
X89983733Y-96122067D01*
X89975267Y-96113600D01*
X89966800Y-96122067D01*
X89458702Y-96122067D01*
X89455601Y-96105133D01*
X90034533Y-96105133D01*
X90043000Y-96113600D01*
X90051467Y-96105133D01*
X90043000Y-96096667D01*
X90034533Y-96105133D01*
X89455601Y-96105133D01*
X89453986Y-96096314D01*
X89453615Y-96088200D01*
X90102267Y-96088200D01*
X90110733Y-96096667D01*
X90119200Y-96088200D01*
X90110733Y-96079733D01*
X90102267Y-96088200D01*
X89453615Y-96088200D01*
X89452840Y-96071267D01*
X90170000Y-96071267D01*
X90178467Y-96079733D01*
X90186933Y-96071267D01*
X91355333Y-96071267D01*
X91363800Y-96079733D01*
X91372267Y-96071267D01*
X91363800Y-96062800D01*
X91355333Y-96071267D01*
X90186933Y-96071267D01*
X90178467Y-96062800D01*
X90170000Y-96071267D01*
X89452840Y-96071267D01*
X89452338Y-96060328D01*
X89450354Y-96054333D01*
X90237733Y-96054333D01*
X90246200Y-96062800D01*
X90254666Y-96054333D01*
X90251844Y-96051511D01*
X91445644Y-96051511D01*
X91447969Y-96061578D01*
X91456933Y-96062800D01*
X91470871Y-96056604D01*
X91468222Y-96051511D01*
X91448126Y-96049484D01*
X91445644Y-96051511D01*
X90251844Y-96051511D01*
X90246200Y-96045867D01*
X90237733Y-96054333D01*
X89450354Y-96054333D01*
X89444747Y-96037400D01*
X89831333Y-96037400D01*
X89839800Y-96045867D01*
X89848267Y-96037400D01*
X90305466Y-96037400D01*
X90313933Y-96045867D01*
X90317982Y-96041818D01*
X91515077Y-96041818D01*
X91531722Y-96044530D01*
X91553685Y-96041416D01*
X91553947Y-96035636D01*
X91531284Y-96031594D01*
X91521492Y-96034299D01*
X91515077Y-96041818D01*
X90317982Y-96041818D01*
X90322400Y-96037400D01*
X90313933Y-96028933D01*
X90305466Y-96037400D01*
X89848267Y-96037400D01*
X89839800Y-96028933D01*
X89831333Y-96037400D01*
X89444747Y-96037400D01*
X89439140Y-96020467D01*
X90373200Y-96020467D01*
X90381666Y-96028933D01*
X90390133Y-96020467D01*
X90381666Y-96012000D01*
X90373200Y-96020467D01*
X89439140Y-96020467D01*
X89437277Y-96014841D01*
X89435122Y-96010365D01*
X89430870Y-96000711D01*
X90446578Y-96000711D01*
X90448902Y-96010778D01*
X90457866Y-96012000D01*
X90471805Y-96005804D01*
X90469155Y-96000711D01*
X90449059Y-95998684D01*
X90446578Y-96000711D01*
X89430870Y-96000711D01*
X89426601Y-95991018D01*
X90499077Y-95991018D01*
X90515722Y-95993730D01*
X90537685Y-95990616D01*
X90537947Y-95984836D01*
X90515284Y-95980794D01*
X90505491Y-95983499D01*
X90499077Y-95991018D01*
X89426601Y-95991018D01*
X89417197Y-95969667D01*
X90017600Y-95969667D01*
X90026067Y-95978133D01*
X90034533Y-95969667D01*
X90136133Y-95969667D01*
X90144600Y-95978133D01*
X90148648Y-95974085D01*
X90566811Y-95974085D01*
X90583455Y-95976796D01*
X90605418Y-95973683D01*
X90605680Y-95967903D01*
X90583017Y-95963860D01*
X90573225Y-95966566D01*
X90566811Y-95974085D01*
X90148648Y-95974085D01*
X90153067Y-95969667D01*
X90144600Y-95961200D01*
X90136133Y-95969667D01*
X90034533Y-95969667D01*
X90026067Y-95961200D01*
X90017600Y-95969667D01*
X89417197Y-95969667D01*
X89413552Y-95961392D01*
X89412904Y-95952733D01*
X90068400Y-95952733D01*
X90076867Y-95961200D01*
X90085333Y-95952733D01*
X90186933Y-95952733D01*
X90195400Y-95961200D01*
X90203867Y-95952733D01*
X90195400Y-95944267D01*
X90186933Y-95952733D01*
X90085333Y-95952733D01*
X90076867Y-95944267D01*
X90068400Y-95952733D01*
X89412904Y-95952733D01*
X89411640Y-95935861D01*
X89411805Y-95935800D01*
X90102267Y-95935800D01*
X90110733Y-95944267D01*
X90119200Y-95935800D01*
X90237733Y-95935800D01*
X90246200Y-95944267D01*
X90254666Y-95935800D01*
X90246200Y-95927333D01*
X90237733Y-95935800D01*
X90119200Y-95935800D01*
X90110733Y-95927333D01*
X90102267Y-95935800D01*
X89411805Y-95935800D01*
X89430358Y-95928966D01*
X89451042Y-95931613D01*
X89485954Y-95930780D01*
X89498092Y-95918867D01*
X90153067Y-95918867D01*
X90161533Y-95927333D01*
X90170000Y-95918867D01*
X90288533Y-95918867D01*
X90297000Y-95927333D01*
X90305466Y-95918867D01*
X90297000Y-95910400D01*
X90288533Y-95918867D01*
X90170000Y-95918867D01*
X90161533Y-95910400D01*
X90153067Y-95918867D01*
X89498092Y-95918867D01*
X89510704Y-95906489D01*
X89513258Y-95901933D01*
X90203867Y-95901933D01*
X90212333Y-95910400D01*
X90220800Y-95901933D01*
X90217978Y-95899111D01*
X90344978Y-95899111D01*
X90347302Y-95909178D01*
X90356266Y-95910400D01*
X90370205Y-95904204D01*
X90367555Y-95899111D01*
X90347459Y-95897084D01*
X90344978Y-95899111D01*
X90217978Y-95899111D01*
X90212333Y-95893467D01*
X90203867Y-95901933D01*
X89513258Y-95901933D01*
X89518776Y-95892095D01*
X89522681Y-95882178D01*
X90395778Y-95882178D01*
X90398102Y-95892244D01*
X90407066Y-95893467D01*
X90421005Y-95887271D01*
X90418355Y-95882178D01*
X90398259Y-95880151D01*
X90395778Y-95882178D01*
X89522681Y-95882178D01*
X89528238Y-95868067D01*
X90457866Y-95868067D01*
X90466333Y-95876533D01*
X90474800Y-95868067D01*
X90466333Y-95859600D01*
X90457866Y-95868067D01*
X89528238Y-95868067D01*
X89534907Y-95851133D01*
X90508666Y-95851133D01*
X90517133Y-95859600D01*
X90525600Y-95851133D01*
X90517133Y-95842667D01*
X90508666Y-95851133D01*
X89534907Y-95851133D01*
X89536649Y-95846710D01*
X89538949Y-95834200D01*
X90559466Y-95834200D01*
X90567933Y-95842667D01*
X90576400Y-95834200D01*
X90567933Y-95825733D01*
X90559466Y-95834200D01*
X89538949Y-95834200D01*
X89543467Y-95809641D01*
X89554258Y-95781786D01*
X89577609Y-95776061D01*
X89599981Y-95793013D01*
X89605857Y-95807129D01*
X89614960Y-95828080D01*
X89633071Y-95828098D01*
X89655570Y-95817267D01*
X90610266Y-95817267D01*
X90618733Y-95825733D01*
X90627200Y-95817267D01*
X90618733Y-95808800D01*
X90610266Y-95817267D01*
X89655570Y-95817267D01*
X89659305Y-95815469D01*
X89690301Y-95800333D01*
X90661066Y-95800333D01*
X90669533Y-95808800D01*
X90678000Y-95800333D01*
X90669533Y-95791867D01*
X90661066Y-95800333D01*
X89690301Y-95800333D01*
X89699613Y-95795786D01*
X89756782Y-95769819D01*
X89801778Y-95750303D01*
X89803307Y-95749533D01*
X90627200Y-95749533D01*
X90635666Y-95758000D01*
X90644133Y-95749533D01*
X90635666Y-95741067D01*
X90627200Y-95749533D01*
X89803307Y-95749533D01*
X89836941Y-95732600D01*
X90678000Y-95732600D01*
X90686466Y-95741067D01*
X90694933Y-95732600D01*
X90686466Y-95724133D01*
X90678000Y-95732600D01*
X89836941Y-95732600D01*
X89867337Y-95717298D01*
X89869207Y-95715667D01*
X90932000Y-95715667D01*
X90940466Y-95724133D01*
X90948933Y-95715667D01*
X90940466Y-95707200D01*
X90932000Y-95715667D01*
X89869207Y-95715667D01*
X89888633Y-95698733D01*
X90762666Y-95698733D01*
X90771133Y-95707200D01*
X90779600Y-95698733D01*
X90771133Y-95690267D01*
X90762666Y-95698733D01*
X89888633Y-95698733D01*
X89905057Y-95684416D01*
X89906509Y-95681800D01*
X90813466Y-95681800D01*
X90821933Y-95690267D01*
X90830400Y-95681800D01*
X90821933Y-95673333D01*
X90813466Y-95681800D01*
X89906509Y-95681800D01*
X89915908Y-95664867D01*
X90864266Y-95664867D01*
X90872733Y-95673333D01*
X90881200Y-95664867D01*
X90872733Y-95656400D01*
X90864266Y-95664867D01*
X89915908Y-95664867D01*
X89916199Y-95664343D01*
X89925563Y-95626597D01*
X89923588Y-95604179D01*
X89929720Y-95592121D01*
X89950452Y-95588666D01*
X89984988Y-95602832D01*
X89995760Y-95622533D01*
X90005090Y-95649874D01*
X90009913Y-95656400D01*
X90026443Y-95649678D01*
X90030341Y-95647933D01*
X90898133Y-95647933D01*
X90906600Y-95656400D01*
X90915066Y-95647933D01*
X90906600Y-95639467D01*
X90898133Y-95647933D01*
X90030341Y-95647933D01*
X90067121Y-95631472D01*
X90068150Y-95631000D01*
X90948933Y-95631000D01*
X90957400Y-95639467D01*
X90965866Y-95631000D01*
X90957400Y-95622533D01*
X90948933Y-95631000D01*
X90068150Y-95631000D01*
X90105079Y-95614066D01*
X90999733Y-95614066D01*
X91008200Y-95622533D01*
X91016666Y-95614066D01*
X91008200Y-95605600D01*
X90999733Y-95614066D01*
X90105079Y-95614066D01*
X90125454Y-95604723D01*
X90147852Y-95594311D01*
X91039244Y-95594311D01*
X91041569Y-95604378D01*
X91050533Y-95605600D01*
X91064471Y-95599404D01*
X91061822Y-95594311D01*
X91041726Y-95592284D01*
X91039244Y-95594311D01*
X90147852Y-95594311D01*
X90181505Y-95578667D01*
X90184321Y-95577378D01*
X91090044Y-95577378D01*
X91092369Y-95587444D01*
X91101333Y-95588666D01*
X91115271Y-95582471D01*
X91112622Y-95577378D01*
X91092526Y-95575351D01*
X91090044Y-95577378D01*
X90184321Y-95577378D01*
X90215158Y-95563266D01*
X91135200Y-95563266D01*
X91143666Y-95571733D01*
X91152133Y-95563266D01*
X91143666Y-95554800D01*
X91135200Y-95563266D01*
X90215158Y-95563266D01*
X90258326Y-95543511D01*
X91174711Y-95543511D01*
X91177035Y-95553578D01*
X91186000Y-95554800D01*
X91199938Y-95548604D01*
X91197289Y-95543511D01*
X91177193Y-95541484D01*
X91174711Y-95543511D01*
X90258326Y-95543511D01*
X90287389Y-95530211D01*
X90295645Y-95526578D01*
X91225511Y-95526578D01*
X91227835Y-95536644D01*
X91236800Y-95537866D01*
X91250738Y-95531671D01*
X91248089Y-95526578D01*
X91227993Y-95524551D01*
X91225511Y-95526578D01*
X90295645Y-95526578D01*
X90327716Y-95512466D01*
X91270667Y-95512466D01*
X91279133Y-95520933D01*
X91287600Y-95512466D01*
X91279133Y-95504000D01*
X91270667Y-95512466D01*
X90327716Y-95512466D01*
X90372612Y-95492711D01*
X91310178Y-95492711D01*
X91312502Y-95502778D01*
X91321467Y-95504000D01*
X91335405Y-95497804D01*
X91332755Y-95492711D01*
X91312659Y-95490684D01*
X91310178Y-95492711D01*
X90372612Y-95492711D01*
X90393224Y-95483642D01*
X90393438Y-95483551D01*
X91358713Y-95483551D01*
X91363800Y-95486548D01*
X91391628Y-95478117D01*
X91406133Y-95470133D01*
X91419687Y-95456716D01*
X91414600Y-95453718D01*
X91386772Y-95462150D01*
X91372267Y-95470133D01*
X91358713Y-95483551D01*
X90393438Y-95483551D01*
X90491816Y-95441911D01*
X91445644Y-95441911D01*
X91447969Y-95451978D01*
X91456933Y-95453200D01*
X91470871Y-95447004D01*
X91468222Y-95441911D01*
X91448126Y-95439884D01*
X91445644Y-95441911D01*
X90491816Y-95441911D01*
X90493855Y-95441048D01*
X90584128Y-95404519D01*
X90658889Y-95376142D01*
X90712984Y-95358006D01*
X90740480Y-95352163D01*
X90757825Y-95355550D01*
X90750804Y-95368584D01*
X90729737Y-95387180D01*
X90688341Y-95421633D01*
X90733971Y-95410181D01*
X90770059Y-95407040D01*
X90779600Y-95419445D01*
X90787571Y-95429886D01*
X90814662Y-95417248D01*
X90817700Y-95415288D01*
X90849478Y-95398546D01*
X90903997Y-95373727D01*
X90972340Y-95344790D01*
X91016666Y-95326941D01*
X91073599Y-95302653D01*
X91155057Y-95265358D01*
X91255536Y-95217707D01*
X91369532Y-95162348D01*
X91491540Y-95101932D01*
X91616055Y-95039108D01*
X91640356Y-95026702D01*
X91755432Y-94968304D01*
X91860715Y-94915781D01*
X91952473Y-94870922D01*
X92026976Y-94835517D01*
X92080492Y-94811357D01*
X92109289Y-94800230D01*
X92113148Y-94799904D01*
X92116721Y-94823767D01*
G37*
X92116721Y-94823767D02*
X92109410Y-94869332D01*
X92093862Y-94927257D01*
X92072726Y-94988196D01*
X92048649Y-95042807D01*
X92039620Y-95059376D01*
X91978533Y-95139233D01*
X91892110Y-95218628D01*
X91788403Y-95291419D01*
X91675464Y-95351465D01*
X91633772Y-95368905D01*
X91571644Y-95393835D01*
X91524560Y-95414481D01*
X91499161Y-95427838D01*
X91496706Y-95430883D01*
X91513291Y-95426722D01*
X91555998Y-95412119D01*
X91619462Y-95389101D01*
X91698318Y-95359699D01*
X91787200Y-95325940D01*
X91880745Y-95289852D01*
X91973585Y-95253465D01*
X92060357Y-95218806D01*
X92096167Y-95204243D01*
X92114320Y-95206973D01*
X92117697Y-95232491D01*
X92108730Y-95274417D01*
X92089853Y-95326370D01*
X92063498Y-95381971D01*
X92032101Y-95434840D01*
X91998093Y-95478596D01*
X91987461Y-95489257D01*
X91933062Y-95535062D01*
X91871600Y-95576616D01*
X91799284Y-95615414D01*
X91712325Y-95652949D01*
X91606935Y-95690715D01*
X91479322Y-95730205D01*
X91325699Y-95772912D01*
X91156716Y-95816688D01*
X91002441Y-95855833D01*
X90878732Y-95887607D01*
X90783251Y-95912658D01*
X90713658Y-95931634D01*
X90667617Y-95945186D01*
X90642790Y-95953960D01*
X90636838Y-95958607D01*
X90641392Y-95959686D01*
X90666245Y-95956130D01*
X90682405Y-95952733D01*
X90965866Y-95952733D01*
X90974333Y-95961200D01*
X90982800Y-95952733D01*
X90974333Y-95944267D01*
X90965866Y-95952733D01*
X90682405Y-95952733D01*
X90719133Y-95945013D01*
X90795370Y-95927517D01*
X90831545Y-95918867D01*
X91118266Y-95918867D01*
X91126733Y-95927333D01*
X91135200Y-95918867D01*
X91126733Y-95910400D01*
X91118266Y-95918867D01*
X90831545Y-95918867D01*
X90890271Y-95904825D01*
X90902061Y-95901933D01*
X91202933Y-95901933D01*
X91211400Y-95910400D01*
X91219867Y-95901933D01*
X91211400Y-95893467D01*
X91202933Y-95901933D01*
X90902061Y-95901933D01*
X90999154Y-95878119D01*
X91117333Y-95848583D01*
X91240123Y-95817398D01*
X91362842Y-95785748D01*
X91480803Y-95754816D01*
X91589322Y-95725783D01*
X91683716Y-95699834D01*
X91759300Y-95678150D01*
X91774508Y-95673595D01*
X91857233Y-95648866D01*
X91928608Y-95628157D01*
X91982249Y-95613273D01*
X92011772Y-95606019D01*
X92014927Y-95605600D01*
X92021216Y-95619549D01*
X92013557Y-95655881D01*
X92011970Y-95660633D01*
X91956722Y-95769776D01*
X91871148Y-95864079D01*
X91755168Y-95943618D01*
X91663987Y-95987209D01*
X91618370Y-96007802D01*
X91593161Y-96022573D01*
X91593523Y-96028217D01*
X91625085Y-96025546D01*
X91677883Y-96017969D01*
X91740008Y-96007519D01*
X91799548Y-95996229D01*
X91844592Y-95986130D01*
X91851738Y-95984164D01*
X91869572Y-95980926D01*
X91872056Y-95990708D01*
X91858807Y-96020424D01*
X91848652Y-96040141D01*
X91781859Y-96138752D01*
X91691812Y-96220054D01*
X91575241Y-96286536D01*
X91470886Y-96327349D01*
X91421801Y-96343822D01*
X91390226Y-96355192D01*
X91378744Y-96361684D01*
X91389934Y-96363525D01*
X91426377Y-96360941D01*
X91490654Y-96354158D01*
X91585345Y-96343401D01*
X91615198Y-96339989D01*
X91714196Y-96328687D01*
X91678854Y-96397962D01*
X91621749Y-96475641D01*
X91538206Y-96542807D01*
X91435040Y-96595376D01*
X91319065Y-96629262D01*
X91283350Y-96635100D01*
X91194467Y-96647000D01*
X91320558Y-96655466D01*
X91446650Y-96663933D01*
X91389895Y-96728431D01*
X91303008Y-96802093D01*
X91191437Y-96855204D01*
X91058299Y-96886558D01*
X90960800Y-96894726D01*
X90931327Y-96896631D01*
X90929265Y-96900246D01*
X90956674Y-96906354D01*
X91015615Y-96915735D01*
X91016666Y-96915892D01*
X91143666Y-96934867D01*
X91106467Y-96972066D01*
X91034615Y-97026020D01*
X90943923Y-97060498D01*
X90849600Y-97076188D01*
X90737921Y-97087267D01*
X90835349Y-97117888D01*
X90884893Y-97136343D01*
X90916280Y-97153714D01*
X90922773Y-97164696D01*
X90902628Y-97181639D01*
X90863390Y-97205608D01*
X90842960Y-97216498D01*
X90800115Y-97235116D01*
X90756538Y-97244710D01*
X90700506Y-97246876D01*
X90638799Y-97244334D01*
X90504447Y-97236556D01*
X90608157Y-97283634D01*
X90660487Y-97309633D01*
X90697761Y-97332437D01*
X90711866Y-97347032D01*
X90696078Y-97366110D01*
X90653270Y-97382600D01*
X90590278Y-97394799D01*
X90513937Y-97401005D01*
X90493440Y-97401421D01*
X90435113Y-97402564D01*
X90405726Y-97405846D01*
X90400358Y-97412826D01*
X90414088Y-97425063D01*
X90415533Y-97426084D01*
X90468473Y-97464074D01*
X90497882Y-97487944D01*
X90508536Y-97502163D01*
X90505851Y-97510593D01*
X90481806Y-97517844D01*
X90434664Y-97521655D01*
X90375024Y-97522007D01*
X90313483Y-97518885D01*
X90260638Y-97512269D01*
X90254290Y-97511011D01*
X90195400Y-97498571D01*
X90262336Y-97568085D01*
X90329273Y-97637600D01*
X90178467Y-97637726D01*
X90229267Y-97668707D01*
X90272581Y-97701332D01*
X90319748Y-97745642D01*
X90333894Y-97760992D01*
X90387720Y-97822297D01*
X90451631Y-97778926D01*
X90489740Y-97748800D01*
X90543138Y-97701026D01*
X90604054Y-97642759D01*
X90651978Y-97594434D01*
X90736278Y-97511820D01*
X90808626Y-97453293D01*
X90876361Y-97415102D01*
X90946821Y-97393496D01*
X91027342Y-97384726D01*
X91063777Y-97383972D01*
X91165175Y-97389743D01*
X91243392Y-97409812D01*
X91307207Y-97447264D01*
X91345801Y-97483114D01*
X91392607Y-97521830D01*
X91442521Y-97536013D01*
X91455868Y-97536563D01*
X91516200Y-97537127D01*
X91478438Y-97568637D01*
X91453991Y-97593608D01*
X91455573Y-97611236D01*
X91464066Y-97619560D01*
X91484074Y-97644618D01*
X91511639Y-97689361D01*
X91533666Y-97730303D01*
X91562119Y-97782326D01*
X91586744Y-97811582D01*
X91616940Y-97826482D01*
X91648706Y-97833263D01*
X91690589Y-97841568D01*
X91703667Y-97849941D01*
X91692707Y-97862901D01*
X91685598Y-97868246D01*
X91644729Y-97885796D01*
X91604343Y-97891600D01*
X91555025Y-97891600D01*
X91607579Y-97951456D01*
X91637099Y-97988933D01*
X91652933Y-98024176D01*
X91659212Y-98070349D01*
X91660133Y-98118998D01*
X91661942Y-98181275D01*
X91670000Y-98222358D01*
X91688250Y-98254842D01*
X91710869Y-98280997D01*
X91744218Y-98324599D01*
X91747990Y-98352049D01*
X91722296Y-98363027D01*
X91683380Y-98360197D01*
X91644883Y-98356383D01*
X91629329Y-98366535D01*
X91626638Y-98396431D01*
X91636336Y-98456185D01*
X91660621Y-98516126D01*
X91693655Y-98565547D01*
X91729599Y-98593743D01*
X91735238Y-98595571D01*
X91771209Y-98610427D01*
X91774254Y-98626835D01*
X91744052Y-98641958D01*
X91740567Y-98642927D01*
X91651797Y-98652471D01*
X91566072Y-98631332D01*
X91479909Y-98578375D01*
X91442211Y-98545871D01*
X91385156Y-98492733D01*
X91396477Y-98571799D01*
X91402104Y-98619182D01*
X91399335Y-98640877D01*
X91385665Y-98644546D01*
X91373551Y-98641909D01*
X91338028Y-98623922D01*
X91299048Y-98592678D01*
X91297408Y-98591057D01*
X91278298Y-98569278D01*
X91261251Y-98541977D01*
X91243969Y-98503481D01*
X91224156Y-98448117D01*
X91199514Y-98370212D01*
X91175279Y-98289533D01*
X91145120Y-98187933D01*
X91134638Y-98289533D01*
X91123197Y-98371867D01*
X91108532Y-98423447D01*
X91089573Y-98447317D01*
X91078355Y-98449819D01*
X91060743Y-98434573D01*
X91036499Y-98394903D01*
X91009041Y-98338725D01*
X90981787Y-98273956D01*
X90958156Y-98208512D01*
X90947463Y-98171000D01*
X91118266Y-98171000D01*
X91126733Y-98179466D01*
X91135200Y-98171000D01*
X91126733Y-98162533D01*
X91118266Y-98171000D01*
X90947463Y-98171000D01*
X90941565Y-98150310D01*
X90936238Y-98120677D01*
X90928055Y-98072679D01*
X90917313Y-98056027D01*
X90909358Y-98059869D01*
X90876625Y-98074659D01*
X90829534Y-98076804D01*
X90779223Y-98068490D01*
X90736829Y-98051900D01*
X90713491Y-98029219D01*
X90711866Y-98021136D01*
X90726636Y-98002580D01*
X90754905Y-97997433D01*
X90791180Y-97993962D01*
X90807739Y-97987638D01*
X90813137Y-97961380D01*
X90801227Y-97922946D01*
X90777438Y-97885254D01*
X90756749Y-97866313D01*
X90705021Y-97851970D01*
X90638394Y-97867250D01*
X90556402Y-97912277D01*
X90539536Y-97923861D01*
X90488938Y-97965620D01*
X90455101Y-98011607D01*
X90434010Y-98070583D01*
X90421651Y-98151310D01*
X90418526Y-98187933D01*
X90408730Y-98269811D01*
X90392686Y-98354443D01*
X90373860Y-98423560D01*
X90373785Y-98423777D01*
X90339086Y-98524154D01*
X90377310Y-98565276D01*
X90414675Y-98599929D01*
X90464850Y-98639894D01*
X90487500Y-98656212D01*
X90532015Y-98690959D01*
X90553443Y-98721288D01*
X90559058Y-98757778D01*
X90559053Y-98760247D01*
X90554090Y-98823319D01*
X90538859Y-98893068D01*
X90511426Y-98975617D01*
X90469860Y-99077090D01*
X90433730Y-99157437D01*
X90373062Y-99301180D01*
X90334169Y-99423334D01*
X90316327Y-99527622D01*
X90318814Y-99617770D01*
X90332987Y-99676602D01*
X90346876Y-99724142D01*
X90352272Y-99757265D01*
X90350716Y-99765462D01*
X90327732Y-99772481D01*
X90280830Y-99777923D01*
X90219937Y-99781517D01*
X90154976Y-99782992D01*
X90095873Y-99782079D01*
X90052551Y-99778507D01*
X90036534Y-99774024D01*
X90022134Y-99745948D01*
X90023647Y-99701686D01*
X90038668Y-99653538D01*
X90064795Y-99613804D01*
X90068538Y-99610209D01*
X90118587Y-99551035D01*
X90169684Y-99466543D01*
X90218338Y-99364976D01*
X90261057Y-99254577D01*
X90294352Y-99143587D01*
X90314732Y-99040251D01*
X90316619Y-99024429D01*
X90316394Y-98924977D01*
X90295341Y-98838291D01*
X90256057Y-98769743D01*
X90201140Y-98724707D01*
X90165560Y-98711980D01*
X90045618Y-98671491D01*
X89926458Y-98605509D01*
X89818847Y-98520901D01*
X89750524Y-98447245D01*
X89701281Y-98384823D01*
X89647352Y-98417619D01*
X89591848Y-98466448D01*
X89568385Y-98523894D01*
X89577291Y-98586679D01*
X89618899Y-98651528D01*
X89623300Y-98656333D01*
X89665462Y-98701400D01*
X89592170Y-98780913D01*
X89550152Y-98820570D01*
X89487580Y-98872251D01*
X89412404Y-98929694D01*
X89332577Y-98986637D01*
X89320121Y-98995136D01*
X89202735Y-99078723D01*
X89113663Y-99152086D01*
X89050143Y-99218466D01*
X89009414Y-99281107D01*
X88988716Y-99343248D01*
X88984666Y-99389003D01*
X88979137Y-99417555D01*
X88956770Y-99435947D01*
X88913024Y-99450519D01*
X88850601Y-99460690D01*
X88785192Y-99461083D01*
X88728764Y-99452512D01*
X88693288Y-99435792D01*
X88693036Y-99435543D01*
X88682297Y-99402910D01*
X88692797Y-99355902D01*
X88721141Y-99303385D01*
X88761603Y-99256377D01*
X88788004Y-99232126D01*
X88815606Y-99207847D01*
X88848783Y-99179981D01*
X88891906Y-99144971D01*
X88949350Y-99099257D01*
X89025489Y-99039282D01*
X89106762Y-98975536D01*
X89198593Y-98898671D01*
X89266644Y-98831073D01*
X89308897Y-98775001D01*
X89323333Y-98732890D01*
X89312243Y-98710174D01*
X89282125Y-98669312D01*
X89237709Y-98616295D01*
X89188996Y-98562692D01*
X89113105Y-98476817D01*
X89062013Y-98404636D01*
X89032944Y-98340181D01*
X89023125Y-98277480D01*
X89028508Y-98217316D01*
X89044206Y-98152922D01*
X89069096Y-98101068D01*
X89110626Y-98047977D01*
X89133109Y-98023785D01*
X89138240Y-98018600D01*
X89441867Y-98018600D01*
X89450333Y-98027066D01*
X89458800Y-98018600D01*
X89450333Y-98010133D01*
X89441867Y-98018600D01*
X89138240Y-98018600D01*
X89158118Y-97998513D01*
X89174010Y-97980482D01*
X89176991Y-97967514D01*
X89163268Y-97957433D01*
X89129047Y-97948061D01*
X89070535Y-97937221D01*
X88983938Y-97922735D01*
X88945898Y-97916334D01*
X88808910Y-97885678D01*
X88694922Y-97844711D01*
X88607256Y-97794976D01*
X88549237Y-97738014D01*
X88543835Y-97729819D01*
X88520589Y-97693364D01*
X88506220Y-97673005D01*
X88504530Y-97671467D01*
X88487853Y-97675354D01*
X88445426Y-97685844D01*
X88384317Y-97701177D01*
X88334407Y-97713800D01*
X88258672Y-97731908D01*
X88190834Y-97746149D01*
X88140433Y-97754617D01*
X88122546Y-97756133D01*
X88082051Y-97767434D01*
X88048428Y-97805573D01*
X88045551Y-97810335D01*
X88021960Y-97844780D01*
X87982030Y-97897462D01*
X87931523Y-97960963D01*
X87881033Y-98022128D01*
X87819052Y-98099321D01*
X87775205Y-98161426D01*
X87751827Y-98204973D01*
X87748533Y-98219302D01*
X87763723Y-98267084D01*
X87802938Y-98301796D01*
X87855700Y-98314933D01*
X87883970Y-98319398D01*
X87897981Y-98335947D01*
X87897757Y-98369317D01*
X87883322Y-98424239D01*
X87856638Y-98500231D01*
X87831929Y-98562692D01*
X87812343Y-98599127D01*
X87793377Y-98615981D01*
X87773124Y-98619733D01*
X87731522Y-98603544D01*
X87691074Y-98557828D01*
X87654969Y-98486865D01*
X87638091Y-98438534D01*
X87619021Y-98363705D01*
X87612125Y-98297094D01*
X87619109Y-98232423D01*
X87641684Y-98163412D01*
X87681557Y-98083780D01*
X87740437Y-97987249D01*
X87775377Y-97933933D01*
X87824283Y-97857475D01*
X87867672Y-97784310D01*
X87901035Y-97722403D01*
X87919861Y-97679721D01*
X87920547Y-97677561D01*
X87931430Y-97644465D01*
X87944346Y-97619179D01*
X87951024Y-97612200D01*
X90051467Y-97612200D01*
X90059933Y-97620667D01*
X90068400Y-97612200D01*
X90059933Y-97603733D01*
X90051467Y-97612200D01*
X87951024Y-97612200D01*
X87964607Y-97598007D01*
X87997525Y-97577252D01*
X88048410Y-97553216D01*
X88122575Y-97522202D01*
X88173379Y-97501573D01*
X88192295Y-97493667D01*
X90170000Y-97493667D01*
X90178467Y-97502133D01*
X90186933Y-97493667D01*
X90178467Y-97485200D01*
X90170000Y-97493667D01*
X88192295Y-97493667D01*
X88246236Y-97471123D01*
X88308260Y-97443456D01*
X88352147Y-97421939D01*
X88369613Y-97411117D01*
X88381088Y-97383434D01*
X88379842Y-97345799D01*
X88368442Y-97312778D01*
X88349849Y-97298933D01*
X88341989Y-97294792D01*
X89549907Y-97294792D01*
X89551933Y-97309613D01*
X89575749Y-97320280D01*
X89618917Y-97340543D01*
X89653533Y-97357095D01*
X89700935Y-97379692D01*
X89734082Y-97395069D01*
X89743822Y-97399198D01*
X89736536Y-97388379D01*
X89712023Y-97358745D01*
X89676088Y-97317282D01*
X89652461Y-97290467D01*
X90068400Y-97290467D01*
X90076867Y-97298933D01*
X90085333Y-97290467D01*
X90076867Y-97282000D01*
X90068400Y-97290467D01*
X89652461Y-97290467D01*
X89602733Y-97234032D01*
X89568867Y-97268465D01*
X89549907Y-97294792D01*
X88341989Y-97294792D01*
X88325875Y-97286304D01*
X88288117Y-97252751D01*
X88259678Y-97222733D01*
X90474800Y-97222733D01*
X90483266Y-97231200D01*
X90491733Y-97222733D01*
X90483266Y-97214267D01*
X90474800Y-97222733D01*
X88259678Y-97222733D01*
X88242665Y-97204776D01*
X88202216Y-97156730D01*
X89703492Y-97156730D01*
X89712800Y-97171933D01*
X89738297Y-97193278D01*
X89750813Y-97197333D01*
X89755975Y-97187137D01*
X89746667Y-97171933D01*
X89721169Y-97150589D01*
X89708653Y-97146533D01*
X89703492Y-97156730D01*
X88202216Y-97156730D01*
X88195606Y-97148879D01*
X88153025Y-97091562D01*
X88146217Y-97081459D01*
X88136628Y-97067511D01*
X90700578Y-97067511D01*
X90702902Y-97077578D01*
X90711866Y-97078800D01*
X90725805Y-97072604D01*
X90723155Y-97067511D01*
X90703059Y-97065484D01*
X90700578Y-97067511D01*
X88136628Y-97067511D01*
X88125809Y-97051775D01*
X88106261Y-97030485D01*
X88081334Y-97015347D01*
X88044789Y-97004119D01*
X87990386Y-96994558D01*
X87911887Y-96984422D01*
X87858600Y-96978075D01*
X87783231Y-96967011D01*
X87711132Y-96952842D01*
X87656827Y-96938461D01*
X87653026Y-96937155D01*
X87607087Y-96922932D01*
X87575589Y-96923401D01*
X87541536Y-96940658D01*
X87522665Y-96953225D01*
X87485595Y-96980098D01*
X87471961Y-97000918D01*
X87477137Y-97028591D01*
X87486938Y-97052874D01*
X87502913Y-97093505D01*
X87511159Y-97119161D01*
X87511467Y-97121453D01*
X87496086Y-97137952D01*
X87455976Y-97154497D01*
X87400181Y-97168657D01*
X87337749Y-97178006D01*
X87291877Y-97180400D01*
X87189733Y-97180400D01*
X87189733Y-97119942D01*
X87192602Y-97088751D01*
X87204324Y-97059802D01*
X87229574Y-97026352D01*
X87273026Y-96981661D01*
X87310065Y-96946375D01*
X87370680Y-96891932D01*
X87422781Y-96854072D01*
X87474281Y-96830620D01*
X87533095Y-96819404D01*
X87607136Y-96818251D01*
X87704319Y-96824989D01*
X87740067Y-96828310D01*
X87831143Y-96834579D01*
X87927405Y-96837264D01*
X88012463Y-96836023D01*
X88037523Y-96834523D01*
X88104384Y-96830232D01*
X88149423Y-96831732D01*
X88184518Y-96841451D01*
X88221544Y-96861817D01*
X88244673Y-96876871D01*
X88300669Y-96916597D01*
X88353756Y-96958458D01*
X88374515Y-96976685D01*
X88425332Y-97024154D01*
X88479198Y-96968733D01*
X89289467Y-96968733D01*
X89297933Y-96977200D01*
X89306400Y-96968733D01*
X89297933Y-96960267D01*
X89289467Y-96968733D01*
X88479198Y-96968733D01*
X88497566Y-96949835D01*
X88523462Y-96917933D01*
X89306400Y-96917933D01*
X89314867Y-96926400D01*
X89323333Y-96917933D01*
X89314867Y-96909467D01*
X89306400Y-96917933D01*
X88523462Y-96917933D01*
X88564698Y-96867133D01*
X89323333Y-96867133D01*
X89331800Y-96875600D01*
X89340267Y-96867133D01*
X89331800Y-96858667D01*
X89323333Y-96867133D01*
X88564698Y-96867133D01*
X88591157Y-96834539D01*
X88672186Y-96697200D01*
X88734111Y-96549103D01*
X88739621Y-96532183D01*
X88763597Y-96454112D01*
X88776331Y-96404751D01*
X88777664Y-96380806D01*
X88767434Y-96378983D01*
X88745483Y-96395991D01*
X88733548Y-96407172D01*
X88671512Y-96446621D01*
X88624162Y-96455392D01*
X88586435Y-96459930D01*
X88570211Y-96468271D01*
X88570651Y-96470577D01*
X88567499Y-96491084D01*
X88551485Y-96532118D01*
X88527637Y-96581692D01*
X88500925Y-96638936D01*
X88482471Y-96689491D01*
X88476667Y-96718500D01*
X88471465Y-96744735D01*
X88449409Y-96755440D01*
X88417400Y-96757067D01*
X88372805Y-96749685D01*
X88358630Y-96727945D01*
X88374915Y-96692453D01*
X88410724Y-96653794D01*
X88439187Y-96622810D01*
X88444208Y-96606269D01*
X88439076Y-96604666D01*
X88411691Y-96616176D01*
X88377780Y-96644169D01*
X88375067Y-96647000D01*
X88325762Y-96681974D01*
X88276437Y-96685264D01*
X88232521Y-96657000D01*
X88213053Y-96631972D01*
X88217862Y-96617239D01*
X88234130Y-96606715D01*
X88253239Y-96592288D01*
X88247031Y-96588831D01*
X88222343Y-96596681D01*
X88204620Y-96605262D01*
X88183435Y-96613979D01*
X88174680Y-96608462D01*
X88179129Y-96584792D01*
X88197552Y-96539050D01*
X88230723Y-96467316D01*
X88232544Y-96463478D01*
X88272365Y-96367604D01*
X88291141Y-96290431D01*
X88293222Y-96258648D01*
X88296355Y-96210427D01*
X88304267Y-96178050D01*
X88308744Y-96171994D01*
X88323878Y-96150602D01*
X88312611Y-96133077D01*
X88299462Y-96130533D01*
X88272513Y-96117088D01*
X88256533Y-96096667D01*
X88231381Y-96067163D01*
X88208101Y-96069139D01*
X88193756Y-96096476D01*
X88180247Y-96120048D01*
X88165087Y-96115258D01*
X88155587Y-96086402D01*
X88154933Y-96073654D01*
X88157646Y-96063799D01*
X88358133Y-96063799D01*
X88363575Y-96079185D01*
X88376062Y-96065763D01*
X88381528Y-96053454D01*
X88382711Y-96035974D01*
X88374873Y-96037520D01*
X88358735Y-96059200D01*
X88358133Y-96063799D01*
X88157646Y-96063799D01*
X88168134Y-96025710D01*
X88206767Y-95999657D01*
X88242987Y-95995067D01*
X88279633Y-95988799D01*
X88289495Y-95974059D01*
X88269412Y-95956943D01*
X88263927Y-95954664D01*
X88245775Y-95938933D01*
X88253291Y-95924014D01*
X88279571Y-95920004D01*
X88286641Y-95921444D01*
X88307389Y-95919261D01*
X88323466Y-95895560D01*
X88337597Y-95851229D01*
X88355092Y-95804770D01*
X88372944Y-95785370D01*
X88386925Y-95794582D01*
X88392764Y-95830966D01*
X88395091Y-95851813D01*
X88403161Y-95845085D01*
X88416788Y-95817267D01*
X88432756Y-95786368D01*
X88440788Y-95784778D01*
X88443827Y-95800333D01*
X88448358Y-95807061D01*
X88455459Y-95785020D01*
X88459012Y-95766467D01*
X88470418Y-95698733D01*
X88490475Y-95746402D01*
X88503681Y-95795308D01*
X88510341Y-95854269D01*
X88510533Y-95864465D01*
X88510533Y-95934859D01*
X88546447Y-95898945D01*
X88582362Y-95863031D01*
X88543177Y-95793312D01*
X88503993Y-95723593D01*
X88562297Y-95673751D01*
X88607626Y-95637584D01*
X88631823Y-95625723D01*
X88637068Y-95637913D01*
X88628647Y-95665969D01*
X88616506Y-95699992D01*
X88612133Y-95715856D01*
X88626245Y-95716165D01*
X88661761Y-95707639D01*
X88708455Y-95693539D01*
X88756100Y-95677128D01*
X88794467Y-95661667D01*
X88811509Y-95652259D01*
X88836447Y-95641935D01*
X88846744Y-95656075D01*
X88838042Y-95686875D01*
X88834363Y-95693202D01*
X88822417Y-95715441D01*
X88829075Y-95723046D01*
X88860600Y-95719386D01*
X88877338Y-95716316D01*
X88924527Y-95704453D01*
X88958080Y-95690668D01*
X88961853Y-95688044D01*
X88981637Y-95681799D01*
X88989735Y-95697476D01*
X88984404Y-95724624D01*
X88971391Y-95745272D01*
X88958593Y-95761853D01*
X88962953Y-95767000D01*
X88989958Y-95761136D01*
X89028634Y-95749689D01*
X89115813Y-95729397D01*
X89184106Y-95726269D01*
X89229058Y-95740339D01*
X89237402Y-95748010D01*
X89245445Y-95766144D01*
X89227340Y-95777740D01*
X89207343Y-95782841D01*
X89157468Y-95793796D01*
X89197421Y-95833748D01*
X89241557Y-95863203D01*
X89271887Y-95864675D01*
X89299977Y-95865475D01*
X89304380Y-95881952D01*
X89283671Y-95904261D01*
X89278097Y-95907623D01*
X89263054Y-95920406D01*
X89272804Y-95933940D01*
X89300497Y-95949681D01*
X89352892Y-95982680D01*
X89381470Y-96013528D01*
X89382961Y-96038065D01*
X89375492Y-96045027D01*
X89364026Y-96060811D01*
X89372862Y-96088332D01*
X89383898Y-96107236D01*
X89429057Y-96170633D01*
X89474586Y-96218750D01*
X89514274Y-96245548D01*
X89529701Y-96249066D01*
X89555449Y-96256807D01*
X89560400Y-96266000D01*
X89546033Y-96279416D01*
X89522300Y-96283448D01*
X89497072Y-96285780D01*
X89503037Y-96294681D01*
X89512517Y-96300486D01*
X89547091Y-96333018D01*
X89580691Y-96383206D01*
X89604689Y-96436283D01*
X89611200Y-96469438D01*
X89609999Y-96493696D01*
X89601741Y-96495473D01*
X89579445Y-96473721D01*
X89569675Y-96463206D01*
X89534920Y-96429329D01*
X89517326Y-96420147D01*
X89518802Y-96436117D01*
X89526917Y-96452983D01*
X89538065Y-96493090D01*
X89540591Y-96544844D01*
X89540213Y-96550350D01*
X89535000Y-96613133D01*
X89506044Y-96562333D01*
X89486409Y-96532619D01*
X89477500Y-96532753D01*
X89476411Y-96542280D01*
X89490400Y-96599531D01*
X89533051Y-96665923D01*
X89556691Y-96693066D01*
X89583002Y-96724075D01*
X89586678Y-96740432D01*
X89571425Y-96749961D01*
X89537758Y-96749158D01*
X89501002Y-96733138D01*
X89471419Y-96715525D01*
X89460553Y-96717961D01*
X89459338Y-96735509D01*
X89469664Y-96772527D01*
X89484738Y-96798403D01*
X89504303Y-96832797D01*
X89509600Y-96853436D01*
X89496743Y-96871519D01*
X89467048Y-96874024D01*
X89433833Y-96860794D01*
X89425914Y-96854433D01*
X89418578Y-96853137D01*
X89427547Y-96875355D01*
X89434337Y-96887779D01*
X89452901Y-96931609D01*
X89449898Y-96955948D01*
X89426954Y-96956989D01*
X89408736Y-96947722D01*
X89382036Y-96936892D01*
X89368216Y-96951295D01*
X89367704Y-96952597D01*
X89364854Y-96990048D01*
X89368010Y-97002600D01*
X89365972Y-97022086D01*
X89336009Y-97027997D01*
X89335023Y-97028000D01*
X89299431Y-97021860D01*
X89283681Y-97010643D01*
X89278182Y-97006412D01*
X89279044Y-97013667D01*
X89298533Y-97043355D01*
X89338226Y-97050926D01*
X89394075Y-97037907D01*
X89397124Y-97036467D01*
X90356266Y-97036467D01*
X90364733Y-97044933D01*
X90373200Y-97036467D01*
X90364733Y-97028000D01*
X90356266Y-97036467D01*
X89397124Y-97036467D01*
X89432992Y-97019533D01*
X90305466Y-97019533D01*
X90313933Y-97028000D01*
X90322400Y-97019533D01*
X90313933Y-97011067D01*
X90305466Y-97019533D01*
X89432992Y-97019533D01*
X89462034Y-97005822D01*
X89466969Y-97002600D01*
X90271600Y-97002600D01*
X90280066Y-97011067D01*
X90288533Y-97002600D01*
X90280066Y-96994133D01*
X90271600Y-97002600D01*
X89466969Y-97002600D01*
X89492909Y-96985667D01*
X90220800Y-96985667D01*
X90229266Y-96994133D01*
X90237733Y-96985667D01*
X90229266Y-96977200D01*
X90220800Y-96985667D01*
X89492909Y-96985667D01*
X89523173Y-96965911D01*
X90175644Y-96965911D01*
X90177969Y-96975978D01*
X90186933Y-96977200D01*
X90200871Y-96971004D01*
X90198222Y-96965911D01*
X90178126Y-96963884D01*
X90175644Y-96965911D01*
X89523173Y-96965911D01*
X89538058Y-96956195D01*
X89546857Y-96948978D01*
X90124844Y-96948978D01*
X90127169Y-96959044D01*
X90136133Y-96960267D01*
X90150071Y-96954071D01*
X90147422Y-96948978D01*
X90127326Y-96946951D01*
X90124844Y-96948978D01*
X89546857Y-96948978D01*
X89564064Y-96934867D01*
X90085333Y-96934867D01*
X90093800Y-96943333D01*
X90102267Y-96934867D01*
X90093800Y-96926400D01*
X90085333Y-96934867D01*
X89564064Y-96934867D01*
X89584713Y-96917933D01*
X90034533Y-96917933D01*
X90043000Y-96926400D01*
X90051467Y-96917933D01*
X90043000Y-96909467D01*
X90034533Y-96917933D01*
X89584713Y-96917933D01*
X89618100Y-96890553D01*
X89626778Y-96882604D01*
X89687707Y-96816333D01*
X90051467Y-96816333D01*
X90059933Y-96824800D01*
X90068400Y-96816333D01*
X90059933Y-96807867D01*
X90051467Y-96816333D01*
X89687707Y-96816333D01*
X89704524Y-96798042D01*
X89720613Y-96772696D01*
X90059933Y-96772696D01*
X90062987Y-96780797D01*
X90090612Y-96789911D01*
X90133645Y-96798044D01*
X90182926Y-96803203D01*
X90203867Y-96804012D01*
X90213232Y-96801035D01*
X90193710Y-96792708D01*
X90161533Y-96783880D01*
X90110001Y-96773742D01*
X90071522Y-96770661D01*
X90059933Y-96772696D01*
X89720613Y-96772696D01*
X89759199Y-96711911D01*
X90666711Y-96711911D01*
X90669035Y-96721978D01*
X90678000Y-96723200D01*
X90691938Y-96717004D01*
X90689289Y-96711911D01*
X90669193Y-96709884D01*
X90666711Y-96711911D01*
X89759199Y-96711911D01*
X89759632Y-96711229D01*
X89773530Y-96672077D01*
X90068400Y-96672077D01*
X90083175Y-96683942D01*
X90119039Y-96689307D01*
X90122022Y-96689333D01*
X90156611Y-96687698D01*
X90168971Y-96683713D01*
X90168589Y-96683249D01*
X90143157Y-96671648D01*
X90108229Y-96665146D01*
X90078531Y-96665386D01*
X90068400Y-96672077D01*
X89773530Y-96672077D01*
X89788608Y-96629604D01*
X90186853Y-96629604D01*
X90204141Y-96632033D01*
X90247702Y-96633099D01*
X90254666Y-96633113D01*
X90301188Y-96632246D01*
X90321901Y-96629959D01*
X90313012Y-96626723D01*
X90309700Y-96626284D01*
X90250323Y-96623481D01*
X90199633Y-96626284D01*
X90186853Y-96629604D01*
X89788608Y-96629604D01*
X89789284Y-96627702D01*
X89791636Y-96558364D01*
X89781844Y-96528466D01*
X90051467Y-96528466D01*
X90059933Y-96536933D01*
X90068400Y-96528466D01*
X90059933Y-96520000D01*
X90051467Y-96528466D01*
X89781844Y-96528466D01*
X89778107Y-96517060D01*
X89777582Y-96515951D01*
X90143477Y-96515951D01*
X90160122Y-96518663D01*
X90182085Y-96515550D01*
X90182347Y-96509769D01*
X90159684Y-96505727D01*
X90149892Y-96508432D01*
X90143477Y-96515951D01*
X89777582Y-96515951D01*
X89769089Y-96498032D01*
X90349906Y-96498032D01*
X90373200Y-96500393D01*
X90397239Y-96497732D01*
X90394366Y-96491852D01*
X90359698Y-96489615D01*
X90352033Y-96491852D01*
X90349906Y-96498032D01*
X89769089Y-96498032D01*
X89750584Y-96458990D01*
X89737570Y-96436024D01*
X90000667Y-96436024D01*
X90016232Y-96440750D01*
X90057620Y-96443326D01*
X90116873Y-96443977D01*
X90186031Y-96442928D01*
X90257133Y-96440405D01*
X90322221Y-96436633D01*
X90373334Y-96431836D01*
X90402514Y-96426239D01*
X90405655Y-96424572D01*
X90392618Y-96422212D01*
X90351921Y-96420269D01*
X90289769Y-96418935D01*
X90212368Y-96418402D01*
X90206689Y-96418400D01*
X90111575Y-96419814D01*
X90044432Y-96423930D01*
X90007467Y-96430559D01*
X90000667Y-96436024D01*
X89737570Y-96436024D01*
X89714424Y-96395180D01*
X89705232Y-96380512D01*
X89670040Y-96324165D01*
X89669026Y-96322444D01*
X90040178Y-96322444D01*
X90042502Y-96332511D01*
X90051467Y-96333733D01*
X90065405Y-96327538D01*
X90062755Y-96322444D01*
X90042659Y-96320418D01*
X90040178Y-96322444D01*
X89669026Y-96322444D01*
X89660709Y-96308333D01*
X89916000Y-96308333D01*
X89924467Y-96316800D01*
X89932933Y-96308333D01*
X89924467Y-96299866D01*
X89916000Y-96308333D01*
X89660709Y-96308333D01*
X89650729Y-96291400D01*
X90017600Y-96291400D01*
X90026067Y-96299866D01*
X90034533Y-96291400D01*
X90026067Y-96282933D01*
X90017600Y-96291400D01*
X89650729Y-96291400D01*
X89643275Y-96278753D01*
X89641053Y-96274466D01*
X90119200Y-96274466D01*
X90127667Y-96282933D01*
X90136133Y-96274466D01*
X90127667Y-96266000D01*
X90119200Y-96274466D01*
X89641053Y-96274466D01*
X89632275Y-96257533D01*
X90220800Y-96257533D01*
X90229266Y-96266000D01*
X90237733Y-96257533D01*
X90229266Y-96249066D01*
X90220800Y-96257533D01*
X89632275Y-96257533D01*
X89629241Y-96251681D01*
X89628133Y-96247906D01*
X89613715Y-96235607D01*
X89581567Y-96224294D01*
X89580129Y-96223666D01*
X90847333Y-96223666D01*
X90855800Y-96232133D01*
X90864266Y-96223666D01*
X90855800Y-96215200D01*
X90847333Y-96223666D01*
X89580129Y-96223666D01*
X89541350Y-96206733D01*
X90965866Y-96206733D01*
X90974333Y-96215200D01*
X90982800Y-96206733D01*
X90974333Y-96198267D01*
X90965866Y-96206733D01*
X89541350Y-96206733D01*
X89532432Y-96202839D01*
X89522720Y-96195147D01*
X89821025Y-96195147D01*
X89821463Y-96195996D01*
X89840419Y-96202560D01*
X89873413Y-96202278D01*
X89904034Y-96196567D01*
X89916000Y-96187826D01*
X89901232Y-96183297D01*
X89865565Y-96181335D01*
X89864200Y-96181333D01*
X89831115Y-96185363D01*
X89821025Y-96195147D01*
X89522720Y-96195147D01*
X89500167Y-96177285D01*
X89940277Y-96177285D01*
X89956922Y-96179996D01*
X89978885Y-96176883D01*
X89979147Y-96171103D01*
X89956484Y-96167060D01*
X89946692Y-96169766D01*
X89940277Y-96177285D01*
X89500167Y-96177285D01*
X89489098Y-96168519D01*
X89477534Y-96153111D01*
X89820044Y-96153111D01*
X89822369Y-96163178D01*
X89831333Y-96164400D01*
X89845271Y-96158204D01*
X89844090Y-96155933D01*
X90034533Y-96155933D01*
X90043000Y-96164400D01*
X90051467Y-96155933D01*
X90043000Y-96147467D01*
X90034533Y-96155933D01*
X89844090Y-96155933D01*
X89842622Y-96153111D01*
X89822526Y-96151084D01*
X89820044Y-96153111D01*
X89477534Y-96153111D01*
X89464825Y-96136178D01*
X89887778Y-96136178D01*
X89890102Y-96146244D01*
X89899067Y-96147467D01*
X89913005Y-96141271D01*
X89911824Y-96139000D01*
X90119200Y-96139000D01*
X90127667Y-96147467D01*
X90136133Y-96139000D01*
X90127667Y-96130533D01*
X90119200Y-96139000D01*
X89911824Y-96139000D01*
X89910355Y-96136178D01*
X89890259Y-96134151D01*
X89887778Y-96136178D01*
X89464825Y-96136178D01*
X89460144Y-96129942D01*
X89458702Y-96122067D01*
X89966800Y-96122067D01*
X89975267Y-96130533D01*
X89983733Y-96122067D01*
X89975267Y-96113600D01*
X89966800Y-96122067D01*
X89458702Y-96122067D01*
X89455601Y-96105133D01*
X90034533Y-96105133D01*
X90043000Y-96113600D01*
X90051467Y-96105133D01*
X90043000Y-96096667D01*
X90034533Y-96105133D01*
X89455601Y-96105133D01*
X89453986Y-96096314D01*
X89453615Y-96088200D01*
X90102267Y-96088200D01*
X90110733Y-96096667D01*
X90119200Y-96088200D01*
X90110733Y-96079733D01*
X90102267Y-96088200D01*
X89453615Y-96088200D01*
X89452840Y-96071267D01*
X90170000Y-96071267D01*
X90178467Y-96079733D01*
X90186933Y-96071267D01*
X91355333Y-96071267D01*
X91363800Y-96079733D01*
X91372267Y-96071267D01*
X91363800Y-96062800D01*
X91355333Y-96071267D01*
X90186933Y-96071267D01*
X90178467Y-96062800D01*
X90170000Y-96071267D01*
X89452840Y-96071267D01*
X89452338Y-96060328D01*
X89450354Y-96054333D01*
X90237733Y-96054333D01*
X90246200Y-96062800D01*
X90254666Y-96054333D01*
X90251844Y-96051511D01*
X91445644Y-96051511D01*
X91447969Y-96061578D01*
X91456933Y-96062800D01*
X91470871Y-96056604D01*
X91468222Y-96051511D01*
X91448126Y-96049484D01*
X91445644Y-96051511D01*
X90251844Y-96051511D01*
X90246200Y-96045867D01*
X90237733Y-96054333D01*
X89450354Y-96054333D01*
X89444747Y-96037400D01*
X89831333Y-96037400D01*
X89839800Y-96045867D01*
X89848267Y-96037400D01*
X90305466Y-96037400D01*
X90313933Y-96045867D01*
X90317982Y-96041818D01*
X91515077Y-96041818D01*
X91531722Y-96044530D01*
X91553685Y-96041416D01*
X91553947Y-96035636D01*
X91531284Y-96031594D01*
X91521492Y-96034299D01*
X91515077Y-96041818D01*
X90317982Y-96041818D01*
X90322400Y-96037400D01*
X90313933Y-96028933D01*
X90305466Y-96037400D01*
X89848267Y-96037400D01*
X89839800Y-96028933D01*
X89831333Y-96037400D01*
X89444747Y-96037400D01*
X89439140Y-96020467D01*
X90373200Y-96020467D01*
X90381666Y-96028933D01*
X90390133Y-96020467D01*
X90381666Y-96012000D01*
X90373200Y-96020467D01*
X89439140Y-96020467D01*
X89437277Y-96014841D01*
X89435122Y-96010365D01*
X89430870Y-96000711D01*
X90446578Y-96000711D01*
X90448902Y-96010778D01*
X90457866Y-96012000D01*
X90471805Y-96005804D01*
X90469155Y-96000711D01*
X90449059Y-95998684D01*
X90446578Y-96000711D01*
X89430870Y-96000711D01*
X89426601Y-95991018D01*
X90499077Y-95991018D01*
X90515722Y-95993730D01*
X90537685Y-95990616D01*
X90537947Y-95984836D01*
X90515284Y-95980794D01*
X90505491Y-95983499D01*
X90499077Y-95991018D01*
X89426601Y-95991018D01*
X89417197Y-95969667D01*
X90017600Y-95969667D01*
X90026067Y-95978133D01*
X90034533Y-95969667D01*
X90136133Y-95969667D01*
X90144600Y-95978133D01*
X90148648Y-95974085D01*
X90566811Y-95974085D01*
X90583455Y-95976796D01*
X90605418Y-95973683D01*
X90605680Y-95967903D01*
X90583017Y-95963860D01*
X90573225Y-95966566D01*
X90566811Y-95974085D01*
X90148648Y-95974085D01*
X90153067Y-95969667D01*
X90144600Y-95961200D01*
X90136133Y-95969667D01*
X90034533Y-95969667D01*
X90026067Y-95961200D01*
X90017600Y-95969667D01*
X89417197Y-95969667D01*
X89413552Y-95961392D01*
X89412904Y-95952733D01*
X90068400Y-95952733D01*
X90076867Y-95961200D01*
X90085333Y-95952733D01*
X90186933Y-95952733D01*
X90195400Y-95961200D01*
X90203867Y-95952733D01*
X90195400Y-95944267D01*
X90186933Y-95952733D01*
X90085333Y-95952733D01*
X90076867Y-95944267D01*
X90068400Y-95952733D01*
X89412904Y-95952733D01*
X89411640Y-95935861D01*
X89411805Y-95935800D01*
X90102267Y-95935800D01*
X90110733Y-95944267D01*
X90119200Y-95935800D01*
X90237733Y-95935800D01*
X90246200Y-95944267D01*
X90254666Y-95935800D01*
X90246200Y-95927333D01*
X90237733Y-95935800D01*
X90119200Y-95935800D01*
X90110733Y-95927333D01*
X90102267Y-95935800D01*
X89411805Y-95935800D01*
X89430358Y-95928966D01*
X89451042Y-95931613D01*
X89485954Y-95930780D01*
X89498092Y-95918867D01*
X90153067Y-95918867D01*
X90161533Y-95927333D01*
X90170000Y-95918867D01*
X90288533Y-95918867D01*
X90297000Y-95927333D01*
X90305466Y-95918867D01*
X90297000Y-95910400D01*
X90288533Y-95918867D01*
X90170000Y-95918867D01*
X90161533Y-95910400D01*
X90153067Y-95918867D01*
X89498092Y-95918867D01*
X89510704Y-95906489D01*
X89513258Y-95901933D01*
X90203867Y-95901933D01*
X90212333Y-95910400D01*
X90220800Y-95901933D01*
X90217978Y-95899111D01*
X90344978Y-95899111D01*
X90347302Y-95909178D01*
X90356266Y-95910400D01*
X90370205Y-95904204D01*
X90367555Y-95899111D01*
X90347459Y-95897084D01*
X90344978Y-95899111D01*
X90217978Y-95899111D01*
X90212333Y-95893467D01*
X90203867Y-95901933D01*
X89513258Y-95901933D01*
X89518776Y-95892095D01*
X89522681Y-95882178D01*
X90395778Y-95882178D01*
X90398102Y-95892244D01*
X90407066Y-95893467D01*
X90421005Y-95887271D01*
X90418355Y-95882178D01*
X90398259Y-95880151D01*
X90395778Y-95882178D01*
X89522681Y-95882178D01*
X89528238Y-95868067D01*
X90457866Y-95868067D01*
X90466333Y-95876533D01*
X90474800Y-95868067D01*
X90466333Y-95859600D01*
X90457866Y-95868067D01*
X89528238Y-95868067D01*
X89534907Y-95851133D01*
X90508666Y-95851133D01*
X90517133Y-95859600D01*
X90525600Y-95851133D01*
X90517133Y-95842667D01*
X90508666Y-95851133D01*
X89534907Y-95851133D01*
X89536649Y-95846710D01*
X89538949Y-95834200D01*
X90559466Y-95834200D01*
X90567933Y-95842667D01*
X90576400Y-95834200D01*
X90567933Y-95825733D01*
X90559466Y-95834200D01*
X89538949Y-95834200D01*
X89543467Y-95809641D01*
X89554258Y-95781786D01*
X89577609Y-95776061D01*
X89599981Y-95793013D01*
X89605857Y-95807129D01*
X89614960Y-95828080D01*
X89633071Y-95828098D01*
X89655570Y-95817267D01*
X90610266Y-95817267D01*
X90618733Y-95825733D01*
X90627200Y-95817267D01*
X90618733Y-95808800D01*
X90610266Y-95817267D01*
X89655570Y-95817267D01*
X89659305Y-95815469D01*
X89690301Y-95800333D01*
X90661066Y-95800333D01*
X90669533Y-95808800D01*
X90678000Y-95800333D01*
X90669533Y-95791867D01*
X90661066Y-95800333D01*
X89690301Y-95800333D01*
X89699613Y-95795786D01*
X89756782Y-95769819D01*
X89801778Y-95750303D01*
X89803307Y-95749533D01*
X90627200Y-95749533D01*
X90635666Y-95758000D01*
X90644133Y-95749533D01*
X90635666Y-95741067D01*
X90627200Y-95749533D01*
X89803307Y-95749533D01*
X89836941Y-95732600D01*
X90678000Y-95732600D01*
X90686466Y-95741067D01*
X90694933Y-95732600D01*
X90686466Y-95724133D01*
X90678000Y-95732600D01*
X89836941Y-95732600D01*
X89867337Y-95717298D01*
X89869207Y-95715667D01*
X90932000Y-95715667D01*
X90940466Y-95724133D01*
X90948933Y-95715667D01*
X90940466Y-95707200D01*
X90932000Y-95715667D01*
X89869207Y-95715667D01*
X89888633Y-95698733D01*
X90762666Y-95698733D01*
X90771133Y-95707200D01*
X90779600Y-95698733D01*
X90771133Y-95690267D01*
X90762666Y-95698733D01*
X89888633Y-95698733D01*
X89905057Y-95684416D01*
X89906509Y-95681800D01*
X90813466Y-95681800D01*
X90821933Y-95690267D01*
X90830400Y-95681800D01*
X90821933Y-95673333D01*
X90813466Y-95681800D01*
X89906509Y-95681800D01*
X89915908Y-95664867D01*
X90864266Y-95664867D01*
X90872733Y-95673333D01*
X90881200Y-95664867D01*
X90872733Y-95656400D01*
X90864266Y-95664867D01*
X89915908Y-95664867D01*
X89916199Y-95664343D01*
X89925563Y-95626597D01*
X89923588Y-95604179D01*
X89929720Y-95592121D01*
X89950452Y-95588666D01*
X89984988Y-95602832D01*
X89995760Y-95622533D01*
X90005090Y-95649874D01*
X90009913Y-95656400D01*
X90026443Y-95649678D01*
X90030341Y-95647933D01*
X90898133Y-95647933D01*
X90906600Y-95656400D01*
X90915066Y-95647933D01*
X90906600Y-95639467D01*
X90898133Y-95647933D01*
X90030341Y-95647933D01*
X90067121Y-95631472D01*
X90068150Y-95631000D01*
X90948933Y-95631000D01*
X90957400Y-95639467D01*
X90965866Y-95631000D01*
X90957400Y-95622533D01*
X90948933Y-95631000D01*
X90068150Y-95631000D01*
X90105079Y-95614066D01*
X90999733Y-95614066D01*
X91008200Y-95622533D01*
X91016666Y-95614066D01*
X91008200Y-95605600D01*
X90999733Y-95614066D01*
X90105079Y-95614066D01*
X90125454Y-95604723D01*
X90147852Y-95594311D01*
X91039244Y-95594311D01*
X91041569Y-95604378D01*
X91050533Y-95605600D01*
X91064471Y-95599404D01*
X91061822Y-95594311D01*
X91041726Y-95592284D01*
X91039244Y-95594311D01*
X90147852Y-95594311D01*
X90181505Y-95578667D01*
X90184321Y-95577378D01*
X91090044Y-95577378D01*
X91092369Y-95587444D01*
X91101333Y-95588666D01*
X91115271Y-95582471D01*
X91112622Y-95577378D01*
X91092526Y-95575351D01*
X91090044Y-95577378D01*
X90184321Y-95577378D01*
X90215158Y-95563266D01*
X91135200Y-95563266D01*
X91143666Y-95571733D01*
X91152133Y-95563266D01*
X91143666Y-95554800D01*
X91135200Y-95563266D01*
X90215158Y-95563266D01*
X90258326Y-95543511D01*
X91174711Y-95543511D01*
X91177035Y-95553578D01*
X91186000Y-95554800D01*
X91199938Y-95548604D01*
X91197289Y-95543511D01*
X91177193Y-95541484D01*
X91174711Y-95543511D01*
X90258326Y-95543511D01*
X90287389Y-95530211D01*
X90295645Y-95526578D01*
X91225511Y-95526578D01*
X91227835Y-95536644D01*
X91236800Y-95537866D01*
X91250738Y-95531671D01*
X91248089Y-95526578D01*
X91227993Y-95524551D01*
X91225511Y-95526578D01*
X90295645Y-95526578D01*
X90327716Y-95512466D01*
X91270667Y-95512466D01*
X91279133Y-95520933D01*
X91287600Y-95512466D01*
X91279133Y-95504000D01*
X91270667Y-95512466D01*
X90327716Y-95512466D01*
X90372612Y-95492711D01*
X91310178Y-95492711D01*
X91312502Y-95502778D01*
X91321467Y-95504000D01*
X91335405Y-95497804D01*
X91332755Y-95492711D01*
X91312659Y-95490684D01*
X91310178Y-95492711D01*
X90372612Y-95492711D01*
X90393224Y-95483642D01*
X90393438Y-95483551D01*
X91358713Y-95483551D01*
X91363800Y-95486548D01*
X91391628Y-95478117D01*
X91406133Y-95470133D01*
X91419687Y-95456716D01*
X91414600Y-95453718D01*
X91386772Y-95462150D01*
X91372267Y-95470133D01*
X91358713Y-95483551D01*
X90393438Y-95483551D01*
X90491816Y-95441911D01*
X91445644Y-95441911D01*
X91447969Y-95451978D01*
X91456933Y-95453200D01*
X91470871Y-95447004D01*
X91468222Y-95441911D01*
X91448126Y-95439884D01*
X91445644Y-95441911D01*
X90491816Y-95441911D01*
X90493855Y-95441048D01*
X90584128Y-95404519D01*
X90658889Y-95376142D01*
X90712984Y-95358006D01*
X90740480Y-95352163D01*
X90757825Y-95355550D01*
X90750804Y-95368584D01*
X90729737Y-95387180D01*
X90688341Y-95421633D01*
X90733971Y-95410181D01*
X90770059Y-95407040D01*
X90779600Y-95419445D01*
X90787571Y-95429886D01*
X90814662Y-95417248D01*
X90817700Y-95415288D01*
X90849478Y-95398546D01*
X90903997Y-95373727D01*
X90972340Y-95344790D01*
X91016666Y-95326941D01*
X91073599Y-95302653D01*
X91155057Y-95265358D01*
X91255536Y-95217707D01*
X91369532Y-95162348D01*
X91491540Y-95101932D01*
X91616055Y-95039108D01*
X91640356Y-95026702D01*
X91755432Y-94968304D01*
X91860715Y-94915781D01*
X91952473Y-94870922D01*
X92026976Y-94835517D01*
X92080492Y-94811357D01*
X92109289Y-94800230D01*
X92113148Y-94799904D01*
X92116721Y-94823767D01*
D12*
%TO.C,C1*%
X97030000Y-77815221D02*
X97030000Y-78140779D01*
X96010000Y-77815221D02*
X96010000Y-78140779D01*
%TO.C,C2*%
X95252000Y-78140779D02*
X95252000Y-77815221D01*
X94232000Y-78140779D02*
X94232000Y-77815221D01*
%TO.C,C3*%
X89156000Y-77815221D02*
X89156000Y-78140779D01*
X88136000Y-77815221D02*
X88136000Y-78140779D01*
%TO.C,C4*%
X102611422Y-65076000D02*
X103128578Y-65076000D01*
X102611422Y-66496000D02*
X103128578Y-66496000D01*
%TO.C,C5*%
X101945221Y-47750000D02*
X102270779Y-47750000D01*
X101945221Y-48770000D02*
X102270779Y-48770000D01*
%TO.C,C6*%
X95508578Y-65076000D02*
X94991422Y-65076000D01*
X95508578Y-66496000D02*
X94991422Y-66496000D01*
%TO.C,C7*%
X99151221Y-66296000D02*
X99476779Y-66296000D01*
X99151221Y-65276000D02*
X99476779Y-65276000D01*
%TO.C,C8*%
X85252779Y-90930000D02*
X84927221Y-90930000D01*
X85252779Y-91950000D02*
X84927221Y-91950000D01*
%TO.C,C9*%
X83474779Y-90426000D02*
X83149221Y-90426000D01*
X83474779Y-89406000D02*
X83149221Y-89406000D01*
%TO.C,C10*%
X94486000Y-92039221D02*
X94486000Y-92364779D01*
X95506000Y-92039221D02*
X95506000Y-92364779D01*
%TO.C,C11*%
X97881221Y-83564000D02*
X98206779Y-83564000D01*
X97881221Y-84584000D02*
X98206779Y-84584000D01*
%TO.C,C12*%
X96014000Y-81950779D02*
X96014000Y-81625221D01*
X94994000Y-81950779D02*
X94994000Y-81625221D01*
%TO.C,C13*%
X85506779Y-76833000D02*
X85181221Y-76833000D01*
X85506779Y-77853000D02*
X85181221Y-77853000D01*
%TO.C,C14*%
X85506779Y-80393000D02*
X85181221Y-80393000D01*
X85506779Y-79373000D02*
X85181221Y-79373000D01*
%TO.C,C15*%
X83220779Y-67816000D02*
X82895221Y-67816000D01*
X83220779Y-68836000D02*
X82895221Y-68836000D01*
%TO.C,C16*%
X85252779Y-93728000D02*
X84927221Y-93728000D01*
X85252779Y-92708000D02*
X84927221Y-92708000D01*
%TO.C,D1*%
X102072000Y-81264000D02*
X98172000Y-81264000D01*
X102072000Y-79264000D02*
X98172000Y-79264000D01*
X102072000Y-81264000D02*
X102072000Y-79264000D01*
%TO.C,D2*%
X102072000Y-78216000D02*
X102072000Y-76216000D01*
X102072000Y-76216000D02*
X98172000Y-76216000D01*
X102072000Y-78216000D02*
X98172000Y-78216000D01*
%TO.C,D3*%
X70396000Y-50623000D02*
X67911000Y-50623000D01*
X67911000Y-50623000D02*
X67911000Y-51993000D01*
X67911000Y-51993000D02*
X70396000Y-51993000D01*
%TO.C,D4*%
X67911000Y-54533000D02*
X70396000Y-54533000D01*
X67911000Y-53163000D02*
X67911000Y-54533000D01*
X70396000Y-53163000D02*
X67911000Y-53163000D01*
%TO.C,D5*%
X70396000Y-55703000D02*
X67911000Y-55703000D01*
X67911000Y-55703000D02*
X67911000Y-57073000D01*
X67911000Y-57073000D02*
X70396000Y-57073000D01*
%TO.C,D6*%
X67911000Y-59613000D02*
X70396000Y-59613000D01*
X67911000Y-58243000D02*
X67911000Y-59613000D01*
X70396000Y-58243000D02*
X67911000Y-58243000D01*
%TO.C,D7*%
X102326000Y-63484000D02*
X98426000Y-63484000D01*
X102326000Y-61484000D02*
X98426000Y-61484000D01*
X102326000Y-63484000D02*
X102326000Y-61484000D01*
%TO.C,FB1*%
X85475578Y-74601000D02*
X84958422Y-74601000D01*
X85475578Y-76021000D02*
X84958422Y-76021000D01*
%TO.C,J2*%
X99316000Y-53400000D02*
X99316000Y-50550000D01*
X96466000Y-53400000D02*
X99316000Y-53400000D01*
X88156000Y-41940000D02*
X89966000Y-41940000D01*
X88156000Y-43340000D02*
X88156000Y-41940000D01*
X80856000Y-43340000D02*
X88156000Y-43340000D01*
X80856000Y-53160000D02*
X80856000Y-43340000D01*
X89966000Y-53160000D02*
X80856000Y-53160000D01*
X91776000Y-41940000D02*
X89966000Y-41940000D01*
X91776000Y-43340000D02*
X91776000Y-41940000D01*
X99076000Y-43340000D02*
X91776000Y-43340000D01*
X99076000Y-53160000D02*
X99076000Y-43340000D01*
X89966000Y-53160000D02*
X99076000Y-53160000D01*
%TO.C,J3*%
X77070000Y-96020000D02*
X76070000Y-96520000D01*
X77070000Y-97020000D02*
X77070000Y-96020000D01*
X76070000Y-96520000D02*
X77070000Y-97020000D01*
X74370000Y-79230000D02*
X75680000Y-79230000D01*
X74370000Y-79230000D02*
X74370000Y-79230000D01*
X74370000Y-62130000D02*
X74370000Y-79230000D01*
X67870000Y-62130000D02*
X74370000Y-62130000D01*
X67870000Y-100430000D02*
X67870000Y-62130000D01*
X74370000Y-100430000D02*
X67870000Y-100430000D01*
X74370000Y-83330000D02*
X74370000Y-100430000D01*
X75680000Y-83330000D02*
X74370000Y-83330000D01*
X75680000Y-60830000D02*
X75680000Y-101730000D01*
X66560000Y-60830000D02*
X75680000Y-60830000D01*
X66560000Y-101730000D02*
X66560000Y-60830000D01*
X75680000Y-101730000D02*
X66560000Y-101730000D01*
%TO.C,J5*%
X108906000Y-57598000D02*
X110236000Y-57598000D01*
X108906000Y-58928000D02*
X108906000Y-57598000D01*
X108906000Y-60198000D02*
X111566000Y-60198000D01*
X111566000Y-60198000D02*
X111566000Y-67878000D01*
X108906000Y-60198000D02*
X108906000Y-67878000D01*
X108906000Y-67878000D02*
X111566000Y-67878000D01*
%TO.C,R1*%
X91696000Y-104231221D02*
X91696000Y-104556779D01*
X90676000Y-104231221D02*
X90676000Y-104556779D01*
%TO.C,R2*%
X109636779Y-91438000D02*
X109311221Y-91438000D01*
X109636779Y-92458000D02*
X109311221Y-92458000D01*
%TO.C,R3*%
X79758000Y-61305221D02*
X79758000Y-61630779D01*
X78738000Y-61305221D02*
X78738000Y-61630779D01*
%TO.C,R4*%
X82799422Y-58622000D02*
X83316578Y-58622000D01*
X82799422Y-57202000D02*
X83316578Y-57202000D01*
%TO.C,R5*%
X73243221Y-50798000D02*
X73568779Y-50798000D01*
X73243221Y-51818000D02*
X73568779Y-51818000D01*
%TO.C,R6*%
X73243221Y-54358000D02*
X73568779Y-54358000D01*
X73243221Y-53338000D02*
X73568779Y-53338000D01*
%TO.C,R7*%
X102999000Y-94523779D02*
X102999000Y-94198221D01*
X101979000Y-94523779D02*
X101979000Y-94198221D01*
%TO.C,R8*%
X73243221Y-56898000D02*
X73568779Y-56898000D01*
X73243221Y-55878000D02*
X73568779Y-55878000D01*
%TO.C,R9*%
X89149422Y-68632000D02*
X89666578Y-68632000D01*
X89149422Y-70052000D02*
X89666578Y-70052000D01*
%TO.C,R10*%
X73243221Y-58418000D02*
X73568779Y-58418000D01*
X73243221Y-59438000D02*
X73568779Y-59438000D01*
%TO.C,SW1*%
X100512000Y-102688000D02*
X100512000Y-102718000D01*
X100512000Y-109148000D02*
X100512000Y-109118000D01*
X94052000Y-109148000D02*
X94052000Y-109118000D01*
X94052000Y-102718000D02*
X94052000Y-102688000D01*
X100512000Y-104618000D02*
X100512000Y-107218000D01*
X94052000Y-102688000D02*
X100512000Y-102688000D01*
X94052000Y-104618000D02*
X94052000Y-107218000D01*
X94052000Y-109148000D02*
X100512000Y-109148000D01*
%TO.C,SW2*%
X79066000Y-109148000D02*
X85526000Y-109148000D01*
X79066000Y-104618000D02*
X79066000Y-107218000D01*
X79066000Y-102688000D02*
X85526000Y-102688000D01*
X85526000Y-104618000D02*
X85526000Y-107218000D01*
X79066000Y-102718000D02*
X79066000Y-102688000D01*
X79066000Y-109148000D02*
X79066000Y-109118000D01*
X85526000Y-109148000D02*
X85526000Y-109118000D01*
X85526000Y-102688000D02*
X85526000Y-102718000D01*
%TO.C,U2*%
X80498000Y-62992000D02*
X80498000Y-66442000D01*
X80498000Y-62992000D02*
X80498000Y-61042000D01*
X85618000Y-62992000D02*
X85618000Y-64942000D01*
X85618000Y-62992000D02*
X85618000Y-61042000D01*
%TO.C,U3*%
X79317000Y-95071000D02*
X77642000Y-95071000D01*
X79317000Y-94811000D02*
X79317000Y-95071000D01*
X82042000Y-94811000D02*
X79317000Y-94811000D01*
X84767000Y-94811000D02*
X84767000Y-95071000D01*
X82042000Y-94811000D02*
X84767000Y-94811000D01*
X79317000Y-100261000D02*
X79317000Y-100001000D01*
X82042000Y-100261000D02*
X79317000Y-100261000D01*
X84767000Y-100261000D02*
X84767000Y-100001000D01*
X82042000Y-100261000D02*
X84767000Y-100261000D01*
%TO.C,U4*%
X93584000Y-83258000D02*
X93584000Y-81968000D01*
X94034000Y-83258000D02*
X93584000Y-83258000D01*
X94034000Y-83708000D02*
X94034000Y-83258000D01*
X94034000Y-90478000D02*
X93584000Y-90478000D01*
X94034000Y-90028000D02*
X94034000Y-90478000D01*
X86814000Y-83258000D02*
X87264000Y-83258000D01*
X86814000Y-83708000D02*
X86814000Y-83258000D01*
X86814000Y-90478000D02*
X87264000Y-90478000D01*
X86814000Y-90028000D02*
X86814000Y-90478000D01*
%TO.C,U5*%
X87062000Y-60034000D02*
X87062000Y-61484000D01*
X92262000Y-60034000D02*
X87062000Y-60034000D01*
X92262000Y-64934000D02*
X92262000Y-60034000D01*
X87062000Y-64934000D02*
X92262000Y-64934000D01*
X87062000Y-63484000D02*
X87062000Y-64934000D01*
X87062000Y-61484000D02*
G75*
G02*
X87062000Y-63484000I0J-1000000D01*
G01*
%TO.C,U6*%
X103414000Y-74530000D02*
X97404000Y-74530000D01*
X101164000Y-67710000D02*
X97404000Y-67710000D01*
X97404000Y-74530000D02*
X97404000Y-73270000D01*
X97404000Y-67710000D02*
X97404000Y-68970000D01*
%TO.C,U7*%
X103194000Y-56520000D02*
X102094000Y-56520000D01*
X103194000Y-56790000D02*
X103194000Y-56520000D01*
X104694000Y-56790000D02*
X103194000Y-56790000D01*
X103194000Y-50160000D02*
X100364000Y-50160000D01*
X103194000Y-49890000D02*
X103194000Y-50160000D01*
X104694000Y-49890000D02*
X103194000Y-49890000D01*
%TO.C,Y1*%
X93694000Y-76328000D02*
X89694000Y-76328000D01*
X93694000Y-79628000D02*
X93694000Y-76328000D01*
%TO.C,J4*%
D14*
X106092666Y-90892380D02*
X106092666Y-91606666D01*
X106045047Y-91749523D01*
X105949809Y-91844761D01*
X105806952Y-91892380D01*
X105711714Y-91892380D01*
X106997428Y-91225714D02*
X106997428Y-91892380D01*
X106759333Y-90844761D02*
X106521238Y-91559047D01*
X107140285Y-91559047D01*
%TO.C,U1*%
X101600095Y-94702380D02*
X101600095Y-95511904D01*
X101647714Y-95607142D01*
X101695333Y-95654761D01*
X101790571Y-95702380D01*
X101981047Y-95702380D01*
X102076285Y-95654761D01*
X102123904Y-95607142D01*
X102171523Y-95511904D01*
X102171523Y-94702380D01*
X103171523Y-95702380D02*
X102600095Y-95702380D01*
X102885809Y-95702380D02*
X102885809Y-94702380D01*
X102790571Y-94845238D01*
X102695333Y-94940476D01*
X102600095Y-94988095D01*
%TO.C,J6*%
X110664666Y-68794380D02*
X110664666Y-69508666D01*
X110617047Y-69651523D01*
X110521809Y-69746761D01*
X110378952Y-69794380D01*
X110283714Y-69794380D01*
X111569428Y-68794380D02*
X111378952Y-68794380D01*
X111283714Y-68842000D01*
X111236095Y-68889619D01*
X111140857Y-69032476D01*
X111093238Y-69222952D01*
X111093238Y-69603904D01*
X111140857Y-69699142D01*
X111188476Y-69746761D01*
X111283714Y-69794380D01*
X111474190Y-69794380D01*
X111569428Y-69746761D01*
X111617047Y-69699142D01*
X111664666Y-69603904D01*
X111664666Y-69365809D01*
X111617047Y-69270571D01*
X111569428Y-69222952D01*
X111474190Y-69175333D01*
X111283714Y-69175333D01*
X111188476Y-69222952D01*
X111140857Y-69270571D01*
X111093238Y-69365809D01*
%TO.C,J1*%
X106076380Y-97615333D02*
X106790666Y-97615333D01*
X106933523Y-97662952D01*
X107028761Y-97758190D01*
X107076380Y-97901047D01*
X107076380Y-97996285D01*
X107076380Y-96615333D02*
X107076380Y-97186761D01*
X107076380Y-96901047D02*
X106076380Y-96901047D01*
X106219238Y-96996285D01*
X106314476Y-97091523D01*
X106362095Y-97186761D01*
%TO.C,C1*%
X96877142Y-75604666D02*
X96924761Y-75652285D01*
X96972380Y-75795142D01*
X96972380Y-75890380D01*
X96924761Y-76033238D01*
X96829523Y-76128476D01*
X96734285Y-76176095D01*
X96543809Y-76223714D01*
X96400952Y-76223714D01*
X96210476Y-76176095D01*
X96115238Y-76128476D01*
X96020000Y-76033238D01*
X95972380Y-75890380D01*
X95972380Y-75795142D01*
X96020000Y-75652285D01*
X96067619Y-75604666D01*
X96972380Y-74652285D02*
X96972380Y-75223714D01*
X96972380Y-74938000D02*
X95972380Y-74938000D01*
X96115238Y-75033238D01*
X96210476Y-75128476D01*
X96258095Y-75223714D01*
%TO.C,C2*%
X95099142Y-75604666D02*
X95146761Y-75652285D01*
X95194380Y-75795142D01*
X95194380Y-75890380D01*
X95146761Y-76033238D01*
X95051523Y-76128476D01*
X94956285Y-76176095D01*
X94765809Y-76223714D01*
X94622952Y-76223714D01*
X94432476Y-76176095D01*
X94337238Y-76128476D01*
X94242000Y-76033238D01*
X94194380Y-75890380D01*
X94194380Y-75795142D01*
X94242000Y-75652285D01*
X94289619Y-75604666D01*
X94289619Y-75223714D02*
X94242000Y-75176095D01*
X94194380Y-75080857D01*
X94194380Y-74842761D01*
X94242000Y-74747523D01*
X94289619Y-74699904D01*
X94384857Y-74652285D01*
X94480095Y-74652285D01*
X94622952Y-74699904D01*
X95194380Y-75271333D01*
X95194380Y-74652285D01*
%TO.C,C3*%
X89003142Y-75477666D02*
X89050761Y-75525285D01*
X89098380Y-75668142D01*
X89098380Y-75763380D01*
X89050761Y-75906238D01*
X88955523Y-76001476D01*
X88860285Y-76049095D01*
X88669809Y-76096714D01*
X88526952Y-76096714D01*
X88336476Y-76049095D01*
X88241238Y-76001476D01*
X88146000Y-75906238D01*
X88098380Y-75763380D01*
X88098380Y-75668142D01*
X88146000Y-75525285D01*
X88193619Y-75477666D01*
X88098380Y-75144333D02*
X88098380Y-74525285D01*
X88479333Y-74858619D01*
X88479333Y-74715761D01*
X88526952Y-74620523D01*
X88574571Y-74572904D01*
X88669809Y-74525285D01*
X88907904Y-74525285D01*
X89003142Y-74572904D01*
X89050761Y-74620523D01*
X89098380Y-74715761D01*
X89098380Y-75001476D01*
X89050761Y-75096714D01*
X89003142Y-75144333D01*
%TO.C,C4*%
X102703333Y-64493142D02*
X102655714Y-64540761D01*
X102512857Y-64588380D01*
X102417619Y-64588380D01*
X102274761Y-64540761D01*
X102179523Y-64445523D01*
X102131904Y-64350285D01*
X102084285Y-64159809D01*
X102084285Y-64016952D01*
X102131904Y-63826476D01*
X102179523Y-63731238D01*
X102274761Y-63636000D01*
X102417619Y-63588380D01*
X102512857Y-63588380D01*
X102655714Y-63636000D01*
X102703333Y-63683619D01*
X103560476Y-63921714D02*
X103560476Y-64588380D01*
X103322380Y-63540761D02*
X103084285Y-64255047D01*
X103703333Y-64255047D01*
%TO.C,C5*%
X101941333Y-47093142D02*
X101893714Y-47140761D01*
X101750857Y-47188380D01*
X101655619Y-47188380D01*
X101512761Y-47140761D01*
X101417523Y-47045523D01*
X101369904Y-46950285D01*
X101322285Y-46759809D01*
X101322285Y-46616952D01*
X101369904Y-46426476D01*
X101417523Y-46331238D01*
X101512761Y-46236000D01*
X101655619Y-46188380D01*
X101750857Y-46188380D01*
X101893714Y-46236000D01*
X101941333Y-46283619D01*
X102846095Y-46188380D02*
X102369904Y-46188380D01*
X102322285Y-46664571D01*
X102369904Y-46616952D01*
X102465142Y-46569333D01*
X102703238Y-46569333D01*
X102798476Y-46616952D01*
X102846095Y-46664571D01*
X102893714Y-46759809D01*
X102893714Y-46997904D01*
X102846095Y-47093142D01*
X102798476Y-47140761D01*
X102703238Y-47188380D01*
X102465142Y-47188380D01*
X102369904Y-47140761D01*
X102322285Y-47093142D01*
%TO.C,C6*%
X95083333Y-67793142D02*
X95035714Y-67840761D01*
X94892857Y-67888380D01*
X94797619Y-67888380D01*
X94654761Y-67840761D01*
X94559523Y-67745523D01*
X94511904Y-67650285D01*
X94464285Y-67459809D01*
X94464285Y-67316952D01*
X94511904Y-67126476D01*
X94559523Y-67031238D01*
X94654761Y-66936000D01*
X94797619Y-66888380D01*
X94892857Y-66888380D01*
X95035714Y-66936000D01*
X95083333Y-66983619D01*
X95940476Y-66888380D02*
X95750000Y-66888380D01*
X95654761Y-66936000D01*
X95607142Y-66983619D01*
X95511904Y-67126476D01*
X95464285Y-67316952D01*
X95464285Y-67697904D01*
X95511904Y-67793142D01*
X95559523Y-67840761D01*
X95654761Y-67888380D01*
X95845238Y-67888380D01*
X95940476Y-67840761D01*
X95988095Y-67793142D01*
X96035714Y-67697904D01*
X96035714Y-67459809D01*
X95988095Y-67364571D01*
X95940476Y-67316952D01*
X95845238Y-67269333D01*
X95654761Y-67269333D01*
X95559523Y-67316952D01*
X95511904Y-67364571D01*
X95464285Y-67459809D01*
%TO.C,C7*%
X99147333Y-64713142D02*
X99099714Y-64760761D01*
X98956857Y-64808380D01*
X98861619Y-64808380D01*
X98718761Y-64760761D01*
X98623523Y-64665523D01*
X98575904Y-64570285D01*
X98528285Y-64379809D01*
X98528285Y-64236952D01*
X98575904Y-64046476D01*
X98623523Y-63951238D01*
X98718761Y-63856000D01*
X98861619Y-63808380D01*
X98956857Y-63808380D01*
X99099714Y-63856000D01*
X99147333Y-63903619D01*
X99480666Y-63808380D02*
X100147333Y-63808380D01*
X99718761Y-64808380D01*
%TO.C,C8*%
X82383333Y-92051142D02*
X82335714Y-92098761D01*
X82192857Y-92146380D01*
X82097619Y-92146380D01*
X81954761Y-92098761D01*
X81859523Y-92003523D01*
X81811904Y-91908285D01*
X81764285Y-91717809D01*
X81764285Y-91574952D01*
X81811904Y-91384476D01*
X81859523Y-91289238D01*
X81954761Y-91194000D01*
X82097619Y-91146380D01*
X82192857Y-91146380D01*
X82335714Y-91194000D01*
X82383333Y-91241619D01*
X82954761Y-91574952D02*
X82859523Y-91527333D01*
X82811904Y-91479714D01*
X82764285Y-91384476D01*
X82764285Y-91336857D01*
X82811904Y-91241619D01*
X82859523Y-91194000D01*
X82954761Y-91146380D01*
X83145238Y-91146380D01*
X83240476Y-91194000D01*
X83288095Y-91241619D01*
X83335714Y-91336857D01*
X83335714Y-91384476D01*
X83288095Y-91479714D01*
X83240476Y-91527333D01*
X83145238Y-91574952D01*
X82954761Y-91574952D01*
X82859523Y-91622571D01*
X82811904Y-91670190D01*
X82764285Y-91765428D01*
X82764285Y-91955904D01*
X82811904Y-92051142D01*
X82859523Y-92098761D01*
X82954761Y-92146380D01*
X83145238Y-92146380D01*
X83240476Y-92098761D01*
X83288095Y-92051142D01*
X83335714Y-91955904D01*
X83335714Y-91765428D01*
X83288095Y-91670190D01*
X83240476Y-91622571D01*
X83145238Y-91574952D01*
%TO.C,C9*%
X80605333Y-90273142D02*
X80557714Y-90320761D01*
X80414857Y-90368380D01*
X80319619Y-90368380D01*
X80176761Y-90320761D01*
X80081523Y-90225523D01*
X80033904Y-90130285D01*
X79986285Y-89939809D01*
X79986285Y-89796952D01*
X80033904Y-89606476D01*
X80081523Y-89511238D01*
X80176761Y-89416000D01*
X80319619Y-89368380D01*
X80414857Y-89368380D01*
X80557714Y-89416000D01*
X80605333Y-89463619D01*
X81081523Y-90368380D02*
X81272000Y-90368380D01*
X81367238Y-90320761D01*
X81414857Y-90273142D01*
X81510095Y-90130285D01*
X81557714Y-89939809D01*
X81557714Y-89558857D01*
X81510095Y-89463619D01*
X81462476Y-89416000D01*
X81367238Y-89368380D01*
X81176761Y-89368380D01*
X81081523Y-89416000D01*
X81033904Y-89463619D01*
X80986285Y-89558857D01*
X80986285Y-89796952D01*
X81033904Y-89892190D01*
X81081523Y-89939809D01*
X81176761Y-89987428D01*
X81367238Y-89987428D01*
X81462476Y-89939809D01*
X81510095Y-89892190D01*
X81557714Y-89796952D01*
%TO.C,C10*%
X96783142Y-92844857D02*
X96830761Y-92892476D01*
X96878380Y-93035333D01*
X96878380Y-93130571D01*
X96830761Y-93273428D01*
X96735523Y-93368666D01*
X96640285Y-93416285D01*
X96449809Y-93463904D01*
X96306952Y-93463904D01*
X96116476Y-93416285D01*
X96021238Y-93368666D01*
X95926000Y-93273428D01*
X95878380Y-93130571D01*
X95878380Y-93035333D01*
X95926000Y-92892476D01*
X95973619Y-92844857D01*
X96878380Y-91892476D02*
X96878380Y-92463904D01*
X96878380Y-92178190D02*
X95878380Y-92178190D01*
X96021238Y-92273428D01*
X96116476Y-92368666D01*
X96164095Y-92463904D01*
X95878380Y-91273428D02*
X95878380Y-91178190D01*
X95926000Y-91082952D01*
X95973619Y-91035333D01*
X96068857Y-90987714D01*
X96259333Y-90940095D01*
X96497428Y-90940095D01*
X96687904Y-90987714D01*
X96783142Y-91035333D01*
X96830761Y-91082952D01*
X96878380Y-91178190D01*
X96878380Y-91273428D01*
X96830761Y-91368666D01*
X96783142Y-91416285D01*
X96687904Y-91463904D01*
X96497428Y-91511523D01*
X96259333Y-91511523D01*
X96068857Y-91463904D01*
X95973619Y-91416285D01*
X95926000Y-91368666D01*
X95878380Y-91273428D01*
%TO.C,C11*%
X97401142Y-85955142D02*
X97353523Y-86002761D01*
X97210666Y-86050380D01*
X97115428Y-86050380D01*
X96972571Y-86002761D01*
X96877333Y-85907523D01*
X96829714Y-85812285D01*
X96782095Y-85621809D01*
X96782095Y-85478952D01*
X96829714Y-85288476D01*
X96877333Y-85193238D01*
X96972571Y-85098000D01*
X97115428Y-85050380D01*
X97210666Y-85050380D01*
X97353523Y-85098000D01*
X97401142Y-85145619D01*
X98353523Y-86050380D02*
X97782095Y-86050380D01*
X98067809Y-86050380D02*
X98067809Y-85050380D01*
X97972571Y-85193238D01*
X97877333Y-85288476D01*
X97782095Y-85336095D01*
X99305904Y-86050380D02*
X98734476Y-86050380D01*
X99020190Y-86050380D02*
X99020190Y-85050380D01*
X98924952Y-85193238D01*
X98829714Y-85288476D01*
X98734476Y-85336095D01*
%TO.C,C12*%
X92575142Y-81256142D02*
X92527523Y-81303761D01*
X92384666Y-81351380D01*
X92289428Y-81351380D01*
X92146571Y-81303761D01*
X92051333Y-81208523D01*
X92003714Y-81113285D01*
X91956095Y-80922809D01*
X91956095Y-80779952D01*
X92003714Y-80589476D01*
X92051333Y-80494238D01*
X92146571Y-80399000D01*
X92289428Y-80351380D01*
X92384666Y-80351380D01*
X92527523Y-80399000D01*
X92575142Y-80446619D01*
X93527523Y-81351380D02*
X92956095Y-81351380D01*
X93241809Y-81351380D02*
X93241809Y-80351380D01*
X93146571Y-80494238D01*
X93051333Y-80589476D01*
X92956095Y-80637095D01*
X93908476Y-80446619D02*
X93956095Y-80399000D01*
X94051333Y-80351380D01*
X94289428Y-80351380D01*
X94384666Y-80399000D01*
X94432285Y-80446619D01*
X94479904Y-80541857D01*
X94479904Y-80637095D01*
X94432285Y-80779952D01*
X93860857Y-81351380D01*
X94479904Y-81351380D01*
%TO.C,C13*%
X81653142Y-77700142D02*
X81605523Y-77747761D01*
X81462666Y-77795380D01*
X81367428Y-77795380D01*
X81224571Y-77747761D01*
X81129333Y-77652523D01*
X81081714Y-77557285D01*
X81034095Y-77366809D01*
X81034095Y-77223952D01*
X81081714Y-77033476D01*
X81129333Y-76938238D01*
X81224571Y-76843000D01*
X81367428Y-76795380D01*
X81462666Y-76795380D01*
X81605523Y-76843000D01*
X81653142Y-76890619D01*
X82605523Y-77795380D02*
X82034095Y-77795380D01*
X82319809Y-77795380D02*
X82319809Y-76795380D01*
X82224571Y-76938238D01*
X82129333Y-77033476D01*
X82034095Y-77081095D01*
X82938857Y-76795380D02*
X83557904Y-76795380D01*
X83224571Y-77176333D01*
X83367428Y-77176333D01*
X83462666Y-77223952D01*
X83510285Y-77271571D01*
X83557904Y-77366809D01*
X83557904Y-77604904D01*
X83510285Y-77700142D01*
X83462666Y-77747761D01*
X83367428Y-77795380D01*
X83081714Y-77795380D01*
X82986476Y-77747761D01*
X82938857Y-77700142D01*
%TO.C,C14*%
X81653142Y-80240142D02*
X81605523Y-80287761D01*
X81462666Y-80335380D01*
X81367428Y-80335380D01*
X81224571Y-80287761D01*
X81129333Y-80192523D01*
X81081714Y-80097285D01*
X81034095Y-79906809D01*
X81034095Y-79763952D01*
X81081714Y-79573476D01*
X81129333Y-79478238D01*
X81224571Y-79383000D01*
X81367428Y-79335380D01*
X81462666Y-79335380D01*
X81605523Y-79383000D01*
X81653142Y-79430619D01*
X82605523Y-80335380D02*
X82034095Y-80335380D01*
X82319809Y-80335380D02*
X82319809Y-79335380D01*
X82224571Y-79478238D01*
X82129333Y-79573476D01*
X82034095Y-79621095D01*
X83462666Y-79668714D02*
X83462666Y-80335380D01*
X83224571Y-79287761D02*
X82986476Y-80002047D01*
X83605523Y-80002047D01*
%TO.C,C15*%
X82415142Y-70113142D02*
X82367523Y-70160761D01*
X82224666Y-70208380D01*
X82129428Y-70208380D01*
X81986571Y-70160761D01*
X81891333Y-70065523D01*
X81843714Y-69970285D01*
X81796095Y-69779809D01*
X81796095Y-69636952D01*
X81843714Y-69446476D01*
X81891333Y-69351238D01*
X81986571Y-69256000D01*
X82129428Y-69208380D01*
X82224666Y-69208380D01*
X82367523Y-69256000D01*
X82415142Y-69303619D01*
X83367523Y-70208380D02*
X82796095Y-70208380D01*
X83081809Y-70208380D02*
X83081809Y-69208380D01*
X82986571Y-69351238D01*
X82891333Y-69446476D01*
X82796095Y-69494095D01*
X84272285Y-69208380D02*
X83796095Y-69208380D01*
X83748476Y-69684571D01*
X83796095Y-69636952D01*
X83891333Y-69589333D01*
X84129428Y-69589333D01*
X84224666Y-69636952D01*
X84272285Y-69684571D01*
X84319904Y-69779809D01*
X84319904Y-70017904D01*
X84272285Y-70113142D01*
X84224666Y-70160761D01*
X84129428Y-70208380D01*
X83891333Y-70208380D01*
X83796095Y-70160761D01*
X83748476Y-70113142D01*
%TO.C,C16*%
X87495142Y-93829142D02*
X87447523Y-93876761D01*
X87304666Y-93924380D01*
X87209428Y-93924380D01*
X87066571Y-93876761D01*
X86971333Y-93781523D01*
X86923714Y-93686285D01*
X86876095Y-93495809D01*
X86876095Y-93352952D01*
X86923714Y-93162476D01*
X86971333Y-93067238D01*
X87066571Y-92972000D01*
X87209428Y-92924380D01*
X87304666Y-92924380D01*
X87447523Y-92972000D01*
X87495142Y-93019619D01*
X88447523Y-93924380D02*
X87876095Y-93924380D01*
X88161809Y-93924380D02*
X88161809Y-92924380D01*
X88066571Y-93067238D01*
X87971333Y-93162476D01*
X87876095Y-93210095D01*
X89304666Y-92924380D02*
X89114190Y-92924380D01*
X89018952Y-92972000D01*
X88971333Y-93019619D01*
X88876095Y-93162476D01*
X88828476Y-93352952D01*
X88828476Y-93733904D01*
X88876095Y-93829142D01*
X88923714Y-93876761D01*
X89018952Y-93924380D01*
X89209428Y-93924380D01*
X89304666Y-93876761D01*
X89352285Y-93829142D01*
X89399904Y-93733904D01*
X89399904Y-93495809D01*
X89352285Y-93400571D01*
X89304666Y-93352952D01*
X89209428Y-93305333D01*
X89018952Y-93305333D01*
X88923714Y-93352952D01*
X88876095Y-93400571D01*
X88828476Y-93495809D01*
%TO.C,D1*%
X103449380Y-80875095D02*
X102449380Y-80875095D01*
X102449380Y-80637000D01*
X102497000Y-80494142D01*
X102592238Y-80398904D01*
X102687476Y-80351285D01*
X102877952Y-80303666D01*
X103020809Y-80303666D01*
X103211285Y-80351285D01*
X103306523Y-80398904D01*
X103401761Y-80494142D01*
X103449380Y-80637000D01*
X103449380Y-80875095D01*
X103449380Y-79351285D02*
X103449380Y-79922714D01*
X103449380Y-79637000D02*
X102449380Y-79637000D01*
X102592238Y-79732238D01*
X102687476Y-79827476D01*
X102735095Y-79922714D01*
%TO.C,D2*%
X103449380Y-77954095D02*
X102449380Y-77954095D01*
X102449380Y-77716000D01*
X102497000Y-77573142D01*
X102592238Y-77477904D01*
X102687476Y-77430285D01*
X102877952Y-77382666D01*
X103020809Y-77382666D01*
X103211285Y-77430285D01*
X103306523Y-77477904D01*
X103401761Y-77573142D01*
X103449380Y-77716000D01*
X103449380Y-77954095D01*
X102544619Y-77001714D02*
X102497000Y-76954095D01*
X102449380Y-76858857D01*
X102449380Y-76620761D01*
X102497000Y-76525523D01*
X102544619Y-76477904D01*
X102639857Y-76430285D01*
X102735095Y-76430285D01*
X102877952Y-76477904D01*
X103449380Y-77049333D01*
X103449380Y-76430285D01*
%TO.C,D3*%
X68857904Y-50380380D02*
X68857904Y-49380380D01*
X69096000Y-49380380D01*
X69238857Y-49428000D01*
X69334095Y-49523238D01*
X69381714Y-49618476D01*
X69429333Y-49808952D01*
X69429333Y-49951809D01*
X69381714Y-50142285D01*
X69334095Y-50237523D01*
X69238857Y-50332761D01*
X69096000Y-50380380D01*
X68857904Y-50380380D01*
X69762666Y-49380380D02*
X70381714Y-49380380D01*
X70048380Y-49761333D01*
X70191238Y-49761333D01*
X70286476Y-49808952D01*
X70334095Y-49856571D01*
X70381714Y-49951809D01*
X70381714Y-50189904D01*
X70334095Y-50285142D01*
X70286476Y-50332761D01*
X70191238Y-50380380D01*
X69905523Y-50380380D01*
X69810285Y-50332761D01*
X69762666Y-50285142D01*
%TO.C,D4*%
X68857904Y-52920380D02*
X68857904Y-51920380D01*
X69096000Y-51920380D01*
X69238857Y-51968000D01*
X69334095Y-52063238D01*
X69381714Y-52158476D01*
X69429333Y-52348952D01*
X69429333Y-52491809D01*
X69381714Y-52682285D01*
X69334095Y-52777523D01*
X69238857Y-52872761D01*
X69096000Y-52920380D01*
X68857904Y-52920380D01*
X70286476Y-52253714D02*
X70286476Y-52920380D01*
X70048380Y-51872761D02*
X69810285Y-52587047D01*
X70429333Y-52587047D01*
%TO.C,D5*%
X68857904Y-55460380D02*
X68857904Y-54460380D01*
X69096000Y-54460380D01*
X69238857Y-54508000D01*
X69334095Y-54603238D01*
X69381714Y-54698476D01*
X69429333Y-54888952D01*
X69429333Y-55031809D01*
X69381714Y-55222285D01*
X69334095Y-55317523D01*
X69238857Y-55412761D01*
X69096000Y-55460380D01*
X68857904Y-55460380D01*
X70334095Y-54460380D02*
X69857904Y-54460380D01*
X69810285Y-54936571D01*
X69857904Y-54888952D01*
X69953142Y-54841333D01*
X70191238Y-54841333D01*
X70286476Y-54888952D01*
X70334095Y-54936571D01*
X70381714Y-55031809D01*
X70381714Y-55269904D01*
X70334095Y-55365142D01*
X70286476Y-55412761D01*
X70191238Y-55460380D01*
X69953142Y-55460380D01*
X69857904Y-55412761D01*
X69810285Y-55365142D01*
%TO.C,D6*%
X68857904Y-58000380D02*
X68857904Y-57000380D01*
X69096000Y-57000380D01*
X69238857Y-57048000D01*
X69334095Y-57143238D01*
X69381714Y-57238476D01*
X69429333Y-57428952D01*
X69429333Y-57571809D01*
X69381714Y-57762285D01*
X69334095Y-57857523D01*
X69238857Y-57952761D01*
X69096000Y-58000380D01*
X68857904Y-58000380D01*
X70286476Y-57000380D02*
X70096000Y-57000380D01*
X70000761Y-57048000D01*
X69953142Y-57095619D01*
X69857904Y-57238476D01*
X69810285Y-57428952D01*
X69810285Y-57809904D01*
X69857904Y-57905142D01*
X69905523Y-57952761D01*
X70000761Y-58000380D01*
X70191238Y-58000380D01*
X70286476Y-57952761D01*
X70334095Y-57905142D01*
X70381714Y-57809904D01*
X70381714Y-57571809D01*
X70334095Y-57476571D01*
X70286476Y-57428952D01*
X70191238Y-57381333D01*
X70000761Y-57381333D01*
X69905523Y-57428952D01*
X69857904Y-57476571D01*
X69810285Y-57571809D01*
%TO.C,D7*%
X97813904Y-61158380D02*
X97813904Y-60158380D01*
X98052000Y-60158380D01*
X98194857Y-60206000D01*
X98290095Y-60301238D01*
X98337714Y-60396476D01*
X98385333Y-60586952D01*
X98385333Y-60729809D01*
X98337714Y-60920285D01*
X98290095Y-61015523D01*
X98194857Y-61110761D01*
X98052000Y-61158380D01*
X97813904Y-61158380D01*
X98718666Y-60158380D02*
X99385333Y-60158380D01*
X98956761Y-61158380D01*
%TO.C,FB1*%
X81335666Y-75493571D02*
X81002333Y-75493571D01*
X81002333Y-76017380D02*
X81002333Y-75017380D01*
X81478523Y-75017380D01*
X82192809Y-75493571D02*
X82335666Y-75541190D01*
X82383285Y-75588809D01*
X82430904Y-75684047D01*
X82430904Y-75826904D01*
X82383285Y-75922142D01*
X82335666Y-75969761D01*
X82240428Y-76017380D01*
X81859476Y-76017380D01*
X81859476Y-75017380D01*
X82192809Y-75017380D01*
X82288047Y-75065000D01*
X82335666Y-75112619D01*
X82383285Y-75207857D01*
X82383285Y-75303095D01*
X82335666Y-75398333D01*
X82288047Y-75445952D01*
X82192809Y-75493571D01*
X81859476Y-75493571D01*
X83383285Y-76017380D02*
X82811857Y-76017380D01*
X83097571Y-76017380D02*
X83097571Y-75017380D01*
X83002333Y-75160238D01*
X82907095Y-75255476D01*
X82811857Y-75303095D01*
%TO.C,J2*%
X99996666Y-43394380D02*
X99996666Y-44108666D01*
X99949047Y-44251523D01*
X99853809Y-44346761D01*
X99710952Y-44394380D01*
X99615714Y-44394380D01*
X100425238Y-43489619D02*
X100472857Y-43442000D01*
X100568095Y-43394380D01*
X100806190Y-43394380D01*
X100901428Y-43442000D01*
X100949047Y-43489619D01*
X100996666Y-43584857D01*
X100996666Y-43680095D01*
X100949047Y-43822952D01*
X100377619Y-44394380D01*
X100996666Y-44394380D01*
%TO.C,J3*%
X74533166Y-102385880D02*
X74533166Y-103100166D01*
X74485547Y-103243023D01*
X74390309Y-103338261D01*
X74247452Y-103385880D01*
X74152214Y-103385880D01*
X74914119Y-102385880D02*
X75533166Y-102385880D01*
X75199833Y-102766833D01*
X75342690Y-102766833D01*
X75437928Y-102814452D01*
X75485547Y-102862071D01*
X75533166Y-102957309D01*
X75533166Y-103195404D01*
X75485547Y-103290642D01*
X75437928Y-103338261D01*
X75342690Y-103385880D01*
X75056976Y-103385880D01*
X74961738Y-103338261D01*
X74914119Y-103290642D01*
%TO.C,J5*%
X111172666Y-56602380D02*
X111172666Y-57316666D01*
X111125047Y-57459523D01*
X111029809Y-57554761D01*
X110886952Y-57602380D01*
X110791714Y-57602380D01*
X112125047Y-56602380D02*
X111648857Y-56602380D01*
X111601238Y-57078571D01*
X111648857Y-57030952D01*
X111744095Y-56983333D01*
X111982190Y-56983333D01*
X112077428Y-57030952D01*
X112125047Y-57078571D01*
X112172666Y-57173809D01*
X112172666Y-57411904D01*
X112125047Y-57507142D01*
X112077428Y-57554761D01*
X111982190Y-57602380D01*
X111744095Y-57602380D01*
X111648857Y-57554761D01*
X111601238Y-57507142D01*
%TO.C,R1*%
X91019333Y-102814380D02*
X90686000Y-102338190D01*
X90447904Y-102814380D02*
X90447904Y-101814380D01*
X90828857Y-101814380D01*
X90924095Y-101862000D01*
X90971714Y-101909619D01*
X91019333Y-102004857D01*
X91019333Y-102147714D01*
X90971714Y-102242952D01*
X90924095Y-102290571D01*
X90828857Y-102338190D01*
X90447904Y-102338190D01*
X91971714Y-102814380D02*
X91400285Y-102814380D01*
X91686000Y-102814380D02*
X91686000Y-101814380D01*
X91590761Y-101957238D01*
X91495523Y-102052476D01*
X91400285Y-102100095D01*
%TO.C,R2*%
X112212380Y-92114666D02*
X111736190Y-92448000D01*
X112212380Y-92686095D02*
X111212380Y-92686095D01*
X111212380Y-92305142D01*
X111260000Y-92209904D01*
X111307619Y-92162285D01*
X111402857Y-92114666D01*
X111545714Y-92114666D01*
X111640952Y-92162285D01*
X111688571Y-92209904D01*
X111736190Y-92305142D01*
X111736190Y-92686095D01*
X111307619Y-91733714D02*
X111260000Y-91686095D01*
X111212380Y-91590857D01*
X111212380Y-91352761D01*
X111260000Y-91257523D01*
X111307619Y-91209904D01*
X111402857Y-91162285D01*
X111498095Y-91162285D01*
X111640952Y-91209904D01*
X112212380Y-91781333D01*
X112212380Y-91162285D01*
%TO.C,R3*%
X78176380Y-61634666D02*
X77700190Y-61968000D01*
X78176380Y-62206095D02*
X77176380Y-62206095D01*
X77176380Y-61825142D01*
X77224000Y-61729904D01*
X77271619Y-61682285D01*
X77366857Y-61634666D01*
X77509714Y-61634666D01*
X77604952Y-61682285D01*
X77652571Y-61729904D01*
X77700190Y-61825142D01*
X77700190Y-62206095D01*
X77176380Y-61301333D02*
X77176380Y-60682285D01*
X77557333Y-61015619D01*
X77557333Y-60872761D01*
X77604952Y-60777523D01*
X77652571Y-60729904D01*
X77747809Y-60682285D01*
X77985904Y-60682285D01*
X78081142Y-60729904D01*
X78128761Y-60777523D01*
X78176380Y-60872761D01*
X78176380Y-61158476D01*
X78128761Y-61253714D01*
X78081142Y-61301333D01*
%TO.C,R4*%
X82891333Y-56714380D02*
X82558000Y-56238190D01*
X82319904Y-56714380D02*
X82319904Y-55714380D01*
X82700857Y-55714380D01*
X82796095Y-55762000D01*
X82843714Y-55809619D01*
X82891333Y-55904857D01*
X82891333Y-56047714D01*
X82843714Y-56142952D01*
X82796095Y-56190571D01*
X82700857Y-56238190D01*
X82319904Y-56238190D01*
X83748476Y-56047714D02*
X83748476Y-56714380D01*
X83510380Y-55666761D02*
X83272285Y-56381047D01*
X83891333Y-56381047D01*
%TO.C,R5*%
X73239333Y-50330380D02*
X72906000Y-49854190D01*
X72667904Y-50330380D02*
X72667904Y-49330380D01*
X73048857Y-49330380D01*
X73144095Y-49378000D01*
X73191714Y-49425619D01*
X73239333Y-49520857D01*
X73239333Y-49663714D01*
X73191714Y-49758952D01*
X73144095Y-49806571D01*
X73048857Y-49854190D01*
X72667904Y-49854190D01*
X74144095Y-49330380D02*
X73667904Y-49330380D01*
X73620285Y-49806571D01*
X73667904Y-49758952D01*
X73763142Y-49711333D01*
X74001238Y-49711333D01*
X74096476Y-49758952D01*
X74144095Y-49806571D01*
X74191714Y-49901809D01*
X74191714Y-50139904D01*
X74144095Y-50235142D01*
X74096476Y-50282761D01*
X74001238Y-50330380D01*
X73763142Y-50330380D01*
X73667904Y-50282761D01*
X73620285Y-50235142D01*
%TO.C,R6*%
X73239333Y-52870380D02*
X72906000Y-52394190D01*
X72667904Y-52870380D02*
X72667904Y-51870380D01*
X73048857Y-51870380D01*
X73144095Y-51918000D01*
X73191714Y-51965619D01*
X73239333Y-52060857D01*
X73239333Y-52203714D01*
X73191714Y-52298952D01*
X73144095Y-52346571D01*
X73048857Y-52394190D01*
X72667904Y-52394190D01*
X74096476Y-51870380D02*
X73906000Y-51870380D01*
X73810761Y-51918000D01*
X73763142Y-51965619D01*
X73667904Y-52108476D01*
X73620285Y-52298952D01*
X73620285Y-52679904D01*
X73667904Y-52775142D01*
X73715523Y-52822761D01*
X73810761Y-52870380D01*
X74001238Y-52870380D01*
X74096476Y-52822761D01*
X74144095Y-52775142D01*
X74191714Y-52679904D01*
X74191714Y-52441809D01*
X74144095Y-52346571D01*
X74096476Y-52298952D01*
X74001238Y-52251333D01*
X73810761Y-52251333D01*
X73715523Y-52298952D01*
X73667904Y-52346571D01*
X73620285Y-52441809D01*
%TO.C,R7*%
X104465380Y-93511666D02*
X103989190Y-93845000D01*
X104465380Y-94083095D02*
X103465380Y-94083095D01*
X103465380Y-93702142D01*
X103513000Y-93606904D01*
X103560619Y-93559285D01*
X103655857Y-93511666D01*
X103798714Y-93511666D01*
X103893952Y-93559285D01*
X103941571Y-93606904D01*
X103989190Y-93702142D01*
X103989190Y-94083095D01*
X103465380Y-93178333D02*
X103465380Y-92511666D01*
X104465380Y-92940238D01*
%TO.C,R8*%
X73239333Y-55410380D02*
X72906000Y-54934190D01*
X72667904Y-55410380D02*
X72667904Y-54410380D01*
X73048857Y-54410380D01*
X73144095Y-54458000D01*
X73191714Y-54505619D01*
X73239333Y-54600857D01*
X73239333Y-54743714D01*
X73191714Y-54838952D01*
X73144095Y-54886571D01*
X73048857Y-54934190D01*
X72667904Y-54934190D01*
X73810761Y-54838952D02*
X73715523Y-54791333D01*
X73667904Y-54743714D01*
X73620285Y-54648476D01*
X73620285Y-54600857D01*
X73667904Y-54505619D01*
X73715523Y-54458000D01*
X73810761Y-54410380D01*
X74001238Y-54410380D01*
X74096476Y-54458000D01*
X74144095Y-54505619D01*
X74191714Y-54600857D01*
X74191714Y-54648476D01*
X74144095Y-54743714D01*
X74096476Y-54791333D01*
X74001238Y-54838952D01*
X73810761Y-54838952D01*
X73715523Y-54886571D01*
X73667904Y-54934190D01*
X73620285Y-55029428D01*
X73620285Y-55219904D01*
X73667904Y-55315142D01*
X73715523Y-55362761D01*
X73810761Y-55410380D01*
X74001238Y-55410380D01*
X74096476Y-55362761D01*
X74144095Y-55315142D01*
X74191714Y-55219904D01*
X74191714Y-55029428D01*
X74144095Y-54934190D01*
X74096476Y-54886571D01*
X74001238Y-54838952D01*
%TO.C,R9*%
X89241333Y-71826380D02*
X88908000Y-71350190D01*
X88669904Y-71826380D02*
X88669904Y-70826380D01*
X89050857Y-70826380D01*
X89146095Y-70874000D01*
X89193714Y-70921619D01*
X89241333Y-71016857D01*
X89241333Y-71159714D01*
X89193714Y-71254952D01*
X89146095Y-71302571D01*
X89050857Y-71350190D01*
X88669904Y-71350190D01*
X89717523Y-71826380D02*
X89908000Y-71826380D01*
X90003238Y-71778761D01*
X90050857Y-71731142D01*
X90146095Y-71588285D01*
X90193714Y-71397809D01*
X90193714Y-71016857D01*
X90146095Y-70921619D01*
X90098476Y-70874000D01*
X90003238Y-70826380D01*
X89812761Y-70826380D01*
X89717523Y-70874000D01*
X89669904Y-70921619D01*
X89622285Y-71016857D01*
X89622285Y-71254952D01*
X89669904Y-71350190D01*
X89717523Y-71397809D01*
X89812761Y-71445428D01*
X90003238Y-71445428D01*
X90098476Y-71397809D01*
X90146095Y-71350190D01*
X90193714Y-71254952D01*
%TO.C,R10*%
X72763142Y-57950380D02*
X72429809Y-57474190D01*
X72191714Y-57950380D02*
X72191714Y-56950380D01*
X72572666Y-56950380D01*
X72667904Y-56998000D01*
X72715523Y-57045619D01*
X72763142Y-57140857D01*
X72763142Y-57283714D01*
X72715523Y-57378952D01*
X72667904Y-57426571D01*
X72572666Y-57474190D01*
X72191714Y-57474190D01*
X73715523Y-57950380D02*
X73144095Y-57950380D01*
X73429809Y-57950380D02*
X73429809Y-56950380D01*
X73334571Y-57093238D01*
X73239333Y-57188476D01*
X73144095Y-57236095D01*
X74334571Y-56950380D02*
X74429809Y-56950380D01*
X74525047Y-56998000D01*
X74572666Y-57045619D01*
X74620285Y-57140857D01*
X74667904Y-57331333D01*
X74667904Y-57569428D01*
X74620285Y-57759904D01*
X74572666Y-57855142D01*
X74525047Y-57902761D01*
X74429809Y-57950380D01*
X74334571Y-57950380D01*
X74239333Y-57902761D01*
X74191714Y-57855142D01*
X74144095Y-57759904D01*
X74096476Y-57569428D01*
X74096476Y-57331333D01*
X74144095Y-57140857D01*
X74191714Y-57045619D01*
X74239333Y-56998000D01*
X74334571Y-56950380D01*
%TO.C,SW1*%
X95948666Y-102272761D02*
X96091523Y-102320380D01*
X96329619Y-102320380D01*
X96424857Y-102272761D01*
X96472476Y-102225142D01*
X96520095Y-102129904D01*
X96520095Y-102034666D01*
X96472476Y-101939428D01*
X96424857Y-101891809D01*
X96329619Y-101844190D01*
X96139142Y-101796571D01*
X96043904Y-101748952D01*
X95996285Y-101701333D01*
X95948666Y-101606095D01*
X95948666Y-101510857D01*
X95996285Y-101415619D01*
X96043904Y-101368000D01*
X96139142Y-101320380D01*
X96377238Y-101320380D01*
X96520095Y-101368000D01*
X96853428Y-101320380D02*
X97091523Y-102320380D01*
X97282000Y-101606095D01*
X97472476Y-102320380D01*
X97710571Y-101320380D01*
X98615333Y-102320380D02*
X98043904Y-102320380D01*
X98329619Y-102320380D02*
X98329619Y-101320380D01*
X98234380Y-101463238D01*
X98139142Y-101558476D01*
X98043904Y-101606095D01*
%TO.C,SW2*%
X80962666Y-102272761D02*
X81105523Y-102320380D01*
X81343619Y-102320380D01*
X81438857Y-102272761D01*
X81486476Y-102225142D01*
X81534095Y-102129904D01*
X81534095Y-102034666D01*
X81486476Y-101939428D01*
X81438857Y-101891809D01*
X81343619Y-101844190D01*
X81153142Y-101796571D01*
X81057904Y-101748952D01*
X81010285Y-101701333D01*
X80962666Y-101606095D01*
X80962666Y-101510857D01*
X81010285Y-101415619D01*
X81057904Y-101368000D01*
X81153142Y-101320380D01*
X81391238Y-101320380D01*
X81534095Y-101368000D01*
X81867428Y-101320380D02*
X82105523Y-102320380D01*
X82296000Y-101606095D01*
X82486476Y-102320380D01*
X82724571Y-101320380D01*
X83057904Y-101415619D02*
X83105523Y-101368000D01*
X83200761Y-101320380D01*
X83438857Y-101320380D01*
X83534095Y-101368000D01*
X83581714Y-101415619D01*
X83629333Y-101510857D01*
X83629333Y-101606095D01*
X83581714Y-101748952D01*
X83010285Y-102320380D01*
X83629333Y-102320380D01*
%TO.C,U2*%
X78954380Y-66039904D02*
X79763904Y-66039904D01*
X79859142Y-65992285D01*
X79906761Y-65944666D01*
X79954380Y-65849428D01*
X79954380Y-65658952D01*
X79906761Y-65563714D01*
X79859142Y-65516095D01*
X79763904Y-65468476D01*
X78954380Y-65468476D01*
X79049619Y-65039904D02*
X79002000Y-64992285D01*
X78954380Y-64897047D01*
X78954380Y-64658952D01*
X79002000Y-64563714D01*
X79049619Y-64516095D01*
X79144857Y-64468476D01*
X79240095Y-64468476D01*
X79382952Y-64516095D01*
X79954380Y-65087523D01*
X79954380Y-64468476D01*
%TO.C,U3*%
X81280095Y-93428380D02*
X81280095Y-94237904D01*
X81327714Y-94333142D01*
X81375333Y-94380761D01*
X81470571Y-94428380D01*
X81661047Y-94428380D01*
X81756285Y-94380761D01*
X81803904Y-94333142D01*
X81851523Y-94237904D01*
X81851523Y-93428380D01*
X82232476Y-93428380D02*
X82851523Y-93428380D01*
X82518190Y-93809333D01*
X82661047Y-93809333D01*
X82756285Y-93856952D01*
X82803904Y-93904571D01*
X82851523Y-93999809D01*
X82851523Y-94237904D01*
X82803904Y-94333142D01*
X82756285Y-94380761D01*
X82661047Y-94428380D01*
X82375333Y-94428380D01*
X82280095Y-94380761D01*
X82232476Y-94333142D01*
%TO.C,U4*%
X95972380Y-89661904D02*
X96781904Y-89661904D01*
X96877142Y-89614285D01*
X96924761Y-89566666D01*
X96972380Y-89471428D01*
X96972380Y-89280952D01*
X96924761Y-89185714D01*
X96877142Y-89138095D01*
X96781904Y-89090476D01*
X95972380Y-89090476D01*
X96305714Y-88185714D02*
X96972380Y-88185714D01*
X95924761Y-88423809D02*
X96639047Y-88661904D01*
X96639047Y-88042857D01*
%TO.C,U5*%
X92670380Y-63245904D02*
X93479904Y-63245904D01*
X93575142Y-63198285D01*
X93622761Y-63150666D01*
X93670380Y-63055428D01*
X93670380Y-62864952D01*
X93622761Y-62769714D01*
X93575142Y-62722095D01*
X93479904Y-62674476D01*
X92670380Y-62674476D01*
X92670380Y-61722095D02*
X92670380Y-62198285D01*
X93146571Y-62245904D01*
X93098952Y-62198285D01*
X93051333Y-62103047D01*
X93051333Y-61864952D01*
X93098952Y-61769714D01*
X93146571Y-61722095D01*
X93241809Y-61674476D01*
X93479904Y-61674476D01*
X93575142Y-61722095D01*
X93622761Y-61769714D01*
X93670380Y-61864952D01*
X93670380Y-62103047D01*
X93622761Y-62198285D01*
X93575142Y-62245904D01*
%TO.C,U6*%
X101600095Y-66762380D02*
X101600095Y-67571904D01*
X101647714Y-67667142D01*
X101695333Y-67714761D01*
X101790571Y-67762380D01*
X101981047Y-67762380D01*
X102076285Y-67714761D01*
X102123904Y-67667142D01*
X102171523Y-67571904D01*
X102171523Y-66762380D01*
X103076285Y-66762380D02*
X102885809Y-66762380D01*
X102790571Y-66810000D01*
X102742952Y-66857619D01*
X102647714Y-67000476D01*
X102600095Y-67190952D01*
X102600095Y-67571904D01*
X102647714Y-67667142D01*
X102695333Y-67714761D01*
X102790571Y-67762380D01*
X102981047Y-67762380D01*
X103076285Y-67714761D01*
X103123904Y-67667142D01*
X103171523Y-67571904D01*
X103171523Y-67333809D01*
X103123904Y-67238571D01*
X103076285Y-67190952D01*
X102981047Y-67143333D01*
X102790571Y-67143333D01*
X102695333Y-67190952D01*
X102647714Y-67238571D01*
X102600095Y-67333809D01*
%TO.C,U7*%
X109982095Y-48982380D02*
X109982095Y-49791904D01*
X110029714Y-49887142D01*
X110077333Y-49934761D01*
X110172571Y-49982380D01*
X110363047Y-49982380D01*
X110458285Y-49934761D01*
X110505904Y-49887142D01*
X110553523Y-49791904D01*
X110553523Y-48982380D01*
X110934476Y-48982380D02*
X111601142Y-48982380D01*
X111172571Y-49982380D01*
%TO.C,Y1*%
X91217809Y-75541190D02*
X91217809Y-76017380D01*
X90884476Y-75017380D02*
X91217809Y-75541190D01*
X91551142Y-75017380D01*
X92408285Y-76017380D02*
X91836857Y-76017380D01*
X92122571Y-76017380D02*
X92122571Y-75017380D01*
X92027333Y-75160238D01*
X91932095Y-75255476D01*
X91836857Y-75303095D01*
%TD*%
M02*
