%TF.GenerationSoftware,KiCad,Pcbnew,5.1.6*%
%TF.CreationDate,2020-12-09T16:02:00-03:00*%
%TF.ProjectId,MCU_Comms_Control,4d43555f-436f-46d6-9d73-5f436f6e7472,rev?*%
%TF.SameCoordinates,Original*%
%TF.FileFunction,Soldermask,Top*%
%TF.FilePolarity,Negative*%
%FSLAX46Y46*%
G04 Gerber Fmt 4.6, Leading zero omitted, Abs format (unit mm)*
G04 Created by KiCad (PCBNEW 5.1.6) date 2020-12-09 16:02:00*
%MOMM*%
%LPD*%
G01*
G04 APERTURE LIST*
%ADD10R,1.700000X1.700000*%
%ADD11O,1.700000X1.700000*%
%ADD12R,1.060000X0.650000*%
%ADD13O,1.100000X2.200000*%
%ADD14O,1.100000X1.800000*%
%ADD15R,1.500000X0.450000*%
%ADD16C,0.800000*%
%ADD17C,6.400000*%
%ADD18R,0.900000X1.200000*%
%ADD19O,2.700000X3.300000*%
%ADD20C,1.700000*%
%ADD21R,1.550000X1.300000*%
%ADD22R,1.780000X2.000000*%
%ADD23R,2.000000X3.800000*%
%ADD24R,2.000000X1.500000*%
%ADD25R,2.200000X1.200000*%
%ADD26R,6.400000X5.800000*%
%ADD27R,1.400000X1.200000*%
G04 APERTURE END LIST*
D10*
%TO.C,J4*%
X110236000Y-88900000D03*
D11*
X107696000Y-88900000D03*
X110236000Y-86360000D03*
X107696000Y-86360000D03*
X110236000Y-83820000D03*
X107696000Y-83820000D03*
X110236000Y-81280000D03*
X107696000Y-81280000D03*
X110236000Y-78740000D03*
X107696000Y-78740000D03*
%TD*%
D12*
%TO.C,U1*%
X102532000Y-96840000D03*
X102532000Y-97790000D03*
X102532000Y-98740000D03*
X104732000Y-98740000D03*
X104732000Y-96840000D03*
X104732000Y-97790000D03*
%TD*%
D11*
%TO.C,J6*%
X110236000Y-71374000D03*
X110236000Y-73914000D03*
X107696000Y-71374000D03*
D10*
X107696000Y-73914000D03*
%TD*%
D13*
%TO.C,J1*%
X110549000Y-97282000D03*
D14*
X108399000Y-94482000D03*
X108399000Y-100082000D03*
D15*
X108649000Y-98582000D03*
X108649000Y-95982000D03*
X108649000Y-97932000D03*
X108649000Y-96632000D03*
X108649000Y-97282000D03*
%TD*%
D16*
%TO.C,REF\u002A\u002A*%
X110409056Y-43768944D03*
X108712000Y-43066000D03*
X107014944Y-43768944D03*
X106312000Y-45466000D03*
X107014944Y-47163056D03*
X108712000Y-47866000D03*
X110409056Y-47163056D03*
X111112000Y-45466000D03*
D17*
X108712000Y-45466000D03*
%TD*%
D16*
%TO.C,REF\u002A\u002A*%
X71801056Y-43768944D03*
X70104000Y-43066000D03*
X68406944Y-43768944D03*
X67704000Y-45466000D03*
X68406944Y-47163056D03*
X70104000Y-47866000D03*
X71801056Y-47163056D03*
X72504000Y-45466000D03*
D17*
X70104000Y-45466000D03*
%TD*%
D16*
%TO.C,REF\u002A\u002A*%
X110409056Y-104474944D03*
X108712000Y-103772000D03*
X107014944Y-104474944D03*
X106312000Y-106172000D03*
X107014944Y-107869056D03*
X108712000Y-108572000D03*
X110409056Y-107869056D03*
X111112000Y-106172000D03*
D17*
X108712000Y-106172000D03*
%TD*%
D16*
%TO.C,REF\u002A\u002A*%
X71801056Y-104474944D03*
X70104000Y-103772000D03*
X68406944Y-104474944D03*
X67704000Y-106172000D03*
X68406944Y-107869056D03*
X70104000Y-108572000D03*
X71801056Y-107869056D03*
X72504000Y-106172000D03*
D17*
X70104000Y-106172000D03*
%TD*%
%TO.C,C1*%
G36*
G01*
X96263750Y-78328000D02*
X96776250Y-78328000D01*
G75*
G02*
X96995000Y-78546750I0J-218750D01*
G01*
X96995000Y-78984250D01*
G75*
G02*
X96776250Y-79203000I-218750J0D01*
G01*
X96263750Y-79203000D01*
G75*
G02*
X96045000Y-78984250I0J218750D01*
G01*
X96045000Y-78546750D01*
G75*
G02*
X96263750Y-78328000I218750J0D01*
G01*
G37*
G36*
G01*
X96263750Y-76753000D02*
X96776250Y-76753000D01*
G75*
G02*
X96995000Y-76971750I0J-218750D01*
G01*
X96995000Y-77409250D01*
G75*
G02*
X96776250Y-77628000I-218750J0D01*
G01*
X96263750Y-77628000D01*
G75*
G02*
X96045000Y-77409250I0J218750D01*
G01*
X96045000Y-76971750D01*
G75*
G02*
X96263750Y-76753000I218750J0D01*
G01*
G37*
%TD*%
%TO.C,C2*%
G36*
G01*
X94998250Y-79203000D02*
X94485750Y-79203000D01*
G75*
G02*
X94267000Y-78984250I0J218750D01*
G01*
X94267000Y-78546750D01*
G75*
G02*
X94485750Y-78328000I218750J0D01*
G01*
X94998250Y-78328000D01*
G75*
G02*
X95217000Y-78546750I0J-218750D01*
G01*
X95217000Y-78984250D01*
G75*
G02*
X94998250Y-79203000I-218750J0D01*
G01*
G37*
G36*
G01*
X94998250Y-77628000D02*
X94485750Y-77628000D01*
G75*
G02*
X94267000Y-77409250I0J218750D01*
G01*
X94267000Y-76971750D01*
G75*
G02*
X94485750Y-76753000I218750J0D01*
G01*
X94998250Y-76753000D01*
G75*
G02*
X95217000Y-76971750I0J-218750D01*
G01*
X95217000Y-77409250D01*
G75*
G02*
X94998250Y-77628000I-218750J0D01*
G01*
G37*
%TD*%
%TO.C,C3*%
G36*
G01*
X88389750Y-78328000D02*
X88902250Y-78328000D01*
G75*
G02*
X89121000Y-78546750I0J-218750D01*
G01*
X89121000Y-78984250D01*
G75*
G02*
X88902250Y-79203000I-218750J0D01*
G01*
X88389750Y-79203000D01*
G75*
G02*
X88171000Y-78984250I0J218750D01*
G01*
X88171000Y-78546750D01*
G75*
G02*
X88389750Y-78328000I218750J0D01*
G01*
G37*
G36*
G01*
X88389750Y-76753000D02*
X88902250Y-76753000D01*
G75*
G02*
X89121000Y-76971750I0J-218750D01*
G01*
X89121000Y-77409250D01*
G75*
G02*
X88902250Y-77628000I-218750J0D01*
G01*
X88389750Y-77628000D01*
G75*
G02*
X88171000Y-77409250I0J218750D01*
G01*
X88171000Y-76971750D01*
G75*
G02*
X88389750Y-76753000I218750J0D01*
G01*
G37*
%TD*%
%TO.C,C4*%
G36*
G01*
X103320000Y-66242250D02*
X103320000Y-65329750D01*
G75*
G02*
X103563750Y-65086000I243750J0D01*
G01*
X104051250Y-65086000D01*
G75*
G02*
X104295000Y-65329750I0J-243750D01*
G01*
X104295000Y-66242250D01*
G75*
G02*
X104051250Y-66486000I-243750J0D01*
G01*
X103563750Y-66486000D01*
G75*
G02*
X103320000Y-66242250I0J243750D01*
G01*
G37*
G36*
G01*
X101445000Y-66242250D02*
X101445000Y-65329750D01*
G75*
G02*
X101688750Y-65086000I243750J0D01*
G01*
X102176250Y-65086000D01*
G75*
G02*
X102420000Y-65329750I0J-243750D01*
G01*
X102420000Y-66242250D01*
G75*
G02*
X102176250Y-66486000I-243750J0D01*
G01*
X101688750Y-66486000D01*
G75*
G02*
X101445000Y-66242250I0J243750D01*
G01*
G37*
%TD*%
%TO.C,C5*%
G36*
G01*
X102458000Y-48516250D02*
X102458000Y-48003750D01*
G75*
G02*
X102676750Y-47785000I218750J0D01*
G01*
X103114250Y-47785000D01*
G75*
G02*
X103333000Y-48003750I0J-218750D01*
G01*
X103333000Y-48516250D01*
G75*
G02*
X103114250Y-48735000I-218750J0D01*
G01*
X102676750Y-48735000D01*
G75*
G02*
X102458000Y-48516250I0J218750D01*
G01*
G37*
G36*
G01*
X100883000Y-48516250D02*
X100883000Y-48003750D01*
G75*
G02*
X101101750Y-47785000I218750J0D01*
G01*
X101539250Y-47785000D01*
G75*
G02*
X101758000Y-48003750I0J-218750D01*
G01*
X101758000Y-48516250D01*
G75*
G02*
X101539250Y-48735000I-218750J0D01*
G01*
X101101750Y-48735000D01*
G75*
G02*
X100883000Y-48516250I0J218750D01*
G01*
G37*
%TD*%
%TO.C,C6*%
G36*
G01*
X96675000Y-65329750D02*
X96675000Y-66242250D01*
G75*
G02*
X96431250Y-66486000I-243750J0D01*
G01*
X95943750Y-66486000D01*
G75*
G02*
X95700000Y-66242250I0J243750D01*
G01*
X95700000Y-65329750D01*
G75*
G02*
X95943750Y-65086000I243750J0D01*
G01*
X96431250Y-65086000D01*
G75*
G02*
X96675000Y-65329750I0J-243750D01*
G01*
G37*
G36*
G01*
X94800000Y-65329750D02*
X94800000Y-66242250D01*
G75*
G02*
X94556250Y-66486000I-243750J0D01*
G01*
X94068750Y-66486000D01*
G75*
G02*
X93825000Y-66242250I0J243750D01*
G01*
X93825000Y-65329750D01*
G75*
G02*
X94068750Y-65086000I243750J0D01*
G01*
X94556250Y-65086000D01*
G75*
G02*
X94800000Y-65329750I0J-243750D01*
G01*
G37*
%TD*%
%TO.C,C7*%
G36*
G01*
X98089000Y-66042250D02*
X98089000Y-65529750D01*
G75*
G02*
X98307750Y-65311000I218750J0D01*
G01*
X98745250Y-65311000D01*
G75*
G02*
X98964000Y-65529750I0J-218750D01*
G01*
X98964000Y-66042250D01*
G75*
G02*
X98745250Y-66261000I-218750J0D01*
G01*
X98307750Y-66261000D01*
G75*
G02*
X98089000Y-66042250I0J218750D01*
G01*
G37*
G36*
G01*
X99664000Y-66042250D02*
X99664000Y-65529750D01*
G75*
G02*
X99882750Y-65311000I218750J0D01*
G01*
X100320250Y-65311000D01*
G75*
G02*
X100539000Y-65529750I0J-218750D01*
G01*
X100539000Y-66042250D01*
G75*
G02*
X100320250Y-66261000I-218750J0D01*
G01*
X99882750Y-66261000D01*
G75*
G02*
X99664000Y-66042250I0J218750D01*
G01*
G37*
%TD*%
%TO.C,C8*%
G36*
G01*
X86315000Y-91183750D02*
X86315000Y-91696250D01*
G75*
G02*
X86096250Y-91915000I-218750J0D01*
G01*
X85658750Y-91915000D01*
G75*
G02*
X85440000Y-91696250I0J218750D01*
G01*
X85440000Y-91183750D01*
G75*
G02*
X85658750Y-90965000I218750J0D01*
G01*
X86096250Y-90965000D01*
G75*
G02*
X86315000Y-91183750I0J-218750D01*
G01*
G37*
G36*
G01*
X84740000Y-91183750D02*
X84740000Y-91696250D01*
G75*
G02*
X84521250Y-91915000I-218750J0D01*
G01*
X84083750Y-91915000D01*
G75*
G02*
X83865000Y-91696250I0J218750D01*
G01*
X83865000Y-91183750D01*
G75*
G02*
X84083750Y-90965000I218750J0D01*
G01*
X84521250Y-90965000D01*
G75*
G02*
X84740000Y-91183750I0J-218750D01*
G01*
G37*
%TD*%
%TO.C,C9*%
G36*
G01*
X82962000Y-89659750D02*
X82962000Y-90172250D01*
G75*
G02*
X82743250Y-90391000I-218750J0D01*
G01*
X82305750Y-90391000D01*
G75*
G02*
X82087000Y-90172250I0J218750D01*
G01*
X82087000Y-89659750D01*
G75*
G02*
X82305750Y-89441000I218750J0D01*
G01*
X82743250Y-89441000D01*
G75*
G02*
X82962000Y-89659750I0J-218750D01*
G01*
G37*
G36*
G01*
X84537000Y-89659750D02*
X84537000Y-90172250D01*
G75*
G02*
X84318250Y-90391000I-218750J0D01*
G01*
X83880750Y-90391000D01*
G75*
G02*
X83662000Y-90172250I0J218750D01*
G01*
X83662000Y-89659750D01*
G75*
G02*
X83880750Y-89441000I218750J0D01*
G01*
X84318250Y-89441000D01*
G75*
G02*
X84537000Y-89659750I0J-218750D01*
G01*
G37*
%TD*%
%TO.C,C10*%
G36*
G01*
X94739750Y-90977000D02*
X95252250Y-90977000D01*
G75*
G02*
X95471000Y-91195750I0J-218750D01*
G01*
X95471000Y-91633250D01*
G75*
G02*
X95252250Y-91852000I-218750J0D01*
G01*
X94739750Y-91852000D01*
G75*
G02*
X94521000Y-91633250I0J218750D01*
G01*
X94521000Y-91195750D01*
G75*
G02*
X94739750Y-90977000I218750J0D01*
G01*
G37*
G36*
G01*
X94739750Y-92552000D02*
X95252250Y-92552000D01*
G75*
G02*
X95471000Y-92770750I0J-218750D01*
G01*
X95471000Y-93208250D01*
G75*
G02*
X95252250Y-93427000I-218750J0D01*
G01*
X94739750Y-93427000D01*
G75*
G02*
X94521000Y-93208250I0J218750D01*
G01*
X94521000Y-92770750D01*
G75*
G02*
X94739750Y-92552000I218750J0D01*
G01*
G37*
%TD*%
%TO.C,C11*%
G36*
G01*
X98394000Y-84330250D02*
X98394000Y-83817750D01*
G75*
G02*
X98612750Y-83599000I218750J0D01*
G01*
X99050250Y-83599000D01*
G75*
G02*
X99269000Y-83817750I0J-218750D01*
G01*
X99269000Y-84330250D01*
G75*
G02*
X99050250Y-84549000I-218750J0D01*
G01*
X98612750Y-84549000D01*
G75*
G02*
X98394000Y-84330250I0J218750D01*
G01*
G37*
G36*
G01*
X96819000Y-84330250D02*
X96819000Y-83817750D01*
G75*
G02*
X97037750Y-83599000I218750J0D01*
G01*
X97475250Y-83599000D01*
G75*
G02*
X97694000Y-83817750I0J-218750D01*
G01*
X97694000Y-84330250D01*
G75*
G02*
X97475250Y-84549000I-218750J0D01*
G01*
X97037750Y-84549000D01*
G75*
G02*
X96819000Y-84330250I0J218750D01*
G01*
G37*
%TD*%
%TO.C,C12*%
G36*
G01*
X95760250Y-83013000D02*
X95247750Y-83013000D01*
G75*
G02*
X95029000Y-82794250I0J218750D01*
G01*
X95029000Y-82356750D01*
G75*
G02*
X95247750Y-82138000I218750J0D01*
G01*
X95760250Y-82138000D01*
G75*
G02*
X95979000Y-82356750I0J-218750D01*
G01*
X95979000Y-82794250D01*
G75*
G02*
X95760250Y-83013000I-218750J0D01*
G01*
G37*
G36*
G01*
X95760250Y-81438000D02*
X95247750Y-81438000D01*
G75*
G02*
X95029000Y-81219250I0J218750D01*
G01*
X95029000Y-80781750D01*
G75*
G02*
X95247750Y-80563000I218750J0D01*
G01*
X95760250Y-80563000D01*
G75*
G02*
X95979000Y-80781750I0J-218750D01*
G01*
X95979000Y-81219250D01*
G75*
G02*
X95760250Y-81438000I-218750J0D01*
G01*
G37*
%TD*%
%TO.C,C13*%
G36*
G01*
X86569000Y-77086750D02*
X86569000Y-77599250D01*
G75*
G02*
X86350250Y-77818000I-218750J0D01*
G01*
X85912750Y-77818000D01*
G75*
G02*
X85694000Y-77599250I0J218750D01*
G01*
X85694000Y-77086750D01*
G75*
G02*
X85912750Y-76868000I218750J0D01*
G01*
X86350250Y-76868000D01*
G75*
G02*
X86569000Y-77086750I0J-218750D01*
G01*
G37*
G36*
G01*
X84994000Y-77086750D02*
X84994000Y-77599250D01*
G75*
G02*
X84775250Y-77818000I-218750J0D01*
G01*
X84337750Y-77818000D01*
G75*
G02*
X84119000Y-77599250I0J218750D01*
G01*
X84119000Y-77086750D01*
G75*
G02*
X84337750Y-76868000I218750J0D01*
G01*
X84775250Y-76868000D01*
G75*
G02*
X84994000Y-77086750I0J-218750D01*
G01*
G37*
%TD*%
%TO.C,C14*%
G36*
G01*
X84994000Y-79626750D02*
X84994000Y-80139250D01*
G75*
G02*
X84775250Y-80358000I-218750J0D01*
G01*
X84337750Y-80358000D01*
G75*
G02*
X84119000Y-80139250I0J218750D01*
G01*
X84119000Y-79626750D01*
G75*
G02*
X84337750Y-79408000I218750J0D01*
G01*
X84775250Y-79408000D01*
G75*
G02*
X84994000Y-79626750I0J-218750D01*
G01*
G37*
G36*
G01*
X86569000Y-79626750D02*
X86569000Y-80139250D01*
G75*
G02*
X86350250Y-80358000I-218750J0D01*
G01*
X85912750Y-80358000D01*
G75*
G02*
X85694000Y-80139250I0J218750D01*
G01*
X85694000Y-79626750D01*
G75*
G02*
X85912750Y-79408000I218750J0D01*
G01*
X86350250Y-79408000D01*
G75*
G02*
X86569000Y-79626750I0J-218750D01*
G01*
G37*
%TD*%
%TO.C,C15*%
G36*
G01*
X84283000Y-68069750D02*
X84283000Y-68582250D01*
G75*
G02*
X84064250Y-68801000I-218750J0D01*
G01*
X83626750Y-68801000D01*
G75*
G02*
X83408000Y-68582250I0J218750D01*
G01*
X83408000Y-68069750D01*
G75*
G02*
X83626750Y-67851000I218750J0D01*
G01*
X84064250Y-67851000D01*
G75*
G02*
X84283000Y-68069750I0J-218750D01*
G01*
G37*
G36*
G01*
X82708000Y-68069750D02*
X82708000Y-68582250D01*
G75*
G02*
X82489250Y-68801000I-218750J0D01*
G01*
X82051750Y-68801000D01*
G75*
G02*
X81833000Y-68582250I0J218750D01*
G01*
X81833000Y-68069750D01*
G75*
G02*
X82051750Y-67851000I218750J0D01*
G01*
X82489250Y-67851000D01*
G75*
G02*
X82708000Y-68069750I0J-218750D01*
G01*
G37*
%TD*%
%TO.C,C16*%
G36*
G01*
X84740000Y-92961750D02*
X84740000Y-93474250D01*
G75*
G02*
X84521250Y-93693000I-218750J0D01*
G01*
X84083750Y-93693000D01*
G75*
G02*
X83865000Y-93474250I0J218750D01*
G01*
X83865000Y-92961750D01*
G75*
G02*
X84083750Y-92743000I218750J0D01*
G01*
X84521250Y-92743000D01*
G75*
G02*
X84740000Y-92961750I0J-218750D01*
G01*
G37*
G36*
G01*
X86315000Y-92961750D02*
X86315000Y-93474250D01*
G75*
G02*
X86096250Y-93693000I-218750J0D01*
G01*
X85658750Y-93693000D01*
G75*
G02*
X85440000Y-93474250I0J218750D01*
G01*
X85440000Y-92961750D01*
G75*
G02*
X85658750Y-92743000I218750J0D01*
G01*
X86096250Y-92743000D01*
G75*
G02*
X86315000Y-92961750I0J-218750D01*
G01*
G37*
%TD*%
D18*
%TO.C,D1*%
X101472000Y-80264000D03*
X98172000Y-80264000D03*
%TD*%
%TO.C,D2*%
X98172000Y-77216000D03*
X101472000Y-77216000D03*
%TD*%
%TO.C,D3*%
G36*
G01*
X69796000Y-51520500D02*
X69796000Y-51095500D01*
G75*
G02*
X70008500Y-50883000I212500J0D01*
G01*
X70808500Y-50883000D01*
G75*
G02*
X71021000Y-51095500I0J-212500D01*
G01*
X71021000Y-51520500D01*
G75*
G02*
X70808500Y-51733000I-212500J0D01*
G01*
X70008500Y-51733000D01*
G75*
G02*
X69796000Y-51520500I0J212500D01*
G01*
G37*
G36*
G01*
X68171000Y-51520500D02*
X68171000Y-51095500D01*
G75*
G02*
X68383500Y-50883000I212500J0D01*
G01*
X69183500Y-50883000D01*
G75*
G02*
X69396000Y-51095500I0J-212500D01*
G01*
X69396000Y-51520500D01*
G75*
G02*
X69183500Y-51733000I-212500J0D01*
G01*
X68383500Y-51733000D01*
G75*
G02*
X68171000Y-51520500I0J212500D01*
G01*
G37*
%TD*%
%TO.C,D4*%
G36*
G01*
X68171000Y-54060500D02*
X68171000Y-53635500D01*
G75*
G02*
X68383500Y-53423000I212500J0D01*
G01*
X69183500Y-53423000D01*
G75*
G02*
X69396000Y-53635500I0J-212500D01*
G01*
X69396000Y-54060500D01*
G75*
G02*
X69183500Y-54273000I-212500J0D01*
G01*
X68383500Y-54273000D01*
G75*
G02*
X68171000Y-54060500I0J212500D01*
G01*
G37*
G36*
G01*
X69796000Y-54060500D02*
X69796000Y-53635500D01*
G75*
G02*
X70008500Y-53423000I212500J0D01*
G01*
X70808500Y-53423000D01*
G75*
G02*
X71021000Y-53635500I0J-212500D01*
G01*
X71021000Y-54060500D01*
G75*
G02*
X70808500Y-54273000I-212500J0D01*
G01*
X70008500Y-54273000D01*
G75*
G02*
X69796000Y-54060500I0J212500D01*
G01*
G37*
%TD*%
%TO.C,D5*%
G36*
G01*
X69796000Y-56600500D02*
X69796000Y-56175500D01*
G75*
G02*
X70008500Y-55963000I212500J0D01*
G01*
X70808500Y-55963000D01*
G75*
G02*
X71021000Y-56175500I0J-212500D01*
G01*
X71021000Y-56600500D01*
G75*
G02*
X70808500Y-56813000I-212500J0D01*
G01*
X70008500Y-56813000D01*
G75*
G02*
X69796000Y-56600500I0J212500D01*
G01*
G37*
G36*
G01*
X68171000Y-56600500D02*
X68171000Y-56175500D01*
G75*
G02*
X68383500Y-55963000I212500J0D01*
G01*
X69183500Y-55963000D01*
G75*
G02*
X69396000Y-56175500I0J-212500D01*
G01*
X69396000Y-56600500D01*
G75*
G02*
X69183500Y-56813000I-212500J0D01*
G01*
X68383500Y-56813000D01*
G75*
G02*
X68171000Y-56600500I0J212500D01*
G01*
G37*
%TD*%
%TO.C,D6*%
G36*
G01*
X68171000Y-59140500D02*
X68171000Y-58715500D01*
G75*
G02*
X68383500Y-58503000I212500J0D01*
G01*
X69183500Y-58503000D01*
G75*
G02*
X69396000Y-58715500I0J-212500D01*
G01*
X69396000Y-59140500D01*
G75*
G02*
X69183500Y-59353000I-212500J0D01*
G01*
X68383500Y-59353000D01*
G75*
G02*
X68171000Y-59140500I0J212500D01*
G01*
G37*
G36*
G01*
X69796000Y-59140500D02*
X69796000Y-58715500D01*
G75*
G02*
X70008500Y-58503000I212500J0D01*
G01*
X70808500Y-58503000D01*
G75*
G02*
X71021000Y-58715500I0J-212500D01*
G01*
X71021000Y-59140500D01*
G75*
G02*
X70808500Y-59353000I-212500J0D01*
G01*
X70008500Y-59353000D01*
G75*
G02*
X69796000Y-59140500I0J212500D01*
G01*
G37*
%TD*%
%TO.C,D7*%
X101726000Y-62484000D03*
X98426000Y-62484000D03*
%TD*%
%TO.C,FB1*%
G36*
G01*
X86642000Y-74854750D02*
X86642000Y-75767250D01*
G75*
G02*
X86398250Y-76011000I-243750J0D01*
G01*
X85910750Y-76011000D01*
G75*
G02*
X85667000Y-75767250I0J243750D01*
G01*
X85667000Y-74854750D01*
G75*
G02*
X85910750Y-74611000I243750J0D01*
G01*
X86398250Y-74611000D01*
G75*
G02*
X86642000Y-74854750I0J-243750D01*
G01*
G37*
G36*
G01*
X84767000Y-74854750D02*
X84767000Y-75767250D01*
G75*
G02*
X84523250Y-76011000I-243750J0D01*
G01*
X84035750Y-76011000D01*
G75*
G02*
X83792000Y-75767250I0J243750D01*
G01*
X83792000Y-74854750D01*
G75*
G02*
X84035750Y-74611000I243750J0D01*
G01*
X84523250Y-74611000D01*
G75*
G02*
X84767000Y-74854750I0J-243750D01*
G01*
G37*
%TD*%
%TO.C,J2*%
G36*
G01*
X97616000Y-49400001D02*
X97616000Y-52199999D01*
G75*
G02*
X97365999Y-52450000I-250001J0D01*
G01*
X95166001Y-52450000D01*
G75*
G02*
X94916000Y-52199999I0J250001D01*
G01*
X94916000Y-49400001D01*
G75*
G02*
X95166001Y-49150000I250001J0D01*
G01*
X97365999Y-49150000D01*
G75*
G02*
X97616000Y-49400001I0J-250001D01*
G01*
G37*
D19*
X92066000Y-50800000D03*
X87866000Y-50800000D03*
X83666000Y-50800000D03*
X96266000Y-45300000D03*
X92066000Y-45300000D03*
X87866000Y-45300000D03*
X83666000Y-45300000D03*
%TD*%
%TO.C,J3*%
G36*
G01*
X73240000Y-95920000D02*
X73240000Y-97120000D01*
G75*
G02*
X72990000Y-97370000I-250000J0D01*
G01*
X71790000Y-97370000D01*
G75*
G02*
X71540000Y-97120000I0J250000D01*
G01*
X71540000Y-95920000D01*
G75*
G02*
X71790000Y-95670000I250000J0D01*
G01*
X72990000Y-95670000D01*
G75*
G02*
X73240000Y-95920000I0J-250000D01*
G01*
G37*
D20*
X72390000Y-93980000D03*
X72390000Y-91440000D03*
X72390000Y-88900000D03*
X72390000Y-86360000D03*
X72390000Y-83820000D03*
X72390000Y-81280000D03*
X72390000Y-78740000D03*
X72390000Y-76200000D03*
X72390000Y-73660000D03*
X72390000Y-71120000D03*
X72390000Y-68580000D03*
X72390000Y-66040000D03*
X69850000Y-96520000D03*
X69850000Y-93980000D03*
X69850000Y-91440000D03*
X69850000Y-88900000D03*
X69850000Y-86360000D03*
X69850000Y-83820000D03*
X69850000Y-81280000D03*
X69850000Y-78740000D03*
X69850000Y-76200000D03*
X69850000Y-73660000D03*
X69850000Y-71120000D03*
X69850000Y-68580000D03*
X69850000Y-66040000D03*
%TD*%
D10*
%TO.C,J5*%
X110236000Y-58928000D03*
D11*
X110236000Y-61468000D03*
X110236000Y-64008000D03*
X110236000Y-66548000D03*
%TD*%
%TO.C,R1*%
G36*
G01*
X90929750Y-104744000D02*
X91442250Y-104744000D01*
G75*
G02*
X91661000Y-104962750I0J-218750D01*
G01*
X91661000Y-105400250D01*
G75*
G02*
X91442250Y-105619000I-218750J0D01*
G01*
X90929750Y-105619000D01*
G75*
G02*
X90711000Y-105400250I0J218750D01*
G01*
X90711000Y-104962750D01*
G75*
G02*
X90929750Y-104744000I218750J0D01*
G01*
G37*
G36*
G01*
X90929750Y-103169000D02*
X91442250Y-103169000D01*
G75*
G02*
X91661000Y-103387750I0J-218750D01*
G01*
X91661000Y-103825250D01*
G75*
G02*
X91442250Y-104044000I-218750J0D01*
G01*
X90929750Y-104044000D01*
G75*
G02*
X90711000Y-103825250I0J218750D01*
G01*
X90711000Y-103387750D01*
G75*
G02*
X90929750Y-103169000I218750J0D01*
G01*
G37*
%TD*%
%TO.C,R2*%
G36*
G01*
X110699000Y-91691750D02*
X110699000Y-92204250D01*
G75*
G02*
X110480250Y-92423000I-218750J0D01*
G01*
X110042750Y-92423000D01*
G75*
G02*
X109824000Y-92204250I0J218750D01*
G01*
X109824000Y-91691750D01*
G75*
G02*
X110042750Y-91473000I218750J0D01*
G01*
X110480250Y-91473000D01*
G75*
G02*
X110699000Y-91691750I0J-218750D01*
G01*
G37*
G36*
G01*
X109124000Y-91691750D02*
X109124000Y-92204250D01*
G75*
G02*
X108905250Y-92423000I-218750J0D01*
G01*
X108467750Y-92423000D01*
G75*
G02*
X108249000Y-92204250I0J218750D01*
G01*
X108249000Y-91691750D01*
G75*
G02*
X108467750Y-91473000I218750J0D01*
G01*
X108905250Y-91473000D01*
G75*
G02*
X109124000Y-91691750I0J-218750D01*
G01*
G37*
%TD*%
%TO.C,R3*%
G36*
G01*
X78991750Y-61818000D02*
X79504250Y-61818000D01*
G75*
G02*
X79723000Y-62036750I0J-218750D01*
G01*
X79723000Y-62474250D01*
G75*
G02*
X79504250Y-62693000I-218750J0D01*
G01*
X78991750Y-62693000D01*
G75*
G02*
X78773000Y-62474250I0J218750D01*
G01*
X78773000Y-62036750D01*
G75*
G02*
X78991750Y-61818000I218750J0D01*
G01*
G37*
G36*
G01*
X78991750Y-60243000D02*
X79504250Y-60243000D01*
G75*
G02*
X79723000Y-60461750I0J-218750D01*
G01*
X79723000Y-60899250D01*
G75*
G02*
X79504250Y-61118000I-218750J0D01*
G01*
X78991750Y-61118000D01*
G75*
G02*
X78773000Y-60899250I0J218750D01*
G01*
X78773000Y-60461750D01*
G75*
G02*
X78991750Y-60243000I218750J0D01*
G01*
G37*
%TD*%
%TO.C,R4*%
G36*
G01*
X81633000Y-58368250D02*
X81633000Y-57455750D01*
G75*
G02*
X81876750Y-57212000I243750J0D01*
G01*
X82364250Y-57212000D01*
G75*
G02*
X82608000Y-57455750I0J-243750D01*
G01*
X82608000Y-58368250D01*
G75*
G02*
X82364250Y-58612000I-243750J0D01*
G01*
X81876750Y-58612000D01*
G75*
G02*
X81633000Y-58368250I0J243750D01*
G01*
G37*
G36*
G01*
X83508000Y-58368250D02*
X83508000Y-57455750D01*
G75*
G02*
X83751750Y-57212000I243750J0D01*
G01*
X84239250Y-57212000D01*
G75*
G02*
X84483000Y-57455750I0J-243750D01*
G01*
X84483000Y-58368250D01*
G75*
G02*
X84239250Y-58612000I-243750J0D01*
G01*
X83751750Y-58612000D01*
G75*
G02*
X83508000Y-58368250I0J243750D01*
G01*
G37*
%TD*%
%TO.C,R5*%
G36*
G01*
X73756000Y-51564250D02*
X73756000Y-51051750D01*
G75*
G02*
X73974750Y-50833000I218750J0D01*
G01*
X74412250Y-50833000D01*
G75*
G02*
X74631000Y-51051750I0J-218750D01*
G01*
X74631000Y-51564250D01*
G75*
G02*
X74412250Y-51783000I-218750J0D01*
G01*
X73974750Y-51783000D01*
G75*
G02*
X73756000Y-51564250I0J218750D01*
G01*
G37*
G36*
G01*
X72181000Y-51564250D02*
X72181000Y-51051750D01*
G75*
G02*
X72399750Y-50833000I218750J0D01*
G01*
X72837250Y-50833000D01*
G75*
G02*
X73056000Y-51051750I0J-218750D01*
G01*
X73056000Y-51564250D01*
G75*
G02*
X72837250Y-51783000I-218750J0D01*
G01*
X72399750Y-51783000D01*
G75*
G02*
X72181000Y-51564250I0J218750D01*
G01*
G37*
%TD*%
%TO.C,R6*%
G36*
G01*
X72181000Y-54104250D02*
X72181000Y-53591750D01*
G75*
G02*
X72399750Y-53373000I218750J0D01*
G01*
X72837250Y-53373000D01*
G75*
G02*
X73056000Y-53591750I0J-218750D01*
G01*
X73056000Y-54104250D01*
G75*
G02*
X72837250Y-54323000I-218750J0D01*
G01*
X72399750Y-54323000D01*
G75*
G02*
X72181000Y-54104250I0J218750D01*
G01*
G37*
G36*
G01*
X73756000Y-54104250D02*
X73756000Y-53591750D01*
G75*
G02*
X73974750Y-53373000I218750J0D01*
G01*
X74412250Y-53373000D01*
G75*
G02*
X74631000Y-53591750I0J-218750D01*
G01*
X74631000Y-54104250D01*
G75*
G02*
X74412250Y-54323000I-218750J0D01*
G01*
X73974750Y-54323000D01*
G75*
G02*
X73756000Y-54104250I0J218750D01*
G01*
G37*
%TD*%
%TO.C,R7*%
G36*
G01*
X102745250Y-95586000D02*
X102232750Y-95586000D01*
G75*
G02*
X102014000Y-95367250I0J218750D01*
G01*
X102014000Y-94929750D01*
G75*
G02*
X102232750Y-94711000I218750J0D01*
G01*
X102745250Y-94711000D01*
G75*
G02*
X102964000Y-94929750I0J-218750D01*
G01*
X102964000Y-95367250D01*
G75*
G02*
X102745250Y-95586000I-218750J0D01*
G01*
G37*
G36*
G01*
X102745250Y-94011000D02*
X102232750Y-94011000D01*
G75*
G02*
X102014000Y-93792250I0J218750D01*
G01*
X102014000Y-93354750D01*
G75*
G02*
X102232750Y-93136000I218750J0D01*
G01*
X102745250Y-93136000D01*
G75*
G02*
X102964000Y-93354750I0J-218750D01*
G01*
X102964000Y-93792250D01*
G75*
G02*
X102745250Y-94011000I-218750J0D01*
G01*
G37*
%TD*%
%TO.C,R8*%
G36*
G01*
X72181000Y-56644250D02*
X72181000Y-56131750D01*
G75*
G02*
X72399750Y-55913000I218750J0D01*
G01*
X72837250Y-55913000D01*
G75*
G02*
X73056000Y-56131750I0J-218750D01*
G01*
X73056000Y-56644250D01*
G75*
G02*
X72837250Y-56863000I-218750J0D01*
G01*
X72399750Y-56863000D01*
G75*
G02*
X72181000Y-56644250I0J218750D01*
G01*
G37*
G36*
G01*
X73756000Y-56644250D02*
X73756000Y-56131750D01*
G75*
G02*
X73974750Y-55913000I218750J0D01*
G01*
X74412250Y-55913000D01*
G75*
G02*
X74631000Y-56131750I0J-218750D01*
G01*
X74631000Y-56644250D01*
G75*
G02*
X74412250Y-56863000I-218750J0D01*
G01*
X73974750Y-56863000D01*
G75*
G02*
X73756000Y-56644250I0J218750D01*
G01*
G37*
%TD*%
%TO.C,R9*%
G36*
G01*
X89858000Y-69798250D02*
X89858000Y-68885750D01*
G75*
G02*
X90101750Y-68642000I243750J0D01*
G01*
X90589250Y-68642000D01*
G75*
G02*
X90833000Y-68885750I0J-243750D01*
G01*
X90833000Y-69798250D01*
G75*
G02*
X90589250Y-70042000I-243750J0D01*
G01*
X90101750Y-70042000D01*
G75*
G02*
X89858000Y-69798250I0J243750D01*
G01*
G37*
G36*
G01*
X87983000Y-69798250D02*
X87983000Y-68885750D01*
G75*
G02*
X88226750Y-68642000I243750J0D01*
G01*
X88714250Y-68642000D01*
G75*
G02*
X88958000Y-68885750I0J-243750D01*
G01*
X88958000Y-69798250D01*
G75*
G02*
X88714250Y-70042000I-243750J0D01*
G01*
X88226750Y-70042000D01*
G75*
G02*
X87983000Y-69798250I0J243750D01*
G01*
G37*
%TD*%
%TO.C,R10*%
G36*
G01*
X73756000Y-59184250D02*
X73756000Y-58671750D01*
G75*
G02*
X73974750Y-58453000I218750J0D01*
G01*
X74412250Y-58453000D01*
G75*
G02*
X74631000Y-58671750I0J-218750D01*
G01*
X74631000Y-59184250D01*
G75*
G02*
X74412250Y-59403000I-218750J0D01*
G01*
X73974750Y-59403000D01*
G75*
G02*
X73756000Y-59184250I0J218750D01*
G01*
G37*
G36*
G01*
X72181000Y-59184250D02*
X72181000Y-58671750D01*
G75*
G02*
X72399750Y-58453000I218750J0D01*
G01*
X72837250Y-58453000D01*
G75*
G02*
X73056000Y-58671750I0J-218750D01*
G01*
X73056000Y-59184250D01*
G75*
G02*
X72837250Y-59403000I-218750J0D01*
G01*
X72399750Y-59403000D01*
G75*
G02*
X72181000Y-59184250I0J218750D01*
G01*
G37*
%TD*%
D21*
%TO.C,SW1*%
X101262000Y-108168000D03*
X101262000Y-103668000D03*
X93302000Y-103668000D03*
X93302000Y-108168000D03*
%TD*%
%TO.C,SW2*%
X78316000Y-108168000D03*
X78316000Y-103668000D03*
X86276000Y-103668000D03*
X86276000Y-108168000D03*
%TD*%
%TO.C,U2*%
G36*
G01*
X81303000Y-66442000D02*
X81003000Y-66442000D01*
G75*
G02*
X80853000Y-66292000I0J150000D01*
G01*
X80853000Y-64642000D01*
G75*
G02*
X81003000Y-64492000I150000J0D01*
G01*
X81303000Y-64492000D01*
G75*
G02*
X81453000Y-64642000I0J-150000D01*
G01*
X81453000Y-66292000D01*
G75*
G02*
X81303000Y-66442000I-150000J0D01*
G01*
G37*
G36*
G01*
X82573000Y-66442000D02*
X82273000Y-66442000D01*
G75*
G02*
X82123000Y-66292000I0J150000D01*
G01*
X82123000Y-64642000D01*
G75*
G02*
X82273000Y-64492000I150000J0D01*
G01*
X82573000Y-64492000D01*
G75*
G02*
X82723000Y-64642000I0J-150000D01*
G01*
X82723000Y-66292000D01*
G75*
G02*
X82573000Y-66442000I-150000J0D01*
G01*
G37*
G36*
G01*
X83843000Y-66442000D02*
X83543000Y-66442000D01*
G75*
G02*
X83393000Y-66292000I0J150000D01*
G01*
X83393000Y-64642000D01*
G75*
G02*
X83543000Y-64492000I150000J0D01*
G01*
X83843000Y-64492000D01*
G75*
G02*
X83993000Y-64642000I0J-150000D01*
G01*
X83993000Y-66292000D01*
G75*
G02*
X83843000Y-66442000I-150000J0D01*
G01*
G37*
G36*
G01*
X85113000Y-66442000D02*
X84813000Y-66442000D01*
G75*
G02*
X84663000Y-66292000I0J150000D01*
G01*
X84663000Y-64642000D01*
G75*
G02*
X84813000Y-64492000I150000J0D01*
G01*
X85113000Y-64492000D01*
G75*
G02*
X85263000Y-64642000I0J-150000D01*
G01*
X85263000Y-66292000D01*
G75*
G02*
X85113000Y-66442000I-150000J0D01*
G01*
G37*
G36*
G01*
X85113000Y-61492000D02*
X84813000Y-61492000D01*
G75*
G02*
X84663000Y-61342000I0J150000D01*
G01*
X84663000Y-59692000D01*
G75*
G02*
X84813000Y-59542000I150000J0D01*
G01*
X85113000Y-59542000D01*
G75*
G02*
X85263000Y-59692000I0J-150000D01*
G01*
X85263000Y-61342000D01*
G75*
G02*
X85113000Y-61492000I-150000J0D01*
G01*
G37*
G36*
G01*
X83843000Y-61492000D02*
X83543000Y-61492000D01*
G75*
G02*
X83393000Y-61342000I0J150000D01*
G01*
X83393000Y-59692000D01*
G75*
G02*
X83543000Y-59542000I150000J0D01*
G01*
X83843000Y-59542000D01*
G75*
G02*
X83993000Y-59692000I0J-150000D01*
G01*
X83993000Y-61342000D01*
G75*
G02*
X83843000Y-61492000I-150000J0D01*
G01*
G37*
G36*
G01*
X82573000Y-61492000D02*
X82273000Y-61492000D01*
G75*
G02*
X82123000Y-61342000I0J150000D01*
G01*
X82123000Y-59692000D01*
G75*
G02*
X82273000Y-59542000I150000J0D01*
G01*
X82573000Y-59542000D01*
G75*
G02*
X82723000Y-59692000I0J-150000D01*
G01*
X82723000Y-61342000D01*
G75*
G02*
X82573000Y-61492000I-150000J0D01*
G01*
G37*
G36*
G01*
X81303000Y-61492000D02*
X81003000Y-61492000D01*
G75*
G02*
X80853000Y-61342000I0J150000D01*
G01*
X80853000Y-59692000D01*
G75*
G02*
X81003000Y-59542000I150000J0D01*
G01*
X81303000Y-59542000D01*
G75*
G02*
X81453000Y-59692000I0J-150000D01*
G01*
X81453000Y-61342000D01*
G75*
G02*
X81303000Y-61492000I-150000J0D01*
G01*
G37*
%TD*%
%TO.C,U3*%
G36*
G01*
X77642000Y-95781000D02*
X77642000Y-95481000D01*
G75*
G02*
X77792000Y-95331000I150000J0D01*
G01*
X79092000Y-95331000D01*
G75*
G02*
X79242000Y-95481000I0J-150000D01*
G01*
X79242000Y-95781000D01*
G75*
G02*
X79092000Y-95931000I-150000J0D01*
G01*
X77792000Y-95931000D01*
G75*
G02*
X77642000Y-95781000I0J150000D01*
G01*
G37*
G36*
G01*
X77642000Y-97051000D02*
X77642000Y-96751000D01*
G75*
G02*
X77792000Y-96601000I150000J0D01*
G01*
X79092000Y-96601000D01*
G75*
G02*
X79242000Y-96751000I0J-150000D01*
G01*
X79242000Y-97051000D01*
G75*
G02*
X79092000Y-97201000I-150000J0D01*
G01*
X77792000Y-97201000D01*
G75*
G02*
X77642000Y-97051000I0J150000D01*
G01*
G37*
G36*
G01*
X77642000Y-98321000D02*
X77642000Y-98021000D01*
G75*
G02*
X77792000Y-97871000I150000J0D01*
G01*
X79092000Y-97871000D01*
G75*
G02*
X79242000Y-98021000I0J-150000D01*
G01*
X79242000Y-98321000D01*
G75*
G02*
X79092000Y-98471000I-150000J0D01*
G01*
X77792000Y-98471000D01*
G75*
G02*
X77642000Y-98321000I0J150000D01*
G01*
G37*
G36*
G01*
X77642000Y-99591000D02*
X77642000Y-99291000D01*
G75*
G02*
X77792000Y-99141000I150000J0D01*
G01*
X79092000Y-99141000D01*
G75*
G02*
X79242000Y-99291000I0J-150000D01*
G01*
X79242000Y-99591000D01*
G75*
G02*
X79092000Y-99741000I-150000J0D01*
G01*
X77792000Y-99741000D01*
G75*
G02*
X77642000Y-99591000I0J150000D01*
G01*
G37*
G36*
G01*
X84842000Y-99591000D02*
X84842000Y-99291000D01*
G75*
G02*
X84992000Y-99141000I150000J0D01*
G01*
X86292000Y-99141000D01*
G75*
G02*
X86442000Y-99291000I0J-150000D01*
G01*
X86442000Y-99591000D01*
G75*
G02*
X86292000Y-99741000I-150000J0D01*
G01*
X84992000Y-99741000D01*
G75*
G02*
X84842000Y-99591000I0J150000D01*
G01*
G37*
G36*
G01*
X84842000Y-98321000D02*
X84842000Y-98021000D01*
G75*
G02*
X84992000Y-97871000I150000J0D01*
G01*
X86292000Y-97871000D01*
G75*
G02*
X86442000Y-98021000I0J-150000D01*
G01*
X86442000Y-98321000D01*
G75*
G02*
X86292000Y-98471000I-150000J0D01*
G01*
X84992000Y-98471000D01*
G75*
G02*
X84842000Y-98321000I0J150000D01*
G01*
G37*
G36*
G01*
X84842000Y-97051000D02*
X84842000Y-96751000D01*
G75*
G02*
X84992000Y-96601000I150000J0D01*
G01*
X86292000Y-96601000D01*
G75*
G02*
X86442000Y-96751000I0J-150000D01*
G01*
X86442000Y-97051000D01*
G75*
G02*
X86292000Y-97201000I-150000J0D01*
G01*
X84992000Y-97201000D01*
G75*
G02*
X84842000Y-97051000I0J150000D01*
G01*
G37*
G36*
G01*
X84842000Y-95781000D02*
X84842000Y-95481000D01*
G75*
G02*
X84992000Y-95331000I150000J0D01*
G01*
X86292000Y-95331000D01*
G75*
G02*
X86442000Y-95481000I0J-150000D01*
G01*
X86442000Y-95781000D01*
G75*
G02*
X86292000Y-95931000I-150000J0D01*
G01*
X84992000Y-95931000D01*
G75*
G02*
X84842000Y-95781000I0J150000D01*
G01*
G37*
%TD*%
%TO.C,U4*%
G36*
G01*
X93099000Y-81968000D02*
X93249000Y-81968000D01*
G75*
G02*
X93324000Y-82043000I0J-75000D01*
G01*
X93324000Y-83368000D01*
G75*
G02*
X93249000Y-83443000I-75000J0D01*
G01*
X93099000Y-83443000D01*
G75*
G02*
X93024000Y-83368000I0J75000D01*
G01*
X93024000Y-82043000D01*
G75*
G02*
X93099000Y-81968000I75000J0D01*
G01*
G37*
G36*
G01*
X92599000Y-81968000D02*
X92749000Y-81968000D01*
G75*
G02*
X92824000Y-82043000I0J-75000D01*
G01*
X92824000Y-83368000D01*
G75*
G02*
X92749000Y-83443000I-75000J0D01*
G01*
X92599000Y-83443000D01*
G75*
G02*
X92524000Y-83368000I0J75000D01*
G01*
X92524000Y-82043000D01*
G75*
G02*
X92599000Y-81968000I75000J0D01*
G01*
G37*
G36*
G01*
X92099000Y-81968000D02*
X92249000Y-81968000D01*
G75*
G02*
X92324000Y-82043000I0J-75000D01*
G01*
X92324000Y-83368000D01*
G75*
G02*
X92249000Y-83443000I-75000J0D01*
G01*
X92099000Y-83443000D01*
G75*
G02*
X92024000Y-83368000I0J75000D01*
G01*
X92024000Y-82043000D01*
G75*
G02*
X92099000Y-81968000I75000J0D01*
G01*
G37*
G36*
G01*
X91599000Y-81968000D02*
X91749000Y-81968000D01*
G75*
G02*
X91824000Y-82043000I0J-75000D01*
G01*
X91824000Y-83368000D01*
G75*
G02*
X91749000Y-83443000I-75000J0D01*
G01*
X91599000Y-83443000D01*
G75*
G02*
X91524000Y-83368000I0J75000D01*
G01*
X91524000Y-82043000D01*
G75*
G02*
X91599000Y-81968000I75000J0D01*
G01*
G37*
G36*
G01*
X91099000Y-81968000D02*
X91249000Y-81968000D01*
G75*
G02*
X91324000Y-82043000I0J-75000D01*
G01*
X91324000Y-83368000D01*
G75*
G02*
X91249000Y-83443000I-75000J0D01*
G01*
X91099000Y-83443000D01*
G75*
G02*
X91024000Y-83368000I0J75000D01*
G01*
X91024000Y-82043000D01*
G75*
G02*
X91099000Y-81968000I75000J0D01*
G01*
G37*
G36*
G01*
X90599000Y-81968000D02*
X90749000Y-81968000D01*
G75*
G02*
X90824000Y-82043000I0J-75000D01*
G01*
X90824000Y-83368000D01*
G75*
G02*
X90749000Y-83443000I-75000J0D01*
G01*
X90599000Y-83443000D01*
G75*
G02*
X90524000Y-83368000I0J75000D01*
G01*
X90524000Y-82043000D01*
G75*
G02*
X90599000Y-81968000I75000J0D01*
G01*
G37*
G36*
G01*
X90099000Y-81968000D02*
X90249000Y-81968000D01*
G75*
G02*
X90324000Y-82043000I0J-75000D01*
G01*
X90324000Y-83368000D01*
G75*
G02*
X90249000Y-83443000I-75000J0D01*
G01*
X90099000Y-83443000D01*
G75*
G02*
X90024000Y-83368000I0J75000D01*
G01*
X90024000Y-82043000D01*
G75*
G02*
X90099000Y-81968000I75000J0D01*
G01*
G37*
G36*
G01*
X89599000Y-81968000D02*
X89749000Y-81968000D01*
G75*
G02*
X89824000Y-82043000I0J-75000D01*
G01*
X89824000Y-83368000D01*
G75*
G02*
X89749000Y-83443000I-75000J0D01*
G01*
X89599000Y-83443000D01*
G75*
G02*
X89524000Y-83368000I0J75000D01*
G01*
X89524000Y-82043000D01*
G75*
G02*
X89599000Y-81968000I75000J0D01*
G01*
G37*
G36*
G01*
X89099000Y-81968000D02*
X89249000Y-81968000D01*
G75*
G02*
X89324000Y-82043000I0J-75000D01*
G01*
X89324000Y-83368000D01*
G75*
G02*
X89249000Y-83443000I-75000J0D01*
G01*
X89099000Y-83443000D01*
G75*
G02*
X89024000Y-83368000I0J75000D01*
G01*
X89024000Y-82043000D01*
G75*
G02*
X89099000Y-81968000I75000J0D01*
G01*
G37*
G36*
G01*
X88599000Y-81968000D02*
X88749000Y-81968000D01*
G75*
G02*
X88824000Y-82043000I0J-75000D01*
G01*
X88824000Y-83368000D01*
G75*
G02*
X88749000Y-83443000I-75000J0D01*
G01*
X88599000Y-83443000D01*
G75*
G02*
X88524000Y-83368000I0J75000D01*
G01*
X88524000Y-82043000D01*
G75*
G02*
X88599000Y-81968000I75000J0D01*
G01*
G37*
G36*
G01*
X88099000Y-81968000D02*
X88249000Y-81968000D01*
G75*
G02*
X88324000Y-82043000I0J-75000D01*
G01*
X88324000Y-83368000D01*
G75*
G02*
X88249000Y-83443000I-75000J0D01*
G01*
X88099000Y-83443000D01*
G75*
G02*
X88024000Y-83368000I0J75000D01*
G01*
X88024000Y-82043000D01*
G75*
G02*
X88099000Y-81968000I75000J0D01*
G01*
G37*
G36*
G01*
X87599000Y-81968000D02*
X87749000Y-81968000D01*
G75*
G02*
X87824000Y-82043000I0J-75000D01*
G01*
X87824000Y-83368000D01*
G75*
G02*
X87749000Y-83443000I-75000J0D01*
G01*
X87599000Y-83443000D01*
G75*
G02*
X87524000Y-83368000I0J75000D01*
G01*
X87524000Y-82043000D01*
G75*
G02*
X87599000Y-81968000I75000J0D01*
G01*
G37*
G36*
G01*
X85599000Y-83968000D02*
X86924000Y-83968000D01*
G75*
G02*
X86999000Y-84043000I0J-75000D01*
G01*
X86999000Y-84193000D01*
G75*
G02*
X86924000Y-84268000I-75000J0D01*
G01*
X85599000Y-84268000D01*
G75*
G02*
X85524000Y-84193000I0J75000D01*
G01*
X85524000Y-84043000D01*
G75*
G02*
X85599000Y-83968000I75000J0D01*
G01*
G37*
G36*
G01*
X85599000Y-84468000D02*
X86924000Y-84468000D01*
G75*
G02*
X86999000Y-84543000I0J-75000D01*
G01*
X86999000Y-84693000D01*
G75*
G02*
X86924000Y-84768000I-75000J0D01*
G01*
X85599000Y-84768000D01*
G75*
G02*
X85524000Y-84693000I0J75000D01*
G01*
X85524000Y-84543000D01*
G75*
G02*
X85599000Y-84468000I75000J0D01*
G01*
G37*
G36*
G01*
X85599000Y-84968000D02*
X86924000Y-84968000D01*
G75*
G02*
X86999000Y-85043000I0J-75000D01*
G01*
X86999000Y-85193000D01*
G75*
G02*
X86924000Y-85268000I-75000J0D01*
G01*
X85599000Y-85268000D01*
G75*
G02*
X85524000Y-85193000I0J75000D01*
G01*
X85524000Y-85043000D01*
G75*
G02*
X85599000Y-84968000I75000J0D01*
G01*
G37*
G36*
G01*
X85599000Y-85468000D02*
X86924000Y-85468000D01*
G75*
G02*
X86999000Y-85543000I0J-75000D01*
G01*
X86999000Y-85693000D01*
G75*
G02*
X86924000Y-85768000I-75000J0D01*
G01*
X85599000Y-85768000D01*
G75*
G02*
X85524000Y-85693000I0J75000D01*
G01*
X85524000Y-85543000D01*
G75*
G02*
X85599000Y-85468000I75000J0D01*
G01*
G37*
G36*
G01*
X85599000Y-85968000D02*
X86924000Y-85968000D01*
G75*
G02*
X86999000Y-86043000I0J-75000D01*
G01*
X86999000Y-86193000D01*
G75*
G02*
X86924000Y-86268000I-75000J0D01*
G01*
X85599000Y-86268000D01*
G75*
G02*
X85524000Y-86193000I0J75000D01*
G01*
X85524000Y-86043000D01*
G75*
G02*
X85599000Y-85968000I75000J0D01*
G01*
G37*
G36*
G01*
X85599000Y-86468000D02*
X86924000Y-86468000D01*
G75*
G02*
X86999000Y-86543000I0J-75000D01*
G01*
X86999000Y-86693000D01*
G75*
G02*
X86924000Y-86768000I-75000J0D01*
G01*
X85599000Y-86768000D01*
G75*
G02*
X85524000Y-86693000I0J75000D01*
G01*
X85524000Y-86543000D01*
G75*
G02*
X85599000Y-86468000I75000J0D01*
G01*
G37*
G36*
G01*
X85599000Y-86968000D02*
X86924000Y-86968000D01*
G75*
G02*
X86999000Y-87043000I0J-75000D01*
G01*
X86999000Y-87193000D01*
G75*
G02*
X86924000Y-87268000I-75000J0D01*
G01*
X85599000Y-87268000D01*
G75*
G02*
X85524000Y-87193000I0J75000D01*
G01*
X85524000Y-87043000D01*
G75*
G02*
X85599000Y-86968000I75000J0D01*
G01*
G37*
G36*
G01*
X85599000Y-87468000D02*
X86924000Y-87468000D01*
G75*
G02*
X86999000Y-87543000I0J-75000D01*
G01*
X86999000Y-87693000D01*
G75*
G02*
X86924000Y-87768000I-75000J0D01*
G01*
X85599000Y-87768000D01*
G75*
G02*
X85524000Y-87693000I0J75000D01*
G01*
X85524000Y-87543000D01*
G75*
G02*
X85599000Y-87468000I75000J0D01*
G01*
G37*
G36*
G01*
X85599000Y-87968000D02*
X86924000Y-87968000D01*
G75*
G02*
X86999000Y-88043000I0J-75000D01*
G01*
X86999000Y-88193000D01*
G75*
G02*
X86924000Y-88268000I-75000J0D01*
G01*
X85599000Y-88268000D01*
G75*
G02*
X85524000Y-88193000I0J75000D01*
G01*
X85524000Y-88043000D01*
G75*
G02*
X85599000Y-87968000I75000J0D01*
G01*
G37*
G36*
G01*
X85599000Y-88468000D02*
X86924000Y-88468000D01*
G75*
G02*
X86999000Y-88543000I0J-75000D01*
G01*
X86999000Y-88693000D01*
G75*
G02*
X86924000Y-88768000I-75000J0D01*
G01*
X85599000Y-88768000D01*
G75*
G02*
X85524000Y-88693000I0J75000D01*
G01*
X85524000Y-88543000D01*
G75*
G02*
X85599000Y-88468000I75000J0D01*
G01*
G37*
G36*
G01*
X85599000Y-88968000D02*
X86924000Y-88968000D01*
G75*
G02*
X86999000Y-89043000I0J-75000D01*
G01*
X86999000Y-89193000D01*
G75*
G02*
X86924000Y-89268000I-75000J0D01*
G01*
X85599000Y-89268000D01*
G75*
G02*
X85524000Y-89193000I0J75000D01*
G01*
X85524000Y-89043000D01*
G75*
G02*
X85599000Y-88968000I75000J0D01*
G01*
G37*
G36*
G01*
X85599000Y-89468000D02*
X86924000Y-89468000D01*
G75*
G02*
X86999000Y-89543000I0J-75000D01*
G01*
X86999000Y-89693000D01*
G75*
G02*
X86924000Y-89768000I-75000J0D01*
G01*
X85599000Y-89768000D01*
G75*
G02*
X85524000Y-89693000I0J75000D01*
G01*
X85524000Y-89543000D01*
G75*
G02*
X85599000Y-89468000I75000J0D01*
G01*
G37*
G36*
G01*
X87599000Y-90293000D02*
X87749000Y-90293000D01*
G75*
G02*
X87824000Y-90368000I0J-75000D01*
G01*
X87824000Y-91693000D01*
G75*
G02*
X87749000Y-91768000I-75000J0D01*
G01*
X87599000Y-91768000D01*
G75*
G02*
X87524000Y-91693000I0J75000D01*
G01*
X87524000Y-90368000D01*
G75*
G02*
X87599000Y-90293000I75000J0D01*
G01*
G37*
G36*
G01*
X88099000Y-90293000D02*
X88249000Y-90293000D01*
G75*
G02*
X88324000Y-90368000I0J-75000D01*
G01*
X88324000Y-91693000D01*
G75*
G02*
X88249000Y-91768000I-75000J0D01*
G01*
X88099000Y-91768000D01*
G75*
G02*
X88024000Y-91693000I0J75000D01*
G01*
X88024000Y-90368000D01*
G75*
G02*
X88099000Y-90293000I75000J0D01*
G01*
G37*
G36*
G01*
X88599000Y-90293000D02*
X88749000Y-90293000D01*
G75*
G02*
X88824000Y-90368000I0J-75000D01*
G01*
X88824000Y-91693000D01*
G75*
G02*
X88749000Y-91768000I-75000J0D01*
G01*
X88599000Y-91768000D01*
G75*
G02*
X88524000Y-91693000I0J75000D01*
G01*
X88524000Y-90368000D01*
G75*
G02*
X88599000Y-90293000I75000J0D01*
G01*
G37*
G36*
G01*
X89099000Y-90293000D02*
X89249000Y-90293000D01*
G75*
G02*
X89324000Y-90368000I0J-75000D01*
G01*
X89324000Y-91693000D01*
G75*
G02*
X89249000Y-91768000I-75000J0D01*
G01*
X89099000Y-91768000D01*
G75*
G02*
X89024000Y-91693000I0J75000D01*
G01*
X89024000Y-90368000D01*
G75*
G02*
X89099000Y-90293000I75000J0D01*
G01*
G37*
G36*
G01*
X89599000Y-90293000D02*
X89749000Y-90293000D01*
G75*
G02*
X89824000Y-90368000I0J-75000D01*
G01*
X89824000Y-91693000D01*
G75*
G02*
X89749000Y-91768000I-75000J0D01*
G01*
X89599000Y-91768000D01*
G75*
G02*
X89524000Y-91693000I0J75000D01*
G01*
X89524000Y-90368000D01*
G75*
G02*
X89599000Y-90293000I75000J0D01*
G01*
G37*
G36*
G01*
X90099000Y-90293000D02*
X90249000Y-90293000D01*
G75*
G02*
X90324000Y-90368000I0J-75000D01*
G01*
X90324000Y-91693000D01*
G75*
G02*
X90249000Y-91768000I-75000J0D01*
G01*
X90099000Y-91768000D01*
G75*
G02*
X90024000Y-91693000I0J75000D01*
G01*
X90024000Y-90368000D01*
G75*
G02*
X90099000Y-90293000I75000J0D01*
G01*
G37*
G36*
G01*
X90599000Y-90293000D02*
X90749000Y-90293000D01*
G75*
G02*
X90824000Y-90368000I0J-75000D01*
G01*
X90824000Y-91693000D01*
G75*
G02*
X90749000Y-91768000I-75000J0D01*
G01*
X90599000Y-91768000D01*
G75*
G02*
X90524000Y-91693000I0J75000D01*
G01*
X90524000Y-90368000D01*
G75*
G02*
X90599000Y-90293000I75000J0D01*
G01*
G37*
G36*
G01*
X91099000Y-90293000D02*
X91249000Y-90293000D01*
G75*
G02*
X91324000Y-90368000I0J-75000D01*
G01*
X91324000Y-91693000D01*
G75*
G02*
X91249000Y-91768000I-75000J0D01*
G01*
X91099000Y-91768000D01*
G75*
G02*
X91024000Y-91693000I0J75000D01*
G01*
X91024000Y-90368000D01*
G75*
G02*
X91099000Y-90293000I75000J0D01*
G01*
G37*
G36*
G01*
X91599000Y-90293000D02*
X91749000Y-90293000D01*
G75*
G02*
X91824000Y-90368000I0J-75000D01*
G01*
X91824000Y-91693000D01*
G75*
G02*
X91749000Y-91768000I-75000J0D01*
G01*
X91599000Y-91768000D01*
G75*
G02*
X91524000Y-91693000I0J75000D01*
G01*
X91524000Y-90368000D01*
G75*
G02*
X91599000Y-90293000I75000J0D01*
G01*
G37*
G36*
G01*
X92099000Y-90293000D02*
X92249000Y-90293000D01*
G75*
G02*
X92324000Y-90368000I0J-75000D01*
G01*
X92324000Y-91693000D01*
G75*
G02*
X92249000Y-91768000I-75000J0D01*
G01*
X92099000Y-91768000D01*
G75*
G02*
X92024000Y-91693000I0J75000D01*
G01*
X92024000Y-90368000D01*
G75*
G02*
X92099000Y-90293000I75000J0D01*
G01*
G37*
G36*
G01*
X92599000Y-90293000D02*
X92749000Y-90293000D01*
G75*
G02*
X92824000Y-90368000I0J-75000D01*
G01*
X92824000Y-91693000D01*
G75*
G02*
X92749000Y-91768000I-75000J0D01*
G01*
X92599000Y-91768000D01*
G75*
G02*
X92524000Y-91693000I0J75000D01*
G01*
X92524000Y-90368000D01*
G75*
G02*
X92599000Y-90293000I75000J0D01*
G01*
G37*
G36*
G01*
X93099000Y-90293000D02*
X93249000Y-90293000D01*
G75*
G02*
X93324000Y-90368000I0J-75000D01*
G01*
X93324000Y-91693000D01*
G75*
G02*
X93249000Y-91768000I-75000J0D01*
G01*
X93099000Y-91768000D01*
G75*
G02*
X93024000Y-91693000I0J75000D01*
G01*
X93024000Y-90368000D01*
G75*
G02*
X93099000Y-90293000I75000J0D01*
G01*
G37*
G36*
G01*
X93924000Y-89468000D02*
X95249000Y-89468000D01*
G75*
G02*
X95324000Y-89543000I0J-75000D01*
G01*
X95324000Y-89693000D01*
G75*
G02*
X95249000Y-89768000I-75000J0D01*
G01*
X93924000Y-89768000D01*
G75*
G02*
X93849000Y-89693000I0J75000D01*
G01*
X93849000Y-89543000D01*
G75*
G02*
X93924000Y-89468000I75000J0D01*
G01*
G37*
G36*
G01*
X93924000Y-88968000D02*
X95249000Y-88968000D01*
G75*
G02*
X95324000Y-89043000I0J-75000D01*
G01*
X95324000Y-89193000D01*
G75*
G02*
X95249000Y-89268000I-75000J0D01*
G01*
X93924000Y-89268000D01*
G75*
G02*
X93849000Y-89193000I0J75000D01*
G01*
X93849000Y-89043000D01*
G75*
G02*
X93924000Y-88968000I75000J0D01*
G01*
G37*
G36*
G01*
X93924000Y-88468000D02*
X95249000Y-88468000D01*
G75*
G02*
X95324000Y-88543000I0J-75000D01*
G01*
X95324000Y-88693000D01*
G75*
G02*
X95249000Y-88768000I-75000J0D01*
G01*
X93924000Y-88768000D01*
G75*
G02*
X93849000Y-88693000I0J75000D01*
G01*
X93849000Y-88543000D01*
G75*
G02*
X93924000Y-88468000I75000J0D01*
G01*
G37*
G36*
G01*
X93924000Y-87968000D02*
X95249000Y-87968000D01*
G75*
G02*
X95324000Y-88043000I0J-75000D01*
G01*
X95324000Y-88193000D01*
G75*
G02*
X95249000Y-88268000I-75000J0D01*
G01*
X93924000Y-88268000D01*
G75*
G02*
X93849000Y-88193000I0J75000D01*
G01*
X93849000Y-88043000D01*
G75*
G02*
X93924000Y-87968000I75000J0D01*
G01*
G37*
G36*
G01*
X93924000Y-87468000D02*
X95249000Y-87468000D01*
G75*
G02*
X95324000Y-87543000I0J-75000D01*
G01*
X95324000Y-87693000D01*
G75*
G02*
X95249000Y-87768000I-75000J0D01*
G01*
X93924000Y-87768000D01*
G75*
G02*
X93849000Y-87693000I0J75000D01*
G01*
X93849000Y-87543000D01*
G75*
G02*
X93924000Y-87468000I75000J0D01*
G01*
G37*
G36*
G01*
X93924000Y-86968000D02*
X95249000Y-86968000D01*
G75*
G02*
X95324000Y-87043000I0J-75000D01*
G01*
X95324000Y-87193000D01*
G75*
G02*
X95249000Y-87268000I-75000J0D01*
G01*
X93924000Y-87268000D01*
G75*
G02*
X93849000Y-87193000I0J75000D01*
G01*
X93849000Y-87043000D01*
G75*
G02*
X93924000Y-86968000I75000J0D01*
G01*
G37*
G36*
G01*
X93924000Y-86468000D02*
X95249000Y-86468000D01*
G75*
G02*
X95324000Y-86543000I0J-75000D01*
G01*
X95324000Y-86693000D01*
G75*
G02*
X95249000Y-86768000I-75000J0D01*
G01*
X93924000Y-86768000D01*
G75*
G02*
X93849000Y-86693000I0J75000D01*
G01*
X93849000Y-86543000D01*
G75*
G02*
X93924000Y-86468000I75000J0D01*
G01*
G37*
G36*
G01*
X93924000Y-85968000D02*
X95249000Y-85968000D01*
G75*
G02*
X95324000Y-86043000I0J-75000D01*
G01*
X95324000Y-86193000D01*
G75*
G02*
X95249000Y-86268000I-75000J0D01*
G01*
X93924000Y-86268000D01*
G75*
G02*
X93849000Y-86193000I0J75000D01*
G01*
X93849000Y-86043000D01*
G75*
G02*
X93924000Y-85968000I75000J0D01*
G01*
G37*
G36*
G01*
X93924000Y-85468000D02*
X95249000Y-85468000D01*
G75*
G02*
X95324000Y-85543000I0J-75000D01*
G01*
X95324000Y-85693000D01*
G75*
G02*
X95249000Y-85768000I-75000J0D01*
G01*
X93924000Y-85768000D01*
G75*
G02*
X93849000Y-85693000I0J75000D01*
G01*
X93849000Y-85543000D01*
G75*
G02*
X93924000Y-85468000I75000J0D01*
G01*
G37*
G36*
G01*
X93924000Y-84968000D02*
X95249000Y-84968000D01*
G75*
G02*
X95324000Y-85043000I0J-75000D01*
G01*
X95324000Y-85193000D01*
G75*
G02*
X95249000Y-85268000I-75000J0D01*
G01*
X93924000Y-85268000D01*
G75*
G02*
X93849000Y-85193000I0J75000D01*
G01*
X93849000Y-85043000D01*
G75*
G02*
X93924000Y-84968000I75000J0D01*
G01*
G37*
G36*
G01*
X93924000Y-84468000D02*
X95249000Y-84468000D01*
G75*
G02*
X95324000Y-84543000I0J-75000D01*
G01*
X95324000Y-84693000D01*
G75*
G02*
X95249000Y-84768000I-75000J0D01*
G01*
X93924000Y-84768000D01*
G75*
G02*
X93849000Y-84693000I0J75000D01*
G01*
X93849000Y-84543000D01*
G75*
G02*
X93924000Y-84468000I75000J0D01*
G01*
G37*
G36*
G01*
X93924000Y-83968000D02*
X95249000Y-83968000D01*
G75*
G02*
X95324000Y-84043000I0J-75000D01*
G01*
X95324000Y-84193000D01*
G75*
G02*
X95249000Y-84268000I-75000J0D01*
G01*
X93924000Y-84268000D01*
G75*
G02*
X93849000Y-84193000I0J75000D01*
G01*
X93849000Y-84043000D01*
G75*
G02*
X93924000Y-83968000I75000J0D01*
G01*
G37*
%TD*%
D22*
%TO.C,U5*%
X88392000Y-66294000D03*
X90932000Y-58674000D03*
X90932000Y-66294000D03*
X88392000Y-58674000D03*
%TD*%
D23*
%TO.C,U6*%
X96164000Y-71120000D03*
D24*
X102464000Y-71120000D03*
X102464000Y-68820000D03*
X102464000Y-73420000D03*
%TD*%
D25*
%TO.C,U7*%
X101464000Y-51060000D03*
X101464000Y-53340000D03*
X101464000Y-55620000D03*
D26*
X107764000Y-53340000D03*
%TD*%
D27*
%TO.C,Y1*%
X92794000Y-77128000D03*
X90594000Y-77128000D03*
X90594000Y-78828000D03*
X92794000Y-78828000D03*
%TD*%
M02*
