%TF.GenerationSoftware,KiCad,Pcbnew,5.1.6*%
%TF.CreationDate,2020-12-09T16:02:00-03:00*%
%TF.ProjectId,MCU_Comms_Control,4d43555f-436f-46d6-9d73-5f436f6e7472,rev?*%
%TF.SameCoordinates,Original*%
%TF.FileFunction,Copper,L2,Inr*%
%TF.FilePolarity,Positive*%
%FSLAX46Y46*%
G04 Gerber Fmt 4.6, Leading zero omitted, Abs format (unit mm)*
G04 Created by KiCad (PCBNEW 5.1.6) date 2020-12-09 16:02:00*
%MOMM*%
%LPD*%
G01*
G04 APERTURE LIST*
%TA.AperFunction,ViaPad*%
%ADD10R,1.700000X1.700000*%
%TD*%
%TA.AperFunction,ViaPad*%
%ADD11O,1.700000X1.700000*%
%TD*%
%TA.AperFunction,ViaPad*%
%ADD12O,1.100000X2.200000*%
%TD*%
%TA.AperFunction,ViaPad*%
%ADD13O,1.100000X1.800000*%
%TD*%
%TA.AperFunction,ViaPad*%
%ADD14C,0.800000*%
%TD*%
%TA.AperFunction,ViaPad*%
%ADD15C,6.400000*%
%TD*%
%TA.AperFunction,ViaPad*%
%ADD16O,2.700000X3.300000*%
%TD*%
%TA.AperFunction,ViaPad*%
%ADD17C,1.700000*%
%TD*%
%TA.AperFunction,ViaPad*%
%ADD18C,0.500000*%
%TD*%
%TA.AperFunction,Conductor*%
%ADD19C,0.254000*%
%TD*%
G04 APERTURE END LIST*
D10*
%TO.N,~RESET*%
%TO.C,J4*%
X110236000Y-88900000D03*
D11*
%TO.N,SWCLK*%
X107696000Y-88900000D03*
%TO.N,SWO*%
X110236000Y-86360000D03*
%TO.N,SWDIO*%
X107696000Y-86360000D03*
%TO.N,GND*%
X110236000Y-83820000D03*
X107696000Y-83820000D03*
%TO.N,+3V3*%
X110236000Y-81280000D03*
X107696000Y-81280000D03*
%TO.N,Net-(D1-Pad2)*%
X110236000Y-78740000D03*
X107696000Y-78740000D03*
%TD*%
%TO.N,GND*%
%TO.C,J6*%
X110236000Y-71374000D03*
%TO.N,+3V3*%
X110236000Y-73914000D03*
%TO.N,Net-(J6-Pad2)*%
X107696000Y-71374000D03*
D10*
%TO.N,Net-(J6-Pad1)*%
X107696000Y-73914000D03*
%TD*%
D12*
%TO.N,GND*%
%TO.C,J1*%
X110549000Y-97282000D03*
D13*
X108399000Y-94482000D03*
X108399000Y-100082000D03*
%TD*%
D14*
%TO.N,N/C*%
%TO.C,REF\u002A\u002A*%
X110409056Y-43768944D03*
X108712000Y-43066000D03*
X107014944Y-43768944D03*
X106312000Y-45466000D03*
X107014944Y-47163056D03*
X108712000Y-47866000D03*
X110409056Y-47163056D03*
X111112000Y-45466000D03*
D15*
X108712000Y-45466000D03*
%TD*%
D14*
%TO.N,N/C*%
%TO.C,REF\u002A\u002A*%
X71801056Y-43768944D03*
X70104000Y-43066000D03*
X68406944Y-43768944D03*
X67704000Y-45466000D03*
X68406944Y-47163056D03*
X70104000Y-47866000D03*
X71801056Y-47163056D03*
X72504000Y-45466000D03*
D15*
X70104000Y-45466000D03*
%TD*%
D14*
%TO.N,N/C*%
%TO.C,REF\u002A\u002A*%
X110409056Y-104474944D03*
X108712000Y-103772000D03*
X107014944Y-104474944D03*
X106312000Y-106172000D03*
X107014944Y-107869056D03*
X108712000Y-108572000D03*
X110409056Y-107869056D03*
X111112000Y-106172000D03*
D15*
X108712000Y-106172000D03*
%TD*%
D14*
%TO.N,N/C*%
%TO.C,REF\u002A\u002A*%
X71801056Y-104474944D03*
X70104000Y-103772000D03*
X68406944Y-104474944D03*
X67704000Y-106172000D03*
X68406944Y-107869056D03*
X70104000Y-108572000D03*
X71801056Y-107869056D03*
X72504000Y-106172000D03*
D15*
X70104000Y-106172000D03*
%TD*%
%TO.N,+12V*%
%TO.C,J2*%
%TA.AperFunction,ViaPad*%
G36*
G01*
X97616000Y-49400001D02*
X97616000Y-52199999D01*
G75*
G02*
X97365999Y-52450000I-250001J0D01*
G01*
X95166001Y-52450000D01*
G75*
G02*
X94916000Y-52199999I0J250001D01*
G01*
X94916000Y-49400001D01*
G75*
G02*
X95166001Y-49150000I250001J0D01*
G01*
X97365999Y-49150000D01*
G75*
G02*
X97616000Y-49400001I0J-250001D01*
G01*
G37*
%TD.AperFunction*%
D16*
%TO.N,GND*%
X92066000Y-50800000D03*
%TO.N,CAN_L*%
X87866000Y-50800000D03*
%TO.N,CAN_H*%
X83666000Y-50800000D03*
%TO.N,GND*%
X96266000Y-45300000D03*
%TO.N,+12V*%
X92066000Y-45300000D03*
%TO.N,~ERROR*%
X87866000Y-45300000D03*
%TO.N,GND*%
X83666000Y-45300000D03*
%TD*%
%TO.N,GND*%
%TO.C,J3*%
%TA.AperFunction,ViaPad*%
G36*
G01*
X73240000Y-95920000D02*
X73240000Y-97120000D01*
G75*
G02*
X72990000Y-97370000I-250000J0D01*
G01*
X71790000Y-97370000D01*
G75*
G02*
X71540000Y-97120000I0J250000D01*
G01*
X71540000Y-95920000D01*
G75*
G02*
X71790000Y-95670000I250000J0D01*
G01*
X72990000Y-95670000D01*
G75*
G02*
X73240000Y-95920000I0J-250000D01*
G01*
G37*
%TD.AperFunction*%
D17*
%TO.N,+12V*%
X72390000Y-93980000D03*
%TO.N,Net-(J3-Pad5)*%
X72390000Y-91440000D03*
%TO.N,NTC_PWR*%
X72390000Y-88900000D03*
%TO.N,CURR_U*%
X72390000Y-86360000D03*
%TO.N,CURR_V*%
X72390000Y-83820000D03*
%TO.N,CURR_W*%
X72390000Y-81280000D03*
%TO.N,HALL3*%
X72390000Y-78740000D03*
%TO.N,HALL2*%
X72390000Y-76200000D03*
%TO.N,HALL1*%
X72390000Y-73660000D03*
%TO.N,+5V*%
X72390000Y-71120000D03*
%TO.N,+12V*%
X72390000Y-68580000D03*
%TO.N,GND*%
X72390000Y-66040000D03*
X69850000Y-96520000D03*
%TO.N,+12V*%
X69850000Y-93980000D03*
%TO.N,U_H*%
X69850000Y-91440000D03*
%TO.N,V_H*%
X69850000Y-88900000D03*
%TO.N,W_H*%
X69850000Y-86360000D03*
%TO.N,U_L*%
X69850000Y-83820000D03*
%TO.N,V_L*%
X69850000Y-81280000D03*
%TO.N,W_L*%
X69850000Y-78740000D03*
%TO.N,~ERROR*%
X69850000Y-76200000D03*
%TO.N,ENABLE*%
X69850000Y-73660000D03*
%TO.N,VBUS_SCALED*%
X69850000Y-71120000D03*
%TO.N,+12V*%
X69850000Y-68580000D03*
%TO.N,GND*%
X69850000Y-66040000D03*
%TD*%
D10*
%TO.N,GND*%
%TO.C,J5*%
X110236000Y-58928000D03*
D11*
%TO.N,MULTI1*%
X110236000Y-61468000D03*
%TO.N,MULTI0*%
X110236000Y-64008000D03*
%TO.N,+3V3*%
X110236000Y-66548000D03*
%TD*%
D14*
%TO.N,GND*%
X96774000Y-92710000D03*
X98044000Y-90932000D03*
X89408000Y-100838000D03*
X111760000Y-50927000D03*
X111760000Y-55753000D03*
X111760000Y-53340000D03*
X111760000Y-52197000D03*
X111760000Y-54483000D03*
X103505000Y-53340000D03*
X104140000Y-48260000D03*
X79883000Y-108204000D03*
X76708000Y-108204000D03*
X91186000Y-108331000D03*
X76708000Y-99441000D03*
X81915000Y-97536000D03*
X103886000Y-92456000D03*
X90424000Y-86741000D03*
X93091000Y-58674000D03*
X99568000Y-71120000D03*
X102108000Y-75184000D03*
X103378000Y-75184000D03*
X100203000Y-67056000D03*
X94234000Y-64262000D03*
X82931000Y-92837000D03*
X92837000Y-75565000D03*
X90297000Y-75565000D03*
X84582000Y-78613000D03*
X96774000Y-80391000D03*
X85979000Y-71120000D03*
D18*
X82804000Y-81534000D03*
X74676000Y-81534000D03*
X74676000Y-87630000D03*
X74676000Y-90424000D03*
X78994000Y-78740000D03*
X81788000Y-88900000D03*
D14*
X103886000Y-88646000D03*
D18*
X101600000Y-97790000D03*
X98044000Y-95250000D03*
X90932000Y-94488000D03*
X99314000Y-93980000D03*
X87376000Y-76708000D03*
X76200000Y-83439000D03*
D14*
X73660000Y-42672000D03*
X67183000Y-48768000D03*
X72898000Y-109093000D03*
X67310000Y-103251000D03*
D18*
X90805000Y-79883000D03*
D14*
%TO.N,Net-(C1-Pad1)*%
X99822000Y-77216000D03*
X106172000Y-99568000D03*
D18*
X103662002Y-97790000D03*
D14*
%TO.N,+5V*%
X99568000Y-73406000D03*
%TO.N,+3V3*%
X94996000Y-90678000D03*
X94234000Y-82296000D03*
X91186000Y-106680000D03*
X83058000Y-73787000D03*
X97028000Y-82677000D03*
X96393000Y-90297000D03*
X86741000Y-93218000D03*
X84074000Y-89027000D03*
X85090000Y-68326000D03*
X94361000Y-71120000D03*
X94361000Y-69723000D03*
X94361000Y-72644000D03*
X96139000Y-64262000D03*
X75057000Y-50038000D03*
X107442000Y-92456000D03*
X84074000Y-73787000D03*
D18*
X86868000Y-90932000D03*
D14*
X103886000Y-70104000D03*
%TO.N,Net-(D1-Pad2)*%
X101346000Y-82169000D03*
D18*
%TO.N,CURR_U*%
X82321587Y-88163587D03*
%TO.N,HALL2*%
X87376000Y-88566400D03*
%TO.N,V_H*%
X90330990Y-93041856D03*
%TO.N,U_L*%
X87630000Y-92456000D03*
%TO.N,W_L*%
X89144976Y-92479213D03*
%TO.N,ENABLE*%
X83096221Y-88202127D03*
%TO.N,HALL3*%
X87643492Y-87919523D03*
X76254436Y-78812532D03*
%TO.N,HALL1*%
X87630000Y-89916000D03*
%TO.N,U_H*%
X89844274Y-92447817D03*
%TO.N,W_H*%
X90678000Y-89916000D03*
%TO.N,V_L*%
X88401041Y-92465041D03*
%TO.N,VBUS_SCALED*%
X84074000Y-88138000D03*
D14*
%TO.N,~RESET*%
X87554607Y-78434393D03*
D18*
%TO.N,~BOOT*%
X93345000Y-86106000D03*
D14*
X93345000Y-101854000D03*
%TO.N,STATUS*%
X75692000Y-53848000D03*
D18*
X92720249Y-84075438D03*
%TO.N,ERR_OUT*%
X90499393Y-85673393D03*
D14*
X77597000Y-57658000D03*
X78070000Y-72644000D03*
D18*
%TO.N,DEBUG_LED*%
X90529291Y-84651281D03*
D14*
X75311000Y-58928000D03*
%TO.N,CAN_TX*%
X99568000Y-85090000D03*
X81026000Y-68326000D03*
%TO.N,CAN_RX*%
X100568003Y-85090000D03*
X86233000Y-65532000D03*
%TO.N,FLASH_CLK*%
X80518000Y-94869000D03*
X80513347Y-87117347D03*
D18*
%TO.N,NTC_PWR*%
X75282500Y-82705500D03*
X75184000Y-85090054D03*
%TO.N,Net-(R7-Pad2)*%
X102409950Y-88947934D03*
X102489000Y-92583000D03*
%TD*%
D19*
%TO.N,GND*%
G36*
X106267330Y-42487161D02*
G01*
X105733161Y-43021330D01*
X105313467Y-43649446D01*
X105024377Y-44347372D01*
X104877000Y-45088285D01*
X104877000Y-45843715D01*
X105024377Y-46584628D01*
X105313467Y-47282554D01*
X105733161Y-47910670D01*
X106267330Y-48444839D01*
X106895446Y-48864533D01*
X107593372Y-49153623D01*
X108334285Y-49301000D01*
X109089715Y-49301000D01*
X109830628Y-49153623D01*
X110528554Y-48864533D01*
X111156670Y-48444839D01*
X111690839Y-47910670D01*
X112091001Y-47311786D01*
X112091000Y-104326213D01*
X111690839Y-103727330D01*
X111156670Y-103193161D01*
X110528554Y-102773467D01*
X109830628Y-102484377D01*
X109089715Y-102337000D01*
X108334285Y-102337000D01*
X107593372Y-102484377D01*
X106895446Y-102773467D01*
X106267330Y-103193161D01*
X105733161Y-103727330D01*
X105313467Y-104355446D01*
X105024377Y-105053372D01*
X104877000Y-105794285D01*
X104877000Y-106549715D01*
X105024377Y-107290628D01*
X105313467Y-107988554D01*
X105733161Y-108616670D01*
X106267330Y-109150839D01*
X106866213Y-109551000D01*
X71949787Y-109551000D01*
X72548670Y-109150839D01*
X73082839Y-108616670D01*
X73502533Y-107988554D01*
X73791623Y-107290628D01*
X73933361Y-106578061D01*
X90151000Y-106578061D01*
X90151000Y-106781939D01*
X90190774Y-106981898D01*
X90268795Y-107170256D01*
X90382063Y-107339774D01*
X90526226Y-107483937D01*
X90695744Y-107597205D01*
X90884102Y-107675226D01*
X91084061Y-107715000D01*
X91287939Y-107715000D01*
X91487898Y-107675226D01*
X91676256Y-107597205D01*
X91845774Y-107483937D01*
X91989937Y-107339774D01*
X92103205Y-107170256D01*
X92181226Y-106981898D01*
X92221000Y-106781939D01*
X92221000Y-106578061D01*
X92181226Y-106378102D01*
X92103205Y-106189744D01*
X91989937Y-106020226D01*
X91845774Y-105876063D01*
X91676256Y-105762795D01*
X91487898Y-105684774D01*
X91287939Y-105645000D01*
X91084061Y-105645000D01*
X90884102Y-105684774D01*
X90695744Y-105762795D01*
X90526226Y-105876063D01*
X90382063Y-106020226D01*
X90268795Y-106189744D01*
X90190774Y-106378102D01*
X90151000Y-106578061D01*
X73933361Y-106578061D01*
X73939000Y-106549715D01*
X73939000Y-105794285D01*
X73791623Y-105053372D01*
X73502533Y-104355446D01*
X73082839Y-103727330D01*
X72548670Y-103193161D01*
X71920554Y-102773467D01*
X71222628Y-102484377D01*
X70481715Y-102337000D01*
X69726285Y-102337000D01*
X68985372Y-102484377D01*
X68287446Y-102773467D01*
X67659330Y-103193161D01*
X67125161Y-103727330D01*
X66725000Y-104326213D01*
X66725000Y-101752061D01*
X92310000Y-101752061D01*
X92310000Y-101955939D01*
X92349774Y-102155898D01*
X92427795Y-102344256D01*
X92541063Y-102513774D01*
X92685226Y-102657937D01*
X92854744Y-102771205D01*
X93043102Y-102849226D01*
X93243061Y-102889000D01*
X93446939Y-102889000D01*
X93646898Y-102849226D01*
X93835256Y-102771205D01*
X94004774Y-102657937D01*
X94148937Y-102513774D01*
X94262205Y-102344256D01*
X94340226Y-102155898D01*
X94380000Y-101955939D01*
X94380000Y-101752061D01*
X94340226Y-101552102D01*
X94262205Y-101363744D01*
X94148937Y-101194226D01*
X94004774Y-101050063D01*
X93835256Y-100936795D01*
X93646898Y-100858774D01*
X93446939Y-100819000D01*
X93243061Y-100819000D01*
X93043102Y-100858774D01*
X92854744Y-100936795D01*
X92685226Y-101050063D01*
X92541063Y-101194226D01*
X92427795Y-101363744D01*
X92349774Y-101552102D01*
X92310000Y-101752061D01*
X66725000Y-101752061D01*
X66725000Y-99466061D01*
X105137000Y-99466061D01*
X105137000Y-99669939D01*
X105176774Y-99869898D01*
X105254795Y-100058256D01*
X105368063Y-100227774D01*
X105512226Y-100371937D01*
X105681744Y-100485205D01*
X105870102Y-100563226D01*
X106070061Y-100603000D01*
X106273939Y-100603000D01*
X106473898Y-100563226D01*
X106662256Y-100485205D01*
X106831774Y-100371937D01*
X106975937Y-100227774D01*
X106988481Y-100209000D01*
X107214000Y-100209000D01*
X107214000Y-100559000D01*
X107261546Y-100787742D01*
X107352804Y-101002813D01*
X107484266Y-101195948D01*
X107650881Y-101359725D01*
X107846246Y-101487850D01*
X108062853Y-101575399D01*
X108089256Y-101575803D01*
X108272000Y-101450361D01*
X108272000Y-100209000D01*
X108526000Y-100209000D01*
X108526000Y-101450361D01*
X108708744Y-101575803D01*
X108735147Y-101575399D01*
X108951754Y-101487850D01*
X109147119Y-101359725D01*
X109313734Y-101195948D01*
X109445196Y-101002813D01*
X109536454Y-100787742D01*
X109584000Y-100559000D01*
X109584000Y-100209000D01*
X108526000Y-100209000D01*
X108272000Y-100209000D01*
X107214000Y-100209000D01*
X106988481Y-100209000D01*
X107089205Y-100058256D01*
X107167226Y-99869898D01*
X107207000Y-99669939D01*
X107207000Y-99605000D01*
X107214000Y-99605000D01*
X107214000Y-99955000D01*
X108272000Y-99955000D01*
X108272000Y-98713639D01*
X108526000Y-98713639D01*
X108526000Y-99955000D01*
X109584000Y-99955000D01*
X109584000Y-99605000D01*
X109536454Y-99376258D01*
X109445196Y-99161187D01*
X109313734Y-98968052D01*
X109147119Y-98804275D01*
X108951754Y-98676150D01*
X108735147Y-98588601D01*
X108708744Y-98588197D01*
X108526000Y-98713639D01*
X108272000Y-98713639D01*
X108089256Y-98588197D01*
X108062853Y-98588601D01*
X107846246Y-98676150D01*
X107650881Y-98804275D01*
X107484266Y-98968052D01*
X107352804Y-99161187D01*
X107261546Y-99376258D01*
X107214000Y-99605000D01*
X107207000Y-99605000D01*
X107207000Y-99466061D01*
X107167226Y-99266102D01*
X107089205Y-99077744D01*
X106975937Y-98908226D01*
X106831774Y-98764063D01*
X106662256Y-98650795D01*
X106473898Y-98572774D01*
X106273939Y-98533000D01*
X106070061Y-98533000D01*
X105870102Y-98572774D01*
X105681744Y-98650795D01*
X105512226Y-98764063D01*
X105368063Y-98908226D01*
X105254795Y-99077744D01*
X105176774Y-99266102D01*
X105137000Y-99466061D01*
X66725000Y-99466061D01*
X66725000Y-97548397D01*
X69001208Y-97548397D01*
X69078843Y-97797472D01*
X69342883Y-97923371D01*
X69626411Y-97995339D01*
X69918531Y-98010611D01*
X70208019Y-97968599D01*
X70483747Y-97870919D01*
X70621157Y-97797472D01*
X70698792Y-97548397D01*
X69850000Y-96699605D01*
X69001208Y-97548397D01*
X66725000Y-97548397D01*
X66725000Y-96588531D01*
X68359389Y-96588531D01*
X68401401Y-96878019D01*
X68499081Y-97153747D01*
X68572528Y-97291157D01*
X68821603Y-97368792D01*
X69670395Y-96520000D01*
X68821603Y-95671208D01*
X68572528Y-95748843D01*
X68446629Y-96012883D01*
X68374661Y-96296411D01*
X68359389Y-96588531D01*
X66725000Y-96588531D01*
X66725000Y-68433740D01*
X68365000Y-68433740D01*
X68365000Y-68726260D01*
X68422068Y-69013158D01*
X68534010Y-69283411D01*
X68696525Y-69526632D01*
X68903368Y-69733475D01*
X69077760Y-69850000D01*
X68903368Y-69966525D01*
X68696525Y-70173368D01*
X68534010Y-70416589D01*
X68422068Y-70686842D01*
X68365000Y-70973740D01*
X68365000Y-71266260D01*
X68422068Y-71553158D01*
X68534010Y-71823411D01*
X68696525Y-72066632D01*
X68903368Y-72273475D01*
X69077760Y-72390000D01*
X68903368Y-72506525D01*
X68696525Y-72713368D01*
X68534010Y-72956589D01*
X68422068Y-73226842D01*
X68365000Y-73513740D01*
X68365000Y-73806260D01*
X68422068Y-74093158D01*
X68534010Y-74363411D01*
X68696525Y-74606632D01*
X68903368Y-74813475D01*
X69077760Y-74930000D01*
X68903368Y-75046525D01*
X68696525Y-75253368D01*
X68534010Y-75496589D01*
X68422068Y-75766842D01*
X68365000Y-76053740D01*
X68365000Y-76346260D01*
X68422068Y-76633158D01*
X68534010Y-76903411D01*
X68696525Y-77146632D01*
X68903368Y-77353475D01*
X69077760Y-77470000D01*
X68903368Y-77586525D01*
X68696525Y-77793368D01*
X68534010Y-78036589D01*
X68422068Y-78306842D01*
X68365000Y-78593740D01*
X68365000Y-78886260D01*
X68422068Y-79173158D01*
X68534010Y-79443411D01*
X68696525Y-79686632D01*
X68903368Y-79893475D01*
X69077760Y-80010000D01*
X68903368Y-80126525D01*
X68696525Y-80333368D01*
X68534010Y-80576589D01*
X68422068Y-80846842D01*
X68365000Y-81133740D01*
X68365000Y-81426260D01*
X68422068Y-81713158D01*
X68534010Y-81983411D01*
X68696525Y-82226632D01*
X68903368Y-82433475D01*
X69077760Y-82550000D01*
X68903368Y-82666525D01*
X68696525Y-82873368D01*
X68534010Y-83116589D01*
X68422068Y-83386842D01*
X68365000Y-83673740D01*
X68365000Y-83966260D01*
X68422068Y-84253158D01*
X68534010Y-84523411D01*
X68696525Y-84766632D01*
X68903368Y-84973475D01*
X69077760Y-85090000D01*
X68903368Y-85206525D01*
X68696525Y-85413368D01*
X68534010Y-85656589D01*
X68422068Y-85926842D01*
X68365000Y-86213740D01*
X68365000Y-86506260D01*
X68422068Y-86793158D01*
X68534010Y-87063411D01*
X68696525Y-87306632D01*
X68903368Y-87513475D01*
X69077760Y-87630000D01*
X68903368Y-87746525D01*
X68696525Y-87953368D01*
X68534010Y-88196589D01*
X68422068Y-88466842D01*
X68365000Y-88753740D01*
X68365000Y-89046260D01*
X68422068Y-89333158D01*
X68534010Y-89603411D01*
X68696525Y-89846632D01*
X68903368Y-90053475D01*
X69077760Y-90170000D01*
X68903368Y-90286525D01*
X68696525Y-90493368D01*
X68534010Y-90736589D01*
X68422068Y-91006842D01*
X68365000Y-91293740D01*
X68365000Y-91586260D01*
X68422068Y-91873158D01*
X68534010Y-92143411D01*
X68696525Y-92386632D01*
X68903368Y-92593475D01*
X69077760Y-92710000D01*
X68903368Y-92826525D01*
X68696525Y-93033368D01*
X68534010Y-93276589D01*
X68422068Y-93546842D01*
X68365000Y-93833740D01*
X68365000Y-94126260D01*
X68422068Y-94413158D01*
X68534010Y-94683411D01*
X68696525Y-94926632D01*
X68903368Y-95133475D01*
X69076729Y-95249311D01*
X69001208Y-95491603D01*
X69850000Y-96340395D01*
X70698792Y-95491603D01*
X70623271Y-95249311D01*
X70796632Y-95133475D01*
X71003475Y-94926632D01*
X71120000Y-94752240D01*
X71236525Y-94926632D01*
X71368380Y-95058487D01*
X71295820Y-95080498D01*
X71185506Y-95139463D01*
X71088815Y-95218815D01*
X71009463Y-95315506D01*
X70950498Y-95425820D01*
X70914188Y-95545518D01*
X70901928Y-95670000D01*
X70901975Y-95678557D01*
X70878397Y-95671208D01*
X70029605Y-96520000D01*
X70878397Y-97368792D01*
X70901975Y-97361443D01*
X70901928Y-97370000D01*
X70914188Y-97494482D01*
X70950498Y-97614180D01*
X71009463Y-97724494D01*
X71088815Y-97821185D01*
X71185506Y-97900537D01*
X71295820Y-97959502D01*
X71415518Y-97995812D01*
X71540000Y-98008072D01*
X72104250Y-98005000D01*
X72263000Y-97846250D01*
X72263000Y-96647000D01*
X72517000Y-96647000D01*
X72517000Y-97846250D01*
X72675750Y-98005000D01*
X73240000Y-98008072D01*
X73364482Y-97995812D01*
X73484180Y-97959502D01*
X73594494Y-97900537D01*
X73691185Y-97821185D01*
X73770537Y-97724494D01*
X73782114Y-97702835D01*
X102777002Y-97702835D01*
X102777002Y-97877165D01*
X102811012Y-98048145D01*
X102877725Y-98209205D01*
X102974578Y-98354155D01*
X103097847Y-98477424D01*
X103242797Y-98574277D01*
X103403857Y-98640990D01*
X103574837Y-98675000D01*
X103749167Y-98675000D01*
X103920147Y-98640990D01*
X104081207Y-98574277D01*
X104226157Y-98477424D01*
X104349426Y-98354155D01*
X104446279Y-98209205D01*
X104512992Y-98048145D01*
X104547002Y-97877165D01*
X104547002Y-97702835D01*
X104512992Y-97531855D01*
X104462104Y-97409000D01*
X109364000Y-97409000D01*
X109364000Y-97959000D01*
X109411546Y-98187742D01*
X109502804Y-98402813D01*
X109634266Y-98595948D01*
X109800881Y-98759725D01*
X109996246Y-98887850D01*
X110212853Y-98975399D01*
X110239256Y-98975803D01*
X110422000Y-98850361D01*
X110422000Y-97409000D01*
X110676000Y-97409000D01*
X110676000Y-98850361D01*
X110858744Y-98975803D01*
X110885147Y-98975399D01*
X111101754Y-98887850D01*
X111297119Y-98759725D01*
X111463734Y-98595948D01*
X111595196Y-98402813D01*
X111686454Y-98187742D01*
X111734000Y-97959000D01*
X111734000Y-97409000D01*
X110676000Y-97409000D01*
X110422000Y-97409000D01*
X109364000Y-97409000D01*
X104462104Y-97409000D01*
X104446279Y-97370795D01*
X104349426Y-97225845D01*
X104226157Y-97102576D01*
X104081207Y-97005723D01*
X103920147Y-96939010D01*
X103749167Y-96905000D01*
X103574837Y-96905000D01*
X103403857Y-96939010D01*
X103242797Y-97005723D01*
X103097847Y-97102576D01*
X102974578Y-97225845D01*
X102877725Y-97370795D01*
X102811012Y-97531855D01*
X102777002Y-97702835D01*
X73782114Y-97702835D01*
X73829502Y-97614180D01*
X73865812Y-97494482D01*
X73878072Y-97370000D01*
X73875000Y-96805750D01*
X73716250Y-96647000D01*
X72517000Y-96647000D01*
X72263000Y-96647000D01*
X72243000Y-96647000D01*
X72243000Y-96605000D01*
X109364000Y-96605000D01*
X109364000Y-97155000D01*
X110422000Y-97155000D01*
X110422000Y-95713639D01*
X110676000Y-95713639D01*
X110676000Y-97155000D01*
X111734000Y-97155000D01*
X111734000Y-96605000D01*
X111686454Y-96376258D01*
X111595196Y-96161187D01*
X111463734Y-95968052D01*
X111297119Y-95804275D01*
X111101754Y-95676150D01*
X110885147Y-95588601D01*
X110858744Y-95588197D01*
X110676000Y-95713639D01*
X110422000Y-95713639D01*
X110239256Y-95588197D01*
X110212853Y-95588601D01*
X109996246Y-95676150D01*
X109800881Y-95804275D01*
X109634266Y-95968052D01*
X109502804Y-96161187D01*
X109411546Y-96376258D01*
X109364000Y-96605000D01*
X72243000Y-96605000D01*
X72243000Y-96393000D01*
X72263000Y-96393000D01*
X72263000Y-96373000D01*
X72517000Y-96373000D01*
X72517000Y-96393000D01*
X73716250Y-96393000D01*
X73875000Y-96234250D01*
X73878072Y-95670000D01*
X73865812Y-95545518D01*
X73829502Y-95425820D01*
X73770537Y-95315506D01*
X73691185Y-95218815D01*
X73594494Y-95139463D01*
X73484180Y-95080498D01*
X73411620Y-95058487D01*
X73543475Y-94926632D01*
X73650096Y-94767061D01*
X79483000Y-94767061D01*
X79483000Y-94970939D01*
X79522774Y-95170898D01*
X79600795Y-95359256D01*
X79714063Y-95528774D01*
X79858226Y-95672937D01*
X80027744Y-95786205D01*
X80216102Y-95864226D01*
X80416061Y-95904000D01*
X80619939Y-95904000D01*
X80819898Y-95864226D01*
X81008256Y-95786205D01*
X81177774Y-95672937D01*
X81321937Y-95528774D01*
X81435205Y-95359256D01*
X81513226Y-95170898D01*
X81553000Y-94970939D01*
X81553000Y-94767061D01*
X81521560Y-94609000D01*
X107214000Y-94609000D01*
X107214000Y-94959000D01*
X107261546Y-95187742D01*
X107352804Y-95402813D01*
X107484266Y-95595948D01*
X107650881Y-95759725D01*
X107846246Y-95887850D01*
X108062853Y-95975399D01*
X108089256Y-95975803D01*
X108272000Y-95850361D01*
X108272000Y-94609000D01*
X108526000Y-94609000D01*
X108526000Y-95850361D01*
X108708744Y-95975803D01*
X108735147Y-95975399D01*
X108951754Y-95887850D01*
X109147119Y-95759725D01*
X109313734Y-95595948D01*
X109445196Y-95402813D01*
X109536454Y-95187742D01*
X109584000Y-94959000D01*
X109584000Y-94609000D01*
X108526000Y-94609000D01*
X108272000Y-94609000D01*
X107214000Y-94609000D01*
X81521560Y-94609000D01*
X81513226Y-94567102D01*
X81435205Y-94378744D01*
X81321937Y-94209226D01*
X81177774Y-94065063D01*
X81008256Y-93951795D01*
X80819898Y-93873774D01*
X80619939Y-93834000D01*
X80416061Y-93834000D01*
X80216102Y-93873774D01*
X80027744Y-93951795D01*
X79858226Y-94065063D01*
X79714063Y-94209226D01*
X79600795Y-94378744D01*
X79522774Y-94567102D01*
X79483000Y-94767061D01*
X73650096Y-94767061D01*
X73705990Y-94683411D01*
X73817932Y-94413158D01*
X73875000Y-94126260D01*
X73875000Y-93833740D01*
X73817932Y-93546842D01*
X73705990Y-93276589D01*
X73598729Y-93116061D01*
X85706000Y-93116061D01*
X85706000Y-93319939D01*
X85745774Y-93519898D01*
X85823795Y-93708256D01*
X85937063Y-93877774D01*
X86081226Y-94021937D01*
X86250744Y-94135205D01*
X86439102Y-94213226D01*
X86639061Y-94253000D01*
X86842939Y-94253000D01*
X87042898Y-94213226D01*
X87231256Y-94135205D01*
X87400774Y-94021937D01*
X87544937Y-93877774D01*
X87658205Y-93708256D01*
X87736226Y-93519898D01*
X87774062Y-93329683D01*
X87888145Y-93306990D01*
X88004607Y-93258750D01*
X88142896Y-93316031D01*
X88313876Y-93350041D01*
X88488206Y-93350041D01*
X88659186Y-93316031D01*
X88755901Y-93275970D01*
X88886831Y-93330203D01*
X89057811Y-93364213D01*
X89232141Y-93364213D01*
X89403121Y-93330203D01*
X89479698Y-93298484D01*
X89480000Y-93300001D01*
X89546713Y-93461061D01*
X89643566Y-93606011D01*
X89766835Y-93729280D01*
X89911785Y-93826133D01*
X90072845Y-93892846D01*
X90243825Y-93926856D01*
X90418155Y-93926856D01*
X90589135Y-93892846D01*
X90750195Y-93826133D01*
X90895145Y-93729280D01*
X91018414Y-93606011D01*
X91115267Y-93461061D01*
X91181980Y-93300001D01*
X91215990Y-93129021D01*
X91215990Y-92954691D01*
X91181980Y-92783711D01*
X91115267Y-92622651D01*
X91030531Y-92495835D01*
X101604000Y-92495835D01*
X101604000Y-92670165D01*
X101638010Y-92841145D01*
X101704723Y-93002205D01*
X101801576Y-93147155D01*
X101924845Y-93270424D01*
X102069795Y-93367277D01*
X102230855Y-93433990D01*
X102401835Y-93468000D01*
X102576165Y-93468000D01*
X102747145Y-93433990D01*
X102908205Y-93367277D01*
X103053155Y-93270424D01*
X103176424Y-93147155D01*
X103273277Y-93002205D01*
X103339990Y-92841145D01*
X103374000Y-92670165D01*
X103374000Y-92495835D01*
X103345800Y-92354061D01*
X106407000Y-92354061D01*
X106407000Y-92557939D01*
X106446774Y-92757898D01*
X106524795Y-92946256D01*
X106638063Y-93115774D01*
X106782226Y-93259937D01*
X106951744Y-93373205D01*
X107140102Y-93451226D01*
X107340061Y-93491000D01*
X107400578Y-93491000D01*
X107352804Y-93561187D01*
X107261546Y-93776258D01*
X107214000Y-94005000D01*
X107214000Y-94355000D01*
X108272000Y-94355000D01*
X108272000Y-93113639D01*
X108526000Y-93113639D01*
X108526000Y-94355000D01*
X109584000Y-94355000D01*
X109584000Y-94005000D01*
X109536454Y-93776258D01*
X109445196Y-93561187D01*
X109313734Y-93368052D01*
X109147119Y-93204275D01*
X108951754Y-93076150D01*
X108735147Y-92988601D01*
X108708744Y-92988197D01*
X108526000Y-93113639D01*
X108272000Y-93113639D01*
X108255110Y-93102045D01*
X108359205Y-92946256D01*
X108437226Y-92757898D01*
X108477000Y-92557939D01*
X108477000Y-92354061D01*
X108437226Y-92154102D01*
X108359205Y-91965744D01*
X108245937Y-91796226D01*
X108101774Y-91652063D01*
X107932256Y-91538795D01*
X107743898Y-91460774D01*
X107543939Y-91421000D01*
X107340061Y-91421000D01*
X107140102Y-91460774D01*
X106951744Y-91538795D01*
X106782226Y-91652063D01*
X106638063Y-91796226D01*
X106524795Y-91965744D01*
X106446774Y-92154102D01*
X106407000Y-92354061D01*
X103345800Y-92354061D01*
X103339990Y-92324855D01*
X103273277Y-92163795D01*
X103176424Y-92018845D01*
X103053155Y-91895576D01*
X102908205Y-91798723D01*
X102747145Y-91732010D01*
X102576165Y-91698000D01*
X102401835Y-91698000D01*
X102230855Y-91732010D01*
X102069795Y-91798723D01*
X101924845Y-91895576D01*
X101801576Y-92018845D01*
X101704723Y-92163795D01*
X101638010Y-92324855D01*
X101604000Y-92495835D01*
X91030531Y-92495835D01*
X91018414Y-92477701D01*
X90895145Y-92354432D01*
X90750195Y-92257579D01*
X90705052Y-92238880D01*
X90695264Y-92189672D01*
X90628551Y-92028612D01*
X90531698Y-91883662D01*
X90408429Y-91760393D01*
X90263479Y-91663540D01*
X90102419Y-91596827D01*
X89931439Y-91562817D01*
X89757109Y-91562817D01*
X89586129Y-91596827D01*
X89456727Y-91650427D01*
X89403121Y-91628223D01*
X89232141Y-91594213D01*
X89057811Y-91594213D01*
X88886831Y-91628223D01*
X88790116Y-91668284D01*
X88659186Y-91614051D01*
X88488206Y-91580041D01*
X88313876Y-91580041D01*
X88142896Y-91614051D01*
X88026434Y-91662291D01*
X87888145Y-91605010D01*
X87717165Y-91571000D01*
X87542835Y-91571000D01*
X87465121Y-91586458D01*
X87555424Y-91496155D01*
X87652277Y-91351205D01*
X87718990Y-91190145D01*
X87753000Y-91019165D01*
X87753000Y-90844835D01*
X87743249Y-90795812D01*
X87888145Y-90766990D01*
X88049205Y-90700277D01*
X88194155Y-90603424D01*
X88317424Y-90480155D01*
X88414277Y-90335205D01*
X88480990Y-90174145D01*
X88515000Y-90003165D01*
X88515000Y-89828835D01*
X89793000Y-89828835D01*
X89793000Y-90003165D01*
X89827010Y-90174145D01*
X89893723Y-90335205D01*
X89990576Y-90480155D01*
X90113845Y-90603424D01*
X90258795Y-90700277D01*
X90419855Y-90766990D01*
X90590835Y-90801000D01*
X90765165Y-90801000D01*
X90936145Y-90766990D01*
X91097205Y-90700277D01*
X91242155Y-90603424D01*
X91269518Y-90576061D01*
X93961000Y-90576061D01*
X93961000Y-90779939D01*
X94000774Y-90979898D01*
X94078795Y-91168256D01*
X94192063Y-91337774D01*
X94336226Y-91481937D01*
X94505744Y-91595205D01*
X94694102Y-91673226D01*
X94894061Y-91713000D01*
X95097939Y-91713000D01*
X95297898Y-91673226D01*
X95486256Y-91595205D01*
X95655774Y-91481937D01*
X95799937Y-91337774D01*
X95888750Y-91204855D01*
X95902744Y-91214205D01*
X96091102Y-91292226D01*
X96291061Y-91332000D01*
X96494939Y-91332000D01*
X96694898Y-91292226D01*
X96883256Y-91214205D01*
X97052774Y-91100937D01*
X97196937Y-90956774D01*
X97310205Y-90787256D01*
X97388226Y-90598898D01*
X97428000Y-90398939D01*
X97428000Y-90195061D01*
X97388226Y-89995102D01*
X97310205Y-89806744D01*
X97196937Y-89637226D01*
X97052774Y-89493063D01*
X96883256Y-89379795D01*
X96694898Y-89301774D01*
X96494939Y-89262000D01*
X96291061Y-89262000D01*
X96091102Y-89301774D01*
X95902744Y-89379795D01*
X95733226Y-89493063D01*
X95589063Y-89637226D01*
X95500250Y-89770145D01*
X95486256Y-89760795D01*
X95297898Y-89682774D01*
X95097939Y-89643000D01*
X94894061Y-89643000D01*
X94694102Y-89682774D01*
X94505744Y-89760795D01*
X94336226Y-89874063D01*
X94192063Y-90018226D01*
X94078795Y-90187744D01*
X94000774Y-90376102D01*
X93961000Y-90576061D01*
X91269518Y-90576061D01*
X91365424Y-90480155D01*
X91462277Y-90335205D01*
X91528990Y-90174145D01*
X91563000Y-90003165D01*
X91563000Y-89828835D01*
X91528990Y-89657855D01*
X91462277Y-89496795D01*
X91365424Y-89351845D01*
X91242155Y-89228576D01*
X91097205Y-89131723D01*
X90936145Y-89065010D01*
X90765165Y-89031000D01*
X90590835Y-89031000D01*
X90419855Y-89065010D01*
X90258795Y-89131723D01*
X90113845Y-89228576D01*
X89990576Y-89351845D01*
X89893723Y-89496795D01*
X89827010Y-89657855D01*
X89793000Y-89828835D01*
X88515000Y-89828835D01*
X88480990Y-89657855D01*
X88414277Y-89496795D01*
X88317424Y-89351845D01*
X88194155Y-89228576D01*
X88057028Y-89136951D01*
X88063424Y-89130555D01*
X88160277Y-88985605D01*
X88211985Y-88860769D01*
X101524950Y-88860769D01*
X101524950Y-89035099D01*
X101558960Y-89206079D01*
X101625673Y-89367139D01*
X101722526Y-89512089D01*
X101845795Y-89635358D01*
X101990745Y-89732211D01*
X102151805Y-89798924D01*
X102322785Y-89832934D01*
X102497115Y-89832934D01*
X102668095Y-89798924D01*
X102829155Y-89732211D01*
X102974105Y-89635358D01*
X103097374Y-89512089D01*
X103194227Y-89367139D01*
X103260940Y-89206079D01*
X103294950Y-89035099D01*
X103294950Y-88860769D01*
X103260940Y-88689789D01*
X103194227Y-88528729D01*
X103097374Y-88383779D01*
X102974105Y-88260510D01*
X102829155Y-88163657D01*
X102668095Y-88096944D01*
X102497115Y-88062934D01*
X102322785Y-88062934D01*
X102151805Y-88096944D01*
X101990745Y-88163657D01*
X101845795Y-88260510D01*
X101722526Y-88383779D01*
X101625673Y-88528729D01*
X101558960Y-88689789D01*
X101524950Y-88860769D01*
X88211985Y-88860769D01*
X88226990Y-88824545D01*
X88261000Y-88653565D01*
X88261000Y-88553594D01*
X88330916Y-88483678D01*
X88427769Y-88338728D01*
X88494482Y-88177668D01*
X88528492Y-88006688D01*
X88528492Y-87832358D01*
X88494482Y-87661378D01*
X88427769Y-87500318D01*
X88330916Y-87355368D01*
X88207647Y-87232099D01*
X88062697Y-87135246D01*
X87901637Y-87068533D01*
X87730657Y-87034523D01*
X87556327Y-87034523D01*
X87385347Y-87068533D01*
X87224287Y-87135246D01*
X87079337Y-87232099D01*
X86956068Y-87355368D01*
X86859215Y-87500318D01*
X86792502Y-87661378D01*
X86758492Y-87832358D01*
X86758492Y-87932329D01*
X86688576Y-88002245D01*
X86591723Y-88147195D01*
X86525010Y-88308255D01*
X86491000Y-88479235D01*
X86491000Y-88653565D01*
X86525010Y-88824545D01*
X86591723Y-88985605D01*
X86688576Y-89130555D01*
X86811845Y-89253824D01*
X86948972Y-89345449D01*
X86942576Y-89351845D01*
X86845723Y-89496795D01*
X86779010Y-89657855D01*
X86745000Y-89828835D01*
X86745000Y-90003165D01*
X86754751Y-90052188D01*
X86609855Y-90081010D01*
X86448795Y-90147723D01*
X86303845Y-90244576D01*
X86180576Y-90367845D01*
X86083723Y-90512795D01*
X86017010Y-90673855D01*
X85983000Y-90844835D01*
X85983000Y-91019165D01*
X86017010Y-91190145D01*
X86083723Y-91351205D01*
X86180576Y-91496155D01*
X86303845Y-91619424D01*
X86448795Y-91716277D01*
X86609855Y-91782990D01*
X86780835Y-91817000D01*
X86955165Y-91817000D01*
X87032879Y-91801542D01*
X86942576Y-91891845D01*
X86845723Y-92036795D01*
X86785163Y-92183000D01*
X86639061Y-92183000D01*
X86439102Y-92222774D01*
X86250744Y-92300795D01*
X86081226Y-92414063D01*
X85937063Y-92558226D01*
X85823795Y-92727744D01*
X85745774Y-92916102D01*
X85706000Y-93116061D01*
X73598729Y-93116061D01*
X73543475Y-93033368D01*
X73336632Y-92826525D01*
X73162240Y-92710000D01*
X73336632Y-92593475D01*
X73543475Y-92386632D01*
X73705990Y-92143411D01*
X73817932Y-91873158D01*
X73875000Y-91586260D01*
X73875000Y-91293740D01*
X73817932Y-91006842D01*
X73705990Y-90736589D01*
X73543475Y-90493368D01*
X73336632Y-90286525D01*
X73162240Y-90170000D01*
X73336632Y-90053475D01*
X73543475Y-89846632D01*
X73705990Y-89603411D01*
X73817932Y-89333158D01*
X73875000Y-89046260D01*
X73875000Y-88753740D01*
X73817932Y-88466842D01*
X73705990Y-88196589D01*
X73543475Y-87953368D01*
X73336632Y-87746525D01*
X73162240Y-87630000D01*
X73336632Y-87513475D01*
X73543475Y-87306632D01*
X73705990Y-87063411D01*
X73725873Y-87015408D01*
X79478347Y-87015408D01*
X79478347Y-87219286D01*
X79518121Y-87419245D01*
X79596142Y-87607603D01*
X79709410Y-87777121D01*
X79853573Y-87921284D01*
X80023091Y-88034552D01*
X80211449Y-88112573D01*
X80411408Y-88152347D01*
X80615286Y-88152347D01*
X80815245Y-88112573D01*
X80902520Y-88076422D01*
X81436587Y-88076422D01*
X81436587Y-88250752D01*
X81470597Y-88421732D01*
X81537310Y-88582792D01*
X81634163Y-88727742D01*
X81757432Y-88851011D01*
X81902382Y-88947864D01*
X82063442Y-89014577D01*
X82234422Y-89048587D01*
X82408752Y-89048587D01*
X82579732Y-89014577D01*
X82665816Y-88978920D01*
X82677016Y-88986404D01*
X82838076Y-89053117D01*
X83009056Y-89087127D01*
X83039000Y-89087127D01*
X83039000Y-89128939D01*
X83078774Y-89328898D01*
X83156795Y-89517256D01*
X83270063Y-89686774D01*
X83414226Y-89830937D01*
X83583744Y-89944205D01*
X83772102Y-90022226D01*
X83972061Y-90062000D01*
X84175939Y-90062000D01*
X84375898Y-90022226D01*
X84564256Y-89944205D01*
X84733774Y-89830937D01*
X84877937Y-89686774D01*
X84991205Y-89517256D01*
X85069226Y-89328898D01*
X85109000Y-89128939D01*
X85109000Y-88925061D01*
X85069226Y-88725102D01*
X84991205Y-88536744D01*
X84914378Y-88421764D01*
X84924990Y-88396145D01*
X84959000Y-88225165D01*
X84959000Y-88050835D01*
X84924990Y-87879855D01*
X84858277Y-87718795D01*
X84761424Y-87573845D01*
X84638155Y-87450576D01*
X84493205Y-87353723D01*
X84332145Y-87287010D01*
X84161165Y-87253000D01*
X83986835Y-87253000D01*
X83815855Y-87287010D01*
X83654795Y-87353723D01*
X83537124Y-87432348D01*
X83515426Y-87417850D01*
X83354366Y-87351137D01*
X83183386Y-87317127D01*
X83009056Y-87317127D01*
X82838076Y-87351137D01*
X82751992Y-87386794D01*
X82740792Y-87379310D01*
X82579732Y-87312597D01*
X82408752Y-87278587D01*
X82234422Y-87278587D01*
X82063442Y-87312597D01*
X81902382Y-87379310D01*
X81757432Y-87476163D01*
X81634163Y-87599432D01*
X81537310Y-87744382D01*
X81470597Y-87905442D01*
X81436587Y-88076422D01*
X80902520Y-88076422D01*
X81003603Y-88034552D01*
X81173121Y-87921284D01*
X81317284Y-87777121D01*
X81430552Y-87607603D01*
X81508573Y-87419245D01*
X81548347Y-87219286D01*
X81548347Y-87015408D01*
X81508573Y-86815449D01*
X81430552Y-86627091D01*
X81317284Y-86457573D01*
X81173121Y-86313410D01*
X81003603Y-86200142D01*
X80815245Y-86122121D01*
X80615286Y-86082347D01*
X80411408Y-86082347D01*
X80211449Y-86122121D01*
X80023091Y-86200142D01*
X79853573Y-86313410D01*
X79709410Y-86457573D01*
X79596142Y-86627091D01*
X79518121Y-86815449D01*
X79478347Y-87015408D01*
X73725873Y-87015408D01*
X73817932Y-86793158D01*
X73875000Y-86506260D01*
X73875000Y-86213740D01*
X73817932Y-85926842D01*
X73705990Y-85656589D01*
X73543475Y-85413368D01*
X73336632Y-85206525D01*
X73162240Y-85090000D01*
X73292610Y-85002889D01*
X74299000Y-85002889D01*
X74299000Y-85177219D01*
X74333010Y-85348199D01*
X74399723Y-85509259D01*
X74496576Y-85654209D01*
X74619845Y-85777478D01*
X74764795Y-85874331D01*
X74925855Y-85941044D01*
X75096835Y-85975054D01*
X75271165Y-85975054D01*
X75442145Y-85941044D01*
X75603205Y-85874331D01*
X75748155Y-85777478D01*
X75871424Y-85654209D01*
X75916847Y-85586228D01*
X89614393Y-85586228D01*
X89614393Y-85760558D01*
X89648403Y-85931538D01*
X89715116Y-86092598D01*
X89811969Y-86237548D01*
X89935238Y-86360817D01*
X90080188Y-86457670D01*
X90241248Y-86524383D01*
X90412228Y-86558393D01*
X90586558Y-86558393D01*
X90757538Y-86524383D01*
X90918598Y-86457670D01*
X91063548Y-86360817D01*
X91186817Y-86237548D01*
X91283670Y-86092598D01*
X91314223Y-86018835D01*
X92460000Y-86018835D01*
X92460000Y-86193165D01*
X92494010Y-86364145D01*
X92560723Y-86525205D01*
X92657576Y-86670155D01*
X92780845Y-86793424D01*
X92925795Y-86890277D01*
X93086855Y-86956990D01*
X93257835Y-86991000D01*
X93432165Y-86991000D01*
X93603145Y-86956990D01*
X93764205Y-86890277D01*
X93909155Y-86793424D01*
X94032424Y-86670155D01*
X94129277Y-86525205D01*
X94195990Y-86364145D01*
X94225907Y-86213740D01*
X106211000Y-86213740D01*
X106211000Y-86506260D01*
X106268068Y-86793158D01*
X106380010Y-87063411D01*
X106542525Y-87306632D01*
X106749368Y-87513475D01*
X106923760Y-87630000D01*
X106749368Y-87746525D01*
X106542525Y-87953368D01*
X106380010Y-88196589D01*
X106268068Y-88466842D01*
X106211000Y-88753740D01*
X106211000Y-89046260D01*
X106268068Y-89333158D01*
X106380010Y-89603411D01*
X106542525Y-89846632D01*
X106749368Y-90053475D01*
X106992589Y-90215990D01*
X107262842Y-90327932D01*
X107549740Y-90385000D01*
X107842260Y-90385000D01*
X108129158Y-90327932D01*
X108399411Y-90215990D01*
X108642632Y-90053475D01*
X108774487Y-89921620D01*
X108796498Y-89994180D01*
X108855463Y-90104494D01*
X108934815Y-90201185D01*
X109031506Y-90280537D01*
X109141820Y-90339502D01*
X109261518Y-90375812D01*
X109386000Y-90388072D01*
X111086000Y-90388072D01*
X111210482Y-90375812D01*
X111330180Y-90339502D01*
X111440494Y-90280537D01*
X111537185Y-90201185D01*
X111616537Y-90104494D01*
X111675502Y-89994180D01*
X111711812Y-89874482D01*
X111724072Y-89750000D01*
X111724072Y-88050000D01*
X111711812Y-87925518D01*
X111675502Y-87805820D01*
X111616537Y-87695506D01*
X111537185Y-87598815D01*
X111440494Y-87519463D01*
X111330180Y-87460498D01*
X111257620Y-87438487D01*
X111389475Y-87306632D01*
X111551990Y-87063411D01*
X111663932Y-86793158D01*
X111721000Y-86506260D01*
X111721000Y-86213740D01*
X111663932Y-85926842D01*
X111551990Y-85656589D01*
X111389475Y-85413368D01*
X111182632Y-85206525D01*
X111000466Y-85084805D01*
X111117355Y-85015178D01*
X111333588Y-84820269D01*
X111507641Y-84586920D01*
X111632825Y-84324099D01*
X111677476Y-84176890D01*
X111556155Y-83947000D01*
X110363000Y-83947000D01*
X110363000Y-83967000D01*
X110109000Y-83967000D01*
X110109000Y-83947000D01*
X107823000Y-83947000D01*
X107823000Y-83967000D01*
X107569000Y-83967000D01*
X107569000Y-83947000D01*
X106375845Y-83947000D01*
X106254524Y-84176890D01*
X106299175Y-84324099D01*
X106424359Y-84586920D01*
X106598412Y-84820269D01*
X106814645Y-85015178D01*
X106931534Y-85084805D01*
X106749368Y-85206525D01*
X106542525Y-85413368D01*
X106380010Y-85656589D01*
X106268068Y-85926842D01*
X106211000Y-86213740D01*
X94225907Y-86213740D01*
X94230000Y-86193165D01*
X94230000Y-86018835D01*
X94195990Y-85847855D01*
X94129277Y-85686795D01*
X94032424Y-85541845D01*
X93909155Y-85418576D01*
X93764205Y-85321723D01*
X93603145Y-85255010D01*
X93432165Y-85221000D01*
X93257835Y-85221000D01*
X93086855Y-85255010D01*
X92925795Y-85321723D01*
X92780845Y-85418576D01*
X92657576Y-85541845D01*
X92560723Y-85686795D01*
X92494010Y-85847855D01*
X92460000Y-86018835D01*
X91314223Y-86018835D01*
X91350383Y-85931538D01*
X91384393Y-85760558D01*
X91384393Y-85586228D01*
X91350383Y-85415248D01*
X91283670Y-85254188D01*
X91237246Y-85184710D01*
X91313568Y-85070486D01*
X91347709Y-84988061D01*
X98533000Y-84988061D01*
X98533000Y-85191939D01*
X98572774Y-85391898D01*
X98650795Y-85580256D01*
X98764063Y-85749774D01*
X98908226Y-85893937D01*
X99077744Y-86007205D01*
X99266102Y-86085226D01*
X99466061Y-86125000D01*
X99669939Y-86125000D01*
X99869898Y-86085226D01*
X100058256Y-86007205D01*
X100068002Y-86000693D01*
X100077747Y-86007205D01*
X100266105Y-86085226D01*
X100466064Y-86125000D01*
X100669942Y-86125000D01*
X100869901Y-86085226D01*
X101058259Y-86007205D01*
X101227777Y-85893937D01*
X101371940Y-85749774D01*
X101485208Y-85580256D01*
X101563229Y-85391898D01*
X101603003Y-85191939D01*
X101603003Y-84988061D01*
X101563229Y-84788102D01*
X101485208Y-84599744D01*
X101371940Y-84430226D01*
X101227777Y-84286063D01*
X101058259Y-84172795D01*
X100869901Y-84094774D01*
X100669942Y-84055000D01*
X100466064Y-84055000D01*
X100266105Y-84094774D01*
X100077747Y-84172795D01*
X100068002Y-84179307D01*
X100058256Y-84172795D01*
X99869898Y-84094774D01*
X99669939Y-84055000D01*
X99466061Y-84055000D01*
X99266102Y-84094774D01*
X99077744Y-84172795D01*
X98908226Y-84286063D01*
X98764063Y-84430226D01*
X98650795Y-84599744D01*
X98572774Y-84788102D01*
X98533000Y-84988061D01*
X91347709Y-84988061D01*
X91380281Y-84909426D01*
X91414291Y-84738446D01*
X91414291Y-84564116D01*
X91380281Y-84393136D01*
X91313568Y-84232076D01*
X91216715Y-84087126D01*
X91117862Y-83988273D01*
X91835249Y-83988273D01*
X91835249Y-84162603D01*
X91869259Y-84333583D01*
X91935972Y-84494643D01*
X92032825Y-84639593D01*
X92156094Y-84762862D01*
X92301044Y-84859715D01*
X92462104Y-84926428D01*
X92633084Y-84960438D01*
X92807414Y-84960438D01*
X92978394Y-84926428D01*
X93139454Y-84859715D01*
X93284404Y-84762862D01*
X93407673Y-84639593D01*
X93504526Y-84494643D01*
X93571239Y-84333583D01*
X93605249Y-84162603D01*
X93605249Y-83988273D01*
X93571239Y-83817293D01*
X93504526Y-83656233D01*
X93407673Y-83511283D01*
X93284404Y-83388014D01*
X93139454Y-83291161D01*
X92978394Y-83224448D01*
X92807414Y-83190438D01*
X92633084Y-83190438D01*
X92462104Y-83224448D01*
X92301044Y-83291161D01*
X92156094Y-83388014D01*
X92032825Y-83511283D01*
X91935972Y-83656233D01*
X91869259Y-83817293D01*
X91835249Y-83988273D01*
X91117862Y-83988273D01*
X91093446Y-83963857D01*
X90948496Y-83867004D01*
X90787436Y-83800291D01*
X90616456Y-83766281D01*
X90442126Y-83766281D01*
X90271146Y-83800291D01*
X90110086Y-83867004D01*
X89965136Y-83963857D01*
X89841867Y-84087126D01*
X89745014Y-84232076D01*
X89678301Y-84393136D01*
X89644291Y-84564116D01*
X89644291Y-84738446D01*
X89678301Y-84909426D01*
X89745014Y-85070486D01*
X89791438Y-85139964D01*
X89715116Y-85254188D01*
X89648403Y-85415248D01*
X89614393Y-85586228D01*
X75916847Y-85586228D01*
X75968277Y-85509259D01*
X76034990Y-85348199D01*
X76069000Y-85177219D01*
X76069000Y-85002889D01*
X76034990Y-84831909D01*
X75968277Y-84670849D01*
X75871424Y-84525899D01*
X75748155Y-84402630D01*
X75603205Y-84305777D01*
X75442145Y-84239064D01*
X75271165Y-84205054D01*
X75096835Y-84205054D01*
X74925855Y-84239064D01*
X74764795Y-84305777D01*
X74619845Y-84402630D01*
X74496576Y-84525899D01*
X74399723Y-84670849D01*
X74333010Y-84831909D01*
X74299000Y-85002889D01*
X73292610Y-85002889D01*
X73336632Y-84973475D01*
X73543475Y-84766632D01*
X73705990Y-84523411D01*
X73817932Y-84253158D01*
X73875000Y-83966260D01*
X73875000Y-83673740D01*
X73817932Y-83386842D01*
X73705990Y-83116589D01*
X73543475Y-82873368D01*
X73336632Y-82666525D01*
X73264511Y-82618335D01*
X74397500Y-82618335D01*
X74397500Y-82792665D01*
X74431510Y-82963645D01*
X74498223Y-83124705D01*
X74595076Y-83269655D01*
X74718345Y-83392924D01*
X74863295Y-83489777D01*
X75024355Y-83556490D01*
X75195335Y-83590500D01*
X75369665Y-83590500D01*
X75540645Y-83556490D01*
X75701705Y-83489777D01*
X75846655Y-83392924D01*
X75969924Y-83269655D01*
X76066777Y-83124705D01*
X76133490Y-82963645D01*
X76167500Y-82792665D01*
X76167500Y-82618335D01*
X76133490Y-82447355D01*
X76066777Y-82286295D01*
X76005148Y-82194061D01*
X93199000Y-82194061D01*
X93199000Y-82397939D01*
X93238774Y-82597898D01*
X93316795Y-82786256D01*
X93430063Y-82955774D01*
X93574226Y-83099937D01*
X93743744Y-83213205D01*
X93932102Y-83291226D01*
X94132061Y-83331000D01*
X94335939Y-83331000D01*
X94535898Y-83291226D01*
X94724256Y-83213205D01*
X94893774Y-83099937D01*
X95037937Y-82955774D01*
X95151205Y-82786256D01*
X95229226Y-82597898D01*
X95233768Y-82575061D01*
X95993000Y-82575061D01*
X95993000Y-82778939D01*
X96032774Y-82978898D01*
X96110795Y-83167256D01*
X96224063Y-83336774D01*
X96368226Y-83480937D01*
X96537744Y-83594205D01*
X96726102Y-83672226D01*
X96926061Y-83712000D01*
X97129939Y-83712000D01*
X97329898Y-83672226D01*
X97518256Y-83594205D01*
X97687774Y-83480937D01*
X97831937Y-83336774D01*
X97945205Y-83167256D01*
X98023226Y-82978898D01*
X98063000Y-82778939D01*
X98063000Y-82575061D01*
X98023226Y-82375102D01*
X97945205Y-82186744D01*
X97865236Y-82067061D01*
X100311000Y-82067061D01*
X100311000Y-82270939D01*
X100350774Y-82470898D01*
X100428795Y-82659256D01*
X100542063Y-82828774D01*
X100686226Y-82972937D01*
X100855744Y-83086205D01*
X101044102Y-83164226D01*
X101244061Y-83204000D01*
X101447939Y-83204000D01*
X101647898Y-83164226D01*
X101836256Y-83086205D01*
X102005774Y-82972937D01*
X102149937Y-82828774D01*
X102263205Y-82659256D01*
X102341226Y-82470898D01*
X102381000Y-82270939D01*
X102381000Y-82067061D01*
X102341226Y-81867102D01*
X102263205Y-81678744D01*
X102149937Y-81509226D01*
X102005774Y-81365063D01*
X101836256Y-81251795D01*
X101647898Y-81173774D01*
X101447939Y-81134000D01*
X101244061Y-81134000D01*
X101044102Y-81173774D01*
X100855744Y-81251795D01*
X100686226Y-81365063D01*
X100542063Y-81509226D01*
X100428795Y-81678744D01*
X100350774Y-81867102D01*
X100311000Y-82067061D01*
X97865236Y-82067061D01*
X97831937Y-82017226D01*
X97687774Y-81873063D01*
X97518256Y-81759795D01*
X97329898Y-81681774D01*
X97129939Y-81642000D01*
X96926061Y-81642000D01*
X96726102Y-81681774D01*
X96537744Y-81759795D01*
X96368226Y-81873063D01*
X96224063Y-82017226D01*
X96110795Y-82186744D01*
X96032774Y-82375102D01*
X95993000Y-82575061D01*
X95233768Y-82575061D01*
X95269000Y-82397939D01*
X95269000Y-82194061D01*
X95229226Y-81994102D01*
X95151205Y-81805744D01*
X95037937Y-81636226D01*
X94893774Y-81492063D01*
X94724256Y-81378795D01*
X94535898Y-81300774D01*
X94335939Y-81261000D01*
X94132061Y-81261000D01*
X93932102Y-81300774D01*
X93743744Y-81378795D01*
X93574226Y-81492063D01*
X93430063Y-81636226D01*
X93316795Y-81805744D01*
X93238774Y-81994102D01*
X93199000Y-82194061D01*
X76005148Y-82194061D01*
X75969924Y-82141345D01*
X75846655Y-82018076D01*
X75701705Y-81921223D01*
X75540645Y-81854510D01*
X75369665Y-81820500D01*
X75195335Y-81820500D01*
X75024355Y-81854510D01*
X74863295Y-81921223D01*
X74718345Y-82018076D01*
X74595076Y-82141345D01*
X74498223Y-82286295D01*
X74431510Y-82447355D01*
X74397500Y-82618335D01*
X73264511Y-82618335D01*
X73162240Y-82550000D01*
X73336632Y-82433475D01*
X73543475Y-82226632D01*
X73705990Y-81983411D01*
X73817932Y-81713158D01*
X73875000Y-81426260D01*
X73875000Y-81133740D01*
X73817932Y-80846842D01*
X73705990Y-80576589D01*
X73543475Y-80333368D01*
X73336632Y-80126525D01*
X73162240Y-80010000D01*
X73336632Y-79893475D01*
X73543475Y-79686632D01*
X73705990Y-79443411D01*
X73817932Y-79173158D01*
X73875000Y-78886260D01*
X73875000Y-78725367D01*
X75369436Y-78725367D01*
X75369436Y-78899697D01*
X75403446Y-79070677D01*
X75470159Y-79231737D01*
X75567012Y-79376687D01*
X75690281Y-79499956D01*
X75835231Y-79596809D01*
X75996291Y-79663522D01*
X76167271Y-79697532D01*
X76341601Y-79697532D01*
X76512581Y-79663522D01*
X76673641Y-79596809D01*
X76818591Y-79499956D01*
X76941860Y-79376687D01*
X77038713Y-79231737D01*
X77105426Y-79070677D01*
X77139436Y-78899697D01*
X77139436Y-78725367D01*
X77105426Y-78554387D01*
X77038713Y-78393327D01*
X76998039Y-78332454D01*
X86519607Y-78332454D01*
X86519607Y-78536332D01*
X86559381Y-78736291D01*
X86637402Y-78924649D01*
X86750670Y-79094167D01*
X86894833Y-79238330D01*
X87064351Y-79351598D01*
X87252709Y-79429619D01*
X87452668Y-79469393D01*
X87656546Y-79469393D01*
X87856505Y-79429619D01*
X88044863Y-79351598D01*
X88214381Y-79238330D01*
X88358544Y-79094167D01*
X88471812Y-78924649D01*
X88549833Y-78736291D01*
X88578187Y-78593740D01*
X106211000Y-78593740D01*
X106211000Y-78886260D01*
X106268068Y-79173158D01*
X106380010Y-79443411D01*
X106542525Y-79686632D01*
X106749368Y-79893475D01*
X106923760Y-80010000D01*
X106749368Y-80126525D01*
X106542525Y-80333368D01*
X106380010Y-80576589D01*
X106268068Y-80846842D01*
X106211000Y-81133740D01*
X106211000Y-81426260D01*
X106268068Y-81713158D01*
X106380010Y-81983411D01*
X106542525Y-82226632D01*
X106749368Y-82433475D01*
X106931534Y-82555195D01*
X106814645Y-82624822D01*
X106598412Y-82819731D01*
X106424359Y-83053080D01*
X106299175Y-83315901D01*
X106254524Y-83463110D01*
X106375845Y-83693000D01*
X107569000Y-83693000D01*
X107569000Y-83673000D01*
X107823000Y-83673000D01*
X107823000Y-83693000D01*
X110109000Y-83693000D01*
X110109000Y-83673000D01*
X110363000Y-83673000D01*
X110363000Y-83693000D01*
X111556155Y-83693000D01*
X111677476Y-83463110D01*
X111632825Y-83315901D01*
X111507641Y-83053080D01*
X111333588Y-82819731D01*
X111117355Y-82624822D01*
X111000466Y-82555195D01*
X111182632Y-82433475D01*
X111389475Y-82226632D01*
X111551990Y-81983411D01*
X111663932Y-81713158D01*
X111721000Y-81426260D01*
X111721000Y-81133740D01*
X111663932Y-80846842D01*
X111551990Y-80576589D01*
X111389475Y-80333368D01*
X111182632Y-80126525D01*
X111008240Y-80010000D01*
X111182632Y-79893475D01*
X111389475Y-79686632D01*
X111551990Y-79443411D01*
X111663932Y-79173158D01*
X111721000Y-78886260D01*
X111721000Y-78593740D01*
X111663932Y-78306842D01*
X111551990Y-78036589D01*
X111389475Y-77793368D01*
X111182632Y-77586525D01*
X110939411Y-77424010D01*
X110669158Y-77312068D01*
X110382260Y-77255000D01*
X110089740Y-77255000D01*
X109802842Y-77312068D01*
X109532589Y-77424010D01*
X109289368Y-77586525D01*
X109082525Y-77793368D01*
X108966000Y-77967760D01*
X108849475Y-77793368D01*
X108642632Y-77586525D01*
X108399411Y-77424010D01*
X108129158Y-77312068D01*
X107842260Y-77255000D01*
X107549740Y-77255000D01*
X107262842Y-77312068D01*
X106992589Y-77424010D01*
X106749368Y-77586525D01*
X106542525Y-77793368D01*
X106380010Y-78036589D01*
X106268068Y-78306842D01*
X106211000Y-78593740D01*
X88578187Y-78593740D01*
X88589607Y-78536332D01*
X88589607Y-78332454D01*
X88549833Y-78132495D01*
X88471812Y-77944137D01*
X88358544Y-77774619D01*
X88214381Y-77630456D01*
X88044863Y-77517188D01*
X87856505Y-77439167D01*
X87656546Y-77399393D01*
X87452668Y-77399393D01*
X87252709Y-77439167D01*
X87064351Y-77517188D01*
X86894833Y-77630456D01*
X86750670Y-77774619D01*
X86637402Y-77944137D01*
X86559381Y-78132495D01*
X86519607Y-78332454D01*
X76998039Y-78332454D01*
X76941860Y-78248377D01*
X76818591Y-78125108D01*
X76673641Y-78028255D01*
X76512581Y-77961542D01*
X76341601Y-77927532D01*
X76167271Y-77927532D01*
X75996291Y-77961542D01*
X75835231Y-78028255D01*
X75690281Y-78125108D01*
X75567012Y-78248377D01*
X75470159Y-78393327D01*
X75403446Y-78554387D01*
X75369436Y-78725367D01*
X73875000Y-78725367D01*
X73875000Y-78593740D01*
X73817932Y-78306842D01*
X73705990Y-78036589D01*
X73543475Y-77793368D01*
X73336632Y-77586525D01*
X73162240Y-77470000D01*
X73336632Y-77353475D01*
X73543475Y-77146632D01*
X73565238Y-77114061D01*
X98787000Y-77114061D01*
X98787000Y-77317939D01*
X98826774Y-77517898D01*
X98904795Y-77706256D01*
X99018063Y-77875774D01*
X99162226Y-78019937D01*
X99331744Y-78133205D01*
X99520102Y-78211226D01*
X99720061Y-78251000D01*
X99923939Y-78251000D01*
X100123898Y-78211226D01*
X100312256Y-78133205D01*
X100481774Y-78019937D01*
X100625937Y-77875774D01*
X100739205Y-77706256D01*
X100817226Y-77517898D01*
X100857000Y-77317939D01*
X100857000Y-77114061D01*
X100817226Y-76914102D01*
X100739205Y-76725744D01*
X100625937Y-76556226D01*
X100481774Y-76412063D01*
X100312256Y-76298795D01*
X100123898Y-76220774D01*
X99923939Y-76181000D01*
X99720061Y-76181000D01*
X99520102Y-76220774D01*
X99331744Y-76298795D01*
X99162226Y-76412063D01*
X99018063Y-76556226D01*
X98904795Y-76725744D01*
X98826774Y-76914102D01*
X98787000Y-77114061D01*
X73565238Y-77114061D01*
X73705990Y-76903411D01*
X73817932Y-76633158D01*
X73875000Y-76346260D01*
X73875000Y-76053740D01*
X73817932Y-75766842D01*
X73705990Y-75496589D01*
X73543475Y-75253368D01*
X73336632Y-75046525D01*
X73162240Y-74930000D01*
X73336632Y-74813475D01*
X73543475Y-74606632D01*
X73705990Y-74363411D01*
X73817932Y-74093158D01*
X73875000Y-73806260D01*
X73875000Y-73685061D01*
X82023000Y-73685061D01*
X82023000Y-73888939D01*
X82062774Y-74088898D01*
X82140795Y-74277256D01*
X82254063Y-74446774D01*
X82398226Y-74590937D01*
X82567744Y-74704205D01*
X82756102Y-74782226D01*
X82956061Y-74822000D01*
X83159939Y-74822000D01*
X83359898Y-74782226D01*
X83548256Y-74704205D01*
X83566000Y-74692349D01*
X83583744Y-74704205D01*
X83772102Y-74782226D01*
X83972061Y-74822000D01*
X84175939Y-74822000D01*
X84375898Y-74782226D01*
X84564256Y-74704205D01*
X84733774Y-74590937D01*
X84877937Y-74446774D01*
X84991205Y-74277256D01*
X85069226Y-74088898D01*
X85109000Y-73888939D01*
X85109000Y-73685061D01*
X85069226Y-73485102D01*
X84991205Y-73296744D01*
X84877937Y-73127226D01*
X84733774Y-72983063D01*
X84564256Y-72869795D01*
X84375898Y-72791774D01*
X84175939Y-72752000D01*
X83972061Y-72752000D01*
X83772102Y-72791774D01*
X83583744Y-72869795D01*
X83566000Y-72881651D01*
X83548256Y-72869795D01*
X83359898Y-72791774D01*
X83159939Y-72752000D01*
X82956061Y-72752000D01*
X82756102Y-72791774D01*
X82567744Y-72869795D01*
X82398226Y-72983063D01*
X82254063Y-73127226D01*
X82140795Y-73296744D01*
X82062774Y-73485102D01*
X82023000Y-73685061D01*
X73875000Y-73685061D01*
X73875000Y-73513740D01*
X73817932Y-73226842D01*
X73705990Y-72956589D01*
X73543475Y-72713368D01*
X73372168Y-72542061D01*
X77035000Y-72542061D01*
X77035000Y-72745939D01*
X77074774Y-72945898D01*
X77152795Y-73134256D01*
X77266063Y-73303774D01*
X77410226Y-73447937D01*
X77579744Y-73561205D01*
X77768102Y-73639226D01*
X77968061Y-73679000D01*
X78171939Y-73679000D01*
X78371898Y-73639226D01*
X78560256Y-73561205D01*
X78729774Y-73447937D01*
X78873937Y-73303774D01*
X78987205Y-73134256D01*
X79065226Y-72945898D01*
X79105000Y-72745939D01*
X79105000Y-72542061D01*
X79065226Y-72342102D01*
X78987205Y-72153744D01*
X78873937Y-71984226D01*
X78729774Y-71840063D01*
X78560256Y-71726795D01*
X78371898Y-71648774D01*
X78171939Y-71609000D01*
X77968061Y-71609000D01*
X77768102Y-71648774D01*
X77579744Y-71726795D01*
X77410226Y-71840063D01*
X77266063Y-71984226D01*
X77152795Y-72153744D01*
X77074774Y-72342102D01*
X77035000Y-72542061D01*
X73372168Y-72542061D01*
X73336632Y-72506525D01*
X73162240Y-72390000D01*
X73336632Y-72273475D01*
X73543475Y-72066632D01*
X73705990Y-71823411D01*
X73817932Y-71553158D01*
X73875000Y-71266260D01*
X73875000Y-70973740D01*
X73817932Y-70686842D01*
X73705990Y-70416589D01*
X73543475Y-70173368D01*
X73336632Y-69966525D01*
X73162240Y-69850000D01*
X73336632Y-69733475D01*
X73449046Y-69621061D01*
X93326000Y-69621061D01*
X93326000Y-69824939D01*
X93365774Y-70024898D01*
X93443795Y-70213256D01*
X93557063Y-70382774D01*
X93595789Y-70421500D01*
X93557063Y-70460226D01*
X93443795Y-70629744D01*
X93365774Y-70818102D01*
X93326000Y-71018061D01*
X93326000Y-71221939D01*
X93365774Y-71421898D01*
X93443795Y-71610256D01*
X93557063Y-71779774D01*
X93659289Y-71882000D01*
X93557063Y-71984226D01*
X93443795Y-72153744D01*
X93365774Y-72342102D01*
X93326000Y-72542061D01*
X93326000Y-72745939D01*
X93365774Y-72945898D01*
X93443795Y-73134256D01*
X93557063Y-73303774D01*
X93701226Y-73447937D01*
X93870744Y-73561205D01*
X94059102Y-73639226D01*
X94259061Y-73679000D01*
X94462939Y-73679000D01*
X94662898Y-73639226D01*
X94851256Y-73561205D01*
X95020774Y-73447937D01*
X95164650Y-73304061D01*
X98533000Y-73304061D01*
X98533000Y-73507939D01*
X98572774Y-73707898D01*
X98650795Y-73896256D01*
X98764063Y-74065774D01*
X98908226Y-74209937D01*
X99077744Y-74323205D01*
X99266102Y-74401226D01*
X99466061Y-74441000D01*
X99669939Y-74441000D01*
X99869898Y-74401226D01*
X100058256Y-74323205D01*
X100227774Y-74209937D01*
X100371937Y-74065774D01*
X100485205Y-73896256D01*
X100563226Y-73707898D01*
X100603000Y-73507939D01*
X100603000Y-73304061D01*
X100563226Y-73104102D01*
X100546616Y-73064000D01*
X106207928Y-73064000D01*
X106207928Y-74764000D01*
X106220188Y-74888482D01*
X106256498Y-75008180D01*
X106315463Y-75118494D01*
X106394815Y-75215185D01*
X106491506Y-75294537D01*
X106601820Y-75353502D01*
X106721518Y-75389812D01*
X106846000Y-75402072D01*
X108546000Y-75402072D01*
X108670482Y-75389812D01*
X108790180Y-75353502D01*
X108900494Y-75294537D01*
X108997185Y-75215185D01*
X109076537Y-75118494D01*
X109135502Y-75008180D01*
X109157513Y-74935620D01*
X109289368Y-75067475D01*
X109532589Y-75229990D01*
X109802842Y-75341932D01*
X110089740Y-75399000D01*
X110382260Y-75399000D01*
X110669158Y-75341932D01*
X110939411Y-75229990D01*
X111182632Y-75067475D01*
X111389475Y-74860632D01*
X111551990Y-74617411D01*
X111663932Y-74347158D01*
X111721000Y-74060260D01*
X111721000Y-73767740D01*
X111663932Y-73480842D01*
X111551990Y-73210589D01*
X111389475Y-72967368D01*
X111182632Y-72760525D01*
X111006594Y-72642900D01*
X111236269Y-72471588D01*
X111431178Y-72255355D01*
X111580157Y-72005252D01*
X111677481Y-71730891D01*
X111556814Y-71501000D01*
X110363000Y-71501000D01*
X110363000Y-71521000D01*
X110109000Y-71521000D01*
X110109000Y-71501000D01*
X110089000Y-71501000D01*
X110089000Y-71247000D01*
X110109000Y-71247000D01*
X110109000Y-70053845D01*
X110363000Y-70053845D01*
X110363000Y-71247000D01*
X111556814Y-71247000D01*
X111677481Y-71017109D01*
X111580157Y-70742748D01*
X111431178Y-70492645D01*
X111236269Y-70276412D01*
X111002920Y-70102359D01*
X110740099Y-69977175D01*
X110592890Y-69932524D01*
X110363000Y-70053845D01*
X110109000Y-70053845D01*
X109879110Y-69932524D01*
X109731901Y-69977175D01*
X109469080Y-70102359D01*
X109235731Y-70276412D01*
X109040822Y-70492645D01*
X108971195Y-70609534D01*
X108849475Y-70427368D01*
X108642632Y-70220525D01*
X108399411Y-70058010D01*
X108129158Y-69946068D01*
X107842260Y-69889000D01*
X107549740Y-69889000D01*
X107262842Y-69946068D01*
X106992589Y-70058010D01*
X106749368Y-70220525D01*
X106542525Y-70427368D01*
X106380010Y-70670589D01*
X106268068Y-70940842D01*
X106211000Y-71227740D01*
X106211000Y-71520260D01*
X106268068Y-71807158D01*
X106380010Y-72077411D01*
X106542525Y-72320632D01*
X106674380Y-72452487D01*
X106601820Y-72474498D01*
X106491506Y-72533463D01*
X106394815Y-72612815D01*
X106315463Y-72709506D01*
X106256498Y-72819820D01*
X106220188Y-72939518D01*
X106207928Y-73064000D01*
X100546616Y-73064000D01*
X100485205Y-72915744D01*
X100371937Y-72746226D01*
X100227774Y-72602063D01*
X100058256Y-72488795D01*
X99869898Y-72410774D01*
X99669939Y-72371000D01*
X99466061Y-72371000D01*
X99266102Y-72410774D01*
X99077744Y-72488795D01*
X98908226Y-72602063D01*
X98764063Y-72746226D01*
X98650795Y-72915744D01*
X98572774Y-73104102D01*
X98533000Y-73304061D01*
X95164650Y-73304061D01*
X95164937Y-73303774D01*
X95278205Y-73134256D01*
X95356226Y-72945898D01*
X95396000Y-72745939D01*
X95396000Y-72542061D01*
X95356226Y-72342102D01*
X95278205Y-72153744D01*
X95164937Y-71984226D01*
X95062711Y-71882000D01*
X95164937Y-71779774D01*
X95278205Y-71610256D01*
X95356226Y-71421898D01*
X95396000Y-71221939D01*
X95396000Y-71018061D01*
X95356226Y-70818102D01*
X95278205Y-70629744D01*
X95164937Y-70460226D01*
X95126211Y-70421500D01*
X95164937Y-70382774D01*
X95278205Y-70213256D01*
X95356226Y-70024898D01*
X95360768Y-70002061D01*
X102851000Y-70002061D01*
X102851000Y-70205939D01*
X102890774Y-70405898D01*
X102968795Y-70594256D01*
X103082063Y-70763774D01*
X103226226Y-70907937D01*
X103395744Y-71021205D01*
X103584102Y-71099226D01*
X103784061Y-71139000D01*
X103987939Y-71139000D01*
X104187898Y-71099226D01*
X104376256Y-71021205D01*
X104545774Y-70907937D01*
X104689937Y-70763774D01*
X104803205Y-70594256D01*
X104881226Y-70405898D01*
X104921000Y-70205939D01*
X104921000Y-70002061D01*
X104881226Y-69802102D01*
X104803205Y-69613744D01*
X104689937Y-69444226D01*
X104545774Y-69300063D01*
X104376256Y-69186795D01*
X104187898Y-69108774D01*
X103987939Y-69069000D01*
X103784061Y-69069000D01*
X103584102Y-69108774D01*
X103395744Y-69186795D01*
X103226226Y-69300063D01*
X103082063Y-69444226D01*
X102968795Y-69613744D01*
X102890774Y-69802102D01*
X102851000Y-70002061D01*
X95360768Y-70002061D01*
X95396000Y-69824939D01*
X95396000Y-69621061D01*
X95356226Y-69421102D01*
X95278205Y-69232744D01*
X95164937Y-69063226D01*
X95020774Y-68919063D01*
X94851256Y-68805795D01*
X94662898Y-68727774D01*
X94462939Y-68688000D01*
X94259061Y-68688000D01*
X94059102Y-68727774D01*
X93870744Y-68805795D01*
X93701226Y-68919063D01*
X93557063Y-69063226D01*
X93443795Y-69232744D01*
X93365774Y-69421102D01*
X93326000Y-69621061D01*
X73449046Y-69621061D01*
X73543475Y-69526632D01*
X73705990Y-69283411D01*
X73817932Y-69013158D01*
X73875000Y-68726260D01*
X73875000Y-68433740D01*
X73833292Y-68224061D01*
X79991000Y-68224061D01*
X79991000Y-68427939D01*
X80030774Y-68627898D01*
X80108795Y-68816256D01*
X80222063Y-68985774D01*
X80366226Y-69129937D01*
X80535744Y-69243205D01*
X80724102Y-69321226D01*
X80924061Y-69361000D01*
X81127939Y-69361000D01*
X81327898Y-69321226D01*
X81516256Y-69243205D01*
X81685774Y-69129937D01*
X81829937Y-68985774D01*
X81943205Y-68816256D01*
X82021226Y-68627898D01*
X82061000Y-68427939D01*
X82061000Y-68224061D01*
X84055000Y-68224061D01*
X84055000Y-68427939D01*
X84094774Y-68627898D01*
X84172795Y-68816256D01*
X84286063Y-68985774D01*
X84430226Y-69129937D01*
X84599744Y-69243205D01*
X84788102Y-69321226D01*
X84988061Y-69361000D01*
X85191939Y-69361000D01*
X85391898Y-69321226D01*
X85580256Y-69243205D01*
X85749774Y-69129937D01*
X85893937Y-68985774D01*
X86007205Y-68816256D01*
X86085226Y-68627898D01*
X86125000Y-68427939D01*
X86125000Y-68224061D01*
X86085226Y-68024102D01*
X86007205Y-67835744D01*
X85893937Y-67666226D01*
X85749774Y-67522063D01*
X85580256Y-67408795D01*
X85391898Y-67330774D01*
X85191939Y-67291000D01*
X84988061Y-67291000D01*
X84788102Y-67330774D01*
X84599744Y-67408795D01*
X84430226Y-67522063D01*
X84286063Y-67666226D01*
X84172795Y-67835744D01*
X84094774Y-68024102D01*
X84055000Y-68224061D01*
X82061000Y-68224061D01*
X82021226Y-68024102D01*
X81943205Y-67835744D01*
X81829937Y-67666226D01*
X81685774Y-67522063D01*
X81516256Y-67408795D01*
X81327898Y-67330774D01*
X81127939Y-67291000D01*
X80924061Y-67291000D01*
X80724102Y-67330774D01*
X80535744Y-67408795D01*
X80366226Y-67522063D01*
X80222063Y-67666226D01*
X80108795Y-67835744D01*
X80030774Y-68024102D01*
X79991000Y-68224061D01*
X73833292Y-68224061D01*
X73817932Y-68146842D01*
X73705990Y-67876589D01*
X73543475Y-67633368D01*
X73336632Y-67426525D01*
X73163271Y-67310689D01*
X73238792Y-67068397D01*
X72390000Y-66219605D01*
X71541208Y-67068397D01*
X71616729Y-67310689D01*
X71443368Y-67426525D01*
X71236525Y-67633368D01*
X71120000Y-67807760D01*
X71003475Y-67633368D01*
X70796632Y-67426525D01*
X70623271Y-67310689D01*
X70698792Y-67068397D01*
X69850000Y-66219605D01*
X69001208Y-67068397D01*
X69076729Y-67310689D01*
X68903368Y-67426525D01*
X68696525Y-67633368D01*
X68534010Y-67876589D01*
X68422068Y-68146842D01*
X68365000Y-68433740D01*
X66725000Y-68433740D01*
X66725000Y-66108531D01*
X68359389Y-66108531D01*
X68401401Y-66398019D01*
X68499081Y-66673747D01*
X68572528Y-66811157D01*
X68821603Y-66888792D01*
X69670395Y-66040000D01*
X70029605Y-66040000D01*
X70878397Y-66888792D01*
X71120000Y-66813486D01*
X71361603Y-66888792D01*
X72210395Y-66040000D01*
X72569605Y-66040000D01*
X73418397Y-66888792D01*
X73667472Y-66811157D01*
X73793371Y-66547117D01*
X73865339Y-66263589D01*
X73880611Y-65971469D01*
X73838599Y-65681981D01*
X73749354Y-65430061D01*
X85198000Y-65430061D01*
X85198000Y-65633939D01*
X85237774Y-65833898D01*
X85315795Y-66022256D01*
X85429063Y-66191774D01*
X85573226Y-66335937D01*
X85742744Y-66449205D01*
X85931102Y-66527226D01*
X86131061Y-66567000D01*
X86334939Y-66567000D01*
X86534898Y-66527226D01*
X86723256Y-66449205D01*
X86892774Y-66335937D01*
X87036937Y-66191774D01*
X87150205Y-66022256D01*
X87228226Y-65833898D01*
X87268000Y-65633939D01*
X87268000Y-65430061D01*
X87228226Y-65230102D01*
X87150205Y-65041744D01*
X87036937Y-64872226D01*
X86892774Y-64728063D01*
X86723256Y-64614795D01*
X86534898Y-64536774D01*
X86334939Y-64497000D01*
X86131061Y-64497000D01*
X85931102Y-64536774D01*
X85742744Y-64614795D01*
X85573226Y-64728063D01*
X85429063Y-64872226D01*
X85315795Y-65041744D01*
X85237774Y-65230102D01*
X85198000Y-65430061D01*
X73749354Y-65430061D01*
X73740919Y-65406253D01*
X73667472Y-65268843D01*
X73418397Y-65191208D01*
X72569605Y-66040000D01*
X72210395Y-66040000D01*
X71361603Y-65191208D01*
X71120000Y-65266514D01*
X70878397Y-65191208D01*
X70029605Y-66040000D01*
X69670395Y-66040000D01*
X68821603Y-65191208D01*
X68572528Y-65268843D01*
X68446629Y-65532883D01*
X68374661Y-65816411D01*
X68359389Y-66108531D01*
X66725000Y-66108531D01*
X66725000Y-65011603D01*
X69001208Y-65011603D01*
X69850000Y-65860395D01*
X70698792Y-65011603D01*
X71541208Y-65011603D01*
X72390000Y-65860395D01*
X73238792Y-65011603D01*
X73161157Y-64762528D01*
X72897117Y-64636629D01*
X72613589Y-64564661D01*
X72321469Y-64549389D01*
X72031981Y-64591401D01*
X71756253Y-64689081D01*
X71618843Y-64762528D01*
X71541208Y-65011603D01*
X70698792Y-65011603D01*
X70621157Y-64762528D01*
X70357117Y-64636629D01*
X70073589Y-64564661D01*
X69781469Y-64549389D01*
X69491981Y-64591401D01*
X69216253Y-64689081D01*
X69078843Y-64762528D01*
X69001208Y-65011603D01*
X66725000Y-65011603D01*
X66725000Y-64160061D01*
X95104000Y-64160061D01*
X95104000Y-64363939D01*
X95143774Y-64563898D01*
X95221795Y-64752256D01*
X95335063Y-64921774D01*
X95479226Y-65065937D01*
X95648744Y-65179205D01*
X95837102Y-65257226D01*
X96037061Y-65297000D01*
X96240939Y-65297000D01*
X96440898Y-65257226D01*
X96629256Y-65179205D01*
X96798774Y-65065937D01*
X96942937Y-64921774D01*
X97056205Y-64752256D01*
X97134226Y-64563898D01*
X97174000Y-64363939D01*
X97174000Y-64160061D01*
X97134226Y-63960102D01*
X97056205Y-63771744D01*
X96942937Y-63602226D01*
X96798774Y-63458063D01*
X96629256Y-63344795D01*
X96440898Y-63266774D01*
X96240939Y-63227000D01*
X96037061Y-63227000D01*
X95837102Y-63266774D01*
X95648744Y-63344795D01*
X95479226Y-63458063D01*
X95335063Y-63602226D01*
X95221795Y-63771744D01*
X95143774Y-63960102D01*
X95104000Y-64160061D01*
X66725000Y-64160061D01*
X66725000Y-58826061D01*
X74276000Y-58826061D01*
X74276000Y-59029939D01*
X74315774Y-59229898D01*
X74393795Y-59418256D01*
X74507063Y-59587774D01*
X74651226Y-59731937D01*
X74820744Y-59845205D01*
X75009102Y-59923226D01*
X75209061Y-59963000D01*
X75412939Y-59963000D01*
X75612898Y-59923226D01*
X75801256Y-59845205D01*
X75901835Y-59778000D01*
X108747928Y-59778000D01*
X108760188Y-59902482D01*
X108796498Y-60022180D01*
X108855463Y-60132494D01*
X108934815Y-60229185D01*
X109031506Y-60308537D01*
X109141820Y-60367502D01*
X109214380Y-60389513D01*
X109082525Y-60521368D01*
X108920010Y-60764589D01*
X108808068Y-61034842D01*
X108751000Y-61321740D01*
X108751000Y-61614260D01*
X108808068Y-61901158D01*
X108920010Y-62171411D01*
X109082525Y-62414632D01*
X109289368Y-62621475D01*
X109463760Y-62738000D01*
X109289368Y-62854525D01*
X109082525Y-63061368D01*
X108920010Y-63304589D01*
X108808068Y-63574842D01*
X108751000Y-63861740D01*
X108751000Y-64154260D01*
X108808068Y-64441158D01*
X108920010Y-64711411D01*
X109082525Y-64954632D01*
X109289368Y-65161475D01*
X109463760Y-65278000D01*
X109289368Y-65394525D01*
X109082525Y-65601368D01*
X108920010Y-65844589D01*
X108808068Y-66114842D01*
X108751000Y-66401740D01*
X108751000Y-66694260D01*
X108808068Y-66981158D01*
X108920010Y-67251411D01*
X109082525Y-67494632D01*
X109289368Y-67701475D01*
X109532589Y-67863990D01*
X109802842Y-67975932D01*
X110089740Y-68033000D01*
X110382260Y-68033000D01*
X110669158Y-67975932D01*
X110939411Y-67863990D01*
X111182632Y-67701475D01*
X111389475Y-67494632D01*
X111551990Y-67251411D01*
X111663932Y-66981158D01*
X111721000Y-66694260D01*
X111721000Y-66401740D01*
X111663932Y-66114842D01*
X111551990Y-65844589D01*
X111389475Y-65601368D01*
X111182632Y-65394525D01*
X111008240Y-65278000D01*
X111182632Y-65161475D01*
X111389475Y-64954632D01*
X111551990Y-64711411D01*
X111663932Y-64441158D01*
X111721000Y-64154260D01*
X111721000Y-63861740D01*
X111663932Y-63574842D01*
X111551990Y-63304589D01*
X111389475Y-63061368D01*
X111182632Y-62854525D01*
X111008240Y-62738000D01*
X111182632Y-62621475D01*
X111389475Y-62414632D01*
X111551990Y-62171411D01*
X111663932Y-61901158D01*
X111721000Y-61614260D01*
X111721000Y-61321740D01*
X111663932Y-61034842D01*
X111551990Y-60764589D01*
X111389475Y-60521368D01*
X111257620Y-60389513D01*
X111330180Y-60367502D01*
X111440494Y-60308537D01*
X111537185Y-60229185D01*
X111616537Y-60132494D01*
X111675502Y-60022180D01*
X111711812Y-59902482D01*
X111724072Y-59778000D01*
X111721000Y-59213750D01*
X111562250Y-59055000D01*
X110363000Y-59055000D01*
X110363000Y-59075000D01*
X110109000Y-59075000D01*
X110109000Y-59055000D01*
X108909750Y-59055000D01*
X108751000Y-59213750D01*
X108747928Y-59778000D01*
X75901835Y-59778000D01*
X75970774Y-59731937D01*
X76114937Y-59587774D01*
X76228205Y-59418256D01*
X76306226Y-59229898D01*
X76346000Y-59029939D01*
X76346000Y-58826061D01*
X76306226Y-58626102D01*
X76228205Y-58437744D01*
X76114937Y-58268226D01*
X75970774Y-58124063D01*
X75801256Y-58010795D01*
X75612898Y-57932774D01*
X75412939Y-57893000D01*
X75209061Y-57893000D01*
X75009102Y-57932774D01*
X74820744Y-58010795D01*
X74651226Y-58124063D01*
X74507063Y-58268226D01*
X74393795Y-58437744D01*
X74315774Y-58626102D01*
X74276000Y-58826061D01*
X66725000Y-58826061D01*
X66725000Y-57556061D01*
X76562000Y-57556061D01*
X76562000Y-57759939D01*
X76601774Y-57959898D01*
X76679795Y-58148256D01*
X76793063Y-58317774D01*
X76937226Y-58461937D01*
X77106744Y-58575205D01*
X77295102Y-58653226D01*
X77495061Y-58693000D01*
X77698939Y-58693000D01*
X77898898Y-58653226D01*
X78087256Y-58575205D01*
X78256774Y-58461937D01*
X78400937Y-58317774D01*
X78514205Y-58148256D01*
X78543306Y-58078000D01*
X108747928Y-58078000D01*
X108751000Y-58642250D01*
X108909750Y-58801000D01*
X110109000Y-58801000D01*
X110109000Y-57601750D01*
X110363000Y-57601750D01*
X110363000Y-58801000D01*
X111562250Y-58801000D01*
X111721000Y-58642250D01*
X111724072Y-58078000D01*
X111711812Y-57953518D01*
X111675502Y-57833820D01*
X111616537Y-57723506D01*
X111537185Y-57626815D01*
X111440494Y-57547463D01*
X111330180Y-57488498D01*
X111210482Y-57452188D01*
X111086000Y-57439928D01*
X110521750Y-57443000D01*
X110363000Y-57601750D01*
X110109000Y-57601750D01*
X109950250Y-57443000D01*
X109386000Y-57439928D01*
X109261518Y-57452188D01*
X109141820Y-57488498D01*
X109031506Y-57547463D01*
X108934815Y-57626815D01*
X108855463Y-57723506D01*
X108796498Y-57833820D01*
X108760188Y-57953518D01*
X108747928Y-58078000D01*
X78543306Y-58078000D01*
X78592226Y-57959898D01*
X78632000Y-57759939D01*
X78632000Y-57556061D01*
X78592226Y-57356102D01*
X78514205Y-57167744D01*
X78400937Y-56998226D01*
X78256774Y-56854063D01*
X78087256Y-56740795D01*
X77898898Y-56662774D01*
X77698939Y-56623000D01*
X77495061Y-56623000D01*
X77295102Y-56662774D01*
X77106744Y-56740795D01*
X76937226Y-56854063D01*
X76793063Y-56998226D01*
X76679795Y-57167744D01*
X76601774Y-57356102D01*
X76562000Y-57556061D01*
X66725000Y-57556061D01*
X66725000Y-53746061D01*
X74657000Y-53746061D01*
X74657000Y-53949939D01*
X74696774Y-54149898D01*
X74774795Y-54338256D01*
X74888063Y-54507774D01*
X75032226Y-54651937D01*
X75201744Y-54765205D01*
X75390102Y-54843226D01*
X75590061Y-54883000D01*
X75793939Y-54883000D01*
X75993898Y-54843226D01*
X76182256Y-54765205D01*
X76351774Y-54651937D01*
X76495937Y-54507774D01*
X76609205Y-54338256D01*
X76687226Y-54149898D01*
X76727000Y-53949939D01*
X76727000Y-53746061D01*
X76687226Y-53546102D01*
X76609205Y-53357744D01*
X76495937Y-53188226D01*
X76351774Y-53044063D01*
X76182256Y-52930795D01*
X75993898Y-52852774D01*
X75793939Y-52813000D01*
X75590061Y-52813000D01*
X75390102Y-52852774D01*
X75201744Y-52930795D01*
X75032226Y-53044063D01*
X74888063Y-53188226D01*
X74774795Y-53357744D01*
X74696774Y-53546102D01*
X74657000Y-53746061D01*
X66725000Y-53746061D01*
X66725000Y-49936061D01*
X74022000Y-49936061D01*
X74022000Y-50139939D01*
X74061774Y-50339898D01*
X74139795Y-50528256D01*
X74253063Y-50697774D01*
X74397226Y-50841937D01*
X74566744Y-50955205D01*
X74755102Y-51033226D01*
X74955061Y-51073000D01*
X75158939Y-51073000D01*
X75358898Y-51033226D01*
X75547256Y-50955205D01*
X75716774Y-50841937D01*
X75860937Y-50697774D01*
X75974205Y-50528256D01*
X76026299Y-50402490D01*
X81681000Y-50402490D01*
X81681000Y-51197509D01*
X81709722Y-51489127D01*
X81823226Y-51863301D01*
X82007547Y-52208143D01*
X82255602Y-52510398D01*
X82557857Y-52758453D01*
X82902698Y-52942774D01*
X83276872Y-53056278D01*
X83666000Y-53094604D01*
X84055127Y-53056278D01*
X84429301Y-52942774D01*
X84774143Y-52758453D01*
X85076398Y-52510398D01*
X85324453Y-52208143D01*
X85508774Y-51863302D01*
X85622278Y-51489128D01*
X85651000Y-51197510D01*
X85651000Y-50402491D01*
X85651000Y-50402490D01*
X85881000Y-50402490D01*
X85881000Y-51197509D01*
X85909722Y-51489127D01*
X86023226Y-51863301D01*
X86207547Y-52208143D01*
X86455602Y-52510398D01*
X86757857Y-52758453D01*
X87102698Y-52942774D01*
X87476872Y-53056278D01*
X87866000Y-53094604D01*
X88255127Y-53056278D01*
X88629301Y-52942774D01*
X88974143Y-52758453D01*
X89276398Y-52510398D01*
X89524453Y-52208143D01*
X89708774Y-51863302D01*
X89822278Y-51489128D01*
X89851000Y-51197510D01*
X89851000Y-50927000D01*
X90081000Y-50927000D01*
X90081000Y-51227000D01*
X90143918Y-51611814D01*
X90280700Y-51976959D01*
X90486090Y-52308403D01*
X90752195Y-52593409D01*
X91068789Y-52821024D01*
X91423705Y-52982501D01*
X91630677Y-53036677D01*
X91939000Y-52921829D01*
X91939000Y-50927000D01*
X92193000Y-50927000D01*
X92193000Y-52921829D01*
X92501323Y-53036677D01*
X92708295Y-52982501D01*
X93063211Y-52821024D01*
X93379805Y-52593409D01*
X93645910Y-52308403D01*
X93851300Y-51976959D01*
X93988082Y-51611814D01*
X94051000Y-51227000D01*
X94051000Y-50927000D01*
X92193000Y-50927000D01*
X91939000Y-50927000D01*
X90081000Y-50927000D01*
X89851000Y-50927000D01*
X89851000Y-50402491D01*
X89848096Y-50373000D01*
X90081000Y-50373000D01*
X90081000Y-50673000D01*
X91939000Y-50673000D01*
X91939000Y-48678171D01*
X92193000Y-48678171D01*
X92193000Y-50673000D01*
X94051000Y-50673000D01*
X94051000Y-50373000D01*
X93988082Y-49988186D01*
X93851300Y-49623041D01*
X93713087Y-49400001D01*
X94277928Y-49400001D01*
X94277928Y-52199999D01*
X94294992Y-52373253D01*
X94345529Y-52539850D01*
X94427595Y-52693386D01*
X94538039Y-52827961D01*
X94672614Y-52938405D01*
X94826150Y-53020471D01*
X94992747Y-53071008D01*
X95166001Y-53088072D01*
X97365999Y-53088072D01*
X97539253Y-53071008D01*
X97705850Y-53020471D01*
X97859386Y-52938405D01*
X97993961Y-52827961D01*
X98104405Y-52693386D01*
X98186471Y-52539850D01*
X98237008Y-52373253D01*
X98254072Y-52199999D01*
X98254072Y-49400001D01*
X98237008Y-49226747D01*
X98186471Y-49060150D01*
X98104405Y-48906614D01*
X97993961Y-48772039D01*
X97859386Y-48661595D01*
X97705850Y-48579529D01*
X97539253Y-48528992D01*
X97365999Y-48511928D01*
X95166001Y-48511928D01*
X94992747Y-48528992D01*
X94826150Y-48579529D01*
X94672614Y-48661595D01*
X94538039Y-48772039D01*
X94427595Y-48906614D01*
X94345529Y-49060150D01*
X94294992Y-49226747D01*
X94277928Y-49400001D01*
X93713087Y-49400001D01*
X93645910Y-49291597D01*
X93379805Y-49006591D01*
X93063211Y-48778976D01*
X92708295Y-48617499D01*
X92501323Y-48563323D01*
X92193000Y-48678171D01*
X91939000Y-48678171D01*
X91630677Y-48563323D01*
X91423705Y-48617499D01*
X91068789Y-48778976D01*
X90752195Y-49006591D01*
X90486090Y-49291597D01*
X90280700Y-49623041D01*
X90143918Y-49988186D01*
X90081000Y-50373000D01*
X89848096Y-50373000D01*
X89822278Y-50110873D01*
X89708774Y-49736698D01*
X89524453Y-49391857D01*
X89276398Y-49089602D01*
X88974143Y-48841547D01*
X88629302Y-48657226D01*
X88255128Y-48543722D01*
X87866000Y-48505396D01*
X87476873Y-48543722D01*
X87102699Y-48657226D01*
X86757858Y-48841547D01*
X86455603Y-49089602D01*
X86207547Y-49391857D01*
X86023226Y-49736698D01*
X85909722Y-50110872D01*
X85881000Y-50402490D01*
X85651000Y-50402490D01*
X85622278Y-50110873D01*
X85508774Y-49736698D01*
X85324453Y-49391857D01*
X85076398Y-49089602D01*
X84774143Y-48841547D01*
X84429302Y-48657226D01*
X84055128Y-48543722D01*
X83666000Y-48505396D01*
X83276873Y-48543722D01*
X82902699Y-48657226D01*
X82557858Y-48841547D01*
X82255603Y-49089602D01*
X82007547Y-49391857D01*
X81823226Y-49736698D01*
X81709722Y-50110872D01*
X81681000Y-50402490D01*
X76026299Y-50402490D01*
X76052226Y-50339898D01*
X76092000Y-50139939D01*
X76092000Y-49936061D01*
X76052226Y-49736102D01*
X75974205Y-49547744D01*
X75860937Y-49378226D01*
X75716774Y-49234063D01*
X75547256Y-49120795D01*
X75358898Y-49042774D01*
X75158939Y-49003000D01*
X74955061Y-49003000D01*
X74755102Y-49042774D01*
X74566744Y-49120795D01*
X74397226Y-49234063D01*
X74253063Y-49378226D01*
X74139795Y-49547744D01*
X74061774Y-49736102D01*
X74022000Y-49936061D01*
X66725000Y-49936061D01*
X66725000Y-47311787D01*
X67125161Y-47910670D01*
X67659330Y-48444839D01*
X68287446Y-48864533D01*
X68985372Y-49153623D01*
X69726285Y-49301000D01*
X70481715Y-49301000D01*
X71222628Y-49153623D01*
X71920554Y-48864533D01*
X72548670Y-48444839D01*
X73082839Y-47910670D01*
X73502533Y-47282554D01*
X73791623Y-46584628D01*
X73939000Y-45843715D01*
X73939000Y-45427000D01*
X81681000Y-45427000D01*
X81681000Y-45727000D01*
X81743918Y-46111814D01*
X81880700Y-46476959D01*
X82086090Y-46808403D01*
X82352195Y-47093409D01*
X82668789Y-47321024D01*
X83023705Y-47482501D01*
X83230677Y-47536677D01*
X83539000Y-47421829D01*
X83539000Y-45427000D01*
X83793000Y-45427000D01*
X83793000Y-47421829D01*
X84101323Y-47536677D01*
X84308295Y-47482501D01*
X84663211Y-47321024D01*
X84979805Y-47093409D01*
X85245910Y-46808403D01*
X85451300Y-46476959D01*
X85588082Y-46111814D01*
X85651000Y-45727000D01*
X85651000Y-45427000D01*
X83793000Y-45427000D01*
X83539000Y-45427000D01*
X81681000Y-45427000D01*
X73939000Y-45427000D01*
X73939000Y-45088285D01*
X73896178Y-44873000D01*
X81681000Y-44873000D01*
X81681000Y-45173000D01*
X83539000Y-45173000D01*
X83539000Y-43178171D01*
X83793000Y-43178171D01*
X83793000Y-45173000D01*
X85651000Y-45173000D01*
X85651000Y-44902490D01*
X85881000Y-44902490D01*
X85881000Y-45697509D01*
X85909722Y-45989127D01*
X86023226Y-46363301D01*
X86207547Y-46708143D01*
X86455602Y-47010398D01*
X86757857Y-47258453D01*
X87102698Y-47442774D01*
X87476872Y-47556278D01*
X87866000Y-47594604D01*
X88255127Y-47556278D01*
X88629301Y-47442774D01*
X88974143Y-47258453D01*
X89276398Y-47010398D01*
X89524453Y-46708143D01*
X89708774Y-46363302D01*
X89822278Y-45989128D01*
X89851000Y-45697510D01*
X89851000Y-44902491D01*
X89851000Y-44902490D01*
X90081000Y-44902490D01*
X90081000Y-45697509D01*
X90109722Y-45989127D01*
X90223226Y-46363301D01*
X90407547Y-46708143D01*
X90655602Y-47010398D01*
X90957857Y-47258453D01*
X91302698Y-47442774D01*
X91676872Y-47556278D01*
X92066000Y-47594604D01*
X92455127Y-47556278D01*
X92829301Y-47442774D01*
X93174143Y-47258453D01*
X93476398Y-47010398D01*
X93724453Y-46708143D01*
X93908774Y-46363302D01*
X94022278Y-45989128D01*
X94051000Y-45697510D01*
X94051000Y-45427000D01*
X94281000Y-45427000D01*
X94281000Y-45727000D01*
X94343918Y-46111814D01*
X94480700Y-46476959D01*
X94686090Y-46808403D01*
X94952195Y-47093409D01*
X95268789Y-47321024D01*
X95623705Y-47482501D01*
X95830677Y-47536677D01*
X96139000Y-47421829D01*
X96139000Y-45427000D01*
X96393000Y-45427000D01*
X96393000Y-47421829D01*
X96701323Y-47536677D01*
X96908295Y-47482501D01*
X97263211Y-47321024D01*
X97579805Y-47093409D01*
X97845910Y-46808403D01*
X98051300Y-46476959D01*
X98188082Y-46111814D01*
X98251000Y-45727000D01*
X98251000Y-45427000D01*
X96393000Y-45427000D01*
X96139000Y-45427000D01*
X94281000Y-45427000D01*
X94051000Y-45427000D01*
X94051000Y-44902491D01*
X94048096Y-44873000D01*
X94281000Y-44873000D01*
X94281000Y-45173000D01*
X96139000Y-45173000D01*
X96139000Y-43178171D01*
X96393000Y-43178171D01*
X96393000Y-45173000D01*
X98251000Y-45173000D01*
X98251000Y-44873000D01*
X98188082Y-44488186D01*
X98051300Y-44123041D01*
X97845910Y-43791597D01*
X97579805Y-43506591D01*
X97263211Y-43278976D01*
X96908295Y-43117499D01*
X96701323Y-43063323D01*
X96393000Y-43178171D01*
X96139000Y-43178171D01*
X95830677Y-43063323D01*
X95623705Y-43117499D01*
X95268789Y-43278976D01*
X94952195Y-43506591D01*
X94686090Y-43791597D01*
X94480700Y-44123041D01*
X94343918Y-44488186D01*
X94281000Y-44873000D01*
X94048096Y-44873000D01*
X94022278Y-44610873D01*
X93908774Y-44236698D01*
X93724453Y-43891857D01*
X93476398Y-43589602D01*
X93174143Y-43341547D01*
X92829302Y-43157226D01*
X92455128Y-43043722D01*
X92066000Y-43005396D01*
X91676873Y-43043722D01*
X91302699Y-43157226D01*
X90957858Y-43341547D01*
X90655603Y-43589602D01*
X90407547Y-43891857D01*
X90223226Y-44236698D01*
X90109722Y-44610872D01*
X90081000Y-44902490D01*
X89851000Y-44902490D01*
X89822278Y-44610873D01*
X89708774Y-44236698D01*
X89524453Y-43891857D01*
X89276398Y-43589602D01*
X88974143Y-43341547D01*
X88629302Y-43157226D01*
X88255128Y-43043722D01*
X87866000Y-43005396D01*
X87476873Y-43043722D01*
X87102699Y-43157226D01*
X86757858Y-43341547D01*
X86455603Y-43589602D01*
X86207547Y-43891857D01*
X86023226Y-44236698D01*
X85909722Y-44610872D01*
X85881000Y-44902490D01*
X85651000Y-44902490D01*
X85651000Y-44873000D01*
X85588082Y-44488186D01*
X85451300Y-44123041D01*
X85245910Y-43791597D01*
X84979805Y-43506591D01*
X84663211Y-43278976D01*
X84308295Y-43117499D01*
X84101323Y-43063323D01*
X83793000Y-43178171D01*
X83539000Y-43178171D01*
X83230677Y-43063323D01*
X83023705Y-43117499D01*
X82668789Y-43278976D01*
X82352195Y-43506591D01*
X82086090Y-43791597D01*
X81880700Y-44123041D01*
X81743918Y-44488186D01*
X81681000Y-44873000D01*
X73896178Y-44873000D01*
X73791623Y-44347372D01*
X73502533Y-43649446D01*
X73082839Y-43021330D01*
X72548670Y-42487161D01*
X71949787Y-42087000D01*
X106866213Y-42087000D01*
X106267330Y-42487161D01*
G37*
X106267330Y-42487161D02*
X105733161Y-43021330D01*
X105313467Y-43649446D01*
X105024377Y-44347372D01*
X104877000Y-45088285D01*
X104877000Y-45843715D01*
X105024377Y-46584628D01*
X105313467Y-47282554D01*
X105733161Y-47910670D01*
X106267330Y-48444839D01*
X106895446Y-48864533D01*
X107593372Y-49153623D01*
X108334285Y-49301000D01*
X109089715Y-49301000D01*
X109830628Y-49153623D01*
X110528554Y-48864533D01*
X111156670Y-48444839D01*
X111690839Y-47910670D01*
X112091001Y-47311786D01*
X112091000Y-104326213D01*
X111690839Y-103727330D01*
X111156670Y-103193161D01*
X110528554Y-102773467D01*
X109830628Y-102484377D01*
X109089715Y-102337000D01*
X108334285Y-102337000D01*
X107593372Y-102484377D01*
X106895446Y-102773467D01*
X106267330Y-103193161D01*
X105733161Y-103727330D01*
X105313467Y-104355446D01*
X105024377Y-105053372D01*
X104877000Y-105794285D01*
X104877000Y-106549715D01*
X105024377Y-107290628D01*
X105313467Y-107988554D01*
X105733161Y-108616670D01*
X106267330Y-109150839D01*
X106866213Y-109551000D01*
X71949787Y-109551000D01*
X72548670Y-109150839D01*
X73082839Y-108616670D01*
X73502533Y-107988554D01*
X73791623Y-107290628D01*
X73933361Y-106578061D01*
X90151000Y-106578061D01*
X90151000Y-106781939D01*
X90190774Y-106981898D01*
X90268795Y-107170256D01*
X90382063Y-107339774D01*
X90526226Y-107483937D01*
X90695744Y-107597205D01*
X90884102Y-107675226D01*
X91084061Y-107715000D01*
X91287939Y-107715000D01*
X91487898Y-107675226D01*
X91676256Y-107597205D01*
X91845774Y-107483937D01*
X91989937Y-107339774D01*
X92103205Y-107170256D01*
X92181226Y-106981898D01*
X92221000Y-106781939D01*
X92221000Y-106578061D01*
X92181226Y-106378102D01*
X92103205Y-106189744D01*
X91989937Y-106020226D01*
X91845774Y-105876063D01*
X91676256Y-105762795D01*
X91487898Y-105684774D01*
X91287939Y-105645000D01*
X91084061Y-105645000D01*
X90884102Y-105684774D01*
X90695744Y-105762795D01*
X90526226Y-105876063D01*
X90382063Y-106020226D01*
X90268795Y-106189744D01*
X90190774Y-106378102D01*
X90151000Y-106578061D01*
X73933361Y-106578061D01*
X73939000Y-106549715D01*
X73939000Y-105794285D01*
X73791623Y-105053372D01*
X73502533Y-104355446D01*
X73082839Y-103727330D01*
X72548670Y-103193161D01*
X71920554Y-102773467D01*
X71222628Y-102484377D01*
X70481715Y-102337000D01*
X69726285Y-102337000D01*
X68985372Y-102484377D01*
X68287446Y-102773467D01*
X67659330Y-103193161D01*
X67125161Y-103727330D01*
X66725000Y-104326213D01*
X66725000Y-101752061D01*
X92310000Y-101752061D01*
X92310000Y-101955939D01*
X92349774Y-102155898D01*
X92427795Y-102344256D01*
X92541063Y-102513774D01*
X92685226Y-102657937D01*
X92854744Y-102771205D01*
X93043102Y-102849226D01*
X93243061Y-102889000D01*
X93446939Y-102889000D01*
X93646898Y-102849226D01*
X93835256Y-102771205D01*
X94004774Y-102657937D01*
X94148937Y-102513774D01*
X94262205Y-102344256D01*
X94340226Y-102155898D01*
X94380000Y-101955939D01*
X94380000Y-101752061D01*
X94340226Y-101552102D01*
X94262205Y-101363744D01*
X94148937Y-101194226D01*
X94004774Y-101050063D01*
X93835256Y-100936795D01*
X93646898Y-100858774D01*
X93446939Y-100819000D01*
X93243061Y-100819000D01*
X93043102Y-100858774D01*
X92854744Y-100936795D01*
X92685226Y-101050063D01*
X92541063Y-101194226D01*
X92427795Y-101363744D01*
X92349774Y-101552102D01*
X92310000Y-101752061D01*
X66725000Y-101752061D01*
X66725000Y-99466061D01*
X105137000Y-99466061D01*
X105137000Y-99669939D01*
X105176774Y-99869898D01*
X105254795Y-100058256D01*
X105368063Y-100227774D01*
X105512226Y-100371937D01*
X105681744Y-100485205D01*
X105870102Y-100563226D01*
X106070061Y-100603000D01*
X106273939Y-100603000D01*
X106473898Y-100563226D01*
X106662256Y-100485205D01*
X106831774Y-100371937D01*
X106975937Y-100227774D01*
X106988481Y-100209000D01*
X107214000Y-100209000D01*
X107214000Y-100559000D01*
X107261546Y-100787742D01*
X107352804Y-101002813D01*
X107484266Y-101195948D01*
X107650881Y-101359725D01*
X107846246Y-101487850D01*
X108062853Y-101575399D01*
X108089256Y-101575803D01*
X108272000Y-101450361D01*
X108272000Y-100209000D01*
X108526000Y-100209000D01*
X108526000Y-101450361D01*
X108708744Y-101575803D01*
X108735147Y-101575399D01*
X108951754Y-101487850D01*
X109147119Y-101359725D01*
X109313734Y-101195948D01*
X109445196Y-101002813D01*
X109536454Y-100787742D01*
X109584000Y-100559000D01*
X109584000Y-100209000D01*
X108526000Y-100209000D01*
X108272000Y-100209000D01*
X107214000Y-100209000D01*
X106988481Y-100209000D01*
X107089205Y-100058256D01*
X107167226Y-99869898D01*
X107207000Y-99669939D01*
X107207000Y-99605000D01*
X107214000Y-99605000D01*
X107214000Y-99955000D01*
X108272000Y-99955000D01*
X108272000Y-98713639D01*
X108526000Y-98713639D01*
X108526000Y-99955000D01*
X109584000Y-99955000D01*
X109584000Y-99605000D01*
X109536454Y-99376258D01*
X109445196Y-99161187D01*
X109313734Y-98968052D01*
X109147119Y-98804275D01*
X108951754Y-98676150D01*
X108735147Y-98588601D01*
X108708744Y-98588197D01*
X108526000Y-98713639D01*
X108272000Y-98713639D01*
X108089256Y-98588197D01*
X108062853Y-98588601D01*
X107846246Y-98676150D01*
X107650881Y-98804275D01*
X107484266Y-98968052D01*
X107352804Y-99161187D01*
X107261546Y-99376258D01*
X107214000Y-99605000D01*
X107207000Y-99605000D01*
X107207000Y-99466061D01*
X107167226Y-99266102D01*
X107089205Y-99077744D01*
X106975937Y-98908226D01*
X106831774Y-98764063D01*
X106662256Y-98650795D01*
X106473898Y-98572774D01*
X106273939Y-98533000D01*
X106070061Y-98533000D01*
X105870102Y-98572774D01*
X105681744Y-98650795D01*
X105512226Y-98764063D01*
X105368063Y-98908226D01*
X105254795Y-99077744D01*
X105176774Y-99266102D01*
X105137000Y-99466061D01*
X66725000Y-99466061D01*
X66725000Y-97548397D01*
X69001208Y-97548397D01*
X69078843Y-97797472D01*
X69342883Y-97923371D01*
X69626411Y-97995339D01*
X69918531Y-98010611D01*
X70208019Y-97968599D01*
X70483747Y-97870919D01*
X70621157Y-97797472D01*
X70698792Y-97548397D01*
X69850000Y-96699605D01*
X69001208Y-97548397D01*
X66725000Y-97548397D01*
X66725000Y-96588531D01*
X68359389Y-96588531D01*
X68401401Y-96878019D01*
X68499081Y-97153747D01*
X68572528Y-97291157D01*
X68821603Y-97368792D01*
X69670395Y-96520000D01*
X68821603Y-95671208D01*
X68572528Y-95748843D01*
X68446629Y-96012883D01*
X68374661Y-96296411D01*
X68359389Y-96588531D01*
X66725000Y-96588531D01*
X66725000Y-68433740D01*
X68365000Y-68433740D01*
X68365000Y-68726260D01*
X68422068Y-69013158D01*
X68534010Y-69283411D01*
X68696525Y-69526632D01*
X68903368Y-69733475D01*
X69077760Y-69850000D01*
X68903368Y-69966525D01*
X68696525Y-70173368D01*
X68534010Y-70416589D01*
X68422068Y-70686842D01*
X68365000Y-70973740D01*
X68365000Y-71266260D01*
X68422068Y-71553158D01*
X68534010Y-71823411D01*
X68696525Y-72066632D01*
X68903368Y-72273475D01*
X69077760Y-72390000D01*
X68903368Y-72506525D01*
X68696525Y-72713368D01*
X68534010Y-72956589D01*
X68422068Y-73226842D01*
X68365000Y-73513740D01*
X68365000Y-73806260D01*
X68422068Y-74093158D01*
X68534010Y-74363411D01*
X68696525Y-74606632D01*
X68903368Y-74813475D01*
X69077760Y-74930000D01*
X68903368Y-75046525D01*
X68696525Y-75253368D01*
X68534010Y-75496589D01*
X68422068Y-75766842D01*
X68365000Y-76053740D01*
X68365000Y-76346260D01*
X68422068Y-76633158D01*
X68534010Y-76903411D01*
X68696525Y-77146632D01*
X68903368Y-77353475D01*
X69077760Y-77470000D01*
X68903368Y-77586525D01*
X68696525Y-77793368D01*
X68534010Y-78036589D01*
X68422068Y-78306842D01*
X68365000Y-78593740D01*
X68365000Y-78886260D01*
X68422068Y-79173158D01*
X68534010Y-79443411D01*
X68696525Y-79686632D01*
X68903368Y-79893475D01*
X69077760Y-80010000D01*
X68903368Y-80126525D01*
X68696525Y-80333368D01*
X68534010Y-80576589D01*
X68422068Y-80846842D01*
X68365000Y-81133740D01*
X68365000Y-81426260D01*
X68422068Y-81713158D01*
X68534010Y-81983411D01*
X68696525Y-82226632D01*
X68903368Y-82433475D01*
X69077760Y-82550000D01*
X68903368Y-82666525D01*
X68696525Y-82873368D01*
X68534010Y-83116589D01*
X68422068Y-83386842D01*
X68365000Y-83673740D01*
X68365000Y-83966260D01*
X68422068Y-84253158D01*
X68534010Y-84523411D01*
X68696525Y-84766632D01*
X68903368Y-84973475D01*
X69077760Y-85090000D01*
X68903368Y-85206525D01*
X68696525Y-85413368D01*
X68534010Y-85656589D01*
X68422068Y-85926842D01*
X68365000Y-86213740D01*
X68365000Y-86506260D01*
X68422068Y-86793158D01*
X68534010Y-87063411D01*
X68696525Y-87306632D01*
X68903368Y-87513475D01*
X69077760Y-87630000D01*
X68903368Y-87746525D01*
X68696525Y-87953368D01*
X68534010Y-88196589D01*
X68422068Y-88466842D01*
X68365000Y-88753740D01*
X68365000Y-89046260D01*
X68422068Y-89333158D01*
X68534010Y-89603411D01*
X68696525Y-89846632D01*
X68903368Y-90053475D01*
X69077760Y-90170000D01*
X68903368Y-90286525D01*
X68696525Y-90493368D01*
X68534010Y-90736589D01*
X68422068Y-91006842D01*
X68365000Y-91293740D01*
X68365000Y-91586260D01*
X68422068Y-91873158D01*
X68534010Y-92143411D01*
X68696525Y-92386632D01*
X68903368Y-92593475D01*
X69077760Y-92710000D01*
X68903368Y-92826525D01*
X68696525Y-93033368D01*
X68534010Y-93276589D01*
X68422068Y-93546842D01*
X68365000Y-93833740D01*
X68365000Y-94126260D01*
X68422068Y-94413158D01*
X68534010Y-94683411D01*
X68696525Y-94926632D01*
X68903368Y-95133475D01*
X69076729Y-95249311D01*
X69001208Y-95491603D01*
X69850000Y-96340395D01*
X70698792Y-95491603D01*
X70623271Y-95249311D01*
X70796632Y-95133475D01*
X71003475Y-94926632D01*
X71120000Y-94752240D01*
X71236525Y-94926632D01*
X71368380Y-95058487D01*
X71295820Y-95080498D01*
X71185506Y-95139463D01*
X71088815Y-95218815D01*
X71009463Y-95315506D01*
X70950498Y-95425820D01*
X70914188Y-95545518D01*
X70901928Y-95670000D01*
X70901975Y-95678557D01*
X70878397Y-95671208D01*
X70029605Y-96520000D01*
X70878397Y-97368792D01*
X70901975Y-97361443D01*
X70901928Y-97370000D01*
X70914188Y-97494482D01*
X70950498Y-97614180D01*
X71009463Y-97724494D01*
X71088815Y-97821185D01*
X71185506Y-97900537D01*
X71295820Y-97959502D01*
X71415518Y-97995812D01*
X71540000Y-98008072D01*
X72104250Y-98005000D01*
X72263000Y-97846250D01*
X72263000Y-96647000D01*
X72517000Y-96647000D01*
X72517000Y-97846250D01*
X72675750Y-98005000D01*
X73240000Y-98008072D01*
X73364482Y-97995812D01*
X73484180Y-97959502D01*
X73594494Y-97900537D01*
X73691185Y-97821185D01*
X73770537Y-97724494D01*
X73782114Y-97702835D01*
X102777002Y-97702835D01*
X102777002Y-97877165D01*
X102811012Y-98048145D01*
X102877725Y-98209205D01*
X102974578Y-98354155D01*
X103097847Y-98477424D01*
X103242797Y-98574277D01*
X103403857Y-98640990D01*
X103574837Y-98675000D01*
X103749167Y-98675000D01*
X103920147Y-98640990D01*
X104081207Y-98574277D01*
X104226157Y-98477424D01*
X104349426Y-98354155D01*
X104446279Y-98209205D01*
X104512992Y-98048145D01*
X104547002Y-97877165D01*
X104547002Y-97702835D01*
X104512992Y-97531855D01*
X104462104Y-97409000D01*
X109364000Y-97409000D01*
X109364000Y-97959000D01*
X109411546Y-98187742D01*
X109502804Y-98402813D01*
X109634266Y-98595948D01*
X109800881Y-98759725D01*
X109996246Y-98887850D01*
X110212853Y-98975399D01*
X110239256Y-98975803D01*
X110422000Y-98850361D01*
X110422000Y-97409000D01*
X110676000Y-97409000D01*
X110676000Y-98850361D01*
X110858744Y-98975803D01*
X110885147Y-98975399D01*
X111101754Y-98887850D01*
X111297119Y-98759725D01*
X111463734Y-98595948D01*
X111595196Y-98402813D01*
X111686454Y-98187742D01*
X111734000Y-97959000D01*
X111734000Y-97409000D01*
X110676000Y-97409000D01*
X110422000Y-97409000D01*
X109364000Y-97409000D01*
X104462104Y-97409000D01*
X104446279Y-97370795D01*
X104349426Y-97225845D01*
X104226157Y-97102576D01*
X104081207Y-97005723D01*
X103920147Y-96939010D01*
X103749167Y-96905000D01*
X103574837Y-96905000D01*
X103403857Y-96939010D01*
X103242797Y-97005723D01*
X103097847Y-97102576D01*
X102974578Y-97225845D01*
X102877725Y-97370795D01*
X102811012Y-97531855D01*
X102777002Y-97702835D01*
X73782114Y-97702835D01*
X73829502Y-97614180D01*
X73865812Y-97494482D01*
X73878072Y-97370000D01*
X73875000Y-96805750D01*
X73716250Y-96647000D01*
X72517000Y-96647000D01*
X72263000Y-96647000D01*
X72243000Y-96647000D01*
X72243000Y-96605000D01*
X109364000Y-96605000D01*
X109364000Y-97155000D01*
X110422000Y-97155000D01*
X110422000Y-95713639D01*
X110676000Y-95713639D01*
X110676000Y-97155000D01*
X111734000Y-97155000D01*
X111734000Y-96605000D01*
X111686454Y-96376258D01*
X111595196Y-96161187D01*
X111463734Y-95968052D01*
X111297119Y-95804275D01*
X111101754Y-95676150D01*
X110885147Y-95588601D01*
X110858744Y-95588197D01*
X110676000Y-95713639D01*
X110422000Y-95713639D01*
X110239256Y-95588197D01*
X110212853Y-95588601D01*
X109996246Y-95676150D01*
X109800881Y-95804275D01*
X109634266Y-95968052D01*
X109502804Y-96161187D01*
X109411546Y-96376258D01*
X109364000Y-96605000D01*
X72243000Y-96605000D01*
X72243000Y-96393000D01*
X72263000Y-96393000D01*
X72263000Y-96373000D01*
X72517000Y-96373000D01*
X72517000Y-96393000D01*
X73716250Y-96393000D01*
X73875000Y-96234250D01*
X73878072Y-95670000D01*
X73865812Y-95545518D01*
X73829502Y-95425820D01*
X73770537Y-95315506D01*
X73691185Y-95218815D01*
X73594494Y-95139463D01*
X73484180Y-95080498D01*
X73411620Y-95058487D01*
X73543475Y-94926632D01*
X73650096Y-94767061D01*
X79483000Y-94767061D01*
X79483000Y-94970939D01*
X79522774Y-95170898D01*
X79600795Y-95359256D01*
X79714063Y-95528774D01*
X79858226Y-95672937D01*
X80027744Y-95786205D01*
X80216102Y-95864226D01*
X80416061Y-95904000D01*
X80619939Y-95904000D01*
X80819898Y-95864226D01*
X81008256Y-95786205D01*
X81177774Y-95672937D01*
X81321937Y-95528774D01*
X81435205Y-95359256D01*
X81513226Y-95170898D01*
X81553000Y-94970939D01*
X81553000Y-94767061D01*
X81521560Y-94609000D01*
X107214000Y-94609000D01*
X107214000Y-94959000D01*
X107261546Y-95187742D01*
X107352804Y-95402813D01*
X107484266Y-95595948D01*
X107650881Y-95759725D01*
X107846246Y-95887850D01*
X108062853Y-95975399D01*
X108089256Y-95975803D01*
X108272000Y-95850361D01*
X108272000Y-94609000D01*
X108526000Y-94609000D01*
X108526000Y-95850361D01*
X108708744Y-95975803D01*
X108735147Y-95975399D01*
X108951754Y-95887850D01*
X109147119Y-95759725D01*
X109313734Y-95595948D01*
X109445196Y-95402813D01*
X109536454Y-95187742D01*
X109584000Y-94959000D01*
X109584000Y-94609000D01*
X108526000Y-94609000D01*
X108272000Y-94609000D01*
X107214000Y-94609000D01*
X81521560Y-94609000D01*
X81513226Y-94567102D01*
X81435205Y-94378744D01*
X81321937Y-94209226D01*
X81177774Y-94065063D01*
X81008256Y-93951795D01*
X80819898Y-93873774D01*
X80619939Y-93834000D01*
X80416061Y-93834000D01*
X80216102Y-93873774D01*
X80027744Y-93951795D01*
X79858226Y-94065063D01*
X79714063Y-94209226D01*
X79600795Y-94378744D01*
X79522774Y-94567102D01*
X79483000Y-94767061D01*
X73650096Y-94767061D01*
X73705990Y-94683411D01*
X73817932Y-94413158D01*
X73875000Y-94126260D01*
X73875000Y-93833740D01*
X73817932Y-93546842D01*
X73705990Y-93276589D01*
X73598729Y-93116061D01*
X85706000Y-93116061D01*
X85706000Y-93319939D01*
X85745774Y-93519898D01*
X85823795Y-93708256D01*
X85937063Y-93877774D01*
X86081226Y-94021937D01*
X86250744Y-94135205D01*
X86439102Y-94213226D01*
X86639061Y-94253000D01*
X86842939Y-94253000D01*
X87042898Y-94213226D01*
X87231256Y-94135205D01*
X87400774Y-94021937D01*
X87544937Y-93877774D01*
X87658205Y-93708256D01*
X87736226Y-93519898D01*
X87774062Y-93329683D01*
X87888145Y-93306990D01*
X88004607Y-93258750D01*
X88142896Y-93316031D01*
X88313876Y-93350041D01*
X88488206Y-93350041D01*
X88659186Y-93316031D01*
X88755901Y-93275970D01*
X88886831Y-93330203D01*
X89057811Y-93364213D01*
X89232141Y-93364213D01*
X89403121Y-93330203D01*
X89479698Y-93298484D01*
X89480000Y-93300001D01*
X89546713Y-93461061D01*
X89643566Y-93606011D01*
X89766835Y-93729280D01*
X89911785Y-93826133D01*
X90072845Y-93892846D01*
X90243825Y-93926856D01*
X90418155Y-93926856D01*
X90589135Y-93892846D01*
X90750195Y-93826133D01*
X90895145Y-93729280D01*
X91018414Y-93606011D01*
X91115267Y-93461061D01*
X91181980Y-93300001D01*
X91215990Y-93129021D01*
X91215990Y-92954691D01*
X91181980Y-92783711D01*
X91115267Y-92622651D01*
X91030531Y-92495835D01*
X101604000Y-92495835D01*
X101604000Y-92670165D01*
X101638010Y-92841145D01*
X101704723Y-93002205D01*
X101801576Y-93147155D01*
X101924845Y-93270424D01*
X102069795Y-93367277D01*
X102230855Y-93433990D01*
X102401835Y-93468000D01*
X102576165Y-93468000D01*
X102747145Y-93433990D01*
X102908205Y-93367277D01*
X103053155Y-93270424D01*
X103176424Y-93147155D01*
X103273277Y-93002205D01*
X103339990Y-92841145D01*
X103374000Y-92670165D01*
X103374000Y-92495835D01*
X103345800Y-92354061D01*
X106407000Y-92354061D01*
X106407000Y-92557939D01*
X106446774Y-92757898D01*
X106524795Y-92946256D01*
X106638063Y-93115774D01*
X106782226Y-93259937D01*
X106951744Y-93373205D01*
X107140102Y-93451226D01*
X107340061Y-93491000D01*
X107400578Y-93491000D01*
X107352804Y-93561187D01*
X107261546Y-93776258D01*
X107214000Y-94005000D01*
X107214000Y-94355000D01*
X108272000Y-94355000D01*
X108272000Y-93113639D01*
X108526000Y-93113639D01*
X108526000Y-94355000D01*
X109584000Y-94355000D01*
X109584000Y-94005000D01*
X109536454Y-93776258D01*
X109445196Y-93561187D01*
X109313734Y-93368052D01*
X109147119Y-93204275D01*
X108951754Y-93076150D01*
X108735147Y-92988601D01*
X108708744Y-92988197D01*
X108526000Y-93113639D01*
X108272000Y-93113639D01*
X108255110Y-93102045D01*
X108359205Y-92946256D01*
X108437226Y-92757898D01*
X108477000Y-92557939D01*
X108477000Y-92354061D01*
X108437226Y-92154102D01*
X108359205Y-91965744D01*
X108245937Y-91796226D01*
X108101774Y-91652063D01*
X107932256Y-91538795D01*
X107743898Y-91460774D01*
X107543939Y-91421000D01*
X107340061Y-91421000D01*
X107140102Y-91460774D01*
X106951744Y-91538795D01*
X106782226Y-91652063D01*
X106638063Y-91796226D01*
X106524795Y-91965744D01*
X106446774Y-92154102D01*
X106407000Y-92354061D01*
X103345800Y-92354061D01*
X103339990Y-92324855D01*
X103273277Y-92163795D01*
X103176424Y-92018845D01*
X103053155Y-91895576D01*
X102908205Y-91798723D01*
X102747145Y-91732010D01*
X102576165Y-91698000D01*
X102401835Y-91698000D01*
X102230855Y-91732010D01*
X102069795Y-91798723D01*
X101924845Y-91895576D01*
X101801576Y-92018845D01*
X101704723Y-92163795D01*
X101638010Y-92324855D01*
X101604000Y-92495835D01*
X91030531Y-92495835D01*
X91018414Y-92477701D01*
X90895145Y-92354432D01*
X90750195Y-92257579D01*
X90705052Y-92238880D01*
X90695264Y-92189672D01*
X90628551Y-92028612D01*
X90531698Y-91883662D01*
X90408429Y-91760393D01*
X90263479Y-91663540D01*
X90102419Y-91596827D01*
X89931439Y-91562817D01*
X89757109Y-91562817D01*
X89586129Y-91596827D01*
X89456727Y-91650427D01*
X89403121Y-91628223D01*
X89232141Y-91594213D01*
X89057811Y-91594213D01*
X88886831Y-91628223D01*
X88790116Y-91668284D01*
X88659186Y-91614051D01*
X88488206Y-91580041D01*
X88313876Y-91580041D01*
X88142896Y-91614051D01*
X88026434Y-91662291D01*
X87888145Y-91605010D01*
X87717165Y-91571000D01*
X87542835Y-91571000D01*
X87465121Y-91586458D01*
X87555424Y-91496155D01*
X87652277Y-91351205D01*
X87718990Y-91190145D01*
X87753000Y-91019165D01*
X87753000Y-90844835D01*
X87743249Y-90795812D01*
X87888145Y-90766990D01*
X88049205Y-90700277D01*
X88194155Y-90603424D01*
X88317424Y-90480155D01*
X88414277Y-90335205D01*
X88480990Y-90174145D01*
X88515000Y-90003165D01*
X88515000Y-89828835D01*
X89793000Y-89828835D01*
X89793000Y-90003165D01*
X89827010Y-90174145D01*
X89893723Y-90335205D01*
X89990576Y-90480155D01*
X90113845Y-90603424D01*
X90258795Y-90700277D01*
X90419855Y-90766990D01*
X90590835Y-90801000D01*
X90765165Y-90801000D01*
X90936145Y-90766990D01*
X91097205Y-90700277D01*
X91242155Y-90603424D01*
X91269518Y-90576061D01*
X93961000Y-90576061D01*
X93961000Y-90779939D01*
X94000774Y-90979898D01*
X94078795Y-91168256D01*
X94192063Y-91337774D01*
X94336226Y-91481937D01*
X94505744Y-91595205D01*
X94694102Y-91673226D01*
X94894061Y-91713000D01*
X95097939Y-91713000D01*
X95297898Y-91673226D01*
X95486256Y-91595205D01*
X95655774Y-91481937D01*
X95799937Y-91337774D01*
X95888750Y-91204855D01*
X95902744Y-91214205D01*
X96091102Y-91292226D01*
X96291061Y-91332000D01*
X96494939Y-91332000D01*
X96694898Y-91292226D01*
X96883256Y-91214205D01*
X97052774Y-91100937D01*
X97196937Y-90956774D01*
X97310205Y-90787256D01*
X97388226Y-90598898D01*
X97428000Y-90398939D01*
X97428000Y-90195061D01*
X97388226Y-89995102D01*
X97310205Y-89806744D01*
X97196937Y-89637226D01*
X97052774Y-89493063D01*
X96883256Y-89379795D01*
X96694898Y-89301774D01*
X96494939Y-89262000D01*
X96291061Y-89262000D01*
X96091102Y-89301774D01*
X95902744Y-89379795D01*
X95733226Y-89493063D01*
X95589063Y-89637226D01*
X95500250Y-89770145D01*
X95486256Y-89760795D01*
X95297898Y-89682774D01*
X95097939Y-89643000D01*
X94894061Y-89643000D01*
X94694102Y-89682774D01*
X94505744Y-89760795D01*
X94336226Y-89874063D01*
X94192063Y-90018226D01*
X94078795Y-90187744D01*
X94000774Y-90376102D01*
X93961000Y-90576061D01*
X91269518Y-90576061D01*
X91365424Y-90480155D01*
X91462277Y-90335205D01*
X91528990Y-90174145D01*
X91563000Y-90003165D01*
X91563000Y-89828835D01*
X91528990Y-89657855D01*
X91462277Y-89496795D01*
X91365424Y-89351845D01*
X91242155Y-89228576D01*
X91097205Y-89131723D01*
X90936145Y-89065010D01*
X90765165Y-89031000D01*
X90590835Y-89031000D01*
X90419855Y-89065010D01*
X90258795Y-89131723D01*
X90113845Y-89228576D01*
X89990576Y-89351845D01*
X89893723Y-89496795D01*
X89827010Y-89657855D01*
X89793000Y-89828835D01*
X88515000Y-89828835D01*
X88480990Y-89657855D01*
X88414277Y-89496795D01*
X88317424Y-89351845D01*
X88194155Y-89228576D01*
X88057028Y-89136951D01*
X88063424Y-89130555D01*
X88160277Y-88985605D01*
X88211985Y-88860769D01*
X101524950Y-88860769D01*
X101524950Y-89035099D01*
X101558960Y-89206079D01*
X101625673Y-89367139D01*
X101722526Y-89512089D01*
X101845795Y-89635358D01*
X101990745Y-89732211D01*
X102151805Y-89798924D01*
X102322785Y-89832934D01*
X102497115Y-89832934D01*
X102668095Y-89798924D01*
X102829155Y-89732211D01*
X102974105Y-89635358D01*
X103097374Y-89512089D01*
X103194227Y-89367139D01*
X103260940Y-89206079D01*
X103294950Y-89035099D01*
X103294950Y-88860769D01*
X103260940Y-88689789D01*
X103194227Y-88528729D01*
X103097374Y-88383779D01*
X102974105Y-88260510D01*
X102829155Y-88163657D01*
X102668095Y-88096944D01*
X102497115Y-88062934D01*
X102322785Y-88062934D01*
X102151805Y-88096944D01*
X101990745Y-88163657D01*
X101845795Y-88260510D01*
X101722526Y-88383779D01*
X101625673Y-88528729D01*
X101558960Y-88689789D01*
X101524950Y-88860769D01*
X88211985Y-88860769D01*
X88226990Y-88824545D01*
X88261000Y-88653565D01*
X88261000Y-88553594D01*
X88330916Y-88483678D01*
X88427769Y-88338728D01*
X88494482Y-88177668D01*
X88528492Y-88006688D01*
X88528492Y-87832358D01*
X88494482Y-87661378D01*
X88427769Y-87500318D01*
X88330916Y-87355368D01*
X88207647Y-87232099D01*
X88062697Y-87135246D01*
X87901637Y-87068533D01*
X87730657Y-87034523D01*
X87556327Y-87034523D01*
X87385347Y-87068533D01*
X87224287Y-87135246D01*
X87079337Y-87232099D01*
X86956068Y-87355368D01*
X86859215Y-87500318D01*
X86792502Y-87661378D01*
X86758492Y-87832358D01*
X86758492Y-87932329D01*
X86688576Y-88002245D01*
X86591723Y-88147195D01*
X86525010Y-88308255D01*
X86491000Y-88479235D01*
X86491000Y-88653565D01*
X86525010Y-88824545D01*
X86591723Y-88985605D01*
X86688576Y-89130555D01*
X86811845Y-89253824D01*
X86948972Y-89345449D01*
X86942576Y-89351845D01*
X86845723Y-89496795D01*
X86779010Y-89657855D01*
X86745000Y-89828835D01*
X86745000Y-90003165D01*
X86754751Y-90052188D01*
X86609855Y-90081010D01*
X86448795Y-90147723D01*
X86303845Y-90244576D01*
X86180576Y-90367845D01*
X86083723Y-90512795D01*
X86017010Y-90673855D01*
X85983000Y-90844835D01*
X85983000Y-91019165D01*
X86017010Y-91190145D01*
X86083723Y-91351205D01*
X86180576Y-91496155D01*
X86303845Y-91619424D01*
X86448795Y-91716277D01*
X86609855Y-91782990D01*
X86780835Y-91817000D01*
X86955165Y-91817000D01*
X87032879Y-91801542D01*
X86942576Y-91891845D01*
X86845723Y-92036795D01*
X86785163Y-92183000D01*
X86639061Y-92183000D01*
X86439102Y-92222774D01*
X86250744Y-92300795D01*
X86081226Y-92414063D01*
X85937063Y-92558226D01*
X85823795Y-92727744D01*
X85745774Y-92916102D01*
X85706000Y-93116061D01*
X73598729Y-93116061D01*
X73543475Y-93033368D01*
X73336632Y-92826525D01*
X73162240Y-92710000D01*
X73336632Y-92593475D01*
X73543475Y-92386632D01*
X73705990Y-92143411D01*
X73817932Y-91873158D01*
X73875000Y-91586260D01*
X73875000Y-91293740D01*
X73817932Y-91006842D01*
X73705990Y-90736589D01*
X73543475Y-90493368D01*
X73336632Y-90286525D01*
X73162240Y-90170000D01*
X73336632Y-90053475D01*
X73543475Y-89846632D01*
X73705990Y-89603411D01*
X73817932Y-89333158D01*
X73875000Y-89046260D01*
X73875000Y-88753740D01*
X73817932Y-88466842D01*
X73705990Y-88196589D01*
X73543475Y-87953368D01*
X73336632Y-87746525D01*
X73162240Y-87630000D01*
X73336632Y-87513475D01*
X73543475Y-87306632D01*
X73705990Y-87063411D01*
X73725873Y-87015408D01*
X79478347Y-87015408D01*
X79478347Y-87219286D01*
X79518121Y-87419245D01*
X79596142Y-87607603D01*
X79709410Y-87777121D01*
X79853573Y-87921284D01*
X80023091Y-88034552D01*
X80211449Y-88112573D01*
X80411408Y-88152347D01*
X80615286Y-88152347D01*
X80815245Y-88112573D01*
X80902520Y-88076422D01*
X81436587Y-88076422D01*
X81436587Y-88250752D01*
X81470597Y-88421732D01*
X81537310Y-88582792D01*
X81634163Y-88727742D01*
X81757432Y-88851011D01*
X81902382Y-88947864D01*
X82063442Y-89014577D01*
X82234422Y-89048587D01*
X82408752Y-89048587D01*
X82579732Y-89014577D01*
X82665816Y-88978920D01*
X82677016Y-88986404D01*
X82838076Y-89053117D01*
X83009056Y-89087127D01*
X83039000Y-89087127D01*
X83039000Y-89128939D01*
X83078774Y-89328898D01*
X83156795Y-89517256D01*
X83270063Y-89686774D01*
X83414226Y-89830937D01*
X83583744Y-89944205D01*
X83772102Y-90022226D01*
X83972061Y-90062000D01*
X84175939Y-90062000D01*
X84375898Y-90022226D01*
X84564256Y-89944205D01*
X84733774Y-89830937D01*
X84877937Y-89686774D01*
X84991205Y-89517256D01*
X85069226Y-89328898D01*
X85109000Y-89128939D01*
X85109000Y-88925061D01*
X85069226Y-88725102D01*
X84991205Y-88536744D01*
X84914378Y-88421764D01*
X84924990Y-88396145D01*
X84959000Y-88225165D01*
X84959000Y-88050835D01*
X84924990Y-87879855D01*
X84858277Y-87718795D01*
X84761424Y-87573845D01*
X84638155Y-87450576D01*
X84493205Y-87353723D01*
X84332145Y-87287010D01*
X84161165Y-87253000D01*
X83986835Y-87253000D01*
X83815855Y-87287010D01*
X83654795Y-87353723D01*
X83537124Y-87432348D01*
X83515426Y-87417850D01*
X83354366Y-87351137D01*
X83183386Y-87317127D01*
X83009056Y-87317127D01*
X82838076Y-87351137D01*
X82751992Y-87386794D01*
X82740792Y-87379310D01*
X82579732Y-87312597D01*
X82408752Y-87278587D01*
X82234422Y-87278587D01*
X82063442Y-87312597D01*
X81902382Y-87379310D01*
X81757432Y-87476163D01*
X81634163Y-87599432D01*
X81537310Y-87744382D01*
X81470597Y-87905442D01*
X81436587Y-88076422D01*
X80902520Y-88076422D01*
X81003603Y-88034552D01*
X81173121Y-87921284D01*
X81317284Y-87777121D01*
X81430552Y-87607603D01*
X81508573Y-87419245D01*
X81548347Y-87219286D01*
X81548347Y-87015408D01*
X81508573Y-86815449D01*
X81430552Y-86627091D01*
X81317284Y-86457573D01*
X81173121Y-86313410D01*
X81003603Y-86200142D01*
X80815245Y-86122121D01*
X80615286Y-86082347D01*
X80411408Y-86082347D01*
X80211449Y-86122121D01*
X80023091Y-86200142D01*
X79853573Y-86313410D01*
X79709410Y-86457573D01*
X79596142Y-86627091D01*
X79518121Y-86815449D01*
X79478347Y-87015408D01*
X73725873Y-87015408D01*
X73817932Y-86793158D01*
X73875000Y-86506260D01*
X73875000Y-86213740D01*
X73817932Y-85926842D01*
X73705990Y-85656589D01*
X73543475Y-85413368D01*
X73336632Y-85206525D01*
X73162240Y-85090000D01*
X73292610Y-85002889D01*
X74299000Y-85002889D01*
X74299000Y-85177219D01*
X74333010Y-85348199D01*
X74399723Y-85509259D01*
X74496576Y-85654209D01*
X74619845Y-85777478D01*
X74764795Y-85874331D01*
X74925855Y-85941044D01*
X75096835Y-85975054D01*
X75271165Y-85975054D01*
X75442145Y-85941044D01*
X75603205Y-85874331D01*
X75748155Y-85777478D01*
X75871424Y-85654209D01*
X75916847Y-85586228D01*
X89614393Y-85586228D01*
X89614393Y-85760558D01*
X89648403Y-85931538D01*
X89715116Y-86092598D01*
X89811969Y-86237548D01*
X89935238Y-86360817D01*
X90080188Y-86457670D01*
X90241248Y-86524383D01*
X90412228Y-86558393D01*
X90586558Y-86558393D01*
X90757538Y-86524383D01*
X90918598Y-86457670D01*
X91063548Y-86360817D01*
X91186817Y-86237548D01*
X91283670Y-86092598D01*
X91314223Y-86018835D01*
X92460000Y-86018835D01*
X92460000Y-86193165D01*
X92494010Y-86364145D01*
X92560723Y-86525205D01*
X92657576Y-86670155D01*
X92780845Y-86793424D01*
X92925795Y-86890277D01*
X93086855Y-86956990D01*
X93257835Y-86991000D01*
X93432165Y-86991000D01*
X93603145Y-86956990D01*
X93764205Y-86890277D01*
X93909155Y-86793424D01*
X94032424Y-86670155D01*
X94129277Y-86525205D01*
X94195990Y-86364145D01*
X94225907Y-86213740D01*
X106211000Y-86213740D01*
X106211000Y-86506260D01*
X106268068Y-86793158D01*
X106380010Y-87063411D01*
X106542525Y-87306632D01*
X106749368Y-87513475D01*
X106923760Y-87630000D01*
X106749368Y-87746525D01*
X106542525Y-87953368D01*
X106380010Y-88196589D01*
X106268068Y-88466842D01*
X106211000Y-88753740D01*
X106211000Y-89046260D01*
X106268068Y-89333158D01*
X106380010Y-89603411D01*
X106542525Y-89846632D01*
X106749368Y-90053475D01*
X106992589Y-90215990D01*
X107262842Y-90327932D01*
X107549740Y-90385000D01*
X107842260Y-90385000D01*
X108129158Y-90327932D01*
X108399411Y-90215990D01*
X108642632Y-90053475D01*
X108774487Y-89921620D01*
X108796498Y-89994180D01*
X108855463Y-90104494D01*
X108934815Y-90201185D01*
X109031506Y-90280537D01*
X109141820Y-90339502D01*
X109261518Y-90375812D01*
X109386000Y-90388072D01*
X111086000Y-90388072D01*
X111210482Y-90375812D01*
X111330180Y-90339502D01*
X111440494Y-90280537D01*
X111537185Y-90201185D01*
X111616537Y-90104494D01*
X111675502Y-89994180D01*
X111711812Y-89874482D01*
X111724072Y-89750000D01*
X111724072Y-88050000D01*
X111711812Y-87925518D01*
X111675502Y-87805820D01*
X111616537Y-87695506D01*
X111537185Y-87598815D01*
X111440494Y-87519463D01*
X111330180Y-87460498D01*
X111257620Y-87438487D01*
X111389475Y-87306632D01*
X111551990Y-87063411D01*
X111663932Y-86793158D01*
X111721000Y-86506260D01*
X111721000Y-86213740D01*
X111663932Y-85926842D01*
X111551990Y-85656589D01*
X111389475Y-85413368D01*
X111182632Y-85206525D01*
X111000466Y-85084805D01*
X111117355Y-85015178D01*
X111333588Y-84820269D01*
X111507641Y-84586920D01*
X111632825Y-84324099D01*
X111677476Y-84176890D01*
X111556155Y-83947000D01*
X110363000Y-83947000D01*
X110363000Y-83967000D01*
X110109000Y-83967000D01*
X110109000Y-83947000D01*
X107823000Y-83947000D01*
X107823000Y-83967000D01*
X107569000Y-83967000D01*
X107569000Y-83947000D01*
X106375845Y-83947000D01*
X106254524Y-84176890D01*
X106299175Y-84324099D01*
X106424359Y-84586920D01*
X106598412Y-84820269D01*
X106814645Y-85015178D01*
X106931534Y-85084805D01*
X106749368Y-85206525D01*
X106542525Y-85413368D01*
X106380010Y-85656589D01*
X106268068Y-85926842D01*
X106211000Y-86213740D01*
X94225907Y-86213740D01*
X94230000Y-86193165D01*
X94230000Y-86018835D01*
X94195990Y-85847855D01*
X94129277Y-85686795D01*
X94032424Y-85541845D01*
X93909155Y-85418576D01*
X93764205Y-85321723D01*
X93603145Y-85255010D01*
X93432165Y-85221000D01*
X93257835Y-85221000D01*
X93086855Y-85255010D01*
X92925795Y-85321723D01*
X92780845Y-85418576D01*
X92657576Y-85541845D01*
X92560723Y-85686795D01*
X92494010Y-85847855D01*
X92460000Y-86018835D01*
X91314223Y-86018835D01*
X91350383Y-85931538D01*
X91384393Y-85760558D01*
X91384393Y-85586228D01*
X91350383Y-85415248D01*
X91283670Y-85254188D01*
X91237246Y-85184710D01*
X91313568Y-85070486D01*
X91347709Y-84988061D01*
X98533000Y-84988061D01*
X98533000Y-85191939D01*
X98572774Y-85391898D01*
X98650795Y-85580256D01*
X98764063Y-85749774D01*
X98908226Y-85893937D01*
X99077744Y-86007205D01*
X99266102Y-86085226D01*
X99466061Y-86125000D01*
X99669939Y-86125000D01*
X99869898Y-86085226D01*
X100058256Y-86007205D01*
X100068002Y-86000693D01*
X100077747Y-86007205D01*
X100266105Y-86085226D01*
X100466064Y-86125000D01*
X100669942Y-86125000D01*
X100869901Y-86085226D01*
X101058259Y-86007205D01*
X101227777Y-85893937D01*
X101371940Y-85749774D01*
X101485208Y-85580256D01*
X101563229Y-85391898D01*
X101603003Y-85191939D01*
X101603003Y-84988061D01*
X101563229Y-84788102D01*
X101485208Y-84599744D01*
X101371940Y-84430226D01*
X101227777Y-84286063D01*
X101058259Y-84172795D01*
X100869901Y-84094774D01*
X100669942Y-84055000D01*
X100466064Y-84055000D01*
X100266105Y-84094774D01*
X100077747Y-84172795D01*
X100068002Y-84179307D01*
X100058256Y-84172795D01*
X99869898Y-84094774D01*
X99669939Y-84055000D01*
X99466061Y-84055000D01*
X99266102Y-84094774D01*
X99077744Y-84172795D01*
X98908226Y-84286063D01*
X98764063Y-84430226D01*
X98650795Y-84599744D01*
X98572774Y-84788102D01*
X98533000Y-84988061D01*
X91347709Y-84988061D01*
X91380281Y-84909426D01*
X91414291Y-84738446D01*
X91414291Y-84564116D01*
X91380281Y-84393136D01*
X91313568Y-84232076D01*
X91216715Y-84087126D01*
X91117862Y-83988273D01*
X91835249Y-83988273D01*
X91835249Y-84162603D01*
X91869259Y-84333583D01*
X91935972Y-84494643D01*
X92032825Y-84639593D01*
X92156094Y-84762862D01*
X92301044Y-84859715D01*
X92462104Y-84926428D01*
X92633084Y-84960438D01*
X92807414Y-84960438D01*
X92978394Y-84926428D01*
X93139454Y-84859715D01*
X93284404Y-84762862D01*
X93407673Y-84639593D01*
X93504526Y-84494643D01*
X93571239Y-84333583D01*
X93605249Y-84162603D01*
X93605249Y-83988273D01*
X93571239Y-83817293D01*
X93504526Y-83656233D01*
X93407673Y-83511283D01*
X93284404Y-83388014D01*
X93139454Y-83291161D01*
X92978394Y-83224448D01*
X92807414Y-83190438D01*
X92633084Y-83190438D01*
X92462104Y-83224448D01*
X92301044Y-83291161D01*
X92156094Y-83388014D01*
X92032825Y-83511283D01*
X91935972Y-83656233D01*
X91869259Y-83817293D01*
X91835249Y-83988273D01*
X91117862Y-83988273D01*
X91093446Y-83963857D01*
X90948496Y-83867004D01*
X90787436Y-83800291D01*
X90616456Y-83766281D01*
X90442126Y-83766281D01*
X90271146Y-83800291D01*
X90110086Y-83867004D01*
X89965136Y-83963857D01*
X89841867Y-84087126D01*
X89745014Y-84232076D01*
X89678301Y-84393136D01*
X89644291Y-84564116D01*
X89644291Y-84738446D01*
X89678301Y-84909426D01*
X89745014Y-85070486D01*
X89791438Y-85139964D01*
X89715116Y-85254188D01*
X89648403Y-85415248D01*
X89614393Y-85586228D01*
X75916847Y-85586228D01*
X75968277Y-85509259D01*
X76034990Y-85348199D01*
X76069000Y-85177219D01*
X76069000Y-85002889D01*
X76034990Y-84831909D01*
X75968277Y-84670849D01*
X75871424Y-84525899D01*
X75748155Y-84402630D01*
X75603205Y-84305777D01*
X75442145Y-84239064D01*
X75271165Y-84205054D01*
X75096835Y-84205054D01*
X74925855Y-84239064D01*
X74764795Y-84305777D01*
X74619845Y-84402630D01*
X74496576Y-84525899D01*
X74399723Y-84670849D01*
X74333010Y-84831909D01*
X74299000Y-85002889D01*
X73292610Y-85002889D01*
X73336632Y-84973475D01*
X73543475Y-84766632D01*
X73705990Y-84523411D01*
X73817932Y-84253158D01*
X73875000Y-83966260D01*
X73875000Y-83673740D01*
X73817932Y-83386842D01*
X73705990Y-83116589D01*
X73543475Y-82873368D01*
X73336632Y-82666525D01*
X73264511Y-82618335D01*
X74397500Y-82618335D01*
X74397500Y-82792665D01*
X74431510Y-82963645D01*
X74498223Y-83124705D01*
X74595076Y-83269655D01*
X74718345Y-83392924D01*
X74863295Y-83489777D01*
X75024355Y-83556490D01*
X75195335Y-83590500D01*
X75369665Y-83590500D01*
X75540645Y-83556490D01*
X75701705Y-83489777D01*
X75846655Y-83392924D01*
X75969924Y-83269655D01*
X76066777Y-83124705D01*
X76133490Y-82963645D01*
X76167500Y-82792665D01*
X76167500Y-82618335D01*
X76133490Y-82447355D01*
X76066777Y-82286295D01*
X76005148Y-82194061D01*
X93199000Y-82194061D01*
X93199000Y-82397939D01*
X93238774Y-82597898D01*
X93316795Y-82786256D01*
X93430063Y-82955774D01*
X93574226Y-83099937D01*
X93743744Y-83213205D01*
X93932102Y-83291226D01*
X94132061Y-83331000D01*
X94335939Y-83331000D01*
X94535898Y-83291226D01*
X94724256Y-83213205D01*
X94893774Y-83099937D01*
X95037937Y-82955774D01*
X95151205Y-82786256D01*
X95229226Y-82597898D01*
X95233768Y-82575061D01*
X95993000Y-82575061D01*
X95993000Y-82778939D01*
X96032774Y-82978898D01*
X96110795Y-83167256D01*
X96224063Y-83336774D01*
X96368226Y-83480937D01*
X96537744Y-83594205D01*
X96726102Y-83672226D01*
X96926061Y-83712000D01*
X97129939Y-83712000D01*
X97329898Y-83672226D01*
X97518256Y-83594205D01*
X97687774Y-83480937D01*
X97831937Y-83336774D01*
X97945205Y-83167256D01*
X98023226Y-82978898D01*
X98063000Y-82778939D01*
X98063000Y-82575061D01*
X98023226Y-82375102D01*
X97945205Y-82186744D01*
X97865236Y-82067061D01*
X100311000Y-82067061D01*
X100311000Y-82270939D01*
X100350774Y-82470898D01*
X100428795Y-82659256D01*
X100542063Y-82828774D01*
X100686226Y-82972937D01*
X100855744Y-83086205D01*
X101044102Y-83164226D01*
X101244061Y-83204000D01*
X101447939Y-83204000D01*
X101647898Y-83164226D01*
X101836256Y-83086205D01*
X102005774Y-82972937D01*
X102149937Y-82828774D01*
X102263205Y-82659256D01*
X102341226Y-82470898D01*
X102381000Y-82270939D01*
X102381000Y-82067061D01*
X102341226Y-81867102D01*
X102263205Y-81678744D01*
X102149937Y-81509226D01*
X102005774Y-81365063D01*
X101836256Y-81251795D01*
X101647898Y-81173774D01*
X101447939Y-81134000D01*
X101244061Y-81134000D01*
X101044102Y-81173774D01*
X100855744Y-81251795D01*
X100686226Y-81365063D01*
X100542063Y-81509226D01*
X100428795Y-81678744D01*
X100350774Y-81867102D01*
X100311000Y-82067061D01*
X97865236Y-82067061D01*
X97831937Y-82017226D01*
X97687774Y-81873063D01*
X97518256Y-81759795D01*
X97329898Y-81681774D01*
X97129939Y-81642000D01*
X96926061Y-81642000D01*
X96726102Y-81681774D01*
X96537744Y-81759795D01*
X96368226Y-81873063D01*
X96224063Y-82017226D01*
X96110795Y-82186744D01*
X96032774Y-82375102D01*
X95993000Y-82575061D01*
X95233768Y-82575061D01*
X95269000Y-82397939D01*
X95269000Y-82194061D01*
X95229226Y-81994102D01*
X95151205Y-81805744D01*
X95037937Y-81636226D01*
X94893774Y-81492063D01*
X94724256Y-81378795D01*
X94535898Y-81300774D01*
X94335939Y-81261000D01*
X94132061Y-81261000D01*
X93932102Y-81300774D01*
X93743744Y-81378795D01*
X93574226Y-81492063D01*
X93430063Y-81636226D01*
X93316795Y-81805744D01*
X93238774Y-81994102D01*
X93199000Y-82194061D01*
X76005148Y-82194061D01*
X75969924Y-82141345D01*
X75846655Y-82018076D01*
X75701705Y-81921223D01*
X75540645Y-81854510D01*
X75369665Y-81820500D01*
X75195335Y-81820500D01*
X75024355Y-81854510D01*
X74863295Y-81921223D01*
X74718345Y-82018076D01*
X74595076Y-82141345D01*
X74498223Y-82286295D01*
X74431510Y-82447355D01*
X74397500Y-82618335D01*
X73264511Y-82618335D01*
X73162240Y-82550000D01*
X73336632Y-82433475D01*
X73543475Y-82226632D01*
X73705990Y-81983411D01*
X73817932Y-81713158D01*
X73875000Y-81426260D01*
X73875000Y-81133740D01*
X73817932Y-80846842D01*
X73705990Y-80576589D01*
X73543475Y-80333368D01*
X73336632Y-80126525D01*
X73162240Y-80010000D01*
X73336632Y-79893475D01*
X73543475Y-79686632D01*
X73705990Y-79443411D01*
X73817932Y-79173158D01*
X73875000Y-78886260D01*
X73875000Y-78725367D01*
X75369436Y-78725367D01*
X75369436Y-78899697D01*
X75403446Y-79070677D01*
X75470159Y-79231737D01*
X75567012Y-79376687D01*
X75690281Y-79499956D01*
X75835231Y-79596809D01*
X75996291Y-79663522D01*
X76167271Y-79697532D01*
X76341601Y-79697532D01*
X76512581Y-79663522D01*
X76673641Y-79596809D01*
X76818591Y-79499956D01*
X76941860Y-79376687D01*
X77038713Y-79231737D01*
X77105426Y-79070677D01*
X77139436Y-78899697D01*
X77139436Y-78725367D01*
X77105426Y-78554387D01*
X77038713Y-78393327D01*
X76998039Y-78332454D01*
X86519607Y-78332454D01*
X86519607Y-78536332D01*
X86559381Y-78736291D01*
X86637402Y-78924649D01*
X86750670Y-79094167D01*
X86894833Y-79238330D01*
X87064351Y-79351598D01*
X87252709Y-79429619D01*
X87452668Y-79469393D01*
X87656546Y-79469393D01*
X87856505Y-79429619D01*
X88044863Y-79351598D01*
X88214381Y-79238330D01*
X88358544Y-79094167D01*
X88471812Y-78924649D01*
X88549833Y-78736291D01*
X88578187Y-78593740D01*
X106211000Y-78593740D01*
X106211000Y-78886260D01*
X106268068Y-79173158D01*
X106380010Y-79443411D01*
X106542525Y-79686632D01*
X106749368Y-79893475D01*
X106923760Y-80010000D01*
X106749368Y-80126525D01*
X106542525Y-80333368D01*
X106380010Y-80576589D01*
X106268068Y-80846842D01*
X106211000Y-81133740D01*
X106211000Y-81426260D01*
X106268068Y-81713158D01*
X106380010Y-81983411D01*
X106542525Y-82226632D01*
X106749368Y-82433475D01*
X106931534Y-82555195D01*
X106814645Y-82624822D01*
X106598412Y-82819731D01*
X106424359Y-83053080D01*
X106299175Y-83315901D01*
X106254524Y-83463110D01*
X106375845Y-83693000D01*
X107569000Y-83693000D01*
X107569000Y-83673000D01*
X107823000Y-83673000D01*
X107823000Y-83693000D01*
X110109000Y-83693000D01*
X110109000Y-83673000D01*
X110363000Y-83673000D01*
X110363000Y-83693000D01*
X111556155Y-83693000D01*
X111677476Y-83463110D01*
X111632825Y-83315901D01*
X111507641Y-83053080D01*
X111333588Y-82819731D01*
X111117355Y-82624822D01*
X111000466Y-82555195D01*
X111182632Y-82433475D01*
X111389475Y-82226632D01*
X111551990Y-81983411D01*
X111663932Y-81713158D01*
X111721000Y-81426260D01*
X111721000Y-81133740D01*
X111663932Y-80846842D01*
X111551990Y-80576589D01*
X111389475Y-80333368D01*
X111182632Y-80126525D01*
X111008240Y-80010000D01*
X111182632Y-79893475D01*
X111389475Y-79686632D01*
X111551990Y-79443411D01*
X111663932Y-79173158D01*
X111721000Y-78886260D01*
X111721000Y-78593740D01*
X111663932Y-78306842D01*
X111551990Y-78036589D01*
X111389475Y-77793368D01*
X111182632Y-77586525D01*
X110939411Y-77424010D01*
X110669158Y-77312068D01*
X110382260Y-77255000D01*
X110089740Y-77255000D01*
X109802842Y-77312068D01*
X109532589Y-77424010D01*
X109289368Y-77586525D01*
X109082525Y-77793368D01*
X108966000Y-77967760D01*
X108849475Y-77793368D01*
X108642632Y-77586525D01*
X108399411Y-77424010D01*
X108129158Y-77312068D01*
X107842260Y-77255000D01*
X107549740Y-77255000D01*
X107262842Y-77312068D01*
X106992589Y-77424010D01*
X106749368Y-77586525D01*
X106542525Y-77793368D01*
X106380010Y-78036589D01*
X106268068Y-78306842D01*
X106211000Y-78593740D01*
X88578187Y-78593740D01*
X88589607Y-78536332D01*
X88589607Y-78332454D01*
X88549833Y-78132495D01*
X88471812Y-77944137D01*
X88358544Y-77774619D01*
X88214381Y-77630456D01*
X88044863Y-77517188D01*
X87856505Y-77439167D01*
X87656546Y-77399393D01*
X87452668Y-77399393D01*
X87252709Y-77439167D01*
X87064351Y-77517188D01*
X86894833Y-77630456D01*
X86750670Y-77774619D01*
X86637402Y-77944137D01*
X86559381Y-78132495D01*
X86519607Y-78332454D01*
X76998039Y-78332454D01*
X76941860Y-78248377D01*
X76818591Y-78125108D01*
X76673641Y-78028255D01*
X76512581Y-77961542D01*
X76341601Y-77927532D01*
X76167271Y-77927532D01*
X75996291Y-77961542D01*
X75835231Y-78028255D01*
X75690281Y-78125108D01*
X75567012Y-78248377D01*
X75470159Y-78393327D01*
X75403446Y-78554387D01*
X75369436Y-78725367D01*
X73875000Y-78725367D01*
X73875000Y-78593740D01*
X73817932Y-78306842D01*
X73705990Y-78036589D01*
X73543475Y-77793368D01*
X73336632Y-77586525D01*
X73162240Y-77470000D01*
X73336632Y-77353475D01*
X73543475Y-77146632D01*
X73565238Y-77114061D01*
X98787000Y-77114061D01*
X98787000Y-77317939D01*
X98826774Y-77517898D01*
X98904795Y-77706256D01*
X99018063Y-77875774D01*
X99162226Y-78019937D01*
X99331744Y-78133205D01*
X99520102Y-78211226D01*
X99720061Y-78251000D01*
X99923939Y-78251000D01*
X100123898Y-78211226D01*
X100312256Y-78133205D01*
X100481774Y-78019937D01*
X100625937Y-77875774D01*
X100739205Y-77706256D01*
X100817226Y-77517898D01*
X100857000Y-77317939D01*
X100857000Y-77114061D01*
X100817226Y-76914102D01*
X100739205Y-76725744D01*
X100625937Y-76556226D01*
X100481774Y-76412063D01*
X100312256Y-76298795D01*
X100123898Y-76220774D01*
X99923939Y-76181000D01*
X99720061Y-76181000D01*
X99520102Y-76220774D01*
X99331744Y-76298795D01*
X99162226Y-76412063D01*
X99018063Y-76556226D01*
X98904795Y-76725744D01*
X98826774Y-76914102D01*
X98787000Y-77114061D01*
X73565238Y-77114061D01*
X73705990Y-76903411D01*
X73817932Y-76633158D01*
X73875000Y-76346260D01*
X73875000Y-76053740D01*
X73817932Y-75766842D01*
X73705990Y-75496589D01*
X73543475Y-75253368D01*
X73336632Y-75046525D01*
X73162240Y-74930000D01*
X73336632Y-74813475D01*
X73543475Y-74606632D01*
X73705990Y-74363411D01*
X73817932Y-74093158D01*
X73875000Y-73806260D01*
X73875000Y-73685061D01*
X82023000Y-73685061D01*
X82023000Y-73888939D01*
X82062774Y-74088898D01*
X82140795Y-74277256D01*
X82254063Y-74446774D01*
X82398226Y-74590937D01*
X82567744Y-74704205D01*
X82756102Y-74782226D01*
X82956061Y-74822000D01*
X83159939Y-74822000D01*
X83359898Y-74782226D01*
X83548256Y-74704205D01*
X83566000Y-74692349D01*
X83583744Y-74704205D01*
X83772102Y-74782226D01*
X83972061Y-74822000D01*
X84175939Y-74822000D01*
X84375898Y-74782226D01*
X84564256Y-74704205D01*
X84733774Y-74590937D01*
X84877937Y-74446774D01*
X84991205Y-74277256D01*
X85069226Y-74088898D01*
X85109000Y-73888939D01*
X85109000Y-73685061D01*
X85069226Y-73485102D01*
X84991205Y-73296744D01*
X84877937Y-73127226D01*
X84733774Y-72983063D01*
X84564256Y-72869795D01*
X84375898Y-72791774D01*
X84175939Y-72752000D01*
X83972061Y-72752000D01*
X83772102Y-72791774D01*
X83583744Y-72869795D01*
X83566000Y-72881651D01*
X83548256Y-72869795D01*
X83359898Y-72791774D01*
X83159939Y-72752000D01*
X82956061Y-72752000D01*
X82756102Y-72791774D01*
X82567744Y-72869795D01*
X82398226Y-72983063D01*
X82254063Y-73127226D01*
X82140795Y-73296744D01*
X82062774Y-73485102D01*
X82023000Y-73685061D01*
X73875000Y-73685061D01*
X73875000Y-73513740D01*
X73817932Y-73226842D01*
X73705990Y-72956589D01*
X73543475Y-72713368D01*
X73372168Y-72542061D01*
X77035000Y-72542061D01*
X77035000Y-72745939D01*
X77074774Y-72945898D01*
X77152795Y-73134256D01*
X77266063Y-73303774D01*
X77410226Y-73447937D01*
X77579744Y-73561205D01*
X77768102Y-73639226D01*
X77968061Y-73679000D01*
X78171939Y-73679000D01*
X78371898Y-73639226D01*
X78560256Y-73561205D01*
X78729774Y-73447937D01*
X78873937Y-73303774D01*
X78987205Y-73134256D01*
X79065226Y-72945898D01*
X79105000Y-72745939D01*
X79105000Y-72542061D01*
X79065226Y-72342102D01*
X78987205Y-72153744D01*
X78873937Y-71984226D01*
X78729774Y-71840063D01*
X78560256Y-71726795D01*
X78371898Y-71648774D01*
X78171939Y-71609000D01*
X77968061Y-71609000D01*
X77768102Y-71648774D01*
X77579744Y-71726795D01*
X77410226Y-71840063D01*
X77266063Y-71984226D01*
X77152795Y-72153744D01*
X77074774Y-72342102D01*
X77035000Y-72542061D01*
X73372168Y-72542061D01*
X73336632Y-72506525D01*
X73162240Y-72390000D01*
X73336632Y-72273475D01*
X73543475Y-72066632D01*
X73705990Y-71823411D01*
X73817932Y-71553158D01*
X73875000Y-71266260D01*
X73875000Y-70973740D01*
X73817932Y-70686842D01*
X73705990Y-70416589D01*
X73543475Y-70173368D01*
X73336632Y-69966525D01*
X73162240Y-69850000D01*
X73336632Y-69733475D01*
X73449046Y-69621061D01*
X93326000Y-69621061D01*
X93326000Y-69824939D01*
X93365774Y-70024898D01*
X93443795Y-70213256D01*
X93557063Y-70382774D01*
X93595789Y-70421500D01*
X93557063Y-70460226D01*
X93443795Y-70629744D01*
X93365774Y-70818102D01*
X93326000Y-71018061D01*
X93326000Y-71221939D01*
X93365774Y-71421898D01*
X93443795Y-71610256D01*
X93557063Y-71779774D01*
X93659289Y-71882000D01*
X93557063Y-71984226D01*
X93443795Y-72153744D01*
X93365774Y-72342102D01*
X93326000Y-72542061D01*
X93326000Y-72745939D01*
X93365774Y-72945898D01*
X93443795Y-73134256D01*
X93557063Y-73303774D01*
X93701226Y-73447937D01*
X93870744Y-73561205D01*
X94059102Y-73639226D01*
X94259061Y-73679000D01*
X94462939Y-73679000D01*
X94662898Y-73639226D01*
X94851256Y-73561205D01*
X95020774Y-73447937D01*
X95164650Y-73304061D01*
X98533000Y-73304061D01*
X98533000Y-73507939D01*
X98572774Y-73707898D01*
X98650795Y-73896256D01*
X98764063Y-74065774D01*
X98908226Y-74209937D01*
X99077744Y-74323205D01*
X99266102Y-74401226D01*
X99466061Y-74441000D01*
X99669939Y-74441000D01*
X99869898Y-74401226D01*
X100058256Y-74323205D01*
X100227774Y-74209937D01*
X100371937Y-74065774D01*
X100485205Y-73896256D01*
X100563226Y-73707898D01*
X100603000Y-73507939D01*
X100603000Y-73304061D01*
X100563226Y-73104102D01*
X100546616Y-73064000D01*
X106207928Y-73064000D01*
X106207928Y-74764000D01*
X106220188Y-74888482D01*
X106256498Y-75008180D01*
X106315463Y-75118494D01*
X106394815Y-75215185D01*
X106491506Y-75294537D01*
X106601820Y-75353502D01*
X106721518Y-75389812D01*
X106846000Y-75402072D01*
X108546000Y-75402072D01*
X108670482Y-75389812D01*
X108790180Y-75353502D01*
X108900494Y-75294537D01*
X108997185Y-75215185D01*
X109076537Y-75118494D01*
X109135502Y-75008180D01*
X109157513Y-74935620D01*
X109289368Y-75067475D01*
X109532589Y-75229990D01*
X109802842Y-75341932D01*
X110089740Y-75399000D01*
X110382260Y-75399000D01*
X110669158Y-75341932D01*
X110939411Y-75229990D01*
X111182632Y-75067475D01*
X111389475Y-74860632D01*
X111551990Y-74617411D01*
X111663932Y-74347158D01*
X111721000Y-74060260D01*
X111721000Y-73767740D01*
X111663932Y-73480842D01*
X111551990Y-73210589D01*
X111389475Y-72967368D01*
X111182632Y-72760525D01*
X111006594Y-72642900D01*
X111236269Y-72471588D01*
X111431178Y-72255355D01*
X111580157Y-72005252D01*
X111677481Y-71730891D01*
X111556814Y-71501000D01*
X110363000Y-71501000D01*
X110363000Y-71521000D01*
X110109000Y-71521000D01*
X110109000Y-71501000D01*
X110089000Y-71501000D01*
X110089000Y-71247000D01*
X110109000Y-71247000D01*
X110109000Y-70053845D01*
X110363000Y-70053845D01*
X110363000Y-71247000D01*
X111556814Y-71247000D01*
X111677481Y-71017109D01*
X111580157Y-70742748D01*
X111431178Y-70492645D01*
X111236269Y-70276412D01*
X111002920Y-70102359D01*
X110740099Y-69977175D01*
X110592890Y-69932524D01*
X110363000Y-70053845D01*
X110109000Y-70053845D01*
X109879110Y-69932524D01*
X109731901Y-69977175D01*
X109469080Y-70102359D01*
X109235731Y-70276412D01*
X109040822Y-70492645D01*
X108971195Y-70609534D01*
X108849475Y-70427368D01*
X108642632Y-70220525D01*
X108399411Y-70058010D01*
X108129158Y-69946068D01*
X107842260Y-69889000D01*
X107549740Y-69889000D01*
X107262842Y-69946068D01*
X106992589Y-70058010D01*
X106749368Y-70220525D01*
X106542525Y-70427368D01*
X106380010Y-70670589D01*
X106268068Y-70940842D01*
X106211000Y-71227740D01*
X106211000Y-71520260D01*
X106268068Y-71807158D01*
X106380010Y-72077411D01*
X106542525Y-72320632D01*
X106674380Y-72452487D01*
X106601820Y-72474498D01*
X106491506Y-72533463D01*
X106394815Y-72612815D01*
X106315463Y-72709506D01*
X106256498Y-72819820D01*
X106220188Y-72939518D01*
X106207928Y-73064000D01*
X100546616Y-73064000D01*
X100485205Y-72915744D01*
X100371937Y-72746226D01*
X100227774Y-72602063D01*
X100058256Y-72488795D01*
X99869898Y-72410774D01*
X99669939Y-72371000D01*
X99466061Y-72371000D01*
X99266102Y-72410774D01*
X99077744Y-72488795D01*
X98908226Y-72602063D01*
X98764063Y-72746226D01*
X98650795Y-72915744D01*
X98572774Y-73104102D01*
X98533000Y-73304061D01*
X95164650Y-73304061D01*
X95164937Y-73303774D01*
X95278205Y-73134256D01*
X95356226Y-72945898D01*
X95396000Y-72745939D01*
X95396000Y-72542061D01*
X95356226Y-72342102D01*
X95278205Y-72153744D01*
X95164937Y-71984226D01*
X95062711Y-71882000D01*
X95164937Y-71779774D01*
X95278205Y-71610256D01*
X95356226Y-71421898D01*
X95396000Y-71221939D01*
X95396000Y-71018061D01*
X95356226Y-70818102D01*
X95278205Y-70629744D01*
X95164937Y-70460226D01*
X95126211Y-70421500D01*
X95164937Y-70382774D01*
X95278205Y-70213256D01*
X95356226Y-70024898D01*
X95360768Y-70002061D01*
X102851000Y-70002061D01*
X102851000Y-70205939D01*
X102890774Y-70405898D01*
X102968795Y-70594256D01*
X103082063Y-70763774D01*
X103226226Y-70907937D01*
X103395744Y-71021205D01*
X103584102Y-71099226D01*
X103784061Y-71139000D01*
X103987939Y-71139000D01*
X104187898Y-71099226D01*
X104376256Y-71021205D01*
X104545774Y-70907937D01*
X104689937Y-70763774D01*
X104803205Y-70594256D01*
X104881226Y-70405898D01*
X104921000Y-70205939D01*
X104921000Y-70002061D01*
X104881226Y-69802102D01*
X104803205Y-69613744D01*
X104689937Y-69444226D01*
X104545774Y-69300063D01*
X104376256Y-69186795D01*
X104187898Y-69108774D01*
X103987939Y-69069000D01*
X103784061Y-69069000D01*
X103584102Y-69108774D01*
X103395744Y-69186795D01*
X103226226Y-69300063D01*
X103082063Y-69444226D01*
X102968795Y-69613744D01*
X102890774Y-69802102D01*
X102851000Y-70002061D01*
X95360768Y-70002061D01*
X95396000Y-69824939D01*
X95396000Y-69621061D01*
X95356226Y-69421102D01*
X95278205Y-69232744D01*
X95164937Y-69063226D01*
X95020774Y-68919063D01*
X94851256Y-68805795D01*
X94662898Y-68727774D01*
X94462939Y-68688000D01*
X94259061Y-68688000D01*
X94059102Y-68727774D01*
X93870744Y-68805795D01*
X93701226Y-68919063D01*
X93557063Y-69063226D01*
X93443795Y-69232744D01*
X93365774Y-69421102D01*
X93326000Y-69621061D01*
X73449046Y-69621061D01*
X73543475Y-69526632D01*
X73705990Y-69283411D01*
X73817932Y-69013158D01*
X73875000Y-68726260D01*
X73875000Y-68433740D01*
X73833292Y-68224061D01*
X79991000Y-68224061D01*
X79991000Y-68427939D01*
X80030774Y-68627898D01*
X80108795Y-68816256D01*
X80222063Y-68985774D01*
X80366226Y-69129937D01*
X80535744Y-69243205D01*
X80724102Y-69321226D01*
X80924061Y-69361000D01*
X81127939Y-69361000D01*
X81327898Y-69321226D01*
X81516256Y-69243205D01*
X81685774Y-69129937D01*
X81829937Y-68985774D01*
X81943205Y-68816256D01*
X82021226Y-68627898D01*
X82061000Y-68427939D01*
X82061000Y-68224061D01*
X84055000Y-68224061D01*
X84055000Y-68427939D01*
X84094774Y-68627898D01*
X84172795Y-68816256D01*
X84286063Y-68985774D01*
X84430226Y-69129937D01*
X84599744Y-69243205D01*
X84788102Y-69321226D01*
X84988061Y-69361000D01*
X85191939Y-69361000D01*
X85391898Y-69321226D01*
X85580256Y-69243205D01*
X85749774Y-69129937D01*
X85893937Y-68985774D01*
X86007205Y-68816256D01*
X86085226Y-68627898D01*
X86125000Y-68427939D01*
X86125000Y-68224061D01*
X86085226Y-68024102D01*
X86007205Y-67835744D01*
X85893937Y-67666226D01*
X85749774Y-67522063D01*
X85580256Y-67408795D01*
X85391898Y-67330774D01*
X85191939Y-67291000D01*
X84988061Y-67291000D01*
X84788102Y-67330774D01*
X84599744Y-67408795D01*
X84430226Y-67522063D01*
X84286063Y-67666226D01*
X84172795Y-67835744D01*
X84094774Y-68024102D01*
X84055000Y-68224061D01*
X82061000Y-68224061D01*
X82021226Y-68024102D01*
X81943205Y-67835744D01*
X81829937Y-67666226D01*
X81685774Y-67522063D01*
X81516256Y-67408795D01*
X81327898Y-67330774D01*
X81127939Y-67291000D01*
X80924061Y-67291000D01*
X80724102Y-67330774D01*
X80535744Y-67408795D01*
X80366226Y-67522063D01*
X80222063Y-67666226D01*
X80108795Y-67835744D01*
X80030774Y-68024102D01*
X79991000Y-68224061D01*
X73833292Y-68224061D01*
X73817932Y-68146842D01*
X73705990Y-67876589D01*
X73543475Y-67633368D01*
X73336632Y-67426525D01*
X73163271Y-67310689D01*
X73238792Y-67068397D01*
X72390000Y-66219605D01*
X71541208Y-67068397D01*
X71616729Y-67310689D01*
X71443368Y-67426525D01*
X71236525Y-67633368D01*
X71120000Y-67807760D01*
X71003475Y-67633368D01*
X70796632Y-67426525D01*
X70623271Y-67310689D01*
X70698792Y-67068397D01*
X69850000Y-66219605D01*
X69001208Y-67068397D01*
X69076729Y-67310689D01*
X68903368Y-67426525D01*
X68696525Y-67633368D01*
X68534010Y-67876589D01*
X68422068Y-68146842D01*
X68365000Y-68433740D01*
X66725000Y-68433740D01*
X66725000Y-66108531D01*
X68359389Y-66108531D01*
X68401401Y-66398019D01*
X68499081Y-66673747D01*
X68572528Y-66811157D01*
X68821603Y-66888792D01*
X69670395Y-66040000D01*
X70029605Y-66040000D01*
X70878397Y-66888792D01*
X71120000Y-66813486D01*
X71361603Y-66888792D01*
X72210395Y-66040000D01*
X72569605Y-66040000D01*
X73418397Y-66888792D01*
X73667472Y-66811157D01*
X73793371Y-66547117D01*
X73865339Y-66263589D01*
X73880611Y-65971469D01*
X73838599Y-65681981D01*
X73749354Y-65430061D01*
X85198000Y-65430061D01*
X85198000Y-65633939D01*
X85237774Y-65833898D01*
X85315795Y-66022256D01*
X85429063Y-66191774D01*
X85573226Y-66335937D01*
X85742744Y-66449205D01*
X85931102Y-66527226D01*
X86131061Y-66567000D01*
X86334939Y-66567000D01*
X86534898Y-66527226D01*
X86723256Y-66449205D01*
X86892774Y-66335937D01*
X87036937Y-66191774D01*
X87150205Y-66022256D01*
X87228226Y-65833898D01*
X87268000Y-65633939D01*
X87268000Y-65430061D01*
X87228226Y-65230102D01*
X87150205Y-65041744D01*
X87036937Y-64872226D01*
X86892774Y-64728063D01*
X86723256Y-64614795D01*
X86534898Y-64536774D01*
X86334939Y-64497000D01*
X86131061Y-64497000D01*
X85931102Y-64536774D01*
X85742744Y-64614795D01*
X85573226Y-64728063D01*
X85429063Y-64872226D01*
X85315795Y-65041744D01*
X85237774Y-65230102D01*
X85198000Y-65430061D01*
X73749354Y-65430061D01*
X73740919Y-65406253D01*
X73667472Y-65268843D01*
X73418397Y-65191208D01*
X72569605Y-66040000D01*
X72210395Y-66040000D01*
X71361603Y-65191208D01*
X71120000Y-65266514D01*
X70878397Y-65191208D01*
X70029605Y-66040000D01*
X69670395Y-66040000D01*
X68821603Y-65191208D01*
X68572528Y-65268843D01*
X68446629Y-65532883D01*
X68374661Y-65816411D01*
X68359389Y-66108531D01*
X66725000Y-66108531D01*
X66725000Y-65011603D01*
X69001208Y-65011603D01*
X69850000Y-65860395D01*
X70698792Y-65011603D01*
X71541208Y-65011603D01*
X72390000Y-65860395D01*
X73238792Y-65011603D01*
X73161157Y-64762528D01*
X72897117Y-64636629D01*
X72613589Y-64564661D01*
X72321469Y-64549389D01*
X72031981Y-64591401D01*
X71756253Y-64689081D01*
X71618843Y-64762528D01*
X71541208Y-65011603D01*
X70698792Y-65011603D01*
X70621157Y-64762528D01*
X70357117Y-64636629D01*
X70073589Y-64564661D01*
X69781469Y-64549389D01*
X69491981Y-64591401D01*
X69216253Y-64689081D01*
X69078843Y-64762528D01*
X69001208Y-65011603D01*
X66725000Y-65011603D01*
X66725000Y-64160061D01*
X95104000Y-64160061D01*
X95104000Y-64363939D01*
X95143774Y-64563898D01*
X95221795Y-64752256D01*
X95335063Y-64921774D01*
X95479226Y-65065937D01*
X95648744Y-65179205D01*
X95837102Y-65257226D01*
X96037061Y-65297000D01*
X96240939Y-65297000D01*
X96440898Y-65257226D01*
X96629256Y-65179205D01*
X96798774Y-65065937D01*
X96942937Y-64921774D01*
X97056205Y-64752256D01*
X97134226Y-64563898D01*
X97174000Y-64363939D01*
X97174000Y-64160061D01*
X97134226Y-63960102D01*
X97056205Y-63771744D01*
X96942937Y-63602226D01*
X96798774Y-63458063D01*
X96629256Y-63344795D01*
X96440898Y-63266774D01*
X96240939Y-63227000D01*
X96037061Y-63227000D01*
X95837102Y-63266774D01*
X95648744Y-63344795D01*
X95479226Y-63458063D01*
X95335063Y-63602226D01*
X95221795Y-63771744D01*
X95143774Y-63960102D01*
X95104000Y-64160061D01*
X66725000Y-64160061D01*
X66725000Y-58826061D01*
X74276000Y-58826061D01*
X74276000Y-59029939D01*
X74315774Y-59229898D01*
X74393795Y-59418256D01*
X74507063Y-59587774D01*
X74651226Y-59731937D01*
X74820744Y-59845205D01*
X75009102Y-59923226D01*
X75209061Y-59963000D01*
X75412939Y-59963000D01*
X75612898Y-59923226D01*
X75801256Y-59845205D01*
X75901835Y-59778000D01*
X108747928Y-59778000D01*
X108760188Y-59902482D01*
X108796498Y-60022180D01*
X108855463Y-60132494D01*
X108934815Y-60229185D01*
X109031506Y-60308537D01*
X109141820Y-60367502D01*
X109214380Y-60389513D01*
X109082525Y-60521368D01*
X108920010Y-60764589D01*
X108808068Y-61034842D01*
X108751000Y-61321740D01*
X108751000Y-61614260D01*
X108808068Y-61901158D01*
X108920010Y-62171411D01*
X109082525Y-62414632D01*
X109289368Y-62621475D01*
X109463760Y-62738000D01*
X109289368Y-62854525D01*
X109082525Y-63061368D01*
X108920010Y-63304589D01*
X108808068Y-63574842D01*
X108751000Y-63861740D01*
X108751000Y-64154260D01*
X108808068Y-64441158D01*
X108920010Y-64711411D01*
X109082525Y-64954632D01*
X109289368Y-65161475D01*
X109463760Y-65278000D01*
X109289368Y-65394525D01*
X109082525Y-65601368D01*
X108920010Y-65844589D01*
X108808068Y-66114842D01*
X108751000Y-66401740D01*
X108751000Y-66694260D01*
X108808068Y-66981158D01*
X108920010Y-67251411D01*
X109082525Y-67494632D01*
X109289368Y-67701475D01*
X109532589Y-67863990D01*
X109802842Y-67975932D01*
X110089740Y-68033000D01*
X110382260Y-68033000D01*
X110669158Y-67975932D01*
X110939411Y-67863990D01*
X111182632Y-67701475D01*
X111389475Y-67494632D01*
X111551990Y-67251411D01*
X111663932Y-66981158D01*
X111721000Y-66694260D01*
X111721000Y-66401740D01*
X111663932Y-66114842D01*
X111551990Y-65844589D01*
X111389475Y-65601368D01*
X111182632Y-65394525D01*
X111008240Y-65278000D01*
X111182632Y-65161475D01*
X111389475Y-64954632D01*
X111551990Y-64711411D01*
X111663932Y-64441158D01*
X111721000Y-64154260D01*
X111721000Y-63861740D01*
X111663932Y-63574842D01*
X111551990Y-63304589D01*
X111389475Y-63061368D01*
X111182632Y-62854525D01*
X111008240Y-62738000D01*
X111182632Y-62621475D01*
X111389475Y-62414632D01*
X111551990Y-62171411D01*
X111663932Y-61901158D01*
X111721000Y-61614260D01*
X111721000Y-61321740D01*
X111663932Y-61034842D01*
X111551990Y-60764589D01*
X111389475Y-60521368D01*
X111257620Y-60389513D01*
X111330180Y-60367502D01*
X111440494Y-60308537D01*
X111537185Y-60229185D01*
X111616537Y-60132494D01*
X111675502Y-60022180D01*
X111711812Y-59902482D01*
X111724072Y-59778000D01*
X111721000Y-59213750D01*
X111562250Y-59055000D01*
X110363000Y-59055000D01*
X110363000Y-59075000D01*
X110109000Y-59075000D01*
X110109000Y-59055000D01*
X108909750Y-59055000D01*
X108751000Y-59213750D01*
X108747928Y-59778000D01*
X75901835Y-59778000D01*
X75970774Y-59731937D01*
X76114937Y-59587774D01*
X76228205Y-59418256D01*
X76306226Y-59229898D01*
X76346000Y-59029939D01*
X76346000Y-58826061D01*
X76306226Y-58626102D01*
X76228205Y-58437744D01*
X76114937Y-58268226D01*
X75970774Y-58124063D01*
X75801256Y-58010795D01*
X75612898Y-57932774D01*
X75412939Y-57893000D01*
X75209061Y-57893000D01*
X75009102Y-57932774D01*
X74820744Y-58010795D01*
X74651226Y-58124063D01*
X74507063Y-58268226D01*
X74393795Y-58437744D01*
X74315774Y-58626102D01*
X74276000Y-58826061D01*
X66725000Y-58826061D01*
X66725000Y-57556061D01*
X76562000Y-57556061D01*
X76562000Y-57759939D01*
X76601774Y-57959898D01*
X76679795Y-58148256D01*
X76793063Y-58317774D01*
X76937226Y-58461937D01*
X77106744Y-58575205D01*
X77295102Y-58653226D01*
X77495061Y-58693000D01*
X77698939Y-58693000D01*
X77898898Y-58653226D01*
X78087256Y-58575205D01*
X78256774Y-58461937D01*
X78400937Y-58317774D01*
X78514205Y-58148256D01*
X78543306Y-58078000D01*
X108747928Y-58078000D01*
X108751000Y-58642250D01*
X108909750Y-58801000D01*
X110109000Y-58801000D01*
X110109000Y-57601750D01*
X110363000Y-57601750D01*
X110363000Y-58801000D01*
X111562250Y-58801000D01*
X111721000Y-58642250D01*
X111724072Y-58078000D01*
X111711812Y-57953518D01*
X111675502Y-57833820D01*
X111616537Y-57723506D01*
X111537185Y-57626815D01*
X111440494Y-57547463D01*
X111330180Y-57488498D01*
X111210482Y-57452188D01*
X111086000Y-57439928D01*
X110521750Y-57443000D01*
X110363000Y-57601750D01*
X110109000Y-57601750D01*
X109950250Y-57443000D01*
X109386000Y-57439928D01*
X109261518Y-57452188D01*
X109141820Y-57488498D01*
X109031506Y-57547463D01*
X108934815Y-57626815D01*
X108855463Y-57723506D01*
X108796498Y-57833820D01*
X108760188Y-57953518D01*
X108747928Y-58078000D01*
X78543306Y-58078000D01*
X78592226Y-57959898D01*
X78632000Y-57759939D01*
X78632000Y-57556061D01*
X78592226Y-57356102D01*
X78514205Y-57167744D01*
X78400937Y-56998226D01*
X78256774Y-56854063D01*
X78087256Y-56740795D01*
X77898898Y-56662774D01*
X77698939Y-56623000D01*
X77495061Y-56623000D01*
X77295102Y-56662774D01*
X77106744Y-56740795D01*
X76937226Y-56854063D01*
X76793063Y-56998226D01*
X76679795Y-57167744D01*
X76601774Y-57356102D01*
X76562000Y-57556061D01*
X66725000Y-57556061D01*
X66725000Y-53746061D01*
X74657000Y-53746061D01*
X74657000Y-53949939D01*
X74696774Y-54149898D01*
X74774795Y-54338256D01*
X74888063Y-54507774D01*
X75032226Y-54651937D01*
X75201744Y-54765205D01*
X75390102Y-54843226D01*
X75590061Y-54883000D01*
X75793939Y-54883000D01*
X75993898Y-54843226D01*
X76182256Y-54765205D01*
X76351774Y-54651937D01*
X76495937Y-54507774D01*
X76609205Y-54338256D01*
X76687226Y-54149898D01*
X76727000Y-53949939D01*
X76727000Y-53746061D01*
X76687226Y-53546102D01*
X76609205Y-53357744D01*
X76495937Y-53188226D01*
X76351774Y-53044063D01*
X76182256Y-52930795D01*
X75993898Y-52852774D01*
X75793939Y-52813000D01*
X75590061Y-52813000D01*
X75390102Y-52852774D01*
X75201744Y-52930795D01*
X75032226Y-53044063D01*
X74888063Y-53188226D01*
X74774795Y-53357744D01*
X74696774Y-53546102D01*
X74657000Y-53746061D01*
X66725000Y-53746061D01*
X66725000Y-49936061D01*
X74022000Y-49936061D01*
X74022000Y-50139939D01*
X74061774Y-50339898D01*
X74139795Y-50528256D01*
X74253063Y-50697774D01*
X74397226Y-50841937D01*
X74566744Y-50955205D01*
X74755102Y-51033226D01*
X74955061Y-51073000D01*
X75158939Y-51073000D01*
X75358898Y-51033226D01*
X75547256Y-50955205D01*
X75716774Y-50841937D01*
X75860937Y-50697774D01*
X75974205Y-50528256D01*
X76026299Y-50402490D01*
X81681000Y-50402490D01*
X81681000Y-51197509D01*
X81709722Y-51489127D01*
X81823226Y-51863301D01*
X82007547Y-52208143D01*
X82255602Y-52510398D01*
X82557857Y-52758453D01*
X82902698Y-52942774D01*
X83276872Y-53056278D01*
X83666000Y-53094604D01*
X84055127Y-53056278D01*
X84429301Y-52942774D01*
X84774143Y-52758453D01*
X85076398Y-52510398D01*
X85324453Y-52208143D01*
X85508774Y-51863302D01*
X85622278Y-51489128D01*
X85651000Y-51197510D01*
X85651000Y-50402491D01*
X85651000Y-50402490D01*
X85881000Y-50402490D01*
X85881000Y-51197509D01*
X85909722Y-51489127D01*
X86023226Y-51863301D01*
X86207547Y-52208143D01*
X86455602Y-52510398D01*
X86757857Y-52758453D01*
X87102698Y-52942774D01*
X87476872Y-53056278D01*
X87866000Y-53094604D01*
X88255127Y-53056278D01*
X88629301Y-52942774D01*
X88974143Y-52758453D01*
X89276398Y-52510398D01*
X89524453Y-52208143D01*
X89708774Y-51863302D01*
X89822278Y-51489128D01*
X89851000Y-51197510D01*
X89851000Y-50927000D01*
X90081000Y-50927000D01*
X90081000Y-51227000D01*
X90143918Y-51611814D01*
X90280700Y-51976959D01*
X90486090Y-52308403D01*
X90752195Y-52593409D01*
X91068789Y-52821024D01*
X91423705Y-52982501D01*
X91630677Y-53036677D01*
X91939000Y-52921829D01*
X91939000Y-50927000D01*
X92193000Y-50927000D01*
X92193000Y-52921829D01*
X92501323Y-53036677D01*
X92708295Y-52982501D01*
X93063211Y-52821024D01*
X93379805Y-52593409D01*
X93645910Y-52308403D01*
X93851300Y-51976959D01*
X93988082Y-51611814D01*
X94051000Y-51227000D01*
X94051000Y-50927000D01*
X92193000Y-50927000D01*
X91939000Y-50927000D01*
X90081000Y-50927000D01*
X89851000Y-50927000D01*
X89851000Y-50402491D01*
X89848096Y-50373000D01*
X90081000Y-50373000D01*
X90081000Y-50673000D01*
X91939000Y-50673000D01*
X91939000Y-48678171D01*
X92193000Y-48678171D01*
X92193000Y-50673000D01*
X94051000Y-50673000D01*
X94051000Y-50373000D01*
X93988082Y-49988186D01*
X93851300Y-49623041D01*
X93713087Y-49400001D01*
X94277928Y-49400001D01*
X94277928Y-52199999D01*
X94294992Y-52373253D01*
X94345529Y-52539850D01*
X94427595Y-52693386D01*
X94538039Y-52827961D01*
X94672614Y-52938405D01*
X94826150Y-53020471D01*
X94992747Y-53071008D01*
X95166001Y-53088072D01*
X97365999Y-53088072D01*
X97539253Y-53071008D01*
X97705850Y-53020471D01*
X97859386Y-52938405D01*
X97993961Y-52827961D01*
X98104405Y-52693386D01*
X98186471Y-52539850D01*
X98237008Y-52373253D01*
X98254072Y-52199999D01*
X98254072Y-49400001D01*
X98237008Y-49226747D01*
X98186471Y-49060150D01*
X98104405Y-48906614D01*
X97993961Y-48772039D01*
X97859386Y-48661595D01*
X97705850Y-48579529D01*
X97539253Y-48528992D01*
X97365999Y-48511928D01*
X95166001Y-48511928D01*
X94992747Y-48528992D01*
X94826150Y-48579529D01*
X94672614Y-48661595D01*
X94538039Y-48772039D01*
X94427595Y-48906614D01*
X94345529Y-49060150D01*
X94294992Y-49226747D01*
X94277928Y-49400001D01*
X93713087Y-49400001D01*
X93645910Y-49291597D01*
X93379805Y-49006591D01*
X93063211Y-48778976D01*
X92708295Y-48617499D01*
X92501323Y-48563323D01*
X92193000Y-48678171D01*
X91939000Y-48678171D01*
X91630677Y-48563323D01*
X91423705Y-48617499D01*
X91068789Y-48778976D01*
X90752195Y-49006591D01*
X90486090Y-49291597D01*
X90280700Y-49623041D01*
X90143918Y-49988186D01*
X90081000Y-50373000D01*
X89848096Y-50373000D01*
X89822278Y-50110873D01*
X89708774Y-49736698D01*
X89524453Y-49391857D01*
X89276398Y-49089602D01*
X88974143Y-48841547D01*
X88629302Y-48657226D01*
X88255128Y-48543722D01*
X87866000Y-48505396D01*
X87476873Y-48543722D01*
X87102699Y-48657226D01*
X86757858Y-48841547D01*
X86455603Y-49089602D01*
X86207547Y-49391857D01*
X86023226Y-49736698D01*
X85909722Y-50110872D01*
X85881000Y-50402490D01*
X85651000Y-50402490D01*
X85622278Y-50110873D01*
X85508774Y-49736698D01*
X85324453Y-49391857D01*
X85076398Y-49089602D01*
X84774143Y-48841547D01*
X84429302Y-48657226D01*
X84055128Y-48543722D01*
X83666000Y-48505396D01*
X83276873Y-48543722D01*
X82902699Y-48657226D01*
X82557858Y-48841547D01*
X82255603Y-49089602D01*
X82007547Y-49391857D01*
X81823226Y-49736698D01*
X81709722Y-50110872D01*
X81681000Y-50402490D01*
X76026299Y-50402490D01*
X76052226Y-50339898D01*
X76092000Y-50139939D01*
X76092000Y-49936061D01*
X76052226Y-49736102D01*
X75974205Y-49547744D01*
X75860937Y-49378226D01*
X75716774Y-49234063D01*
X75547256Y-49120795D01*
X75358898Y-49042774D01*
X75158939Y-49003000D01*
X74955061Y-49003000D01*
X74755102Y-49042774D01*
X74566744Y-49120795D01*
X74397226Y-49234063D01*
X74253063Y-49378226D01*
X74139795Y-49547744D01*
X74061774Y-49736102D01*
X74022000Y-49936061D01*
X66725000Y-49936061D01*
X66725000Y-47311787D01*
X67125161Y-47910670D01*
X67659330Y-48444839D01*
X68287446Y-48864533D01*
X68985372Y-49153623D01*
X69726285Y-49301000D01*
X70481715Y-49301000D01*
X71222628Y-49153623D01*
X71920554Y-48864533D01*
X72548670Y-48444839D01*
X73082839Y-47910670D01*
X73502533Y-47282554D01*
X73791623Y-46584628D01*
X73939000Y-45843715D01*
X73939000Y-45427000D01*
X81681000Y-45427000D01*
X81681000Y-45727000D01*
X81743918Y-46111814D01*
X81880700Y-46476959D01*
X82086090Y-46808403D01*
X82352195Y-47093409D01*
X82668789Y-47321024D01*
X83023705Y-47482501D01*
X83230677Y-47536677D01*
X83539000Y-47421829D01*
X83539000Y-45427000D01*
X83793000Y-45427000D01*
X83793000Y-47421829D01*
X84101323Y-47536677D01*
X84308295Y-47482501D01*
X84663211Y-47321024D01*
X84979805Y-47093409D01*
X85245910Y-46808403D01*
X85451300Y-46476959D01*
X85588082Y-46111814D01*
X85651000Y-45727000D01*
X85651000Y-45427000D01*
X83793000Y-45427000D01*
X83539000Y-45427000D01*
X81681000Y-45427000D01*
X73939000Y-45427000D01*
X73939000Y-45088285D01*
X73896178Y-44873000D01*
X81681000Y-44873000D01*
X81681000Y-45173000D01*
X83539000Y-45173000D01*
X83539000Y-43178171D01*
X83793000Y-43178171D01*
X83793000Y-45173000D01*
X85651000Y-45173000D01*
X85651000Y-44902490D01*
X85881000Y-44902490D01*
X85881000Y-45697509D01*
X85909722Y-45989127D01*
X86023226Y-46363301D01*
X86207547Y-46708143D01*
X86455602Y-47010398D01*
X86757857Y-47258453D01*
X87102698Y-47442774D01*
X87476872Y-47556278D01*
X87866000Y-47594604D01*
X88255127Y-47556278D01*
X88629301Y-47442774D01*
X88974143Y-47258453D01*
X89276398Y-47010398D01*
X89524453Y-46708143D01*
X89708774Y-46363302D01*
X89822278Y-45989128D01*
X89851000Y-45697510D01*
X89851000Y-44902491D01*
X89851000Y-44902490D01*
X90081000Y-44902490D01*
X90081000Y-45697509D01*
X90109722Y-45989127D01*
X90223226Y-46363301D01*
X90407547Y-46708143D01*
X90655602Y-47010398D01*
X90957857Y-47258453D01*
X91302698Y-47442774D01*
X91676872Y-47556278D01*
X92066000Y-47594604D01*
X92455127Y-47556278D01*
X92829301Y-47442774D01*
X93174143Y-47258453D01*
X93476398Y-47010398D01*
X93724453Y-46708143D01*
X93908774Y-46363302D01*
X94022278Y-45989128D01*
X94051000Y-45697510D01*
X94051000Y-45427000D01*
X94281000Y-45427000D01*
X94281000Y-45727000D01*
X94343918Y-46111814D01*
X94480700Y-46476959D01*
X94686090Y-46808403D01*
X94952195Y-47093409D01*
X95268789Y-47321024D01*
X95623705Y-47482501D01*
X95830677Y-47536677D01*
X96139000Y-47421829D01*
X96139000Y-45427000D01*
X96393000Y-45427000D01*
X96393000Y-47421829D01*
X96701323Y-47536677D01*
X96908295Y-47482501D01*
X97263211Y-47321024D01*
X97579805Y-47093409D01*
X97845910Y-46808403D01*
X98051300Y-46476959D01*
X98188082Y-46111814D01*
X98251000Y-45727000D01*
X98251000Y-45427000D01*
X96393000Y-45427000D01*
X96139000Y-45427000D01*
X94281000Y-45427000D01*
X94051000Y-45427000D01*
X94051000Y-44902491D01*
X94048096Y-44873000D01*
X94281000Y-44873000D01*
X94281000Y-45173000D01*
X96139000Y-45173000D01*
X96139000Y-43178171D01*
X96393000Y-43178171D01*
X96393000Y-45173000D01*
X98251000Y-45173000D01*
X98251000Y-44873000D01*
X98188082Y-44488186D01*
X98051300Y-44123041D01*
X97845910Y-43791597D01*
X97579805Y-43506591D01*
X97263211Y-43278976D01*
X96908295Y-43117499D01*
X96701323Y-43063323D01*
X96393000Y-43178171D01*
X96139000Y-43178171D01*
X95830677Y-43063323D01*
X95623705Y-43117499D01*
X95268789Y-43278976D01*
X94952195Y-43506591D01*
X94686090Y-43791597D01*
X94480700Y-44123041D01*
X94343918Y-44488186D01*
X94281000Y-44873000D01*
X94048096Y-44873000D01*
X94022278Y-44610873D01*
X93908774Y-44236698D01*
X93724453Y-43891857D01*
X93476398Y-43589602D01*
X93174143Y-43341547D01*
X92829302Y-43157226D01*
X92455128Y-43043722D01*
X92066000Y-43005396D01*
X91676873Y-43043722D01*
X91302699Y-43157226D01*
X90957858Y-43341547D01*
X90655603Y-43589602D01*
X90407547Y-43891857D01*
X90223226Y-44236698D01*
X90109722Y-44610872D01*
X90081000Y-44902490D01*
X89851000Y-44902490D01*
X89822278Y-44610873D01*
X89708774Y-44236698D01*
X89524453Y-43891857D01*
X89276398Y-43589602D01*
X88974143Y-43341547D01*
X88629302Y-43157226D01*
X88255128Y-43043722D01*
X87866000Y-43005396D01*
X87476873Y-43043722D01*
X87102699Y-43157226D01*
X86757858Y-43341547D01*
X86455603Y-43589602D01*
X86207547Y-43891857D01*
X86023226Y-44236698D01*
X85909722Y-44610872D01*
X85881000Y-44902490D01*
X85651000Y-44902490D01*
X85651000Y-44873000D01*
X85588082Y-44488186D01*
X85451300Y-44123041D01*
X85245910Y-43791597D01*
X84979805Y-43506591D01*
X84663211Y-43278976D01*
X84308295Y-43117499D01*
X84101323Y-43063323D01*
X83793000Y-43178171D01*
X83539000Y-43178171D01*
X83230677Y-43063323D01*
X83023705Y-43117499D01*
X82668789Y-43278976D01*
X82352195Y-43506591D01*
X82086090Y-43791597D01*
X81880700Y-44123041D01*
X81743918Y-44488186D01*
X81681000Y-44873000D01*
X73896178Y-44873000D01*
X73791623Y-44347372D01*
X73502533Y-43649446D01*
X73082839Y-43021330D01*
X72548670Y-42487161D01*
X71949787Y-42087000D01*
X106866213Y-42087000D01*
X106267330Y-42487161D01*
%TD*%
M02*
