M48
; DRILL file {KiCad 5.1.6} date Wed Dec  9 16:02:49 2020
; FORMAT={-:-/ absolute / inch / decimal}
; #@! TF.CreationDate,2020-12-09T16:02:49-03:00
; #@! TF.GenerationSoftware,Kicad,Pcbnew,5.1.6
FMAT,2
INCH
T1C0.0118
T2C0.0157
T3C0.0197
T4C0.0394
T5C0.0551
T6C0.1260
%
G90
G05
T1
X2.94Y-3.21
X2.94Y-3.45
X2.94Y-3.56
X2.96Y-3.35
X2.9639Y-3.2561
X3.0Y-3.285
X3.0021Y-3.1029
X3.11Y-3.1
X3.22Y-3.5
X3.241Y-3.471
X3.26Y-3.21
X3.2715Y-3.4725
X3.31Y-3.47
X3.42Y-3.58
X3.44Y-3.02
X3.44Y-3.4869
X3.45Y-3.54
X3.45Y-3.64
X3.4505Y-3.4614
X3.4804Y-3.6404
X3.5096Y-3.6409
X3.5372Y-3.6397
X3.5563Y-3.6631
X3.563Y-3.373
X3.5641Y-3.3327
X3.57Y-3.54
X3.575Y-3.145
X3.58Y-3.72
X3.6504Y-3.3101
X3.675Y-3.39
X3.86Y-3.75
X3.91Y-3.7
X4.0Y-3.85
X4.0319Y-3.5019
X4.035Y-3.645
X4.0812Y-3.85
T2
X2.645Y-1.92
X2.65Y-4.065
X2.87Y-4.295
X2.9Y-1.68
X2.955Y-1.97
X2.965Y-2.32
X2.98Y-2.12
X3.02Y-3.915
X3.02Y-4.26
X3.055Y-2.27
X3.0736Y-2.86
X3.145Y-4.26
X3.1698Y-3.4298
X3.17Y-3.735
X3.19Y-2.69
X3.225Y-3.84
X3.265Y-3.655
X3.27Y-2.905
X3.31Y-2.905
X3.31Y-3.505
X3.33Y-3.095
X3.35Y-2.69
X3.385Y-2.8
X3.395Y-2.58
X3.415Y-3.67
X3.447Y-3.088
X3.52Y-3.97
X3.555Y-2.975
X3.56Y-3.415
X3.59Y-4.2
X3.59Y-4.265
X3.655Y-2.975
X3.665Y-2.31
X3.675Y-4.01
X3.71Y-2.53
X3.71Y-3.24
X3.715Y-2.745
X3.715Y-2.8
X3.715Y-2.86
X3.74Y-3.57
X3.785Y-2.53
X3.795Y-3.555
X3.81Y-3.165
X3.81Y-3.65
X3.82Y-3.255
X3.86Y-3.58
X3.92Y-2.8
X3.92Y-2.89
X3.92Y-3.35
X3.93Y-3.04
X3.945Y-2.64
X3.9594Y-3.35
X3.99Y-3.235
X4.02Y-2.96
X4.07Y-2.96
X4.075Y-2.1
X4.09Y-2.76
X4.09Y-3.49
X4.09Y-3.64
X4.1Y-1.9
X4.18Y-3.92
X4.23Y-3.64
X4.4Y-2.005
X4.4Y-2.055
X4.4Y-2.1
X4.4Y-2.145
X4.4Y-2.195
T3
X2.6655Y-1.79
X2.6932Y-1.7232
X2.6932Y-1.8568
X2.76Y-1.6955
X2.76Y-1.8845
X2.8268Y-1.7232
X2.8268Y-1.8568
X2.8545Y-1.79
X2.6655Y-4.18
X2.6932Y-4.1132
X2.6932Y-4.2468
X2.76Y-4.0855
X2.76Y-4.2745
X2.8268Y-4.1132
X2.8268Y-4.2468
X2.8545Y-4.18
X4.1855Y-4.18
X4.2132Y-4.1132
X4.2132Y-4.2468
X4.28Y-4.0855
X4.28Y-4.2745
X4.3468Y-4.1132
X4.3468Y-4.2468
X4.3745Y-4.18
X4.1855Y-1.79
X4.2132Y-1.7232
X4.2132Y-1.8568
X4.28Y-1.6955
X4.28Y-1.8845
X4.3468Y-1.7232
X4.3468Y-1.8568
X4.3745Y-1.79
T4
X4.24Y-2.81
X4.24Y-2.91
X4.34Y-2.81
X4.34Y-2.91
X2.75Y-2.6
X2.75Y-2.7
X2.75Y-2.8
X2.75Y-2.9
X2.75Y-3.0
X2.75Y-3.1
X2.75Y-3.2
X2.75Y-3.3
X2.75Y-3.4
X2.75Y-3.5
X2.75Y-3.6
X2.75Y-3.7
X2.75Y-3.8
X2.85Y-2.6
X2.85Y-2.7
X2.85Y-2.8
X2.85Y-2.9
X2.85Y-3.0
X2.85Y-3.1
X2.85Y-3.2
X2.85Y-3.3
X2.85Y-3.4
X2.85Y-3.5
X2.85Y-3.6
X2.85Y-3.7
X2.85Y-3.8
X4.24Y-3.1
X4.24Y-3.2
X4.24Y-3.3
X4.24Y-3.4
X4.24Y-3.5
X4.34Y-3.1
X4.34Y-3.2
X4.34Y-3.3
X4.34Y-3.4
X4.34Y-3.5
X4.34Y-2.32
X4.34Y-2.42
X4.34Y-2.52
X4.34Y-2.62
T5
X3.2939Y-1.7835
X3.2939Y-2.0
X3.4593Y-1.7835
X3.4593Y-2.0
X3.6246Y-1.7835
X3.6246Y-2.0
X3.79Y-1.7835
X3.79Y-2.0
T6
X2.76Y-1.79
X2.76Y-4.18
X4.28Y-4.18
X4.28Y-1.79
T3
G00X4.2677Y-3.7335
M15
G01X4.2677Y-3.706
M16
G05
G00X4.2677Y-3.954
M15
G01X4.2677Y-3.9265
M16
G05
G00X4.3523Y-3.8517
M15
G01X4.3523Y-3.8083
M16
G05
T0
M30
