%TF.GenerationSoftware,KiCad,Pcbnew,5.1.6*%
%TF.CreationDate,2020-12-14T11:26:32-03:00*%
%TF.ProjectId,MCU_Comms_Control,4d43555f-436f-46d6-9d73-5f436f6e7472,rev?*%
%TF.SameCoordinates,Original*%
%TF.FileFunction,Legend,Top*%
%TF.FilePolarity,Positive*%
%FSLAX46Y46*%
G04 Gerber Fmt 4.6, Leading zero omitted, Abs format (unit mm)*
G04 Created by KiCad (PCBNEW 5.1.6) date 2020-12-14 11:26:32*
%MOMM*%
%LPD*%
G01*
G04 APERTURE LIST*
%ADD10C,0.100000*%
%ADD11C,0.300000*%
%ADD12C,0.200000*%
%ADD13C,0.250000*%
%ADD14C,0.010000*%
%ADD15C,0.120000*%
%ADD16C,0.150000*%
G04 APERTURE END LIST*
D10*
X73012761Y-48728380D02*
X73012761Y-49442666D01*
X72974666Y-49585523D01*
X72898476Y-49680761D01*
X72784190Y-49728380D01*
X72708000Y-49728380D01*
X73774666Y-49728380D02*
X73393714Y-49728380D01*
X73393714Y-48728380D01*
X74498476Y-49633142D02*
X74460380Y-49680761D01*
X74346095Y-49728380D01*
X74269904Y-49728380D01*
X74155619Y-49680761D01*
X74079428Y-49585523D01*
X74041333Y-49490285D01*
X74003238Y-49299809D01*
X74003238Y-49156952D01*
X74041333Y-48966476D01*
X74079428Y-48871238D01*
X74155619Y-48776000D01*
X74269904Y-48728380D01*
X74346095Y-48728380D01*
X74460380Y-48776000D01*
X74498476Y-48823619D01*
X75069904Y-48728380D02*
X75069904Y-49442666D01*
X75031809Y-49585523D01*
X74955619Y-49680761D01*
X74841333Y-49728380D01*
X74765142Y-49728380D01*
X75831809Y-49728380D02*
X75450857Y-49728380D01*
X75450857Y-48728380D01*
X76555619Y-49633142D02*
X76517523Y-49680761D01*
X76403238Y-49728380D01*
X76327047Y-49728380D01*
X76212761Y-49680761D01*
X76136571Y-49585523D01*
X76098476Y-49490285D01*
X76060380Y-49299809D01*
X76060380Y-49156952D01*
X76098476Y-48966476D01*
X76136571Y-48871238D01*
X76212761Y-48776000D01*
X76327047Y-48728380D01*
X76403238Y-48728380D01*
X76517523Y-48776000D01*
X76555619Y-48823619D01*
X77127047Y-48728380D02*
X77127047Y-49442666D01*
X77088952Y-49585523D01*
X77012761Y-49680761D01*
X76898476Y-49728380D01*
X76822285Y-49728380D01*
X77888952Y-49728380D02*
X77508000Y-49728380D01*
X77508000Y-48728380D01*
X78612761Y-49633142D02*
X78574666Y-49680761D01*
X78460380Y-49728380D01*
X78384190Y-49728380D01*
X78269904Y-49680761D01*
X78193714Y-49585523D01*
X78155619Y-49490285D01*
X78117523Y-49299809D01*
X78117523Y-49156952D01*
X78155619Y-48966476D01*
X78193714Y-48871238D01*
X78269904Y-48776000D01*
X78384190Y-48728380D01*
X78460380Y-48728380D01*
X78574666Y-48776000D01*
X78612761Y-48823619D01*
X79184190Y-48728380D02*
X79184190Y-49442666D01*
X79146095Y-49585523D01*
X79069904Y-49680761D01*
X78955619Y-49728380D01*
X78879428Y-49728380D01*
X79946095Y-49728380D02*
X79565142Y-49728380D01*
X79565142Y-48728380D01*
X80669904Y-49633142D02*
X80631809Y-49680761D01*
X80517523Y-49728380D01*
X80441333Y-49728380D01*
X80327047Y-49680761D01*
X80250857Y-49585523D01*
X80212761Y-49490285D01*
X80174666Y-49299809D01*
X80174666Y-49156952D01*
X80212761Y-48966476D01*
X80250857Y-48871238D01*
X80327047Y-48776000D01*
X80441333Y-48728380D01*
X80517523Y-48728380D01*
X80631809Y-48776000D01*
X80669904Y-48823619D01*
D11*
X51052000Y-90263666D02*
X51052000Y-89680333D01*
X50135333Y-89680333D02*
X51885333Y-89680333D01*
X51885333Y-90513666D01*
X50635333Y-91097000D02*
X50635333Y-91930333D01*
X50135333Y-90930333D02*
X51885333Y-91513666D01*
X50135333Y-92097000D01*
X51885333Y-92680333D02*
X50468666Y-92680333D01*
X50302000Y-92763666D01*
X50218666Y-92847000D01*
X50135333Y-93013666D01*
X50135333Y-93347000D01*
X50218666Y-93513666D01*
X50302000Y-93597000D01*
X50468666Y-93680333D01*
X51885333Y-93680333D01*
X50135333Y-95347000D02*
X50135333Y-94513666D01*
X51885333Y-94513666D01*
X51885333Y-95680333D02*
X51885333Y-96680333D01*
X50135333Y-96180333D02*
X51885333Y-96180333D01*
X50302000Y-97263666D02*
X50218666Y-97347000D01*
X50135333Y-97263666D01*
X50218666Y-97180333D01*
X50302000Y-97263666D01*
X50135333Y-97263666D01*
X50802000Y-97263666D02*
X51802000Y-97180333D01*
X51885333Y-97263666D01*
X51802000Y-97347000D01*
X50802000Y-97263666D01*
X51885333Y-97263666D01*
X49284000Y-75721666D02*
X49284000Y-73971666D01*
X49284000Y-74805000D02*
X50284000Y-74805000D01*
X50284000Y-75721666D02*
X50284000Y-73971666D01*
X50198666Y-67212666D02*
X49365333Y-67212666D01*
X49365333Y-65462666D01*
D12*
X57825714Y-133200571D02*
X58182857Y-134200571D01*
X58539999Y-133200571D01*
X59897142Y-134200571D02*
X59039999Y-134200571D01*
X59468571Y-134200571D02*
X59468571Y-132700571D01*
X59325714Y-132914857D01*
X59182857Y-133057714D01*
X59039999Y-133129142D01*
X61682857Y-133629142D02*
X62825714Y-133629142D01*
X65468571Y-134200571D02*
X64611428Y-134200571D01*
X65039999Y-134200571D02*
X65039999Y-132700571D01*
X64897142Y-132914857D01*
X64754285Y-133057714D01*
X64611428Y-133129142D01*
X66039999Y-132843428D02*
X66111428Y-132772000D01*
X66254285Y-132700571D01*
X66611428Y-132700571D01*
X66754285Y-132772000D01*
X66825714Y-132843428D01*
X66897142Y-132986285D01*
X66897142Y-133129142D01*
X66825714Y-133343428D01*
X65968571Y-134200571D01*
X66897142Y-134200571D01*
X68611428Y-132629142D02*
X67325714Y-134557714D01*
X69040000Y-132843428D02*
X69111428Y-132772000D01*
X69254285Y-132700571D01*
X69611428Y-132700571D01*
X69754285Y-132772000D01*
X69825714Y-132843428D01*
X69897142Y-132986285D01*
X69897142Y-133129142D01*
X69825714Y-133343428D01*
X68968571Y-134200571D01*
X69897142Y-134200571D01*
X70825714Y-132700571D02*
X70968571Y-132700571D01*
X71111428Y-132772000D01*
X71182857Y-132843428D01*
X71254285Y-132986285D01*
X71325714Y-133272000D01*
X71325714Y-133629142D01*
X71254285Y-133914857D01*
X71182857Y-134057714D01*
X71111428Y-134129142D01*
X70968571Y-134200571D01*
X70825714Y-134200571D01*
X70682857Y-134129142D01*
X70611428Y-134057714D01*
X70540000Y-133914857D01*
X70468571Y-133629142D01*
X70468571Y-133272000D01*
X70540000Y-132986285D01*
X70611428Y-132843428D01*
X70682857Y-132772000D01*
X70825714Y-132700571D01*
X71897142Y-132843428D02*
X71968571Y-132772000D01*
X72111428Y-132700571D01*
X72468571Y-132700571D01*
X72611428Y-132772000D01*
X72682857Y-132843428D01*
X72754285Y-132986285D01*
X72754285Y-133129142D01*
X72682857Y-133343428D01*
X71825714Y-134200571D01*
X72754285Y-134200571D01*
X73682857Y-132700571D02*
X73825714Y-132700571D01*
X73968571Y-132772000D01*
X74040000Y-132843428D01*
X74111428Y-132986285D01*
X74182857Y-133272000D01*
X74182857Y-133629142D01*
X74111428Y-133914857D01*
X74040000Y-134057714D01*
X73968571Y-134129142D01*
X73825714Y-134200571D01*
X73682857Y-134200571D01*
X73540000Y-134129142D01*
X73468571Y-134057714D01*
X73397142Y-133914857D01*
X73325714Y-133629142D01*
X73325714Y-133272000D01*
X73397142Y-132986285D01*
X73468571Y-132843428D01*
X73540000Y-132772000D01*
X73682857Y-132700571D01*
X47040000Y-136650571D02*
X47040000Y-135150571D01*
X47611428Y-135150571D01*
X47754285Y-135222000D01*
X47825714Y-135293428D01*
X47897142Y-135436285D01*
X47897142Y-135650571D01*
X47825714Y-135793428D01*
X47754285Y-135864857D01*
X47611428Y-135936285D01*
X47040000Y-135936285D01*
X49111428Y-136579142D02*
X48968571Y-136650571D01*
X48682857Y-136650571D01*
X48540000Y-136579142D01*
X48468571Y-136436285D01*
X48468571Y-135864857D01*
X48540000Y-135722000D01*
X48682857Y-135650571D01*
X48968571Y-135650571D01*
X49111428Y-135722000D01*
X49182857Y-135864857D01*
X49182857Y-136007714D01*
X48468571Y-136150571D01*
X50468571Y-136650571D02*
X50468571Y-135150571D01*
X50468571Y-136579142D02*
X50325714Y-136650571D01*
X50040000Y-136650571D01*
X49897142Y-136579142D01*
X49825714Y-136507714D01*
X49754285Y-136364857D01*
X49754285Y-135936285D01*
X49825714Y-135793428D01*
X49897142Y-135722000D01*
X50040000Y-135650571D01*
X50325714Y-135650571D01*
X50468571Y-135722000D01*
X51182857Y-136650571D02*
X51182857Y-135650571D01*
X51182857Y-135936285D02*
X51254285Y-135793428D01*
X51325714Y-135722000D01*
X51468571Y-135650571D01*
X51611428Y-135650571D01*
X52325714Y-136650571D02*
X52182857Y-136579142D01*
X52111428Y-136507714D01*
X52040000Y-136364857D01*
X52040000Y-135936285D01*
X52111428Y-135793428D01*
X52182857Y-135722000D01*
X52325714Y-135650571D01*
X52540000Y-135650571D01*
X52682857Y-135722000D01*
X52754285Y-135793428D01*
X52825714Y-135936285D01*
X52825714Y-136364857D01*
X52754285Y-136507714D01*
X52682857Y-136579142D01*
X52540000Y-136650571D01*
X52325714Y-136650571D01*
X54611428Y-136650571D02*
X54611428Y-135150571D01*
X55468571Y-136650571D02*
X54825714Y-135793428D01*
X55468571Y-135150571D02*
X54611428Y-136007714D01*
X56325714Y-136650571D02*
X56182857Y-136579142D01*
X56111428Y-136507714D01*
X56040000Y-136364857D01*
X56040000Y-135936285D01*
X56111428Y-135793428D01*
X56182857Y-135722000D01*
X56325714Y-135650571D01*
X56540000Y-135650571D01*
X56682857Y-135722000D01*
X56754285Y-135793428D01*
X56825714Y-135936285D01*
X56825714Y-136364857D01*
X56754285Y-136507714D01*
X56682857Y-136579142D01*
X56540000Y-136650571D01*
X56325714Y-136650571D01*
X57468571Y-135650571D02*
X57468571Y-137150571D01*
X57468571Y-135722000D02*
X57611428Y-135650571D01*
X57897142Y-135650571D01*
X58040000Y-135722000D01*
X58111428Y-135793428D01*
X58182857Y-135936285D01*
X58182857Y-136364857D01*
X58111428Y-136507714D01*
X58040000Y-136579142D01*
X57897142Y-136650571D01*
X57611428Y-136650571D01*
X57468571Y-136579142D01*
X58825714Y-135650571D02*
X58825714Y-137150571D01*
X58825714Y-135722000D02*
X58968571Y-135650571D01*
X59254285Y-135650571D01*
X59397142Y-135722000D01*
X59468571Y-135793428D01*
X59540000Y-135936285D01*
X59540000Y-136364857D01*
X59468571Y-136507714D01*
X59397142Y-136579142D01*
X59254285Y-136650571D01*
X58968571Y-136650571D01*
X58825714Y-136579142D01*
X60754285Y-136579142D02*
X60611428Y-136650571D01*
X60325714Y-136650571D01*
X60182857Y-136579142D01*
X60111428Y-136436285D01*
X60111428Y-135864857D01*
X60182857Y-135722000D01*
X60325714Y-135650571D01*
X60611428Y-135650571D01*
X60754285Y-135722000D01*
X60825714Y-135864857D01*
X60825714Y-136007714D01*
X60111428Y-136150571D01*
X61468571Y-136650571D02*
X61468571Y-135650571D01*
X61468571Y-135936285D02*
X61540000Y-135793428D01*
X61611428Y-135722000D01*
X61754285Y-135650571D01*
X61897142Y-135650571D01*
X64754285Y-136650571D02*
X64682857Y-136650571D01*
X64540000Y-136579142D01*
X64325714Y-136364857D01*
X63968571Y-135936285D01*
X63825714Y-135722000D01*
X63754285Y-135507714D01*
X63754285Y-135364857D01*
X63825714Y-135222000D01*
X63968571Y-135150571D01*
X64040000Y-135150571D01*
X64182857Y-135222000D01*
X64254285Y-135364857D01*
X64254285Y-135436285D01*
X64182857Y-135579142D01*
X64111428Y-135650571D01*
X63682857Y-135936285D01*
X63611428Y-136007714D01*
X63540000Y-136150571D01*
X63540000Y-136364857D01*
X63611428Y-136507714D01*
X63682857Y-136579142D01*
X63825714Y-136650571D01*
X64040000Y-136650571D01*
X64182857Y-136579142D01*
X64254285Y-136507714D01*
X64468571Y-136222000D01*
X64540000Y-136007714D01*
X64540000Y-135864857D01*
X67325714Y-135222000D02*
X67182857Y-135150571D01*
X66968571Y-135150571D01*
X66754285Y-135222000D01*
X66611428Y-135364857D01*
X66540000Y-135507714D01*
X66468571Y-135793428D01*
X66468571Y-136007714D01*
X66540000Y-136293428D01*
X66611428Y-136436285D01*
X66754285Y-136579142D01*
X66968571Y-136650571D01*
X67111428Y-136650571D01*
X67325714Y-136579142D01*
X67397142Y-136507714D01*
X67397142Y-136007714D01*
X67111428Y-136007714D01*
X68682857Y-136650571D02*
X68682857Y-135864857D01*
X68611428Y-135722000D01*
X68468571Y-135650571D01*
X68182857Y-135650571D01*
X68040000Y-135722000D01*
X68682857Y-136579142D02*
X68540000Y-136650571D01*
X68182857Y-136650571D01*
X68040000Y-136579142D01*
X67968571Y-136436285D01*
X67968571Y-136293428D01*
X68040000Y-136150571D01*
X68182857Y-136079142D01*
X68540000Y-136079142D01*
X68682857Y-136007714D01*
X69397142Y-136650571D02*
X69397142Y-135150571D01*
X69397142Y-135722000D02*
X69540000Y-135650571D01*
X69825714Y-135650571D01*
X69968571Y-135722000D01*
X70040000Y-135793428D01*
X70111428Y-135936285D01*
X70111428Y-136364857D01*
X70040000Y-136507714D01*
X69968571Y-136579142D01*
X69825714Y-136650571D01*
X69540000Y-136650571D01*
X69397142Y-136579142D01*
X70754285Y-136650571D02*
X70754285Y-135650571D01*
X70754285Y-135936285D02*
X70825714Y-135793428D01*
X70897142Y-135722000D01*
X71040000Y-135650571D01*
X71182857Y-135650571D01*
X71682857Y-136650571D02*
X71682857Y-135650571D01*
X71682857Y-135150571D02*
X71611428Y-135222000D01*
X71682857Y-135293428D01*
X71754285Y-135222000D01*
X71682857Y-135150571D01*
X71682857Y-135293428D01*
X72968571Y-136579142D02*
X72825714Y-136650571D01*
X72540000Y-136650571D01*
X72397142Y-136579142D01*
X72325714Y-136436285D01*
X72325714Y-135864857D01*
X72397142Y-135722000D01*
X72540000Y-135650571D01*
X72825714Y-135650571D01*
X72968571Y-135722000D01*
X73040000Y-135864857D01*
X73040000Y-136007714D01*
X72325714Y-136150571D01*
X73897142Y-136650571D02*
X73754285Y-136579142D01*
X73682857Y-136436285D01*
X73682857Y-135150571D01*
X76397142Y-135222000D02*
X76254285Y-135150571D01*
X76040000Y-135150571D01*
X75825714Y-135222000D01*
X75682857Y-135364857D01*
X75611428Y-135507714D01*
X75540000Y-135793428D01*
X75540000Y-136007714D01*
X75611428Y-136293428D01*
X75682857Y-136436285D01*
X75825714Y-136579142D01*
X76040000Y-136650571D01*
X76182857Y-136650571D01*
X76397142Y-136579142D01*
X76468571Y-136507714D01*
X76468571Y-136007714D01*
X76182857Y-136007714D01*
X77325714Y-136650571D02*
X77182857Y-136579142D01*
X77111428Y-136507714D01*
X77040000Y-136364857D01*
X77040000Y-135936285D01*
X77111428Y-135793428D01*
X77182857Y-135722000D01*
X77325714Y-135650571D01*
X77540000Y-135650571D01*
X77682857Y-135722000D01*
X77754285Y-135793428D01*
X77825714Y-135936285D01*
X77825714Y-136364857D01*
X77754285Y-136507714D01*
X77682857Y-136579142D01*
X77540000Y-136650571D01*
X77325714Y-136650571D01*
X78397142Y-136579142D02*
X78540000Y-136650571D01*
X78825714Y-136650571D01*
X78968571Y-136579142D01*
X79040000Y-136436285D01*
X79040000Y-136364857D01*
X78968571Y-136222000D01*
X78825714Y-136150571D01*
X78611428Y-136150571D01*
X78468571Y-136079142D01*
X78397142Y-135936285D01*
X78397142Y-135864857D01*
X78468571Y-135722000D01*
X78611428Y-135650571D01*
X78825714Y-135650571D01*
X78968571Y-135722000D01*
X79682857Y-136650571D02*
X79682857Y-135650571D01*
X79682857Y-135793428D02*
X79754285Y-135722000D01*
X79897142Y-135650571D01*
X80111428Y-135650571D01*
X80254285Y-135722000D01*
X80325714Y-135864857D01*
X80325714Y-136650571D01*
X80325714Y-135864857D02*
X80397142Y-135722000D01*
X80540000Y-135650571D01*
X80754285Y-135650571D01*
X80897142Y-135722000D01*
X80968571Y-135864857D01*
X80968571Y-136650571D01*
X82325714Y-136650571D02*
X82325714Y-135864857D01*
X82254285Y-135722000D01*
X82111428Y-135650571D01*
X81825714Y-135650571D01*
X81682857Y-135722000D01*
X82325714Y-136579142D02*
X82182857Y-136650571D01*
X81825714Y-136650571D01*
X81682857Y-136579142D01*
X81611428Y-136436285D01*
X81611428Y-136293428D01*
X81682857Y-136150571D01*
X81825714Y-136079142D01*
X82182857Y-136079142D01*
X82325714Y-136007714D01*
X83040000Y-135650571D02*
X83040000Y-136650571D01*
X83040000Y-135793428D02*
X83111428Y-135722000D01*
X83254285Y-135650571D01*
X83468571Y-135650571D01*
X83611428Y-135722000D01*
X83682857Y-135864857D01*
X83682857Y-136650571D01*
X84397142Y-135650571D02*
X84397142Y-136650571D01*
X84397142Y-135793428D02*
X84468571Y-135722000D01*
X84611428Y-135650571D01*
X84825714Y-135650571D01*
X84968571Y-135722000D01*
X85040000Y-135864857D01*
X85040000Y-136650571D01*
D11*
X46115333Y-131474666D02*
X46115333Y-129724666D01*
X46782000Y-129724666D01*
X46948666Y-129808000D01*
X47032000Y-129891333D01*
X47115333Y-130058000D01*
X47115333Y-130308000D01*
X47032000Y-130474666D01*
X46948666Y-130558000D01*
X46782000Y-130641333D01*
X46115333Y-130641333D01*
X47865333Y-130558000D02*
X48448666Y-130558000D01*
X48698666Y-131474666D02*
X47865333Y-131474666D01*
X47865333Y-129724666D01*
X48698666Y-129724666D01*
X50365333Y-129808000D02*
X50198666Y-129724666D01*
X49948666Y-129724666D01*
X49698666Y-129808000D01*
X49532000Y-129974666D01*
X49448666Y-130141333D01*
X49365333Y-130474666D01*
X49365333Y-130724666D01*
X49448666Y-131058000D01*
X49532000Y-131224666D01*
X49698666Y-131391333D01*
X49948666Y-131474666D01*
X50115333Y-131474666D01*
X50365333Y-131391333D01*
X50448666Y-131308000D01*
X50448666Y-130724666D01*
X50115333Y-130724666D01*
X51115333Y-130974666D02*
X51948666Y-130974666D01*
X50948666Y-131474666D02*
X51532000Y-129724666D01*
X52115333Y-131474666D01*
X52615333Y-131391333D02*
X52865333Y-131474666D01*
X53282000Y-131474666D01*
X53448666Y-131391333D01*
X53532000Y-131308000D01*
X53615333Y-131141333D01*
X53615333Y-130974666D01*
X53532000Y-130808000D01*
X53448666Y-130724666D01*
X53282000Y-130641333D01*
X52948666Y-130558000D01*
X52782000Y-130474666D01*
X52698666Y-130391333D01*
X52615333Y-130224666D01*
X52615333Y-130058000D01*
X52698666Y-129891333D01*
X52782000Y-129808000D01*
X52948666Y-129724666D01*
X53365333Y-129724666D01*
X53615333Y-129808000D01*
X54365333Y-129724666D02*
X54365333Y-131141333D01*
X54448666Y-131308000D01*
X54532000Y-131391333D01*
X54698666Y-131474666D01*
X55032000Y-131474666D01*
X55198666Y-131391333D01*
X55282000Y-131308000D01*
X55365333Y-131141333D01*
X55365333Y-129724666D01*
X56115333Y-131391333D02*
X56365333Y-131474666D01*
X56782000Y-131474666D01*
X56948666Y-131391333D01*
X57032000Y-131308000D01*
X57115333Y-131141333D01*
X57115333Y-130974666D01*
X57032000Y-130808000D01*
X56948666Y-130724666D01*
X56782000Y-130641333D01*
X56448666Y-130558000D01*
X56282000Y-130474666D01*
X56198666Y-130391333D01*
X56115333Y-130224666D01*
X56115333Y-130058000D01*
X56198666Y-129891333D01*
X56282000Y-129808000D01*
X56448666Y-129724666D01*
X56865333Y-129724666D01*
X57115333Y-129808000D01*
X59198666Y-131474666D02*
X59198666Y-129724666D01*
X59782000Y-130974666D01*
X60365333Y-129724666D01*
X60365333Y-131474666D01*
X61532000Y-129724666D02*
X61865333Y-129724666D01*
X62032000Y-129808000D01*
X62198666Y-129974666D01*
X62282000Y-130308000D01*
X62282000Y-130891333D01*
X62198666Y-131224666D01*
X62032000Y-131391333D01*
X61865333Y-131474666D01*
X61532000Y-131474666D01*
X61365333Y-131391333D01*
X61198666Y-131224666D01*
X61115333Y-130891333D01*
X61115333Y-130308000D01*
X61198666Y-129974666D01*
X61365333Y-129808000D01*
X61532000Y-129724666D01*
X62782000Y-129724666D02*
X63782000Y-129724666D01*
X63282000Y-131474666D02*
X63282000Y-129724666D01*
X64698666Y-129724666D02*
X65031999Y-129724666D01*
X65198666Y-129808000D01*
X65365333Y-129974666D01*
X65448666Y-130308000D01*
X65448666Y-130891333D01*
X65365333Y-131224666D01*
X65198666Y-131391333D01*
X65031999Y-131474666D01*
X64698666Y-131474666D01*
X64531999Y-131391333D01*
X64365333Y-131224666D01*
X64281999Y-130891333D01*
X64281999Y-130308000D01*
X64365333Y-129974666D01*
X64531999Y-129808000D01*
X64698666Y-129724666D01*
X67198666Y-131474666D02*
X66615333Y-130641333D01*
X66198666Y-131474666D02*
X66198666Y-129724666D01*
X66865333Y-129724666D01*
X67031999Y-129808000D01*
X67115333Y-129891333D01*
X67198666Y-130058000D01*
X67198666Y-130308000D01*
X67115333Y-130474666D01*
X67031999Y-130558000D01*
X66865333Y-130641333D01*
X66198666Y-130641333D01*
X70282000Y-131308000D02*
X70198666Y-131391333D01*
X69948666Y-131474666D01*
X69782000Y-131474666D01*
X69532000Y-131391333D01*
X69365333Y-131224666D01*
X69282000Y-131058000D01*
X69198666Y-130724666D01*
X69198666Y-130474666D01*
X69282000Y-130141333D01*
X69365333Y-129974666D01*
X69532000Y-129808000D01*
X69782000Y-129724666D01*
X69948666Y-129724666D01*
X70198666Y-129808000D01*
X70282000Y-129891333D01*
X71365333Y-129724666D02*
X71698666Y-129724666D01*
X71865333Y-129808000D01*
X72032000Y-129974666D01*
X72115333Y-130308000D01*
X72115333Y-130891333D01*
X72032000Y-131224666D01*
X71865333Y-131391333D01*
X71698666Y-131474666D01*
X71365333Y-131474666D01*
X71198666Y-131391333D01*
X71032000Y-131224666D01*
X70948666Y-130891333D01*
X70948666Y-130308000D01*
X71032000Y-129974666D01*
X71198666Y-129808000D01*
X71365333Y-129724666D01*
X72865333Y-131474666D02*
X72865333Y-129724666D01*
X73865333Y-131474666D01*
X73865333Y-129724666D01*
X74448666Y-129724666D02*
X75448666Y-129724666D01*
X74948666Y-131474666D02*
X74948666Y-129724666D01*
X77031999Y-131474666D02*
X76448666Y-130641333D01*
X76031999Y-131474666D02*
X76031999Y-129724666D01*
X76698666Y-129724666D01*
X76865333Y-129808000D01*
X76948666Y-129891333D01*
X77031999Y-130058000D01*
X77031999Y-130308000D01*
X76948666Y-130474666D01*
X76865333Y-130558000D01*
X76698666Y-130641333D01*
X76031999Y-130641333D01*
X78115333Y-129724666D02*
X78448666Y-129724666D01*
X78615333Y-129808000D01*
X78781999Y-129974666D01*
X78865333Y-130308000D01*
X78865333Y-130891333D01*
X78781999Y-131224666D01*
X78615333Y-131391333D01*
X78448666Y-131474666D01*
X78115333Y-131474666D01*
X77948666Y-131391333D01*
X77781999Y-131224666D01*
X77698666Y-130891333D01*
X77698666Y-130308000D01*
X77781999Y-129974666D01*
X77948666Y-129808000D01*
X78115333Y-129724666D01*
X80448666Y-131474666D02*
X79615333Y-131474666D01*
X79615333Y-129724666D01*
X81865333Y-131474666D02*
X81031999Y-131474666D01*
X81031999Y-129724666D01*
X82448666Y-130558000D02*
X83031999Y-130558000D01*
X83281999Y-131474666D02*
X82448666Y-131474666D01*
X82448666Y-129724666D01*
X83281999Y-129724666D01*
X85031999Y-131474666D02*
X84448666Y-130641333D01*
X84031999Y-131474666D02*
X84031999Y-129724666D01*
X84698666Y-129724666D01*
X84865333Y-129808000D01*
X84948666Y-129891333D01*
X85031999Y-130058000D01*
X85031999Y-130308000D01*
X84948666Y-130474666D01*
X84865333Y-130558000D01*
X84698666Y-130641333D01*
X84031999Y-130641333D01*
D13*
X95917000Y-80942571D02*
X95917000Y-79442571D01*
X96488428Y-79442571D01*
X96631285Y-79514000D01*
X96702714Y-79585428D01*
X96774142Y-79728285D01*
X96774142Y-79942571D01*
X96702714Y-80085428D01*
X96631285Y-80156857D01*
X96488428Y-80228285D01*
X95917000Y-80228285D01*
X97274142Y-79442571D02*
X97631285Y-80942571D01*
X97917000Y-79871142D01*
X98202714Y-80942571D01*
X98559857Y-79442571D01*
X99988428Y-80942571D02*
X99488428Y-80228285D01*
X99131285Y-80942571D02*
X99131285Y-79442571D01*
X99702714Y-79442571D01*
X99845571Y-79514000D01*
X99917000Y-79585428D01*
X99988428Y-79728285D01*
X99988428Y-79942571D01*
X99917000Y-80085428D01*
X99845571Y-80156857D01*
X99702714Y-80228285D01*
X99131285Y-80228285D01*
X95893142Y-77950142D02*
X96107428Y-78021571D01*
X96464571Y-78021571D01*
X96607428Y-77950142D01*
X96678857Y-77878714D01*
X96750285Y-77735857D01*
X96750285Y-77593000D01*
X96678857Y-77450142D01*
X96607428Y-77378714D01*
X96464571Y-77307285D01*
X96178857Y-77235857D01*
X96036000Y-77164428D01*
X95964571Y-77093000D01*
X95893142Y-76950142D01*
X95893142Y-76807285D01*
X95964571Y-76664428D01*
X96036000Y-76593000D01*
X96178857Y-76521571D01*
X96536000Y-76521571D01*
X96750285Y-76593000D01*
X97178857Y-76521571D02*
X98036000Y-76521571D01*
X97607428Y-78021571D02*
X97607428Y-76521571D01*
X98464571Y-77593000D02*
X99178857Y-77593000D01*
X98321714Y-78021571D02*
X98821714Y-76521571D01*
X99321714Y-78021571D01*
X95968571Y-74187857D02*
X96468571Y-74187857D01*
X96682857Y-74973571D02*
X95968571Y-74973571D01*
X95968571Y-73473571D01*
X96682857Y-73473571D01*
X98182857Y-74973571D02*
X97682857Y-74259285D01*
X97325714Y-74973571D02*
X97325714Y-73473571D01*
X97897142Y-73473571D01*
X98040000Y-73545000D01*
X98111428Y-73616428D01*
X98182857Y-73759285D01*
X98182857Y-73973571D01*
X98111428Y-74116428D01*
X98040000Y-74187857D01*
X97897142Y-74259285D01*
X97325714Y-74259285D01*
X99682857Y-74973571D02*
X99182857Y-74259285D01*
X98825714Y-74973571D02*
X98825714Y-73473571D01*
X99397142Y-73473571D01*
X99540000Y-73545000D01*
X99611428Y-73616428D01*
X99682857Y-73759285D01*
X99682857Y-73973571D01*
X99611428Y-74116428D01*
X99540000Y-74187857D01*
X99397142Y-74259285D01*
X98825714Y-74259285D01*
X95897142Y-71798571D02*
X95897142Y-70298571D01*
X96254285Y-70298571D01*
X96468571Y-70370000D01*
X96611428Y-70512857D01*
X96682857Y-70655714D01*
X96754285Y-70941428D01*
X96754285Y-71155714D01*
X96682857Y-71441428D01*
X96611428Y-71584285D01*
X96468571Y-71727142D01*
X96254285Y-71798571D01*
X95897142Y-71798571D01*
X97897142Y-71012857D02*
X98111428Y-71084285D01*
X98182857Y-71155714D01*
X98254285Y-71298571D01*
X98254285Y-71512857D01*
X98182857Y-71655714D01*
X98111428Y-71727142D01*
X97968571Y-71798571D01*
X97397142Y-71798571D01*
X97397142Y-70298571D01*
X97897142Y-70298571D01*
X98040000Y-70370000D01*
X98111428Y-70441428D01*
X98182857Y-70584285D01*
X98182857Y-70727142D01*
X98111428Y-70870000D01*
X98040000Y-70941428D01*
X97897142Y-71012857D01*
X97397142Y-71012857D01*
X99682857Y-70370000D02*
X99540000Y-70298571D01*
X99325714Y-70298571D01*
X99111428Y-70370000D01*
X98968571Y-70512857D01*
X98897142Y-70655714D01*
X98825714Y-70941428D01*
X98825714Y-71155714D01*
X98897142Y-71441428D01*
X98968571Y-71584285D01*
X99111428Y-71727142D01*
X99325714Y-71798571D01*
X99468571Y-71798571D01*
X99682857Y-71727142D01*
X99754285Y-71655714D01*
X99754285Y-71155714D01*
X99468571Y-71155714D01*
X33881928Y-78446571D02*
X34810500Y-78446571D01*
X34310500Y-79018000D01*
X34524785Y-79018000D01*
X34667642Y-79089428D01*
X34739071Y-79160857D01*
X34810500Y-79303714D01*
X34810500Y-79660857D01*
X34739071Y-79803714D01*
X34667642Y-79875142D01*
X34524785Y-79946571D01*
X34096214Y-79946571D01*
X33953357Y-79875142D01*
X33881928Y-79803714D01*
X35239071Y-78446571D02*
X35739071Y-79946571D01*
X36239071Y-78446571D01*
X36596214Y-78446571D02*
X37524785Y-78446571D01*
X37024785Y-79018000D01*
X37239071Y-79018000D01*
X37381928Y-79089428D01*
X37453357Y-79160857D01*
X37524785Y-79303714D01*
X37524785Y-79660857D01*
X37453357Y-79803714D01*
X37381928Y-79875142D01*
X37239071Y-79946571D01*
X36810500Y-79946571D01*
X36667642Y-79875142D01*
X36596214Y-79803714D01*
X34381928Y-81018000D02*
X34239071Y-80946571D01*
X34024785Y-80946571D01*
X33810500Y-81018000D01*
X33667642Y-81160857D01*
X33596214Y-81303714D01*
X33524785Y-81589428D01*
X33524785Y-81803714D01*
X33596214Y-82089428D01*
X33667642Y-82232285D01*
X33810500Y-82375142D01*
X34024785Y-82446571D01*
X34167642Y-82446571D01*
X34381928Y-82375142D01*
X34453357Y-82303714D01*
X34453357Y-81803714D01*
X34167642Y-81803714D01*
X35096214Y-82446571D02*
X35096214Y-80946571D01*
X35953357Y-82446571D01*
X35953357Y-80946571D01*
X36667642Y-82446571D02*
X36667642Y-80946571D01*
X37024785Y-80946571D01*
X37239071Y-81018000D01*
X37381928Y-81160857D01*
X37453357Y-81303714D01*
X37524785Y-81589428D01*
X37524785Y-81803714D01*
X37453357Y-82089428D01*
X37381928Y-82232285D01*
X37239071Y-82375142D01*
X37024785Y-82446571D01*
X36667642Y-82446571D01*
X45466428Y-78827571D02*
X46323571Y-78827571D01*
X45895000Y-80327571D02*
X45895000Y-78827571D01*
X46823571Y-79541857D02*
X47323571Y-79541857D01*
X47537857Y-80327571D02*
X46823571Y-80327571D01*
X46823571Y-78827571D01*
X47537857Y-78827571D01*
X48180714Y-80327571D02*
X48180714Y-78827571D01*
X48680714Y-79899000D01*
X49180714Y-78827571D01*
X49180714Y-80327571D01*
X49895000Y-80327571D02*
X49895000Y-78827571D01*
X50466428Y-78827571D01*
X50609285Y-78899000D01*
X50680714Y-78970428D01*
X50752142Y-79113285D01*
X50752142Y-79327571D01*
X50680714Y-79470428D01*
X50609285Y-79541857D01*
X50466428Y-79613285D01*
X49895000Y-79613285D01*
X51680714Y-78827571D02*
X51823571Y-78827571D01*
X51966428Y-78899000D01*
X52037857Y-78970428D01*
X52109285Y-79113285D01*
X52180714Y-79399000D01*
X52180714Y-79756142D01*
X52109285Y-80041857D01*
X52037857Y-80184714D01*
X51966428Y-80256142D01*
X51823571Y-80327571D01*
X51680714Y-80327571D01*
X51537857Y-80256142D01*
X51466428Y-80184714D01*
X51395000Y-80041857D01*
X51323571Y-79756142D01*
X51323571Y-79399000D01*
X51395000Y-79113285D01*
X51466428Y-78970428D01*
X51537857Y-78899000D01*
X51680714Y-78827571D01*
X45466428Y-81327571D02*
X46323571Y-81327571D01*
X45895000Y-82827571D02*
X45895000Y-81327571D01*
X46823571Y-82041857D02*
X47323571Y-82041857D01*
X47537857Y-82827571D02*
X46823571Y-82827571D01*
X46823571Y-81327571D01*
X47537857Y-81327571D01*
X48180714Y-82827571D02*
X48180714Y-81327571D01*
X48680714Y-82399000D01*
X49180714Y-81327571D01*
X49180714Y-82827571D01*
X49895000Y-82827571D02*
X49895000Y-81327571D01*
X50466428Y-81327571D01*
X50609285Y-81399000D01*
X50680714Y-81470428D01*
X50752142Y-81613285D01*
X50752142Y-81827571D01*
X50680714Y-81970428D01*
X50609285Y-82041857D01*
X50466428Y-82113285D01*
X49895000Y-82113285D01*
X52180714Y-82827571D02*
X51323571Y-82827571D01*
X51752142Y-82827571D02*
X51752142Y-81327571D01*
X51609285Y-81541857D01*
X51466428Y-81684714D01*
X51323571Y-81756142D01*
X33333428Y-97711857D02*
X33333428Y-98569000D01*
X31833428Y-98140428D02*
X33333428Y-98140428D01*
X33333428Y-99354714D02*
X33333428Y-99640428D01*
X33262000Y-99783285D01*
X33119142Y-99926142D01*
X32833428Y-99997571D01*
X32333428Y-99997571D01*
X32047714Y-99926142D01*
X31904857Y-99783285D01*
X31833428Y-99640428D01*
X31833428Y-99354714D01*
X31904857Y-99211857D01*
X32047714Y-99069000D01*
X32333428Y-98997571D01*
X32833428Y-98997571D01*
X33119142Y-99069000D01*
X33262000Y-99211857D01*
X33333428Y-99354714D01*
X31833428Y-101783285D02*
X33333428Y-101783285D01*
X33333428Y-102354714D01*
X33262000Y-102497571D01*
X33190571Y-102569000D01*
X33047714Y-102640428D01*
X32833428Y-102640428D01*
X32690571Y-102569000D01*
X32619142Y-102497571D01*
X32547714Y-102354714D01*
X32547714Y-101783285D01*
X33333428Y-103569000D02*
X33333428Y-103854714D01*
X33262000Y-103997571D01*
X33119142Y-104140428D01*
X32833428Y-104211857D01*
X32333428Y-104211857D01*
X32047714Y-104140428D01*
X31904857Y-103997571D01*
X31833428Y-103854714D01*
X31833428Y-103569000D01*
X31904857Y-103426142D01*
X32047714Y-103283285D01*
X32333428Y-103211857D01*
X32833428Y-103211857D01*
X33119142Y-103283285D01*
X33262000Y-103426142D01*
X33333428Y-103569000D01*
X33333428Y-104711857D02*
X31833428Y-105069000D01*
X32904857Y-105354714D01*
X31833428Y-105640428D01*
X33333428Y-105997571D01*
X32619142Y-106569000D02*
X32619142Y-107069000D01*
X31833428Y-107283285D02*
X31833428Y-106569000D01*
X33333428Y-106569000D01*
X33333428Y-107283285D01*
X31833428Y-108783285D02*
X32547714Y-108283285D01*
X31833428Y-107926142D02*
X33333428Y-107926142D01*
X33333428Y-108497571D01*
X33262000Y-108640428D01*
X33190571Y-108711857D01*
X33047714Y-108783285D01*
X32833428Y-108783285D01*
X32690571Y-108711857D01*
X32619142Y-108640428D01*
X32547714Y-108497571D01*
X32547714Y-107926142D01*
X32619142Y-111069000D02*
X32547714Y-111283285D01*
X32476285Y-111354714D01*
X32333428Y-111426142D01*
X32119142Y-111426142D01*
X31976285Y-111354714D01*
X31904857Y-111283285D01*
X31833428Y-111140428D01*
X31833428Y-110569000D01*
X33333428Y-110569000D01*
X33333428Y-111069000D01*
X33262000Y-111211857D01*
X33190571Y-111283285D01*
X33047714Y-111354714D01*
X32904857Y-111354714D01*
X32762000Y-111283285D01*
X32690571Y-111211857D01*
X32619142Y-111069000D01*
X32619142Y-110569000D01*
X33333428Y-112354714D02*
X33333428Y-112640428D01*
X33262000Y-112783285D01*
X33119142Y-112926142D01*
X32833428Y-112997571D01*
X32333428Y-112997571D01*
X32047714Y-112926142D01*
X31904857Y-112783285D01*
X31833428Y-112640428D01*
X31833428Y-112354714D01*
X31904857Y-112211857D01*
X32047714Y-112069000D01*
X32333428Y-111997571D01*
X32833428Y-111997571D01*
X33119142Y-112069000D01*
X33262000Y-112211857D01*
X33333428Y-112354714D01*
X32262000Y-113569000D02*
X32262000Y-114283285D01*
X31833428Y-113426142D02*
X33333428Y-113926142D01*
X31833428Y-114426142D01*
X31833428Y-115783285D02*
X32547714Y-115283285D01*
X31833428Y-114926142D02*
X33333428Y-114926142D01*
X33333428Y-115497571D01*
X33262000Y-115640428D01*
X33190571Y-115711857D01*
X33047714Y-115783285D01*
X32833428Y-115783285D01*
X32690571Y-115711857D01*
X32619142Y-115640428D01*
X32547714Y-115497571D01*
X32547714Y-114926142D01*
X31833428Y-116426142D02*
X33333428Y-116426142D01*
X33333428Y-116783285D01*
X33262000Y-116997571D01*
X33119142Y-117140428D01*
X32976285Y-117211857D01*
X32690571Y-117283285D01*
X32476285Y-117283285D01*
X32190571Y-117211857D01*
X32047714Y-117140428D01*
X31904857Y-116997571D01*
X31833428Y-116783285D01*
X31833428Y-116426142D01*
X32103285Y-62127285D02*
X32031857Y-62055857D01*
X31960428Y-61841571D01*
X31960428Y-61698714D01*
X32031857Y-61484428D01*
X32174714Y-61341571D01*
X32317571Y-61270142D01*
X32603285Y-61198714D01*
X32817571Y-61198714D01*
X33103285Y-61270142D01*
X33246142Y-61341571D01*
X33389000Y-61484428D01*
X33460428Y-61698714D01*
X33460428Y-61841571D01*
X33389000Y-62055857D01*
X33317571Y-62127285D01*
X32389000Y-62698714D02*
X32389000Y-63413000D01*
X31960428Y-62555857D02*
X33460428Y-63055857D01*
X31960428Y-63555857D01*
X31960428Y-64055857D02*
X33460428Y-64055857D01*
X31960428Y-64913000D01*
X33460428Y-64913000D01*
X32746142Y-67270142D02*
X32674714Y-67484428D01*
X32603285Y-67555857D01*
X32460428Y-67627285D01*
X32246142Y-67627285D01*
X32103285Y-67555857D01*
X32031857Y-67484428D01*
X31960428Y-67341571D01*
X31960428Y-66770142D01*
X33460428Y-66770142D01*
X33460428Y-67270142D01*
X33389000Y-67413000D01*
X33317571Y-67484428D01*
X33174714Y-67555857D01*
X33031857Y-67555857D01*
X32889000Y-67484428D01*
X32817571Y-67413000D01*
X32746142Y-67270142D01*
X32746142Y-66770142D01*
X33460428Y-68270142D02*
X32246142Y-68270142D01*
X32103285Y-68341571D01*
X32031857Y-68413000D01*
X31960428Y-68555857D01*
X31960428Y-68841571D01*
X32031857Y-68984428D01*
X32103285Y-69055857D01*
X32246142Y-69127285D01*
X33460428Y-69127285D01*
X32031857Y-69770142D02*
X31960428Y-69984428D01*
X31960428Y-70341571D01*
X32031857Y-70484428D01*
X32103285Y-70555857D01*
X32246142Y-70627285D01*
X32389000Y-70627285D01*
X32531857Y-70555857D01*
X32603285Y-70484428D01*
X32674714Y-70341571D01*
X32746142Y-70055857D01*
X32817571Y-69913000D01*
X32889000Y-69841571D01*
X33031857Y-69770142D01*
X33174714Y-69770142D01*
X33317571Y-69841571D01*
X33389000Y-69913000D01*
X33460428Y-70055857D01*
X33460428Y-70413000D01*
X33389000Y-70627285D01*
X74672285Y-53867857D02*
X74886571Y-53939285D01*
X74958000Y-54010714D01*
X75029428Y-54153571D01*
X75029428Y-54367857D01*
X74958000Y-54510714D01*
X74886571Y-54582142D01*
X74743714Y-54653571D01*
X74172285Y-54653571D01*
X74172285Y-53153571D01*
X74672285Y-53153571D01*
X74815142Y-53225000D01*
X74886571Y-53296428D01*
X74958000Y-53439285D01*
X74958000Y-53582142D01*
X74886571Y-53725000D01*
X74815142Y-53796428D01*
X74672285Y-53867857D01*
X74172285Y-53867857D01*
X75958000Y-53153571D02*
X76243714Y-53153571D01*
X76386571Y-53225000D01*
X76529428Y-53367857D01*
X76600857Y-53653571D01*
X76600857Y-54153571D01*
X76529428Y-54439285D01*
X76386571Y-54582142D01*
X76243714Y-54653571D01*
X75958000Y-54653571D01*
X75815142Y-54582142D01*
X75672285Y-54439285D01*
X75600857Y-54153571D01*
X75600857Y-53653571D01*
X75672285Y-53367857D01*
X75815142Y-53225000D01*
X75958000Y-53153571D01*
X77529428Y-53153571D02*
X77815142Y-53153571D01*
X77958000Y-53225000D01*
X78100857Y-53367857D01*
X78172285Y-53653571D01*
X78172285Y-54153571D01*
X78100857Y-54439285D01*
X77958000Y-54582142D01*
X77815142Y-54653571D01*
X77529428Y-54653571D01*
X77386571Y-54582142D01*
X77243714Y-54439285D01*
X77172285Y-54153571D01*
X77172285Y-53653571D01*
X77243714Y-53367857D01*
X77386571Y-53225000D01*
X77529428Y-53153571D01*
X78600857Y-53153571D02*
X79458000Y-53153571D01*
X79029428Y-54653571D02*
X79029428Y-53153571D01*
X53308571Y-53280571D02*
X53308571Y-54494857D01*
X53380000Y-54637714D01*
X53451428Y-54709142D01*
X53594285Y-54780571D01*
X53880000Y-54780571D01*
X54022857Y-54709142D01*
X54094285Y-54637714D01*
X54165714Y-54494857D01*
X54165714Y-53280571D01*
X54808571Y-54709142D02*
X55022857Y-54780571D01*
X55380000Y-54780571D01*
X55522857Y-54709142D01*
X55594285Y-54637714D01*
X55665714Y-54494857D01*
X55665714Y-54352000D01*
X55594285Y-54209142D01*
X55522857Y-54137714D01*
X55380000Y-54066285D01*
X55094285Y-53994857D01*
X54951428Y-53923428D01*
X54880000Y-53852000D01*
X54808571Y-53709142D01*
X54808571Y-53566285D01*
X54880000Y-53423428D01*
X54951428Y-53352000D01*
X55094285Y-53280571D01*
X55451428Y-53280571D01*
X55665714Y-53352000D01*
X56308571Y-53994857D02*
X56808571Y-53994857D01*
X57022857Y-54780571D02*
X56308571Y-54780571D01*
X56308571Y-53280571D01*
X57022857Y-53280571D01*
X58522857Y-54780571D02*
X58022857Y-54066285D01*
X57665714Y-54780571D02*
X57665714Y-53280571D01*
X58237142Y-53280571D01*
X58380000Y-53352000D01*
X58451428Y-53423428D01*
X58522857Y-53566285D01*
X58522857Y-53780571D01*
X58451428Y-53923428D01*
X58380000Y-53994857D01*
X58237142Y-54066285D01*
X57665714Y-54066285D01*
X90340571Y-112088714D02*
X88840571Y-112088714D01*
X88840571Y-111731571D01*
X88912000Y-111517285D01*
X89054857Y-111374428D01*
X89197714Y-111303000D01*
X89483428Y-111231571D01*
X89697714Y-111231571D01*
X89983428Y-111303000D01*
X90126285Y-111374428D01*
X90269142Y-111517285D01*
X90340571Y-111731571D01*
X90340571Y-112088714D01*
X89554857Y-110588714D02*
X89554857Y-110088714D01*
X90340571Y-109874428D02*
X90340571Y-110588714D01*
X88840571Y-110588714D01*
X88840571Y-109874428D01*
X89554857Y-108731571D02*
X89626285Y-108517285D01*
X89697714Y-108445857D01*
X89840571Y-108374428D01*
X90054857Y-108374428D01*
X90197714Y-108445857D01*
X90269142Y-108517285D01*
X90340571Y-108660142D01*
X90340571Y-109231571D01*
X88840571Y-109231571D01*
X88840571Y-108731571D01*
X88912000Y-108588714D01*
X88983428Y-108517285D01*
X89126285Y-108445857D01*
X89269142Y-108445857D01*
X89412000Y-108517285D01*
X89483428Y-108588714D01*
X89554857Y-108731571D01*
X89554857Y-109231571D01*
X88840571Y-107731571D02*
X90054857Y-107731571D01*
X90197714Y-107660142D01*
X90269142Y-107588714D01*
X90340571Y-107445857D01*
X90340571Y-107160142D01*
X90269142Y-107017285D01*
X90197714Y-106945857D01*
X90054857Y-106874428D01*
X88840571Y-106874428D01*
X88912000Y-105374428D02*
X88840571Y-105517285D01*
X88840571Y-105731571D01*
X88912000Y-105945857D01*
X89054857Y-106088714D01*
X89197714Y-106160142D01*
X89483428Y-106231571D01*
X89697714Y-106231571D01*
X89983428Y-106160142D01*
X90126285Y-106088714D01*
X90269142Y-105945857D01*
X90340571Y-105731571D01*
X90340571Y-105588714D01*
X90269142Y-105374428D01*
X90197714Y-105303000D01*
X89697714Y-105303000D01*
X89697714Y-105588714D01*
X88912000Y-103874428D02*
X88840571Y-104017285D01*
X88840571Y-104231571D01*
X88912000Y-104445857D01*
X89054857Y-104588714D01*
X89197714Y-104660142D01*
X89483428Y-104731571D01*
X89697714Y-104731571D01*
X89983428Y-104660142D01*
X90126285Y-104588714D01*
X90269142Y-104445857D01*
X90340571Y-104231571D01*
X90340571Y-104088714D01*
X90269142Y-103874428D01*
X90197714Y-103803000D01*
X89697714Y-103803000D01*
X89697714Y-104088714D01*
X89554857Y-103160142D02*
X89554857Y-102660142D01*
X90340571Y-102445857D02*
X90340571Y-103160142D01*
X88840571Y-103160142D01*
X88840571Y-102445857D01*
X90340571Y-100945857D02*
X89626285Y-101445857D01*
X90340571Y-101803000D02*
X88840571Y-101803000D01*
X88840571Y-101231571D01*
X88912000Y-101088714D01*
X88983428Y-101017285D01*
X89126285Y-100945857D01*
X89340571Y-100945857D01*
X89483428Y-101017285D01*
X89554857Y-101088714D01*
X89626285Y-101231571D01*
X89626285Y-101803000D01*
X89753928Y-83678000D02*
X89611071Y-83606571D01*
X89396785Y-83606571D01*
X89182500Y-83678000D01*
X89039642Y-83820857D01*
X88968214Y-83963714D01*
X88896785Y-84249428D01*
X88896785Y-84463714D01*
X88968214Y-84749428D01*
X89039642Y-84892285D01*
X89182500Y-85035142D01*
X89396785Y-85106571D01*
X89539642Y-85106571D01*
X89753928Y-85035142D01*
X89825357Y-84963714D01*
X89825357Y-84463714D01*
X89539642Y-84463714D01*
X90468214Y-85106571D02*
X90468214Y-83606571D01*
X91325357Y-85106571D01*
X91325357Y-83606571D01*
X92039642Y-85106571D02*
X92039642Y-83606571D01*
X92396785Y-83606571D01*
X92611071Y-83678000D01*
X92753928Y-83820857D01*
X92825357Y-83963714D01*
X92896785Y-84249428D01*
X92896785Y-84463714D01*
X92825357Y-84749428D01*
X92753928Y-84892285D01*
X92611071Y-85035142D01*
X92396785Y-85106571D01*
X92039642Y-85106571D01*
X85753928Y-87606571D02*
X85753928Y-86106571D01*
X86253928Y-87178000D01*
X86753928Y-86106571D01*
X86753928Y-87606571D01*
X87468214Y-86106571D02*
X87468214Y-87320857D01*
X87539642Y-87463714D01*
X87611071Y-87535142D01*
X87753928Y-87606571D01*
X88039642Y-87606571D01*
X88182500Y-87535142D01*
X88253928Y-87463714D01*
X88325357Y-87320857D01*
X88325357Y-86106571D01*
X89753928Y-87606571D02*
X89039642Y-87606571D01*
X89039642Y-86106571D01*
X90039642Y-86106571D02*
X90896785Y-86106571D01*
X90468214Y-87606571D02*
X90468214Y-86106571D01*
X91396785Y-87606571D02*
X91396785Y-86106571D01*
X91968214Y-86106571D02*
X92896785Y-86106571D01*
X92396785Y-86678000D01*
X92611071Y-86678000D01*
X92753928Y-86749428D01*
X92825357Y-86820857D01*
X92896785Y-86963714D01*
X92896785Y-87320857D01*
X92825357Y-87463714D01*
X92753928Y-87535142D01*
X92611071Y-87606571D01*
X92182500Y-87606571D01*
X92039642Y-87535142D01*
X91968214Y-87463714D01*
X85753928Y-90106571D02*
X85753928Y-88606571D01*
X86253928Y-89678000D01*
X86753928Y-88606571D01*
X86753928Y-90106571D01*
X87468214Y-88606571D02*
X87468214Y-89820857D01*
X87539642Y-89963714D01*
X87611071Y-90035142D01*
X87753928Y-90106571D01*
X88039642Y-90106571D01*
X88182500Y-90035142D01*
X88253928Y-89963714D01*
X88325357Y-89820857D01*
X88325357Y-88606571D01*
X89753928Y-90106571D02*
X89039642Y-90106571D01*
X89039642Y-88606571D01*
X90039642Y-88606571D02*
X90896785Y-88606571D01*
X90468214Y-90106571D02*
X90468214Y-88606571D01*
X91396785Y-90106571D02*
X91396785Y-88606571D01*
X92039642Y-88749428D02*
X92111071Y-88678000D01*
X92253928Y-88606571D01*
X92611071Y-88606571D01*
X92753928Y-88678000D01*
X92825357Y-88749428D01*
X92896785Y-88892285D01*
X92896785Y-89035142D01*
X92825357Y-89249428D01*
X91968214Y-90106571D01*
X92896785Y-90106571D01*
X85753928Y-92606571D02*
X85753928Y-91106571D01*
X86253928Y-92178000D01*
X86753928Y-91106571D01*
X86753928Y-92606571D01*
X87468214Y-91106571D02*
X87468214Y-92320857D01*
X87539642Y-92463714D01*
X87611071Y-92535142D01*
X87753928Y-92606571D01*
X88039642Y-92606571D01*
X88182500Y-92535142D01*
X88253928Y-92463714D01*
X88325357Y-92320857D01*
X88325357Y-91106571D01*
X89753928Y-92606571D02*
X89039642Y-92606571D01*
X89039642Y-91106571D01*
X90039642Y-91106571D02*
X90896785Y-91106571D01*
X90468214Y-92606571D02*
X90468214Y-91106571D01*
X91396785Y-92606571D02*
X91396785Y-91106571D01*
X92896785Y-92606571D02*
X92039642Y-92606571D01*
X92468214Y-92606571D02*
X92468214Y-91106571D01*
X92325357Y-91320857D01*
X92182500Y-91463714D01*
X92039642Y-91535142D01*
X85753928Y-95106571D02*
X85753928Y-93606571D01*
X86253928Y-94678000D01*
X86753928Y-93606571D01*
X86753928Y-95106571D01*
X87468214Y-93606571D02*
X87468214Y-94820857D01*
X87539642Y-94963714D01*
X87611071Y-95035142D01*
X87753928Y-95106571D01*
X88039642Y-95106571D01*
X88182500Y-95035142D01*
X88253928Y-94963714D01*
X88325357Y-94820857D01*
X88325357Y-93606571D01*
X89753928Y-95106571D02*
X89039642Y-95106571D01*
X89039642Y-93606571D01*
X90039642Y-93606571D02*
X90896785Y-93606571D01*
X90468214Y-95106571D02*
X90468214Y-93606571D01*
X91396785Y-95106571D02*
X91396785Y-93606571D01*
X92396785Y-93606571D02*
X92539642Y-93606571D01*
X92682500Y-93678000D01*
X92753928Y-93749428D01*
X92825357Y-93892285D01*
X92896785Y-94178000D01*
X92896785Y-94535142D01*
X92825357Y-94820857D01*
X92753928Y-94963714D01*
X92682500Y-95035142D01*
X92539642Y-95106571D01*
X92396785Y-95106571D01*
X92253928Y-95035142D01*
X92182500Y-94963714D01*
X92111071Y-94820857D01*
X92039642Y-94535142D01*
X92039642Y-94178000D01*
X92111071Y-93892285D01*
X92182500Y-93749428D01*
X92253928Y-93678000D01*
X92396785Y-93606571D01*
X89253928Y-96106571D02*
X90182500Y-96106571D01*
X89682500Y-96678000D01*
X89896785Y-96678000D01*
X90039642Y-96749428D01*
X90111071Y-96820857D01*
X90182500Y-96963714D01*
X90182500Y-97320857D01*
X90111071Y-97463714D01*
X90039642Y-97535142D01*
X89896785Y-97606571D01*
X89468214Y-97606571D01*
X89325357Y-97535142D01*
X89253928Y-97463714D01*
X90611071Y-96106571D02*
X91111071Y-97606571D01*
X91611071Y-96106571D01*
X91968214Y-96106571D02*
X92896785Y-96106571D01*
X92396785Y-96678000D01*
X92611071Y-96678000D01*
X92753928Y-96749428D01*
X92825357Y-96820857D01*
X92896785Y-96963714D01*
X92896785Y-97320857D01*
X92825357Y-97463714D01*
X92753928Y-97535142D01*
X92611071Y-97606571D01*
X92182500Y-97606571D01*
X92039642Y-97535142D01*
X91968214Y-97463714D01*
D14*
%TO.C,REF\u002A\u002A*%
G36*
X85698094Y-48424158D02*
G01*
X85730619Y-48436736D01*
X85780193Y-48461712D01*
X85851374Y-48500876D01*
X85856916Y-48503988D01*
X85922474Y-48541476D01*
X85977798Y-48574319D01*
X86017455Y-48599205D01*
X86036012Y-48612820D01*
X86036531Y-48613487D01*
X86032048Y-48632390D01*
X86011486Y-48674605D01*
X85976183Y-48737832D01*
X85927480Y-48819772D01*
X85866718Y-48918122D01*
X85795236Y-49030585D01*
X85777445Y-49058165D01*
X85731093Y-49134699D01*
X85697342Y-49200556D01*
X85679153Y-49249782D01*
X85677286Y-49259507D01*
X85678115Y-49302312D01*
X85687394Y-49370209D01*
X85703968Y-49458843D01*
X85726680Y-49563859D01*
X85754373Y-49680902D01*
X85785890Y-49805616D01*
X85820075Y-49933645D01*
X85855771Y-50060634D01*
X85891821Y-50182228D01*
X85927068Y-50294072D01*
X85960356Y-50391810D01*
X85990528Y-50471087D01*
X86011561Y-50518122D01*
X86036337Y-50568225D01*
X86059730Y-50616168D01*
X86060997Y-50618793D01*
X86099699Y-50667220D01*
X86156184Y-50699828D01*
X86221939Y-50715454D01*
X86288451Y-50712937D01*
X86347205Y-50691114D01*
X86380258Y-50662382D01*
X86427859Y-50583583D01*
X86462739Y-50485378D01*
X86481877Y-50377779D01*
X86484588Y-50316780D01*
X86473670Y-50202935D01*
X86441624Y-50108660D01*
X86386726Y-50029379D01*
X86369607Y-50011733D01*
X86318661Y-49962235D01*
X86315163Y-49612362D01*
X86311664Y-49262489D01*
X86400818Y-49127531D01*
X86442654Y-49066445D01*
X86482945Y-49011493D01*
X86515943Y-48970336D01*
X86530126Y-48955192D01*
X86570281Y-48917810D01*
X86624665Y-48947098D01*
X86659039Y-48968084D01*
X86677846Y-48984378D01*
X86679049Y-48987307D01*
X86691903Y-48999728D01*
X86713896Y-49008977D01*
X86735150Y-49017313D01*
X86767694Y-49033149D01*
X86814322Y-49058033D01*
X86877829Y-49093509D01*
X86961008Y-49141123D01*
X87066653Y-49202422D01*
X87124062Y-49235932D01*
X87191594Y-49276071D01*
X87235885Y-49304659D01*
X87260855Y-49325039D01*
X87270423Y-49340553D01*
X87268508Y-49354546D01*
X87266911Y-49357796D01*
X87251376Y-49378266D01*
X87218136Y-49416665D01*
X87171062Y-49468696D01*
X87114028Y-49530066D01*
X87064700Y-49582090D01*
X86951030Y-49705567D01*
X86862105Y-49812591D01*
X86797134Y-49904240D01*
X86755321Y-49981588D01*
X86741217Y-50020866D01*
X86735392Y-50055249D01*
X86729375Y-50113899D01*
X86723696Y-50190117D01*
X86718884Y-50277202D01*
X86716619Y-50332268D01*
X86713459Y-50427464D01*
X86712069Y-50497062D01*
X86712858Y-50546409D01*
X86716235Y-50580854D01*
X86722608Y-50605743D01*
X86732387Y-50626425D01*
X86740067Y-50639053D01*
X86784421Y-50687726D01*
X86841574Y-50721645D01*
X86901708Y-50736438D01*
X86946773Y-50731086D01*
X86987576Y-50707930D01*
X87038724Y-50666462D01*
X87093042Y-50613912D01*
X87143357Y-50557516D01*
X87182494Y-50504505D01*
X87196905Y-50478889D01*
X87218491Y-50443814D01*
X87257753Y-50390389D01*
X87311102Y-50322789D01*
X87374952Y-50245190D01*
X87445715Y-50161768D01*
X87519804Y-50076698D01*
X87593632Y-49994155D01*
X87663611Y-49918316D01*
X87726155Y-49853356D01*
X87775260Y-49805669D01*
X87829779Y-49758032D01*
X87875642Y-49722908D01*
X87907811Y-49703949D01*
X87918489Y-49701864D01*
X87934853Y-49710274D01*
X87975671Y-49732846D01*
X88038586Y-49768224D01*
X88121244Y-49815054D01*
X88221289Y-49871981D01*
X88336366Y-49937649D01*
X88464119Y-50010703D01*
X88602194Y-50089788D01*
X88748234Y-50173548D01*
X88899884Y-50260629D01*
X89054790Y-50349676D01*
X89210595Y-50439332D01*
X89364944Y-50528243D01*
X89515482Y-50615054D01*
X89659854Y-50698409D01*
X89795704Y-50776954D01*
X89920677Y-50849333D01*
X90032417Y-50914190D01*
X90128570Y-50970171D01*
X90206779Y-51015920D01*
X90264689Y-51050083D01*
X90299946Y-51071304D01*
X90310165Y-51077963D01*
X90296402Y-51079280D01*
X90253104Y-51080559D01*
X90181714Y-51081796D01*
X90083673Y-51082983D01*
X89960422Y-51084115D01*
X89813403Y-51085186D01*
X89644057Y-51086189D01*
X89453826Y-51087119D01*
X89244151Y-51087968D01*
X89016473Y-51088732D01*
X88772235Y-51089403D01*
X88512877Y-51089976D01*
X88239841Y-51090444D01*
X87954568Y-51090802D01*
X87658500Y-51091042D01*
X87353079Y-51091159D01*
X87224924Y-51091171D01*
X84124970Y-51091171D01*
X84346053Y-50707847D01*
X84392856Y-50626680D01*
X84453102Y-50522166D01*
X84524778Y-50397801D01*
X84605869Y-50257082D01*
X84694362Y-50103503D01*
X84788240Y-49940562D01*
X84885491Y-49771754D01*
X84984100Y-49600575D01*
X85082053Y-49430521D01*
X85106825Y-49387512D01*
X85197152Y-49230857D01*
X85283289Y-49081803D01*
X85363942Y-48942568D01*
X85437816Y-48815371D01*
X85503617Y-48702432D01*
X85560050Y-48605968D01*
X85605821Y-48528200D01*
X85639635Y-48471346D01*
X85660198Y-48437625D01*
X85665953Y-48429040D01*
X85678058Y-48422189D01*
X85698094Y-48424158D01*
G37*
X85698094Y-48424158D02*
X85730619Y-48436736D01*
X85780193Y-48461712D01*
X85851374Y-48500876D01*
X85856916Y-48503988D01*
X85922474Y-48541476D01*
X85977798Y-48574319D01*
X86017455Y-48599205D01*
X86036012Y-48612820D01*
X86036531Y-48613487D01*
X86032048Y-48632390D01*
X86011486Y-48674605D01*
X85976183Y-48737832D01*
X85927480Y-48819772D01*
X85866718Y-48918122D01*
X85795236Y-49030585D01*
X85777445Y-49058165D01*
X85731093Y-49134699D01*
X85697342Y-49200556D01*
X85679153Y-49249782D01*
X85677286Y-49259507D01*
X85678115Y-49302312D01*
X85687394Y-49370209D01*
X85703968Y-49458843D01*
X85726680Y-49563859D01*
X85754373Y-49680902D01*
X85785890Y-49805616D01*
X85820075Y-49933645D01*
X85855771Y-50060634D01*
X85891821Y-50182228D01*
X85927068Y-50294072D01*
X85960356Y-50391810D01*
X85990528Y-50471087D01*
X86011561Y-50518122D01*
X86036337Y-50568225D01*
X86059730Y-50616168D01*
X86060997Y-50618793D01*
X86099699Y-50667220D01*
X86156184Y-50699828D01*
X86221939Y-50715454D01*
X86288451Y-50712937D01*
X86347205Y-50691114D01*
X86380258Y-50662382D01*
X86427859Y-50583583D01*
X86462739Y-50485378D01*
X86481877Y-50377779D01*
X86484588Y-50316780D01*
X86473670Y-50202935D01*
X86441624Y-50108660D01*
X86386726Y-50029379D01*
X86369607Y-50011733D01*
X86318661Y-49962235D01*
X86315163Y-49612362D01*
X86311664Y-49262489D01*
X86400818Y-49127531D01*
X86442654Y-49066445D01*
X86482945Y-49011493D01*
X86515943Y-48970336D01*
X86530126Y-48955192D01*
X86570281Y-48917810D01*
X86624665Y-48947098D01*
X86659039Y-48968084D01*
X86677846Y-48984378D01*
X86679049Y-48987307D01*
X86691903Y-48999728D01*
X86713896Y-49008977D01*
X86735150Y-49017313D01*
X86767694Y-49033149D01*
X86814322Y-49058033D01*
X86877829Y-49093509D01*
X86961008Y-49141123D01*
X87066653Y-49202422D01*
X87124062Y-49235932D01*
X87191594Y-49276071D01*
X87235885Y-49304659D01*
X87260855Y-49325039D01*
X87270423Y-49340553D01*
X87268508Y-49354546D01*
X87266911Y-49357796D01*
X87251376Y-49378266D01*
X87218136Y-49416665D01*
X87171062Y-49468696D01*
X87114028Y-49530066D01*
X87064700Y-49582090D01*
X86951030Y-49705567D01*
X86862105Y-49812591D01*
X86797134Y-49904240D01*
X86755321Y-49981588D01*
X86741217Y-50020866D01*
X86735392Y-50055249D01*
X86729375Y-50113899D01*
X86723696Y-50190117D01*
X86718884Y-50277202D01*
X86716619Y-50332268D01*
X86713459Y-50427464D01*
X86712069Y-50497062D01*
X86712858Y-50546409D01*
X86716235Y-50580854D01*
X86722608Y-50605743D01*
X86732387Y-50626425D01*
X86740067Y-50639053D01*
X86784421Y-50687726D01*
X86841574Y-50721645D01*
X86901708Y-50736438D01*
X86946773Y-50731086D01*
X86987576Y-50707930D01*
X87038724Y-50666462D01*
X87093042Y-50613912D01*
X87143357Y-50557516D01*
X87182494Y-50504505D01*
X87196905Y-50478889D01*
X87218491Y-50443814D01*
X87257753Y-50390389D01*
X87311102Y-50322789D01*
X87374952Y-50245190D01*
X87445715Y-50161768D01*
X87519804Y-50076698D01*
X87593632Y-49994155D01*
X87663611Y-49918316D01*
X87726155Y-49853356D01*
X87775260Y-49805669D01*
X87829779Y-49758032D01*
X87875642Y-49722908D01*
X87907811Y-49703949D01*
X87918489Y-49701864D01*
X87934853Y-49710274D01*
X87975671Y-49732846D01*
X88038586Y-49768224D01*
X88121244Y-49815054D01*
X88221289Y-49871981D01*
X88336366Y-49937649D01*
X88464119Y-50010703D01*
X88602194Y-50089788D01*
X88748234Y-50173548D01*
X88899884Y-50260629D01*
X89054790Y-50349676D01*
X89210595Y-50439332D01*
X89364944Y-50528243D01*
X89515482Y-50615054D01*
X89659854Y-50698409D01*
X89795704Y-50776954D01*
X89920677Y-50849333D01*
X90032417Y-50914190D01*
X90128570Y-50970171D01*
X90206779Y-51015920D01*
X90264689Y-51050083D01*
X90299946Y-51071304D01*
X90310165Y-51077963D01*
X90296402Y-51079280D01*
X90253104Y-51080559D01*
X90181714Y-51081796D01*
X90083673Y-51082983D01*
X89960422Y-51084115D01*
X89813403Y-51085186D01*
X89644057Y-51086189D01*
X89453826Y-51087119D01*
X89244151Y-51087968D01*
X89016473Y-51088732D01*
X88772235Y-51089403D01*
X88512877Y-51089976D01*
X88239841Y-51090444D01*
X87954568Y-51090802D01*
X87658500Y-51091042D01*
X87353079Y-51091159D01*
X87224924Y-51091171D01*
X84124970Y-51091171D01*
X84346053Y-50707847D01*
X84392856Y-50626680D01*
X84453102Y-50522166D01*
X84524778Y-50397801D01*
X84605869Y-50257082D01*
X84694362Y-50103503D01*
X84788240Y-49940562D01*
X84885491Y-49771754D01*
X84984100Y-49600575D01*
X85082053Y-49430521D01*
X85106825Y-49387512D01*
X85197152Y-49230857D01*
X85283289Y-49081803D01*
X85363942Y-48942568D01*
X85437816Y-48815371D01*
X85503617Y-48702432D01*
X85560050Y-48605968D01*
X85605821Y-48528200D01*
X85639635Y-48471346D01*
X85660198Y-48437625D01*
X85665953Y-48429040D01*
X85678058Y-48422189D01*
X85698094Y-48424158D01*
G36*
X89363528Y-48367619D02*
G01*
X89374908Y-48386693D01*
X89400488Y-48430421D01*
X89439002Y-48496619D01*
X89489186Y-48583102D01*
X89549775Y-48687685D01*
X89619503Y-48808183D01*
X89697107Y-48942412D01*
X89781320Y-49088187D01*
X89870879Y-49243323D01*
X89962998Y-49403000D01*
X90057076Y-49566117D01*
X90147402Y-49722709D01*
X90232665Y-49870506D01*
X90311557Y-50007240D01*
X90382769Y-50130642D01*
X90444991Y-50238444D01*
X90496913Y-50328377D01*
X90537228Y-50398173D01*
X90564624Y-50445564D01*
X90577507Y-50467786D01*
X90598507Y-50505330D01*
X90609925Y-50528831D01*
X90610551Y-50532920D01*
X90596636Y-50525242D01*
X90557941Y-50503203D01*
X90496487Y-50467971D01*
X90414298Y-50420711D01*
X90313396Y-50362589D01*
X90195805Y-50294771D01*
X90063546Y-50218424D01*
X89918642Y-50134714D01*
X89763117Y-50044806D01*
X89598992Y-49949867D01*
X89536549Y-49913732D01*
X89369487Y-49817083D01*
X89210074Y-49724938D01*
X89060355Y-49638475D01*
X88922376Y-49558871D01*
X88798185Y-49487305D01*
X88689827Y-49424955D01*
X88599348Y-49372998D01*
X88528796Y-49332613D01*
X88480215Y-49304978D01*
X88455654Y-49291272D01*
X88453085Y-49289974D01*
X88460569Y-49278220D01*
X88486614Y-49246795D01*
X88528559Y-49198594D01*
X88583746Y-49136510D01*
X88649517Y-49063439D01*
X88723212Y-48982276D01*
X88802173Y-48895916D01*
X88883740Y-48807253D01*
X88965254Y-48719182D01*
X89044057Y-48634599D01*
X89117490Y-48556397D01*
X89182893Y-48487472D01*
X89237608Y-48430719D01*
X89278977Y-48389032D01*
X89293164Y-48375363D01*
X89340180Y-48331201D01*
X89363528Y-48367619D01*
G37*
X89363528Y-48367619D02*
X89374908Y-48386693D01*
X89400488Y-48430421D01*
X89439002Y-48496619D01*
X89489186Y-48583102D01*
X89549775Y-48687685D01*
X89619503Y-48808183D01*
X89697107Y-48942412D01*
X89781320Y-49088187D01*
X89870879Y-49243323D01*
X89962998Y-49403000D01*
X90057076Y-49566117D01*
X90147402Y-49722709D01*
X90232665Y-49870506D01*
X90311557Y-50007240D01*
X90382769Y-50130642D01*
X90444991Y-50238444D01*
X90496913Y-50328377D01*
X90537228Y-50398173D01*
X90564624Y-50445564D01*
X90577507Y-50467786D01*
X90598507Y-50505330D01*
X90609925Y-50528831D01*
X90610551Y-50532920D01*
X90596636Y-50525242D01*
X90557941Y-50503203D01*
X90496487Y-50467971D01*
X90414298Y-50420711D01*
X90313396Y-50362589D01*
X90195805Y-50294771D01*
X90063546Y-50218424D01*
X89918642Y-50134714D01*
X89763117Y-50044806D01*
X89598992Y-49949867D01*
X89536549Y-49913732D01*
X89369487Y-49817083D01*
X89210074Y-49724938D01*
X89060355Y-49638475D01*
X88922376Y-49558871D01*
X88798185Y-49487305D01*
X88689827Y-49424955D01*
X88599348Y-49372998D01*
X88528796Y-49332613D01*
X88480215Y-49304978D01*
X88455654Y-49291272D01*
X88453085Y-49289974D01*
X88460569Y-49278220D01*
X88486614Y-49246795D01*
X88528559Y-49198594D01*
X88583746Y-49136510D01*
X88649517Y-49063439D01*
X88723212Y-48982276D01*
X88802173Y-48895916D01*
X88883740Y-48807253D01*
X88965254Y-48719182D01*
X89044057Y-48634599D01*
X89117490Y-48556397D01*
X89182893Y-48487472D01*
X89237608Y-48430719D01*
X89278977Y-48389032D01*
X89293164Y-48375363D01*
X89340180Y-48331201D01*
X89363528Y-48367619D01*
G36*
X87540043Y-45218835D02*
G01*
X87563065Y-45256245D01*
X87598534Y-45315514D01*
X87644996Y-45394118D01*
X87700996Y-45489538D01*
X87765081Y-45599250D01*
X87835796Y-45720734D01*
X87911687Y-45851468D01*
X87991299Y-45988930D01*
X88073178Y-46130598D01*
X88155870Y-46273951D01*
X88237921Y-46416467D01*
X88317876Y-46555624D01*
X88394281Y-46688901D01*
X88465682Y-46813776D01*
X88530624Y-46927727D01*
X88587653Y-47028233D01*
X88635315Y-47112772D01*
X88672155Y-47178822D01*
X88696720Y-47223862D01*
X88707554Y-47245370D01*
X88707951Y-47246714D01*
X88694501Y-47264965D01*
X88657114Y-47292882D01*
X88600235Y-47327725D01*
X88528312Y-47366754D01*
X88453015Y-47403843D01*
X88350560Y-47448817D01*
X88242817Y-47489226D01*
X88126073Y-47525969D01*
X87996618Y-47559942D01*
X87850740Y-47592044D01*
X87684726Y-47623173D01*
X87494866Y-47654227D01*
X87298469Y-47683145D01*
X87127834Y-47708800D01*
X86984545Y-47734198D01*
X86865008Y-47760602D01*
X86765630Y-47789273D01*
X86682818Y-47821473D01*
X86612978Y-47858465D01*
X86552518Y-47901512D01*
X86497845Y-47951875D01*
X86480214Y-47970583D01*
X86442000Y-48014139D01*
X86413732Y-48049682D01*
X86400618Y-48070583D01*
X86400268Y-48072297D01*
X86395680Y-48082806D01*
X86379758Y-48082924D01*
X86349266Y-48071254D01*
X86300968Y-48046396D01*
X86231627Y-48006952D01*
X86183439Y-47978587D01*
X86111583Y-47934247D01*
X86055742Y-47896279D01*
X86019667Y-47867416D01*
X86007113Y-47850388D01*
X86007121Y-47850264D01*
X86014906Y-47834037D01*
X86036892Y-47793400D01*
X86071803Y-47730567D01*
X86118363Y-47647752D01*
X86175295Y-47547172D01*
X86241323Y-47431040D01*
X86315172Y-47301571D01*
X86395564Y-47160980D01*
X86481224Y-47011482D01*
X86570876Y-46855292D01*
X86663243Y-46694624D01*
X86757049Y-46531693D01*
X86851018Y-46368713D01*
X86943874Y-46207900D01*
X87034340Y-46051468D01*
X87121141Y-45901633D01*
X87203000Y-45760608D01*
X87278641Y-45630609D01*
X87346787Y-45513849D01*
X87406163Y-45412545D01*
X87455493Y-45328911D01*
X87493500Y-45265162D01*
X87518907Y-45223511D01*
X87530440Y-45206175D01*
X87530923Y-45205805D01*
X87540043Y-45218835D01*
G37*
X87540043Y-45218835D02*
X87563065Y-45256245D01*
X87598534Y-45315514D01*
X87644996Y-45394118D01*
X87700996Y-45489538D01*
X87765081Y-45599250D01*
X87835796Y-45720734D01*
X87911687Y-45851468D01*
X87991299Y-45988930D01*
X88073178Y-46130598D01*
X88155870Y-46273951D01*
X88237921Y-46416467D01*
X88317876Y-46555624D01*
X88394281Y-46688901D01*
X88465682Y-46813776D01*
X88530624Y-46927727D01*
X88587653Y-47028233D01*
X88635315Y-47112772D01*
X88672155Y-47178822D01*
X88696720Y-47223862D01*
X88707554Y-47245370D01*
X88707951Y-47246714D01*
X88694501Y-47264965D01*
X88657114Y-47292882D01*
X88600235Y-47327725D01*
X88528312Y-47366754D01*
X88453015Y-47403843D01*
X88350560Y-47448817D01*
X88242817Y-47489226D01*
X88126073Y-47525969D01*
X87996618Y-47559942D01*
X87850740Y-47592044D01*
X87684726Y-47623173D01*
X87494866Y-47654227D01*
X87298469Y-47683145D01*
X87127834Y-47708800D01*
X86984545Y-47734198D01*
X86865008Y-47760602D01*
X86765630Y-47789273D01*
X86682818Y-47821473D01*
X86612978Y-47858465D01*
X86552518Y-47901512D01*
X86497845Y-47951875D01*
X86480214Y-47970583D01*
X86442000Y-48014139D01*
X86413732Y-48049682D01*
X86400618Y-48070583D01*
X86400268Y-48072297D01*
X86395680Y-48082806D01*
X86379758Y-48082924D01*
X86349266Y-48071254D01*
X86300968Y-48046396D01*
X86231627Y-48006952D01*
X86183439Y-47978587D01*
X86111583Y-47934247D01*
X86055742Y-47896279D01*
X86019667Y-47867416D01*
X86007113Y-47850388D01*
X86007121Y-47850264D01*
X86014906Y-47834037D01*
X86036892Y-47793400D01*
X86071803Y-47730567D01*
X86118363Y-47647752D01*
X86175295Y-47547172D01*
X86241323Y-47431040D01*
X86315172Y-47301571D01*
X86395564Y-47160980D01*
X86481224Y-47011482D01*
X86570876Y-46855292D01*
X86663243Y-46694624D01*
X86757049Y-46531693D01*
X86851018Y-46368713D01*
X86943874Y-46207900D01*
X87034340Y-46051468D01*
X87121141Y-45901633D01*
X87203000Y-45760608D01*
X87278641Y-45630609D01*
X87346787Y-45513849D01*
X87406163Y-45412545D01*
X87455493Y-45328911D01*
X87493500Y-45265162D01*
X87518907Y-45223511D01*
X87530440Y-45206175D01*
X87530923Y-45205805D01*
X87540043Y-45218835D01*
D15*
%TO.C,R11*%
X47369000Y-91729779D02*
X47369000Y-91404221D01*
X48389000Y-91729779D02*
X48389000Y-91404221D01*
%TO.C,JP1*%
X87168000Y-113916000D02*
G75*
G02*
X87868000Y-114616000I0J-700000D01*
G01*
X85868000Y-114616000D02*
G75*
G02*
X86568000Y-113916000I700000J0D01*
G01*
X86568000Y-116716000D02*
G75*
G02*
X85868000Y-116016000I0J700000D01*
G01*
X87868000Y-116016000D02*
G75*
G02*
X87168000Y-116716000I-700000J0D01*
G01*
X86568000Y-113916000D02*
X87168000Y-113916000D01*
X85868000Y-116016000D02*
X85868000Y-114616000D01*
X87168000Y-116716000D02*
X86568000Y-116716000D01*
X87868000Y-114616000D02*
X87868000Y-116016000D01*
%TO.C,J7*%
X50987000Y-68012000D02*
X48327000Y-68012000D01*
X50987000Y-70612000D02*
X50987000Y-68012000D01*
X48327000Y-70612000D02*
X48327000Y-68012000D01*
X50987000Y-70612000D02*
X48327000Y-70612000D01*
X50987000Y-71882000D02*
X50987000Y-73212000D01*
X50987000Y-73212000D02*
X49657000Y-73212000D01*
%TO.C,J5*%
X96707000Y-82998000D02*
X94047000Y-82998000D01*
X96707000Y-95758000D02*
X96707000Y-82998000D01*
X94047000Y-95758000D02*
X94047000Y-82998000D01*
X96707000Y-95758000D02*
X94047000Y-95758000D01*
X96707000Y-97028000D02*
X96707000Y-98358000D01*
X96707000Y-98358000D02*
X95377000Y-98358000D01*
%TO.C,D8*%
X47194000Y-94069000D02*
X47194000Y-96554000D01*
X47194000Y-96554000D02*
X48564000Y-96554000D01*
X48564000Y-96554000D02*
X48564000Y-94069000D01*
D14*
%TO.C,G\u002A\u002A\u002A*%
G36*
X73827803Y-73991418D02*
G01*
X73809525Y-74105331D01*
X73770656Y-74250142D01*
X73717815Y-74402490D01*
X73657622Y-74539017D01*
X73635051Y-74580439D01*
X73482332Y-74780084D01*
X73266274Y-74978570D01*
X73007007Y-75160548D01*
X72724660Y-75310663D01*
X72620431Y-75354262D01*
X72465111Y-75416587D01*
X72347399Y-75468202D01*
X72283903Y-75501595D01*
X72277764Y-75509209D01*
X72319227Y-75498805D01*
X72425995Y-75462297D01*
X72584655Y-75404754D01*
X72781795Y-75331248D01*
X73004001Y-75246850D01*
X73237862Y-75156631D01*
X73469964Y-75065662D01*
X73686894Y-74979014D01*
X73776417Y-74942608D01*
X73821801Y-74949434D01*
X73830242Y-75013228D01*
X73807825Y-75118042D01*
X73760632Y-75247925D01*
X73694746Y-75386928D01*
X73616252Y-75519100D01*
X73531232Y-75628491D01*
X73504652Y-75655143D01*
X73368656Y-75769655D01*
X73215000Y-75873541D01*
X73034211Y-75970536D01*
X72816814Y-76064374D01*
X72553337Y-76158788D01*
X72234306Y-76257512D01*
X71850249Y-76364281D01*
X71427790Y-76473720D01*
X71042104Y-76571583D01*
X70732831Y-76651018D01*
X70494127Y-76713645D01*
X70320146Y-76761086D01*
X70205044Y-76794964D01*
X70142975Y-76816900D01*
X70128096Y-76828517D01*
X70139480Y-76831214D01*
X70201614Y-76822326D01*
X70242018Y-76813833D01*
X70950667Y-76813833D01*
X70971833Y-76835000D01*
X70993000Y-76813833D01*
X70971833Y-76792667D01*
X70950667Y-76813833D01*
X70242018Y-76813833D01*
X70333832Y-76794534D01*
X70524424Y-76750794D01*
X70614870Y-76729167D01*
X71331667Y-76729167D01*
X71352833Y-76750333D01*
X71374000Y-76729167D01*
X71352833Y-76708000D01*
X71331667Y-76729167D01*
X70614870Y-76729167D01*
X70761679Y-76694063D01*
X70791156Y-76686833D01*
X71543333Y-76686833D01*
X71564500Y-76708000D01*
X71585667Y-76686833D01*
X71564500Y-76665667D01*
X71543333Y-76686833D01*
X70791156Y-76686833D01*
X71033885Y-76627299D01*
X71329332Y-76553458D01*
X71636309Y-76475496D01*
X71943104Y-76396371D01*
X72238007Y-76319040D01*
X72509306Y-76246459D01*
X72745291Y-76181585D01*
X72934251Y-76127375D01*
X72972271Y-76115987D01*
X73179084Y-76054166D01*
X73357520Y-76002393D01*
X73491622Y-75965182D01*
X73565431Y-75947047D01*
X73573318Y-75946000D01*
X73589041Y-75980873D01*
X73569893Y-76071702D01*
X73565926Y-76083583D01*
X73427805Y-76356440D01*
X73213870Y-76592198D01*
X72923920Y-76791045D01*
X72695968Y-76900022D01*
X72581925Y-76951506D01*
X72518902Y-76988432D01*
X72519808Y-77002544D01*
X72598712Y-76995864D01*
X72730709Y-76976922D01*
X72886021Y-76950798D01*
X73034871Y-76922573D01*
X73147481Y-76897326D01*
X73165346Y-76892410D01*
X73209931Y-76884315D01*
X73216139Y-76908771D01*
X73183018Y-76983060D01*
X73157630Y-77032353D01*
X72990647Y-77278880D01*
X72765529Y-77482136D01*
X72474102Y-77648340D01*
X72213214Y-77750372D01*
X72090502Y-77791555D01*
X72011566Y-77819980D01*
X71982860Y-77836211D01*
X72010834Y-77840813D01*
X72101942Y-77834353D01*
X72262634Y-77817394D01*
X72499364Y-77790503D01*
X72573995Y-77781973D01*
X72821490Y-77753717D01*
X72733136Y-77926906D01*
X72590373Y-78121102D01*
X72381516Y-78289018D01*
X72123601Y-78420440D01*
X71833662Y-78505156D01*
X71744375Y-78519749D01*
X71522167Y-78549500D01*
X71837395Y-78570667D01*
X72152624Y-78591833D01*
X72010737Y-78753077D01*
X71793520Y-78937232D01*
X71514593Y-79070010D01*
X71181747Y-79148395D01*
X70937999Y-79168814D01*
X70864319Y-79173577D01*
X70859163Y-79182616D01*
X70927685Y-79197886D01*
X71075037Y-79221338D01*
X71077667Y-79221731D01*
X71395167Y-79269167D01*
X71302168Y-79362165D01*
X71122538Y-79497050D01*
X70895808Y-79583244D01*
X70659999Y-79622470D01*
X70380803Y-79650167D01*
X70624374Y-79726719D01*
X70748233Y-79772858D01*
X70826700Y-79816284D01*
X70842933Y-79843741D01*
X70792571Y-79886097D01*
X70694476Y-79946020D01*
X70643400Y-79973244D01*
X70536288Y-80019791D01*
X70427345Y-80043775D01*
X70287266Y-80049191D01*
X70132998Y-80042835D01*
X69797118Y-80023391D01*
X70056392Y-80141084D01*
X70187217Y-80206083D01*
X70280403Y-80263093D01*
X70315667Y-80299581D01*
X70276196Y-80347276D01*
X70169176Y-80388500D01*
X70011695Y-80418997D01*
X69820843Y-80434512D01*
X69769599Y-80435554D01*
X69623783Y-80438409D01*
X69550316Y-80446615D01*
X69536896Y-80464066D01*
X69571220Y-80494658D01*
X69574833Y-80497210D01*
X69707183Y-80592186D01*
X69780704Y-80651861D01*
X69807341Y-80687407D01*
X69800629Y-80708482D01*
X69740514Y-80726610D01*
X69622660Y-80736137D01*
X69473560Y-80737019D01*
X69319707Y-80729212D01*
X69187594Y-80712673D01*
X69171726Y-80709528D01*
X69024500Y-80678427D01*
X69191841Y-80852213D01*
X69359183Y-81026000D01*
X68982167Y-81026316D01*
X69109168Y-81103767D01*
X69217452Y-81185330D01*
X69335371Y-81296106D01*
X69370735Y-81334480D01*
X69505301Y-81487742D01*
X69665079Y-81379314D01*
X69760351Y-81304000D01*
X69893845Y-81184565D01*
X70046135Y-81038897D01*
X70165945Y-80918084D01*
X70376695Y-80711551D01*
X70557566Y-80565234D01*
X70726904Y-80469756D01*
X70903052Y-80415741D01*
X71104356Y-80393814D01*
X71195443Y-80391930D01*
X71448937Y-80406357D01*
X71644481Y-80456529D01*
X71804017Y-80550160D01*
X71900503Y-80639786D01*
X72017517Y-80736576D01*
X72142302Y-80772033D01*
X72175670Y-80773408D01*
X72326500Y-80774817D01*
X72232095Y-80853593D01*
X72170978Y-80916021D01*
X72174934Y-80960091D01*
X72196165Y-80980899D01*
X72246186Y-81043545D01*
X72315098Y-81155403D01*
X72370164Y-81257758D01*
X72441297Y-81387816D01*
X72502861Y-81460956D01*
X72578350Y-81498206D01*
X72657765Y-81515159D01*
X72762473Y-81535921D01*
X72795168Y-81556852D01*
X72767767Y-81589252D01*
X72749996Y-81602615D01*
X72647823Y-81646490D01*
X72546857Y-81661000D01*
X72423562Y-81661000D01*
X72554948Y-81810640D01*
X72628747Y-81904333D01*
X72668333Y-81992441D01*
X72684029Y-82107873D01*
X72686333Y-82229496D01*
X72690856Y-82385188D01*
X72711000Y-82487896D01*
X72756625Y-82569105D01*
X72813172Y-82634493D01*
X72896545Y-82743499D01*
X72905976Y-82812123D01*
X72841741Y-82839567D01*
X72744451Y-82832494D01*
X72648208Y-82822957D01*
X72609323Y-82848337D01*
X72602596Y-82923078D01*
X72626841Y-83072464D01*
X72687553Y-83222314D01*
X72770137Y-83345867D01*
X72859997Y-83416357D01*
X72874095Y-83420929D01*
X72964024Y-83458068D01*
X72971635Y-83499088D01*
X72896129Y-83536896D01*
X72887417Y-83539318D01*
X72665493Y-83563178D01*
X72451180Y-83510329D01*
X72235772Y-83377938D01*
X72141528Y-83296677D01*
X71998890Y-83163833D01*
X72027193Y-83361498D01*
X72041260Y-83479955D01*
X72034338Y-83534193D01*
X72000164Y-83543365D01*
X71969879Y-83536773D01*
X71881070Y-83491805D01*
X71783620Y-83413695D01*
X71779521Y-83409642D01*
X71731745Y-83355196D01*
X71689127Y-83286943D01*
X71645924Y-83190702D01*
X71596391Y-83052292D01*
X71534786Y-82857531D01*
X71474199Y-82655833D01*
X71398801Y-82401833D01*
X71372596Y-82655833D01*
X71343994Y-82861668D01*
X71307330Y-82990617D01*
X71259934Y-83050293D01*
X71231887Y-83056548D01*
X71187858Y-83018433D01*
X71127249Y-82919258D01*
X71058604Y-82778813D01*
X70990469Y-82616890D01*
X70931390Y-82453280D01*
X70904657Y-82359500D01*
X71331667Y-82359500D01*
X71352833Y-82380667D01*
X71374000Y-82359500D01*
X71352833Y-82338333D01*
X71331667Y-82359500D01*
X70904657Y-82359500D01*
X70889912Y-82307775D01*
X70876595Y-82233692D01*
X70856138Y-82113698D01*
X70829283Y-82072068D01*
X70809394Y-82081672D01*
X70727563Y-82118647D01*
X70609835Y-82124011D01*
X70484057Y-82103225D01*
X70378073Y-82061750D01*
X70319728Y-82005047D01*
X70315667Y-81984839D01*
X70352590Y-81938451D01*
X70423264Y-81925583D01*
X70513949Y-81916905D01*
X70555348Y-81901096D01*
X70568843Y-81835451D01*
X70539067Y-81739364D01*
X70479594Y-81645136D01*
X70427872Y-81597782D01*
X70298553Y-81561924D01*
X70131986Y-81600125D01*
X69927005Y-81712693D01*
X69884840Y-81741652D01*
X69758344Y-81846050D01*
X69673752Y-81961018D01*
X69621025Y-82108459D01*
X69590129Y-82310275D01*
X69582315Y-82401833D01*
X69557826Y-82606527D01*
X69517716Y-82818109D01*
X69470650Y-82990900D01*
X69470462Y-82991442D01*
X69383715Y-83242385D01*
X69479274Y-83345190D01*
X69572688Y-83431822D01*
X69698125Y-83531736D01*
X69754750Y-83572531D01*
X69866038Y-83659398D01*
X69919607Y-83735220D01*
X69933646Y-83826445D01*
X69933632Y-83832617D01*
X69921226Y-83990298D01*
X69883148Y-84164671D01*
X69814566Y-84371043D01*
X69710651Y-84624725D01*
X69620325Y-84825593D01*
X69468656Y-85184951D01*
X69371423Y-85490334D01*
X69326818Y-85751055D01*
X69333036Y-85976425D01*
X69368468Y-86123505D01*
X69403191Y-86242355D01*
X69416681Y-86325163D01*
X69412790Y-86345654D01*
X69355329Y-86363202D01*
X69238076Y-86376807D01*
X69085843Y-86385792D01*
X68923441Y-86389481D01*
X68775682Y-86387198D01*
X68667377Y-86378267D01*
X68627336Y-86367060D01*
X68591336Y-86296870D01*
X68595117Y-86186214D01*
X68632670Y-86065844D01*
X68697988Y-85966511D01*
X68707344Y-85957522D01*
X68832467Y-85809588D01*
X68960209Y-85598359D01*
X69081844Y-85344441D01*
X69188644Y-85068442D01*
X69271881Y-84790968D01*
X69322829Y-84532627D01*
X69327548Y-84493073D01*
X69326986Y-84244442D01*
X69274353Y-84027727D01*
X69176143Y-83856359D01*
X69038850Y-83743767D01*
X68949901Y-83711950D01*
X68650045Y-83610728D01*
X68352144Y-83445772D01*
X68083118Y-83234254D01*
X67912309Y-83050112D01*
X67789202Y-82894057D01*
X67654379Y-82976048D01*
X67515620Y-83098121D01*
X67456962Y-83241734D01*
X67479229Y-83398697D01*
X67583247Y-83560819D01*
X67594250Y-83572834D01*
X67699656Y-83685501D01*
X67516425Y-83884283D01*
X67411381Y-83983426D01*
X67254950Y-84112628D01*
X67067011Y-84256235D01*
X66867442Y-84398594D01*
X66836304Y-84419841D01*
X66542838Y-84628808D01*
X66320157Y-84812215D01*
X66161357Y-84978166D01*
X66059536Y-85134767D01*
X66007791Y-85290120D01*
X65997667Y-85404508D01*
X65983843Y-85475889D01*
X65927925Y-85521867D01*
X65818561Y-85558298D01*
X65662503Y-85583726D01*
X65498979Y-85584708D01*
X65357911Y-85563280D01*
X65269221Y-85521480D01*
X65268591Y-85520858D01*
X65241744Y-85439276D01*
X65267992Y-85321755D01*
X65338852Y-85190463D01*
X65440007Y-85072944D01*
X65506011Y-85012315D01*
X65575016Y-84951617D01*
X65657957Y-84881953D01*
X65765765Y-84794427D01*
X65909376Y-84680143D01*
X66099723Y-84530205D01*
X66302906Y-84370840D01*
X66532482Y-84178679D01*
X66702610Y-84009682D01*
X66808243Y-83869504D01*
X66844333Y-83764225D01*
X66816608Y-83707435D01*
X66741314Y-83605280D01*
X66630273Y-83472738D01*
X66508490Y-83338731D01*
X66318764Y-83124042D01*
X66191032Y-82943590D01*
X66118361Y-82782452D01*
X66093814Y-82625701D01*
X66107271Y-82475289D01*
X66146514Y-82314305D01*
X66208740Y-82184671D01*
X66312566Y-82051942D01*
X66368773Y-81991463D01*
X66381601Y-81978500D01*
X67140667Y-81978500D01*
X67161833Y-81999667D01*
X67183000Y-81978500D01*
X67161833Y-81957333D01*
X67140667Y-81978500D01*
X66381601Y-81978500D01*
X66431296Y-81928283D01*
X66471026Y-81883204D01*
X66478479Y-81850786D01*
X66444170Y-81825583D01*
X66358618Y-81802153D01*
X66212338Y-81775052D01*
X65995846Y-81738839D01*
X65900746Y-81722836D01*
X65558276Y-81646194D01*
X65273304Y-81543777D01*
X65054140Y-81419439D01*
X64909092Y-81277035D01*
X64895588Y-81256549D01*
X64837473Y-81165409D01*
X64801551Y-81114514D01*
X64797326Y-81110667D01*
X64755633Y-81120385D01*
X64649565Y-81146609D01*
X64496792Y-81184942D01*
X64372017Y-81216500D01*
X64182681Y-81261771D01*
X64013085Y-81297374D01*
X63887084Y-81318543D01*
X63842366Y-81322333D01*
X63741127Y-81350586D01*
X63657069Y-81445933D01*
X63649877Y-81457837D01*
X63590901Y-81543949D01*
X63491074Y-81675656D01*
X63364808Y-81834408D01*
X63238583Y-81987321D01*
X63083629Y-82180303D01*
X62974014Y-82335566D01*
X62915569Y-82444433D01*
X62907333Y-82480256D01*
X62945308Y-82599711D01*
X63043345Y-82686489D01*
X63175250Y-82719333D01*
X63245925Y-82730494D01*
X63280952Y-82771869D01*
X63280392Y-82855292D01*
X63244304Y-82992599D01*
X63177595Y-83182578D01*
X63115823Y-83338730D01*
X63066858Y-83429818D01*
X63019443Y-83471952D01*
X62968811Y-83481333D01*
X62864806Y-83440859D01*
X62763686Y-83326570D01*
X62673424Y-83149162D01*
X62631228Y-83028336D01*
X62583554Y-82841262D01*
X62566312Y-82674735D01*
X62583774Y-82513058D01*
X62640211Y-82340529D01*
X62739893Y-82141451D01*
X62887093Y-81900123D01*
X62974442Y-81766833D01*
X63096707Y-81575687D01*
X63205181Y-81392775D01*
X63288588Y-81238009D01*
X63335652Y-81131302D01*
X63337369Y-81125903D01*
X63364576Y-81043162D01*
X63396866Y-80979948D01*
X63413563Y-80962500D01*
X68664667Y-80962500D01*
X68685833Y-80983667D01*
X68707000Y-80962500D01*
X68685833Y-80941333D01*
X68664667Y-80962500D01*
X63413563Y-80962500D01*
X63447519Y-80927019D01*
X63529812Y-80875130D01*
X63657025Y-80815039D01*
X63842437Y-80737504D01*
X63969447Y-80685932D01*
X64016739Y-80666167D01*
X68961000Y-80666167D01*
X68982167Y-80687333D01*
X69003333Y-80666167D01*
X68982167Y-80645000D01*
X68961000Y-80666167D01*
X64016739Y-80666167D01*
X64151590Y-80609808D01*
X64306650Y-80540640D01*
X64416367Y-80486847D01*
X64460033Y-80459792D01*
X64488720Y-80390586D01*
X64485605Y-80296498D01*
X64457105Y-80213946D01*
X64410623Y-80179333D01*
X64390968Y-80168979D01*
X67410769Y-80168979D01*
X67415833Y-80206032D01*
X67475372Y-80232700D01*
X67583293Y-80283358D01*
X67669833Y-80324737D01*
X67788337Y-80381231D01*
X67871206Y-80419672D01*
X67895555Y-80429994D01*
X67877339Y-80402947D01*
X67816057Y-80328864D01*
X67726221Y-80225206D01*
X67667151Y-80158167D01*
X68707000Y-80158167D01*
X68728167Y-80179333D01*
X68749333Y-80158167D01*
X68728167Y-80137000D01*
X68707000Y-80158167D01*
X67667151Y-80158167D01*
X67542833Y-80017079D01*
X67458167Y-80103162D01*
X67410769Y-80168979D01*
X64390968Y-80168979D01*
X64350687Y-80147761D01*
X64256294Y-80063878D01*
X64185196Y-79988833D01*
X69723000Y-79988833D01*
X69744167Y-80010000D01*
X69765333Y-79988833D01*
X69744167Y-79967667D01*
X69723000Y-79988833D01*
X64185196Y-79988833D01*
X64142664Y-79943940D01*
X64041539Y-79823825D01*
X67794730Y-79823825D01*
X67818000Y-79861833D01*
X67881743Y-79915195D01*
X67913033Y-79925333D01*
X67925937Y-79899842D01*
X67902667Y-79861833D01*
X67838924Y-79808472D01*
X67807633Y-79798333D01*
X67794730Y-79823825D01*
X64041539Y-79823825D01*
X64025014Y-79804197D01*
X63918564Y-79660904D01*
X63901542Y-79635649D01*
X63877570Y-79600778D01*
X70287444Y-79600778D01*
X70293255Y-79625945D01*
X70315667Y-79629000D01*
X70350512Y-79613511D01*
X70343889Y-79600778D01*
X70293649Y-79595711D01*
X70287444Y-79600778D01*
X63877570Y-79600778D01*
X63850523Y-79561437D01*
X63801654Y-79508212D01*
X63739336Y-79470368D01*
X63647972Y-79442298D01*
X63511965Y-79418395D01*
X63315717Y-79393054D01*
X63182500Y-79377188D01*
X62994079Y-79349528D01*
X62813830Y-79314106D01*
X62678067Y-79278152D01*
X62668566Y-79274887D01*
X62553718Y-79239330D01*
X62474973Y-79240503D01*
X62389841Y-79283645D01*
X62342662Y-79315064D01*
X62249987Y-79382245D01*
X62215903Y-79434295D01*
X62228843Y-79503477D01*
X62253346Y-79564186D01*
X62293283Y-79665762D01*
X62313899Y-79729902D01*
X62314667Y-79735634D01*
X62276215Y-79776881D01*
X62175939Y-79818242D01*
X62036454Y-79853644D01*
X61880374Y-79877016D01*
X61765693Y-79883000D01*
X61510333Y-79883000D01*
X61510333Y-79731855D01*
X61517505Y-79653878D01*
X61546811Y-79581504D01*
X61609936Y-79497881D01*
X61718564Y-79386152D01*
X61811163Y-79297939D01*
X61962701Y-79161831D01*
X62092953Y-79067179D01*
X62221704Y-79008550D01*
X62368738Y-78980510D01*
X62553841Y-78977628D01*
X62796798Y-78994472D01*
X62886167Y-79002774D01*
X63113859Y-79018448D01*
X63354512Y-79025161D01*
X63567157Y-79022058D01*
X63629809Y-79018307D01*
X63796961Y-79007580D01*
X63909559Y-79011330D01*
X63997294Y-79035628D01*
X64089860Y-79086543D01*
X64147683Y-79124177D01*
X64287672Y-79223492D01*
X64420390Y-79328145D01*
X64472288Y-79373713D01*
X64599329Y-79492386D01*
X64733994Y-79353833D01*
X66759667Y-79353833D01*
X66780833Y-79375000D01*
X66802000Y-79353833D01*
X66780833Y-79332667D01*
X66759667Y-79353833D01*
X64733994Y-79353833D01*
X64779915Y-79306587D01*
X64844655Y-79226833D01*
X66802000Y-79226833D01*
X66823167Y-79248000D01*
X66844333Y-79226833D01*
X66823167Y-79205667D01*
X66802000Y-79226833D01*
X64844655Y-79226833D01*
X64947746Y-79099833D01*
X66844333Y-79099833D01*
X66865500Y-79121000D01*
X66886667Y-79099833D01*
X66865500Y-79078667D01*
X66844333Y-79099833D01*
X64947746Y-79099833D01*
X65013893Y-79018347D01*
X65216465Y-78675001D01*
X65371279Y-78304759D01*
X65385053Y-78262457D01*
X65444993Y-78067281D01*
X65476829Y-77943877D01*
X65480160Y-77884014D01*
X65454586Y-77879459D01*
X65399708Y-77921979D01*
X65369871Y-77949931D01*
X65214779Y-78048553D01*
X65096405Y-78070480D01*
X65002088Y-78081826D01*
X64961528Y-78102679D01*
X64962627Y-78108442D01*
X64954747Y-78159709D01*
X64914713Y-78262295D01*
X64855093Y-78386230D01*
X64788313Y-78529340D01*
X64742178Y-78655729D01*
X64727667Y-78728249D01*
X64714663Y-78793839D01*
X64659524Y-78820601D01*
X64579500Y-78824667D01*
X64468013Y-78806212D01*
X64432576Y-78751862D01*
X64473287Y-78663132D01*
X64562810Y-78566484D01*
X64633968Y-78489026D01*
X64646521Y-78447672D01*
X64633689Y-78443667D01*
X64565227Y-78472441D01*
X64480451Y-78542422D01*
X64473667Y-78549500D01*
X64350404Y-78636935D01*
X64227093Y-78645161D01*
X64117303Y-78574500D01*
X64068633Y-78511930D01*
X64080656Y-78475099D01*
X64121325Y-78448788D01*
X64169098Y-78412721D01*
X64153578Y-78404078D01*
X64091857Y-78423702D01*
X64047550Y-78445156D01*
X63994587Y-78466947D01*
X63972701Y-78453155D01*
X63983822Y-78393980D01*
X64029881Y-78279625D01*
X64112807Y-78100291D01*
X64117361Y-78090695D01*
X64216912Y-77851011D01*
X64263852Y-77658078D01*
X64269055Y-77578620D01*
X64276887Y-77458067D01*
X64296667Y-77377125D01*
X64307861Y-77361986D01*
X64345694Y-77308506D01*
X64317528Y-77264693D01*
X64284656Y-77258333D01*
X64217283Y-77224721D01*
X64177333Y-77173667D01*
X64114452Y-77099908D01*
X64056252Y-77104847D01*
X64020390Y-77173190D01*
X63986617Y-77232121D01*
X63948718Y-77220145D01*
X63924967Y-77148006D01*
X63923333Y-77116135D01*
X63930116Y-77091498D01*
X64431333Y-77091498D01*
X64444937Y-77129962D01*
X64476155Y-77096407D01*
X64489819Y-77065634D01*
X64492778Y-77021935D01*
X64473182Y-77025800D01*
X64432838Y-77080000D01*
X64431333Y-77091498D01*
X63930116Y-77091498D01*
X63956335Y-76996275D01*
X64052918Y-76931142D01*
X64143467Y-76919667D01*
X64235083Y-76903997D01*
X64259737Y-76867147D01*
X64209530Y-76824358D01*
X64195817Y-76818661D01*
X64150438Y-76779332D01*
X64169228Y-76742036D01*
X64234928Y-76732011D01*
X64252602Y-76735609D01*
X64304473Y-76730153D01*
X64344665Y-76670900D01*
X64379993Y-76560072D01*
X64423730Y-76443926D01*
X64468361Y-76395426D01*
X64503314Y-76418456D01*
X64517909Y-76509415D01*
X64523727Y-76561533D01*
X64543904Y-76544713D01*
X64577971Y-76475167D01*
X64617890Y-76397921D01*
X64637971Y-76393945D01*
X64645569Y-76432833D01*
X64656896Y-76449653D01*
X64674649Y-76394550D01*
X64683530Y-76348167D01*
X64712045Y-76178833D01*
X64762189Y-76298006D01*
X64795204Y-76420270D01*
X64811852Y-76567672D01*
X64812333Y-76593163D01*
X64812333Y-76769148D01*
X64991904Y-76589577D01*
X64893944Y-76415279D01*
X64795983Y-76240982D01*
X64941742Y-76116378D01*
X65055066Y-76025960D01*
X65115557Y-75996308D01*
X65128670Y-76026783D01*
X65107619Y-76096922D01*
X65077266Y-76181981D01*
X65066333Y-76221641D01*
X65101612Y-76222414D01*
X65190403Y-76201098D01*
X65307138Y-76165847D01*
X65426249Y-76124819D01*
X65522169Y-76086169D01*
X65564773Y-76062648D01*
X65627119Y-76036838D01*
X65652859Y-76072187D01*
X65631106Y-76149187D01*
X65621908Y-76165005D01*
X65592043Y-76220603D01*
X65608687Y-76239616D01*
X65687501Y-76230466D01*
X65729344Y-76222791D01*
X65847319Y-76193132D01*
X65931199Y-76158670D01*
X65940633Y-76152111D01*
X65990094Y-76136497D01*
X66010338Y-76175690D01*
X65997011Y-76243561D01*
X65964477Y-76295181D01*
X65932482Y-76336634D01*
X65943382Y-76349501D01*
X66010896Y-76334841D01*
X66107585Y-76306222D01*
X66325532Y-76255494D01*
X66496265Y-76247672D01*
X66608646Y-76282848D01*
X66629506Y-76302025D01*
X66649612Y-76347361D01*
X66604351Y-76376350D01*
X66554359Y-76389103D01*
X66429671Y-76416489D01*
X66529552Y-76516371D01*
X66639892Y-76590009D01*
X66715717Y-76593689D01*
X66785944Y-76595688D01*
X66796950Y-76636879D01*
X66745178Y-76692654D01*
X66731243Y-76701057D01*
X66693636Y-76733016D01*
X66718010Y-76766851D01*
X66787243Y-76806202D01*
X66918231Y-76888700D01*
X66989676Y-76965819D01*
X66993402Y-77027162D01*
X66974729Y-77044568D01*
X66946065Y-77084028D01*
X66968156Y-77152831D01*
X66995745Y-77200091D01*
X67108644Y-77358582D01*
X67222465Y-77478876D01*
X67321685Y-77545871D01*
X67360253Y-77554666D01*
X67424622Y-77574017D01*
X67437000Y-77597000D01*
X67401083Y-77630541D01*
X67341750Y-77640620D01*
X67278679Y-77646450D01*
X67293594Y-77668703D01*
X67317292Y-77683216D01*
X67403729Y-77764546D01*
X67487727Y-77890016D01*
X67547723Y-78022709D01*
X67564000Y-78105595D01*
X67560997Y-78166240D01*
X67540353Y-78170683D01*
X67484613Y-78116303D01*
X67460188Y-78090015D01*
X67373300Y-78005322D01*
X67329315Y-77982368D01*
X67333006Y-78022294D01*
X67353292Y-78064459D01*
X67381162Y-78164725D01*
X67387479Y-78294111D01*
X67386532Y-78307875D01*
X67373500Y-78464833D01*
X67301111Y-78337833D01*
X67252022Y-78263548D01*
X67229751Y-78263884D01*
X67227028Y-78287700D01*
X67262001Y-78430827D01*
X67368627Y-78596808D01*
X67427728Y-78664666D01*
X67493506Y-78742187D01*
X67502694Y-78783081D01*
X67464562Y-78806904D01*
X67380395Y-78804894D01*
X67288506Y-78764845D01*
X67214549Y-78720812D01*
X67187382Y-78726904D01*
X67184346Y-78770774D01*
X67210159Y-78863318D01*
X67247846Y-78928008D01*
X67296757Y-79013992D01*
X67310000Y-79065591D01*
X67277857Y-79110798D01*
X67203621Y-79117061D01*
X67120582Y-79083984D01*
X67100784Y-79068083D01*
X67082445Y-79064842D01*
X67104868Y-79120389D01*
X67121842Y-79151447D01*
X67168252Y-79261023D01*
X67160745Y-79321871D01*
X67103386Y-79324473D01*
X67057839Y-79301306D01*
X66991090Y-79274231D01*
X66956540Y-79310238D01*
X66955260Y-79313492D01*
X66948136Y-79407121D01*
X66956024Y-79438500D01*
X66950931Y-79487214D01*
X66876022Y-79501994D01*
X66873557Y-79502000D01*
X66784578Y-79486650D01*
X66745203Y-79458608D01*
X66731456Y-79448030D01*
X66733611Y-79466167D01*
X66782334Y-79540387D01*
X66881564Y-79559316D01*
X67021187Y-79526767D01*
X67028812Y-79523167D01*
X69426667Y-79523167D01*
X69447833Y-79544333D01*
X69469000Y-79523167D01*
X69447833Y-79502000D01*
X69426667Y-79523167D01*
X67028812Y-79523167D01*
X67118479Y-79480833D01*
X69299667Y-79480833D01*
X69320833Y-79502000D01*
X69342000Y-79480833D01*
X69320833Y-79459667D01*
X69299667Y-79480833D01*
X67118479Y-79480833D01*
X67191086Y-79446554D01*
X67203423Y-79438500D01*
X69215000Y-79438500D01*
X69236167Y-79459667D01*
X69257333Y-79438500D01*
X69236167Y-79417333D01*
X69215000Y-79438500D01*
X67203423Y-79438500D01*
X67268274Y-79396167D01*
X69088000Y-79396167D01*
X69109167Y-79417333D01*
X69130333Y-79396167D01*
X69109167Y-79375000D01*
X69088000Y-79396167D01*
X67268274Y-79396167D01*
X67343935Y-79346778D01*
X68975111Y-79346778D01*
X68980922Y-79371945D01*
X69003333Y-79375000D01*
X69038178Y-79359511D01*
X69031555Y-79346778D01*
X68981316Y-79341711D01*
X68975111Y-79346778D01*
X67343935Y-79346778D01*
X67381146Y-79322488D01*
X67403147Y-79304444D01*
X68848111Y-79304444D01*
X68853922Y-79329611D01*
X68876333Y-79332667D01*
X68911178Y-79317177D01*
X68904555Y-79304444D01*
X68854316Y-79299378D01*
X68848111Y-79304444D01*
X67403147Y-79304444D01*
X67446163Y-79269167D01*
X68749333Y-79269167D01*
X68770500Y-79290333D01*
X68791667Y-79269167D01*
X68770500Y-79248000D01*
X68749333Y-79269167D01*
X67446163Y-79269167D01*
X67497784Y-79226833D01*
X68622333Y-79226833D01*
X68643500Y-79248000D01*
X68664667Y-79226833D01*
X68643500Y-79205667D01*
X68622333Y-79226833D01*
X67497784Y-79226833D01*
X67581250Y-79158383D01*
X67602944Y-79138510D01*
X67755268Y-78972833D01*
X68664667Y-78972833D01*
X68685833Y-78994000D01*
X68707000Y-78972833D01*
X68685833Y-78951667D01*
X68664667Y-78972833D01*
X67755268Y-78972833D01*
X67797311Y-78927105D01*
X67837533Y-78863740D01*
X68685833Y-78863740D01*
X68693468Y-78883992D01*
X68762530Y-78906777D01*
X68870114Y-78927109D01*
X68993315Y-78940007D01*
X69045667Y-78942030D01*
X69069080Y-78934587D01*
X69020275Y-78913771D01*
X68939833Y-78891699D01*
X68811002Y-78866354D01*
X68714805Y-78858653D01*
X68685833Y-78863740D01*
X67837533Y-78863740D01*
X67933996Y-78711778D01*
X70202778Y-78711778D01*
X70208589Y-78736945D01*
X70231000Y-78740000D01*
X70265845Y-78724511D01*
X70259222Y-78711778D01*
X70208982Y-78706711D01*
X70202778Y-78711778D01*
X67933996Y-78711778D01*
X67935079Y-78710072D01*
X67969826Y-78612193D01*
X68707000Y-78612193D01*
X68743937Y-78641855D01*
X68833598Y-78655267D01*
X68841055Y-78655333D01*
X68927528Y-78651244D01*
X68958429Y-78641283D01*
X68957472Y-78640122D01*
X68893893Y-78611119D01*
X68806572Y-78594866D01*
X68732327Y-78595466D01*
X68707000Y-78612193D01*
X67969826Y-78612193D01*
X68007522Y-78506010D01*
X69003132Y-78506010D01*
X69046352Y-78512082D01*
X69155254Y-78514748D01*
X69172667Y-78514783D01*
X69288969Y-78512616D01*
X69340754Y-78506898D01*
X69318531Y-78498807D01*
X69310250Y-78497709D01*
X69161807Y-78490704D01*
X69035083Y-78497709D01*
X69003132Y-78506010D01*
X68007522Y-78506010D01*
X68009210Y-78501256D01*
X68015090Y-78327910D01*
X67990609Y-78253167D01*
X68664667Y-78253167D01*
X68685833Y-78274333D01*
X68707000Y-78253167D01*
X68685833Y-78232000D01*
X68664667Y-78253167D01*
X67990609Y-78253167D01*
X67981268Y-78224651D01*
X67979955Y-78221879D01*
X68894694Y-78221879D01*
X68936305Y-78228658D01*
X68991212Y-78220874D01*
X68991868Y-78206423D01*
X68935209Y-78196318D01*
X68910729Y-78203081D01*
X68894694Y-78221879D01*
X67979955Y-78221879D01*
X67958723Y-78177081D01*
X69410765Y-78177081D01*
X69469000Y-78182982D01*
X69529098Y-78176330D01*
X69521917Y-78161630D01*
X69435245Y-78156039D01*
X69416083Y-78161630D01*
X69410765Y-78177081D01*
X67958723Y-78177081D01*
X67912461Y-78079476D01*
X67879924Y-78022059D01*
X68537667Y-78022059D01*
X68576579Y-78033874D01*
X68680051Y-78040314D01*
X68828183Y-78041942D01*
X69001077Y-78039321D01*
X69178832Y-78033014D01*
X69341552Y-78023582D01*
X69469335Y-78011590D01*
X69542284Y-77997598D01*
X69550139Y-77993430D01*
X69517546Y-77987531D01*
X69415803Y-77982674D01*
X69260423Y-77979338D01*
X69066921Y-77978006D01*
X69052722Y-77978000D01*
X68814937Y-77981535D01*
X68647080Y-77991825D01*
X68554669Y-78008399D01*
X68537667Y-78022059D01*
X67879924Y-78022059D01*
X67822060Y-77919951D01*
X67799079Y-77883281D01*
X67711101Y-77742414D01*
X67708565Y-77738111D01*
X68636444Y-77738111D01*
X68642255Y-77763278D01*
X68664667Y-77766333D01*
X68699512Y-77750844D01*
X68692889Y-77738111D01*
X68642649Y-77733044D01*
X68636444Y-77738111D01*
X67708565Y-77738111D01*
X67687773Y-77702833D01*
X68326000Y-77702833D01*
X68347167Y-77724000D01*
X68368333Y-77702833D01*
X68347167Y-77681667D01*
X68326000Y-77702833D01*
X67687773Y-77702833D01*
X67662823Y-77660500D01*
X68580000Y-77660500D01*
X68601167Y-77681667D01*
X68622333Y-77660500D01*
X68601167Y-77639333D01*
X68580000Y-77660500D01*
X67662823Y-77660500D01*
X67644188Y-77628884D01*
X67638633Y-77618167D01*
X68834000Y-77618167D01*
X68855167Y-77639333D01*
X68876333Y-77618167D01*
X68855167Y-77597000D01*
X68834000Y-77618167D01*
X67638633Y-77618167D01*
X67616687Y-77575833D01*
X69088000Y-77575833D01*
X69109167Y-77597000D01*
X69130333Y-77575833D01*
X69109167Y-77554667D01*
X69088000Y-77575833D01*
X67616687Y-77575833D01*
X67609102Y-77561202D01*
X67606333Y-77551764D01*
X67570287Y-77521019D01*
X67489917Y-77492736D01*
X67486324Y-77491167D01*
X70654333Y-77491167D01*
X70675500Y-77512333D01*
X70696667Y-77491167D01*
X70675500Y-77470000D01*
X70654333Y-77491167D01*
X67486324Y-77491167D01*
X67389377Y-77448833D01*
X70950667Y-77448833D01*
X70971833Y-77470000D01*
X70993000Y-77448833D01*
X70971833Y-77427667D01*
X70950667Y-77448833D01*
X67389377Y-77448833D01*
X67367080Y-77439097D01*
X67342802Y-77419869D01*
X68088563Y-77419869D01*
X68089658Y-77421989D01*
X68137047Y-77438400D01*
X68219534Y-77437695D01*
X68296086Y-77423418D01*
X68326000Y-77401565D01*
X68289081Y-77390243D01*
X68199914Y-77385339D01*
X68196501Y-77385333D01*
X68113788Y-77395407D01*
X68088563Y-77419869D01*
X67342802Y-77419869D01*
X67286416Y-77375212D01*
X68386694Y-77375212D01*
X68428305Y-77381991D01*
X68483212Y-77374208D01*
X68483868Y-77359757D01*
X68427209Y-77349651D01*
X68402729Y-77356415D01*
X68386694Y-77375212D01*
X67286416Y-77375212D01*
X67258746Y-77353298D01*
X67229835Y-77314778D01*
X68086111Y-77314778D01*
X68091922Y-77339945D01*
X68114333Y-77343000D01*
X68149178Y-77327511D01*
X68146225Y-77321833D01*
X68622333Y-77321833D01*
X68643500Y-77343000D01*
X68664667Y-77321833D01*
X68643500Y-77300667D01*
X68622333Y-77321833D01*
X68146225Y-77321833D01*
X68142555Y-77314778D01*
X68092316Y-77309711D01*
X68086111Y-77314778D01*
X67229835Y-77314778D01*
X67198062Y-77272444D01*
X68255444Y-77272444D01*
X68261255Y-77297611D01*
X68283667Y-77300667D01*
X68318512Y-77285177D01*
X68315560Y-77279500D01*
X68834000Y-77279500D01*
X68855167Y-77300667D01*
X68876333Y-77279500D01*
X68855167Y-77258333D01*
X68834000Y-77279500D01*
X68315560Y-77279500D01*
X68311889Y-77272444D01*
X68261649Y-77267378D01*
X68255444Y-77272444D01*
X67198062Y-77272444D01*
X67186361Y-77256855D01*
X67182756Y-77237167D01*
X68453000Y-77237167D01*
X68474167Y-77258333D01*
X68495333Y-77237167D01*
X68474167Y-77216000D01*
X68453000Y-77237167D01*
X67182756Y-77237167D01*
X67175003Y-77194833D01*
X68622333Y-77194833D01*
X68643500Y-77216000D01*
X68664667Y-77194833D01*
X68643500Y-77173667D01*
X68622333Y-77194833D01*
X67175003Y-77194833D01*
X67170964Y-77172785D01*
X67170036Y-77152500D01*
X68791667Y-77152500D01*
X68812833Y-77173667D01*
X68834000Y-77152500D01*
X68812833Y-77131333D01*
X68791667Y-77152500D01*
X67170036Y-77152500D01*
X67168098Y-77110167D01*
X68961000Y-77110167D01*
X68982167Y-77131333D01*
X69003333Y-77110167D01*
X71924333Y-77110167D01*
X71945500Y-77131333D01*
X71966667Y-77110167D01*
X71945500Y-77089000D01*
X71924333Y-77110167D01*
X69003333Y-77110167D01*
X68982167Y-77089000D01*
X68961000Y-77110167D01*
X67168098Y-77110167D01*
X67166846Y-77082819D01*
X67161885Y-77067833D01*
X69130333Y-77067833D01*
X69151500Y-77089000D01*
X69172667Y-77067833D01*
X69165612Y-77060778D01*
X72150111Y-77060778D01*
X72155922Y-77085945D01*
X72178333Y-77089000D01*
X72213178Y-77073511D01*
X72206555Y-77060778D01*
X72156316Y-77055711D01*
X72150111Y-77060778D01*
X69165612Y-77060778D01*
X69151500Y-77046667D01*
X69130333Y-77067833D01*
X67161885Y-77067833D01*
X67147868Y-77025500D01*
X68114333Y-77025500D01*
X68135500Y-77046667D01*
X68156667Y-77025500D01*
X69299667Y-77025500D01*
X69320833Y-77046667D01*
X69330955Y-77036545D01*
X72323694Y-77036545D01*
X72365305Y-77043324D01*
X72420212Y-77035541D01*
X72420868Y-77021090D01*
X72364209Y-77010984D01*
X72339729Y-77017748D01*
X72323694Y-77036545D01*
X69330955Y-77036545D01*
X69342000Y-77025500D01*
X69320833Y-77004333D01*
X69299667Y-77025500D01*
X68156667Y-77025500D01*
X68135500Y-77004333D01*
X68114333Y-77025500D01*
X67147868Y-77025500D01*
X67133852Y-76983167D01*
X69469000Y-76983167D01*
X69490167Y-77004333D01*
X69511333Y-76983167D01*
X69490167Y-76962000D01*
X69469000Y-76983167D01*
X67133852Y-76983167D01*
X67129194Y-76969102D01*
X67123806Y-76957912D01*
X67113176Y-76933778D01*
X69652444Y-76933778D01*
X69658255Y-76958945D01*
X69680667Y-76962000D01*
X69715512Y-76946511D01*
X69708889Y-76933778D01*
X69658649Y-76928711D01*
X69652444Y-76933778D01*
X67113176Y-76933778D01*
X67102503Y-76909545D01*
X69783694Y-76909545D01*
X69825305Y-76916324D01*
X69880212Y-76908541D01*
X69880868Y-76894090D01*
X69824209Y-76883984D01*
X69799729Y-76890748D01*
X69783694Y-76909545D01*
X67102503Y-76909545D01*
X67078991Y-76856167D01*
X68580000Y-76856167D01*
X68601167Y-76877333D01*
X68622333Y-76856167D01*
X68876333Y-76856167D01*
X68897500Y-76877333D01*
X68907621Y-76867212D01*
X69953027Y-76867212D01*
X69994639Y-76873991D01*
X70049546Y-76866208D01*
X70050201Y-76851757D01*
X69993543Y-76841651D01*
X69969062Y-76848415D01*
X69953027Y-76867212D01*
X68907621Y-76867212D01*
X68918667Y-76856167D01*
X68897500Y-76835000D01*
X68876333Y-76856167D01*
X68622333Y-76856167D01*
X68601167Y-76835000D01*
X68580000Y-76856167D01*
X67078991Y-76856167D01*
X67069879Y-76835481D01*
X67068259Y-76813833D01*
X68707000Y-76813833D01*
X68728167Y-76835000D01*
X68749333Y-76813833D01*
X69003333Y-76813833D01*
X69024500Y-76835000D01*
X69045667Y-76813833D01*
X69024500Y-76792667D01*
X69003333Y-76813833D01*
X68749333Y-76813833D01*
X68728167Y-76792667D01*
X68707000Y-76813833D01*
X67068259Y-76813833D01*
X67065100Y-76771652D01*
X67065512Y-76771500D01*
X68791667Y-76771500D01*
X68812833Y-76792667D01*
X68834000Y-76771500D01*
X69130333Y-76771500D01*
X69151500Y-76792667D01*
X69172667Y-76771500D01*
X69151500Y-76750333D01*
X69130333Y-76771500D01*
X68834000Y-76771500D01*
X68812833Y-76750333D01*
X68791667Y-76771500D01*
X67065512Y-76771500D01*
X67111895Y-76754416D01*
X67163606Y-76761033D01*
X67250886Y-76758950D01*
X67281231Y-76729167D01*
X68918667Y-76729167D01*
X68939833Y-76750333D01*
X68961000Y-76729167D01*
X69257333Y-76729167D01*
X69278500Y-76750333D01*
X69299667Y-76729167D01*
X69278500Y-76708000D01*
X69257333Y-76729167D01*
X68961000Y-76729167D01*
X68939833Y-76708000D01*
X68918667Y-76729167D01*
X67281231Y-76729167D01*
X67312760Y-76698223D01*
X67319147Y-76686833D01*
X69045667Y-76686833D01*
X69066833Y-76708000D01*
X69088000Y-76686833D01*
X69080945Y-76679778D01*
X69398444Y-76679778D01*
X69404255Y-76704945D01*
X69426667Y-76708000D01*
X69461512Y-76692511D01*
X69454889Y-76679778D01*
X69404649Y-76674711D01*
X69398444Y-76679778D01*
X69080945Y-76679778D01*
X69066833Y-76665667D01*
X69045667Y-76686833D01*
X67319147Y-76686833D01*
X67332940Y-76662237D01*
X67342703Y-76637444D01*
X69525444Y-76637444D01*
X69531255Y-76662611D01*
X69553667Y-76665667D01*
X69588512Y-76650177D01*
X69581889Y-76637444D01*
X69531649Y-76632378D01*
X69525444Y-76637444D01*
X67342703Y-76637444D01*
X67356595Y-76602167D01*
X69680667Y-76602167D01*
X69701833Y-76623333D01*
X69723000Y-76602167D01*
X69701833Y-76581000D01*
X69680667Y-76602167D01*
X67356595Y-76602167D01*
X67373267Y-76559833D01*
X69807667Y-76559833D01*
X69828833Y-76581000D01*
X69850000Y-76559833D01*
X69828833Y-76538667D01*
X69807667Y-76559833D01*
X67373267Y-76559833D01*
X67377622Y-76548776D01*
X67383374Y-76517500D01*
X69934667Y-76517500D01*
X69955833Y-76538667D01*
X69977000Y-76517500D01*
X69955833Y-76496333D01*
X69934667Y-76517500D01*
X67383374Y-76517500D01*
X67394667Y-76456102D01*
X67421646Y-76386465D01*
X67480023Y-76372154D01*
X67535953Y-76414532D01*
X67550642Y-76449824D01*
X67573401Y-76502200D01*
X67618677Y-76502245D01*
X67674924Y-76475167D01*
X70061667Y-76475167D01*
X70082833Y-76496333D01*
X70104000Y-76475167D01*
X70082833Y-76454000D01*
X70061667Y-76475167D01*
X67674924Y-76475167D01*
X67684262Y-76470672D01*
X67761753Y-76432833D01*
X70188667Y-76432833D01*
X70209833Y-76454000D01*
X70231000Y-76432833D01*
X70209833Y-76411667D01*
X70188667Y-76432833D01*
X67761753Y-76432833D01*
X67785032Y-76421466D01*
X67927955Y-76356548D01*
X68040445Y-76307758D01*
X68044268Y-76305833D01*
X70104000Y-76305833D01*
X70125167Y-76327000D01*
X70146333Y-76305833D01*
X70125167Y-76284667D01*
X70104000Y-76305833D01*
X68044268Y-76305833D01*
X68128355Y-76263500D01*
X70231000Y-76263500D01*
X70252167Y-76284667D01*
X70273333Y-76263500D01*
X70252167Y-76242333D01*
X70231000Y-76263500D01*
X68128355Y-76263500D01*
X68204343Y-76225245D01*
X68209021Y-76221167D01*
X70866000Y-76221167D01*
X70887167Y-76242333D01*
X70908333Y-76221167D01*
X70887167Y-76200000D01*
X70866000Y-76221167D01*
X68209021Y-76221167D01*
X68257584Y-76178833D01*
X70442667Y-76178833D01*
X70463833Y-76200000D01*
X70485000Y-76178833D01*
X70463833Y-76157667D01*
X70442667Y-76178833D01*
X68257584Y-76178833D01*
X68298644Y-76143040D01*
X68302274Y-76136500D01*
X70569667Y-76136500D01*
X70590833Y-76157667D01*
X70612000Y-76136500D01*
X70590833Y-76115333D01*
X70569667Y-76136500D01*
X68302274Y-76136500D01*
X68325770Y-76094167D01*
X70696667Y-76094167D01*
X70717833Y-76115333D01*
X70739000Y-76094167D01*
X70717833Y-76073000D01*
X70696667Y-76094167D01*
X68325770Y-76094167D01*
X68326498Y-76092857D01*
X68349908Y-75998494D01*
X68344971Y-75942447D01*
X68360301Y-75912303D01*
X68412131Y-75903666D01*
X68498470Y-75939081D01*
X68525400Y-75988333D01*
X68548726Y-76056686D01*
X68560783Y-76073000D01*
X68602107Y-76056194D01*
X68611850Y-76051833D01*
X70781333Y-76051833D01*
X70802500Y-76073000D01*
X70823667Y-76051833D01*
X70802500Y-76030667D01*
X70781333Y-76051833D01*
X68611850Y-76051833D01*
X68703802Y-76010679D01*
X68706373Y-76009500D01*
X70908333Y-76009500D01*
X70929500Y-76030667D01*
X70950667Y-76009500D01*
X70929500Y-75988333D01*
X70908333Y-76009500D01*
X68706373Y-76009500D01*
X68798694Y-75967167D01*
X71035333Y-75967167D01*
X71056500Y-75988333D01*
X71077667Y-75967167D01*
X71056500Y-75946000D01*
X71035333Y-75967167D01*
X68798694Y-75967167D01*
X68849634Y-75943809D01*
X68905629Y-75917778D01*
X71134111Y-75917778D01*
X71139922Y-75942945D01*
X71162333Y-75946000D01*
X71197178Y-75930511D01*
X71190555Y-75917778D01*
X71140316Y-75912711D01*
X71134111Y-75917778D01*
X68905629Y-75917778D01*
X68989762Y-75878667D01*
X68996804Y-75875444D01*
X71261111Y-75875444D01*
X71266922Y-75900611D01*
X71289333Y-75903667D01*
X71324178Y-75888177D01*
X71317555Y-75875444D01*
X71267316Y-75870378D01*
X71261111Y-75875444D01*
X68996804Y-75875444D01*
X69073890Y-75840167D01*
X71374000Y-75840167D01*
X71395167Y-75861333D01*
X71416333Y-75840167D01*
X71395167Y-75819000D01*
X71374000Y-75840167D01*
X69073890Y-75840167D01*
X69181813Y-75790778D01*
X71472778Y-75790778D01*
X71478589Y-75815945D01*
X71501000Y-75819000D01*
X71535845Y-75803511D01*
X71529222Y-75790778D01*
X71478982Y-75785711D01*
X71472778Y-75790778D01*
X69181813Y-75790778D01*
X69254473Y-75757527D01*
X69275115Y-75748444D01*
X71599778Y-75748444D01*
X71605589Y-75773611D01*
X71628000Y-75776667D01*
X71662845Y-75761177D01*
X71656222Y-75748444D01*
X71605982Y-75743378D01*
X71599778Y-75748444D01*
X69275115Y-75748444D01*
X69355287Y-75713167D01*
X71712667Y-75713167D01*
X71733833Y-75734333D01*
X71755000Y-75713167D01*
X71733833Y-75692000D01*
X71712667Y-75713167D01*
X69355287Y-75713167D01*
X69467531Y-75663778D01*
X71811444Y-75663778D01*
X71817255Y-75688945D01*
X71839667Y-75692000D01*
X71874512Y-75676511D01*
X71867889Y-75663778D01*
X71817649Y-75658711D01*
X71811444Y-75663778D01*
X69467531Y-75663778D01*
X69519059Y-75641105D01*
X69519597Y-75640877D01*
X71932782Y-75640877D01*
X71945500Y-75648370D01*
X72015069Y-75627292D01*
X72051333Y-75607333D01*
X72085218Y-75573789D01*
X72072500Y-75566296D01*
X72002930Y-75587374D01*
X71966667Y-75607333D01*
X71932782Y-75640877D01*
X69519597Y-75640877D01*
X69765540Y-75536778D01*
X72150111Y-75536778D01*
X72155922Y-75561945D01*
X72178333Y-75565000D01*
X72213178Y-75549511D01*
X72206555Y-75536778D01*
X72156316Y-75531711D01*
X72150111Y-75536778D01*
X69765540Y-75536778D01*
X69770637Y-75534621D01*
X69996320Y-75443297D01*
X70183223Y-75372355D01*
X70318461Y-75327014D01*
X70387200Y-75312408D01*
X70430563Y-75320874D01*
X70413009Y-75353459D01*
X70360343Y-75399950D01*
X70256853Y-75486082D01*
X70370927Y-75457452D01*
X70461147Y-75449599D01*
X70485000Y-75480613D01*
X70504929Y-75506714D01*
X70572655Y-75475119D01*
X70580250Y-75470220D01*
X70659696Y-75428366D01*
X70795992Y-75366318D01*
X70966849Y-75293974D01*
X71077667Y-75249354D01*
X71219998Y-75188634D01*
X71423643Y-75095396D01*
X71674841Y-74976267D01*
X71959830Y-74837870D01*
X72264849Y-74686829D01*
X72576137Y-74529771D01*
X72636891Y-74498754D01*
X72924581Y-74352760D01*
X73187788Y-74221453D01*
X73417184Y-74109306D01*
X73603440Y-74020794D01*
X73737230Y-73960393D01*
X73809223Y-73932576D01*
X73818871Y-73931760D01*
X73827803Y-73991418D01*
G37*
X73827803Y-73991418D02*
X73809525Y-74105331D01*
X73770656Y-74250142D01*
X73717815Y-74402490D01*
X73657622Y-74539017D01*
X73635051Y-74580439D01*
X73482332Y-74780084D01*
X73266274Y-74978570D01*
X73007007Y-75160548D01*
X72724660Y-75310663D01*
X72620431Y-75354262D01*
X72465111Y-75416587D01*
X72347399Y-75468202D01*
X72283903Y-75501595D01*
X72277764Y-75509209D01*
X72319227Y-75498805D01*
X72425995Y-75462297D01*
X72584655Y-75404754D01*
X72781795Y-75331248D01*
X73004001Y-75246850D01*
X73237862Y-75156631D01*
X73469964Y-75065662D01*
X73686894Y-74979014D01*
X73776417Y-74942608D01*
X73821801Y-74949434D01*
X73830242Y-75013228D01*
X73807825Y-75118042D01*
X73760632Y-75247925D01*
X73694746Y-75386928D01*
X73616252Y-75519100D01*
X73531232Y-75628491D01*
X73504652Y-75655143D01*
X73368656Y-75769655D01*
X73215000Y-75873541D01*
X73034211Y-75970536D01*
X72816814Y-76064374D01*
X72553337Y-76158788D01*
X72234306Y-76257512D01*
X71850249Y-76364281D01*
X71427790Y-76473720D01*
X71042104Y-76571583D01*
X70732831Y-76651018D01*
X70494127Y-76713645D01*
X70320146Y-76761086D01*
X70205044Y-76794964D01*
X70142975Y-76816900D01*
X70128096Y-76828517D01*
X70139480Y-76831214D01*
X70201614Y-76822326D01*
X70242018Y-76813833D01*
X70950667Y-76813833D01*
X70971833Y-76835000D01*
X70993000Y-76813833D01*
X70971833Y-76792667D01*
X70950667Y-76813833D01*
X70242018Y-76813833D01*
X70333832Y-76794534D01*
X70524424Y-76750794D01*
X70614870Y-76729167D01*
X71331667Y-76729167D01*
X71352833Y-76750333D01*
X71374000Y-76729167D01*
X71352833Y-76708000D01*
X71331667Y-76729167D01*
X70614870Y-76729167D01*
X70761679Y-76694063D01*
X70791156Y-76686833D01*
X71543333Y-76686833D01*
X71564500Y-76708000D01*
X71585667Y-76686833D01*
X71564500Y-76665667D01*
X71543333Y-76686833D01*
X70791156Y-76686833D01*
X71033885Y-76627299D01*
X71329332Y-76553458D01*
X71636309Y-76475496D01*
X71943104Y-76396371D01*
X72238007Y-76319040D01*
X72509306Y-76246459D01*
X72745291Y-76181585D01*
X72934251Y-76127375D01*
X72972271Y-76115987D01*
X73179084Y-76054166D01*
X73357520Y-76002393D01*
X73491622Y-75965182D01*
X73565431Y-75947047D01*
X73573318Y-75946000D01*
X73589041Y-75980873D01*
X73569893Y-76071702D01*
X73565926Y-76083583D01*
X73427805Y-76356440D01*
X73213870Y-76592198D01*
X72923920Y-76791045D01*
X72695968Y-76900022D01*
X72581925Y-76951506D01*
X72518902Y-76988432D01*
X72519808Y-77002544D01*
X72598712Y-76995864D01*
X72730709Y-76976922D01*
X72886021Y-76950798D01*
X73034871Y-76922573D01*
X73147481Y-76897326D01*
X73165346Y-76892410D01*
X73209931Y-76884315D01*
X73216139Y-76908771D01*
X73183018Y-76983060D01*
X73157630Y-77032353D01*
X72990647Y-77278880D01*
X72765529Y-77482136D01*
X72474102Y-77648340D01*
X72213214Y-77750372D01*
X72090502Y-77791555D01*
X72011566Y-77819980D01*
X71982860Y-77836211D01*
X72010834Y-77840813D01*
X72101942Y-77834353D01*
X72262634Y-77817394D01*
X72499364Y-77790503D01*
X72573995Y-77781973D01*
X72821490Y-77753717D01*
X72733136Y-77926906D01*
X72590373Y-78121102D01*
X72381516Y-78289018D01*
X72123601Y-78420440D01*
X71833662Y-78505156D01*
X71744375Y-78519749D01*
X71522167Y-78549500D01*
X71837395Y-78570667D01*
X72152624Y-78591833D01*
X72010737Y-78753077D01*
X71793520Y-78937232D01*
X71514593Y-79070010D01*
X71181747Y-79148395D01*
X70937999Y-79168814D01*
X70864319Y-79173577D01*
X70859163Y-79182616D01*
X70927685Y-79197886D01*
X71075037Y-79221338D01*
X71077667Y-79221731D01*
X71395167Y-79269167D01*
X71302168Y-79362165D01*
X71122538Y-79497050D01*
X70895808Y-79583244D01*
X70659999Y-79622470D01*
X70380803Y-79650167D01*
X70624374Y-79726719D01*
X70748233Y-79772858D01*
X70826700Y-79816284D01*
X70842933Y-79843741D01*
X70792571Y-79886097D01*
X70694476Y-79946020D01*
X70643400Y-79973244D01*
X70536288Y-80019791D01*
X70427345Y-80043775D01*
X70287266Y-80049191D01*
X70132998Y-80042835D01*
X69797118Y-80023391D01*
X70056392Y-80141084D01*
X70187217Y-80206083D01*
X70280403Y-80263093D01*
X70315667Y-80299581D01*
X70276196Y-80347276D01*
X70169176Y-80388500D01*
X70011695Y-80418997D01*
X69820843Y-80434512D01*
X69769599Y-80435554D01*
X69623783Y-80438409D01*
X69550316Y-80446615D01*
X69536896Y-80464066D01*
X69571220Y-80494658D01*
X69574833Y-80497210D01*
X69707183Y-80592186D01*
X69780704Y-80651861D01*
X69807341Y-80687407D01*
X69800629Y-80708482D01*
X69740514Y-80726610D01*
X69622660Y-80736137D01*
X69473560Y-80737019D01*
X69319707Y-80729212D01*
X69187594Y-80712673D01*
X69171726Y-80709528D01*
X69024500Y-80678427D01*
X69191841Y-80852213D01*
X69359183Y-81026000D01*
X68982167Y-81026316D01*
X69109168Y-81103767D01*
X69217452Y-81185330D01*
X69335371Y-81296106D01*
X69370735Y-81334480D01*
X69505301Y-81487742D01*
X69665079Y-81379314D01*
X69760351Y-81304000D01*
X69893845Y-81184565D01*
X70046135Y-81038897D01*
X70165945Y-80918084D01*
X70376695Y-80711551D01*
X70557566Y-80565234D01*
X70726904Y-80469756D01*
X70903052Y-80415741D01*
X71104356Y-80393814D01*
X71195443Y-80391930D01*
X71448937Y-80406357D01*
X71644481Y-80456529D01*
X71804017Y-80550160D01*
X71900503Y-80639786D01*
X72017517Y-80736576D01*
X72142302Y-80772033D01*
X72175670Y-80773408D01*
X72326500Y-80774817D01*
X72232095Y-80853593D01*
X72170978Y-80916021D01*
X72174934Y-80960091D01*
X72196165Y-80980899D01*
X72246186Y-81043545D01*
X72315098Y-81155403D01*
X72370164Y-81257758D01*
X72441297Y-81387816D01*
X72502861Y-81460956D01*
X72578350Y-81498206D01*
X72657765Y-81515159D01*
X72762473Y-81535921D01*
X72795168Y-81556852D01*
X72767767Y-81589252D01*
X72749996Y-81602615D01*
X72647823Y-81646490D01*
X72546857Y-81661000D01*
X72423562Y-81661000D01*
X72554948Y-81810640D01*
X72628747Y-81904333D01*
X72668333Y-81992441D01*
X72684029Y-82107873D01*
X72686333Y-82229496D01*
X72690856Y-82385188D01*
X72711000Y-82487896D01*
X72756625Y-82569105D01*
X72813172Y-82634493D01*
X72896545Y-82743499D01*
X72905976Y-82812123D01*
X72841741Y-82839567D01*
X72744451Y-82832494D01*
X72648208Y-82822957D01*
X72609323Y-82848337D01*
X72602596Y-82923078D01*
X72626841Y-83072464D01*
X72687553Y-83222314D01*
X72770137Y-83345867D01*
X72859997Y-83416357D01*
X72874095Y-83420929D01*
X72964024Y-83458068D01*
X72971635Y-83499088D01*
X72896129Y-83536896D01*
X72887417Y-83539318D01*
X72665493Y-83563178D01*
X72451180Y-83510329D01*
X72235772Y-83377938D01*
X72141528Y-83296677D01*
X71998890Y-83163833D01*
X72027193Y-83361498D01*
X72041260Y-83479955D01*
X72034338Y-83534193D01*
X72000164Y-83543365D01*
X71969879Y-83536773D01*
X71881070Y-83491805D01*
X71783620Y-83413695D01*
X71779521Y-83409642D01*
X71731745Y-83355196D01*
X71689127Y-83286943D01*
X71645924Y-83190702D01*
X71596391Y-83052292D01*
X71534786Y-82857531D01*
X71474199Y-82655833D01*
X71398801Y-82401833D01*
X71372596Y-82655833D01*
X71343994Y-82861668D01*
X71307330Y-82990617D01*
X71259934Y-83050293D01*
X71231887Y-83056548D01*
X71187858Y-83018433D01*
X71127249Y-82919258D01*
X71058604Y-82778813D01*
X70990469Y-82616890D01*
X70931390Y-82453280D01*
X70904657Y-82359500D01*
X71331667Y-82359500D01*
X71352833Y-82380667D01*
X71374000Y-82359500D01*
X71352833Y-82338333D01*
X71331667Y-82359500D01*
X70904657Y-82359500D01*
X70889912Y-82307775D01*
X70876595Y-82233692D01*
X70856138Y-82113698D01*
X70829283Y-82072068D01*
X70809394Y-82081672D01*
X70727563Y-82118647D01*
X70609835Y-82124011D01*
X70484057Y-82103225D01*
X70378073Y-82061750D01*
X70319728Y-82005047D01*
X70315667Y-81984839D01*
X70352590Y-81938451D01*
X70423264Y-81925583D01*
X70513949Y-81916905D01*
X70555348Y-81901096D01*
X70568843Y-81835451D01*
X70539067Y-81739364D01*
X70479594Y-81645136D01*
X70427872Y-81597782D01*
X70298553Y-81561924D01*
X70131986Y-81600125D01*
X69927005Y-81712693D01*
X69884840Y-81741652D01*
X69758344Y-81846050D01*
X69673752Y-81961018D01*
X69621025Y-82108459D01*
X69590129Y-82310275D01*
X69582315Y-82401833D01*
X69557826Y-82606527D01*
X69517716Y-82818109D01*
X69470650Y-82990900D01*
X69470462Y-82991442D01*
X69383715Y-83242385D01*
X69479274Y-83345190D01*
X69572688Y-83431822D01*
X69698125Y-83531736D01*
X69754750Y-83572531D01*
X69866038Y-83659398D01*
X69919607Y-83735220D01*
X69933646Y-83826445D01*
X69933632Y-83832617D01*
X69921226Y-83990298D01*
X69883148Y-84164671D01*
X69814566Y-84371043D01*
X69710651Y-84624725D01*
X69620325Y-84825593D01*
X69468656Y-85184951D01*
X69371423Y-85490334D01*
X69326818Y-85751055D01*
X69333036Y-85976425D01*
X69368468Y-86123505D01*
X69403191Y-86242355D01*
X69416681Y-86325163D01*
X69412790Y-86345654D01*
X69355329Y-86363202D01*
X69238076Y-86376807D01*
X69085843Y-86385792D01*
X68923441Y-86389481D01*
X68775682Y-86387198D01*
X68667377Y-86378267D01*
X68627336Y-86367060D01*
X68591336Y-86296870D01*
X68595117Y-86186214D01*
X68632670Y-86065844D01*
X68697988Y-85966511D01*
X68707344Y-85957522D01*
X68832467Y-85809588D01*
X68960209Y-85598359D01*
X69081844Y-85344441D01*
X69188644Y-85068442D01*
X69271881Y-84790968D01*
X69322829Y-84532627D01*
X69327548Y-84493073D01*
X69326986Y-84244442D01*
X69274353Y-84027727D01*
X69176143Y-83856359D01*
X69038850Y-83743767D01*
X68949901Y-83711950D01*
X68650045Y-83610728D01*
X68352144Y-83445772D01*
X68083118Y-83234254D01*
X67912309Y-83050112D01*
X67789202Y-82894057D01*
X67654379Y-82976048D01*
X67515620Y-83098121D01*
X67456962Y-83241734D01*
X67479229Y-83398697D01*
X67583247Y-83560819D01*
X67594250Y-83572834D01*
X67699656Y-83685501D01*
X67516425Y-83884283D01*
X67411381Y-83983426D01*
X67254950Y-84112628D01*
X67067011Y-84256235D01*
X66867442Y-84398594D01*
X66836304Y-84419841D01*
X66542838Y-84628808D01*
X66320157Y-84812215D01*
X66161357Y-84978166D01*
X66059536Y-85134767D01*
X66007791Y-85290120D01*
X65997667Y-85404508D01*
X65983843Y-85475889D01*
X65927925Y-85521867D01*
X65818561Y-85558298D01*
X65662503Y-85583726D01*
X65498979Y-85584708D01*
X65357911Y-85563280D01*
X65269221Y-85521480D01*
X65268591Y-85520858D01*
X65241744Y-85439276D01*
X65267992Y-85321755D01*
X65338852Y-85190463D01*
X65440007Y-85072944D01*
X65506011Y-85012315D01*
X65575016Y-84951617D01*
X65657957Y-84881953D01*
X65765765Y-84794427D01*
X65909376Y-84680143D01*
X66099723Y-84530205D01*
X66302906Y-84370840D01*
X66532482Y-84178679D01*
X66702610Y-84009682D01*
X66808243Y-83869504D01*
X66844333Y-83764225D01*
X66816608Y-83707435D01*
X66741314Y-83605280D01*
X66630273Y-83472738D01*
X66508490Y-83338731D01*
X66318764Y-83124042D01*
X66191032Y-82943590D01*
X66118361Y-82782452D01*
X66093814Y-82625701D01*
X66107271Y-82475289D01*
X66146514Y-82314305D01*
X66208740Y-82184671D01*
X66312566Y-82051942D01*
X66368773Y-81991463D01*
X66381601Y-81978500D01*
X67140667Y-81978500D01*
X67161833Y-81999667D01*
X67183000Y-81978500D01*
X67161833Y-81957333D01*
X67140667Y-81978500D01*
X66381601Y-81978500D01*
X66431296Y-81928283D01*
X66471026Y-81883204D01*
X66478479Y-81850786D01*
X66444170Y-81825583D01*
X66358618Y-81802153D01*
X66212338Y-81775052D01*
X65995846Y-81738839D01*
X65900746Y-81722836D01*
X65558276Y-81646194D01*
X65273304Y-81543777D01*
X65054140Y-81419439D01*
X64909092Y-81277035D01*
X64895588Y-81256549D01*
X64837473Y-81165409D01*
X64801551Y-81114514D01*
X64797326Y-81110667D01*
X64755633Y-81120385D01*
X64649565Y-81146609D01*
X64496792Y-81184942D01*
X64372017Y-81216500D01*
X64182681Y-81261771D01*
X64013085Y-81297374D01*
X63887084Y-81318543D01*
X63842366Y-81322333D01*
X63741127Y-81350586D01*
X63657069Y-81445933D01*
X63649877Y-81457837D01*
X63590901Y-81543949D01*
X63491074Y-81675656D01*
X63364808Y-81834408D01*
X63238583Y-81987321D01*
X63083629Y-82180303D01*
X62974014Y-82335566D01*
X62915569Y-82444433D01*
X62907333Y-82480256D01*
X62945308Y-82599711D01*
X63043345Y-82686489D01*
X63175250Y-82719333D01*
X63245925Y-82730494D01*
X63280952Y-82771869D01*
X63280392Y-82855292D01*
X63244304Y-82992599D01*
X63177595Y-83182578D01*
X63115823Y-83338730D01*
X63066858Y-83429818D01*
X63019443Y-83471952D01*
X62968811Y-83481333D01*
X62864806Y-83440859D01*
X62763686Y-83326570D01*
X62673424Y-83149162D01*
X62631228Y-83028336D01*
X62583554Y-82841262D01*
X62566312Y-82674735D01*
X62583774Y-82513058D01*
X62640211Y-82340529D01*
X62739893Y-82141451D01*
X62887093Y-81900123D01*
X62974442Y-81766833D01*
X63096707Y-81575687D01*
X63205181Y-81392775D01*
X63288588Y-81238009D01*
X63335652Y-81131302D01*
X63337369Y-81125903D01*
X63364576Y-81043162D01*
X63396866Y-80979948D01*
X63413563Y-80962500D01*
X68664667Y-80962500D01*
X68685833Y-80983667D01*
X68707000Y-80962500D01*
X68685833Y-80941333D01*
X68664667Y-80962500D01*
X63413563Y-80962500D01*
X63447519Y-80927019D01*
X63529812Y-80875130D01*
X63657025Y-80815039D01*
X63842437Y-80737504D01*
X63969447Y-80685932D01*
X64016739Y-80666167D01*
X68961000Y-80666167D01*
X68982167Y-80687333D01*
X69003333Y-80666167D01*
X68982167Y-80645000D01*
X68961000Y-80666167D01*
X64016739Y-80666167D01*
X64151590Y-80609808D01*
X64306650Y-80540640D01*
X64416367Y-80486847D01*
X64460033Y-80459792D01*
X64488720Y-80390586D01*
X64485605Y-80296498D01*
X64457105Y-80213946D01*
X64410623Y-80179333D01*
X64390968Y-80168979D01*
X67410769Y-80168979D01*
X67415833Y-80206032D01*
X67475372Y-80232700D01*
X67583293Y-80283358D01*
X67669833Y-80324737D01*
X67788337Y-80381231D01*
X67871206Y-80419672D01*
X67895555Y-80429994D01*
X67877339Y-80402947D01*
X67816057Y-80328864D01*
X67726221Y-80225206D01*
X67667151Y-80158167D01*
X68707000Y-80158167D01*
X68728167Y-80179333D01*
X68749333Y-80158167D01*
X68728167Y-80137000D01*
X68707000Y-80158167D01*
X67667151Y-80158167D01*
X67542833Y-80017079D01*
X67458167Y-80103162D01*
X67410769Y-80168979D01*
X64390968Y-80168979D01*
X64350687Y-80147761D01*
X64256294Y-80063878D01*
X64185196Y-79988833D01*
X69723000Y-79988833D01*
X69744167Y-80010000D01*
X69765333Y-79988833D01*
X69744167Y-79967667D01*
X69723000Y-79988833D01*
X64185196Y-79988833D01*
X64142664Y-79943940D01*
X64041539Y-79823825D01*
X67794730Y-79823825D01*
X67818000Y-79861833D01*
X67881743Y-79915195D01*
X67913033Y-79925333D01*
X67925937Y-79899842D01*
X67902667Y-79861833D01*
X67838924Y-79808472D01*
X67807633Y-79798333D01*
X67794730Y-79823825D01*
X64041539Y-79823825D01*
X64025014Y-79804197D01*
X63918564Y-79660904D01*
X63901542Y-79635649D01*
X63877570Y-79600778D01*
X70287444Y-79600778D01*
X70293255Y-79625945D01*
X70315667Y-79629000D01*
X70350512Y-79613511D01*
X70343889Y-79600778D01*
X70293649Y-79595711D01*
X70287444Y-79600778D01*
X63877570Y-79600778D01*
X63850523Y-79561437D01*
X63801654Y-79508212D01*
X63739336Y-79470368D01*
X63647972Y-79442298D01*
X63511965Y-79418395D01*
X63315717Y-79393054D01*
X63182500Y-79377188D01*
X62994079Y-79349528D01*
X62813830Y-79314106D01*
X62678067Y-79278152D01*
X62668566Y-79274887D01*
X62553718Y-79239330D01*
X62474973Y-79240503D01*
X62389841Y-79283645D01*
X62342662Y-79315064D01*
X62249987Y-79382245D01*
X62215903Y-79434295D01*
X62228843Y-79503477D01*
X62253346Y-79564186D01*
X62293283Y-79665762D01*
X62313899Y-79729902D01*
X62314667Y-79735634D01*
X62276215Y-79776881D01*
X62175939Y-79818242D01*
X62036454Y-79853644D01*
X61880374Y-79877016D01*
X61765693Y-79883000D01*
X61510333Y-79883000D01*
X61510333Y-79731855D01*
X61517505Y-79653878D01*
X61546811Y-79581504D01*
X61609936Y-79497881D01*
X61718564Y-79386152D01*
X61811163Y-79297939D01*
X61962701Y-79161831D01*
X62092953Y-79067179D01*
X62221704Y-79008550D01*
X62368738Y-78980510D01*
X62553841Y-78977628D01*
X62796798Y-78994472D01*
X62886167Y-79002774D01*
X63113859Y-79018448D01*
X63354512Y-79025161D01*
X63567157Y-79022058D01*
X63629809Y-79018307D01*
X63796961Y-79007580D01*
X63909559Y-79011330D01*
X63997294Y-79035628D01*
X64089860Y-79086543D01*
X64147683Y-79124177D01*
X64287672Y-79223492D01*
X64420390Y-79328145D01*
X64472288Y-79373713D01*
X64599329Y-79492386D01*
X64733994Y-79353833D01*
X66759667Y-79353833D01*
X66780833Y-79375000D01*
X66802000Y-79353833D01*
X66780833Y-79332667D01*
X66759667Y-79353833D01*
X64733994Y-79353833D01*
X64779915Y-79306587D01*
X64844655Y-79226833D01*
X66802000Y-79226833D01*
X66823167Y-79248000D01*
X66844333Y-79226833D01*
X66823167Y-79205667D01*
X66802000Y-79226833D01*
X64844655Y-79226833D01*
X64947746Y-79099833D01*
X66844333Y-79099833D01*
X66865500Y-79121000D01*
X66886667Y-79099833D01*
X66865500Y-79078667D01*
X66844333Y-79099833D01*
X64947746Y-79099833D01*
X65013893Y-79018347D01*
X65216465Y-78675001D01*
X65371279Y-78304759D01*
X65385053Y-78262457D01*
X65444993Y-78067281D01*
X65476829Y-77943877D01*
X65480160Y-77884014D01*
X65454586Y-77879459D01*
X65399708Y-77921979D01*
X65369871Y-77949931D01*
X65214779Y-78048553D01*
X65096405Y-78070480D01*
X65002088Y-78081826D01*
X64961528Y-78102679D01*
X64962627Y-78108442D01*
X64954747Y-78159709D01*
X64914713Y-78262295D01*
X64855093Y-78386230D01*
X64788313Y-78529340D01*
X64742178Y-78655729D01*
X64727667Y-78728249D01*
X64714663Y-78793839D01*
X64659524Y-78820601D01*
X64579500Y-78824667D01*
X64468013Y-78806212D01*
X64432576Y-78751862D01*
X64473287Y-78663132D01*
X64562810Y-78566484D01*
X64633968Y-78489026D01*
X64646521Y-78447672D01*
X64633689Y-78443667D01*
X64565227Y-78472441D01*
X64480451Y-78542422D01*
X64473667Y-78549500D01*
X64350404Y-78636935D01*
X64227093Y-78645161D01*
X64117303Y-78574500D01*
X64068633Y-78511930D01*
X64080656Y-78475099D01*
X64121325Y-78448788D01*
X64169098Y-78412721D01*
X64153578Y-78404078D01*
X64091857Y-78423702D01*
X64047550Y-78445156D01*
X63994587Y-78466947D01*
X63972701Y-78453155D01*
X63983822Y-78393980D01*
X64029881Y-78279625D01*
X64112807Y-78100291D01*
X64117361Y-78090695D01*
X64216912Y-77851011D01*
X64263852Y-77658078D01*
X64269055Y-77578620D01*
X64276887Y-77458067D01*
X64296667Y-77377125D01*
X64307861Y-77361986D01*
X64345694Y-77308506D01*
X64317528Y-77264693D01*
X64284656Y-77258333D01*
X64217283Y-77224721D01*
X64177333Y-77173667D01*
X64114452Y-77099908D01*
X64056252Y-77104847D01*
X64020390Y-77173190D01*
X63986617Y-77232121D01*
X63948718Y-77220145D01*
X63924967Y-77148006D01*
X63923333Y-77116135D01*
X63930116Y-77091498D01*
X64431333Y-77091498D01*
X64444937Y-77129962D01*
X64476155Y-77096407D01*
X64489819Y-77065634D01*
X64492778Y-77021935D01*
X64473182Y-77025800D01*
X64432838Y-77080000D01*
X64431333Y-77091498D01*
X63930116Y-77091498D01*
X63956335Y-76996275D01*
X64052918Y-76931142D01*
X64143467Y-76919667D01*
X64235083Y-76903997D01*
X64259737Y-76867147D01*
X64209530Y-76824358D01*
X64195817Y-76818661D01*
X64150438Y-76779332D01*
X64169228Y-76742036D01*
X64234928Y-76732011D01*
X64252602Y-76735609D01*
X64304473Y-76730153D01*
X64344665Y-76670900D01*
X64379993Y-76560072D01*
X64423730Y-76443926D01*
X64468361Y-76395426D01*
X64503314Y-76418456D01*
X64517909Y-76509415D01*
X64523727Y-76561533D01*
X64543904Y-76544713D01*
X64577971Y-76475167D01*
X64617890Y-76397921D01*
X64637971Y-76393945D01*
X64645569Y-76432833D01*
X64656896Y-76449653D01*
X64674649Y-76394550D01*
X64683530Y-76348167D01*
X64712045Y-76178833D01*
X64762189Y-76298006D01*
X64795204Y-76420270D01*
X64811852Y-76567672D01*
X64812333Y-76593163D01*
X64812333Y-76769148D01*
X64991904Y-76589577D01*
X64893944Y-76415279D01*
X64795983Y-76240982D01*
X64941742Y-76116378D01*
X65055066Y-76025960D01*
X65115557Y-75996308D01*
X65128670Y-76026783D01*
X65107619Y-76096922D01*
X65077266Y-76181981D01*
X65066333Y-76221641D01*
X65101612Y-76222414D01*
X65190403Y-76201098D01*
X65307138Y-76165847D01*
X65426249Y-76124819D01*
X65522169Y-76086169D01*
X65564773Y-76062648D01*
X65627119Y-76036838D01*
X65652859Y-76072187D01*
X65631106Y-76149187D01*
X65621908Y-76165005D01*
X65592043Y-76220603D01*
X65608687Y-76239616D01*
X65687501Y-76230466D01*
X65729344Y-76222791D01*
X65847319Y-76193132D01*
X65931199Y-76158670D01*
X65940633Y-76152111D01*
X65990094Y-76136497D01*
X66010338Y-76175690D01*
X65997011Y-76243561D01*
X65964477Y-76295181D01*
X65932482Y-76336634D01*
X65943382Y-76349501D01*
X66010896Y-76334841D01*
X66107585Y-76306222D01*
X66325532Y-76255494D01*
X66496265Y-76247672D01*
X66608646Y-76282848D01*
X66629506Y-76302025D01*
X66649612Y-76347361D01*
X66604351Y-76376350D01*
X66554359Y-76389103D01*
X66429671Y-76416489D01*
X66529552Y-76516371D01*
X66639892Y-76590009D01*
X66715717Y-76593689D01*
X66785944Y-76595688D01*
X66796950Y-76636879D01*
X66745178Y-76692654D01*
X66731243Y-76701057D01*
X66693636Y-76733016D01*
X66718010Y-76766851D01*
X66787243Y-76806202D01*
X66918231Y-76888700D01*
X66989676Y-76965819D01*
X66993402Y-77027162D01*
X66974729Y-77044568D01*
X66946065Y-77084028D01*
X66968156Y-77152831D01*
X66995745Y-77200091D01*
X67108644Y-77358582D01*
X67222465Y-77478876D01*
X67321685Y-77545871D01*
X67360253Y-77554666D01*
X67424622Y-77574017D01*
X67437000Y-77597000D01*
X67401083Y-77630541D01*
X67341750Y-77640620D01*
X67278679Y-77646450D01*
X67293594Y-77668703D01*
X67317292Y-77683216D01*
X67403729Y-77764546D01*
X67487727Y-77890016D01*
X67547723Y-78022709D01*
X67564000Y-78105595D01*
X67560997Y-78166240D01*
X67540353Y-78170683D01*
X67484613Y-78116303D01*
X67460188Y-78090015D01*
X67373300Y-78005322D01*
X67329315Y-77982368D01*
X67333006Y-78022294D01*
X67353292Y-78064459D01*
X67381162Y-78164725D01*
X67387479Y-78294111D01*
X67386532Y-78307875D01*
X67373500Y-78464833D01*
X67301111Y-78337833D01*
X67252022Y-78263548D01*
X67229751Y-78263884D01*
X67227028Y-78287700D01*
X67262001Y-78430827D01*
X67368627Y-78596808D01*
X67427728Y-78664666D01*
X67493506Y-78742187D01*
X67502694Y-78783081D01*
X67464562Y-78806904D01*
X67380395Y-78804894D01*
X67288506Y-78764845D01*
X67214549Y-78720812D01*
X67187382Y-78726904D01*
X67184346Y-78770774D01*
X67210159Y-78863318D01*
X67247846Y-78928008D01*
X67296757Y-79013992D01*
X67310000Y-79065591D01*
X67277857Y-79110798D01*
X67203621Y-79117061D01*
X67120582Y-79083984D01*
X67100784Y-79068083D01*
X67082445Y-79064842D01*
X67104868Y-79120389D01*
X67121842Y-79151447D01*
X67168252Y-79261023D01*
X67160745Y-79321871D01*
X67103386Y-79324473D01*
X67057839Y-79301306D01*
X66991090Y-79274231D01*
X66956540Y-79310238D01*
X66955260Y-79313492D01*
X66948136Y-79407121D01*
X66956024Y-79438500D01*
X66950931Y-79487214D01*
X66876022Y-79501994D01*
X66873557Y-79502000D01*
X66784578Y-79486650D01*
X66745203Y-79458608D01*
X66731456Y-79448030D01*
X66733611Y-79466167D01*
X66782334Y-79540387D01*
X66881564Y-79559316D01*
X67021187Y-79526767D01*
X67028812Y-79523167D01*
X69426667Y-79523167D01*
X69447833Y-79544333D01*
X69469000Y-79523167D01*
X69447833Y-79502000D01*
X69426667Y-79523167D01*
X67028812Y-79523167D01*
X67118479Y-79480833D01*
X69299667Y-79480833D01*
X69320833Y-79502000D01*
X69342000Y-79480833D01*
X69320833Y-79459667D01*
X69299667Y-79480833D01*
X67118479Y-79480833D01*
X67191086Y-79446554D01*
X67203423Y-79438500D01*
X69215000Y-79438500D01*
X69236167Y-79459667D01*
X69257333Y-79438500D01*
X69236167Y-79417333D01*
X69215000Y-79438500D01*
X67203423Y-79438500D01*
X67268274Y-79396167D01*
X69088000Y-79396167D01*
X69109167Y-79417333D01*
X69130333Y-79396167D01*
X69109167Y-79375000D01*
X69088000Y-79396167D01*
X67268274Y-79396167D01*
X67343935Y-79346778D01*
X68975111Y-79346778D01*
X68980922Y-79371945D01*
X69003333Y-79375000D01*
X69038178Y-79359511D01*
X69031555Y-79346778D01*
X68981316Y-79341711D01*
X68975111Y-79346778D01*
X67343935Y-79346778D01*
X67381146Y-79322488D01*
X67403147Y-79304444D01*
X68848111Y-79304444D01*
X68853922Y-79329611D01*
X68876333Y-79332667D01*
X68911178Y-79317177D01*
X68904555Y-79304444D01*
X68854316Y-79299378D01*
X68848111Y-79304444D01*
X67403147Y-79304444D01*
X67446163Y-79269167D01*
X68749333Y-79269167D01*
X68770500Y-79290333D01*
X68791667Y-79269167D01*
X68770500Y-79248000D01*
X68749333Y-79269167D01*
X67446163Y-79269167D01*
X67497784Y-79226833D01*
X68622333Y-79226833D01*
X68643500Y-79248000D01*
X68664667Y-79226833D01*
X68643500Y-79205667D01*
X68622333Y-79226833D01*
X67497784Y-79226833D01*
X67581250Y-79158383D01*
X67602944Y-79138510D01*
X67755268Y-78972833D01*
X68664667Y-78972833D01*
X68685833Y-78994000D01*
X68707000Y-78972833D01*
X68685833Y-78951667D01*
X68664667Y-78972833D01*
X67755268Y-78972833D01*
X67797311Y-78927105D01*
X67837533Y-78863740D01*
X68685833Y-78863740D01*
X68693468Y-78883992D01*
X68762530Y-78906777D01*
X68870114Y-78927109D01*
X68993315Y-78940007D01*
X69045667Y-78942030D01*
X69069080Y-78934587D01*
X69020275Y-78913771D01*
X68939833Y-78891699D01*
X68811002Y-78866354D01*
X68714805Y-78858653D01*
X68685833Y-78863740D01*
X67837533Y-78863740D01*
X67933996Y-78711778D01*
X70202778Y-78711778D01*
X70208589Y-78736945D01*
X70231000Y-78740000D01*
X70265845Y-78724511D01*
X70259222Y-78711778D01*
X70208982Y-78706711D01*
X70202778Y-78711778D01*
X67933996Y-78711778D01*
X67935079Y-78710072D01*
X67969826Y-78612193D01*
X68707000Y-78612193D01*
X68743937Y-78641855D01*
X68833598Y-78655267D01*
X68841055Y-78655333D01*
X68927528Y-78651244D01*
X68958429Y-78641283D01*
X68957472Y-78640122D01*
X68893893Y-78611119D01*
X68806572Y-78594866D01*
X68732327Y-78595466D01*
X68707000Y-78612193D01*
X67969826Y-78612193D01*
X68007522Y-78506010D01*
X69003132Y-78506010D01*
X69046352Y-78512082D01*
X69155254Y-78514748D01*
X69172667Y-78514783D01*
X69288969Y-78512616D01*
X69340754Y-78506898D01*
X69318531Y-78498807D01*
X69310250Y-78497709D01*
X69161807Y-78490704D01*
X69035083Y-78497709D01*
X69003132Y-78506010D01*
X68007522Y-78506010D01*
X68009210Y-78501256D01*
X68015090Y-78327910D01*
X67990609Y-78253167D01*
X68664667Y-78253167D01*
X68685833Y-78274333D01*
X68707000Y-78253167D01*
X68685833Y-78232000D01*
X68664667Y-78253167D01*
X67990609Y-78253167D01*
X67981268Y-78224651D01*
X67979955Y-78221879D01*
X68894694Y-78221879D01*
X68936305Y-78228658D01*
X68991212Y-78220874D01*
X68991868Y-78206423D01*
X68935209Y-78196318D01*
X68910729Y-78203081D01*
X68894694Y-78221879D01*
X67979955Y-78221879D01*
X67958723Y-78177081D01*
X69410765Y-78177081D01*
X69469000Y-78182982D01*
X69529098Y-78176330D01*
X69521917Y-78161630D01*
X69435245Y-78156039D01*
X69416083Y-78161630D01*
X69410765Y-78177081D01*
X67958723Y-78177081D01*
X67912461Y-78079476D01*
X67879924Y-78022059D01*
X68537667Y-78022059D01*
X68576579Y-78033874D01*
X68680051Y-78040314D01*
X68828183Y-78041942D01*
X69001077Y-78039321D01*
X69178832Y-78033014D01*
X69341552Y-78023582D01*
X69469335Y-78011590D01*
X69542284Y-77997598D01*
X69550139Y-77993430D01*
X69517546Y-77987531D01*
X69415803Y-77982674D01*
X69260423Y-77979338D01*
X69066921Y-77978006D01*
X69052722Y-77978000D01*
X68814937Y-77981535D01*
X68647080Y-77991825D01*
X68554669Y-78008399D01*
X68537667Y-78022059D01*
X67879924Y-78022059D01*
X67822060Y-77919951D01*
X67799079Y-77883281D01*
X67711101Y-77742414D01*
X67708565Y-77738111D01*
X68636444Y-77738111D01*
X68642255Y-77763278D01*
X68664667Y-77766333D01*
X68699512Y-77750844D01*
X68692889Y-77738111D01*
X68642649Y-77733044D01*
X68636444Y-77738111D01*
X67708565Y-77738111D01*
X67687773Y-77702833D01*
X68326000Y-77702833D01*
X68347167Y-77724000D01*
X68368333Y-77702833D01*
X68347167Y-77681667D01*
X68326000Y-77702833D01*
X67687773Y-77702833D01*
X67662823Y-77660500D01*
X68580000Y-77660500D01*
X68601167Y-77681667D01*
X68622333Y-77660500D01*
X68601167Y-77639333D01*
X68580000Y-77660500D01*
X67662823Y-77660500D01*
X67644188Y-77628884D01*
X67638633Y-77618167D01*
X68834000Y-77618167D01*
X68855167Y-77639333D01*
X68876333Y-77618167D01*
X68855167Y-77597000D01*
X68834000Y-77618167D01*
X67638633Y-77618167D01*
X67616687Y-77575833D01*
X69088000Y-77575833D01*
X69109167Y-77597000D01*
X69130333Y-77575833D01*
X69109167Y-77554667D01*
X69088000Y-77575833D01*
X67616687Y-77575833D01*
X67609102Y-77561202D01*
X67606333Y-77551764D01*
X67570287Y-77521019D01*
X67489917Y-77492736D01*
X67486324Y-77491167D01*
X70654333Y-77491167D01*
X70675500Y-77512333D01*
X70696667Y-77491167D01*
X70675500Y-77470000D01*
X70654333Y-77491167D01*
X67486324Y-77491167D01*
X67389377Y-77448833D01*
X70950667Y-77448833D01*
X70971833Y-77470000D01*
X70993000Y-77448833D01*
X70971833Y-77427667D01*
X70950667Y-77448833D01*
X67389377Y-77448833D01*
X67367080Y-77439097D01*
X67342802Y-77419869D01*
X68088563Y-77419869D01*
X68089658Y-77421989D01*
X68137047Y-77438400D01*
X68219534Y-77437695D01*
X68296086Y-77423418D01*
X68326000Y-77401565D01*
X68289081Y-77390243D01*
X68199914Y-77385339D01*
X68196501Y-77385333D01*
X68113788Y-77395407D01*
X68088563Y-77419869D01*
X67342802Y-77419869D01*
X67286416Y-77375212D01*
X68386694Y-77375212D01*
X68428305Y-77381991D01*
X68483212Y-77374208D01*
X68483868Y-77359757D01*
X68427209Y-77349651D01*
X68402729Y-77356415D01*
X68386694Y-77375212D01*
X67286416Y-77375212D01*
X67258746Y-77353298D01*
X67229835Y-77314778D01*
X68086111Y-77314778D01*
X68091922Y-77339945D01*
X68114333Y-77343000D01*
X68149178Y-77327511D01*
X68146225Y-77321833D01*
X68622333Y-77321833D01*
X68643500Y-77343000D01*
X68664667Y-77321833D01*
X68643500Y-77300667D01*
X68622333Y-77321833D01*
X68146225Y-77321833D01*
X68142555Y-77314778D01*
X68092316Y-77309711D01*
X68086111Y-77314778D01*
X67229835Y-77314778D01*
X67198062Y-77272444D01*
X68255444Y-77272444D01*
X68261255Y-77297611D01*
X68283667Y-77300667D01*
X68318512Y-77285177D01*
X68315560Y-77279500D01*
X68834000Y-77279500D01*
X68855167Y-77300667D01*
X68876333Y-77279500D01*
X68855167Y-77258333D01*
X68834000Y-77279500D01*
X68315560Y-77279500D01*
X68311889Y-77272444D01*
X68261649Y-77267378D01*
X68255444Y-77272444D01*
X67198062Y-77272444D01*
X67186361Y-77256855D01*
X67182756Y-77237167D01*
X68453000Y-77237167D01*
X68474167Y-77258333D01*
X68495333Y-77237167D01*
X68474167Y-77216000D01*
X68453000Y-77237167D01*
X67182756Y-77237167D01*
X67175003Y-77194833D01*
X68622333Y-77194833D01*
X68643500Y-77216000D01*
X68664667Y-77194833D01*
X68643500Y-77173667D01*
X68622333Y-77194833D01*
X67175003Y-77194833D01*
X67170964Y-77172785D01*
X67170036Y-77152500D01*
X68791667Y-77152500D01*
X68812833Y-77173667D01*
X68834000Y-77152500D01*
X68812833Y-77131333D01*
X68791667Y-77152500D01*
X67170036Y-77152500D01*
X67168098Y-77110167D01*
X68961000Y-77110167D01*
X68982167Y-77131333D01*
X69003333Y-77110167D01*
X71924333Y-77110167D01*
X71945500Y-77131333D01*
X71966667Y-77110167D01*
X71945500Y-77089000D01*
X71924333Y-77110167D01*
X69003333Y-77110167D01*
X68982167Y-77089000D01*
X68961000Y-77110167D01*
X67168098Y-77110167D01*
X67166846Y-77082819D01*
X67161885Y-77067833D01*
X69130333Y-77067833D01*
X69151500Y-77089000D01*
X69172667Y-77067833D01*
X69165612Y-77060778D01*
X72150111Y-77060778D01*
X72155922Y-77085945D01*
X72178333Y-77089000D01*
X72213178Y-77073511D01*
X72206555Y-77060778D01*
X72156316Y-77055711D01*
X72150111Y-77060778D01*
X69165612Y-77060778D01*
X69151500Y-77046667D01*
X69130333Y-77067833D01*
X67161885Y-77067833D01*
X67147868Y-77025500D01*
X68114333Y-77025500D01*
X68135500Y-77046667D01*
X68156667Y-77025500D01*
X69299667Y-77025500D01*
X69320833Y-77046667D01*
X69330955Y-77036545D01*
X72323694Y-77036545D01*
X72365305Y-77043324D01*
X72420212Y-77035541D01*
X72420868Y-77021090D01*
X72364209Y-77010984D01*
X72339729Y-77017748D01*
X72323694Y-77036545D01*
X69330955Y-77036545D01*
X69342000Y-77025500D01*
X69320833Y-77004333D01*
X69299667Y-77025500D01*
X68156667Y-77025500D01*
X68135500Y-77004333D01*
X68114333Y-77025500D01*
X67147868Y-77025500D01*
X67133852Y-76983167D01*
X69469000Y-76983167D01*
X69490167Y-77004333D01*
X69511333Y-76983167D01*
X69490167Y-76962000D01*
X69469000Y-76983167D01*
X67133852Y-76983167D01*
X67129194Y-76969102D01*
X67123806Y-76957912D01*
X67113176Y-76933778D01*
X69652444Y-76933778D01*
X69658255Y-76958945D01*
X69680667Y-76962000D01*
X69715512Y-76946511D01*
X69708889Y-76933778D01*
X69658649Y-76928711D01*
X69652444Y-76933778D01*
X67113176Y-76933778D01*
X67102503Y-76909545D01*
X69783694Y-76909545D01*
X69825305Y-76916324D01*
X69880212Y-76908541D01*
X69880868Y-76894090D01*
X69824209Y-76883984D01*
X69799729Y-76890748D01*
X69783694Y-76909545D01*
X67102503Y-76909545D01*
X67078991Y-76856167D01*
X68580000Y-76856167D01*
X68601167Y-76877333D01*
X68622333Y-76856167D01*
X68876333Y-76856167D01*
X68897500Y-76877333D01*
X68907621Y-76867212D01*
X69953027Y-76867212D01*
X69994639Y-76873991D01*
X70049546Y-76866208D01*
X70050201Y-76851757D01*
X69993543Y-76841651D01*
X69969062Y-76848415D01*
X69953027Y-76867212D01*
X68907621Y-76867212D01*
X68918667Y-76856167D01*
X68897500Y-76835000D01*
X68876333Y-76856167D01*
X68622333Y-76856167D01*
X68601167Y-76835000D01*
X68580000Y-76856167D01*
X67078991Y-76856167D01*
X67069879Y-76835481D01*
X67068259Y-76813833D01*
X68707000Y-76813833D01*
X68728167Y-76835000D01*
X68749333Y-76813833D01*
X69003333Y-76813833D01*
X69024500Y-76835000D01*
X69045667Y-76813833D01*
X69024500Y-76792667D01*
X69003333Y-76813833D01*
X68749333Y-76813833D01*
X68728167Y-76792667D01*
X68707000Y-76813833D01*
X67068259Y-76813833D01*
X67065100Y-76771652D01*
X67065512Y-76771500D01*
X68791667Y-76771500D01*
X68812833Y-76792667D01*
X68834000Y-76771500D01*
X69130333Y-76771500D01*
X69151500Y-76792667D01*
X69172667Y-76771500D01*
X69151500Y-76750333D01*
X69130333Y-76771500D01*
X68834000Y-76771500D01*
X68812833Y-76750333D01*
X68791667Y-76771500D01*
X67065512Y-76771500D01*
X67111895Y-76754416D01*
X67163606Y-76761033D01*
X67250886Y-76758950D01*
X67281231Y-76729167D01*
X68918667Y-76729167D01*
X68939833Y-76750333D01*
X68961000Y-76729167D01*
X69257333Y-76729167D01*
X69278500Y-76750333D01*
X69299667Y-76729167D01*
X69278500Y-76708000D01*
X69257333Y-76729167D01*
X68961000Y-76729167D01*
X68939833Y-76708000D01*
X68918667Y-76729167D01*
X67281231Y-76729167D01*
X67312760Y-76698223D01*
X67319147Y-76686833D01*
X69045667Y-76686833D01*
X69066833Y-76708000D01*
X69088000Y-76686833D01*
X69080945Y-76679778D01*
X69398444Y-76679778D01*
X69404255Y-76704945D01*
X69426667Y-76708000D01*
X69461512Y-76692511D01*
X69454889Y-76679778D01*
X69404649Y-76674711D01*
X69398444Y-76679778D01*
X69080945Y-76679778D01*
X69066833Y-76665667D01*
X69045667Y-76686833D01*
X67319147Y-76686833D01*
X67332940Y-76662237D01*
X67342703Y-76637444D01*
X69525444Y-76637444D01*
X69531255Y-76662611D01*
X69553667Y-76665667D01*
X69588512Y-76650177D01*
X69581889Y-76637444D01*
X69531649Y-76632378D01*
X69525444Y-76637444D01*
X67342703Y-76637444D01*
X67356595Y-76602167D01*
X69680667Y-76602167D01*
X69701833Y-76623333D01*
X69723000Y-76602167D01*
X69701833Y-76581000D01*
X69680667Y-76602167D01*
X67356595Y-76602167D01*
X67373267Y-76559833D01*
X69807667Y-76559833D01*
X69828833Y-76581000D01*
X69850000Y-76559833D01*
X69828833Y-76538667D01*
X69807667Y-76559833D01*
X67373267Y-76559833D01*
X67377622Y-76548776D01*
X67383374Y-76517500D01*
X69934667Y-76517500D01*
X69955833Y-76538667D01*
X69977000Y-76517500D01*
X69955833Y-76496333D01*
X69934667Y-76517500D01*
X67383374Y-76517500D01*
X67394667Y-76456102D01*
X67421646Y-76386465D01*
X67480023Y-76372154D01*
X67535953Y-76414532D01*
X67550642Y-76449824D01*
X67573401Y-76502200D01*
X67618677Y-76502245D01*
X67674924Y-76475167D01*
X70061667Y-76475167D01*
X70082833Y-76496333D01*
X70104000Y-76475167D01*
X70082833Y-76454000D01*
X70061667Y-76475167D01*
X67674924Y-76475167D01*
X67684262Y-76470672D01*
X67761753Y-76432833D01*
X70188667Y-76432833D01*
X70209833Y-76454000D01*
X70231000Y-76432833D01*
X70209833Y-76411667D01*
X70188667Y-76432833D01*
X67761753Y-76432833D01*
X67785032Y-76421466D01*
X67927955Y-76356548D01*
X68040445Y-76307758D01*
X68044268Y-76305833D01*
X70104000Y-76305833D01*
X70125167Y-76327000D01*
X70146333Y-76305833D01*
X70125167Y-76284667D01*
X70104000Y-76305833D01*
X68044268Y-76305833D01*
X68128355Y-76263500D01*
X70231000Y-76263500D01*
X70252167Y-76284667D01*
X70273333Y-76263500D01*
X70252167Y-76242333D01*
X70231000Y-76263500D01*
X68128355Y-76263500D01*
X68204343Y-76225245D01*
X68209021Y-76221167D01*
X70866000Y-76221167D01*
X70887167Y-76242333D01*
X70908333Y-76221167D01*
X70887167Y-76200000D01*
X70866000Y-76221167D01*
X68209021Y-76221167D01*
X68257584Y-76178833D01*
X70442667Y-76178833D01*
X70463833Y-76200000D01*
X70485000Y-76178833D01*
X70463833Y-76157667D01*
X70442667Y-76178833D01*
X68257584Y-76178833D01*
X68298644Y-76143040D01*
X68302274Y-76136500D01*
X70569667Y-76136500D01*
X70590833Y-76157667D01*
X70612000Y-76136500D01*
X70590833Y-76115333D01*
X70569667Y-76136500D01*
X68302274Y-76136500D01*
X68325770Y-76094167D01*
X70696667Y-76094167D01*
X70717833Y-76115333D01*
X70739000Y-76094167D01*
X70717833Y-76073000D01*
X70696667Y-76094167D01*
X68325770Y-76094167D01*
X68326498Y-76092857D01*
X68349908Y-75998494D01*
X68344971Y-75942447D01*
X68360301Y-75912303D01*
X68412131Y-75903666D01*
X68498470Y-75939081D01*
X68525400Y-75988333D01*
X68548726Y-76056686D01*
X68560783Y-76073000D01*
X68602107Y-76056194D01*
X68611850Y-76051833D01*
X70781333Y-76051833D01*
X70802500Y-76073000D01*
X70823667Y-76051833D01*
X70802500Y-76030667D01*
X70781333Y-76051833D01*
X68611850Y-76051833D01*
X68703802Y-76010679D01*
X68706373Y-76009500D01*
X70908333Y-76009500D01*
X70929500Y-76030667D01*
X70950667Y-76009500D01*
X70929500Y-75988333D01*
X70908333Y-76009500D01*
X68706373Y-76009500D01*
X68798694Y-75967167D01*
X71035333Y-75967167D01*
X71056500Y-75988333D01*
X71077667Y-75967167D01*
X71056500Y-75946000D01*
X71035333Y-75967167D01*
X68798694Y-75967167D01*
X68849634Y-75943809D01*
X68905629Y-75917778D01*
X71134111Y-75917778D01*
X71139922Y-75942945D01*
X71162333Y-75946000D01*
X71197178Y-75930511D01*
X71190555Y-75917778D01*
X71140316Y-75912711D01*
X71134111Y-75917778D01*
X68905629Y-75917778D01*
X68989762Y-75878667D01*
X68996804Y-75875444D01*
X71261111Y-75875444D01*
X71266922Y-75900611D01*
X71289333Y-75903667D01*
X71324178Y-75888177D01*
X71317555Y-75875444D01*
X71267316Y-75870378D01*
X71261111Y-75875444D01*
X68996804Y-75875444D01*
X69073890Y-75840167D01*
X71374000Y-75840167D01*
X71395167Y-75861333D01*
X71416333Y-75840167D01*
X71395167Y-75819000D01*
X71374000Y-75840167D01*
X69073890Y-75840167D01*
X69181813Y-75790778D01*
X71472778Y-75790778D01*
X71478589Y-75815945D01*
X71501000Y-75819000D01*
X71535845Y-75803511D01*
X71529222Y-75790778D01*
X71478982Y-75785711D01*
X71472778Y-75790778D01*
X69181813Y-75790778D01*
X69254473Y-75757527D01*
X69275115Y-75748444D01*
X71599778Y-75748444D01*
X71605589Y-75773611D01*
X71628000Y-75776667D01*
X71662845Y-75761177D01*
X71656222Y-75748444D01*
X71605982Y-75743378D01*
X71599778Y-75748444D01*
X69275115Y-75748444D01*
X69355287Y-75713167D01*
X71712667Y-75713167D01*
X71733833Y-75734333D01*
X71755000Y-75713167D01*
X71733833Y-75692000D01*
X71712667Y-75713167D01*
X69355287Y-75713167D01*
X69467531Y-75663778D01*
X71811444Y-75663778D01*
X71817255Y-75688945D01*
X71839667Y-75692000D01*
X71874512Y-75676511D01*
X71867889Y-75663778D01*
X71817649Y-75658711D01*
X71811444Y-75663778D01*
X69467531Y-75663778D01*
X69519059Y-75641105D01*
X69519597Y-75640877D01*
X71932782Y-75640877D01*
X71945500Y-75648370D01*
X72015069Y-75627292D01*
X72051333Y-75607333D01*
X72085218Y-75573789D01*
X72072500Y-75566296D01*
X72002930Y-75587374D01*
X71966667Y-75607333D01*
X71932782Y-75640877D01*
X69519597Y-75640877D01*
X69765540Y-75536778D01*
X72150111Y-75536778D01*
X72155922Y-75561945D01*
X72178333Y-75565000D01*
X72213178Y-75549511D01*
X72206555Y-75536778D01*
X72156316Y-75531711D01*
X72150111Y-75536778D01*
X69765540Y-75536778D01*
X69770637Y-75534621D01*
X69996320Y-75443297D01*
X70183223Y-75372355D01*
X70318461Y-75327014D01*
X70387200Y-75312408D01*
X70430563Y-75320874D01*
X70413009Y-75353459D01*
X70360343Y-75399950D01*
X70256853Y-75486082D01*
X70370927Y-75457452D01*
X70461147Y-75449599D01*
X70485000Y-75480613D01*
X70504929Y-75506714D01*
X70572655Y-75475119D01*
X70580250Y-75470220D01*
X70659696Y-75428366D01*
X70795992Y-75366318D01*
X70966849Y-75293974D01*
X71077667Y-75249354D01*
X71219998Y-75188634D01*
X71423643Y-75095396D01*
X71674841Y-74976267D01*
X71959830Y-74837870D01*
X72264849Y-74686829D01*
X72576137Y-74529771D01*
X72636891Y-74498754D01*
X72924581Y-74352760D01*
X73187788Y-74221453D01*
X73417184Y-74109306D01*
X73603440Y-74020794D01*
X73737230Y-73960393D01*
X73809223Y-73932576D01*
X73818871Y-73931760D01*
X73827803Y-73991418D01*
D15*
%TO.C,Y1*%
X71596000Y-94106000D02*
X71596000Y-90806000D01*
X71596000Y-90806000D02*
X67596000Y-90806000D01*
%TO.C,U7*%
X91486000Y-52938000D02*
X89986000Y-52938000D01*
X89986000Y-52938000D02*
X89986000Y-53208000D01*
X89986000Y-53208000D02*
X87156000Y-53208000D01*
X91486000Y-59838000D02*
X89986000Y-59838000D01*
X89986000Y-59838000D02*
X89986000Y-59568000D01*
X89986000Y-59568000D02*
X88886000Y-59568000D01*
%TO.C,U6*%
X94366000Y-68942000D02*
X94366000Y-67682000D01*
X94366000Y-62122000D02*
X94366000Y-63382000D01*
X90606000Y-68942000D02*
X94366000Y-68942000D01*
X88356000Y-62122000D02*
X94366000Y-62122000D01*
%TO.C,U5*%
X57928000Y-63560000D02*
G75*
G02*
X59928000Y-63560000I1000000J0D01*
G01*
X59928000Y-63560000D02*
X61378000Y-63560000D01*
X61378000Y-63560000D02*
X61378000Y-58360000D01*
X61378000Y-58360000D02*
X56478000Y-58360000D01*
X56478000Y-58360000D02*
X56478000Y-63560000D01*
X56478000Y-63560000D02*
X57928000Y-63560000D01*
%TO.C,U4*%
X62962000Y-106776000D02*
X62962000Y-107726000D01*
X62962000Y-107726000D02*
X63912000Y-107726000D01*
X62962000Y-98456000D02*
X62962000Y-97506000D01*
X62962000Y-97506000D02*
X63912000Y-97506000D01*
X73182000Y-106776000D02*
X73182000Y-107726000D01*
X73182000Y-107726000D02*
X72232000Y-107726000D01*
X73182000Y-98456000D02*
X73182000Y-97506000D01*
X73182000Y-97506000D02*
X72232000Y-97506000D01*
X72232000Y-97506000D02*
X72232000Y-96166000D01*
%TO.C,U3*%
X68072000Y-121089000D02*
X70797000Y-121089000D01*
X70797000Y-121089000D02*
X70797000Y-120829000D01*
X68072000Y-121089000D02*
X65347000Y-121089000D01*
X65347000Y-121089000D02*
X65347000Y-120829000D01*
X68072000Y-115639000D02*
X70797000Y-115639000D01*
X70797000Y-115639000D02*
X70797000Y-115899000D01*
X68072000Y-115639000D02*
X65347000Y-115639000D01*
X65347000Y-115639000D02*
X65347000Y-115899000D01*
X65347000Y-115899000D02*
X63672000Y-115899000D01*
%TO.C,U2*%
X58928000Y-68052000D02*
X56978000Y-68052000D01*
X58928000Y-68052000D02*
X60878000Y-68052000D01*
X58928000Y-73172000D02*
X56978000Y-73172000D01*
X58928000Y-73172000D02*
X62378000Y-73172000D01*
%TO.C,U1*%
X85968000Y-120482000D02*
X87768000Y-120482000D01*
X87768000Y-117262000D02*
X85318000Y-117262000D01*
%TO.C,SW2*%
X52650000Y-52506000D02*
X52650000Y-52476000D01*
X52650000Y-46046000D02*
X52650000Y-46076000D01*
X59110000Y-46046000D02*
X59110000Y-46076000D01*
X59110000Y-52476000D02*
X59110000Y-52506000D01*
X52650000Y-50576000D02*
X52650000Y-47976000D01*
X59110000Y-52506000D02*
X52650000Y-52506000D01*
X59110000Y-50576000D02*
X59110000Y-47976000D01*
X59110000Y-46046000D02*
X52650000Y-46046000D01*
%TO.C,SW1*%
X73478000Y-52506000D02*
X73478000Y-52476000D01*
X73478000Y-46046000D02*
X73478000Y-46076000D01*
X79938000Y-46046000D02*
X79938000Y-46076000D01*
X79938000Y-52476000D02*
X79938000Y-52506000D01*
X73478000Y-50576000D02*
X73478000Y-47976000D01*
X79938000Y-52506000D02*
X73478000Y-52506000D01*
X79938000Y-50576000D02*
X79938000Y-47976000D01*
X79938000Y-46046000D02*
X73478000Y-46046000D01*
%TO.C,R10*%
X89824779Y-71630000D02*
X89499221Y-71630000D01*
X89824779Y-70610000D02*
X89499221Y-70610000D01*
%TO.C,R9*%
X65781422Y-61774000D02*
X66298578Y-61774000D01*
X65781422Y-63194000D02*
X66298578Y-63194000D01*
%TO.C,R8*%
X89824779Y-74678000D02*
X89499221Y-74678000D01*
X89824779Y-73658000D02*
X89499221Y-73658000D01*
%TO.C,R7*%
X83564000Y-116494779D02*
X83564000Y-116169221D01*
X84584000Y-116494779D02*
X84584000Y-116169221D01*
%TO.C,R6*%
X89824779Y-77726000D02*
X89499221Y-77726000D01*
X89824779Y-76706000D02*
X89499221Y-76706000D01*
%TO.C,R5*%
X89824779Y-80774000D02*
X89499221Y-80774000D01*
X89824779Y-79754000D02*
X89499221Y-79754000D01*
%TO.C,R4*%
X52630000Y-70870578D02*
X52630000Y-70353422D01*
X54050000Y-70870578D02*
X54050000Y-70353422D01*
%TO.C,R3*%
X53502779Y-75186000D02*
X53177221Y-75186000D01*
X53502779Y-74166000D02*
X53177221Y-74166000D01*
%TO.C,R2*%
X64006000Y-92618779D02*
X64006000Y-92293221D01*
X65026000Y-92618779D02*
X65026000Y-92293221D01*
%TO.C,R1*%
X70102000Y-51470779D02*
X70102000Y-51145221D01*
X71122000Y-51470779D02*
X71122000Y-51145221D01*
%TO.C,J6*%
X38802000Y-77918000D02*
X38802000Y-83118000D01*
X41402000Y-77918000D02*
X38802000Y-77918000D01*
X44002000Y-83118000D02*
X38802000Y-83118000D01*
X41402000Y-77918000D02*
X41402000Y-80518000D01*
X41402000Y-80518000D02*
X44002000Y-80518000D01*
X44002000Y-80518000D02*
X44002000Y-83118000D01*
X42672000Y-77918000D02*
X44002000Y-77918000D01*
X44002000Y-77918000D02*
X44002000Y-79248000D01*
%TO.C,J4*%
X96834000Y-100270000D02*
X91634000Y-100270000D01*
X96834000Y-110490000D02*
X96834000Y-100270000D01*
X91634000Y-113090000D02*
X91634000Y-100270000D01*
X96834000Y-110490000D02*
X94234000Y-110490000D01*
X94234000Y-110490000D02*
X94234000Y-113090000D01*
X94234000Y-113090000D02*
X91634000Y-113090000D01*
X96834000Y-111760000D02*
X96834000Y-113090000D01*
X96834000Y-113090000D02*
X95504000Y-113090000D01*
%TO.C,J3*%
X37096000Y-87119000D02*
X46216000Y-87119000D01*
X46216000Y-87119000D02*
X46216000Y-128019000D01*
X46216000Y-128019000D02*
X37096000Y-128019000D01*
X37096000Y-128019000D02*
X37096000Y-87119000D01*
X37096000Y-105519000D02*
X38406000Y-105519000D01*
X38406000Y-105519000D02*
X38406000Y-88419000D01*
X38406000Y-88419000D02*
X44906000Y-88419000D01*
X44906000Y-88419000D02*
X44906000Y-126719000D01*
X44906000Y-126719000D02*
X38406000Y-126719000D01*
X38406000Y-126719000D02*
X38406000Y-109619000D01*
X38406000Y-109619000D02*
X38406000Y-109619000D01*
X38406000Y-109619000D02*
X37096000Y-109619000D01*
X36706000Y-92329000D02*
X35706000Y-91829000D01*
X35706000Y-91829000D02*
X35706000Y-92829000D01*
X35706000Y-92829000D02*
X36706000Y-92329000D01*
%TO.C,J2*%
X46556000Y-65736000D02*
X46556000Y-56626000D01*
X46556000Y-56626000D02*
X36736000Y-56626000D01*
X36736000Y-56626000D02*
X36736000Y-63926000D01*
X36736000Y-63926000D02*
X35336000Y-63926000D01*
X35336000Y-63926000D02*
X35336000Y-65736000D01*
X46556000Y-65736000D02*
X46556000Y-74846000D01*
X46556000Y-74846000D02*
X36736000Y-74846000D01*
X36736000Y-74846000D02*
X36736000Y-67546000D01*
X36736000Y-67546000D02*
X35336000Y-67546000D01*
X35336000Y-67546000D02*
X35336000Y-65736000D01*
X46796000Y-59236000D02*
X46796000Y-56386000D01*
X46796000Y-56386000D02*
X43946000Y-56386000D01*
%TO.C,J1*%
X93921000Y-120572000D02*
X93171000Y-120572000D01*
X93171000Y-120572000D02*
X93171000Y-119972000D01*
X93171000Y-120872000D02*
X93171000Y-123022000D01*
X93171000Y-114722000D02*
X96721000Y-114722000D01*
X96721000Y-123022000D02*
X96721000Y-120122000D01*
X93171000Y-123022000D02*
X96721000Y-123022000D01*
X96721000Y-114722000D02*
X96721000Y-117622000D01*
X93171000Y-116872000D02*
X93171000Y-114722000D01*
%TO.C,FB1*%
X62234578Y-90118000D02*
X61717422Y-90118000D01*
X62234578Y-88698000D02*
X61717422Y-88698000D01*
%TO.C,D7*%
X85360000Y-67782000D02*
X87360000Y-67782000D01*
X87360000Y-67782000D02*
X87360000Y-63882000D01*
X85360000Y-67782000D02*
X85360000Y-63882000D01*
%TO.C,D6*%
X92418000Y-71805000D02*
X94903000Y-71805000D01*
X94903000Y-71805000D02*
X94903000Y-70435000D01*
X94903000Y-70435000D02*
X92418000Y-70435000D01*
%TO.C,D5*%
X92418000Y-74853000D02*
X94903000Y-74853000D01*
X94903000Y-74853000D02*
X94903000Y-73483000D01*
X94903000Y-73483000D02*
X92418000Y-73483000D01*
%TO.C,D4*%
X92418000Y-77901000D02*
X94903000Y-77901000D01*
X94903000Y-77901000D02*
X94903000Y-76531000D01*
X94903000Y-76531000D02*
X92418000Y-76531000D01*
%TO.C,D3*%
X92418000Y-80949000D02*
X94903000Y-80949000D01*
X94903000Y-80949000D02*
X94903000Y-79579000D01*
X94903000Y-79579000D02*
X92418000Y-79579000D01*
%TO.C,D2*%
X91932000Y-116622000D02*
X89932000Y-116622000D01*
X89932000Y-116622000D02*
X89932000Y-120522000D01*
X91932000Y-116622000D02*
X91932000Y-120522000D01*
%TO.C,D1*%
X84820000Y-70902000D02*
X82820000Y-70902000D01*
X82820000Y-70902000D02*
X82820000Y-74802000D01*
X84820000Y-70902000D02*
X84820000Y-74802000D01*
%TO.C,C16*%
X73150000Y-115478779D02*
X73150000Y-115153221D01*
X74170000Y-115478779D02*
X74170000Y-115153221D01*
%TO.C,C15*%
X64518000Y-70449221D02*
X64518000Y-70774779D01*
X63498000Y-70449221D02*
X63498000Y-70774779D01*
%TO.C,C14*%
X62138779Y-93982000D02*
X61813221Y-93982000D01*
X62138779Y-92962000D02*
X61813221Y-92962000D01*
%TO.C,C13*%
X62138779Y-91950000D02*
X61813221Y-91950000D01*
X62138779Y-90930000D02*
X61813221Y-90930000D01*
%TO.C,C12*%
X73150000Y-95666779D02*
X73150000Y-95341221D01*
X74170000Y-95666779D02*
X74170000Y-95341221D01*
%TO.C,C11*%
X76037221Y-97026000D02*
X76362779Y-97026000D01*
X76037221Y-98046000D02*
X76362779Y-98046000D01*
%TO.C,C10*%
X74170000Y-109565221D02*
X74170000Y-109890779D01*
X73150000Y-109565221D02*
X73150000Y-109890779D01*
%TO.C,C9*%
X61122779Y-108714000D02*
X60797221Y-108714000D01*
X61122779Y-107694000D02*
X60797221Y-107694000D01*
%TO.C,C8*%
X60958000Y-96682779D02*
X60958000Y-96357221D01*
X61978000Y-96682779D02*
X61978000Y-96357221D01*
%TO.C,C7*%
X84998779Y-59438000D02*
X84673221Y-59438000D01*
X84998779Y-58418000D02*
X84673221Y-58418000D01*
%TO.C,C6*%
X83062578Y-66242000D02*
X82545422Y-66242000D01*
X83062578Y-64822000D02*
X82545422Y-64822000D01*
%TO.C,C5*%
X84998779Y-54358000D02*
X84673221Y-54358000D01*
X84998779Y-53338000D02*
X84673221Y-53338000D01*
%TO.C,C4*%
X83062578Y-68782000D02*
X82545422Y-68782000D01*
X83062578Y-67362000D02*
X82545422Y-67362000D01*
%TO.C,C3*%
X66038000Y-92618779D02*
X66038000Y-92293221D01*
X67058000Y-92618779D02*
X67058000Y-92293221D01*
%TO.C,C2*%
X72134000Y-92618779D02*
X72134000Y-92293221D01*
X73154000Y-92618779D02*
X73154000Y-92293221D01*
%TO.C,C1*%
X90078779Y-122938000D02*
X89753221Y-122938000D01*
X90078779Y-121918000D02*
X89753221Y-121918000D01*
%TO.C,R11*%
D16*
X47236142Y-89860380D02*
X46902809Y-89384190D01*
X46664714Y-89860380D02*
X46664714Y-88860380D01*
X47045666Y-88860380D01*
X47140904Y-88908000D01*
X47188523Y-88955619D01*
X47236142Y-89050857D01*
X47236142Y-89193714D01*
X47188523Y-89288952D01*
X47140904Y-89336571D01*
X47045666Y-89384190D01*
X46664714Y-89384190D01*
X48188523Y-89860380D02*
X47617095Y-89860380D01*
X47902809Y-89860380D02*
X47902809Y-88860380D01*
X47807571Y-89003238D01*
X47712333Y-89098476D01*
X47617095Y-89146095D01*
X49140904Y-89860380D02*
X48569476Y-89860380D01*
X48855190Y-89860380D02*
X48855190Y-88860380D01*
X48759952Y-89003238D01*
X48664714Y-89098476D01*
X48569476Y-89146095D01*
%TO.C,JP1*%
X86034666Y-112355380D02*
X86034666Y-113069666D01*
X85987047Y-113212523D01*
X85891809Y-113307761D01*
X85748952Y-113355380D01*
X85653714Y-113355380D01*
X86510857Y-113355380D02*
X86510857Y-112355380D01*
X86891809Y-112355380D01*
X86987047Y-112403000D01*
X87034666Y-112450619D01*
X87082285Y-112545857D01*
X87082285Y-112688714D01*
X87034666Y-112783952D01*
X86987047Y-112831571D01*
X86891809Y-112879190D01*
X86510857Y-112879190D01*
X88034666Y-113355380D02*
X87463238Y-113355380D01*
X87748952Y-113355380D02*
X87748952Y-112355380D01*
X87653714Y-112498238D01*
X87558476Y-112593476D01*
X87463238Y-112641095D01*
%TO.C,J5*%
X97837666Y-82637380D02*
X97837666Y-83351666D01*
X97790047Y-83494523D01*
X97694809Y-83589761D01*
X97551952Y-83637380D01*
X97456714Y-83637380D01*
X98790047Y-82637380D02*
X98313857Y-82637380D01*
X98266238Y-83113571D01*
X98313857Y-83065952D01*
X98409095Y-83018333D01*
X98647190Y-83018333D01*
X98742428Y-83065952D01*
X98790047Y-83113571D01*
X98837666Y-83208809D01*
X98837666Y-83446904D01*
X98790047Y-83542142D01*
X98742428Y-83589761D01*
X98647190Y-83637380D01*
X98409095Y-83637380D01*
X98313857Y-83589761D01*
X98266238Y-83542142D01*
%TO.C,D8*%
X47140904Y-97734380D02*
X47140904Y-96734380D01*
X47379000Y-96734380D01*
X47521857Y-96782000D01*
X47617095Y-96877238D01*
X47664714Y-96972476D01*
X47712333Y-97162952D01*
X47712333Y-97305809D01*
X47664714Y-97496285D01*
X47617095Y-97591523D01*
X47521857Y-97686761D01*
X47379000Y-97734380D01*
X47140904Y-97734380D01*
X48283761Y-97162952D02*
X48188523Y-97115333D01*
X48140904Y-97067714D01*
X48093285Y-96972476D01*
X48093285Y-96924857D01*
X48140904Y-96829619D01*
X48188523Y-96782000D01*
X48283761Y-96734380D01*
X48474238Y-96734380D01*
X48569476Y-96782000D01*
X48617095Y-96829619D01*
X48664714Y-96924857D01*
X48664714Y-96972476D01*
X48617095Y-97067714D01*
X48569476Y-97115333D01*
X48474238Y-97162952D01*
X48283761Y-97162952D01*
X48188523Y-97210571D01*
X48140904Y-97258190D01*
X48093285Y-97353428D01*
X48093285Y-97543904D01*
X48140904Y-97639142D01*
X48188523Y-97686761D01*
X48283761Y-97734380D01*
X48474238Y-97734380D01*
X48569476Y-97686761D01*
X48617095Y-97639142D01*
X48664714Y-97543904D01*
X48664714Y-97353428D01*
X48617095Y-97258190D01*
X48569476Y-97210571D01*
X48474238Y-97162952D01*
%TO.C,Y1*%
X69119809Y-89892190D02*
X69119809Y-90368380D01*
X68786476Y-89368380D02*
X69119809Y-89892190D01*
X69453142Y-89368380D01*
X70310285Y-90368380D02*
X69738857Y-90368380D01*
X70024571Y-90368380D02*
X70024571Y-89368380D01*
X69929333Y-89511238D01*
X69834095Y-89606476D01*
X69738857Y-89654095D01*
%TO.C,U7*%
X91694095Y-51340380D02*
X91694095Y-52149904D01*
X91741714Y-52245142D01*
X91789333Y-52292761D01*
X91884571Y-52340380D01*
X92075047Y-52340380D01*
X92170285Y-52292761D01*
X92217904Y-52245142D01*
X92265523Y-52149904D01*
X92265523Y-51340380D01*
X92646476Y-51340380D02*
X93313142Y-51340380D01*
X92884571Y-52340380D01*
%TO.C,U6*%
X95250095Y-60484380D02*
X95250095Y-61293904D01*
X95297714Y-61389142D01*
X95345333Y-61436761D01*
X95440571Y-61484380D01*
X95631047Y-61484380D01*
X95726285Y-61436761D01*
X95773904Y-61389142D01*
X95821523Y-61293904D01*
X95821523Y-60484380D01*
X96726285Y-60484380D02*
X96535809Y-60484380D01*
X96440571Y-60532000D01*
X96392952Y-60579619D01*
X96297714Y-60722476D01*
X96250095Y-60912952D01*
X96250095Y-61293904D01*
X96297714Y-61389142D01*
X96345333Y-61436761D01*
X96440571Y-61484380D01*
X96631047Y-61484380D01*
X96726285Y-61436761D01*
X96773904Y-61389142D01*
X96821523Y-61293904D01*
X96821523Y-61055809D01*
X96773904Y-60960571D01*
X96726285Y-60912952D01*
X96631047Y-60865333D01*
X96440571Y-60865333D01*
X96345333Y-60912952D01*
X96297714Y-60960571D01*
X96250095Y-61055809D01*
%TO.C,U5*%
X58166095Y-64012380D02*
X58166095Y-64821904D01*
X58213714Y-64917142D01*
X58261333Y-64964761D01*
X58356571Y-65012380D01*
X58547047Y-65012380D01*
X58642285Y-64964761D01*
X58689904Y-64917142D01*
X58737523Y-64821904D01*
X58737523Y-64012380D01*
X59689904Y-64012380D02*
X59213714Y-64012380D01*
X59166095Y-64488571D01*
X59213714Y-64440952D01*
X59308952Y-64393333D01*
X59547047Y-64393333D01*
X59642285Y-64440952D01*
X59689904Y-64488571D01*
X59737523Y-64583809D01*
X59737523Y-64821904D01*
X59689904Y-64917142D01*
X59642285Y-64964761D01*
X59547047Y-65012380D01*
X59308952Y-65012380D01*
X59213714Y-64964761D01*
X59166095Y-64917142D01*
%TO.C,U4*%
X73914095Y-107148380D02*
X73914095Y-107957904D01*
X73961714Y-108053142D01*
X74009333Y-108100761D01*
X74104571Y-108148380D01*
X74295047Y-108148380D01*
X74390285Y-108100761D01*
X74437904Y-108053142D01*
X74485523Y-107957904D01*
X74485523Y-107148380D01*
X75390285Y-107481714D02*
X75390285Y-108148380D01*
X75152190Y-107100761D02*
X74914095Y-107815047D01*
X75533142Y-107815047D01*
%TO.C,U3*%
X67310095Y-114256380D02*
X67310095Y-115065904D01*
X67357714Y-115161142D01*
X67405333Y-115208761D01*
X67500571Y-115256380D01*
X67691047Y-115256380D01*
X67786285Y-115208761D01*
X67833904Y-115161142D01*
X67881523Y-115065904D01*
X67881523Y-114256380D01*
X68262476Y-114256380D02*
X68881523Y-114256380D01*
X68548190Y-114637333D01*
X68691047Y-114637333D01*
X68786285Y-114684952D01*
X68833904Y-114732571D01*
X68881523Y-114827809D01*
X68881523Y-115065904D01*
X68833904Y-115161142D01*
X68786285Y-115208761D01*
X68691047Y-115256380D01*
X68405333Y-115256380D01*
X68310095Y-115208761D01*
X68262476Y-115161142D01*
%TO.C,U2*%
X58166095Y-73464380D02*
X58166095Y-74273904D01*
X58213714Y-74369142D01*
X58261333Y-74416761D01*
X58356571Y-74464380D01*
X58547047Y-74464380D01*
X58642285Y-74416761D01*
X58689904Y-74369142D01*
X58737523Y-74273904D01*
X58737523Y-73464380D01*
X59166095Y-73559619D02*
X59213714Y-73512000D01*
X59308952Y-73464380D01*
X59547047Y-73464380D01*
X59642285Y-73512000D01*
X59689904Y-73559619D01*
X59737523Y-73654857D01*
X59737523Y-73750095D01*
X59689904Y-73892952D01*
X59118476Y-74464380D01*
X59737523Y-74464380D01*
%TO.C,U1*%
X86106095Y-120991380D02*
X86106095Y-121800904D01*
X86153714Y-121896142D01*
X86201333Y-121943761D01*
X86296571Y-121991380D01*
X86487047Y-121991380D01*
X86582285Y-121943761D01*
X86629904Y-121896142D01*
X86677523Y-121800904D01*
X86677523Y-120991380D01*
X87677523Y-121991380D02*
X87106095Y-121991380D01*
X87391809Y-121991380D02*
X87391809Y-120991380D01*
X87296571Y-121134238D01*
X87201333Y-121229476D01*
X87106095Y-121277095D01*
%TO.C,SW2*%
X54546666Y-45616761D02*
X54689523Y-45664380D01*
X54927619Y-45664380D01*
X55022857Y-45616761D01*
X55070476Y-45569142D01*
X55118095Y-45473904D01*
X55118095Y-45378666D01*
X55070476Y-45283428D01*
X55022857Y-45235809D01*
X54927619Y-45188190D01*
X54737142Y-45140571D01*
X54641904Y-45092952D01*
X54594285Y-45045333D01*
X54546666Y-44950095D01*
X54546666Y-44854857D01*
X54594285Y-44759619D01*
X54641904Y-44712000D01*
X54737142Y-44664380D01*
X54975238Y-44664380D01*
X55118095Y-44712000D01*
X55451428Y-44664380D02*
X55689523Y-45664380D01*
X55880000Y-44950095D01*
X56070476Y-45664380D01*
X56308571Y-44664380D01*
X56641904Y-44759619D02*
X56689523Y-44712000D01*
X56784761Y-44664380D01*
X57022857Y-44664380D01*
X57118095Y-44712000D01*
X57165714Y-44759619D01*
X57213333Y-44854857D01*
X57213333Y-44950095D01*
X57165714Y-45092952D01*
X56594285Y-45664380D01*
X57213333Y-45664380D01*
%TO.C,SW1*%
X75374666Y-45616761D02*
X75517523Y-45664380D01*
X75755619Y-45664380D01*
X75850857Y-45616761D01*
X75898476Y-45569142D01*
X75946095Y-45473904D01*
X75946095Y-45378666D01*
X75898476Y-45283428D01*
X75850857Y-45235809D01*
X75755619Y-45188190D01*
X75565142Y-45140571D01*
X75469904Y-45092952D01*
X75422285Y-45045333D01*
X75374666Y-44950095D01*
X75374666Y-44854857D01*
X75422285Y-44759619D01*
X75469904Y-44712000D01*
X75565142Y-44664380D01*
X75803238Y-44664380D01*
X75946095Y-44712000D01*
X76279428Y-44664380D02*
X76517523Y-45664380D01*
X76708000Y-44950095D01*
X76898476Y-45664380D01*
X77136571Y-44664380D01*
X78041333Y-45664380D02*
X77469904Y-45664380D01*
X77755619Y-45664380D02*
X77755619Y-44664380D01*
X77660380Y-44807238D01*
X77565142Y-44902476D01*
X77469904Y-44950095D01*
%TO.C,R10*%
X89019142Y-73002380D02*
X88685809Y-72526190D01*
X88447714Y-73002380D02*
X88447714Y-72002380D01*
X88828666Y-72002380D01*
X88923904Y-72050000D01*
X88971523Y-72097619D01*
X89019142Y-72192857D01*
X89019142Y-72335714D01*
X88971523Y-72430952D01*
X88923904Y-72478571D01*
X88828666Y-72526190D01*
X88447714Y-72526190D01*
X89971523Y-73002380D02*
X89400095Y-73002380D01*
X89685809Y-73002380D02*
X89685809Y-72002380D01*
X89590571Y-72145238D01*
X89495333Y-72240476D01*
X89400095Y-72288095D01*
X90590571Y-72002380D02*
X90685809Y-72002380D01*
X90781047Y-72050000D01*
X90828666Y-72097619D01*
X90876285Y-72192857D01*
X90923904Y-72383333D01*
X90923904Y-72621428D01*
X90876285Y-72811904D01*
X90828666Y-72907142D01*
X90781047Y-72954761D01*
X90685809Y-73002380D01*
X90590571Y-73002380D01*
X90495333Y-72954761D01*
X90447714Y-72907142D01*
X90400095Y-72811904D01*
X90352476Y-72621428D01*
X90352476Y-72383333D01*
X90400095Y-72192857D01*
X90447714Y-72097619D01*
X90495333Y-72050000D01*
X90590571Y-72002380D01*
%TO.C,R9*%
X65873333Y-61286380D02*
X65540000Y-60810190D01*
X65301904Y-61286380D02*
X65301904Y-60286380D01*
X65682857Y-60286380D01*
X65778095Y-60334000D01*
X65825714Y-60381619D01*
X65873333Y-60476857D01*
X65873333Y-60619714D01*
X65825714Y-60714952D01*
X65778095Y-60762571D01*
X65682857Y-60810190D01*
X65301904Y-60810190D01*
X66349523Y-61286380D02*
X66540000Y-61286380D01*
X66635238Y-61238761D01*
X66682857Y-61191142D01*
X66778095Y-61048285D01*
X66825714Y-60857809D01*
X66825714Y-60476857D01*
X66778095Y-60381619D01*
X66730476Y-60334000D01*
X66635238Y-60286380D01*
X66444761Y-60286380D01*
X66349523Y-60334000D01*
X66301904Y-60381619D01*
X66254285Y-60476857D01*
X66254285Y-60714952D01*
X66301904Y-60810190D01*
X66349523Y-60857809D01*
X66444761Y-60905428D01*
X66635238Y-60905428D01*
X66730476Y-60857809D01*
X66778095Y-60810190D01*
X66825714Y-60714952D01*
%TO.C,R8*%
X89495333Y-76050380D02*
X89162000Y-75574190D01*
X88923904Y-76050380D02*
X88923904Y-75050380D01*
X89304857Y-75050380D01*
X89400095Y-75098000D01*
X89447714Y-75145619D01*
X89495333Y-75240857D01*
X89495333Y-75383714D01*
X89447714Y-75478952D01*
X89400095Y-75526571D01*
X89304857Y-75574190D01*
X88923904Y-75574190D01*
X90066761Y-75478952D02*
X89971523Y-75431333D01*
X89923904Y-75383714D01*
X89876285Y-75288476D01*
X89876285Y-75240857D01*
X89923904Y-75145619D01*
X89971523Y-75098000D01*
X90066761Y-75050380D01*
X90257238Y-75050380D01*
X90352476Y-75098000D01*
X90400095Y-75145619D01*
X90447714Y-75240857D01*
X90447714Y-75288476D01*
X90400095Y-75383714D01*
X90352476Y-75431333D01*
X90257238Y-75478952D01*
X90066761Y-75478952D01*
X89971523Y-75526571D01*
X89923904Y-75574190D01*
X89876285Y-75669428D01*
X89876285Y-75859904D01*
X89923904Y-75955142D01*
X89971523Y-76002761D01*
X90066761Y-76050380D01*
X90257238Y-76050380D01*
X90352476Y-76002761D01*
X90400095Y-75955142D01*
X90447714Y-75859904D01*
X90447714Y-75669428D01*
X90400095Y-75574190D01*
X90352476Y-75526571D01*
X90257238Y-75478952D01*
%TO.C,R7*%
X83907333Y-114752380D02*
X83574000Y-114276190D01*
X83335904Y-114752380D02*
X83335904Y-113752380D01*
X83716857Y-113752380D01*
X83812095Y-113800000D01*
X83859714Y-113847619D01*
X83907333Y-113942857D01*
X83907333Y-114085714D01*
X83859714Y-114180952D01*
X83812095Y-114228571D01*
X83716857Y-114276190D01*
X83335904Y-114276190D01*
X84240666Y-113752380D02*
X84907333Y-113752380D01*
X84478761Y-114752380D01*
%TO.C,R6*%
X89495333Y-79098380D02*
X89162000Y-78622190D01*
X88923904Y-79098380D02*
X88923904Y-78098380D01*
X89304857Y-78098380D01*
X89400095Y-78146000D01*
X89447714Y-78193619D01*
X89495333Y-78288857D01*
X89495333Y-78431714D01*
X89447714Y-78526952D01*
X89400095Y-78574571D01*
X89304857Y-78622190D01*
X88923904Y-78622190D01*
X90352476Y-78098380D02*
X90162000Y-78098380D01*
X90066761Y-78146000D01*
X90019142Y-78193619D01*
X89923904Y-78336476D01*
X89876285Y-78526952D01*
X89876285Y-78907904D01*
X89923904Y-79003142D01*
X89971523Y-79050761D01*
X90066761Y-79098380D01*
X90257238Y-79098380D01*
X90352476Y-79050761D01*
X90400095Y-79003142D01*
X90447714Y-78907904D01*
X90447714Y-78669809D01*
X90400095Y-78574571D01*
X90352476Y-78526952D01*
X90257238Y-78479333D01*
X90066761Y-78479333D01*
X89971523Y-78526952D01*
X89923904Y-78574571D01*
X89876285Y-78669809D01*
%TO.C,R5*%
X89495333Y-82146380D02*
X89162000Y-81670190D01*
X88923904Y-82146380D02*
X88923904Y-81146380D01*
X89304857Y-81146380D01*
X89400095Y-81194000D01*
X89447714Y-81241619D01*
X89495333Y-81336857D01*
X89495333Y-81479714D01*
X89447714Y-81574952D01*
X89400095Y-81622571D01*
X89304857Y-81670190D01*
X88923904Y-81670190D01*
X90400095Y-81146380D02*
X89923904Y-81146380D01*
X89876285Y-81622571D01*
X89923904Y-81574952D01*
X90019142Y-81527333D01*
X90257238Y-81527333D01*
X90352476Y-81574952D01*
X90400095Y-81622571D01*
X90447714Y-81717809D01*
X90447714Y-81955904D01*
X90400095Y-82051142D01*
X90352476Y-82098761D01*
X90257238Y-82146380D01*
X90019142Y-82146380D01*
X89923904Y-82098761D01*
X89876285Y-82051142D01*
%TO.C,R4*%
X53173333Y-68524380D02*
X52840000Y-68048190D01*
X52601904Y-68524380D02*
X52601904Y-67524380D01*
X52982857Y-67524380D01*
X53078095Y-67572000D01*
X53125714Y-67619619D01*
X53173333Y-67714857D01*
X53173333Y-67857714D01*
X53125714Y-67952952D01*
X53078095Y-68000571D01*
X52982857Y-68048190D01*
X52601904Y-68048190D01*
X54030476Y-67857714D02*
X54030476Y-68524380D01*
X53792380Y-67476761D02*
X53554285Y-68191047D01*
X54173333Y-68191047D01*
%TO.C,R3*%
X53173333Y-73858380D02*
X52840000Y-73382190D01*
X52601904Y-73858380D02*
X52601904Y-72858380D01*
X52982857Y-72858380D01*
X53078095Y-72906000D01*
X53125714Y-72953619D01*
X53173333Y-73048857D01*
X53173333Y-73191714D01*
X53125714Y-73286952D01*
X53078095Y-73334571D01*
X52982857Y-73382190D01*
X52601904Y-73382190D01*
X53506666Y-72858380D02*
X54125714Y-72858380D01*
X53792380Y-73239333D01*
X53935238Y-73239333D01*
X54030476Y-73286952D01*
X54078095Y-73334571D01*
X54125714Y-73429809D01*
X54125714Y-73667904D01*
X54078095Y-73763142D01*
X54030476Y-73810761D01*
X53935238Y-73858380D01*
X53649523Y-73858380D01*
X53554285Y-73810761D01*
X53506666Y-73763142D01*
%TO.C,R2*%
X64349333Y-90876380D02*
X64016000Y-90400190D01*
X63777904Y-90876380D02*
X63777904Y-89876380D01*
X64158857Y-89876380D01*
X64254095Y-89924000D01*
X64301714Y-89971619D01*
X64349333Y-90066857D01*
X64349333Y-90209714D01*
X64301714Y-90304952D01*
X64254095Y-90352571D01*
X64158857Y-90400190D01*
X63777904Y-90400190D01*
X64730285Y-89971619D02*
X64777904Y-89924000D01*
X64873142Y-89876380D01*
X65111238Y-89876380D01*
X65206476Y-89924000D01*
X65254095Y-89971619D01*
X65301714Y-90066857D01*
X65301714Y-90162095D01*
X65254095Y-90304952D01*
X64682666Y-90876380D01*
X65301714Y-90876380D01*
%TO.C,R1*%
X70445333Y-54300380D02*
X70112000Y-53824190D01*
X69873904Y-54300380D02*
X69873904Y-53300380D01*
X70254857Y-53300380D01*
X70350095Y-53348000D01*
X70397714Y-53395619D01*
X70445333Y-53490857D01*
X70445333Y-53633714D01*
X70397714Y-53728952D01*
X70350095Y-53776571D01*
X70254857Y-53824190D01*
X69873904Y-53824190D01*
X71397714Y-54300380D02*
X70826285Y-54300380D01*
X71112000Y-54300380D02*
X71112000Y-53300380D01*
X71016761Y-53443238D01*
X70921523Y-53538476D01*
X70826285Y-53586095D01*
%TO.C,J6*%
X43354666Y-76160380D02*
X43354666Y-76874666D01*
X43307047Y-77017523D01*
X43211809Y-77112761D01*
X43068952Y-77160380D01*
X42973714Y-77160380D01*
X44259428Y-76160380D02*
X44068952Y-76160380D01*
X43973714Y-76208000D01*
X43926095Y-76255619D01*
X43830857Y-76398476D01*
X43783238Y-76588952D01*
X43783238Y-76969904D01*
X43830857Y-77065142D01*
X43878476Y-77112761D01*
X43973714Y-77160380D01*
X44164190Y-77160380D01*
X44259428Y-77112761D01*
X44307047Y-77065142D01*
X44354666Y-76969904D01*
X44354666Y-76731809D01*
X44307047Y-76636571D01*
X44259428Y-76588952D01*
X44164190Y-76541333D01*
X43973714Y-76541333D01*
X43878476Y-76588952D01*
X43830857Y-76636571D01*
X43783238Y-76731809D01*
%TO.C,J4*%
X97964666Y-99909380D02*
X97964666Y-100623666D01*
X97917047Y-100766523D01*
X97821809Y-100861761D01*
X97678952Y-100909380D01*
X97583714Y-100909380D01*
X98869428Y-100242714D02*
X98869428Y-100909380D01*
X98631333Y-99861761D02*
X98393238Y-100576047D01*
X99012285Y-100576047D01*
%TO.C,J3*%
X45386666Y-85681380D02*
X45386666Y-86395666D01*
X45339047Y-86538523D01*
X45243809Y-86633761D01*
X45100952Y-86681380D01*
X45005714Y-86681380D01*
X45767619Y-85681380D02*
X46386666Y-85681380D01*
X46053333Y-86062333D01*
X46196190Y-86062333D01*
X46291428Y-86109952D01*
X46339047Y-86157571D01*
X46386666Y-86252809D01*
X46386666Y-86490904D01*
X46339047Y-86586142D01*
X46291428Y-86633761D01*
X46196190Y-86681380D01*
X45910476Y-86681380D01*
X45815238Y-86633761D01*
X45767619Y-86586142D01*
%TO.C,J2*%
X45894666Y-54824380D02*
X45894666Y-55538666D01*
X45847047Y-55681523D01*
X45751809Y-55776761D01*
X45608952Y-55824380D01*
X45513714Y-55824380D01*
X46323238Y-54919619D02*
X46370857Y-54872000D01*
X46466095Y-54824380D01*
X46704190Y-54824380D01*
X46799428Y-54872000D01*
X46847047Y-54919619D01*
X46894666Y-55014857D01*
X46894666Y-55110095D01*
X46847047Y-55252952D01*
X46275619Y-55824380D01*
X46894666Y-55824380D01*
%TO.C,J1*%
X95678666Y-123912380D02*
X95678666Y-124626666D01*
X95631047Y-124769523D01*
X95535809Y-124864761D01*
X95392952Y-124912380D01*
X95297714Y-124912380D01*
X96678666Y-124912380D02*
X96107238Y-124912380D01*
X96392952Y-124912380D02*
X96392952Y-123912380D01*
X96297714Y-124055238D01*
X96202476Y-124150476D01*
X96107238Y-124198095D01*
%TO.C,FB1*%
X58094666Y-89336571D02*
X57761333Y-89336571D01*
X57761333Y-89860380D02*
X57761333Y-88860380D01*
X58237523Y-88860380D01*
X58951809Y-89336571D02*
X59094666Y-89384190D01*
X59142285Y-89431809D01*
X59189904Y-89527047D01*
X59189904Y-89669904D01*
X59142285Y-89765142D01*
X59094666Y-89812761D01*
X58999428Y-89860380D01*
X58618476Y-89860380D01*
X58618476Y-88860380D01*
X58951809Y-88860380D01*
X59047047Y-88908000D01*
X59094666Y-88955619D01*
X59142285Y-89050857D01*
X59142285Y-89146095D01*
X59094666Y-89241333D01*
X59047047Y-89288952D01*
X58951809Y-89336571D01*
X58618476Y-89336571D01*
X60142285Y-89860380D02*
X59570857Y-89860380D01*
X59856571Y-89860380D02*
X59856571Y-88860380D01*
X59761333Y-89003238D01*
X59666095Y-89098476D01*
X59570857Y-89146095D01*
%TO.C,D7*%
X85621904Y-62936380D02*
X85621904Y-61936380D01*
X85860000Y-61936380D01*
X86002857Y-61984000D01*
X86098095Y-62079238D01*
X86145714Y-62174476D01*
X86193333Y-62364952D01*
X86193333Y-62507809D01*
X86145714Y-62698285D01*
X86098095Y-62793523D01*
X86002857Y-62888761D01*
X85860000Y-62936380D01*
X85621904Y-62936380D01*
X86526666Y-61936380D02*
X87193333Y-61936380D01*
X86764761Y-62936380D01*
%TO.C,D6*%
X92479904Y-72952380D02*
X92479904Y-71952380D01*
X92718000Y-71952380D01*
X92860857Y-72000000D01*
X92956095Y-72095238D01*
X93003714Y-72190476D01*
X93051333Y-72380952D01*
X93051333Y-72523809D01*
X93003714Y-72714285D01*
X92956095Y-72809523D01*
X92860857Y-72904761D01*
X92718000Y-72952380D01*
X92479904Y-72952380D01*
X93908476Y-71952380D02*
X93718000Y-71952380D01*
X93622761Y-72000000D01*
X93575142Y-72047619D01*
X93479904Y-72190476D01*
X93432285Y-72380952D01*
X93432285Y-72761904D01*
X93479904Y-72857142D01*
X93527523Y-72904761D01*
X93622761Y-72952380D01*
X93813238Y-72952380D01*
X93908476Y-72904761D01*
X93956095Y-72857142D01*
X94003714Y-72761904D01*
X94003714Y-72523809D01*
X93956095Y-72428571D01*
X93908476Y-72380952D01*
X93813238Y-72333333D01*
X93622761Y-72333333D01*
X93527523Y-72380952D01*
X93479904Y-72428571D01*
X93432285Y-72523809D01*
%TO.C,D5*%
X92479904Y-76000380D02*
X92479904Y-75000380D01*
X92718000Y-75000380D01*
X92860857Y-75048000D01*
X92956095Y-75143238D01*
X93003714Y-75238476D01*
X93051333Y-75428952D01*
X93051333Y-75571809D01*
X93003714Y-75762285D01*
X92956095Y-75857523D01*
X92860857Y-75952761D01*
X92718000Y-76000380D01*
X92479904Y-76000380D01*
X93956095Y-75000380D02*
X93479904Y-75000380D01*
X93432285Y-75476571D01*
X93479904Y-75428952D01*
X93575142Y-75381333D01*
X93813238Y-75381333D01*
X93908476Y-75428952D01*
X93956095Y-75476571D01*
X94003714Y-75571809D01*
X94003714Y-75809904D01*
X93956095Y-75905142D01*
X93908476Y-75952761D01*
X93813238Y-76000380D01*
X93575142Y-76000380D01*
X93479904Y-75952761D01*
X93432285Y-75905142D01*
%TO.C,D4*%
X92479904Y-79048380D02*
X92479904Y-78048380D01*
X92718000Y-78048380D01*
X92860857Y-78096000D01*
X92956095Y-78191238D01*
X93003714Y-78286476D01*
X93051333Y-78476952D01*
X93051333Y-78619809D01*
X93003714Y-78810285D01*
X92956095Y-78905523D01*
X92860857Y-79000761D01*
X92718000Y-79048380D01*
X92479904Y-79048380D01*
X93908476Y-78381714D02*
X93908476Y-79048380D01*
X93670380Y-78000761D02*
X93432285Y-78715047D01*
X94051333Y-78715047D01*
%TO.C,D3*%
X92479904Y-82096380D02*
X92479904Y-81096380D01*
X92718000Y-81096380D01*
X92860857Y-81144000D01*
X92956095Y-81239238D01*
X93003714Y-81334476D01*
X93051333Y-81524952D01*
X93051333Y-81667809D01*
X93003714Y-81858285D01*
X92956095Y-81953523D01*
X92860857Y-82048761D01*
X92718000Y-82096380D01*
X92479904Y-82096380D01*
X93384666Y-81096380D02*
X94003714Y-81096380D01*
X93670380Y-81477333D01*
X93813238Y-81477333D01*
X93908476Y-81524952D01*
X93956095Y-81572571D01*
X94003714Y-81667809D01*
X94003714Y-81905904D01*
X93956095Y-82001142D01*
X93908476Y-82048761D01*
X93813238Y-82096380D01*
X93527523Y-82096380D01*
X93432285Y-82048761D01*
X93384666Y-82001142D01*
%TO.C,D2*%
X90193904Y-116276380D02*
X90193904Y-115276380D01*
X90432000Y-115276380D01*
X90574857Y-115324000D01*
X90670095Y-115419238D01*
X90717714Y-115514476D01*
X90765333Y-115704952D01*
X90765333Y-115847809D01*
X90717714Y-116038285D01*
X90670095Y-116133523D01*
X90574857Y-116228761D01*
X90432000Y-116276380D01*
X90193904Y-116276380D01*
X91146285Y-115371619D02*
X91193904Y-115324000D01*
X91289142Y-115276380D01*
X91527238Y-115276380D01*
X91622476Y-115324000D01*
X91670095Y-115371619D01*
X91717714Y-115466857D01*
X91717714Y-115562095D01*
X91670095Y-115704952D01*
X91098666Y-116276380D01*
X91717714Y-116276380D01*
%TO.C,D1*%
X83081904Y-70556380D02*
X83081904Y-69556380D01*
X83320000Y-69556380D01*
X83462857Y-69604000D01*
X83558095Y-69699238D01*
X83605714Y-69794476D01*
X83653333Y-69984952D01*
X83653333Y-70127809D01*
X83605714Y-70318285D01*
X83558095Y-70413523D01*
X83462857Y-70508761D01*
X83320000Y-70556380D01*
X83081904Y-70556380D01*
X84605714Y-70556380D02*
X84034285Y-70556380D01*
X84320000Y-70556380D02*
X84320000Y-69556380D01*
X84224761Y-69699238D01*
X84129523Y-69794476D01*
X84034285Y-69842095D01*
%TO.C,C16*%
X75430142Y-116562142D02*
X75382523Y-116609761D01*
X75239666Y-116657380D01*
X75144428Y-116657380D01*
X75001571Y-116609761D01*
X74906333Y-116514523D01*
X74858714Y-116419285D01*
X74811095Y-116228809D01*
X74811095Y-116085952D01*
X74858714Y-115895476D01*
X74906333Y-115800238D01*
X75001571Y-115705000D01*
X75144428Y-115657380D01*
X75239666Y-115657380D01*
X75382523Y-115705000D01*
X75430142Y-115752619D01*
X76382523Y-116657380D02*
X75811095Y-116657380D01*
X76096809Y-116657380D02*
X76096809Y-115657380D01*
X76001571Y-115800238D01*
X75906333Y-115895476D01*
X75811095Y-115943095D01*
X77239666Y-115657380D02*
X77049190Y-115657380D01*
X76953952Y-115705000D01*
X76906333Y-115752619D01*
X76811095Y-115895476D01*
X76763476Y-116085952D01*
X76763476Y-116466904D01*
X76811095Y-116562142D01*
X76858714Y-116609761D01*
X76953952Y-116657380D01*
X77144428Y-116657380D01*
X77239666Y-116609761D01*
X77287285Y-116562142D01*
X77334904Y-116466904D01*
X77334904Y-116228809D01*
X77287285Y-116133571D01*
X77239666Y-116085952D01*
X77144428Y-116038333D01*
X76953952Y-116038333D01*
X76858714Y-116085952D01*
X76811095Y-116133571D01*
X76763476Y-116228809D01*
%TO.C,C15*%
X63365142Y-68429142D02*
X63317523Y-68476761D01*
X63174666Y-68524380D01*
X63079428Y-68524380D01*
X62936571Y-68476761D01*
X62841333Y-68381523D01*
X62793714Y-68286285D01*
X62746095Y-68095809D01*
X62746095Y-67952952D01*
X62793714Y-67762476D01*
X62841333Y-67667238D01*
X62936571Y-67572000D01*
X63079428Y-67524380D01*
X63174666Y-67524380D01*
X63317523Y-67572000D01*
X63365142Y-67619619D01*
X64317523Y-68524380D02*
X63746095Y-68524380D01*
X64031809Y-68524380D02*
X64031809Y-67524380D01*
X63936571Y-67667238D01*
X63841333Y-67762476D01*
X63746095Y-67810095D01*
X65222285Y-67524380D02*
X64746095Y-67524380D01*
X64698476Y-68000571D01*
X64746095Y-67952952D01*
X64841333Y-67905333D01*
X65079428Y-67905333D01*
X65174666Y-67952952D01*
X65222285Y-68000571D01*
X65269904Y-68095809D01*
X65269904Y-68333904D01*
X65222285Y-68429142D01*
X65174666Y-68476761D01*
X65079428Y-68524380D01*
X64841333Y-68524380D01*
X64746095Y-68476761D01*
X64698476Y-68429142D01*
%TO.C,C14*%
X58285142Y-93829142D02*
X58237523Y-93876761D01*
X58094666Y-93924380D01*
X57999428Y-93924380D01*
X57856571Y-93876761D01*
X57761333Y-93781523D01*
X57713714Y-93686285D01*
X57666095Y-93495809D01*
X57666095Y-93352952D01*
X57713714Y-93162476D01*
X57761333Y-93067238D01*
X57856571Y-92972000D01*
X57999428Y-92924380D01*
X58094666Y-92924380D01*
X58237523Y-92972000D01*
X58285142Y-93019619D01*
X59237523Y-93924380D02*
X58666095Y-93924380D01*
X58951809Y-93924380D02*
X58951809Y-92924380D01*
X58856571Y-93067238D01*
X58761333Y-93162476D01*
X58666095Y-93210095D01*
X60094666Y-93257714D02*
X60094666Y-93924380D01*
X59856571Y-92876761D02*
X59618476Y-93591047D01*
X60237523Y-93591047D01*
%TO.C,C13*%
X58285142Y-91797142D02*
X58237523Y-91844761D01*
X58094666Y-91892380D01*
X57999428Y-91892380D01*
X57856571Y-91844761D01*
X57761333Y-91749523D01*
X57713714Y-91654285D01*
X57666095Y-91463809D01*
X57666095Y-91320952D01*
X57713714Y-91130476D01*
X57761333Y-91035238D01*
X57856571Y-90940000D01*
X57999428Y-90892380D01*
X58094666Y-90892380D01*
X58237523Y-90940000D01*
X58285142Y-90987619D01*
X59237523Y-91892380D02*
X58666095Y-91892380D01*
X58951809Y-91892380D02*
X58951809Y-90892380D01*
X58856571Y-91035238D01*
X58761333Y-91130476D01*
X58666095Y-91178095D01*
X59570857Y-90892380D02*
X60189904Y-90892380D01*
X59856571Y-91273333D01*
X59999428Y-91273333D01*
X60094666Y-91320952D01*
X60142285Y-91368571D01*
X60189904Y-91463809D01*
X60189904Y-91701904D01*
X60142285Y-91797142D01*
X60094666Y-91844761D01*
X59999428Y-91892380D01*
X59713714Y-91892380D01*
X59618476Y-91844761D01*
X59570857Y-91797142D01*
%TO.C,C12*%
X75557142Y-94845142D02*
X75509523Y-94892761D01*
X75366666Y-94940380D01*
X75271428Y-94940380D01*
X75128571Y-94892761D01*
X75033333Y-94797523D01*
X74985714Y-94702285D01*
X74938095Y-94511809D01*
X74938095Y-94368952D01*
X74985714Y-94178476D01*
X75033333Y-94083238D01*
X75128571Y-93988000D01*
X75271428Y-93940380D01*
X75366666Y-93940380D01*
X75509523Y-93988000D01*
X75557142Y-94035619D01*
X76509523Y-94940380D02*
X75938095Y-94940380D01*
X76223809Y-94940380D02*
X76223809Y-93940380D01*
X76128571Y-94083238D01*
X76033333Y-94178476D01*
X75938095Y-94226095D01*
X76890476Y-94035619D02*
X76938095Y-93988000D01*
X77033333Y-93940380D01*
X77271428Y-93940380D01*
X77366666Y-93988000D01*
X77414285Y-94035619D01*
X77461904Y-94130857D01*
X77461904Y-94226095D01*
X77414285Y-94368952D01*
X76842857Y-94940380D01*
X77461904Y-94940380D01*
%TO.C,C11*%
X75557142Y-96369142D02*
X75509523Y-96416761D01*
X75366666Y-96464380D01*
X75271428Y-96464380D01*
X75128571Y-96416761D01*
X75033333Y-96321523D01*
X74985714Y-96226285D01*
X74938095Y-96035809D01*
X74938095Y-95892952D01*
X74985714Y-95702476D01*
X75033333Y-95607238D01*
X75128571Y-95512000D01*
X75271428Y-95464380D01*
X75366666Y-95464380D01*
X75509523Y-95512000D01*
X75557142Y-95559619D01*
X76509523Y-96464380D02*
X75938095Y-96464380D01*
X76223809Y-96464380D02*
X76223809Y-95464380D01*
X76128571Y-95607238D01*
X76033333Y-95702476D01*
X75938095Y-95750095D01*
X77461904Y-96464380D02*
X76890476Y-96464380D01*
X77176190Y-96464380D02*
X77176190Y-95464380D01*
X77080952Y-95607238D01*
X76985714Y-95702476D01*
X76890476Y-95750095D01*
%TO.C,C10*%
X70731142Y-111101142D02*
X70683523Y-111148761D01*
X70540666Y-111196380D01*
X70445428Y-111196380D01*
X70302571Y-111148761D01*
X70207333Y-111053523D01*
X70159714Y-110958285D01*
X70112095Y-110767809D01*
X70112095Y-110624952D01*
X70159714Y-110434476D01*
X70207333Y-110339238D01*
X70302571Y-110244000D01*
X70445428Y-110196380D01*
X70540666Y-110196380D01*
X70683523Y-110244000D01*
X70731142Y-110291619D01*
X71683523Y-111196380D02*
X71112095Y-111196380D01*
X71397809Y-111196380D02*
X71397809Y-110196380D01*
X71302571Y-110339238D01*
X71207333Y-110434476D01*
X71112095Y-110482095D01*
X72302571Y-110196380D02*
X72397809Y-110196380D01*
X72493047Y-110244000D01*
X72540666Y-110291619D01*
X72588285Y-110386857D01*
X72635904Y-110577333D01*
X72635904Y-110815428D01*
X72588285Y-111005904D01*
X72540666Y-111101142D01*
X72493047Y-111148761D01*
X72397809Y-111196380D01*
X72302571Y-111196380D01*
X72207333Y-111148761D01*
X72159714Y-111101142D01*
X72112095Y-111005904D01*
X72064476Y-110815428D01*
X72064476Y-110577333D01*
X72112095Y-110386857D01*
X72159714Y-110291619D01*
X72207333Y-110244000D01*
X72302571Y-110196380D01*
%TO.C,C9*%
X60793333Y-110085142D02*
X60745714Y-110132761D01*
X60602857Y-110180380D01*
X60507619Y-110180380D01*
X60364761Y-110132761D01*
X60269523Y-110037523D01*
X60221904Y-109942285D01*
X60174285Y-109751809D01*
X60174285Y-109608952D01*
X60221904Y-109418476D01*
X60269523Y-109323238D01*
X60364761Y-109228000D01*
X60507619Y-109180380D01*
X60602857Y-109180380D01*
X60745714Y-109228000D01*
X60793333Y-109275619D01*
X61269523Y-110180380D02*
X61460000Y-110180380D01*
X61555238Y-110132761D01*
X61602857Y-110085142D01*
X61698095Y-109942285D01*
X61745714Y-109751809D01*
X61745714Y-109370857D01*
X61698095Y-109275619D01*
X61650476Y-109228000D01*
X61555238Y-109180380D01*
X61364761Y-109180380D01*
X61269523Y-109228000D01*
X61221904Y-109275619D01*
X61174285Y-109370857D01*
X61174285Y-109608952D01*
X61221904Y-109704190D01*
X61269523Y-109751809D01*
X61364761Y-109799428D01*
X61555238Y-109799428D01*
X61650476Y-109751809D01*
X61698095Y-109704190D01*
X61745714Y-109608952D01*
%TO.C,C8*%
X59269333Y-96877142D02*
X59221714Y-96924761D01*
X59078857Y-96972380D01*
X58983619Y-96972380D01*
X58840761Y-96924761D01*
X58745523Y-96829523D01*
X58697904Y-96734285D01*
X58650285Y-96543809D01*
X58650285Y-96400952D01*
X58697904Y-96210476D01*
X58745523Y-96115238D01*
X58840761Y-96020000D01*
X58983619Y-95972380D01*
X59078857Y-95972380D01*
X59221714Y-96020000D01*
X59269333Y-96067619D01*
X59840761Y-96400952D02*
X59745523Y-96353333D01*
X59697904Y-96305714D01*
X59650285Y-96210476D01*
X59650285Y-96162857D01*
X59697904Y-96067619D01*
X59745523Y-96020000D01*
X59840761Y-95972380D01*
X60031238Y-95972380D01*
X60126476Y-96020000D01*
X60174095Y-96067619D01*
X60221714Y-96162857D01*
X60221714Y-96210476D01*
X60174095Y-96305714D01*
X60126476Y-96353333D01*
X60031238Y-96400952D01*
X59840761Y-96400952D01*
X59745523Y-96448571D01*
X59697904Y-96496190D01*
X59650285Y-96591428D01*
X59650285Y-96781904D01*
X59697904Y-96877142D01*
X59745523Y-96924761D01*
X59840761Y-96972380D01*
X60031238Y-96972380D01*
X60126476Y-96924761D01*
X60174095Y-96877142D01*
X60221714Y-96781904D01*
X60221714Y-96591428D01*
X60174095Y-96496190D01*
X60126476Y-96448571D01*
X60031238Y-96400952D01*
%TO.C,C7*%
X84669333Y-57761142D02*
X84621714Y-57808761D01*
X84478857Y-57856380D01*
X84383619Y-57856380D01*
X84240761Y-57808761D01*
X84145523Y-57713523D01*
X84097904Y-57618285D01*
X84050285Y-57427809D01*
X84050285Y-57284952D01*
X84097904Y-57094476D01*
X84145523Y-56999238D01*
X84240761Y-56904000D01*
X84383619Y-56856380D01*
X84478857Y-56856380D01*
X84621714Y-56904000D01*
X84669333Y-56951619D01*
X85002666Y-56856380D02*
X85669333Y-56856380D01*
X85240761Y-57856380D01*
%TO.C,C6*%
X79589333Y-65889142D02*
X79541714Y-65936761D01*
X79398857Y-65984380D01*
X79303619Y-65984380D01*
X79160761Y-65936761D01*
X79065523Y-65841523D01*
X79017904Y-65746285D01*
X78970285Y-65555809D01*
X78970285Y-65412952D01*
X79017904Y-65222476D01*
X79065523Y-65127238D01*
X79160761Y-65032000D01*
X79303619Y-64984380D01*
X79398857Y-64984380D01*
X79541714Y-65032000D01*
X79589333Y-65079619D01*
X80446476Y-64984380D02*
X80256000Y-64984380D01*
X80160761Y-65032000D01*
X80113142Y-65079619D01*
X80017904Y-65222476D01*
X79970285Y-65412952D01*
X79970285Y-65793904D01*
X80017904Y-65889142D01*
X80065523Y-65936761D01*
X80160761Y-65984380D01*
X80351238Y-65984380D01*
X80446476Y-65936761D01*
X80494095Y-65889142D01*
X80541714Y-65793904D01*
X80541714Y-65555809D01*
X80494095Y-65460571D01*
X80446476Y-65412952D01*
X80351238Y-65365333D01*
X80160761Y-65365333D01*
X80065523Y-65412952D01*
X80017904Y-65460571D01*
X79970285Y-65555809D01*
%TO.C,C5*%
X84669333Y-55635142D02*
X84621714Y-55682761D01*
X84478857Y-55730380D01*
X84383619Y-55730380D01*
X84240761Y-55682761D01*
X84145523Y-55587523D01*
X84097904Y-55492285D01*
X84050285Y-55301809D01*
X84050285Y-55158952D01*
X84097904Y-54968476D01*
X84145523Y-54873238D01*
X84240761Y-54778000D01*
X84383619Y-54730380D01*
X84478857Y-54730380D01*
X84621714Y-54778000D01*
X84669333Y-54825619D01*
X85574095Y-54730380D02*
X85097904Y-54730380D01*
X85050285Y-55206571D01*
X85097904Y-55158952D01*
X85193142Y-55111333D01*
X85431238Y-55111333D01*
X85526476Y-55158952D01*
X85574095Y-55206571D01*
X85621714Y-55301809D01*
X85621714Y-55539904D01*
X85574095Y-55635142D01*
X85526476Y-55682761D01*
X85431238Y-55730380D01*
X85193142Y-55730380D01*
X85097904Y-55682761D01*
X85050285Y-55635142D01*
%TO.C,C4*%
X79589333Y-68429142D02*
X79541714Y-68476761D01*
X79398857Y-68524380D01*
X79303619Y-68524380D01*
X79160761Y-68476761D01*
X79065523Y-68381523D01*
X79017904Y-68286285D01*
X78970285Y-68095809D01*
X78970285Y-67952952D01*
X79017904Y-67762476D01*
X79065523Y-67667238D01*
X79160761Y-67572000D01*
X79303619Y-67524380D01*
X79398857Y-67524380D01*
X79541714Y-67572000D01*
X79589333Y-67619619D01*
X80446476Y-67857714D02*
X80446476Y-68524380D01*
X80208380Y-67476761D02*
X79970285Y-68191047D01*
X80589333Y-68191047D01*
%TO.C,C3*%
X66381333Y-90781142D02*
X66333714Y-90828761D01*
X66190857Y-90876380D01*
X66095619Y-90876380D01*
X65952761Y-90828761D01*
X65857523Y-90733523D01*
X65809904Y-90638285D01*
X65762285Y-90447809D01*
X65762285Y-90304952D01*
X65809904Y-90114476D01*
X65857523Y-90019238D01*
X65952761Y-89924000D01*
X66095619Y-89876380D01*
X66190857Y-89876380D01*
X66333714Y-89924000D01*
X66381333Y-89971619D01*
X66714666Y-89876380D02*
X67333714Y-89876380D01*
X67000380Y-90257333D01*
X67143238Y-90257333D01*
X67238476Y-90304952D01*
X67286095Y-90352571D01*
X67333714Y-90447809D01*
X67333714Y-90685904D01*
X67286095Y-90781142D01*
X67238476Y-90828761D01*
X67143238Y-90876380D01*
X66857523Y-90876380D01*
X66762285Y-90828761D01*
X66714666Y-90781142D01*
%TO.C,C2*%
X72477333Y-90781142D02*
X72429714Y-90828761D01*
X72286857Y-90876380D01*
X72191619Y-90876380D01*
X72048761Y-90828761D01*
X71953523Y-90733523D01*
X71905904Y-90638285D01*
X71858285Y-90447809D01*
X71858285Y-90304952D01*
X71905904Y-90114476D01*
X71953523Y-90019238D01*
X72048761Y-89924000D01*
X72191619Y-89876380D01*
X72286857Y-89876380D01*
X72429714Y-89924000D01*
X72477333Y-89971619D01*
X72858285Y-89971619D02*
X72905904Y-89924000D01*
X73001142Y-89876380D01*
X73239238Y-89876380D01*
X73334476Y-89924000D01*
X73382095Y-89971619D01*
X73429714Y-90066857D01*
X73429714Y-90162095D01*
X73382095Y-90304952D01*
X72810666Y-90876380D01*
X73429714Y-90876380D01*
%TO.C,C1*%
X89749333Y-124215142D02*
X89701714Y-124262761D01*
X89558857Y-124310380D01*
X89463619Y-124310380D01*
X89320761Y-124262761D01*
X89225523Y-124167523D01*
X89177904Y-124072285D01*
X89130285Y-123881809D01*
X89130285Y-123738952D01*
X89177904Y-123548476D01*
X89225523Y-123453238D01*
X89320761Y-123358000D01*
X89463619Y-123310380D01*
X89558857Y-123310380D01*
X89701714Y-123358000D01*
X89749333Y-123405619D01*
X90701714Y-124310380D02*
X90130285Y-124310380D01*
X90416000Y-124310380D02*
X90416000Y-123310380D01*
X90320761Y-123453238D01*
X90225523Y-123548476D01*
X90130285Y-123596095D01*
%TD*%
M02*
