%TF.GenerationSoftware,KiCad,Pcbnew,5.1.6*%
%TF.CreationDate,2020-12-14T11:26:32-03:00*%
%TF.ProjectId,MCU_Comms_Control,4d43555f-436f-46d6-9d73-5f436f6e7472,rev?*%
%TF.SameCoordinates,Original*%
%TF.FileFunction,Soldermask,Bot*%
%TF.FilePolarity,Negative*%
%FSLAX46Y46*%
G04 Gerber Fmt 4.6, Leading zero omitted, Abs format (unit mm)*
G04 Created by KiCad (PCBNEW 5.1.6) date 2020-12-14 11:26:32*
%MOMM*%
%LPD*%
G01*
G04 APERTURE LIST*
%ADD10O,1.700000X1.700000*%
%ADD11R,1.700000X1.700000*%
%ADD12C,6.400000*%
%ADD13C,0.800000*%
%ADD14C,1.700000*%
%ADD15O,3.300000X2.700000*%
%ADD16O,1.100000X2.200000*%
%ADD17O,1.100000X1.800000*%
G04 APERTURE END LIST*
D10*
%TO.C,J7*%
X49657000Y-69342000D03*
D11*
X49657000Y-71882000D03*
%TD*%
D10*
%TO.C,J5*%
X95377000Y-84328000D03*
X95377000Y-86868000D03*
X95377000Y-89408000D03*
X95377000Y-91948000D03*
X95377000Y-94488000D03*
D11*
X95377000Y-97028000D03*
%TD*%
D12*
%TO.C,REF\u002A\u002A*%
X96012000Y-47244000D03*
D13*
X98412000Y-47244000D03*
X97709056Y-48941056D03*
X96012000Y-49644000D03*
X94314944Y-48941056D03*
X93612000Y-47244000D03*
X94314944Y-45546944D03*
X96012000Y-44844000D03*
X97709056Y-45546944D03*
%TD*%
%TO.C,REF\u002A\u002A*%
X97709056Y-132414944D03*
X96012000Y-131712000D03*
X94314944Y-132414944D03*
X93612000Y-134112000D03*
X94314944Y-135809056D03*
X96012000Y-136512000D03*
X97709056Y-135809056D03*
X98412000Y-134112000D03*
D12*
X96012000Y-134112000D03*
%TD*%
%TO.C,REF\u002A\u002A*%
X34036000Y-134114000D03*
D13*
X36436000Y-134114000D03*
X35733056Y-135811056D03*
X34036000Y-136514000D03*
X32338944Y-135811056D03*
X31636000Y-134114000D03*
X32338944Y-132416944D03*
X34036000Y-131714000D03*
X35733056Y-132416944D03*
%TD*%
%TO.C,REF\u002A\u002A*%
X35733056Y-45546944D03*
X34036000Y-44844000D03*
X32338944Y-45546944D03*
X31636000Y-47244000D03*
X32338944Y-48941056D03*
X34036000Y-49644000D03*
X35733056Y-48941056D03*
X36436000Y-47244000D03*
D12*
X34036000Y-47244000D03*
%TD*%
D10*
%TO.C,J6*%
X40132000Y-81788000D03*
X40132000Y-79248000D03*
X42672000Y-81788000D03*
D11*
X42672000Y-79248000D03*
%TD*%
D10*
%TO.C,J4*%
X92964000Y-101600000D03*
X95504000Y-101600000D03*
X92964000Y-104140000D03*
X95504000Y-104140000D03*
X92964000Y-106680000D03*
X95504000Y-106680000D03*
X92964000Y-109220000D03*
X95504000Y-109220000D03*
X92964000Y-111760000D03*
D11*
X95504000Y-111760000D03*
%TD*%
D14*
%TO.C,J3*%
X42926000Y-122809000D03*
X42926000Y-120269000D03*
X42926000Y-117729000D03*
X42926000Y-115189000D03*
X42926000Y-112649000D03*
X42926000Y-110109000D03*
X42926000Y-107569000D03*
X42926000Y-105029000D03*
X42926000Y-102489000D03*
X42926000Y-99949000D03*
X42926000Y-97409000D03*
X42926000Y-94869000D03*
X42926000Y-92329000D03*
X40386000Y-122809000D03*
X40386000Y-120269000D03*
X40386000Y-117729000D03*
X40386000Y-115189000D03*
X40386000Y-112649000D03*
X40386000Y-110109000D03*
X40386000Y-107569000D03*
X40386000Y-105029000D03*
X40386000Y-102489000D03*
X40386000Y-99949000D03*
X40386000Y-97409000D03*
X40386000Y-94869000D03*
G36*
G01*
X39536000Y-92929000D02*
X39536000Y-91729000D01*
G75*
G02*
X39786000Y-91479000I250000J0D01*
G01*
X40986000Y-91479000D01*
G75*
G02*
X41236000Y-91729000I0J-250000D01*
G01*
X41236000Y-92929000D01*
G75*
G02*
X40986000Y-93179000I-250000J0D01*
G01*
X39786000Y-93179000D01*
G75*
G02*
X39536000Y-92929000I0J250000D01*
G01*
G37*
%TD*%
D15*
%TO.C,J2*%
X38696000Y-72036000D03*
X38696000Y-67836000D03*
X38696000Y-63636000D03*
X38696000Y-59436000D03*
X44196000Y-72036000D03*
X44196000Y-67836000D03*
X44196000Y-63636000D03*
G36*
G01*
X42796001Y-58086000D02*
X45595999Y-58086000D01*
G75*
G02*
X45846000Y-58336001I0J-250001D01*
G01*
X45846000Y-60535999D01*
G75*
G02*
X45595999Y-60786000I-250001J0D01*
G01*
X42796001Y-60786000D01*
G75*
G02*
X42546000Y-60535999I0J250001D01*
G01*
X42546000Y-58336001D01*
G75*
G02*
X42796001Y-58086000I250001J0D01*
G01*
G37*
%TD*%
D16*
%TO.C,J1*%
X96071000Y-118872000D03*
D17*
X93921000Y-116072000D03*
X93921000Y-121672000D03*
%TD*%
M02*
