%TF.GenerationSoftware,KiCad,Pcbnew,5.1.6*%
%TF.CreationDate,2020-12-09T16:02:00-03:00*%
%TF.ProjectId,MCU_Comms_Control,4d43555f-436f-46d6-9d73-5f436f6e7472,rev?*%
%TF.SameCoordinates,Original*%
%TF.FileFunction,Copper,L4,Bot*%
%TF.FilePolarity,Positive*%
%FSLAX46Y46*%
G04 Gerber Fmt 4.6, Leading zero omitted, Abs format (unit mm)*
G04 Created by KiCad (PCBNEW 5.1.6) date 2020-12-09 16:02:00*
%MOMM*%
%LPD*%
G01*
G04 APERTURE LIST*
%TA.AperFunction,ComponentPad*%
%ADD10R,1.700000X1.700000*%
%TD*%
%TA.AperFunction,ComponentPad*%
%ADD11O,1.700000X1.700000*%
%TD*%
%TA.AperFunction,ComponentPad*%
%ADD12O,1.100000X2.200000*%
%TD*%
%TA.AperFunction,ComponentPad*%
%ADD13O,1.100000X1.800000*%
%TD*%
%TA.AperFunction,ComponentPad*%
%ADD14C,0.800000*%
%TD*%
%TA.AperFunction,ComponentPad*%
%ADD15C,6.400000*%
%TD*%
%TA.AperFunction,ComponentPad*%
%ADD16O,2.700000X3.300000*%
%TD*%
%TA.AperFunction,ComponentPad*%
%ADD17C,1.700000*%
%TD*%
%TA.AperFunction,ViaPad*%
%ADD18C,0.800000*%
%TD*%
%TA.AperFunction,ViaPad*%
%ADD19C,0.500000*%
%TD*%
%TA.AperFunction,Conductor*%
%ADD20C,0.250000*%
%TD*%
%TA.AperFunction,Conductor*%
%ADD21C,0.203200*%
%TD*%
%TA.AperFunction,Conductor*%
%ADD22C,0.254000*%
%TD*%
G04 APERTURE END LIST*
D10*
%TO.P,J4,1*%
%TO.N,~RESET*%
X110236000Y-88900000D03*
D11*
%TO.P,J4,2*%
%TO.N,SWCLK*%
X107696000Y-88900000D03*
%TO.P,J4,3*%
%TO.N,SWO*%
X110236000Y-86360000D03*
%TO.P,J4,4*%
%TO.N,SWDIO*%
X107696000Y-86360000D03*
%TO.P,J4,5*%
%TO.N,GND*%
X110236000Y-83820000D03*
%TO.P,J4,6*%
X107696000Y-83820000D03*
%TO.P,J4,7*%
%TO.N,+3V3*%
X110236000Y-81280000D03*
%TO.P,J4,8*%
X107696000Y-81280000D03*
%TO.P,J4,9*%
%TO.N,Net-(D1-Pad2)*%
X110236000Y-78740000D03*
%TO.P,J4,10*%
X107696000Y-78740000D03*
%TD*%
%TO.P,J6,4*%
%TO.N,GND*%
X110236000Y-71374000D03*
%TO.P,J6,3*%
%TO.N,+3V3*%
X110236000Y-73914000D03*
%TO.P,J6,2*%
%TO.N,Net-(J6-Pad2)*%
X107696000Y-71374000D03*
D10*
%TO.P,J6,1*%
%TO.N,Net-(J6-Pad1)*%
X107696000Y-73914000D03*
%TD*%
D12*
%TO.P,J1,6*%
%TO.N,GND*%
X110549000Y-97282000D03*
D13*
X108399000Y-94482000D03*
X108399000Y-100082000D03*
%TD*%
D14*
%TO.P,REF\u002A\u002A,1*%
%TO.N,N/C*%
X110409056Y-43768944D03*
X108712000Y-43066000D03*
X107014944Y-43768944D03*
X106312000Y-45466000D03*
X107014944Y-47163056D03*
X108712000Y-47866000D03*
X110409056Y-47163056D03*
X111112000Y-45466000D03*
D15*
X108712000Y-45466000D03*
%TD*%
D14*
%TO.P,REF\u002A\u002A,1*%
%TO.N,N/C*%
X71801056Y-43768944D03*
X70104000Y-43066000D03*
X68406944Y-43768944D03*
X67704000Y-45466000D03*
X68406944Y-47163056D03*
X70104000Y-47866000D03*
X71801056Y-47163056D03*
X72504000Y-45466000D03*
D15*
X70104000Y-45466000D03*
%TD*%
D14*
%TO.P,REF\u002A\u002A,1*%
%TO.N,N/C*%
X110409056Y-104474944D03*
X108712000Y-103772000D03*
X107014944Y-104474944D03*
X106312000Y-106172000D03*
X107014944Y-107869056D03*
X108712000Y-108572000D03*
X110409056Y-107869056D03*
X111112000Y-106172000D03*
D15*
X108712000Y-106172000D03*
%TD*%
D14*
%TO.P,REF\u002A\u002A,1*%
%TO.N,N/C*%
X71801056Y-104474944D03*
X70104000Y-103772000D03*
X68406944Y-104474944D03*
X67704000Y-106172000D03*
X68406944Y-107869056D03*
X70104000Y-108572000D03*
X71801056Y-107869056D03*
X72504000Y-106172000D03*
D15*
X70104000Y-106172000D03*
%TD*%
%TO.P,J2,1*%
%TO.N,+12V*%
%TA.AperFunction,ComponentPad*%
G36*
G01*
X97616000Y-49400001D02*
X97616000Y-52199999D01*
G75*
G02*
X97365999Y-52450000I-250001J0D01*
G01*
X95166001Y-52450000D01*
G75*
G02*
X94916000Y-52199999I0J250001D01*
G01*
X94916000Y-49400001D01*
G75*
G02*
X95166001Y-49150000I250001J0D01*
G01*
X97365999Y-49150000D01*
G75*
G02*
X97616000Y-49400001I0J-250001D01*
G01*
G37*
%TD.AperFunction*%
D16*
%TO.P,J2,2*%
%TO.N,GND*%
X92066000Y-50800000D03*
%TO.P,J2,3*%
%TO.N,CAN_L*%
X87866000Y-50800000D03*
%TO.P,J2,4*%
%TO.N,CAN_H*%
X83666000Y-50800000D03*
%TO.P,J2,5*%
%TO.N,GND*%
X96266000Y-45300000D03*
%TO.P,J2,6*%
%TO.N,+12V*%
X92066000Y-45300000D03*
%TO.P,J2,7*%
%TO.N,~ERROR*%
X87866000Y-45300000D03*
%TO.P,J2,8*%
%TO.N,GND*%
X83666000Y-45300000D03*
%TD*%
%TO.P,J3,1*%
%TO.N,GND*%
%TA.AperFunction,ComponentPad*%
G36*
G01*
X73240000Y-95920000D02*
X73240000Y-97120000D01*
G75*
G02*
X72990000Y-97370000I-250000J0D01*
G01*
X71790000Y-97370000D01*
G75*
G02*
X71540000Y-97120000I0J250000D01*
G01*
X71540000Y-95920000D01*
G75*
G02*
X71790000Y-95670000I250000J0D01*
G01*
X72990000Y-95670000D01*
G75*
G02*
X73240000Y-95920000I0J-250000D01*
G01*
G37*
%TD.AperFunction*%
D17*
%TO.P,J3,3*%
%TO.N,+12V*%
X72390000Y-93980000D03*
%TO.P,J3,5*%
%TO.N,Net-(J3-Pad5)*%
X72390000Y-91440000D03*
%TO.P,J3,7*%
%TO.N,NTC_PWR*%
X72390000Y-88900000D03*
%TO.P,J3,9*%
%TO.N,CURR_U*%
X72390000Y-86360000D03*
%TO.P,J3,11*%
%TO.N,CURR_V*%
X72390000Y-83820000D03*
%TO.P,J3,13*%
%TO.N,CURR_W*%
X72390000Y-81280000D03*
%TO.P,J3,15*%
%TO.N,HALL3*%
X72390000Y-78740000D03*
%TO.P,J3,17*%
%TO.N,HALL2*%
X72390000Y-76200000D03*
%TO.P,J3,19*%
%TO.N,HALL1*%
X72390000Y-73660000D03*
%TO.P,J3,21*%
%TO.N,+5V*%
X72390000Y-71120000D03*
%TO.P,J3,23*%
%TO.N,+12V*%
X72390000Y-68580000D03*
%TO.P,J3,25*%
%TO.N,GND*%
X72390000Y-66040000D03*
%TO.P,J3,2*%
X69850000Y-96520000D03*
%TO.P,J3,4*%
%TO.N,+12V*%
X69850000Y-93980000D03*
%TO.P,J3,6*%
%TO.N,U_H*%
X69850000Y-91440000D03*
%TO.P,J3,8*%
%TO.N,V_H*%
X69850000Y-88900000D03*
%TO.P,J3,10*%
%TO.N,W_H*%
X69850000Y-86360000D03*
%TO.P,J3,12*%
%TO.N,U_L*%
X69850000Y-83820000D03*
%TO.P,J3,14*%
%TO.N,V_L*%
X69850000Y-81280000D03*
%TO.P,J3,16*%
%TO.N,W_L*%
X69850000Y-78740000D03*
%TO.P,J3,18*%
%TO.N,~ERROR*%
X69850000Y-76200000D03*
%TO.P,J3,20*%
%TO.N,ENABLE*%
X69850000Y-73660000D03*
%TO.P,J3,22*%
%TO.N,VBUS_SCALED*%
X69850000Y-71120000D03*
%TO.P,J3,24*%
%TO.N,+12V*%
X69850000Y-68580000D03*
%TO.P,J3,26*%
%TO.N,GND*%
X69850000Y-66040000D03*
%TD*%
D10*
%TO.P,J5,1*%
%TO.N,GND*%
X110236000Y-58928000D03*
D11*
%TO.P,J5,2*%
%TO.N,MULTI1*%
X110236000Y-61468000D03*
%TO.P,J5,3*%
%TO.N,MULTI0*%
X110236000Y-64008000D03*
%TO.P,J5,4*%
%TO.N,+3V3*%
X110236000Y-66548000D03*
%TD*%
D18*
%TO.N,GND*%
X96774000Y-92710000D03*
X98044000Y-90932000D03*
X89408000Y-100838000D03*
X111760000Y-50927000D03*
X111760000Y-55753000D03*
X111760000Y-53340000D03*
X111760000Y-52197000D03*
X111760000Y-54483000D03*
X103505000Y-53340000D03*
X104140000Y-48260000D03*
X79883000Y-108204000D03*
X76708000Y-108204000D03*
X91186000Y-108331000D03*
X76708000Y-99441000D03*
X81915000Y-97536000D03*
X103886000Y-92456000D03*
X90424000Y-86741000D03*
X93091000Y-58674000D03*
X99568000Y-71120000D03*
X102108000Y-75184000D03*
X103378000Y-75184000D03*
X100203000Y-67056000D03*
X94234000Y-64262000D03*
X82931000Y-92837000D03*
X92837000Y-75565000D03*
X90297000Y-75565000D03*
X84582000Y-78613000D03*
X96774000Y-80391000D03*
X85979000Y-71120000D03*
D19*
X82804000Y-81534000D03*
X74676000Y-81534000D03*
X74676000Y-87630000D03*
X74676000Y-90424000D03*
X78994000Y-78740000D03*
X81788000Y-88900000D03*
D18*
X103886000Y-88646000D03*
D19*
X101600000Y-97790000D03*
X98044000Y-95250000D03*
X90932000Y-94488000D03*
X99314000Y-93980000D03*
X87376000Y-76708000D03*
X76200000Y-83439000D03*
D18*
X73660000Y-42672000D03*
X67183000Y-48768000D03*
X72898000Y-109093000D03*
X67310000Y-103251000D03*
D19*
X90805000Y-79883000D03*
D18*
%TO.N,Net-(C1-Pad1)*%
X99822000Y-77216000D03*
X106172000Y-99568000D03*
D19*
X103662002Y-97790000D03*
D18*
%TO.N,+5V*%
X99568000Y-73406000D03*
%TO.N,+3V3*%
X94996000Y-90678000D03*
X94234000Y-82296000D03*
X91186000Y-106680000D03*
X83058000Y-73787000D03*
X97028000Y-82677000D03*
X96393000Y-90297000D03*
X86741000Y-93218000D03*
X84074000Y-89027000D03*
X85090000Y-68326000D03*
X94361000Y-71120000D03*
X94361000Y-69723000D03*
X94361000Y-72644000D03*
X96139000Y-64262000D03*
X75057000Y-50038000D03*
X107442000Y-92456000D03*
X84074000Y-73787000D03*
D19*
X86868000Y-90932000D03*
D18*
X103886000Y-70104000D03*
%TO.N,Net-(D1-Pad2)*%
X101346000Y-82169000D03*
D19*
%TO.N,CURR_U*%
X82321587Y-88163587D03*
%TO.N,HALL2*%
X87376000Y-88566400D03*
%TO.N,V_H*%
X90330990Y-93041856D03*
%TO.N,U_L*%
X87630000Y-92456000D03*
%TO.N,W_L*%
X89144976Y-92479213D03*
%TO.N,ENABLE*%
X83096221Y-88202127D03*
%TO.N,HALL3*%
X87643492Y-87919523D03*
X76254436Y-78812532D03*
%TO.N,HALL1*%
X87630000Y-89916000D03*
%TO.N,U_H*%
X89844274Y-92447817D03*
%TO.N,W_H*%
X90678000Y-89916000D03*
%TO.N,V_L*%
X88401041Y-92465041D03*
%TO.N,VBUS_SCALED*%
X84074000Y-88138000D03*
D18*
%TO.N,~RESET*%
X87554607Y-78434393D03*
D19*
%TO.N,~BOOT*%
X93345000Y-86106000D03*
D18*
X93345000Y-101854000D03*
%TO.N,STATUS*%
X75692000Y-53848000D03*
D19*
X92720249Y-84075438D03*
%TO.N,ERR_OUT*%
X90499393Y-85673393D03*
D18*
X77597000Y-57658000D03*
X78070000Y-72644000D03*
D19*
%TO.N,DEBUG_LED*%
X90529291Y-84651281D03*
D18*
X75311000Y-58928000D03*
%TO.N,CAN_TX*%
X99568000Y-85090000D03*
X81026000Y-68326000D03*
%TO.N,CAN_RX*%
X100568003Y-85090000D03*
X86233000Y-65532000D03*
%TO.N,FLASH_CLK*%
X80518000Y-94869000D03*
X80513347Y-87117347D03*
D19*
%TO.N,NTC_PWR*%
X75282500Y-82705500D03*
X75184000Y-85090054D03*
%TO.N,Net-(R7-Pad2)*%
X102409950Y-88947934D03*
X102489000Y-92583000D03*
%TD*%
D20*
%TO.N,Net-(D1-Pad2)*%
X104267000Y-82169000D02*
X107696000Y-78740000D01*
X101346000Y-82169000D02*
X104267000Y-82169000D01*
X110236000Y-78740000D02*
X107696000Y-78740000D01*
%TO.N,CURR_U*%
X80871553Y-86360000D02*
X72390000Y-86360000D01*
X82321587Y-87810034D02*
X80871553Y-86360000D01*
X82321587Y-88163587D02*
X82321587Y-87810034D01*
D21*
%TO.N,HALL2*%
X72835774Y-76200000D02*
X72390000Y-76200000D01*
X84011774Y-87376000D02*
X72835774Y-76200000D01*
X86185600Y-87376000D02*
X84011774Y-87376000D01*
X87376000Y-88566400D02*
X86185600Y-87376000D01*
%TO.N,V_H*%
X90580989Y-92260754D02*
X89821424Y-91501189D01*
X90580989Y-92791857D02*
X90580989Y-92260754D01*
X90330990Y-93041856D02*
X90580989Y-92791857D01*
X71001601Y-90051601D02*
X69850000Y-88900000D01*
X72942769Y-90051601D02*
X71001601Y-90051601D01*
X74392357Y-91501189D02*
X72942769Y-90051601D01*
X89821424Y-91501189D02*
X74392357Y-91501189D01*
%TO.N,U_L*%
X68698399Y-84971601D02*
X69850000Y-83820000D01*
X68698399Y-97072769D02*
X68698399Y-84971601D01*
X69415630Y-97790000D02*
X68698399Y-97072769D01*
X80264000Y-97790000D02*
X69415630Y-97790000D01*
X85598000Y-92456000D02*
X80264000Y-97790000D01*
X87630000Y-92456000D02*
X85598000Y-92456000D01*
%TO.N,W_L*%
X69850000Y-79575630D02*
X69850000Y-78740000D01*
X67891979Y-81533651D02*
X69850000Y-79575630D01*
X67891979Y-97406799D02*
X67891979Y-81533651D01*
X69224579Y-98739399D02*
X67891979Y-97406799D01*
X89144976Y-92644883D02*
X83050460Y-98739399D01*
X83050460Y-98739399D02*
X69224579Y-98739399D01*
X89144976Y-92479213D02*
X89144976Y-92644883D01*
D20*
%TO.N,ENABLE*%
X83096221Y-87848574D02*
X75162648Y-79915001D01*
X83096221Y-88202127D02*
X83096221Y-87848574D01*
D21*
X68580000Y-76734685D02*
X68580000Y-74930000D01*
X70521168Y-77470000D02*
X69315315Y-77470000D01*
X68580000Y-74930000D02*
X69850000Y-73660000D01*
X71001601Y-79292769D02*
X71001601Y-77950433D01*
X71591832Y-79883000D02*
X71001601Y-79292769D01*
X71837231Y-79891601D02*
X71828630Y-79883000D01*
X69315315Y-77470000D02*
X68580000Y-76734685D01*
X71001601Y-77950433D02*
X70521168Y-77470000D01*
X72942769Y-79891601D02*
X71837231Y-79891601D01*
X72951370Y-79883000D02*
X72942769Y-79891601D01*
X75130647Y-79883000D02*
X72951370Y-79883000D01*
X71828630Y-79883000D02*
X71591832Y-79883000D01*
X75162648Y-79915001D02*
X75130647Y-79883000D01*
%TO.N,HALL3*%
X86560857Y-86836888D02*
X84278792Y-86836888D01*
X87643492Y-87919523D02*
X86560857Y-86836888D01*
X84278792Y-86836888D02*
X76254436Y-78812532D01*
%TO.N,HALL1*%
X73239999Y-74509999D02*
X72390000Y-73660000D01*
X84328000Y-86106000D02*
X73239999Y-75017999D01*
X86646339Y-86106000D02*
X84328000Y-86106000D01*
X88195093Y-87654754D02*
X86646339Y-86106000D01*
X88195093Y-89350907D02*
X88195093Y-87654754D01*
X87630000Y-89916000D02*
X88195093Y-89350907D01*
X73239999Y-75017999D02*
X73239999Y-74509999D01*
%TO.N,U_H*%
X89844274Y-92447817D02*
X89844274Y-92094264D01*
X71001601Y-92591601D02*
X69850000Y-91440000D01*
X72942769Y-92591601D02*
X71001601Y-92591601D01*
X73629971Y-91904399D02*
X72942769Y-92591601D01*
X89654409Y-91904399D02*
X73629971Y-91904399D01*
X89844274Y-92094264D02*
X89654409Y-91904399D01*
%TO.N,W_H*%
X87365231Y-90467601D02*
X90126399Y-90467601D01*
X87078399Y-90180769D02*
X87365231Y-90467601D01*
X75611937Y-90180769D02*
X87078399Y-90180769D01*
X72942769Y-87511601D02*
X75611937Y-90180769D01*
X90126399Y-90467601D02*
X90678000Y-89916000D01*
X71001601Y-87511601D02*
X72942769Y-87511601D01*
X69850000Y-86360000D02*
X71001601Y-87511601D01*
%TO.N,V_L*%
X68295189Y-97239784D02*
X68295189Y-82834811D01*
X68295189Y-82834811D02*
X69850000Y-81280000D01*
X69353405Y-98298000D02*
X68295189Y-97239784D01*
X82921635Y-98298000D02*
X69353405Y-98298000D01*
X88401041Y-92818594D02*
X82921635Y-98298000D01*
X88401041Y-92465041D02*
X88401041Y-92818594D01*
%TO.N,VBUS_SCALED*%
X71120000Y-72390000D02*
X69850000Y-71120000D01*
X71120000Y-76634370D02*
X71120000Y-72390000D01*
X71837231Y-77351601D02*
X71120000Y-76634370D01*
X73287601Y-77351601D02*
X71837231Y-77351601D01*
X84074000Y-88138000D02*
X73287601Y-77351601D01*
%TO.N,~RESET*%
X91410763Y-78434393D02*
X100741971Y-87765601D01*
X87554607Y-78434393D02*
X91410763Y-78434393D01*
X109084399Y-87748399D02*
X110236000Y-88900000D01*
X107069601Y-87748399D02*
X109084399Y-87748399D01*
X107052399Y-87765601D02*
X107069601Y-87748399D01*
X100741971Y-87765601D02*
X107052399Y-87765601D01*
%TO.N,~BOOT*%
X93345000Y-86106000D02*
X93345000Y-101854000D01*
%TO.N,STATUS*%
X78546399Y-56702399D02*
X75692000Y-53848000D01*
X78546399Y-70418399D02*
X78546399Y-56702399D01*
X92203438Y-84075438D02*
X78546399Y-70418399D01*
X92720249Y-84075438D02*
X92203438Y-84075438D01*
%TO.N,ERR_OUT*%
X77597000Y-72771000D02*
X77597000Y-57658000D01*
X90499393Y-85673393D02*
X77597000Y-72771000D01*
X77943000Y-72771000D02*
X78070000Y-72644000D01*
X77597000Y-72771000D02*
X77943000Y-72771000D01*
%TO.N,DEBUG_LED*%
X75311000Y-72666370D02*
X75311000Y-58928000D01*
X90087231Y-87442601D02*
X75311000Y-72666370D01*
X90760769Y-87442601D02*
X90087231Y-87442601D01*
X91200994Y-87002376D02*
X90760769Y-87442601D01*
X91200994Y-85322984D02*
X91200994Y-87002376D01*
X90529291Y-84651281D02*
X91200994Y-85322984D01*
%TO.N,CAN_TX*%
X88966601Y-76266601D02*
X81026000Y-68326000D01*
X91655971Y-76266601D02*
X88966601Y-76266601D01*
X99568000Y-84178630D02*
X91655971Y-76266601D01*
X99568000Y-85090000D02*
X99568000Y-84178630D01*
%TO.N,CAN_RX*%
X86233000Y-67922630D02*
X86233000Y-65532000D01*
X100568003Y-82257633D02*
X86233000Y-67922630D01*
X100568003Y-85090000D02*
X100568003Y-82257633D01*
D20*
%TO.N,FLASH_CLK*%
X80518000Y-87122000D02*
X80513347Y-87117347D01*
%TO.N,NTC_PWR*%
X75282500Y-82705500D02*
X75282500Y-84991554D01*
X75282500Y-84991554D02*
X75184000Y-85090054D01*
D21*
%TO.N,Net-(R7-Pad2)*%
X102409950Y-88947934D02*
X102409950Y-92503950D01*
X102409950Y-92503950D02*
X102489000Y-92583000D01*
%TD*%
D22*
%TO.N,GND*%
G36*
X109417249Y-41904217D02*
G01*
X110095645Y-42109037D01*
X110721328Y-42441719D01*
X111270480Y-42889597D01*
X111722179Y-43435607D01*
X112059224Y-44058959D01*
X112268772Y-44735899D01*
X112344980Y-45460970D01*
X112345001Y-45466931D01*
X112345000Y-106150921D01*
X112273783Y-106877249D01*
X112068964Y-107555643D01*
X111736283Y-108181325D01*
X111288403Y-108730480D01*
X110742393Y-109182179D01*
X110119041Y-109519224D01*
X109442101Y-109728772D01*
X108717030Y-109804980D01*
X108711356Y-109805000D01*
X70125079Y-109805000D01*
X69398751Y-109733783D01*
X68720357Y-109528964D01*
X68094675Y-109196283D01*
X67545520Y-108748403D01*
X67093821Y-108202393D01*
X66756776Y-107579041D01*
X66547228Y-106902101D01*
X66471020Y-106177030D01*
X66471000Y-106171356D01*
X66471000Y-105819302D01*
X66523000Y-105819302D01*
X66523000Y-106524698D01*
X66660616Y-107216539D01*
X66930559Y-107868240D01*
X67322456Y-108454754D01*
X67821246Y-108953544D01*
X68407760Y-109345441D01*
X69059461Y-109615384D01*
X69751302Y-109753000D01*
X70456698Y-109753000D01*
X71148539Y-109615384D01*
X71800240Y-109345441D01*
X72386754Y-108953544D01*
X72885544Y-108454754D01*
X73277441Y-107868240D01*
X73547384Y-107216539D01*
X73669409Y-106603078D01*
X90405000Y-106603078D01*
X90405000Y-106756922D01*
X90435013Y-106907809D01*
X90493887Y-107049942D01*
X90579358Y-107177859D01*
X90688141Y-107286642D01*
X90816058Y-107372113D01*
X90958191Y-107430987D01*
X91109078Y-107461000D01*
X91262922Y-107461000D01*
X91413809Y-107430987D01*
X91555942Y-107372113D01*
X91683859Y-107286642D01*
X91792642Y-107177859D01*
X91878113Y-107049942D01*
X91936987Y-106907809D01*
X91967000Y-106756922D01*
X91967000Y-106603078D01*
X91936987Y-106452191D01*
X91878113Y-106310058D01*
X91792642Y-106182141D01*
X91683859Y-106073358D01*
X91555942Y-105987887D01*
X91413809Y-105929013D01*
X91262922Y-105899000D01*
X91109078Y-105899000D01*
X90958191Y-105929013D01*
X90816058Y-105987887D01*
X90688141Y-106073358D01*
X90579358Y-106182141D01*
X90493887Y-106310058D01*
X90435013Y-106452191D01*
X90405000Y-106603078D01*
X73669409Y-106603078D01*
X73685000Y-106524698D01*
X73685000Y-105819302D01*
X105131000Y-105819302D01*
X105131000Y-106524698D01*
X105268616Y-107216539D01*
X105538559Y-107868240D01*
X105930456Y-108454754D01*
X106429246Y-108953544D01*
X107015760Y-109345441D01*
X107667461Y-109615384D01*
X108359302Y-109753000D01*
X109064698Y-109753000D01*
X109756539Y-109615384D01*
X110408240Y-109345441D01*
X110994754Y-108953544D01*
X111493544Y-108454754D01*
X111885441Y-107868240D01*
X112155384Y-107216539D01*
X112293000Y-106524698D01*
X112293000Y-105819302D01*
X112155384Y-105127461D01*
X111885441Y-104475760D01*
X111493544Y-103889246D01*
X110994754Y-103390456D01*
X110408240Y-102998559D01*
X109756539Y-102728616D01*
X109064698Y-102591000D01*
X108359302Y-102591000D01*
X107667461Y-102728616D01*
X107015760Y-102998559D01*
X106429246Y-103390456D01*
X105930456Y-103889246D01*
X105538559Y-104475760D01*
X105268616Y-105127461D01*
X105131000Y-105819302D01*
X73685000Y-105819302D01*
X73547384Y-105127461D01*
X73277441Y-104475760D01*
X72885544Y-103889246D01*
X72386754Y-103390456D01*
X71800240Y-102998559D01*
X71148539Y-102728616D01*
X70456698Y-102591000D01*
X69751302Y-102591000D01*
X69059461Y-102728616D01*
X68407760Y-102998559D01*
X67821246Y-103390456D01*
X67322456Y-103889246D01*
X66930559Y-104475760D01*
X66660616Y-105127461D01*
X66523000Y-105819302D01*
X66471000Y-105819302D01*
X66471000Y-101777078D01*
X92564000Y-101777078D01*
X92564000Y-101930922D01*
X92594013Y-102081809D01*
X92652887Y-102223942D01*
X92738358Y-102351859D01*
X92847141Y-102460642D01*
X92975058Y-102546113D01*
X93117191Y-102604987D01*
X93268078Y-102635000D01*
X93421922Y-102635000D01*
X93572809Y-102604987D01*
X93714942Y-102546113D01*
X93842859Y-102460642D01*
X93951642Y-102351859D01*
X94037113Y-102223942D01*
X94095987Y-102081809D01*
X94126000Y-101930922D01*
X94126000Y-101777078D01*
X94095987Y-101626191D01*
X94037113Y-101484058D01*
X93951642Y-101356141D01*
X93842859Y-101247358D01*
X93827600Y-101237162D01*
X93827600Y-99491078D01*
X105391000Y-99491078D01*
X105391000Y-99644922D01*
X105421013Y-99795809D01*
X105479887Y-99937942D01*
X105565358Y-100065859D01*
X105674141Y-100174642D01*
X105802058Y-100260113D01*
X105944191Y-100318987D01*
X106095078Y-100349000D01*
X106248922Y-100349000D01*
X106399809Y-100318987D01*
X106541942Y-100260113D01*
X106618438Y-100209000D01*
X107214000Y-100209000D01*
X107214000Y-100559000D01*
X107261546Y-100787742D01*
X107352804Y-101002813D01*
X107484266Y-101195948D01*
X107650881Y-101359725D01*
X107846246Y-101487850D01*
X108062853Y-101575399D01*
X108089256Y-101575803D01*
X108272000Y-101450361D01*
X108272000Y-100209000D01*
X108526000Y-100209000D01*
X108526000Y-101450361D01*
X108708744Y-101575803D01*
X108735147Y-101575399D01*
X108951754Y-101487850D01*
X109147119Y-101359725D01*
X109313734Y-101195948D01*
X109445196Y-101002813D01*
X109536454Y-100787742D01*
X109584000Y-100559000D01*
X109584000Y-100209000D01*
X108526000Y-100209000D01*
X108272000Y-100209000D01*
X107214000Y-100209000D01*
X106618438Y-100209000D01*
X106669859Y-100174642D01*
X106778642Y-100065859D01*
X106864113Y-99937942D01*
X106922987Y-99795809D01*
X106953000Y-99644922D01*
X106953000Y-99605000D01*
X107214000Y-99605000D01*
X107214000Y-99955000D01*
X108272000Y-99955000D01*
X108272000Y-98713639D01*
X108526000Y-98713639D01*
X108526000Y-99955000D01*
X109584000Y-99955000D01*
X109584000Y-99605000D01*
X109536454Y-99376258D01*
X109445196Y-99161187D01*
X109313734Y-98968052D01*
X109147119Y-98804275D01*
X108951754Y-98676150D01*
X108735147Y-98588601D01*
X108708744Y-98588197D01*
X108526000Y-98713639D01*
X108272000Y-98713639D01*
X108089256Y-98588197D01*
X108062853Y-98588601D01*
X107846246Y-98676150D01*
X107650881Y-98804275D01*
X107484266Y-98968052D01*
X107352804Y-99161187D01*
X107261546Y-99376258D01*
X107214000Y-99605000D01*
X106953000Y-99605000D01*
X106953000Y-99491078D01*
X106922987Y-99340191D01*
X106864113Y-99198058D01*
X106778642Y-99070141D01*
X106669859Y-98961358D01*
X106541942Y-98875887D01*
X106399809Y-98817013D01*
X106248922Y-98787000D01*
X106095078Y-98787000D01*
X105944191Y-98817013D01*
X105802058Y-98875887D01*
X105674141Y-98961358D01*
X105565358Y-99070141D01*
X105479887Y-99198058D01*
X105421013Y-99340191D01*
X105391000Y-99491078D01*
X93827600Y-99491078D01*
X93827600Y-97727852D01*
X103031002Y-97727852D01*
X103031002Y-97852148D01*
X103055251Y-97974056D01*
X103102817Y-98088891D01*
X103171872Y-98192239D01*
X103259763Y-98280130D01*
X103363111Y-98349185D01*
X103477946Y-98396751D01*
X103599854Y-98421000D01*
X103724150Y-98421000D01*
X103846058Y-98396751D01*
X103960893Y-98349185D01*
X104064241Y-98280130D01*
X104152132Y-98192239D01*
X104221187Y-98088891D01*
X104268753Y-97974056D01*
X104293002Y-97852148D01*
X104293002Y-97727852D01*
X104268753Y-97605944D01*
X104221187Y-97491109D01*
X104166324Y-97409000D01*
X109364000Y-97409000D01*
X109364000Y-97959000D01*
X109411546Y-98187742D01*
X109502804Y-98402813D01*
X109634266Y-98595948D01*
X109800881Y-98759725D01*
X109996246Y-98887850D01*
X110212853Y-98975399D01*
X110239256Y-98975803D01*
X110422000Y-98850361D01*
X110422000Y-97409000D01*
X110676000Y-97409000D01*
X110676000Y-98850361D01*
X110858744Y-98975803D01*
X110885147Y-98975399D01*
X111101754Y-98887850D01*
X111297119Y-98759725D01*
X111463734Y-98595948D01*
X111595196Y-98402813D01*
X111686454Y-98187742D01*
X111734000Y-97959000D01*
X111734000Y-97409000D01*
X110676000Y-97409000D01*
X110422000Y-97409000D01*
X109364000Y-97409000D01*
X104166324Y-97409000D01*
X104152132Y-97387761D01*
X104064241Y-97299870D01*
X103960893Y-97230815D01*
X103846058Y-97183249D01*
X103724150Y-97159000D01*
X103599854Y-97159000D01*
X103477946Y-97183249D01*
X103363111Y-97230815D01*
X103259763Y-97299870D01*
X103171872Y-97387761D01*
X103102817Y-97491109D01*
X103055251Y-97605944D01*
X103031002Y-97727852D01*
X93827600Y-97727852D01*
X93827600Y-96605000D01*
X109364000Y-96605000D01*
X109364000Y-97155000D01*
X110422000Y-97155000D01*
X110422000Y-95713639D01*
X110676000Y-95713639D01*
X110676000Y-97155000D01*
X111734000Y-97155000D01*
X111734000Y-96605000D01*
X111686454Y-96376258D01*
X111595196Y-96161187D01*
X111463734Y-95968052D01*
X111297119Y-95804275D01*
X111101754Y-95676150D01*
X110885147Y-95588601D01*
X110858744Y-95588197D01*
X110676000Y-95713639D01*
X110422000Y-95713639D01*
X110239256Y-95588197D01*
X110212853Y-95588601D01*
X109996246Y-95676150D01*
X109800881Y-95804275D01*
X109634266Y-95968052D01*
X109502804Y-96161187D01*
X109411546Y-96376258D01*
X109364000Y-96605000D01*
X93827600Y-96605000D01*
X93827600Y-94609000D01*
X107214000Y-94609000D01*
X107214000Y-94959000D01*
X107261546Y-95187742D01*
X107352804Y-95402813D01*
X107484266Y-95595948D01*
X107650881Y-95759725D01*
X107846246Y-95887850D01*
X108062853Y-95975399D01*
X108089256Y-95975803D01*
X108272000Y-95850361D01*
X108272000Y-94609000D01*
X108526000Y-94609000D01*
X108526000Y-95850361D01*
X108708744Y-95975803D01*
X108735147Y-95975399D01*
X108951754Y-95887850D01*
X109147119Y-95759725D01*
X109313734Y-95595948D01*
X109445196Y-95402813D01*
X109536454Y-95187742D01*
X109584000Y-94959000D01*
X109584000Y-94609000D01*
X108526000Y-94609000D01*
X108272000Y-94609000D01*
X107214000Y-94609000D01*
X93827600Y-94609000D01*
X93827600Y-90601078D01*
X94215000Y-90601078D01*
X94215000Y-90754922D01*
X94245013Y-90905809D01*
X94303887Y-91047942D01*
X94389358Y-91175859D01*
X94498141Y-91284642D01*
X94626058Y-91370113D01*
X94768191Y-91428987D01*
X94919078Y-91459000D01*
X95072922Y-91459000D01*
X95223809Y-91428987D01*
X95365942Y-91370113D01*
X95493859Y-91284642D01*
X95602642Y-91175859D01*
X95688113Y-91047942D01*
X95746987Y-90905809D01*
X95773025Y-90774905D01*
X95786358Y-90794859D01*
X95895141Y-90903642D01*
X96023058Y-90989113D01*
X96165191Y-91047987D01*
X96316078Y-91078000D01*
X96469922Y-91078000D01*
X96620809Y-91047987D01*
X96762942Y-90989113D01*
X96890859Y-90903642D01*
X96999642Y-90794859D01*
X97085113Y-90666942D01*
X97143987Y-90524809D01*
X97174000Y-90373922D01*
X97174000Y-90220078D01*
X97143987Y-90069191D01*
X97085113Y-89927058D01*
X96999642Y-89799141D01*
X96890859Y-89690358D01*
X96762942Y-89604887D01*
X96620809Y-89546013D01*
X96469922Y-89516000D01*
X96316078Y-89516000D01*
X96165191Y-89546013D01*
X96023058Y-89604887D01*
X95895141Y-89690358D01*
X95786358Y-89799141D01*
X95700887Y-89927058D01*
X95642013Y-90069191D01*
X95615975Y-90200095D01*
X95602642Y-90180141D01*
X95493859Y-90071358D01*
X95365942Y-89985887D01*
X95223809Y-89927013D01*
X95072922Y-89897000D01*
X94919078Y-89897000D01*
X94768191Y-89927013D01*
X94626058Y-89985887D01*
X94498141Y-90071358D01*
X94389358Y-90180141D01*
X94303887Y-90308058D01*
X94245013Y-90450191D01*
X94215000Y-90601078D01*
X93827600Y-90601078D01*
X93827600Y-88885786D01*
X101778950Y-88885786D01*
X101778950Y-89010082D01*
X101803199Y-89131990D01*
X101850765Y-89246825D01*
X101919820Y-89350173D01*
X101927350Y-89357703D01*
X101927351Y-92290058D01*
X101882249Y-92398944D01*
X101858000Y-92520852D01*
X101858000Y-92645148D01*
X101882249Y-92767056D01*
X101929815Y-92881891D01*
X101998870Y-92985239D01*
X102086761Y-93073130D01*
X102190109Y-93142185D01*
X102304944Y-93189751D01*
X102426852Y-93214000D01*
X102551148Y-93214000D01*
X102673056Y-93189751D01*
X102787891Y-93142185D01*
X102891239Y-93073130D01*
X102979130Y-92985239D01*
X103048185Y-92881891D01*
X103095751Y-92767056D01*
X103120000Y-92645148D01*
X103120000Y-92520852D01*
X103095751Y-92398944D01*
X103087523Y-92379078D01*
X106661000Y-92379078D01*
X106661000Y-92532922D01*
X106691013Y-92683809D01*
X106749887Y-92825942D01*
X106835358Y-92953859D01*
X106944141Y-93062642D01*
X107072058Y-93148113D01*
X107214191Y-93206987D01*
X107365078Y-93237000D01*
X107518922Y-93237000D01*
X107642620Y-93212395D01*
X107484266Y-93368052D01*
X107352804Y-93561187D01*
X107261546Y-93776258D01*
X107214000Y-94005000D01*
X107214000Y-94355000D01*
X108272000Y-94355000D01*
X108272000Y-93113639D01*
X108526000Y-93113639D01*
X108526000Y-94355000D01*
X109584000Y-94355000D01*
X109584000Y-94005000D01*
X109536454Y-93776258D01*
X109445196Y-93561187D01*
X109313734Y-93368052D01*
X109147119Y-93204275D01*
X108951754Y-93076150D01*
X108735147Y-92988601D01*
X108708744Y-92988197D01*
X108526000Y-93113639D01*
X108272000Y-93113639D01*
X108089256Y-92988197D01*
X108062853Y-92988601D01*
X107980692Y-93021809D01*
X108048642Y-92953859D01*
X108134113Y-92825942D01*
X108192987Y-92683809D01*
X108223000Y-92532922D01*
X108223000Y-92379078D01*
X108192987Y-92228191D01*
X108134113Y-92086058D01*
X108048642Y-91958141D01*
X107939859Y-91849358D01*
X107811942Y-91763887D01*
X107669809Y-91705013D01*
X107518922Y-91675000D01*
X107365078Y-91675000D01*
X107214191Y-91705013D01*
X107072058Y-91763887D01*
X106944141Y-91849358D01*
X106835358Y-91958141D01*
X106749887Y-92086058D01*
X106691013Y-92228191D01*
X106661000Y-92379078D01*
X103087523Y-92379078D01*
X103048185Y-92284109D01*
X102979130Y-92180761D01*
X102892550Y-92094181D01*
X102892550Y-89357703D01*
X102900080Y-89350173D01*
X102969135Y-89246825D01*
X103016701Y-89131990D01*
X103040950Y-89010082D01*
X103040950Y-88885786D01*
X103016701Y-88763878D01*
X102969135Y-88649043D01*
X102900080Y-88545695D01*
X102812189Y-88457804D01*
X102708841Y-88388749D01*
X102594006Y-88341183D01*
X102472098Y-88316934D01*
X102347802Y-88316934D01*
X102225894Y-88341183D01*
X102111059Y-88388749D01*
X102007711Y-88457804D01*
X101919820Y-88545695D01*
X101850765Y-88649043D01*
X101803199Y-88763878D01*
X101778950Y-88885786D01*
X93827600Y-88885786D01*
X93827600Y-86515769D01*
X93835130Y-86508239D01*
X93904185Y-86404891D01*
X93951751Y-86290056D01*
X93976000Y-86168148D01*
X93976000Y-86043852D01*
X93951751Y-85921944D01*
X93904185Y-85807109D01*
X93835130Y-85703761D01*
X93747239Y-85615870D01*
X93643891Y-85546815D01*
X93529056Y-85499249D01*
X93407148Y-85475000D01*
X93282852Y-85475000D01*
X93160944Y-85499249D01*
X93046109Y-85546815D01*
X92942761Y-85615870D01*
X92854870Y-85703761D01*
X92785815Y-85807109D01*
X92738249Y-85921944D01*
X92714000Y-86043852D01*
X92714000Y-86168148D01*
X92738249Y-86290056D01*
X92785815Y-86404891D01*
X92854870Y-86508239D01*
X92862400Y-86515769D01*
X92862401Y-101237162D01*
X92847141Y-101247358D01*
X92738358Y-101356141D01*
X92652887Y-101484058D01*
X92594013Y-101626191D01*
X92564000Y-101777078D01*
X66471000Y-101777078D01*
X66471000Y-81533651D01*
X67407044Y-81533651D01*
X67409380Y-81557366D01*
X67409379Y-97383094D01*
X67407044Y-97406799D01*
X67409379Y-97430504D01*
X67409379Y-97430505D01*
X67416362Y-97501404D01*
X67443957Y-97592375D01*
X67488770Y-97676214D01*
X67549078Y-97749700D01*
X67567497Y-97764816D01*
X68866567Y-99063887D01*
X68881678Y-99082300D01*
X68955164Y-99142608D01*
X69039002Y-99187421D01*
X69129973Y-99215016D01*
X69200872Y-99221999D01*
X69200874Y-99221999D01*
X69224579Y-99224334D01*
X69248284Y-99221999D01*
X83026755Y-99221999D01*
X83050460Y-99224334D01*
X83074165Y-99221999D01*
X83074167Y-99221999D01*
X83145066Y-99215016D01*
X83236037Y-99187421D01*
X83319875Y-99142608D01*
X83393361Y-99082300D01*
X83408477Y-99063881D01*
X89426955Y-93045403D01*
X89443867Y-93038398D01*
X89518119Y-92988785D01*
X89545383Y-93007002D01*
X89660218Y-93054568D01*
X89699990Y-93062479D01*
X89699990Y-93104004D01*
X89724239Y-93225912D01*
X89771805Y-93340747D01*
X89840860Y-93444095D01*
X89928751Y-93531986D01*
X90032099Y-93601041D01*
X90146934Y-93648607D01*
X90268842Y-93672856D01*
X90393138Y-93672856D01*
X90515046Y-93648607D01*
X90629881Y-93601041D01*
X90733229Y-93531986D01*
X90821120Y-93444095D01*
X90890175Y-93340747D01*
X90937741Y-93225912D01*
X90961990Y-93104004D01*
X90961990Y-93088333D01*
X90984198Y-93061272D01*
X91029011Y-92977434D01*
X91048163Y-92914298D01*
X91056606Y-92886464D01*
X91065924Y-92791857D01*
X91063589Y-92768150D01*
X91063589Y-92284458D01*
X91065924Y-92260753D01*
X91063589Y-92237047D01*
X91056606Y-92166148D01*
X91029011Y-92075177D01*
X90984198Y-91991339D01*
X90923890Y-91917853D01*
X90905476Y-91902741D01*
X90179441Y-91176707D01*
X90164325Y-91158288D01*
X90090839Y-91097980D01*
X90007001Y-91053167D01*
X89916030Y-91025572D01*
X89845131Y-91018589D01*
X89845129Y-91018589D01*
X89821424Y-91016254D01*
X89797719Y-91018589D01*
X87494138Y-91018589D01*
X87499000Y-90994148D01*
X87499000Y-90950201D01*
X90102694Y-90950201D01*
X90126399Y-90952536D01*
X90150104Y-90950201D01*
X90150106Y-90950201D01*
X90221005Y-90943218D01*
X90311976Y-90915623D01*
X90395814Y-90870810D01*
X90469300Y-90810502D01*
X90484416Y-90792083D01*
X90729499Y-90547000D01*
X90740148Y-90547000D01*
X90862056Y-90522751D01*
X90976891Y-90475185D01*
X91080239Y-90406130D01*
X91168130Y-90318239D01*
X91237185Y-90214891D01*
X91284751Y-90100056D01*
X91309000Y-89978148D01*
X91309000Y-89853852D01*
X91284751Y-89731944D01*
X91237185Y-89617109D01*
X91168130Y-89513761D01*
X91080239Y-89425870D01*
X90976891Y-89356815D01*
X90862056Y-89309249D01*
X90740148Y-89285000D01*
X90615852Y-89285000D01*
X90493944Y-89309249D01*
X90379109Y-89356815D01*
X90275761Y-89425870D01*
X90187870Y-89513761D01*
X90118815Y-89617109D01*
X90071249Y-89731944D01*
X90047000Y-89853852D01*
X90047000Y-89864501D01*
X89926500Y-89985001D01*
X88259637Y-89985001D01*
X88261000Y-89978148D01*
X88261000Y-89967499D01*
X88519575Y-89708924D01*
X88537994Y-89693808D01*
X88598302Y-89620322D01*
X88643115Y-89536484D01*
X88670710Y-89445513D01*
X88677693Y-89374614D01*
X88677693Y-89374613D01*
X88680028Y-89350908D01*
X88677693Y-89327203D01*
X88677693Y-87678461D01*
X88680028Y-87654754D01*
X88670710Y-87560147D01*
X88643115Y-87469177D01*
X88636910Y-87457568D01*
X88598302Y-87385339D01*
X88537994Y-87311853D01*
X88519581Y-87296742D01*
X87004356Y-85781518D01*
X86989240Y-85763099D01*
X86915754Y-85702791D01*
X86831916Y-85657978D01*
X86740945Y-85630383D01*
X86670046Y-85623400D01*
X86670044Y-85623400D01*
X86646339Y-85621065D01*
X86622634Y-85623400D01*
X84527899Y-85623400D01*
X73722599Y-74818100D01*
X73722599Y-74533703D01*
X73724934Y-74509998D01*
X73718504Y-74444717D01*
X73715616Y-74415393D01*
X73688021Y-74324422D01*
X73643208Y-74240584D01*
X73582900Y-74167098D01*
X73564486Y-74151987D01*
X73532066Y-74119566D01*
X73573693Y-74019069D01*
X73621000Y-73781243D01*
X73621000Y-73538757D01*
X73573693Y-73300931D01*
X73480898Y-73076903D01*
X73346180Y-72875283D01*
X73174717Y-72703820D01*
X72973097Y-72569102D01*
X72749069Y-72476307D01*
X72511243Y-72429000D01*
X72268757Y-72429000D01*
X72030931Y-72476307D01*
X71806903Y-72569102D01*
X71605283Y-72703820D01*
X71602600Y-72706503D01*
X71602600Y-72413704D01*
X71604935Y-72389999D01*
X71602600Y-72366293D01*
X71595617Y-72295394D01*
X71568022Y-72204423D01*
X71523209Y-72120585D01*
X71462901Y-72047099D01*
X71444482Y-72031983D01*
X70992066Y-71579567D01*
X71033693Y-71479069D01*
X71081000Y-71241243D01*
X71081000Y-70998757D01*
X71159000Y-70998757D01*
X71159000Y-71241243D01*
X71206307Y-71479069D01*
X71299102Y-71703097D01*
X71433820Y-71904717D01*
X71605283Y-72076180D01*
X71806903Y-72210898D01*
X72030931Y-72303693D01*
X72268757Y-72351000D01*
X72511243Y-72351000D01*
X72749069Y-72303693D01*
X72973097Y-72210898D01*
X73174717Y-72076180D01*
X73346180Y-71904717D01*
X73480898Y-71703097D01*
X73573693Y-71479069D01*
X73621000Y-71241243D01*
X73621000Y-70998757D01*
X73573693Y-70760931D01*
X73480898Y-70536903D01*
X73346180Y-70335283D01*
X73174717Y-70163820D01*
X72973097Y-70029102D01*
X72749069Y-69936307D01*
X72511243Y-69889000D01*
X72268757Y-69889000D01*
X72030931Y-69936307D01*
X71806903Y-70029102D01*
X71605283Y-70163820D01*
X71433820Y-70335283D01*
X71299102Y-70536903D01*
X71206307Y-70760931D01*
X71159000Y-70998757D01*
X71081000Y-70998757D01*
X71033693Y-70760931D01*
X70940898Y-70536903D01*
X70806180Y-70335283D01*
X70634717Y-70163820D01*
X70433097Y-70029102D01*
X70209069Y-69936307D01*
X69971243Y-69889000D01*
X69728757Y-69889000D01*
X69490931Y-69936307D01*
X69266903Y-70029102D01*
X69065283Y-70163820D01*
X68893820Y-70335283D01*
X68759102Y-70536903D01*
X68666307Y-70760931D01*
X68619000Y-70998757D01*
X68619000Y-71241243D01*
X68666307Y-71479069D01*
X68759102Y-71703097D01*
X68893820Y-71904717D01*
X69065283Y-72076180D01*
X69266903Y-72210898D01*
X69490931Y-72303693D01*
X69728757Y-72351000D01*
X69971243Y-72351000D01*
X70209069Y-72303693D01*
X70309567Y-72262066D01*
X70637401Y-72589900D01*
X70637401Y-72706504D01*
X70634717Y-72703820D01*
X70433097Y-72569102D01*
X70209069Y-72476307D01*
X69971243Y-72429000D01*
X69728757Y-72429000D01*
X69490931Y-72476307D01*
X69266903Y-72569102D01*
X69065283Y-72703820D01*
X68893820Y-72875283D01*
X68759102Y-73076903D01*
X68666307Y-73300931D01*
X68619000Y-73538757D01*
X68619000Y-73781243D01*
X68666307Y-74019069D01*
X68707934Y-74119567D01*
X68255513Y-74571988D01*
X68237100Y-74587099D01*
X68221989Y-74605512D01*
X68221987Y-74605514D01*
X68176792Y-74660585D01*
X68131978Y-74744424D01*
X68104384Y-74835394D01*
X68095065Y-74930000D01*
X68097401Y-74953715D01*
X68097400Y-76710980D01*
X68095065Y-76734685D01*
X68097400Y-76758390D01*
X68097400Y-76758391D01*
X68104383Y-76829290D01*
X68131978Y-76920261D01*
X68176791Y-77004100D01*
X68237099Y-77077586D01*
X68255518Y-77092702D01*
X68957298Y-77794482D01*
X68972414Y-77812901D01*
X69007449Y-77841654D01*
X68893820Y-77955283D01*
X68759102Y-78156903D01*
X68666307Y-78380931D01*
X68619000Y-78618757D01*
X68619000Y-78861243D01*
X68666307Y-79099069D01*
X68759102Y-79323097D01*
X68893820Y-79524717D01*
X69056117Y-79687014D01*
X67567492Y-81175639D01*
X67549079Y-81190750D01*
X67533968Y-81209163D01*
X67533966Y-81209165D01*
X67488771Y-81264236D01*
X67443957Y-81348075D01*
X67416363Y-81439045D01*
X67407044Y-81533651D01*
X66471000Y-81533651D01*
X66471000Y-68458757D01*
X68619000Y-68458757D01*
X68619000Y-68701243D01*
X68666307Y-68939069D01*
X68759102Y-69163097D01*
X68893820Y-69364717D01*
X69065283Y-69536180D01*
X69266903Y-69670898D01*
X69490931Y-69763693D01*
X69728757Y-69811000D01*
X69971243Y-69811000D01*
X70209069Y-69763693D01*
X70433097Y-69670898D01*
X70634717Y-69536180D01*
X70806180Y-69364717D01*
X70940898Y-69163097D01*
X71033693Y-68939069D01*
X71081000Y-68701243D01*
X71081000Y-68458757D01*
X71159000Y-68458757D01*
X71159000Y-68701243D01*
X71206307Y-68939069D01*
X71299102Y-69163097D01*
X71433820Y-69364717D01*
X71605283Y-69536180D01*
X71806903Y-69670898D01*
X72030931Y-69763693D01*
X72268757Y-69811000D01*
X72511243Y-69811000D01*
X72749069Y-69763693D01*
X72973097Y-69670898D01*
X73174717Y-69536180D01*
X73346180Y-69364717D01*
X73480898Y-69163097D01*
X73573693Y-68939069D01*
X73621000Y-68701243D01*
X73621000Y-68458757D01*
X73573693Y-68220931D01*
X73480898Y-67996903D01*
X73346180Y-67795283D01*
X73174717Y-67623820D01*
X72973097Y-67489102D01*
X72868683Y-67445852D01*
X73023747Y-67390919D01*
X73161157Y-67317472D01*
X73238792Y-67068397D01*
X72390000Y-66219605D01*
X71541208Y-67068397D01*
X71618843Y-67317472D01*
X71882883Y-67443371D01*
X71904228Y-67448789D01*
X71806903Y-67489102D01*
X71605283Y-67623820D01*
X71433820Y-67795283D01*
X71299102Y-67996903D01*
X71206307Y-68220931D01*
X71159000Y-68458757D01*
X71081000Y-68458757D01*
X71033693Y-68220931D01*
X70940898Y-67996903D01*
X70806180Y-67795283D01*
X70634717Y-67623820D01*
X70433097Y-67489102D01*
X70328683Y-67445852D01*
X70483747Y-67390919D01*
X70621157Y-67317472D01*
X70698792Y-67068397D01*
X69850000Y-66219605D01*
X69001208Y-67068397D01*
X69078843Y-67317472D01*
X69342883Y-67443371D01*
X69364228Y-67448789D01*
X69266903Y-67489102D01*
X69065283Y-67623820D01*
X68893820Y-67795283D01*
X68759102Y-67996903D01*
X68666307Y-68220931D01*
X68619000Y-68458757D01*
X66471000Y-68458757D01*
X66471000Y-66108531D01*
X68359389Y-66108531D01*
X68401401Y-66398019D01*
X68499081Y-66673747D01*
X68572528Y-66811157D01*
X68821603Y-66888792D01*
X69670395Y-66040000D01*
X70029605Y-66040000D01*
X70878397Y-66888792D01*
X71120000Y-66813486D01*
X71361603Y-66888792D01*
X72210395Y-66040000D01*
X72569605Y-66040000D01*
X73418397Y-66888792D01*
X73667472Y-66811157D01*
X73793371Y-66547117D01*
X73865339Y-66263589D01*
X73880611Y-65971469D01*
X73838599Y-65681981D01*
X73740919Y-65406253D01*
X73667472Y-65268843D01*
X73418397Y-65191208D01*
X72569605Y-66040000D01*
X72210395Y-66040000D01*
X71361603Y-65191208D01*
X71120000Y-65266514D01*
X70878397Y-65191208D01*
X70029605Y-66040000D01*
X69670395Y-66040000D01*
X68821603Y-65191208D01*
X68572528Y-65268843D01*
X68446629Y-65532883D01*
X68374661Y-65816411D01*
X68359389Y-66108531D01*
X66471000Y-66108531D01*
X66471000Y-65011603D01*
X69001208Y-65011603D01*
X69850000Y-65860395D01*
X70698792Y-65011603D01*
X71541208Y-65011603D01*
X72390000Y-65860395D01*
X73238792Y-65011603D01*
X73161157Y-64762528D01*
X72897117Y-64636629D01*
X72613589Y-64564661D01*
X72321469Y-64549389D01*
X72031981Y-64591401D01*
X71756253Y-64689081D01*
X71618843Y-64762528D01*
X71541208Y-65011603D01*
X70698792Y-65011603D01*
X70621157Y-64762528D01*
X70357117Y-64636629D01*
X70073589Y-64564661D01*
X69781469Y-64549389D01*
X69491981Y-64591401D01*
X69216253Y-64689081D01*
X69078843Y-64762528D01*
X69001208Y-65011603D01*
X66471000Y-65011603D01*
X66471000Y-58851078D01*
X74530000Y-58851078D01*
X74530000Y-59004922D01*
X74560013Y-59155809D01*
X74618887Y-59297942D01*
X74704358Y-59425859D01*
X74813141Y-59534642D01*
X74828401Y-59544838D01*
X74828400Y-72642665D01*
X74826065Y-72666370D01*
X74828400Y-72690075D01*
X74828400Y-72690076D01*
X74835383Y-72760975D01*
X74862978Y-72851946D01*
X74907791Y-72935785D01*
X74968099Y-73009271D01*
X74986518Y-73024387D01*
X89729214Y-87767083D01*
X89744330Y-87785502D01*
X89817816Y-87845810D01*
X89901654Y-87890623D01*
X89992625Y-87918218D01*
X90063524Y-87925201D01*
X90063525Y-87925201D01*
X90087230Y-87927536D01*
X90110935Y-87925201D01*
X90737064Y-87925201D01*
X90760769Y-87927536D01*
X90784474Y-87925201D01*
X90784476Y-87925201D01*
X90855375Y-87918218D01*
X90946346Y-87890623D01*
X91030184Y-87845810D01*
X91103670Y-87785502D01*
X91118786Y-87767083D01*
X91525476Y-87360393D01*
X91543895Y-87345277D01*
X91604203Y-87271791D01*
X91649016Y-87187953D01*
X91676611Y-87096982D01*
X91683594Y-87026083D01*
X91683594Y-87026082D01*
X91685929Y-87002377D01*
X91683594Y-86978672D01*
X91683594Y-85346680D01*
X91685928Y-85322983D01*
X91683594Y-85299286D01*
X91683594Y-85299277D01*
X91676611Y-85228378D01*
X91649016Y-85137407D01*
X91604203Y-85053569D01*
X91543895Y-84980083D01*
X91525476Y-84964967D01*
X91160291Y-84599782D01*
X91160291Y-84589133D01*
X91136042Y-84467225D01*
X91088476Y-84352390D01*
X91019421Y-84249042D01*
X90931530Y-84161151D01*
X90828182Y-84092096D01*
X90713347Y-84044530D01*
X90591439Y-84020281D01*
X90467143Y-84020281D01*
X90345235Y-84044530D01*
X90230400Y-84092096D01*
X90127052Y-84161151D01*
X90039161Y-84249042D01*
X89970106Y-84352390D01*
X89938117Y-84429618D01*
X78663500Y-73155001D01*
X78676642Y-73141859D01*
X78762113Y-73013942D01*
X78820987Y-72871809D01*
X78851000Y-72720922D01*
X78851000Y-72567078D01*
X78820987Y-72416191D01*
X78762113Y-72274058D01*
X78676642Y-72146141D01*
X78567859Y-72037358D01*
X78439942Y-71951887D01*
X78297809Y-71893013D01*
X78146922Y-71863000D01*
X78079600Y-71863000D01*
X78079600Y-70542074D01*
X78098377Y-70603975D01*
X78143190Y-70687814D01*
X78203498Y-70761300D01*
X78221917Y-70776416D01*
X91845426Y-84399926D01*
X91860537Y-84418339D01*
X91934023Y-84478647D01*
X91966458Y-84495984D01*
X92017861Y-84523460D01*
X92108831Y-84551055D01*
X92203438Y-84560373D01*
X92227145Y-84558038D01*
X92310480Y-84558038D01*
X92318010Y-84565568D01*
X92421358Y-84634623D01*
X92536193Y-84682189D01*
X92658101Y-84706438D01*
X92782397Y-84706438D01*
X92904305Y-84682189D01*
X93019140Y-84634623D01*
X93122488Y-84565568D01*
X93210379Y-84477677D01*
X93279434Y-84374329D01*
X93327000Y-84259494D01*
X93351249Y-84137586D01*
X93351249Y-84013290D01*
X93327000Y-83891382D01*
X93279434Y-83776547D01*
X93210379Y-83673199D01*
X93122488Y-83585308D01*
X93019140Y-83516253D01*
X92904305Y-83468687D01*
X92782397Y-83444438D01*
X92658101Y-83444438D01*
X92536193Y-83468687D01*
X92421358Y-83516253D01*
X92364646Y-83554146D01*
X87932016Y-79121517D01*
X88052466Y-79041035D01*
X88161249Y-78932252D01*
X88171445Y-78916993D01*
X91210864Y-78916993D01*
X93887887Y-81594017D01*
X93864058Y-81603887D01*
X93736141Y-81689358D01*
X93627358Y-81798141D01*
X93541887Y-81926058D01*
X93483013Y-82068191D01*
X93453000Y-82219078D01*
X93453000Y-82372922D01*
X93483013Y-82523809D01*
X93541887Y-82665942D01*
X93627358Y-82793859D01*
X93736141Y-82902642D01*
X93864058Y-82988113D01*
X94006191Y-83046987D01*
X94157078Y-83077000D01*
X94310922Y-83077000D01*
X94461809Y-83046987D01*
X94603942Y-82988113D01*
X94731859Y-82902642D01*
X94840642Y-82793859D01*
X94926113Y-82665942D01*
X94935983Y-82642113D01*
X100383959Y-88090089D01*
X100399070Y-88108502D01*
X100472556Y-88168810D01*
X100546063Y-88208101D01*
X100556394Y-88213623D01*
X100647364Y-88241218D01*
X100741971Y-88250536D01*
X100765678Y-88248201D01*
X106651007Y-88248201D01*
X106605102Y-88316903D01*
X106512307Y-88540931D01*
X106465000Y-88778757D01*
X106465000Y-89021243D01*
X106512307Y-89259069D01*
X106605102Y-89483097D01*
X106739820Y-89684717D01*
X106911283Y-89856180D01*
X107112903Y-89990898D01*
X107336931Y-90083693D01*
X107574757Y-90131000D01*
X107817243Y-90131000D01*
X108055069Y-90083693D01*
X108279097Y-89990898D01*
X108480717Y-89856180D01*
X108652180Y-89684717D01*
X108786898Y-89483097D01*
X108879693Y-89259069D01*
X108927000Y-89021243D01*
X108927000Y-88778757D01*
X108879693Y-88540931D01*
X108786898Y-88316903D01*
X108729499Y-88230999D01*
X108884500Y-88230999D01*
X109003157Y-88349656D01*
X109003157Y-89750000D01*
X109010513Y-89824689D01*
X109032299Y-89896508D01*
X109067678Y-89962696D01*
X109115289Y-90020711D01*
X109173304Y-90068322D01*
X109239492Y-90103701D01*
X109311311Y-90125487D01*
X109386000Y-90132843D01*
X111086000Y-90132843D01*
X111160689Y-90125487D01*
X111232508Y-90103701D01*
X111298696Y-90068322D01*
X111356711Y-90020711D01*
X111404322Y-89962696D01*
X111439701Y-89896508D01*
X111461487Y-89824689D01*
X111468843Y-89750000D01*
X111468843Y-88050000D01*
X111461487Y-87975311D01*
X111439701Y-87903492D01*
X111404322Y-87837304D01*
X111356711Y-87779289D01*
X111298696Y-87731678D01*
X111232508Y-87696299D01*
X111160689Y-87674513D01*
X111086000Y-87667157D01*
X109685656Y-87667157D01*
X109442416Y-87423917D01*
X109427300Y-87405498D01*
X109353814Y-87345190D01*
X109269976Y-87300377D01*
X109179005Y-87272782D01*
X109108106Y-87265799D01*
X109108104Y-87265799D01*
X109084399Y-87263464D01*
X109060694Y-87265799D01*
X108531098Y-87265799D01*
X108652180Y-87144717D01*
X108786898Y-86943097D01*
X108879693Y-86719069D01*
X108927000Y-86481243D01*
X108927000Y-86238757D01*
X108879693Y-86000931D01*
X108786898Y-85776903D01*
X108652180Y-85575283D01*
X108480717Y-85403820D01*
X108279097Y-85269102D01*
X108164832Y-85221772D01*
X108327252Y-85164157D01*
X108577355Y-85015178D01*
X108793588Y-84820269D01*
X108966000Y-84589120D01*
X109138412Y-84820269D01*
X109354645Y-85015178D01*
X109604748Y-85164157D01*
X109767168Y-85221772D01*
X109652903Y-85269102D01*
X109451283Y-85403820D01*
X109279820Y-85575283D01*
X109145102Y-85776903D01*
X109052307Y-86000931D01*
X109005000Y-86238757D01*
X109005000Y-86481243D01*
X109052307Y-86719069D01*
X109145102Y-86943097D01*
X109279820Y-87144717D01*
X109451283Y-87316180D01*
X109652903Y-87450898D01*
X109876931Y-87543693D01*
X110114757Y-87591000D01*
X110357243Y-87591000D01*
X110595069Y-87543693D01*
X110819097Y-87450898D01*
X111020717Y-87316180D01*
X111192180Y-87144717D01*
X111326898Y-86943097D01*
X111419693Y-86719069D01*
X111467000Y-86481243D01*
X111467000Y-86238757D01*
X111419693Y-86000931D01*
X111326898Y-85776903D01*
X111192180Y-85575283D01*
X111020717Y-85403820D01*
X110819097Y-85269102D01*
X110704832Y-85221772D01*
X110867252Y-85164157D01*
X111117355Y-85015178D01*
X111333588Y-84820269D01*
X111507641Y-84586920D01*
X111632825Y-84324099D01*
X111677476Y-84176890D01*
X111556155Y-83947000D01*
X110363000Y-83947000D01*
X110363000Y-83967000D01*
X110109000Y-83967000D01*
X110109000Y-83947000D01*
X107823000Y-83947000D01*
X107823000Y-83967000D01*
X107569000Y-83967000D01*
X107569000Y-83947000D01*
X106375845Y-83947000D01*
X106254524Y-84176890D01*
X106299175Y-84324099D01*
X106424359Y-84586920D01*
X106598412Y-84820269D01*
X106814645Y-85015178D01*
X107064748Y-85164157D01*
X107227168Y-85221772D01*
X107112903Y-85269102D01*
X106911283Y-85403820D01*
X106739820Y-85575283D01*
X106605102Y-85776903D01*
X106512307Y-86000931D01*
X106465000Y-86238757D01*
X106465000Y-86481243D01*
X106512307Y-86719069D01*
X106605102Y-86943097D01*
X106739820Y-87144717D01*
X106878104Y-87283001D01*
X100941871Y-87283001D01*
X99529870Y-85871000D01*
X99644922Y-85871000D01*
X99795809Y-85840987D01*
X99937942Y-85782113D01*
X100065859Y-85696642D01*
X100068002Y-85694500D01*
X100070144Y-85696642D01*
X100198061Y-85782113D01*
X100340194Y-85840987D01*
X100491081Y-85871000D01*
X100644925Y-85871000D01*
X100795812Y-85840987D01*
X100937945Y-85782113D01*
X101065862Y-85696642D01*
X101174645Y-85587859D01*
X101260116Y-85459942D01*
X101318990Y-85317809D01*
X101349003Y-85166922D01*
X101349003Y-85013078D01*
X101318990Y-84862191D01*
X101260116Y-84720058D01*
X101174645Y-84592141D01*
X101065862Y-84483358D01*
X101050603Y-84473162D01*
X101050603Y-83463110D01*
X106254524Y-83463110D01*
X106375845Y-83693000D01*
X107569000Y-83693000D01*
X107569000Y-83673000D01*
X107823000Y-83673000D01*
X107823000Y-83693000D01*
X110109000Y-83693000D01*
X110109000Y-83673000D01*
X110363000Y-83673000D01*
X110363000Y-83693000D01*
X111556155Y-83693000D01*
X111677476Y-83463110D01*
X111632825Y-83315901D01*
X111507641Y-83053080D01*
X111333588Y-82819731D01*
X111117355Y-82624822D01*
X110867252Y-82475843D01*
X110704832Y-82418228D01*
X110819097Y-82370898D01*
X111020717Y-82236180D01*
X111192180Y-82064717D01*
X111326898Y-81863097D01*
X111419693Y-81639069D01*
X111467000Y-81401243D01*
X111467000Y-81158757D01*
X111419693Y-80920931D01*
X111326898Y-80696903D01*
X111192180Y-80495283D01*
X111020717Y-80323820D01*
X110819097Y-80189102D01*
X110595069Y-80096307D01*
X110357243Y-80049000D01*
X110114757Y-80049000D01*
X109876931Y-80096307D01*
X109652903Y-80189102D01*
X109451283Y-80323820D01*
X109279820Y-80495283D01*
X109145102Y-80696903D01*
X109052307Y-80920931D01*
X109005000Y-81158757D01*
X109005000Y-81401243D01*
X109052307Y-81639069D01*
X109145102Y-81863097D01*
X109279820Y-82064717D01*
X109451283Y-82236180D01*
X109652903Y-82370898D01*
X109767168Y-82418228D01*
X109604748Y-82475843D01*
X109354645Y-82624822D01*
X109138412Y-82819731D01*
X108966000Y-83050880D01*
X108793588Y-82819731D01*
X108577355Y-82624822D01*
X108327252Y-82475843D01*
X108164832Y-82418228D01*
X108279097Y-82370898D01*
X108480717Y-82236180D01*
X108652180Y-82064717D01*
X108786898Y-81863097D01*
X108879693Y-81639069D01*
X108927000Y-81401243D01*
X108927000Y-81158757D01*
X108879693Y-80920931D01*
X108786898Y-80696903D01*
X108652180Y-80495283D01*
X108480717Y-80323820D01*
X108279097Y-80189102D01*
X108055069Y-80096307D01*
X107817243Y-80049000D01*
X107574757Y-80049000D01*
X107336931Y-80096307D01*
X107112903Y-80189102D01*
X106911283Y-80323820D01*
X106739820Y-80495283D01*
X106605102Y-80696903D01*
X106512307Y-80920931D01*
X106465000Y-81158757D01*
X106465000Y-81401243D01*
X106512307Y-81639069D01*
X106605102Y-81863097D01*
X106739820Y-82064717D01*
X106911283Y-82236180D01*
X107112903Y-82370898D01*
X107227168Y-82418228D01*
X107064748Y-82475843D01*
X106814645Y-82624822D01*
X106598412Y-82819731D01*
X106424359Y-83053080D01*
X106299175Y-83315901D01*
X106254524Y-83463110D01*
X101050603Y-83463110D01*
X101050603Y-82891991D01*
X101118191Y-82919987D01*
X101269078Y-82950000D01*
X101422922Y-82950000D01*
X101573809Y-82919987D01*
X101715942Y-82861113D01*
X101843859Y-82775642D01*
X101944501Y-82675000D01*
X104242154Y-82675000D01*
X104267000Y-82677447D01*
X104291846Y-82675000D01*
X104291854Y-82675000D01*
X104366193Y-82667678D01*
X104461575Y-82638745D01*
X104549479Y-82591759D01*
X104626527Y-82528527D01*
X104642376Y-82509215D01*
X107259833Y-79891758D01*
X107336931Y-79923693D01*
X107574757Y-79971000D01*
X107817243Y-79971000D01*
X108055069Y-79923693D01*
X108279097Y-79830898D01*
X108480717Y-79696180D01*
X108652180Y-79524717D01*
X108786898Y-79323097D01*
X108818832Y-79246000D01*
X109113168Y-79246000D01*
X109145102Y-79323097D01*
X109279820Y-79524717D01*
X109451283Y-79696180D01*
X109652903Y-79830898D01*
X109876931Y-79923693D01*
X110114757Y-79971000D01*
X110357243Y-79971000D01*
X110595069Y-79923693D01*
X110819097Y-79830898D01*
X111020717Y-79696180D01*
X111192180Y-79524717D01*
X111326898Y-79323097D01*
X111419693Y-79099069D01*
X111467000Y-78861243D01*
X111467000Y-78618757D01*
X111419693Y-78380931D01*
X111326898Y-78156903D01*
X111192180Y-77955283D01*
X111020717Y-77783820D01*
X110819097Y-77649102D01*
X110595069Y-77556307D01*
X110357243Y-77509000D01*
X110114757Y-77509000D01*
X109876931Y-77556307D01*
X109652903Y-77649102D01*
X109451283Y-77783820D01*
X109279820Y-77955283D01*
X109145102Y-78156903D01*
X109113168Y-78234000D01*
X108818832Y-78234000D01*
X108786898Y-78156903D01*
X108652180Y-77955283D01*
X108480717Y-77783820D01*
X108279097Y-77649102D01*
X108055069Y-77556307D01*
X107817243Y-77509000D01*
X107574757Y-77509000D01*
X107336931Y-77556307D01*
X107112903Y-77649102D01*
X106911283Y-77783820D01*
X106739820Y-77955283D01*
X106605102Y-78156903D01*
X106512307Y-78380931D01*
X106465000Y-78618757D01*
X106465000Y-78861243D01*
X106512307Y-79099069D01*
X106544242Y-79176167D01*
X104057409Y-81663000D01*
X101944501Y-81663000D01*
X101843859Y-81562358D01*
X101715942Y-81476887D01*
X101573809Y-81418013D01*
X101422922Y-81388000D01*
X101269078Y-81388000D01*
X101118191Y-81418013D01*
X100976058Y-81476887D01*
X100848141Y-81562358D01*
X100739358Y-81671141D01*
X100709178Y-81716308D01*
X96131948Y-77139078D01*
X99041000Y-77139078D01*
X99041000Y-77292922D01*
X99071013Y-77443809D01*
X99129887Y-77585942D01*
X99215358Y-77713859D01*
X99324141Y-77822642D01*
X99452058Y-77908113D01*
X99594191Y-77966987D01*
X99745078Y-77997000D01*
X99898922Y-77997000D01*
X100049809Y-77966987D01*
X100191942Y-77908113D01*
X100319859Y-77822642D01*
X100428642Y-77713859D01*
X100514113Y-77585942D01*
X100572987Y-77443809D01*
X100603000Y-77292922D01*
X100603000Y-77139078D01*
X100572987Y-76988191D01*
X100514113Y-76846058D01*
X100428642Y-76718141D01*
X100319859Y-76609358D01*
X100191942Y-76523887D01*
X100049809Y-76465013D01*
X99898922Y-76435000D01*
X99745078Y-76435000D01*
X99594191Y-76465013D01*
X99452058Y-76523887D01*
X99324141Y-76609358D01*
X99215358Y-76718141D01*
X99129887Y-76846058D01*
X99071013Y-76988191D01*
X99041000Y-77139078D01*
X96131948Y-77139078D01*
X88638948Y-69646078D01*
X93580000Y-69646078D01*
X93580000Y-69799922D01*
X93610013Y-69950809D01*
X93668887Y-70092942D01*
X93754358Y-70220859D01*
X93863141Y-70329642D01*
X93991058Y-70415113D01*
X94006477Y-70421500D01*
X93991058Y-70427887D01*
X93863141Y-70513358D01*
X93754358Y-70622141D01*
X93668887Y-70750058D01*
X93610013Y-70892191D01*
X93580000Y-71043078D01*
X93580000Y-71196922D01*
X93610013Y-71347809D01*
X93668887Y-71489942D01*
X93754358Y-71617859D01*
X93863141Y-71726642D01*
X93991058Y-71812113D01*
X94133191Y-71870987D01*
X94188558Y-71882000D01*
X94133191Y-71893013D01*
X93991058Y-71951887D01*
X93863141Y-72037358D01*
X93754358Y-72146141D01*
X93668887Y-72274058D01*
X93610013Y-72416191D01*
X93580000Y-72567078D01*
X93580000Y-72720922D01*
X93610013Y-72871809D01*
X93668887Y-73013942D01*
X93754358Y-73141859D01*
X93863141Y-73250642D01*
X93991058Y-73336113D01*
X94133191Y-73394987D01*
X94284078Y-73425000D01*
X94437922Y-73425000D01*
X94588809Y-73394987D01*
X94730942Y-73336113D01*
X94741470Y-73329078D01*
X98787000Y-73329078D01*
X98787000Y-73482922D01*
X98817013Y-73633809D01*
X98875887Y-73775942D01*
X98961358Y-73903859D01*
X99070141Y-74012642D01*
X99198058Y-74098113D01*
X99340191Y-74156987D01*
X99491078Y-74187000D01*
X99644922Y-74187000D01*
X99795809Y-74156987D01*
X99937942Y-74098113D01*
X100065859Y-74012642D01*
X100174642Y-73903859D01*
X100260113Y-73775942D01*
X100318987Y-73633809D01*
X100349000Y-73482922D01*
X100349000Y-73329078D01*
X100318987Y-73178191D01*
X100271688Y-73064000D01*
X106463157Y-73064000D01*
X106463157Y-74764000D01*
X106470513Y-74838689D01*
X106492299Y-74910508D01*
X106527678Y-74976696D01*
X106575289Y-75034711D01*
X106633304Y-75082322D01*
X106699492Y-75117701D01*
X106771311Y-75139487D01*
X106846000Y-75146843D01*
X108546000Y-75146843D01*
X108620689Y-75139487D01*
X108692508Y-75117701D01*
X108758696Y-75082322D01*
X108816711Y-75034711D01*
X108864322Y-74976696D01*
X108899701Y-74910508D01*
X108921487Y-74838689D01*
X108928843Y-74764000D01*
X108928843Y-73064000D01*
X108921487Y-72989311D01*
X108899701Y-72917492D01*
X108864322Y-72851304D01*
X108816711Y-72793289D01*
X108758696Y-72745678D01*
X108692508Y-72710299D01*
X108620689Y-72688513D01*
X108546000Y-72681157D01*
X106846000Y-72681157D01*
X106771311Y-72688513D01*
X106699492Y-72710299D01*
X106633304Y-72745678D01*
X106575289Y-72793289D01*
X106527678Y-72851304D01*
X106492299Y-72917492D01*
X106470513Y-72989311D01*
X106463157Y-73064000D01*
X100271688Y-73064000D01*
X100260113Y-73036058D01*
X100174642Y-72908141D01*
X100065859Y-72799358D01*
X99937942Y-72713887D01*
X99795809Y-72655013D01*
X99644922Y-72625000D01*
X99491078Y-72625000D01*
X99340191Y-72655013D01*
X99198058Y-72713887D01*
X99070141Y-72799358D01*
X98961358Y-72908141D01*
X98875887Y-73036058D01*
X98817013Y-73178191D01*
X98787000Y-73329078D01*
X94741470Y-73329078D01*
X94858859Y-73250642D01*
X94967642Y-73141859D01*
X95053113Y-73013942D01*
X95111987Y-72871809D01*
X95142000Y-72720922D01*
X95142000Y-72567078D01*
X95111987Y-72416191D01*
X95053113Y-72274058D01*
X94967642Y-72146141D01*
X94858859Y-72037358D01*
X94730942Y-71951887D01*
X94588809Y-71893013D01*
X94533442Y-71882000D01*
X94588809Y-71870987D01*
X94730942Y-71812113D01*
X94858859Y-71726642D01*
X94967642Y-71617859D01*
X95053113Y-71489942D01*
X95111987Y-71347809D01*
X95130893Y-71252757D01*
X106465000Y-71252757D01*
X106465000Y-71495243D01*
X106512307Y-71733069D01*
X106605102Y-71957097D01*
X106739820Y-72158717D01*
X106911283Y-72330180D01*
X107112903Y-72464898D01*
X107336931Y-72557693D01*
X107574757Y-72605000D01*
X107817243Y-72605000D01*
X108055069Y-72557693D01*
X108279097Y-72464898D01*
X108480717Y-72330180D01*
X108652180Y-72158717D01*
X108786898Y-71957097D01*
X108834228Y-71842832D01*
X108891843Y-72005252D01*
X109040822Y-72255355D01*
X109235731Y-72471588D01*
X109469080Y-72645641D01*
X109731901Y-72770825D01*
X109759154Y-72779091D01*
X109652903Y-72823102D01*
X109451283Y-72957820D01*
X109279820Y-73129283D01*
X109145102Y-73330903D01*
X109052307Y-73554931D01*
X109005000Y-73792757D01*
X109005000Y-74035243D01*
X109052307Y-74273069D01*
X109145102Y-74497097D01*
X109279820Y-74698717D01*
X109451283Y-74870180D01*
X109652903Y-75004898D01*
X109876931Y-75097693D01*
X110114757Y-75145000D01*
X110357243Y-75145000D01*
X110595069Y-75097693D01*
X110819097Y-75004898D01*
X111020717Y-74870180D01*
X111192180Y-74698717D01*
X111326898Y-74497097D01*
X111419693Y-74273069D01*
X111467000Y-74035243D01*
X111467000Y-73792757D01*
X111419693Y-73554931D01*
X111326898Y-73330903D01*
X111192180Y-73129283D01*
X111020717Y-72957820D01*
X110819097Y-72823102D01*
X110712846Y-72779091D01*
X110740099Y-72770825D01*
X111002920Y-72645641D01*
X111236269Y-72471588D01*
X111431178Y-72255355D01*
X111580157Y-72005252D01*
X111677481Y-71730891D01*
X111556814Y-71501000D01*
X110363000Y-71501000D01*
X110363000Y-71521000D01*
X110109000Y-71521000D01*
X110109000Y-71501000D01*
X110089000Y-71501000D01*
X110089000Y-71247000D01*
X110109000Y-71247000D01*
X110109000Y-70053845D01*
X110363000Y-70053845D01*
X110363000Y-71247000D01*
X111556814Y-71247000D01*
X111677481Y-71017109D01*
X111580157Y-70742748D01*
X111431178Y-70492645D01*
X111236269Y-70276412D01*
X111002920Y-70102359D01*
X110740099Y-69977175D01*
X110592890Y-69932524D01*
X110363000Y-70053845D01*
X110109000Y-70053845D01*
X109879110Y-69932524D01*
X109731901Y-69977175D01*
X109469080Y-70102359D01*
X109235731Y-70276412D01*
X109040822Y-70492645D01*
X108891843Y-70742748D01*
X108834228Y-70905168D01*
X108786898Y-70790903D01*
X108652180Y-70589283D01*
X108480717Y-70417820D01*
X108279097Y-70283102D01*
X108055069Y-70190307D01*
X107817243Y-70143000D01*
X107574757Y-70143000D01*
X107336931Y-70190307D01*
X107112903Y-70283102D01*
X106911283Y-70417820D01*
X106739820Y-70589283D01*
X106605102Y-70790903D01*
X106512307Y-71014931D01*
X106465000Y-71252757D01*
X95130893Y-71252757D01*
X95142000Y-71196922D01*
X95142000Y-71043078D01*
X95111987Y-70892191D01*
X95053113Y-70750058D01*
X94967642Y-70622141D01*
X94858859Y-70513358D01*
X94730942Y-70427887D01*
X94715523Y-70421500D01*
X94730942Y-70415113D01*
X94858859Y-70329642D01*
X94967642Y-70220859D01*
X95053113Y-70092942D01*
X95080395Y-70027078D01*
X103105000Y-70027078D01*
X103105000Y-70180922D01*
X103135013Y-70331809D01*
X103193887Y-70473942D01*
X103279358Y-70601859D01*
X103388141Y-70710642D01*
X103516058Y-70796113D01*
X103658191Y-70854987D01*
X103809078Y-70885000D01*
X103962922Y-70885000D01*
X104113809Y-70854987D01*
X104255942Y-70796113D01*
X104383859Y-70710642D01*
X104492642Y-70601859D01*
X104578113Y-70473942D01*
X104636987Y-70331809D01*
X104667000Y-70180922D01*
X104667000Y-70027078D01*
X104636987Y-69876191D01*
X104578113Y-69734058D01*
X104492642Y-69606141D01*
X104383859Y-69497358D01*
X104255942Y-69411887D01*
X104113809Y-69353013D01*
X103962922Y-69323000D01*
X103809078Y-69323000D01*
X103658191Y-69353013D01*
X103516058Y-69411887D01*
X103388141Y-69497358D01*
X103279358Y-69606141D01*
X103193887Y-69734058D01*
X103135013Y-69876191D01*
X103105000Y-70027078D01*
X95080395Y-70027078D01*
X95111987Y-69950809D01*
X95142000Y-69799922D01*
X95142000Y-69646078D01*
X95111987Y-69495191D01*
X95053113Y-69353058D01*
X94967642Y-69225141D01*
X94858859Y-69116358D01*
X94730942Y-69030887D01*
X94588809Y-68972013D01*
X94437922Y-68942000D01*
X94284078Y-68942000D01*
X94133191Y-68972013D01*
X93991058Y-69030887D01*
X93863141Y-69116358D01*
X93754358Y-69225141D01*
X93668887Y-69353058D01*
X93610013Y-69495191D01*
X93580000Y-69646078D01*
X88638948Y-69646078D01*
X86715600Y-67722731D01*
X86715600Y-66426757D01*
X109005000Y-66426757D01*
X109005000Y-66669243D01*
X109052307Y-66907069D01*
X109145102Y-67131097D01*
X109279820Y-67332717D01*
X109451283Y-67504180D01*
X109652903Y-67638898D01*
X109876931Y-67731693D01*
X110114757Y-67779000D01*
X110357243Y-67779000D01*
X110595069Y-67731693D01*
X110819097Y-67638898D01*
X111020717Y-67504180D01*
X111192180Y-67332717D01*
X111326898Y-67131097D01*
X111419693Y-66907069D01*
X111467000Y-66669243D01*
X111467000Y-66426757D01*
X111419693Y-66188931D01*
X111326898Y-65964903D01*
X111192180Y-65763283D01*
X111020717Y-65591820D01*
X110819097Y-65457102D01*
X110595069Y-65364307D01*
X110357243Y-65317000D01*
X110114757Y-65317000D01*
X109876931Y-65364307D01*
X109652903Y-65457102D01*
X109451283Y-65591820D01*
X109279820Y-65763283D01*
X109145102Y-65964903D01*
X109052307Y-66188931D01*
X109005000Y-66426757D01*
X86715600Y-66426757D01*
X86715600Y-66148838D01*
X86730859Y-66138642D01*
X86839642Y-66029859D01*
X86925113Y-65901942D01*
X86983987Y-65759809D01*
X87014000Y-65608922D01*
X87014000Y-65455078D01*
X86983987Y-65304191D01*
X86925113Y-65162058D01*
X86839642Y-65034141D01*
X86730859Y-64925358D01*
X86602942Y-64839887D01*
X86460809Y-64781013D01*
X86309922Y-64751000D01*
X86156078Y-64751000D01*
X86005191Y-64781013D01*
X85863058Y-64839887D01*
X85735141Y-64925358D01*
X85626358Y-65034141D01*
X85540887Y-65162058D01*
X85482013Y-65304191D01*
X85452000Y-65455078D01*
X85452000Y-65608922D01*
X85482013Y-65759809D01*
X85540887Y-65901942D01*
X85626358Y-66029859D01*
X85735141Y-66138642D01*
X85750401Y-66148838D01*
X85750400Y-67898925D01*
X85749570Y-67907353D01*
X85696642Y-67828141D01*
X85587859Y-67719358D01*
X85459942Y-67633887D01*
X85317809Y-67575013D01*
X85166922Y-67545000D01*
X85013078Y-67545000D01*
X84862191Y-67575013D01*
X84720058Y-67633887D01*
X84592141Y-67719358D01*
X84483358Y-67828141D01*
X84397887Y-67956058D01*
X84339013Y-68098191D01*
X84309000Y-68249078D01*
X84309000Y-68402922D01*
X84339013Y-68553809D01*
X84397887Y-68695942D01*
X84483358Y-68823859D01*
X84592141Y-68932642D01*
X84720058Y-69018113D01*
X84862191Y-69076987D01*
X85013078Y-69107000D01*
X85166922Y-69107000D01*
X85317809Y-69076987D01*
X85459942Y-69018113D01*
X85587859Y-68932642D01*
X85696642Y-68823859D01*
X85782113Y-68695942D01*
X85840987Y-68553809D01*
X85871000Y-68402922D01*
X85871000Y-68249078D01*
X85869210Y-68240077D01*
X85890099Y-68265531D01*
X85908518Y-68280647D01*
X100085404Y-82457534D01*
X100085403Y-84473162D01*
X100070144Y-84483358D01*
X100068002Y-84485501D01*
X100065859Y-84483358D01*
X100050600Y-84473162D01*
X100050600Y-84202337D01*
X100052935Y-84178630D01*
X100043617Y-84084023D01*
X100016022Y-83993053D01*
X99991406Y-83947000D01*
X99971209Y-83909215D01*
X99910901Y-83835729D01*
X99892488Y-83820618D01*
X92013988Y-75942119D01*
X91998872Y-75923700D01*
X91925386Y-75863392D01*
X91841548Y-75818579D01*
X91750577Y-75790984D01*
X91679678Y-75784001D01*
X91679676Y-75784001D01*
X91655971Y-75781666D01*
X91632266Y-75784001D01*
X89166501Y-75784001D01*
X81803420Y-68420921D01*
X81807000Y-68402922D01*
X81807000Y-68249078D01*
X81776987Y-68098191D01*
X81718113Y-67956058D01*
X81632642Y-67828141D01*
X81523859Y-67719358D01*
X81395942Y-67633887D01*
X81253809Y-67575013D01*
X81102922Y-67545000D01*
X80949078Y-67545000D01*
X80798191Y-67575013D01*
X80656058Y-67633887D01*
X80528141Y-67719358D01*
X80419358Y-67828141D01*
X80333887Y-67956058D01*
X80275013Y-68098191D01*
X80245000Y-68249078D01*
X80245000Y-68402922D01*
X80275013Y-68553809D01*
X80333887Y-68695942D01*
X80419358Y-68823859D01*
X80528141Y-68932642D01*
X80656058Y-69018113D01*
X80798191Y-69076987D01*
X80949078Y-69107000D01*
X81102922Y-69107000D01*
X81120921Y-69103420D01*
X88608587Y-76591087D01*
X88623700Y-76609502D01*
X88697186Y-76669810D01*
X88781024Y-76714623D01*
X88871994Y-76742218D01*
X88966601Y-76751536D01*
X88990308Y-76749201D01*
X91456072Y-76749201D01*
X96681887Y-81975017D01*
X96658058Y-81984887D01*
X96530141Y-82070358D01*
X96421358Y-82179141D01*
X96335887Y-82307058D01*
X96277013Y-82449191D01*
X96248982Y-82590113D01*
X91768780Y-78109911D01*
X91753664Y-78091492D01*
X91680178Y-78031184D01*
X91596340Y-77986371D01*
X91505369Y-77958776D01*
X91434470Y-77951793D01*
X91434468Y-77951793D01*
X91410763Y-77949458D01*
X91387058Y-77951793D01*
X88171445Y-77951793D01*
X88161249Y-77936534D01*
X88052466Y-77827751D01*
X87924549Y-77742280D01*
X87782416Y-77683406D01*
X87631529Y-77653393D01*
X87477685Y-77653393D01*
X87326798Y-77683406D01*
X87184665Y-77742280D01*
X87056748Y-77827751D01*
X86947965Y-77936534D01*
X86867483Y-78056984D01*
X83330128Y-74519629D01*
X83427942Y-74479113D01*
X83555859Y-74393642D01*
X83566000Y-74383501D01*
X83576141Y-74393642D01*
X83704058Y-74479113D01*
X83846191Y-74537987D01*
X83997078Y-74568000D01*
X84150922Y-74568000D01*
X84301809Y-74537987D01*
X84443942Y-74479113D01*
X84571859Y-74393642D01*
X84680642Y-74284859D01*
X84766113Y-74156942D01*
X84824987Y-74014809D01*
X84855000Y-73863922D01*
X84855000Y-73710078D01*
X84824987Y-73559191D01*
X84766113Y-73417058D01*
X84680642Y-73289141D01*
X84571859Y-73180358D01*
X84443942Y-73094887D01*
X84301809Y-73036013D01*
X84150922Y-73006000D01*
X83997078Y-73006000D01*
X83846191Y-73036013D01*
X83704058Y-73094887D01*
X83576141Y-73180358D01*
X83566000Y-73190499D01*
X83555859Y-73180358D01*
X83427942Y-73094887D01*
X83285809Y-73036013D01*
X83134922Y-73006000D01*
X82981078Y-73006000D01*
X82830191Y-73036013D01*
X82688058Y-73094887D01*
X82560141Y-73180358D01*
X82451358Y-73289141D01*
X82365887Y-73417058D01*
X82325371Y-73514872D01*
X79028999Y-70218500D01*
X79028999Y-64185078D01*
X95358000Y-64185078D01*
X95358000Y-64338922D01*
X95388013Y-64489809D01*
X95446887Y-64631942D01*
X95532358Y-64759859D01*
X95641141Y-64868642D01*
X95769058Y-64954113D01*
X95911191Y-65012987D01*
X96062078Y-65043000D01*
X96215922Y-65043000D01*
X96366809Y-65012987D01*
X96508942Y-64954113D01*
X96636859Y-64868642D01*
X96745642Y-64759859D01*
X96831113Y-64631942D01*
X96889987Y-64489809D01*
X96920000Y-64338922D01*
X96920000Y-64185078D01*
X96889987Y-64034191D01*
X96831113Y-63892058D01*
X96827572Y-63886757D01*
X109005000Y-63886757D01*
X109005000Y-64129243D01*
X109052307Y-64367069D01*
X109145102Y-64591097D01*
X109279820Y-64792717D01*
X109451283Y-64964180D01*
X109652903Y-65098898D01*
X109876931Y-65191693D01*
X110114757Y-65239000D01*
X110357243Y-65239000D01*
X110595069Y-65191693D01*
X110819097Y-65098898D01*
X111020717Y-64964180D01*
X111192180Y-64792717D01*
X111326898Y-64591097D01*
X111419693Y-64367069D01*
X111467000Y-64129243D01*
X111467000Y-63886757D01*
X111419693Y-63648931D01*
X111326898Y-63424903D01*
X111192180Y-63223283D01*
X111020717Y-63051820D01*
X110819097Y-62917102D01*
X110595069Y-62824307D01*
X110357243Y-62777000D01*
X110114757Y-62777000D01*
X109876931Y-62824307D01*
X109652903Y-62917102D01*
X109451283Y-63051820D01*
X109279820Y-63223283D01*
X109145102Y-63424903D01*
X109052307Y-63648931D01*
X109005000Y-63886757D01*
X96827572Y-63886757D01*
X96745642Y-63764141D01*
X96636859Y-63655358D01*
X96508942Y-63569887D01*
X96366809Y-63511013D01*
X96215922Y-63481000D01*
X96062078Y-63481000D01*
X95911191Y-63511013D01*
X95769058Y-63569887D01*
X95641141Y-63655358D01*
X95532358Y-63764141D01*
X95446887Y-63892058D01*
X95388013Y-64034191D01*
X95358000Y-64185078D01*
X79028999Y-64185078D01*
X79028999Y-59778000D01*
X108747928Y-59778000D01*
X108760188Y-59902482D01*
X108796498Y-60022180D01*
X108855463Y-60132494D01*
X108934815Y-60229185D01*
X109031506Y-60308537D01*
X109141820Y-60367502D01*
X109261518Y-60403812D01*
X109386000Y-60416072D01*
X109596294Y-60414927D01*
X109451283Y-60511820D01*
X109279820Y-60683283D01*
X109145102Y-60884903D01*
X109052307Y-61108931D01*
X109005000Y-61346757D01*
X109005000Y-61589243D01*
X109052307Y-61827069D01*
X109145102Y-62051097D01*
X109279820Y-62252717D01*
X109451283Y-62424180D01*
X109652903Y-62558898D01*
X109876931Y-62651693D01*
X110114757Y-62699000D01*
X110357243Y-62699000D01*
X110595069Y-62651693D01*
X110819097Y-62558898D01*
X111020717Y-62424180D01*
X111192180Y-62252717D01*
X111326898Y-62051097D01*
X111419693Y-61827069D01*
X111467000Y-61589243D01*
X111467000Y-61346757D01*
X111419693Y-61108931D01*
X111326898Y-60884903D01*
X111192180Y-60683283D01*
X111020717Y-60511820D01*
X110875706Y-60414927D01*
X111086000Y-60416072D01*
X111210482Y-60403812D01*
X111330180Y-60367502D01*
X111440494Y-60308537D01*
X111537185Y-60229185D01*
X111616537Y-60132494D01*
X111675502Y-60022180D01*
X111711812Y-59902482D01*
X111724072Y-59778000D01*
X111721000Y-59213750D01*
X111562250Y-59055000D01*
X110363000Y-59055000D01*
X110363000Y-59075000D01*
X110109000Y-59075000D01*
X110109000Y-59055000D01*
X108909750Y-59055000D01*
X108751000Y-59213750D01*
X108747928Y-59778000D01*
X79028999Y-59778000D01*
X79028999Y-58078000D01*
X108747928Y-58078000D01*
X108751000Y-58642250D01*
X108909750Y-58801000D01*
X110109000Y-58801000D01*
X110109000Y-57601750D01*
X110363000Y-57601750D01*
X110363000Y-58801000D01*
X111562250Y-58801000D01*
X111721000Y-58642250D01*
X111724072Y-58078000D01*
X111711812Y-57953518D01*
X111675502Y-57833820D01*
X111616537Y-57723506D01*
X111537185Y-57626815D01*
X111440494Y-57547463D01*
X111330180Y-57488498D01*
X111210482Y-57452188D01*
X111086000Y-57439928D01*
X110521750Y-57443000D01*
X110363000Y-57601750D01*
X110109000Y-57601750D01*
X109950250Y-57443000D01*
X109386000Y-57439928D01*
X109261518Y-57452188D01*
X109141820Y-57488498D01*
X109031506Y-57547463D01*
X108934815Y-57626815D01*
X108855463Y-57723506D01*
X108796498Y-57833820D01*
X108760188Y-57953518D01*
X108747928Y-58078000D01*
X79028999Y-58078000D01*
X79028999Y-56726106D01*
X79031334Y-56702399D01*
X79022016Y-56607792D01*
X78994421Y-56516822D01*
X78949607Y-56432983D01*
X78904412Y-56377912D01*
X78904411Y-56377911D01*
X78889300Y-56359498D01*
X78870887Y-56344387D01*
X76469420Y-53942921D01*
X76473000Y-53924922D01*
X76473000Y-53771078D01*
X76442987Y-53620191D01*
X76384113Y-53478058D01*
X76298642Y-53350141D01*
X76189859Y-53241358D01*
X76061942Y-53155887D01*
X75919809Y-53097013D01*
X75768922Y-53067000D01*
X75615078Y-53067000D01*
X75464191Y-53097013D01*
X75322058Y-53155887D01*
X75194141Y-53241358D01*
X75085358Y-53350141D01*
X74999887Y-53478058D01*
X74941013Y-53620191D01*
X74911000Y-53771078D01*
X74911000Y-53924922D01*
X74941013Y-54075809D01*
X74999887Y-54217942D01*
X75085358Y-54345859D01*
X75194141Y-54454642D01*
X75322058Y-54540113D01*
X75464191Y-54598987D01*
X75615078Y-54629000D01*
X75768922Y-54629000D01*
X75786921Y-54625420D01*
X78063800Y-56902300D01*
X78063800Y-57030605D01*
X77966942Y-56965887D01*
X77824809Y-56907013D01*
X77673922Y-56877000D01*
X77520078Y-56877000D01*
X77369191Y-56907013D01*
X77227058Y-56965887D01*
X77099141Y-57051358D01*
X76990358Y-57160141D01*
X76904887Y-57288058D01*
X76846013Y-57430191D01*
X76816000Y-57581078D01*
X76816000Y-57734922D01*
X76846013Y-57885809D01*
X76904887Y-58027942D01*
X76990358Y-58155859D01*
X77099141Y-58264642D01*
X77114401Y-58274838D01*
X77114400Y-72747293D01*
X77112065Y-72771000D01*
X77121383Y-72865606D01*
X77148978Y-72956577D01*
X77155344Y-72968486D01*
X77193791Y-73040415D01*
X77254099Y-73113901D01*
X77272518Y-73129017D01*
X89868393Y-85724892D01*
X89868393Y-85735541D01*
X89892642Y-85857449D01*
X89940208Y-85972284D01*
X90009263Y-86075632D01*
X90097154Y-86163523D01*
X90200502Y-86232578D01*
X90315337Y-86280144D01*
X90437245Y-86304393D01*
X90561541Y-86304393D01*
X90683449Y-86280144D01*
X90718395Y-86265669D01*
X90718395Y-86802476D01*
X90560870Y-86960001D01*
X90287130Y-86960001D01*
X75793600Y-72466471D01*
X75793600Y-59544838D01*
X75808859Y-59534642D01*
X75917642Y-59425859D01*
X76003113Y-59297942D01*
X76061987Y-59155809D01*
X76092000Y-59004922D01*
X76092000Y-58851078D01*
X76061987Y-58700191D01*
X76003113Y-58558058D01*
X75917642Y-58430141D01*
X75808859Y-58321358D01*
X75680942Y-58235887D01*
X75538809Y-58177013D01*
X75387922Y-58147000D01*
X75234078Y-58147000D01*
X75083191Y-58177013D01*
X74941058Y-58235887D01*
X74813141Y-58321358D01*
X74704358Y-58430141D01*
X74618887Y-58558058D01*
X74560013Y-58700191D01*
X74530000Y-58851078D01*
X66471000Y-58851078D01*
X66471000Y-49961078D01*
X74276000Y-49961078D01*
X74276000Y-50114922D01*
X74306013Y-50265809D01*
X74364887Y-50407942D01*
X74450358Y-50535859D01*
X74559141Y-50644642D01*
X74687058Y-50730113D01*
X74829191Y-50788987D01*
X74980078Y-50819000D01*
X75133922Y-50819000D01*
X75284809Y-50788987D01*
X75426942Y-50730113D01*
X75554859Y-50644642D01*
X75663642Y-50535859D01*
X75744418Y-50414968D01*
X81935000Y-50414968D01*
X81935000Y-51185031D01*
X81960047Y-51439334D01*
X82059027Y-51765629D01*
X82219763Y-52066344D01*
X82436076Y-52329924D01*
X82699655Y-52546237D01*
X83000370Y-52706973D01*
X83326665Y-52805953D01*
X83666000Y-52839375D01*
X84005334Y-52805953D01*
X84331629Y-52706973D01*
X84632344Y-52546237D01*
X84895924Y-52329924D01*
X85112237Y-52066345D01*
X85272973Y-51765630D01*
X85371953Y-51439335D01*
X85397000Y-51185032D01*
X85397000Y-50414969D01*
X85397000Y-50414968D01*
X86135000Y-50414968D01*
X86135000Y-51185031D01*
X86160047Y-51439334D01*
X86259027Y-51765629D01*
X86419763Y-52066344D01*
X86636076Y-52329924D01*
X86899655Y-52546237D01*
X87200370Y-52706973D01*
X87526665Y-52805953D01*
X87866000Y-52839375D01*
X88205334Y-52805953D01*
X88531629Y-52706973D01*
X88832344Y-52546237D01*
X89095924Y-52329924D01*
X89312237Y-52066345D01*
X89472973Y-51765630D01*
X89571953Y-51439335D01*
X89597000Y-51185032D01*
X89597000Y-50927000D01*
X90081000Y-50927000D01*
X90081000Y-51227000D01*
X90143918Y-51611814D01*
X90280700Y-51976959D01*
X90486090Y-52308403D01*
X90752195Y-52593409D01*
X91068789Y-52821024D01*
X91423705Y-52982501D01*
X91630677Y-53036677D01*
X91939000Y-52921829D01*
X91939000Y-50927000D01*
X92193000Y-50927000D01*
X92193000Y-52921829D01*
X92501323Y-53036677D01*
X92708295Y-52982501D01*
X93063211Y-52821024D01*
X93379805Y-52593409D01*
X93645910Y-52308403D01*
X93851300Y-51976959D01*
X93988082Y-51611814D01*
X94051000Y-51227000D01*
X94051000Y-50927000D01*
X92193000Y-50927000D01*
X91939000Y-50927000D01*
X90081000Y-50927000D01*
X89597000Y-50927000D01*
X89597000Y-50414969D01*
X89592867Y-50373000D01*
X90081000Y-50373000D01*
X90081000Y-50673000D01*
X91939000Y-50673000D01*
X91939000Y-48678171D01*
X92193000Y-48678171D01*
X92193000Y-50673000D01*
X94051000Y-50673000D01*
X94051000Y-50373000D01*
X93988082Y-49988186D01*
X93851300Y-49623041D01*
X93713087Y-49400001D01*
X94533157Y-49400001D01*
X94533157Y-52199999D01*
X94545317Y-52323461D01*
X94581329Y-52442178D01*
X94639810Y-52551588D01*
X94718513Y-52647487D01*
X94814412Y-52726190D01*
X94923822Y-52784671D01*
X95042539Y-52820683D01*
X95166001Y-52832843D01*
X97365999Y-52832843D01*
X97489461Y-52820683D01*
X97608178Y-52784671D01*
X97717588Y-52726190D01*
X97813487Y-52647487D01*
X97892190Y-52551588D01*
X97950671Y-52442178D01*
X97986683Y-52323461D01*
X97998843Y-52199999D01*
X97998843Y-49400001D01*
X97986683Y-49276539D01*
X97950671Y-49157822D01*
X97892190Y-49048412D01*
X97813487Y-48952513D01*
X97717588Y-48873810D01*
X97608178Y-48815329D01*
X97489461Y-48779317D01*
X97365999Y-48767157D01*
X95166001Y-48767157D01*
X95042539Y-48779317D01*
X94923822Y-48815329D01*
X94814412Y-48873810D01*
X94718513Y-48952513D01*
X94639810Y-49048412D01*
X94581329Y-49157822D01*
X94545317Y-49276539D01*
X94533157Y-49400001D01*
X93713087Y-49400001D01*
X93645910Y-49291597D01*
X93379805Y-49006591D01*
X93063211Y-48778976D01*
X92708295Y-48617499D01*
X92501323Y-48563323D01*
X92193000Y-48678171D01*
X91939000Y-48678171D01*
X91630677Y-48563323D01*
X91423705Y-48617499D01*
X91068789Y-48778976D01*
X90752195Y-49006591D01*
X90486090Y-49291597D01*
X90280700Y-49623041D01*
X90143918Y-49988186D01*
X90081000Y-50373000D01*
X89592867Y-50373000D01*
X89571953Y-50160666D01*
X89472973Y-49834370D01*
X89312237Y-49533655D01*
X89095924Y-49270076D01*
X88832345Y-49053763D01*
X88531630Y-48893027D01*
X88205335Y-48794047D01*
X87866000Y-48760625D01*
X87526666Y-48794047D01*
X87200371Y-48893027D01*
X86899656Y-49053763D01*
X86636076Y-49270076D01*
X86419763Y-49533655D01*
X86259027Y-49834370D01*
X86160047Y-50160665D01*
X86135000Y-50414968D01*
X85397000Y-50414968D01*
X85371953Y-50160666D01*
X85272973Y-49834370D01*
X85112237Y-49533655D01*
X84895924Y-49270076D01*
X84632345Y-49053763D01*
X84331630Y-48893027D01*
X84005335Y-48794047D01*
X83666000Y-48760625D01*
X83326666Y-48794047D01*
X83000371Y-48893027D01*
X82699656Y-49053763D01*
X82436076Y-49270076D01*
X82219763Y-49533655D01*
X82059027Y-49834370D01*
X81960047Y-50160665D01*
X81935000Y-50414968D01*
X75744418Y-50414968D01*
X75749113Y-50407942D01*
X75807987Y-50265809D01*
X75838000Y-50114922D01*
X75838000Y-49961078D01*
X75807987Y-49810191D01*
X75749113Y-49668058D01*
X75663642Y-49540141D01*
X75554859Y-49431358D01*
X75426942Y-49345887D01*
X75284809Y-49287013D01*
X75133922Y-49257000D01*
X74980078Y-49257000D01*
X74829191Y-49287013D01*
X74687058Y-49345887D01*
X74559141Y-49431358D01*
X74450358Y-49540141D01*
X74364887Y-49668058D01*
X74306013Y-49810191D01*
X74276000Y-49961078D01*
X66471000Y-49961078D01*
X66471000Y-45487079D01*
X66507649Y-45113302D01*
X66523000Y-45113302D01*
X66523000Y-45818698D01*
X66660616Y-46510539D01*
X66930559Y-47162240D01*
X67322456Y-47748754D01*
X67821246Y-48247544D01*
X68407760Y-48639441D01*
X69059461Y-48909384D01*
X69751302Y-49047000D01*
X70456698Y-49047000D01*
X71148539Y-48909384D01*
X71800240Y-48639441D01*
X72386754Y-48247544D01*
X72885544Y-47748754D01*
X73277441Y-47162240D01*
X73547384Y-46510539D01*
X73685000Y-45818698D01*
X73685000Y-45427000D01*
X81681000Y-45427000D01*
X81681000Y-45727000D01*
X81743918Y-46111814D01*
X81880700Y-46476959D01*
X82086090Y-46808403D01*
X82352195Y-47093409D01*
X82668789Y-47321024D01*
X83023705Y-47482501D01*
X83230677Y-47536677D01*
X83539000Y-47421829D01*
X83539000Y-45427000D01*
X83793000Y-45427000D01*
X83793000Y-47421829D01*
X84101323Y-47536677D01*
X84308295Y-47482501D01*
X84663211Y-47321024D01*
X84979805Y-47093409D01*
X85245910Y-46808403D01*
X85451300Y-46476959D01*
X85588082Y-46111814D01*
X85651000Y-45727000D01*
X85651000Y-45427000D01*
X83793000Y-45427000D01*
X83539000Y-45427000D01*
X81681000Y-45427000D01*
X73685000Y-45427000D01*
X73685000Y-45113302D01*
X73637201Y-44873000D01*
X81681000Y-44873000D01*
X81681000Y-45173000D01*
X83539000Y-45173000D01*
X83539000Y-43178171D01*
X83793000Y-43178171D01*
X83793000Y-45173000D01*
X85651000Y-45173000D01*
X85651000Y-44914968D01*
X86135000Y-44914968D01*
X86135000Y-45685031D01*
X86160047Y-45939334D01*
X86259027Y-46265629D01*
X86419763Y-46566344D01*
X86636076Y-46829924D01*
X86899655Y-47046237D01*
X87200370Y-47206973D01*
X87526665Y-47305953D01*
X87866000Y-47339375D01*
X88205334Y-47305953D01*
X88531629Y-47206973D01*
X88832344Y-47046237D01*
X89095924Y-46829924D01*
X89312237Y-46566345D01*
X89472973Y-46265630D01*
X89571953Y-45939335D01*
X89597000Y-45685032D01*
X89597000Y-44914969D01*
X89597000Y-44914968D01*
X90335000Y-44914968D01*
X90335000Y-45685031D01*
X90360047Y-45939334D01*
X90459027Y-46265629D01*
X90619763Y-46566344D01*
X90836076Y-46829924D01*
X91099655Y-47046237D01*
X91400370Y-47206973D01*
X91726665Y-47305953D01*
X92066000Y-47339375D01*
X92405334Y-47305953D01*
X92731629Y-47206973D01*
X93032344Y-47046237D01*
X93295924Y-46829924D01*
X93512237Y-46566345D01*
X93672973Y-46265630D01*
X93771953Y-45939335D01*
X93797000Y-45685032D01*
X93797000Y-45427000D01*
X94281000Y-45427000D01*
X94281000Y-45727000D01*
X94343918Y-46111814D01*
X94480700Y-46476959D01*
X94686090Y-46808403D01*
X94952195Y-47093409D01*
X95268789Y-47321024D01*
X95623705Y-47482501D01*
X95830677Y-47536677D01*
X96139000Y-47421829D01*
X96139000Y-45427000D01*
X96393000Y-45427000D01*
X96393000Y-47421829D01*
X96701323Y-47536677D01*
X96908295Y-47482501D01*
X97263211Y-47321024D01*
X97579805Y-47093409D01*
X97845910Y-46808403D01*
X98051300Y-46476959D01*
X98188082Y-46111814D01*
X98251000Y-45727000D01*
X98251000Y-45427000D01*
X96393000Y-45427000D01*
X96139000Y-45427000D01*
X94281000Y-45427000D01*
X93797000Y-45427000D01*
X93797000Y-44914969D01*
X93792867Y-44873000D01*
X94281000Y-44873000D01*
X94281000Y-45173000D01*
X96139000Y-45173000D01*
X96139000Y-43178171D01*
X96393000Y-43178171D01*
X96393000Y-45173000D01*
X98251000Y-45173000D01*
X98251000Y-45113302D01*
X105131000Y-45113302D01*
X105131000Y-45818698D01*
X105268616Y-46510539D01*
X105538559Y-47162240D01*
X105930456Y-47748754D01*
X106429246Y-48247544D01*
X107015760Y-48639441D01*
X107667461Y-48909384D01*
X108359302Y-49047000D01*
X109064698Y-49047000D01*
X109756539Y-48909384D01*
X110408240Y-48639441D01*
X110994754Y-48247544D01*
X111493544Y-47748754D01*
X111885441Y-47162240D01*
X112155384Y-46510539D01*
X112293000Y-45818698D01*
X112293000Y-45113302D01*
X112155384Y-44421461D01*
X111885441Y-43769760D01*
X111493544Y-43183246D01*
X110994754Y-42684456D01*
X110408240Y-42292559D01*
X109756539Y-42022616D01*
X109064698Y-41885000D01*
X108359302Y-41885000D01*
X107667461Y-42022616D01*
X107015760Y-42292559D01*
X106429246Y-42684456D01*
X105930456Y-43183246D01*
X105538559Y-43769760D01*
X105268616Y-44421461D01*
X105131000Y-45113302D01*
X98251000Y-45113302D01*
X98251000Y-44873000D01*
X98188082Y-44488186D01*
X98051300Y-44123041D01*
X97845910Y-43791597D01*
X97579805Y-43506591D01*
X97263211Y-43278976D01*
X96908295Y-43117499D01*
X96701323Y-43063323D01*
X96393000Y-43178171D01*
X96139000Y-43178171D01*
X95830677Y-43063323D01*
X95623705Y-43117499D01*
X95268789Y-43278976D01*
X94952195Y-43506591D01*
X94686090Y-43791597D01*
X94480700Y-44123041D01*
X94343918Y-44488186D01*
X94281000Y-44873000D01*
X93792867Y-44873000D01*
X93771953Y-44660666D01*
X93672973Y-44334370D01*
X93512237Y-44033655D01*
X93295924Y-43770076D01*
X93032345Y-43553763D01*
X92731630Y-43393027D01*
X92405335Y-43294047D01*
X92066000Y-43260625D01*
X91726666Y-43294047D01*
X91400371Y-43393027D01*
X91099656Y-43553763D01*
X90836076Y-43770076D01*
X90619763Y-44033655D01*
X90459027Y-44334370D01*
X90360047Y-44660665D01*
X90335000Y-44914968D01*
X89597000Y-44914968D01*
X89571953Y-44660666D01*
X89472973Y-44334370D01*
X89312237Y-44033655D01*
X89095924Y-43770076D01*
X88832345Y-43553763D01*
X88531630Y-43393027D01*
X88205335Y-43294047D01*
X87866000Y-43260625D01*
X87526666Y-43294047D01*
X87200371Y-43393027D01*
X86899656Y-43553763D01*
X86636076Y-43770076D01*
X86419763Y-44033655D01*
X86259027Y-44334370D01*
X86160047Y-44660665D01*
X86135000Y-44914968D01*
X85651000Y-44914968D01*
X85651000Y-44873000D01*
X85588082Y-44488186D01*
X85451300Y-44123041D01*
X85245910Y-43791597D01*
X84979805Y-43506591D01*
X84663211Y-43278976D01*
X84308295Y-43117499D01*
X84101323Y-43063323D01*
X83793000Y-43178171D01*
X83539000Y-43178171D01*
X83230677Y-43063323D01*
X83023705Y-43117499D01*
X82668789Y-43278976D01*
X82352195Y-43506591D01*
X82086090Y-43791597D01*
X81880700Y-44123041D01*
X81743918Y-44488186D01*
X81681000Y-44873000D01*
X73637201Y-44873000D01*
X73547384Y-44421461D01*
X73277441Y-43769760D01*
X72885544Y-43183246D01*
X72386754Y-42684456D01*
X71800240Y-42292559D01*
X71148539Y-42022616D01*
X70456698Y-41885000D01*
X69751302Y-41885000D01*
X69059461Y-42022616D01*
X68407760Y-42292559D01*
X67821246Y-42684456D01*
X67322456Y-43183246D01*
X66930559Y-43769760D01*
X66660616Y-44421461D01*
X66523000Y-45113302D01*
X66507649Y-45113302D01*
X66542217Y-44760751D01*
X66747037Y-44082355D01*
X67079719Y-43456672D01*
X67527597Y-42907520D01*
X68073607Y-42455821D01*
X68696959Y-42118776D01*
X69373899Y-41909228D01*
X70098970Y-41833020D01*
X70104644Y-41833000D01*
X108690921Y-41833000D01*
X109417249Y-41904217D01*
G37*
X109417249Y-41904217D02*
X110095645Y-42109037D01*
X110721328Y-42441719D01*
X111270480Y-42889597D01*
X111722179Y-43435607D01*
X112059224Y-44058959D01*
X112268772Y-44735899D01*
X112344980Y-45460970D01*
X112345001Y-45466931D01*
X112345000Y-106150921D01*
X112273783Y-106877249D01*
X112068964Y-107555643D01*
X111736283Y-108181325D01*
X111288403Y-108730480D01*
X110742393Y-109182179D01*
X110119041Y-109519224D01*
X109442101Y-109728772D01*
X108717030Y-109804980D01*
X108711356Y-109805000D01*
X70125079Y-109805000D01*
X69398751Y-109733783D01*
X68720357Y-109528964D01*
X68094675Y-109196283D01*
X67545520Y-108748403D01*
X67093821Y-108202393D01*
X66756776Y-107579041D01*
X66547228Y-106902101D01*
X66471020Y-106177030D01*
X66471000Y-106171356D01*
X66471000Y-105819302D01*
X66523000Y-105819302D01*
X66523000Y-106524698D01*
X66660616Y-107216539D01*
X66930559Y-107868240D01*
X67322456Y-108454754D01*
X67821246Y-108953544D01*
X68407760Y-109345441D01*
X69059461Y-109615384D01*
X69751302Y-109753000D01*
X70456698Y-109753000D01*
X71148539Y-109615384D01*
X71800240Y-109345441D01*
X72386754Y-108953544D01*
X72885544Y-108454754D01*
X73277441Y-107868240D01*
X73547384Y-107216539D01*
X73669409Y-106603078D01*
X90405000Y-106603078D01*
X90405000Y-106756922D01*
X90435013Y-106907809D01*
X90493887Y-107049942D01*
X90579358Y-107177859D01*
X90688141Y-107286642D01*
X90816058Y-107372113D01*
X90958191Y-107430987D01*
X91109078Y-107461000D01*
X91262922Y-107461000D01*
X91413809Y-107430987D01*
X91555942Y-107372113D01*
X91683859Y-107286642D01*
X91792642Y-107177859D01*
X91878113Y-107049942D01*
X91936987Y-106907809D01*
X91967000Y-106756922D01*
X91967000Y-106603078D01*
X91936987Y-106452191D01*
X91878113Y-106310058D01*
X91792642Y-106182141D01*
X91683859Y-106073358D01*
X91555942Y-105987887D01*
X91413809Y-105929013D01*
X91262922Y-105899000D01*
X91109078Y-105899000D01*
X90958191Y-105929013D01*
X90816058Y-105987887D01*
X90688141Y-106073358D01*
X90579358Y-106182141D01*
X90493887Y-106310058D01*
X90435013Y-106452191D01*
X90405000Y-106603078D01*
X73669409Y-106603078D01*
X73685000Y-106524698D01*
X73685000Y-105819302D01*
X105131000Y-105819302D01*
X105131000Y-106524698D01*
X105268616Y-107216539D01*
X105538559Y-107868240D01*
X105930456Y-108454754D01*
X106429246Y-108953544D01*
X107015760Y-109345441D01*
X107667461Y-109615384D01*
X108359302Y-109753000D01*
X109064698Y-109753000D01*
X109756539Y-109615384D01*
X110408240Y-109345441D01*
X110994754Y-108953544D01*
X111493544Y-108454754D01*
X111885441Y-107868240D01*
X112155384Y-107216539D01*
X112293000Y-106524698D01*
X112293000Y-105819302D01*
X112155384Y-105127461D01*
X111885441Y-104475760D01*
X111493544Y-103889246D01*
X110994754Y-103390456D01*
X110408240Y-102998559D01*
X109756539Y-102728616D01*
X109064698Y-102591000D01*
X108359302Y-102591000D01*
X107667461Y-102728616D01*
X107015760Y-102998559D01*
X106429246Y-103390456D01*
X105930456Y-103889246D01*
X105538559Y-104475760D01*
X105268616Y-105127461D01*
X105131000Y-105819302D01*
X73685000Y-105819302D01*
X73547384Y-105127461D01*
X73277441Y-104475760D01*
X72885544Y-103889246D01*
X72386754Y-103390456D01*
X71800240Y-102998559D01*
X71148539Y-102728616D01*
X70456698Y-102591000D01*
X69751302Y-102591000D01*
X69059461Y-102728616D01*
X68407760Y-102998559D01*
X67821246Y-103390456D01*
X67322456Y-103889246D01*
X66930559Y-104475760D01*
X66660616Y-105127461D01*
X66523000Y-105819302D01*
X66471000Y-105819302D01*
X66471000Y-101777078D01*
X92564000Y-101777078D01*
X92564000Y-101930922D01*
X92594013Y-102081809D01*
X92652887Y-102223942D01*
X92738358Y-102351859D01*
X92847141Y-102460642D01*
X92975058Y-102546113D01*
X93117191Y-102604987D01*
X93268078Y-102635000D01*
X93421922Y-102635000D01*
X93572809Y-102604987D01*
X93714942Y-102546113D01*
X93842859Y-102460642D01*
X93951642Y-102351859D01*
X94037113Y-102223942D01*
X94095987Y-102081809D01*
X94126000Y-101930922D01*
X94126000Y-101777078D01*
X94095987Y-101626191D01*
X94037113Y-101484058D01*
X93951642Y-101356141D01*
X93842859Y-101247358D01*
X93827600Y-101237162D01*
X93827600Y-99491078D01*
X105391000Y-99491078D01*
X105391000Y-99644922D01*
X105421013Y-99795809D01*
X105479887Y-99937942D01*
X105565358Y-100065859D01*
X105674141Y-100174642D01*
X105802058Y-100260113D01*
X105944191Y-100318987D01*
X106095078Y-100349000D01*
X106248922Y-100349000D01*
X106399809Y-100318987D01*
X106541942Y-100260113D01*
X106618438Y-100209000D01*
X107214000Y-100209000D01*
X107214000Y-100559000D01*
X107261546Y-100787742D01*
X107352804Y-101002813D01*
X107484266Y-101195948D01*
X107650881Y-101359725D01*
X107846246Y-101487850D01*
X108062853Y-101575399D01*
X108089256Y-101575803D01*
X108272000Y-101450361D01*
X108272000Y-100209000D01*
X108526000Y-100209000D01*
X108526000Y-101450361D01*
X108708744Y-101575803D01*
X108735147Y-101575399D01*
X108951754Y-101487850D01*
X109147119Y-101359725D01*
X109313734Y-101195948D01*
X109445196Y-101002813D01*
X109536454Y-100787742D01*
X109584000Y-100559000D01*
X109584000Y-100209000D01*
X108526000Y-100209000D01*
X108272000Y-100209000D01*
X107214000Y-100209000D01*
X106618438Y-100209000D01*
X106669859Y-100174642D01*
X106778642Y-100065859D01*
X106864113Y-99937942D01*
X106922987Y-99795809D01*
X106953000Y-99644922D01*
X106953000Y-99605000D01*
X107214000Y-99605000D01*
X107214000Y-99955000D01*
X108272000Y-99955000D01*
X108272000Y-98713639D01*
X108526000Y-98713639D01*
X108526000Y-99955000D01*
X109584000Y-99955000D01*
X109584000Y-99605000D01*
X109536454Y-99376258D01*
X109445196Y-99161187D01*
X109313734Y-98968052D01*
X109147119Y-98804275D01*
X108951754Y-98676150D01*
X108735147Y-98588601D01*
X108708744Y-98588197D01*
X108526000Y-98713639D01*
X108272000Y-98713639D01*
X108089256Y-98588197D01*
X108062853Y-98588601D01*
X107846246Y-98676150D01*
X107650881Y-98804275D01*
X107484266Y-98968052D01*
X107352804Y-99161187D01*
X107261546Y-99376258D01*
X107214000Y-99605000D01*
X106953000Y-99605000D01*
X106953000Y-99491078D01*
X106922987Y-99340191D01*
X106864113Y-99198058D01*
X106778642Y-99070141D01*
X106669859Y-98961358D01*
X106541942Y-98875887D01*
X106399809Y-98817013D01*
X106248922Y-98787000D01*
X106095078Y-98787000D01*
X105944191Y-98817013D01*
X105802058Y-98875887D01*
X105674141Y-98961358D01*
X105565358Y-99070141D01*
X105479887Y-99198058D01*
X105421013Y-99340191D01*
X105391000Y-99491078D01*
X93827600Y-99491078D01*
X93827600Y-97727852D01*
X103031002Y-97727852D01*
X103031002Y-97852148D01*
X103055251Y-97974056D01*
X103102817Y-98088891D01*
X103171872Y-98192239D01*
X103259763Y-98280130D01*
X103363111Y-98349185D01*
X103477946Y-98396751D01*
X103599854Y-98421000D01*
X103724150Y-98421000D01*
X103846058Y-98396751D01*
X103960893Y-98349185D01*
X104064241Y-98280130D01*
X104152132Y-98192239D01*
X104221187Y-98088891D01*
X104268753Y-97974056D01*
X104293002Y-97852148D01*
X104293002Y-97727852D01*
X104268753Y-97605944D01*
X104221187Y-97491109D01*
X104166324Y-97409000D01*
X109364000Y-97409000D01*
X109364000Y-97959000D01*
X109411546Y-98187742D01*
X109502804Y-98402813D01*
X109634266Y-98595948D01*
X109800881Y-98759725D01*
X109996246Y-98887850D01*
X110212853Y-98975399D01*
X110239256Y-98975803D01*
X110422000Y-98850361D01*
X110422000Y-97409000D01*
X110676000Y-97409000D01*
X110676000Y-98850361D01*
X110858744Y-98975803D01*
X110885147Y-98975399D01*
X111101754Y-98887850D01*
X111297119Y-98759725D01*
X111463734Y-98595948D01*
X111595196Y-98402813D01*
X111686454Y-98187742D01*
X111734000Y-97959000D01*
X111734000Y-97409000D01*
X110676000Y-97409000D01*
X110422000Y-97409000D01*
X109364000Y-97409000D01*
X104166324Y-97409000D01*
X104152132Y-97387761D01*
X104064241Y-97299870D01*
X103960893Y-97230815D01*
X103846058Y-97183249D01*
X103724150Y-97159000D01*
X103599854Y-97159000D01*
X103477946Y-97183249D01*
X103363111Y-97230815D01*
X103259763Y-97299870D01*
X103171872Y-97387761D01*
X103102817Y-97491109D01*
X103055251Y-97605944D01*
X103031002Y-97727852D01*
X93827600Y-97727852D01*
X93827600Y-96605000D01*
X109364000Y-96605000D01*
X109364000Y-97155000D01*
X110422000Y-97155000D01*
X110422000Y-95713639D01*
X110676000Y-95713639D01*
X110676000Y-97155000D01*
X111734000Y-97155000D01*
X111734000Y-96605000D01*
X111686454Y-96376258D01*
X111595196Y-96161187D01*
X111463734Y-95968052D01*
X111297119Y-95804275D01*
X111101754Y-95676150D01*
X110885147Y-95588601D01*
X110858744Y-95588197D01*
X110676000Y-95713639D01*
X110422000Y-95713639D01*
X110239256Y-95588197D01*
X110212853Y-95588601D01*
X109996246Y-95676150D01*
X109800881Y-95804275D01*
X109634266Y-95968052D01*
X109502804Y-96161187D01*
X109411546Y-96376258D01*
X109364000Y-96605000D01*
X93827600Y-96605000D01*
X93827600Y-94609000D01*
X107214000Y-94609000D01*
X107214000Y-94959000D01*
X107261546Y-95187742D01*
X107352804Y-95402813D01*
X107484266Y-95595948D01*
X107650881Y-95759725D01*
X107846246Y-95887850D01*
X108062853Y-95975399D01*
X108089256Y-95975803D01*
X108272000Y-95850361D01*
X108272000Y-94609000D01*
X108526000Y-94609000D01*
X108526000Y-95850361D01*
X108708744Y-95975803D01*
X108735147Y-95975399D01*
X108951754Y-95887850D01*
X109147119Y-95759725D01*
X109313734Y-95595948D01*
X109445196Y-95402813D01*
X109536454Y-95187742D01*
X109584000Y-94959000D01*
X109584000Y-94609000D01*
X108526000Y-94609000D01*
X108272000Y-94609000D01*
X107214000Y-94609000D01*
X93827600Y-94609000D01*
X93827600Y-90601078D01*
X94215000Y-90601078D01*
X94215000Y-90754922D01*
X94245013Y-90905809D01*
X94303887Y-91047942D01*
X94389358Y-91175859D01*
X94498141Y-91284642D01*
X94626058Y-91370113D01*
X94768191Y-91428987D01*
X94919078Y-91459000D01*
X95072922Y-91459000D01*
X95223809Y-91428987D01*
X95365942Y-91370113D01*
X95493859Y-91284642D01*
X95602642Y-91175859D01*
X95688113Y-91047942D01*
X95746987Y-90905809D01*
X95773025Y-90774905D01*
X95786358Y-90794859D01*
X95895141Y-90903642D01*
X96023058Y-90989113D01*
X96165191Y-91047987D01*
X96316078Y-91078000D01*
X96469922Y-91078000D01*
X96620809Y-91047987D01*
X96762942Y-90989113D01*
X96890859Y-90903642D01*
X96999642Y-90794859D01*
X97085113Y-90666942D01*
X97143987Y-90524809D01*
X97174000Y-90373922D01*
X97174000Y-90220078D01*
X97143987Y-90069191D01*
X97085113Y-89927058D01*
X96999642Y-89799141D01*
X96890859Y-89690358D01*
X96762942Y-89604887D01*
X96620809Y-89546013D01*
X96469922Y-89516000D01*
X96316078Y-89516000D01*
X96165191Y-89546013D01*
X96023058Y-89604887D01*
X95895141Y-89690358D01*
X95786358Y-89799141D01*
X95700887Y-89927058D01*
X95642013Y-90069191D01*
X95615975Y-90200095D01*
X95602642Y-90180141D01*
X95493859Y-90071358D01*
X95365942Y-89985887D01*
X95223809Y-89927013D01*
X95072922Y-89897000D01*
X94919078Y-89897000D01*
X94768191Y-89927013D01*
X94626058Y-89985887D01*
X94498141Y-90071358D01*
X94389358Y-90180141D01*
X94303887Y-90308058D01*
X94245013Y-90450191D01*
X94215000Y-90601078D01*
X93827600Y-90601078D01*
X93827600Y-88885786D01*
X101778950Y-88885786D01*
X101778950Y-89010082D01*
X101803199Y-89131990D01*
X101850765Y-89246825D01*
X101919820Y-89350173D01*
X101927350Y-89357703D01*
X101927351Y-92290058D01*
X101882249Y-92398944D01*
X101858000Y-92520852D01*
X101858000Y-92645148D01*
X101882249Y-92767056D01*
X101929815Y-92881891D01*
X101998870Y-92985239D01*
X102086761Y-93073130D01*
X102190109Y-93142185D01*
X102304944Y-93189751D01*
X102426852Y-93214000D01*
X102551148Y-93214000D01*
X102673056Y-93189751D01*
X102787891Y-93142185D01*
X102891239Y-93073130D01*
X102979130Y-92985239D01*
X103048185Y-92881891D01*
X103095751Y-92767056D01*
X103120000Y-92645148D01*
X103120000Y-92520852D01*
X103095751Y-92398944D01*
X103087523Y-92379078D01*
X106661000Y-92379078D01*
X106661000Y-92532922D01*
X106691013Y-92683809D01*
X106749887Y-92825942D01*
X106835358Y-92953859D01*
X106944141Y-93062642D01*
X107072058Y-93148113D01*
X107214191Y-93206987D01*
X107365078Y-93237000D01*
X107518922Y-93237000D01*
X107642620Y-93212395D01*
X107484266Y-93368052D01*
X107352804Y-93561187D01*
X107261546Y-93776258D01*
X107214000Y-94005000D01*
X107214000Y-94355000D01*
X108272000Y-94355000D01*
X108272000Y-93113639D01*
X108526000Y-93113639D01*
X108526000Y-94355000D01*
X109584000Y-94355000D01*
X109584000Y-94005000D01*
X109536454Y-93776258D01*
X109445196Y-93561187D01*
X109313734Y-93368052D01*
X109147119Y-93204275D01*
X108951754Y-93076150D01*
X108735147Y-92988601D01*
X108708744Y-92988197D01*
X108526000Y-93113639D01*
X108272000Y-93113639D01*
X108089256Y-92988197D01*
X108062853Y-92988601D01*
X107980692Y-93021809D01*
X108048642Y-92953859D01*
X108134113Y-92825942D01*
X108192987Y-92683809D01*
X108223000Y-92532922D01*
X108223000Y-92379078D01*
X108192987Y-92228191D01*
X108134113Y-92086058D01*
X108048642Y-91958141D01*
X107939859Y-91849358D01*
X107811942Y-91763887D01*
X107669809Y-91705013D01*
X107518922Y-91675000D01*
X107365078Y-91675000D01*
X107214191Y-91705013D01*
X107072058Y-91763887D01*
X106944141Y-91849358D01*
X106835358Y-91958141D01*
X106749887Y-92086058D01*
X106691013Y-92228191D01*
X106661000Y-92379078D01*
X103087523Y-92379078D01*
X103048185Y-92284109D01*
X102979130Y-92180761D01*
X102892550Y-92094181D01*
X102892550Y-89357703D01*
X102900080Y-89350173D01*
X102969135Y-89246825D01*
X103016701Y-89131990D01*
X103040950Y-89010082D01*
X103040950Y-88885786D01*
X103016701Y-88763878D01*
X102969135Y-88649043D01*
X102900080Y-88545695D01*
X102812189Y-88457804D01*
X102708841Y-88388749D01*
X102594006Y-88341183D01*
X102472098Y-88316934D01*
X102347802Y-88316934D01*
X102225894Y-88341183D01*
X102111059Y-88388749D01*
X102007711Y-88457804D01*
X101919820Y-88545695D01*
X101850765Y-88649043D01*
X101803199Y-88763878D01*
X101778950Y-88885786D01*
X93827600Y-88885786D01*
X93827600Y-86515769D01*
X93835130Y-86508239D01*
X93904185Y-86404891D01*
X93951751Y-86290056D01*
X93976000Y-86168148D01*
X93976000Y-86043852D01*
X93951751Y-85921944D01*
X93904185Y-85807109D01*
X93835130Y-85703761D01*
X93747239Y-85615870D01*
X93643891Y-85546815D01*
X93529056Y-85499249D01*
X93407148Y-85475000D01*
X93282852Y-85475000D01*
X93160944Y-85499249D01*
X93046109Y-85546815D01*
X92942761Y-85615870D01*
X92854870Y-85703761D01*
X92785815Y-85807109D01*
X92738249Y-85921944D01*
X92714000Y-86043852D01*
X92714000Y-86168148D01*
X92738249Y-86290056D01*
X92785815Y-86404891D01*
X92854870Y-86508239D01*
X92862400Y-86515769D01*
X92862401Y-101237162D01*
X92847141Y-101247358D01*
X92738358Y-101356141D01*
X92652887Y-101484058D01*
X92594013Y-101626191D01*
X92564000Y-101777078D01*
X66471000Y-101777078D01*
X66471000Y-81533651D01*
X67407044Y-81533651D01*
X67409380Y-81557366D01*
X67409379Y-97383094D01*
X67407044Y-97406799D01*
X67409379Y-97430504D01*
X67409379Y-97430505D01*
X67416362Y-97501404D01*
X67443957Y-97592375D01*
X67488770Y-97676214D01*
X67549078Y-97749700D01*
X67567497Y-97764816D01*
X68866567Y-99063887D01*
X68881678Y-99082300D01*
X68955164Y-99142608D01*
X69039002Y-99187421D01*
X69129973Y-99215016D01*
X69200872Y-99221999D01*
X69200874Y-99221999D01*
X69224579Y-99224334D01*
X69248284Y-99221999D01*
X83026755Y-99221999D01*
X83050460Y-99224334D01*
X83074165Y-99221999D01*
X83074167Y-99221999D01*
X83145066Y-99215016D01*
X83236037Y-99187421D01*
X83319875Y-99142608D01*
X83393361Y-99082300D01*
X83408477Y-99063881D01*
X89426955Y-93045403D01*
X89443867Y-93038398D01*
X89518119Y-92988785D01*
X89545383Y-93007002D01*
X89660218Y-93054568D01*
X89699990Y-93062479D01*
X89699990Y-93104004D01*
X89724239Y-93225912D01*
X89771805Y-93340747D01*
X89840860Y-93444095D01*
X89928751Y-93531986D01*
X90032099Y-93601041D01*
X90146934Y-93648607D01*
X90268842Y-93672856D01*
X90393138Y-93672856D01*
X90515046Y-93648607D01*
X90629881Y-93601041D01*
X90733229Y-93531986D01*
X90821120Y-93444095D01*
X90890175Y-93340747D01*
X90937741Y-93225912D01*
X90961990Y-93104004D01*
X90961990Y-93088333D01*
X90984198Y-93061272D01*
X91029011Y-92977434D01*
X91048163Y-92914298D01*
X91056606Y-92886464D01*
X91065924Y-92791857D01*
X91063589Y-92768150D01*
X91063589Y-92284458D01*
X91065924Y-92260753D01*
X91063589Y-92237047D01*
X91056606Y-92166148D01*
X91029011Y-92075177D01*
X90984198Y-91991339D01*
X90923890Y-91917853D01*
X90905476Y-91902741D01*
X90179441Y-91176707D01*
X90164325Y-91158288D01*
X90090839Y-91097980D01*
X90007001Y-91053167D01*
X89916030Y-91025572D01*
X89845131Y-91018589D01*
X89845129Y-91018589D01*
X89821424Y-91016254D01*
X89797719Y-91018589D01*
X87494138Y-91018589D01*
X87499000Y-90994148D01*
X87499000Y-90950201D01*
X90102694Y-90950201D01*
X90126399Y-90952536D01*
X90150104Y-90950201D01*
X90150106Y-90950201D01*
X90221005Y-90943218D01*
X90311976Y-90915623D01*
X90395814Y-90870810D01*
X90469300Y-90810502D01*
X90484416Y-90792083D01*
X90729499Y-90547000D01*
X90740148Y-90547000D01*
X90862056Y-90522751D01*
X90976891Y-90475185D01*
X91080239Y-90406130D01*
X91168130Y-90318239D01*
X91237185Y-90214891D01*
X91284751Y-90100056D01*
X91309000Y-89978148D01*
X91309000Y-89853852D01*
X91284751Y-89731944D01*
X91237185Y-89617109D01*
X91168130Y-89513761D01*
X91080239Y-89425870D01*
X90976891Y-89356815D01*
X90862056Y-89309249D01*
X90740148Y-89285000D01*
X90615852Y-89285000D01*
X90493944Y-89309249D01*
X90379109Y-89356815D01*
X90275761Y-89425870D01*
X90187870Y-89513761D01*
X90118815Y-89617109D01*
X90071249Y-89731944D01*
X90047000Y-89853852D01*
X90047000Y-89864501D01*
X89926500Y-89985001D01*
X88259637Y-89985001D01*
X88261000Y-89978148D01*
X88261000Y-89967499D01*
X88519575Y-89708924D01*
X88537994Y-89693808D01*
X88598302Y-89620322D01*
X88643115Y-89536484D01*
X88670710Y-89445513D01*
X88677693Y-89374614D01*
X88677693Y-89374613D01*
X88680028Y-89350908D01*
X88677693Y-89327203D01*
X88677693Y-87678461D01*
X88680028Y-87654754D01*
X88670710Y-87560147D01*
X88643115Y-87469177D01*
X88636910Y-87457568D01*
X88598302Y-87385339D01*
X88537994Y-87311853D01*
X88519581Y-87296742D01*
X87004356Y-85781518D01*
X86989240Y-85763099D01*
X86915754Y-85702791D01*
X86831916Y-85657978D01*
X86740945Y-85630383D01*
X86670046Y-85623400D01*
X86670044Y-85623400D01*
X86646339Y-85621065D01*
X86622634Y-85623400D01*
X84527899Y-85623400D01*
X73722599Y-74818100D01*
X73722599Y-74533703D01*
X73724934Y-74509998D01*
X73718504Y-74444717D01*
X73715616Y-74415393D01*
X73688021Y-74324422D01*
X73643208Y-74240584D01*
X73582900Y-74167098D01*
X73564486Y-74151987D01*
X73532066Y-74119566D01*
X73573693Y-74019069D01*
X73621000Y-73781243D01*
X73621000Y-73538757D01*
X73573693Y-73300931D01*
X73480898Y-73076903D01*
X73346180Y-72875283D01*
X73174717Y-72703820D01*
X72973097Y-72569102D01*
X72749069Y-72476307D01*
X72511243Y-72429000D01*
X72268757Y-72429000D01*
X72030931Y-72476307D01*
X71806903Y-72569102D01*
X71605283Y-72703820D01*
X71602600Y-72706503D01*
X71602600Y-72413704D01*
X71604935Y-72389999D01*
X71602600Y-72366293D01*
X71595617Y-72295394D01*
X71568022Y-72204423D01*
X71523209Y-72120585D01*
X71462901Y-72047099D01*
X71444482Y-72031983D01*
X70992066Y-71579567D01*
X71033693Y-71479069D01*
X71081000Y-71241243D01*
X71081000Y-70998757D01*
X71159000Y-70998757D01*
X71159000Y-71241243D01*
X71206307Y-71479069D01*
X71299102Y-71703097D01*
X71433820Y-71904717D01*
X71605283Y-72076180D01*
X71806903Y-72210898D01*
X72030931Y-72303693D01*
X72268757Y-72351000D01*
X72511243Y-72351000D01*
X72749069Y-72303693D01*
X72973097Y-72210898D01*
X73174717Y-72076180D01*
X73346180Y-71904717D01*
X73480898Y-71703097D01*
X73573693Y-71479069D01*
X73621000Y-71241243D01*
X73621000Y-70998757D01*
X73573693Y-70760931D01*
X73480898Y-70536903D01*
X73346180Y-70335283D01*
X73174717Y-70163820D01*
X72973097Y-70029102D01*
X72749069Y-69936307D01*
X72511243Y-69889000D01*
X72268757Y-69889000D01*
X72030931Y-69936307D01*
X71806903Y-70029102D01*
X71605283Y-70163820D01*
X71433820Y-70335283D01*
X71299102Y-70536903D01*
X71206307Y-70760931D01*
X71159000Y-70998757D01*
X71081000Y-70998757D01*
X71033693Y-70760931D01*
X70940898Y-70536903D01*
X70806180Y-70335283D01*
X70634717Y-70163820D01*
X70433097Y-70029102D01*
X70209069Y-69936307D01*
X69971243Y-69889000D01*
X69728757Y-69889000D01*
X69490931Y-69936307D01*
X69266903Y-70029102D01*
X69065283Y-70163820D01*
X68893820Y-70335283D01*
X68759102Y-70536903D01*
X68666307Y-70760931D01*
X68619000Y-70998757D01*
X68619000Y-71241243D01*
X68666307Y-71479069D01*
X68759102Y-71703097D01*
X68893820Y-71904717D01*
X69065283Y-72076180D01*
X69266903Y-72210898D01*
X69490931Y-72303693D01*
X69728757Y-72351000D01*
X69971243Y-72351000D01*
X70209069Y-72303693D01*
X70309567Y-72262066D01*
X70637401Y-72589900D01*
X70637401Y-72706504D01*
X70634717Y-72703820D01*
X70433097Y-72569102D01*
X70209069Y-72476307D01*
X69971243Y-72429000D01*
X69728757Y-72429000D01*
X69490931Y-72476307D01*
X69266903Y-72569102D01*
X69065283Y-72703820D01*
X68893820Y-72875283D01*
X68759102Y-73076903D01*
X68666307Y-73300931D01*
X68619000Y-73538757D01*
X68619000Y-73781243D01*
X68666307Y-74019069D01*
X68707934Y-74119567D01*
X68255513Y-74571988D01*
X68237100Y-74587099D01*
X68221989Y-74605512D01*
X68221987Y-74605514D01*
X68176792Y-74660585D01*
X68131978Y-74744424D01*
X68104384Y-74835394D01*
X68095065Y-74930000D01*
X68097401Y-74953715D01*
X68097400Y-76710980D01*
X68095065Y-76734685D01*
X68097400Y-76758390D01*
X68097400Y-76758391D01*
X68104383Y-76829290D01*
X68131978Y-76920261D01*
X68176791Y-77004100D01*
X68237099Y-77077586D01*
X68255518Y-77092702D01*
X68957298Y-77794482D01*
X68972414Y-77812901D01*
X69007449Y-77841654D01*
X68893820Y-77955283D01*
X68759102Y-78156903D01*
X68666307Y-78380931D01*
X68619000Y-78618757D01*
X68619000Y-78861243D01*
X68666307Y-79099069D01*
X68759102Y-79323097D01*
X68893820Y-79524717D01*
X69056117Y-79687014D01*
X67567492Y-81175639D01*
X67549079Y-81190750D01*
X67533968Y-81209163D01*
X67533966Y-81209165D01*
X67488771Y-81264236D01*
X67443957Y-81348075D01*
X67416363Y-81439045D01*
X67407044Y-81533651D01*
X66471000Y-81533651D01*
X66471000Y-68458757D01*
X68619000Y-68458757D01*
X68619000Y-68701243D01*
X68666307Y-68939069D01*
X68759102Y-69163097D01*
X68893820Y-69364717D01*
X69065283Y-69536180D01*
X69266903Y-69670898D01*
X69490931Y-69763693D01*
X69728757Y-69811000D01*
X69971243Y-69811000D01*
X70209069Y-69763693D01*
X70433097Y-69670898D01*
X70634717Y-69536180D01*
X70806180Y-69364717D01*
X70940898Y-69163097D01*
X71033693Y-68939069D01*
X71081000Y-68701243D01*
X71081000Y-68458757D01*
X71159000Y-68458757D01*
X71159000Y-68701243D01*
X71206307Y-68939069D01*
X71299102Y-69163097D01*
X71433820Y-69364717D01*
X71605283Y-69536180D01*
X71806903Y-69670898D01*
X72030931Y-69763693D01*
X72268757Y-69811000D01*
X72511243Y-69811000D01*
X72749069Y-69763693D01*
X72973097Y-69670898D01*
X73174717Y-69536180D01*
X73346180Y-69364717D01*
X73480898Y-69163097D01*
X73573693Y-68939069D01*
X73621000Y-68701243D01*
X73621000Y-68458757D01*
X73573693Y-68220931D01*
X73480898Y-67996903D01*
X73346180Y-67795283D01*
X73174717Y-67623820D01*
X72973097Y-67489102D01*
X72868683Y-67445852D01*
X73023747Y-67390919D01*
X73161157Y-67317472D01*
X73238792Y-67068397D01*
X72390000Y-66219605D01*
X71541208Y-67068397D01*
X71618843Y-67317472D01*
X71882883Y-67443371D01*
X71904228Y-67448789D01*
X71806903Y-67489102D01*
X71605283Y-67623820D01*
X71433820Y-67795283D01*
X71299102Y-67996903D01*
X71206307Y-68220931D01*
X71159000Y-68458757D01*
X71081000Y-68458757D01*
X71033693Y-68220931D01*
X70940898Y-67996903D01*
X70806180Y-67795283D01*
X70634717Y-67623820D01*
X70433097Y-67489102D01*
X70328683Y-67445852D01*
X70483747Y-67390919D01*
X70621157Y-67317472D01*
X70698792Y-67068397D01*
X69850000Y-66219605D01*
X69001208Y-67068397D01*
X69078843Y-67317472D01*
X69342883Y-67443371D01*
X69364228Y-67448789D01*
X69266903Y-67489102D01*
X69065283Y-67623820D01*
X68893820Y-67795283D01*
X68759102Y-67996903D01*
X68666307Y-68220931D01*
X68619000Y-68458757D01*
X66471000Y-68458757D01*
X66471000Y-66108531D01*
X68359389Y-66108531D01*
X68401401Y-66398019D01*
X68499081Y-66673747D01*
X68572528Y-66811157D01*
X68821603Y-66888792D01*
X69670395Y-66040000D01*
X70029605Y-66040000D01*
X70878397Y-66888792D01*
X71120000Y-66813486D01*
X71361603Y-66888792D01*
X72210395Y-66040000D01*
X72569605Y-66040000D01*
X73418397Y-66888792D01*
X73667472Y-66811157D01*
X73793371Y-66547117D01*
X73865339Y-66263589D01*
X73880611Y-65971469D01*
X73838599Y-65681981D01*
X73740919Y-65406253D01*
X73667472Y-65268843D01*
X73418397Y-65191208D01*
X72569605Y-66040000D01*
X72210395Y-66040000D01*
X71361603Y-65191208D01*
X71120000Y-65266514D01*
X70878397Y-65191208D01*
X70029605Y-66040000D01*
X69670395Y-66040000D01*
X68821603Y-65191208D01*
X68572528Y-65268843D01*
X68446629Y-65532883D01*
X68374661Y-65816411D01*
X68359389Y-66108531D01*
X66471000Y-66108531D01*
X66471000Y-65011603D01*
X69001208Y-65011603D01*
X69850000Y-65860395D01*
X70698792Y-65011603D01*
X71541208Y-65011603D01*
X72390000Y-65860395D01*
X73238792Y-65011603D01*
X73161157Y-64762528D01*
X72897117Y-64636629D01*
X72613589Y-64564661D01*
X72321469Y-64549389D01*
X72031981Y-64591401D01*
X71756253Y-64689081D01*
X71618843Y-64762528D01*
X71541208Y-65011603D01*
X70698792Y-65011603D01*
X70621157Y-64762528D01*
X70357117Y-64636629D01*
X70073589Y-64564661D01*
X69781469Y-64549389D01*
X69491981Y-64591401D01*
X69216253Y-64689081D01*
X69078843Y-64762528D01*
X69001208Y-65011603D01*
X66471000Y-65011603D01*
X66471000Y-58851078D01*
X74530000Y-58851078D01*
X74530000Y-59004922D01*
X74560013Y-59155809D01*
X74618887Y-59297942D01*
X74704358Y-59425859D01*
X74813141Y-59534642D01*
X74828401Y-59544838D01*
X74828400Y-72642665D01*
X74826065Y-72666370D01*
X74828400Y-72690075D01*
X74828400Y-72690076D01*
X74835383Y-72760975D01*
X74862978Y-72851946D01*
X74907791Y-72935785D01*
X74968099Y-73009271D01*
X74986518Y-73024387D01*
X89729214Y-87767083D01*
X89744330Y-87785502D01*
X89817816Y-87845810D01*
X89901654Y-87890623D01*
X89992625Y-87918218D01*
X90063524Y-87925201D01*
X90063525Y-87925201D01*
X90087230Y-87927536D01*
X90110935Y-87925201D01*
X90737064Y-87925201D01*
X90760769Y-87927536D01*
X90784474Y-87925201D01*
X90784476Y-87925201D01*
X90855375Y-87918218D01*
X90946346Y-87890623D01*
X91030184Y-87845810D01*
X91103670Y-87785502D01*
X91118786Y-87767083D01*
X91525476Y-87360393D01*
X91543895Y-87345277D01*
X91604203Y-87271791D01*
X91649016Y-87187953D01*
X91676611Y-87096982D01*
X91683594Y-87026083D01*
X91683594Y-87026082D01*
X91685929Y-87002377D01*
X91683594Y-86978672D01*
X91683594Y-85346680D01*
X91685928Y-85322983D01*
X91683594Y-85299286D01*
X91683594Y-85299277D01*
X91676611Y-85228378D01*
X91649016Y-85137407D01*
X91604203Y-85053569D01*
X91543895Y-84980083D01*
X91525476Y-84964967D01*
X91160291Y-84599782D01*
X91160291Y-84589133D01*
X91136042Y-84467225D01*
X91088476Y-84352390D01*
X91019421Y-84249042D01*
X90931530Y-84161151D01*
X90828182Y-84092096D01*
X90713347Y-84044530D01*
X90591439Y-84020281D01*
X90467143Y-84020281D01*
X90345235Y-84044530D01*
X90230400Y-84092096D01*
X90127052Y-84161151D01*
X90039161Y-84249042D01*
X89970106Y-84352390D01*
X89938117Y-84429618D01*
X78663500Y-73155001D01*
X78676642Y-73141859D01*
X78762113Y-73013942D01*
X78820987Y-72871809D01*
X78851000Y-72720922D01*
X78851000Y-72567078D01*
X78820987Y-72416191D01*
X78762113Y-72274058D01*
X78676642Y-72146141D01*
X78567859Y-72037358D01*
X78439942Y-71951887D01*
X78297809Y-71893013D01*
X78146922Y-71863000D01*
X78079600Y-71863000D01*
X78079600Y-70542074D01*
X78098377Y-70603975D01*
X78143190Y-70687814D01*
X78203498Y-70761300D01*
X78221917Y-70776416D01*
X91845426Y-84399926D01*
X91860537Y-84418339D01*
X91934023Y-84478647D01*
X91966458Y-84495984D01*
X92017861Y-84523460D01*
X92108831Y-84551055D01*
X92203438Y-84560373D01*
X92227145Y-84558038D01*
X92310480Y-84558038D01*
X92318010Y-84565568D01*
X92421358Y-84634623D01*
X92536193Y-84682189D01*
X92658101Y-84706438D01*
X92782397Y-84706438D01*
X92904305Y-84682189D01*
X93019140Y-84634623D01*
X93122488Y-84565568D01*
X93210379Y-84477677D01*
X93279434Y-84374329D01*
X93327000Y-84259494D01*
X93351249Y-84137586D01*
X93351249Y-84013290D01*
X93327000Y-83891382D01*
X93279434Y-83776547D01*
X93210379Y-83673199D01*
X93122488Y-83585308D01*
X93019140Y-83516253D01*
X92904305Y-83468687D01*
X92782397Y-83444438D01*
X92658101Y-83444438D01*
X92536193Y-83468687D01*
X92421358Y-83516253D01*
X92364646Y-83554146D01*
X87932016Y-79121517D01*
X88052466Y-79041035D01*
X88161249Y-78932252D01*
X88171445Y-78916993D01*
X91210864Y-78916993D01*
X93887887Y-81594017D01*
X93864058Y-81603887D01*
X93736141Y-81689358D01*
X93627358Y-81798141D01*
X93541887Y-81926058D01*
X93483013Y-82068191D01*
X93453000Y-82219078D01*
X93453000Y-82372922D01*
X93483013Y-82523809D01*
X93541887Y-82665942D01*
X93627358Y-82793859D01*
X93736141Y-82902642D01*
X93864058Y-82988113D01*
X94006191Y-83046987D01*
X94157078Y-83077000D01*
X94310922Y-83077000D01*
X94461809Y-83046987D01*
X94603942Y-82988113D01*
X94731859Y-82902642D01*
X94840642Y-82793859D01*
X94926113Y-82665942D01*
X94935983Y-82642113D01*
X100383959Y-88090089D01*
X100399070Y-88108502D01*
X100472556Y-88168810D01*
X100546063Y-88208101D01*
X100556394Y-88213623D01*
X100647364Y-88241218D01*
X100741971Y-88250536D01*
X100765678Y-88248201D01*
X106651007Y-88248201D01*
X106605102Y-88316903D01*
X106512307Y-88540931D01*
X106465000Y-88778757D01*
X106465000Y-89021243D01*
X106512307Y-89259069D01*
X106605102Y-89483097D01*
X106739820Y-89684717D01*
X106911283Y-89856180D01*
X107112903Y-89990898D01*
X107336931Y-90083693D01*
X107574757Y-90131000D01*
X107817243Y-90131000D01*
X108055069Y-90083693D01*
X108279097Y-89990898D01*
X108480717Y-89856180D01*
X108652180Y-89684717D01*
X108786898Y-89483097D01*
X108879693Y-89259069D01*
X108927000Y-89021243D01*
X108927000Y-88778757D01*
X108879693Y-88540931D01*
X108786898Y-88316903D01*
X108729499Y-88230999D01*
X108884500Y-88230999D01*
X109003157Y-88349656D01*
X109003157Y-89750000D01*
X109010513Y-89824689D01*
X109032299Y-89896508D01*
X109067678Y-89962696D01*
X109115289Y-90020711D01*
X109173304Y-90068322D01*
X109239492Y-90103701D01*
X109311311Y-90125487D01*
X109386000Y-90132843D01*
X111086000Y-90132843D01*
X111160689Y-90125487D01*
X111232508Y-90103701D01*
X111298696Y-90068322D01*
X111356711Y-90020711D01*
X111404322Y-89962696D01*
X111439701Y-89896508D01*
X111461487Y-89824689D01*
X111468843Y-89750000D01*
X111468843Y-88050000D01*
X111461487Y-87975311D01*
X111439701Y-87903492D01*
X111404322Y-87837304D01*
X111356711Y-87779289D01*
X111298696Y-87731678D01*
X111232508Y-87696299D01*
X111160689Y-87674513D01*
X111086000Y-87667157D01*
X109685656Y-87667157D01*
X109442416Y-87423917D01*
X109427300Y-87405498D01*
X109353814Y-87345190D01*
X109269976Y-87300377D01*
X109179005Y-87272782D01*
X109108106Y-87265799D01*
X109108104Y-87265799D01*
X109084399Y-87263464D01*
X109060694Y-87265799D01*
X108531098Y-87265799D01*
X108652180Y-87144717D01*
X108786898Y-86943097D01*
X108879693Y-86719069D01*
X108927000Y-86481243D01*
X108927000Y-86238757D01*
X108879693Y-86000931D01*
X108786898Y-85776903D01*
X108652180Y-85575283D01*
X108480717Y-85403820D01*
X108279097Y-85269102D01*
X108164832Y-85221772D01*
X108327252Y-85164157D01*
X108577355Y-85015178D01*
X108793588Y-84820269D01*
X108966000Y-84589120D01*
X109138412Y-84820269D01*
X109354645Y-85015178D01*
X109604748Y-85164157D01*
X109767168Y-85221772D01*
X109652903Y-85269102D01*
X109451283Y-85403820D01*
X109279820Y-85575283D01*
X109145102Y-85776903D01*
X109052307Y-86000931D01*
X109005000Y-86238757D01*
X109005000Y-86481243D01*
X109052307Y-86719069D01*
X109145102Y-86943097D01*
X109279820Y-87144717D01*
X109451283Y-87316180D01*
X109652903Y-87450898D01*
X109876931Y-87543693D01*
X110114757Y-87591000D01*
X110357243Y-87591000D01*
X110595069Y-87543693D01*
X110819097Y-87450898D01*
X111020717Y-87316180D01*
X111192180Y-87144717D01*
X111326898Y-86943097D01*
X111419693Y-86719069D01*
X111467000Y-86481243D01*
X111467000Y-86238757D01*
X111419693Y-86000931D01*
X111326898Y-85776903D01*
X111192180Y-85575283D01*
X111020717Y-85403820D01*
X110819097Y-85269102D01*
X110704832Y-85221772D01*
X110867252Y-85164157D01*
X111117355Y-85015178D01*
X111333588Y-84820269D01*
X111507641Y-84586920D01*
X111632825Y-84324099D01*
X111677476Y-84176890D01*
X111556155Y-83947000D01*
X110363000Y-83947000D01*
X110363000Y-83967000D01*
X110109000Y-83967000D01*
X110109000Y-83947000D01*
X107823000Y-83947000D01*
X107823000Y-83967000D01*
X107569000Y-83967000D01*
X107569000Y-83947000D01*
X106375845Y-83947000D01*
X106254524Y-84176890D01*
X106299175Y-84324099D01*
X106424359Y-84586920D01*
X106598412Y-84820269D01*
X106814645Y-85015178D01*
X107064748Y-85164157D01*
X107227168Y-85221772D01*
X107112903Y-85269102D01*
X106911283Y-85403820D01*
X106739820Y-85575283D01*
X106605102Y-85776903D01*
X106512307Y-86000931D01*
X106465000Y-86238757D01*
X106465000Y-86481243D01*
X106512307Y-86719069D01*
X106605102Y-86943097D01*
X106739820Y-87144717D01*
X106878104Y-87283001D01*
X100941871Y-87283001D01*
X99529870Y-85871000D01*
X99644922Y-85871000D01*
X99795809Y-85840987D01*
X99937942Y-85782113D01*
X100065859Y-85696642D01*
X100068002Y-85694500D01*
X100070144Y-85696642D01*
X100198061Y-85782113D01*
X100340194Y-85840987D01*
X100491081Y-85871000D01*
X100644925Y-85871000D01*
X100795812Y-85840987D01*
X100937945Y-85782113D01*
X101065862Y-85696642D01*
X101174645Y-85587859D01*
X101260116Y-85459942D01*
X101318990Y-85317809D01*
X101349003Y-85166922D01*
X101349003Y-85013078D01*
X101318990Y-84862191D01*
X101260116Y-84720058D01*
X101174645Y-84592141D01*
X101065862Y-84483358D01*
X101050603Y-84473162D01*
X101050603Y-83463110D01*
X106254524Y-83463110D01*
X106375845Y-83693000D01*
X107569000Y-83693000D01*
X107569000Y-83673000D01*
X107823000Y-83673000D01*
X107823000Y-83693000D01*
X110109000Y-83693000D01*
X110109000Y-83673000D01*
X110363000Y-83673000D01*
X110363000Y-83693000D01*
X111556155Y-83693000D01*
X111677476Y-83463110D01*
X111632825Y-83315901D01*
X111507641Y-83053080D01*
X111333588Y-82819731D01*
X111117355Y-82624822D01*
X110867252Y-82475843D01*
X110704832Y-82418228D01*
X110819097Y-82370898D01*
X111020717Y-82236180D01*
X111192180Y-82064717D01*
X111326898Y-81863097D01*
X111419693Y-81639069D01*
X111467000Y-81401243D01*
X111467000Y-81158757D01*
X111419693Y-80920931D01*
X111326898Y-80696903D01*
X111192180Y-80495283D01*
X111020717Y-80323820D01*
X110819097Y-80189102D01*
X110595069Y-80096307D01*
X110357243Y-80049000D01*
X110114757Y-80049000D01*
X109876931Y-80096307D01*
X109652903Y-80189102D01*
X109451283Y-80323820D01*
X109279820Y-80495283D01*
X109145102Y-80696903D01*
X109052307Y-80920931D01*
X109005000Y-81158757D01*
X109005000Y-81401243D01*
X109052307Y-81639069D01*
X109145102Y-81863097D01*
X109279820Y-82064717D01*
X109451283Y-82236180D01*
X109652903Y-82370898D01*
X109767168Y-82418228D01*
X109604748Y-82475843D01*
X109354645Y-82624822D01*
X109138412Y-82819731D01*
X108966000Y-83050880D01*
X108793588Y-82819731D01*
X108577355Y-82624822D01*
X108327252Y-82475843D01*
X108164832Y-82418228D01*
X108279097Y-82370898D01*
X108480717Y-82236180D01*
X108652180Y-82064717D01*
X108786898Y-81863097D01*
X108879693Y-81639069D01*
X108927000Y-81401243D01*
X108927000Y-81158757D01*
X108879693Y-80920931D01*
X108786898Y-80696903D01*
X108652180Y-80495283D01*
X108480717Y-80323820D01*
X108279097Y-80189102D01*
X108055069Y-80096307D01*
X107817243Y-80049000D01*
X107574757Y-80049000D01*
X107336931Y-80096307D01*
X107112903Y-80189102D01*
X106911283Y-80323820D01*
X106739820Y-80495283D01*
X106605102Y-80696903D01*
X106512307Y-80920931D01*
X106465000Y-81158757D01*
X106465000Y-81401243D01*
X106512307Y-81639069D01*
X106605102Y-81863097D01*
X106739820Y-82064717D01*
X106911283Y-82236180D01*
X107112903Y-82370898D01*
X107227168Y-82418228D01*
X107064748Y-82475843D01*
X106814645Y-82624822D01*
X106598412Y-82819731D01*
X106424359Y-83053080D01*
X106299175Y-83315901D01*
X106254524Y-83463110D01*
X101050603Y-83463110D01*
X101050603Y-82891991D01*
X101118191Y-82919987D01*
X101269078Y-82950000D01*
X101422922Y-82950000D01*
X101573809Y-82919987D01*
X101715942Y-82861113D01*
X101843859Y-82775642D01*
X101944501Y-82675000D01*
X104242154Y-82675000D01*
X104267000Y-82677447D01*
X104291846Y-82675000D01*
X104291854Y-82675000D01*
X104366193Y-82667678D01*
X104461575Y-82638745D01*
X104549479Y-82591759D01*
X104626527Y-82528527D01*
X104642376Y-82509215D01*
X107259833Y-79891758D01*
X107336931Y-79923693D01*
X107574757Y-79971000D01*
X107817243Y-79971000D01*
X108055069Y-79923693D01*
X108279097Y-79830898D01*
X108480717Y-79696180D01*
X108652180Y-79524717D01*
X108786898Y-79323097D01*
X108818832Y-79246000D01*
X109113168Y-79246000D01*
X109145102Y-79323097D01*
X109279820Y-79524717D01*
X109451283Y-79696180D01*
X109652903Y-79830898D01*
X109876931Y-79923693D01*
X110114757Y-79971000D01*
X110357243Y-79971000D01*
X110595069Y-79923693D01*
X110819097Y-79830898D01*
X111020717Y-79696180D01*
X111192180Y-79524717D01*
X111326898Y-79323097D01*
X111419693Y-79099069D01*
X111467000Y-78861243D01*
X111467000Y-78618757D01*
X111419693Y-78380931D01*
X111326898Y-78156903D01*
X111192180Y-77955283D01*
X111020717Y-77783820D01*
X110819097Y-77649102D01*
X110595069Y-77556307D01*
X110357243Y-77509000D01*
X110114757Y-77509000D01*
X109876931Y-77556307D01*
X109652903Y-77649102D01*
X109451283Y-77783820D01*
X109279820Y-77955283D01*
X109145102Y-78156903D01*
X109113168Y-78234000D01*
X108818832Y-78234000D01*
X108786898Y-78156903D01*
X108652180Y-77955283D01*
X108480717Y-77783820D01*
X108279097Y-77649102D01*
X108055069Y-77556307D01*
X107817243Y-77509000D01*
X107574757Y-77509000D01*
X107336931Y-77556307D01*
X107112903Y-77649102D01*
X106911283Y-77783820D01*
X106739820Y-77955283D01*
X106605102Y-78156903D01*
X106512307Y-78380931D01*
X106465000Y-78618757D01*
X106465000Y-78861243D01*
X106512307Y-79099069D01*
X106544242Y-79176167D01*
X104057409Y-81663000D01*
X101944501Y-81663000D01*
X101843859Y-81562358D01*
X101715942Y-81476887D01*
X101573809Y-81418013D01*
X101422922Y-81388000D01*
X101269078Y-81388000D01*
X101118191Y-81418013D01*
X100976058Y-81476887D01*
X100848141Y-81562358D01*
X100739358Y-81671141D01*
X100709178Y-81716308D01*
X96131948Y-77139078D01*
X99041000Y-77139078D01*
X99041000Y-77292922D01*
X99071013Y-77443809D01*
X99129887Y-77585942D01*
X99215358Y-77713859D01*
X99324141Y-77822642D01*
X99452058Y-77908113D01*
X99594191Y-77966987D01*
X99745078Y-77997000D01*
X99898922Y-77997000D01*
X100049809Y-77966987D01*
X100191942Y-77908113D01*
X100319859Y-77822642D01*
X100428642Y-77713859D01*
X100514113Y-77585942D01*
X100572987Y-77443809D01*
X100603000Y-77292922D01*
X100603000Y-77139078D01*
X100572987Y-76988191D01*
X100514113Y-76846058D01*
X100428642Y-76718141D01*
X100319859Y-76609358D01*
X100191942Y-76523887D01*
X100049809Y-76465013D01*
X99898922Y-76435000D01*
X99745078Y-76435000D01*
X99594191Y-76465013D01*
X99452058Y-76523887D01*
X99324141Y-76609358D01*
X99215358Y-76718141D01*
X99129887Y-76846058D01*
X99071013Y-76988191D01*
X99041000Y-77139078D01*
X96131948Y-77139078D01*
X88638948Y-69646078D01*
X93580000Y-69646078D01*
X93580000Y-69799922D01*
X93610013Y-69950809D01*
X93668887Y-70092942D01*
X93754358Y-70220859D01*
X93863141Y-70329642D01*
X93991058Y-70415113D01*
X94006477Y-70421500D01*
X93991058Y-70427887D01*
X93863141Y-70513358D01*
X93754358Y-70622141D01*
X93668887Y-70750058D01*
X93610013Y-70892191D01*
X93580000Y-71043078D01*
X93580000Y-71196922D01*
X93610013Y-71347809D01*
X93668887Y-71489942D01*
X93754358Y-71617859D01*
X93863141Y-71726642D01*
X93991058Y-71812113D01*
X94133191Y-71870987D01*
X94188558Y-71882000D01*
X94133191Y-71893013D01*
X93991058Y-71951887D01*
X93863141Y-72037358D01*
X93754358Y-72146141D01*
X93668887Y-72274058D01*
X93610013Y-72416191D01*
X93580000Y-72567078D01*
X93580000Y-72720922D01*
X93610013Y-72871809D01*
X93668887Y-73013942D01*
X93754358Y-73141859D01*
X93863141Y-73250642D01*
X93991058Y-73336113D01*
X94133191Y-73394987D01*
X94284078Y-73425000D01*
X94437922Y-73425000D01*
X94588809Y-73394987D01*
X94730942Y-73336113D01*
X94741470Y-73329078D01*
X98787000Y-73329078D01*
X98787000Y-73482922D01*
X98817013Y-73633809D01*
X98875887Y-73775942D01*
X98961358Y-73903859D01*
X99070141Y-74012642D01*
X99198058Y-74098113D01*
X99340191Y-74156987D01*
X99491078Y-74187000D01*
X99644922Y-74187000D01*
X99795809Y-74156987D01*
X99937942Y-74098113D01*
X100065859Y-74012642D01*
X100174642Y-73903859D01*
X100260113Y-73775942D01*
X100318987Y-73633809D01*
X100349000Y-73482922D01*
X100349000Y-73329078D01*
X100318987Y-73178191D01*
X100271688Y-73064000D01*
X106463157Y-73064000D01*
X106463157Y-74764000D01*
X106470513Y-74838689D01*
X106492299Y-74910508D01*
X106527678Y-74976696D01*
X106575289Y-75034711D01*
X106633304Y-75082322D01*
X106699492Y-75117701D01*
X106771311Y-75139487D01*
X106846000Y-75146843D01*
X108546000Y-75146843D01*
X108620689Y-75139487D01*
X108692508Y-75117701D01*
X108758696Y-75082322D01*
X108816711Y-75034711D01*
X108864322Y-74976696D01*
X108899701Y-74910508D01*
X108921487Y-74838689D01*
X108928843Y-74764000D01*
X108928843Y-73064000D01*
X108921487Y-72989311D01*
X108899701Y-72917492D01*
X108864322Y-72851304D01*
X108816711Y-72793289D01*
X108758696Y-72745678D01*
X108692508Y-72710299D01*
X108620689Y-72688513D01*
X108546000Y-72681157D01*
X106846000Y-72681157D01*
X106771311Y-72688513D01*
X106699492Y-72710299D01*
X106633304Y-72745678D01*
X106575289Y-72793289D01*
X106527678Y-72851304D01*
X106492299Y-72917492D01*
X106470513Y-72989311D01*
X106463157Y-73064000D01*
X100271688Y-73064000D01*
X100260113Y-73036058D01*
X100174642Y-72908141D01*
X100065859Y-72799358D01*
X99937942Y-72713887D01*
X99795809Y-72655013D01*
X99644922Y-72625000D01*
X99491078Y-72625000D01*
X99340191Y-72655013D01*
X99198058Y-72713887D01*
X99070141Y-72799358D01*
X98961358Y-72908141D01*
X98875887Y-73036058D01*
X98817013Y-73178191D01*
X98787000Y-73329078D01*
X94741470Y-73329078D01*
X94858859Y-73250642D01*
X94967642Y-73141859D01*
X95053113Y-73013942D01*
X95111987Y-72871809D01*
X95142000Y-72720922D01*
X95142000Y-72567078D01*
X95111987Y-72416191D01*
X95053113Y-72274058D01*
X94967642Y-72146141D01*
X94858859Y-72037358D01*
X94730942Y-71951887D01*
X94588809Y-71893013D01*
X94533442Y-71882000D01*
X94588809Y-71870987D01*
X94730942Y-71812113D01*
X94858859Y-71726642D01*
X94967642Y-71617859D01*
X95053113Y-71489942D01*
X95111987Y-71347809D01*
X95130893Y-71252757D01*
X106465000Y-71252757D01*
X106465000Y-71495243D01*
X106512307Y-71733069D01*
X106605102Y-71957097D01*
X106739820Y-72158717D01*
X106911283Y-72330180D01*
X107112903Y-72464898D01*
X107336931Y-72557693D01*
X107574757Y-72605000D01*
X107817243Y-72605000D01*
X108055069Y-72557693D01*
X108279097Y-72464898D01*
X108480717Y-72330180D01*
X108652180Y-72158717D01*
X108786898Y-71957097D01*
X108834228Y-71842832D01*
X108891843Y-72005252D01*
X109040822Y-72255355D01*
X109235731Y-72471588D01*
X109469080Y-72645641D01*
X109731901Y-72770825D01*
X109759154Y-72779091D01*
X109652903Y-72823102D01*
X109451283Y-72957820D01*
X109279820Y-73129283D01*
X109145102Y-73330903D01*
X109052307Y-73554931D01*
X109005000Y-73792757D01*
X109005000Y-74035243D01*
X109052307Y-74273069D01*
X109145102Y-74497097D01*
X109279820Y-74698717D01*
X109451283Y-74870180D01*
X109652903Y-75004898D01*
X109876931Y-75097693D01*
X110114757Y-75145000D01*
X110357243Y-75145000D01*
X110595069Y-75097693D01*
X110819097Y-75004898D01*
X111020717Y-74870180D01*
X111192180Y-74698717D01*
X111326898Y-74497097D01*
X111419693Y-74273069D01*
X111467000Y-74035243D01*
X111467000Y-73792757D01*
X111419693Y-73554931D01*
X111326898Y-73330903D01*
X111192180Y-73129283D01*
X111020717Y-72957820D01*
X110819097Y-72823102D01*
X110712846Y-72779091D01*
X110740099Y-72770825D01*
X111002920Y-72645641D01*
X111236269Y-72471588D01*
X111431178Y-72255355D01*
X111580157Y-72005252D01*
X111677481Y-71730891D01*
X111556814Y-71501000D01*
X110363000Y-71501000D01*
X110363000Y-71521000D01*
X110109000Y-71521000D01*
X110109000Y-71501000D01*
X110089000Y-71501000D01*
X110089000Y-71247000D01*
X110109000Y-71247000D01*
X110109000Y-70053845D01*
X110363000Y-70053845D01*
X110363000Y-71247000D01*
X111556814Y-71247000D01*
X111677481Y-71017109D01*
X111580157Y-70742748D01*
X111431178Y-70492645D01*
X111236269Y-70276412D01*
X111002920Y-70102359D01*
X110740099Y-69977175D01*
X110592890Y-69932524D01*
X110363000Y-70053845D01*
X110109000Y-70053845D01*
X109879110Y-69932524D01*
X109731901Y-69977175D01*
X109469080Y-70102359D01*
X109235731Y-70276412D01*
X109040822Y-70492645D01*
X108891843Y-70742748D01*
X108834228Y-70905168D01*
X108786898Y-70790903D01*
X108652180Y-70589283D01*
X108480717Y-70417820D01*
X108279097Y-70283102D01*
X108055069Y-70190307D01*
X107817243Y-70143000D01*
X107574757Y-70143000D01*
X107336931Y-70190307D01*
X107112903Y-70283102D01*
X106911283Y-70417820D01*
X106739820Y-70589283D01*
X106605102Y-70790903D01*
X106512307Y-71014931D01*
X106465000Y-71252757D01*
X95130893Y-71252757D01*
X95142000Y-71196922D01*
X95142000Y-71043078D01*
X95111987Y-70892191D01*
X95053113Y-70750058D01*
X94967642Y-70622141D01*
X94858859Y-70513358D01*
X94730942Y-70427887D01*
X94715523Y-70421500D01*
X94730942Y-70415113D01*
X94858859Y-70329642D01*
X94967642Y-70220859D01*
X95053113Y-70092942D01*
X95080395Y-70027078D01*
X103105000Y-70027078D01*
X103105000Y-70180922D01*
X103135013Y-70331809D01*
X103193887Y-70473942D01*
X103279358Y-70601859D01*
X103388141Y-70710642D01*
X103516058Y-70796113D01*
X103658191Y-70854987D01*
X103809078Y-70885000D01*
X103962922Y-70885000D01*
X104113809Y-70854987D01*
X104255942Y-70796113D01*
X104383859Y-70710642D01*
X104492642Y-70601859D01*
X104578113Y-70473942D01*
X104636987Y-70331809D01*
X104667000Y-70180922D01*
X104667000Y-70027078D01*
X104636987Y-69876191D01*
X104578113Y-69734058D01*
X104492642Y-69606141D01*
X104383859Y-69497358D01*
X104255942Y-69411887D01*
X104113809Y-69353013D01*
X103962922Y-69323000D01*
X103809078Y-69323000D01*
X103658191Y-69353013D01*
X103516058Y-69411887D01*
X103388141Y-69497358D01*
X103279358Y-69606141D01*
X103193887Y-69734058D01*
X103135013Y-69876191D01*
X103105000Y-70027078D01*
X95080395Y-70027078D01*
X95111987Y-69950809D01*
X95142000Y-69799922D01*
X95142000Y-69646078D01*
X95111987Y-69495191D01*
X95053113Y-69353058D01*
X94967642Y-69225141D01*
X94858859Y-69116358D01*
X94730942Y-69030887D01*
X94588809Y-68972013D01*
X94437922Y-68942000D01*
X94284078Y-68942000D01*
X94133191Y-68972013D01*
X93991058Y-69030887D01*
X93863141Y-69116358D01*
X93754358Y-69225141D01*
X93668887Y-69353058D01*
X93610013Y-69495191D01*
X93580000Y-69646078D01*
X88638948Y-69646078D01*
X86715600Y-67722731D01*
X86715600Y-66426757D01*
X109005000Y-66426757D01*
X109005000Y-66669243D01*
X109052307Y-66907069D01*
X109145102Y-67131097D01*
X109279820Y-67332717D01*
X109451283Y-67504180D01*
X109652903Y-67638898D01*
X109876931Y-67731693D01*
X110114757Y-67779000D01*
X110357243Y-67779000D01*
X110595069Y-67731693D01*
X110819097Y-67638898D01*
X111020717Y-67504180D01*
X111192180Y-67332717D01*
X111326898Y-67131097D01*
X111419693Y-66907069D01*
X111467000Y-66669243D01*
X111467000Y-66426757D01*
X111419693Y-66188931D01*
X111326898Y-65964903D01*
X111192180Y-65763283D01*
X111020717Y-65591820D01*
X110819097Y-65457102D01*
X110595069Y-65364307D01*
X110357243Y-65317000D01*
X110114757Y-65317000D01*
X109876931Y-65364307D01*
X109652903Y-65457102D01*
X109451283Y-65591820D01*
X109279820Y-65763283D01*
X109145102Y-65964903D01*
X109052307Y-66188931D01*
X109005000Y-66426757D01*
X86715600Y-66426757D01*
X86715600Y-66148838D01*
X86730859Y-66138642D01*
X86839642Y-66029859D01*
X86925113Y-65901942D01*
X86983987Y-65759809D01*
X87014000Y-65608922D01*
X87014000Y-65455078D01*
X86983987Y-65304191D01*
X86925113Y-65162058D01*
X86839642Y-65034141D01*
X86730859Y-64925358D01*
X86602942Y-64839887D01*
X86460809Y-64781013D01*
X86309922Y-64751000D01*
X86156078Y-64751000D01*
X86005191Y-64781013D01*
X85863058Y-64839887D01*
X85735141Y-64925358D01*
X85626358Y-65034141D01*
X85540887Y-65162058D01*
X85482013Y-65304191D01*
X85452000Y-65455078D01*
X85452000Y-65608922D01*
X85482013Y-65759809D01*
X85540887Y-65901942D01*
X85626358Y-66029859D01*
X85735141Y-66138642D01*
X85750401Y-66148838D01*
X85750400Y-67898925D01*
X85749570Y-67907353D01*
X85696642Y-67828141D01*
X85587859Y-67719358D01*
X85459942Y-67633887D01*
X85317809Y-67575013D01*
X85166922Y-67545000D01*
X85013078Y-67545000D01*
X84862191Y-67575013D01*
X84720058Y-67633887D01*
X84592141Y-67719358D01*
X84483358Y-67828141D01*
X84397887Y-67956058D01*
X84339013Y-68098191D01*
X84309000Y-68249078D01*
X84309000Y-68402922D01*
X84339013Y-68553809D01*
X84397887Y-68695942D01*
X84483358Y-68823859D01*
X84592141Y-68932642D01*
X84720058Y-69018113D01*
X84862191Y-69076987D01*
X85013078Y-69107000D01*
X85166922Y-69107000D01*
X85317809Y-69076987D01*
X85459942Y-69018113D01*
X85587859Y-68932642D01*
X85696642Y-68823859D01*
X85782113Y-68695942D01*
X85840987Y-68553809D01*
X85871000Y-68402922D01*
X85871000Y-68249078D01*
X85869210Y-68240077D01*
X85890099Y-68265531D01*
X85908518Y-68280647D01*
X100085404Y-82457534D01*
X100085403Y-84473162D01*
X100070144Y-84483358D01*
X100068002Y-84485501D01*
X100065859Y-84483358D01*
X100050600Y-84473162D01*
X100050600Y-84202337D01*
X100052935Y-84178630D01*
X100043617Y-84084023D01*
X100016022Y-83993053D01*
X99991406Y-83947000D01*
X99971209Y-83909215D01*
X99910901Y-83835729D01*
X99892488Y-83820618D01*
X92013988Y-75942119D01*
X91998872Y-75923700D01*
X91925386Y-75863392D01*
X91841548Y-75818579D01*
X91750577Y-75790984D01*
X91679678Y-75784001D01*
X91679676Y-75784001D01*
X91655971Y-75781666D01*
X91632266Y-75784001D01*
X89166501Y-75784001D01*
X81803420Y-68420921D01*
X81807000Y-68402922D01*
X81807000Y-68249078D01*
X81776987Y-68098191D01*
X81718113Y-67956058D01*
X81632642Y-67828141D01*
X81523859Y-67719358D01*
X81395942Y-67633887D01*
X81253809Y-67575013D01*
X81102922Y-67545000D01*
X80949078Y-67545000D01*
X80798191Y-67575013D01*
X80656058Y-67633887D01*
X80528141Y-67719358D01*
X80419358Y-67828141D01*
X80333887Y-67956058D01*
X80275013Y-68098191D01*
X80245000Y-68249078D01*
X80245000Y-68402922D01*
X80275013Y-68553809D01*
X80333887Y-68695942D01*
X80419358Y-68823859D01*
X80528141Y-68932642D01*
X80656058Y-69018113D01*
X80798191Y-69076987D01*
X80949078Y-69107000D01*
X81102922Y-69107000D01*
X81120921Y-69103420D01*
X88608587Y-76591087D01*
X88623700Y-76609502D01*
X88697186Y-76669810D01*
X88781024Y-76714623D01*
X88871994Y-76742218D01*
X88966601Y-76751536D01*
X88990308Y-76749201D01*
X91456072Y-76749201D01*
X96681887Y-81975017D01*
X96658058Y-81984887D01*
X96530141Y-82070358D01*
X96421358Y-82179141D01*
X96335887Y-82307058D01*
X96277013Y-82449191D01*
X96248982Y-82590113D01*
X91768780Y-78109911D01*
X91753664Y-78091492D01*
X91680178Y-78031184D01*
X91596340Y-77986371D01*
X91505369Y-77958776D01*
X91434470Y-77951793D01*
X91434468Y-77951793D01*
X91410763Y-77949458D01*
X91387058Y-77951793D01*
X88171445Y-77951793D01*
X88161249Y-77936534D01*
X88052466Y-77827751D01*
X87924549Y-77742280D01*
X87782416Y-77683406D01*
X87631529Y-77653393D01*
X87477685Y-77653393D01*
X87326798Y-77683406D01*
X87184665Y-77742280D01*
X87056748Y-77827751D01*
X86947965Y-77936534D01*
X86867483Y-78056984D01*
X83330128Y-74519629D01*
X83427942Y-74479113D01*
X83555859Y-74393642D01*
X83566000Y-74383501D01*
X83576141Y-74393642D01*
X83704058Y-74479113D01*
X83846191Y-74537987D01*
X83997078Y-74568000D01*
X84150922Y-74568000D01*
X84301809Y-74537987D01*
X84443942Y-74479113D01*
X84571859Y-74393642D01*
X84680642Y-74284859D01*
X84766113Y-74156942D01*
X84824987Y-74014809D01*
X84855000Y-73863922D01*
X84855000Y-73710078D01*
X84824987Y-73559191D01*
X84766113Y-73417058D01*
X84680642Y-73289141D01*
X84571859Y-73180358D01*
X84443942Y-73094887D01*
X84301809Y-73036013D01*
X84150922Y-73006000D01*
X83997078Y-73006000D01*
X83846191Y-73036013D01*
X83704058Y-73094887D01*
X83576141Y-73180358D01*
X83566000Y-73190499D01*
X83555859Y-73180358D01*
X83427942Y-73094887D01*
X83285809Y-73036013D01*
X83134922Y-73006000D01*
X82981078Y-73006000D01*
X82830191Y-73036013D01*
X82688058Y-73094887D01*
X82560141Y-73180358D01*
X82451358Y-73289141D01*
X82365887Y-73417058D01*
X82325371Y-73514872D01*
X79028999Y-70218500D01*
X79028999Y-64185078D01*
X95358000Y-64185078D01*
X95358000Y-64338922D01*
X95388013Y-64489809D01*
X95446887Y-64631942D01*
X95532358Y-64759859D01*
X95641141Y-64868642D01*
X95769058Y-64954113D01*
X95911191Y-65012987D01*
X96062078Y-65043000D01*
X96215922Y-65043000D01*
X96366809Y-65012987D01*
X96508942Y-64954113D01*
X96636859Y-64868642D01*
X96745642Y-64759859D01*
X96831113Y-64631942D01*
X96889987Y-64489809D01*
X96920000Y-64338922D01*
X96920000Y-64185078D01*
X96889987Y-64034191D01*
X96831113Y-63892058D01*
X96827572Y-63886757D01*
X109005000Y-63886757D01*
X109005000Y-64129243D01*
X109052307Y-64367069D01*
X109145102Y-64591097D01*
X109279820Y-64792717D01*
X109451283Y-64964180D01*
X109652903Y-65098898D01*
X109876931Y-65191693D01*
X110114757Y-65239000D01*
X110357243Y-65239000D01*
X110595069Y-65191693D01*
X110819097Y-65098898D01*
X111020717Y-64964180D01*
X111192180Y-64792717D01*
X111326898Y-64591097D01*
X111419693Y-64367069D01*
X111467000Y-64129243D01*
X111467000Y-63886757D01*
X111419693Y-63648931D01*
X111326898Y-63424903D01*
X111192180Y-63223283D01*
X111020717Y-63051820D01*
X110819097Y-62917102D01*
X110595069Y-62824307D01*
X110357243Y-62777000D01*
X110114757Y-62777000D01*
X109876931Y-62824307D01*
X109652903Y-62917102D01*
X109451283Y-63051820D01*
X109279820Y-63223283D01*
X109145102Y-63424903D01*
X109052307Y-63648931D01*
X109005000Y-63886757D01*
X96827572Y-63886757D01*
X96745642Y-63764141D01*
X96636859Y-63655358D01*
X96508942Y-63569887D01*
X96366809Y-63511013D01*
X96215922Y-63481000D01*
X96062078Y-63481000D01*
X95911191Y-63511013D01*
X95769058Y-63569887D01*
X95641141Y-63655358D01*
X95532358Y-63764141D01*
X95446887Y-63892058D01*
X95388013Y-64034191D01*
X95358000Y-64185078D01*
X79028999Y-64185078D01*
X79028999Y-59778000D01*
X108747928Y-59778000D01*
X108760188Y-59902482D01*
X108796498Y-60022180D01*
X108855463Y-60132494D01*
X108934815Y-60229185D01*
X109031506Y-60308537D01*
X109141820Y-60367502D01*
X109261518Y-60403812D01*
X109386000Y-60416072D01*
X109596294Y-60414927D01*
X109451283Y-60511820D01*
X109279820Y-60683283D01*
X109145102Y-60884903D01*
X109052307Y-61108931D01*
X109005000Y-61346757D01*
X109005000Y-61589243D01*
X109052307Y-61827069D01*
X109145102Y-62051097D01*
X109279820Y-62252717D01*
X109451283Y-62424180D01*
X109652903Y-62558898D01*
X109876931Y-62651693D01*
X110114757Y-62699000D01*
X110357243Y-62699000D01*
X110595069Y-62651693D01*
X110819097Y-62558898D01*
X111020717Y-62424180D01*
X111192180Y-62252717D01*
X111326898Y-62051097D01*
X111419693Y-61827069D01*
X111467000Y-61589243D01*
X111467000Y-61346757D01*
X111419693Y-61108931D01*
X111326898Y-60884903D01*
X111192180Y-60683283D01*
X111020717Y-60511820D01*
X110875706Y-60414927D01*
X111086000Y-60416072D01*
X111210482Y-60403812D01*
X111330180Y-60367502D01*
X111440494Y-60308537D01*
X111537185Y-60229185D01*
X111616537Y-60132494D01*
X111675502Y-60022180D01*
X111711812Y-59902482D01*
X111724072Y-59778000D01*
X111721000Y-59213750D01*
X111562250Y-59055000D01*
X110363000Y-59055000D01*
X110363000Y-59075000D01*
X110109000Y-59075000D01*
X110109000Y-59055000D01*
X108909750Y-59055000D01*
X108751000Y-59213750D01*
X108747928Y-59778000D01*
X79028999Y-59778000D01*
X79028999Y-58078000D01*
X108747928Y-58078000D01*
X108751000Y-58642250D01*
X108909750Y-58801000D01*
X110109000Y-58801000D01*
X110109000Y-57601750D01*
X110363000Y-57601750D01*
X110363000Y-58801000D01*
X111562250Y-58801000D01*
X111721000Y-58642250D01*
X111724072Y-58078000D01*
X111711812Y-57953518D01*
X111675502Y-57833820D01*
X111616537Y-57723506D01*
X111537185Y-57626815D01*
X111440494Y-57547463D01*
X111330180Y-57488498D01*
X111210482Y-57452188D01*
X111086000Y-57439928D01*
X110521750Y-57443000D01*
X110363000Y-57601750D01*
X110109000Y-57601750D01*
X109950250Y-57443000D01*
X109386000Y-57439928D01*
X109261518Y-57452188D01*
X109141820Y-57488498D01*
X109031506Y-57547463D01*
X108934815Y-57626815D01*
X108855463Y-57723506D01*
X108796498Y-57833820D01*
X108760188Y-57953518D01*
X108747928Y-58078000D01*
X79028999Y-58078000D01*
X79028999Y-56726106D01*
X79031334Y-56702399D01*
X79022016Y-56607792D01*
X78994421Y-56516822D01*
X78949607Y-56432983D01*
X78904412Y-56377912D01*
X78904411Y-56377911D01*
X78889300Y-56359498D01*
X78870887Y-56344387D01*
X76469420Y-53942921D01*
X76473000Y-53924922D01*
X76473000Y-53771078D01*
X76442987Y-53620191D01*
X76384113Y-53478058D01*
X76298642Y-53350141D01*
X76189859Y-53241358D01*
X76061942Y-53155887D01*
X75919809Y-53097013D01*
X75768922Y-53067000D01*
X75615078Y-53067000D01*
X75464191Y-53097013D01*
X75322058Y-53155887D01*
X75194141Y-53241358D01*
X75085358Y-53350141D01*
X74999887Y-53478058D01*
X74941013Y-53620191D01*
X74911000Y-53771078D01*
X74911000Y-53924922D01*
X74941013Y-54075809D01*
X74999887Y-54217942D01*
X75085358Y-54345859D01*
X75194141Y-54454642D01*
X75322058Y-54540113D01*
X75464191Y-54598987D01*
X75615078Y-54629000D01*
X75768922Y-54629000D01*
X75786921Y-54625420D01*
X78063800Y-56902300D01*
X78063800Y-57030605D01*
X77966942Y-56965887D01*
X77824809Y-56907013D01*
X77673922Y-56877000D01*
X77520078Y-56877000D01*
X77369191Y-56907013D01*
X77227058Y-56965887D01*
X77099141Y-57051358D01*
X76990358Y-57160141D01*
X76904887Y-57288058D01*
X76846013Y-57430191D01*
X76816000Y-57581078D01*
X76816000Y-57734922D01*
X76846013Y-57885809D01*
X76904887Y-58027942D01*
X76990358Y-58155859D01*
X77099141Y-58264642D01*
X77114401Y-58274838D01*
X77114400Y-72747293D01*
X77112065Y-72771000D01*
X77121383Y-72865606D01*
X77148978Y-72956577D01*
X77155344Y-72968486D01*
X77193791Y-73040415D01*
X77254099Y-73113901D01*
X77272518Y-73129017D01*
X89868393Y-85724892D01*
X89868393Y-85735541D01*
X89892642Y-85857449D01*
X89940208Y-85972284D01*
X90009263Y-86075632D01*
X90097154Y-86163523D01*
X90200502Y-86232578D01*
X90315337Y-86280144D01*
X90437245Y-86304393D01*
X90561541Y-86304393D01*
X90683449Y-86280144D01*
X90718395Y-86265669D01*
X90718395Y-86802476D01*
X90560870Y-86960001D01*
X90287130Y-86960001D01*
X75793600Y-72466471D01*
X75793600Y-59544838D01*
X75808859Y-59534642D01*
X75917642Y-59425859D01*
X76003113Y-59297942D01*
X76061987Y-59155809D01*
X76092000Y-59004922D01*
X76092000Y-58851078D01*
X76061987Y-58700191D01*
X76003113Y-58558058D01*
X75917642Y-58430141D01*
X75808859Y-58321358D01*
X75680942Y-58235887D01*
X75538809Y-58177013D01*
X75387922Y-58147000D01*
X75234078Y-58147000D01*
X75083191Y-58177013D01*
X74941058Y-58235887D01*
X74813141Y-58321358D01*
X74704358Y-58430141D01*
X74618887Y-58558058D01*
X74560013Y-58700191D01*
X74530000Y-58851078D01*
X66471000Y-58851078D01*
X66471000Y-49961078D01*
X74276000Y-49961078D01*
X74276000Y-50114922D01*
X74306013Y-50265809D01*
X74364887Y-50407942D01*
X74450358Y-50535859D01*
X74559141Y-50644642D01*
X74687058Y-50730113D01*
X74829191Y-50788987D01*
X74980078Y-50819000D01*
X75133922Y-50819000D01*
X75284809Y-50788987D01*
X75426942Y-50730113D01*
X75554859Y-50644642D01*
X75663642Y-50535859D01*
X75744418Y-50414968D01*
X81935000Y-50414968D01*
X81935000Y-51185031D01*
X81960047Y-51439334D01*
X82059027Y-51765629D01*
X82219763Y-52066344D01*
X82436076Y-52329924D01*
X82699655Y-52546237D01*
X83000370Y-52706973D01*
X83326665Y-52805953D01*
X83666000Y-52839375D01*
X84005334Y-52805953D01*
X84331629Y-52706973D01*
X84632344Y-52546237D01*
X84895924Y-52329924D01*
X85112237Y-52066345D01*
X85272973Y-51765630D01*
X85371953Y-51439335D01*
X85397000Y-51185032D01*
X85397000Y-50414969D01*
X85397000Y-50414968D01*
X86135000Y-50414968D01*
X86135000Y-51185031D01*
X86160047Y-51439334D01*
X86259027Y-51765629D01*
X86419763Y-52066344D01*
X86636076Y-52329924D01*
X86899655Y-52546237D01*
X87200370Y-52706973D01*
X87526665Y-52805953D01*
X87866000Y-52839375D01*
X88205334Y-52805953D01*
X88531629Y-52706973D01*
X88832344Y-52546237D01*
X89095924Y-52329924D01*
X89312237Y-52066345D01*
X89472973Y-51765630D01*
X89571953Y-51439335D01*
X89597000Y-51185032D01*
X89597000Y-50927000D01*
X90081000Y-50927000D01*
X90081000Y-51227000D01*
X90143918Y-51611814D01*
X90280700Y-51976959D01*
X90486090Y-52308403D01*
X90752195Y-52593409D01*
X91068789Y-52821024D01*
X91423705Y-52982501D01*
X91630677Y-53036677D01*
X91939000Y-52921829D01*
X91939000Y-50927000D01*
X92193000Y-50927000D01*
X92193000Y-52921829D01*
X92501323Y-53036677D01*
X92708295Y-52982501D01*
X93063211Y-52821024D01*
X93379805Y-52593409D01*
X93645910Y-52308403D01*
X93851300Y-51976959D01*
X93988082Y-51611814D01*
X94051000Y-51227000D01*
X94051000Y-50927000D01*
X92193000Y-50927000D01*
X91939000Y-50927000D01*
X90081000Y-50927000D01*
X89597000Y-50927000D01*
X89597000Y-50414969D01*
X89592867Y-50373000D01*
X90081000Y-50373000D01*
X90081000Y-50673000D01*
X91939000Y-50673000D01*
X91939000Y-48678171D01*
X92193000Y-48678171D01*
X92193000Y-50673000D01*
X94051000Y-50673000D01*
X94051000Y-50373000D01*
X93988082Y-49988186D01*
X93851300Y-49623041D01*
X93713087Y-49400001D01*
X94533157Y-49400001D01*
X94533157Y-52199999D01*
X94545317Y-52323461D01*
X94581329Y-52442178D01*
X94639810Y-52551588D01*
X94718513Y-52647487D01*
X94814412Y-52726190D01*
X94923822Y-52784671D01*
X95042539Y-52820683D01*
X95166001Y-52832843D01*
X97365999Y-52832843D01*
X97489461Y-52820683D01*
X97608178Y-52784671D01*
X97717588Y-52726190D01*
X97813487Y-52647487D01*
X97892190Y-52551588D01*
X97950671Y-52442178D01*
X97986683Y-52323461D01*
X97998843Y-52199999D01*
X97998843Y-49400001D01*
X97986683Y-49276539D01*
X97950671Y-49157822D01*
X97892190Y-49048412D01*
X97813487Y-48952513D01*
X97717588Y-48873810D01*
X97608178Y-48815329D01*
X97489461Y-48779317D01*
X97365999Y-48767157D01*
X95166001Y-48767157D01*
X95042539Y-48779317D01*
X94923822Y-48815329D01*
X94814412Y-48873810D01*
X94718513Y-48952513D01*
X94639810Y-49048412D01*
X94581329Y-49157822D01*
X94545317Y-49276539D01*
X94533157Y-49400001D01*
X93713087Y-49400001D01*
X93645910Y-49291597D01*
X93379805Y-49006591D01*
X93063211Y-48778976D01*
X92708295Y-48617499D01*
X92501323Y-48563323D01*
X92193000Y-48678171D01*
X91939000Y-48678171D01*
X91630677Y-48563323D01*
X91423705Y-48617499D01*
X91068789Y-48778976D01*
X90752195Y-49006591D01*
X90486090Y-49291597D01*
X90280700Y-49623041D01*
X90143918Y-49988186D01*
X90081000Y-50373000D01*
X89592867Y-50373000D01*
X89571953Y-50160666D01*
X89472973Y-49834370D01*
X89312237Y-49533655D01*
X89095924Y-49270076D01*
X88832345Y-49053763D01*
X88531630Y-48893027D01*
X88205335Y-48794047D01*
X87866000Y-48760625D01*
X87526666Y-48794047D01*
X87200371Y-48893027D01*
X86899656Y-49053763D01*
X86636076Y-49270076D01*
X86419763Y-49533655D01*
X86259027Y-49834370D01*
X86160047Y-50160665D01*
X86135000Y-50414968D01*
X85397000Y-50414968D01*
X85371953Y-50160666D01*
X85272973Y-49834370D01*
X85112237Y-49533655D01*
X84895924Y-49270076D01*
X84632345Y-49053763D01*
X84331630Y-48893027D01*
X84005335Y-48794047D01*
X83666000Y-48760625D01*
X83326666Y-48794047D01*
X83000371Y-48893027D01*
X82699656Y-49053763D01*
X82436076Y-49270076D01*
X82219763Y-49533655D01*
X82059027Y-49834370D01*
X81960047Y-50160665D01*
X81935000Y-50414968D01*
X75744418Y-50414968D01*
X75749113Y-50407942D01*
X75807987Y-50265809D01*
X75838000Y-50114922D01*
X75838000Y-49961078D01*
X75807987Y-49810191D01*
X75749113Y-49668058D01*
X75663642Y-49540141D01*
X75554859Y-49431358D01*
X75426942Y-49345887D01*
X75284809Y-49287013D01*
X75133922Y-49257000D01*
X74980078Y-49257000D01*
X74829191Y-49287013D01*
X74687058Y-49345887D01*
X74559141Y-49431358D01*
X74450358Y-49540141D01*
X74364887Y-49668058D01*
X74306013Y-49810191D01*
X74276000Y-49961078D01*
X66471000Y-49961078D01*
X66471000Y-45487079D01*
X66507649Y-45113302D01*
X66523000Y-45113302D01*
X66523000Y-45818698D01*
X66660616Y-46510539D01*
X66930559Y-47162240D01*
X67322456Y-47748754D01*
X67821246Y-48247544D01*
X68407760Y-48639441D01*
X69059461Y-48909384D01*
X69751302Y-49047000D01*
X70456698Y-49047000D01*
X71148539Y-48909384D01*
X71800240Y-48639441D01*
X72386754Y-48247544D01*
X72885544Y-47748754D01*
X73277441Y-47162240D01*
X73547384Y-46510539D01*
X73685000Y-45818698D01*
X73685000Y-45427000D01*
X81681000Y-45427000D01*
X81681000Y-45727000D01*
X81743918Y-46111814D01*
X81880700Y-46476959D01*
X82086090Y-46808403D01*
X82352195Y-47093409D01*
X82668789Y-47321024D01*
X83023705Y-47482501D01*
X83230677Y-47536677D01*
X83539000Y-47421829D01*
X83539000Y-45427000D01*
X83793000Y-45427000D01*
X83793000Y-47421829D01*
X84101323Y-47536677D01*
X84308295Y-47482501D01*
X84663211Y-47321024D01*
X84979805Y-47093409D01*
X85245910Y-46808403D01*
X85451300Y-46476959D01*
X85588082Y-46111814D01*
X85651000Y-45727000D01*
X85651000Y-45427000D01*
X83793000Y-45427000D01*
X83539000Y-45427000D01*
X81681000Y-45427000D01*
X73685000Y-45427000D01*
X73685000Y-45113302D01*
X73637201Y-44873000D01*
X81681000Y-44873000D01*
X81681000Y-45173000D01*
X83539000Y-45173000D01*
X83539000Y-43178171D01*
X83793000Y-43178171D01*
X83793000Y-45173000D01*
X85651000Y-45173000D01*
X85651000Y-44914968D01*
X86135000Y-44914968D01*
X86135000Y-45685031D01*
X86160047Y-45939334D01*
X86259027Y-46265629D01*
X86419763Y-46566344D01*
X86636076Y-46829924D01*
X86899655Y-47046237D01*
X87200370Y-47206973D01*
X87526665Y-47305953D01*
X87866000Y-47339375D01*
X88205334Y-47305953D01*
X88531629Y-47206973D01*
X88832344Y-47046237D01*
X89095924Y-46829924D01*
X89312237Y-46566345D01*
X89472973Y-46265630D01*
X89571953Y-45939335D01*
X89597000Y-45685032D01*
X89597000Y-44914969D01*
X89597000Y-44914968D01*
X90335000Y-44914968D01*
X90335000Y-45685031D01*
X90360047Y-45939334D01*
X90459027Y-46265629D01*
X90619763Y-46566344D01*
X90836076Y-46829924D01*
X91099655Y-47046237D01*
X91400370Y-47206973D01*
X91726665Y-47305953D01*
X92066000Y-47339375D01*
X92405334Y-47305953D01*
X92731629Y-47206973D01*
X93032344Y-47046237D01*
X93295924Y-46829924D01*
X93512237Y-46566345D01*
X93672973Y-46265630D01*
X93771953Y-45939335D01*
X93797000Y-45685032D01*
X93797000Y-45427000D01*
X94281000Y-45427000D01*
X94281000Y-45727000D01*
X94343918Y-46111814D01*
X94480700Y-46476959D01*
X94686090Y-46808403D01*
X94952195Y-47093409D01*
X95268789Y-47321024D01*
X95623705Y-47482501D01*
X95830677Y-47536677D01*
X96139000Y-47421829D01*
X96139000Y-45427000D01*
X96393000Y-45427000D01*
X96393000Y-47421829D01*
X96701323Y-47536677D01*
X96908295Y-47482501D01*
X97263211Y-47321024D01*
X97579805Y-47093409D01*
X97845910Y-46808403D01*
X98051300Y-46476959D01*
X98188082Y-46111814D01*
X98251000Y-45727000D01*
X98251000Y-45427000D01*
X96393000Y-45427000D01*
X96139000Y-45427000D01*
X94281000Y-45427000D01*
X93797000Y-45427000D01*
X93797000Y-44914969D01*
X93792867Y-44873000D01*
X94281000Y-44873000D01*
X94281000Y-45173000D01*
X96139000Y-45173000D01*
X96139000Y-43178171D01*
X96393000Y-43178171D01*
X96393000Y-45173000D01*
X98251000Y-45173000D01*
X98251000Y-45113302D01*
X105131000Y-45113302D01*
X105131000Y-45818698D01*
X105268616Y-46510539D01*
X105538559Y-47162240D01*
X105930456Y-47748754D01*
X106429246Y-48247544D01*
X107015760Y-48639441D01*
X107667461Y-48909384D01*
X108359302Y-49047000D01*
X109064698Y-49047000D01*
X109756539Y-48909384D01*
X110408240Y-48639441D01*
X110994754Y-48247544D01*
X111493544Y-47748754D01*
X111885441Y-47162240D01*
X112155384Y-46510539D01*
X112293000Y-45818698D01*
X112293000Y-45113302D01*
X112155384Y-44421461D01*
X111885441Y-43769760D01*
X111493544Y-43183246D01*
X110994754Y-42684456D01*
X110408240Y-42292559D01*
X109756539Y-42022616D01*
X109064698Y-41885000D01*
X108359302Y-41885000D01*
X107667461Y-42022616D01*
X107015760Y-42292559D01*
X106429246Y-42684456D01*
X105930456Y-43183246D01*
X105538559Y-43769760D01*
X105268616Y-44421461D01*
X105131000Y-45113302D01*
X98251000Y-45113302D01*
X98251000Y-44873000D01*
X98188082Y-44488186D01*
X98051300Y-44123041D01*
X97845910Y-43791597D01*
X97579805Y-43506591D01*
X97263211Y-43278976D01*
X96908295Y-43117499D01*
X96701323Y-43063323D01*
X96393000Y-43178171D01*
X96139000Y-43178171D01*
X95830677Y-43063323D01*
X95623705Y-43117499D01*
X95268789Y-43278976D01*
X94952195Y-43506591D01*
X94686090Y-43791597D01*
X94480700Y-44123041D01*
X94343918Y-44488186D01*
X94281000Y-44873000D01*
X93792867Y-44873000D01*
X93771953Y-44660666D01*
X93672973Y-44334370D01*
X93512237Y-44033655D01*
X93295924Y-43770076D01*
X93032345Y-43553763D01*
X92731630Y-43393027D01*
X92405335Y-43294047D01*
X92066000Y-43260625D01*
X91726666Y-43294047D01*
X91400371Y-43393027D01*
X91099656Y-43553763D01*
X90836076Y-43770076D01*
X90619763Y-44033655D01*
X90459027Y-44334370D01*
X90360047Y-44660665D01*
X90335000Y-44914968D01*
X89597000Y-44914968D01*
X89571953Y-44660666D01*
X89472973Y-44334370D01*
X89312237Y-44033655D01*
X89095924Y-43770076D01*
X88832345Y-43553763D01*
X88531630Y-43393027D01*
X88205335Y-43294047D01*
X87866000Y-43260625D01*
X87526666Y-43294047D01*
X87200371Y-43393027D01*
X86899656Y-43553763D01*
X86636076Y-43770076D01*
X86419763Y-44033655D01*
X86259027Y-44334370D01*
X86160047Y-44660665D01*
X86135000Y-44914968D01*
X85651000Y-44914968D01*
X85651000Y-44873000D01*
X85588082Y-44488186D01*
X85451300Y-44123041D01*
X85245910Y-43791597D01*
X84979805Y-43506591D01*
X84663211Y-43278976D01*
X84308295Y-43117499D01*
X84101323Y-43063323D01*
X83793000Y-43178171D01*
X83539000Y-43178171D01*
X83230677Y-43063323D01*
X83023705Y-43117499D01*
X82668789Y-43278976D01*
X82352195Y-43506591D01*
X82086090Y-43791597D01*
X81880700Y-44123041D01*
X81743918Y-44488186D01*
X81681000Y-44873000D01*
X73637201Y-44873000D01*
X73547384Y-44421461D01*
X73277441Y-43769760D01*
X72885544Y-43183246D01*
X72386754Y-42684456D01*
X71800240Y-42292559D01*
X71148539Y-42022616D01*
X70456698Y-41885000D01*
X69751302Y-41885000D01*
X69059461Y-42022616D01*
X68407760Y-42292559D01*
X67821246Y-42684456D01*
X67322456Y-43183246D01*
X66930559Y-43769760D01*
X66660616Y-44421461D01*
X66523000Y-45113302D01*
X66507649Y-45113302D01*
X66542217Y-44760751D01*
X66747037Y-44082355D01*
X67079719Y-43456672D01*
X67527597Y-42907520D01*
X68073607Y-42455821D01*
X68696959Y-42118776D01*
X69373899Y-41909228D01*
X70098970Y-41833020D01*
X70104644Y-41833000D01*
X108690921Y-41833000D01*
X109417249Y-41904217D01*
G36*
X85990013Y-92990191D02*
G01*
X85960000Y-93141078D01*
X85960000Y-93294922D01*
X85990013Y-93445809D01*
X86048887Y-93587942D01*
X86134358Y-93715859D01*
X86243141Y-93824642D01*
X86371058Y-93910113D01*
X86513191Y-93968987D01*
X86559031Y-93978105D01*
X82721736Y-97815400D01*
X80921099Y-97815400D01*
X85797900Y-92938600D01*
X86011383Y-92938600D01*
X85990013Y-92990191D01*
G37*
X85990013Y-92990191D02*
X85960000Y-93141078D01*
X85960000Y-93294922D01*
X85990013Y-93445809D01*
X86048887Y-93587942D01*
X86134358Y-93715859D01*
X86243141Y-93824642D01*
X86371058Y-93910113D01*
X86513191Y-93968987D01*
X86559031Y-93978105D01*
X82721736Y-97815400D01*
X80921099Y-97815400D01*
X85797900Y-92938600D01*
X86011383Y-92938600D01*
X85990013Y-92990191D01*
G36*
X80064101Y-97307400D02*
G01*
X73877731Y-97307400D01*
X73875000Y-96805750D01*
X73716250Y-96647000D01*
X72517000Y-96647000D01*
X72517000Y-96667000D01*
X72263000Y-96667000D01*
X72263000Y-96647000D01*
X72243000Y-96647000D01*
X72243000Y-96393000D01*
X72263000Y-96393000D01*
X72263000Y-96373000D01*
X72517000Y-96373000D01*
X72517000Y-96393000D01*
X73716250Y-96393000D01*
X73875000Y-96234250D01*
X73878072Y-95670000D01*
X73865812Y-95545518D01*
X73829502Y-95425820D01*
X73770537Y-95315506D01*
X73691185Y-95218815D01*
X73594494Y-95139463D01*
X73484180Y-95080498D01*
X73364482Y-95044188D01*
X73240000Y-95031928D01*
X73029706Y-95033073D01*
X73174717Y-94936180D01*
X73318819Y-94792078D01*
X79737000Y-94792078D01*
X79737000Y-94945922D01*
X79767013Y-95096809D01*
X79825887Y-95238942D01*
X79911358Y-95366859D01*
X80020141Y-95475642D01*
X80148058Y-95561113D01*
X80290191Y-95619987D01*
X80441078Y-95650000D01*
X80594922Y-95650000D01*
X80745809Y-95619987D01*
X80887942Y-95561113D01*
X81015859Y-95475642D01*
X81124642Y-95366859D01*
X81210113Y-95238942D01*
X81268987Y-95096809D01*
X81299000Y-94945922D01*
X81299000Y-94792078D01*
X81268987Y-94641191D01*
X81210113Y-94499058D01*
X81124642Y-94371141D01*
X81015859Y-94262358D01*
X80887942Y-94176887D01*
X80745809Y-94118013D01*
X80594922Y-94088000D01*
X80441078Y-94088000D01*
X80290191Y-94118013D01*
X80148058Y-94176887D01*
X80020141Y-94262358D01*
X79911358Y-94371141D01*
X79825887Y-94499058D01*
X79767013Y-94641191D01*
X79737000Y-94792078D01*
X73318819Y-94792078D01*
X73346180Y-94764717D01*
X73480898Y-94563097D01*
X73573693Y-94339069D01*
X73621000Y-94101243D01*
X73621000Y-93858757D01*
X73573693Y-93620931D01*
X73480898Y-93396903D01*
X73346180Y-93195283D01*
X73174717Y-93023820D01*
X73167248Y-93018829D01*
X73212184Y-92994810D01*
X73285670Y-92934502D01*
X73300786Y-92916083D01*
X73829870Y-92386999D01*
X84984501Y-92386999D01*
X80064101Y-97307400D01*
G37*
X80064101Y-97307400D02*
X73877731Y-97307400D01*
X73875000Y-96805750D01*
X73716250Y-96647000D01*
X72517000Y-96647000D01*
X72517000Y-96667000D01*
X72263000Y-96667000D01*
X72263000Y-96647000D01*
X72243000Y-96647000D01*
X72243000Y-96393000D01*
X72263000Y-96393000D01*
X72263000Y-96373000D01*
X72517000Y-96373000D01*
X72517000Y-96393000D01*
X73716250Y-96393000D01*
X73875000Y-96234250D01*
X73878072Y-95670000D01*
X73865812Y-95545518D01*
X73829502Y-95425820D01*
X73770537Y-95315506D01*
X73691185Y-95218815D01*
X73594494Y-95139463D01*
X73484180Y-95080498D01*
X73364482Y-95044188D01*
X73240000Y-95031928D01*
X73029706Y-95033073D01*
X73174717Y-94936180D01*
X73318819Y-94792078D01*
X79737000Y-94792078D01*
X79737000Y-94945922D01*
X79767013Y-95096809D01*
X79825887Y-95238942D01*
X79911358Y-95366859D01*
X80020141Y-95475642D01*
X80148058Y-95561113D01*
X80290191Y-95619987D01*
X80441078Y-95650000D01*
X80594922Y-95650000D01*
X80745809Y-95619987D01*
X80887942Y-95561113D01*
X81015859Y-95475642D01*
X81124642Y-95366859D01*
X81210113Y-95238942D01*
X81268987Y-95096809D01*
X81299000Y-94945922D01*
X81299000Y-94792078D01*
X81268987Y-94641191D01*
X81210113Y-94499058D01*
X81124642Y-94371141D01*
X81015859Y-94262358D01*
X80887942Y-94176887D01*
X80745809Y-94118013D01*
X80594922Y-94088000D01*
X80441078Y-94088000D01*
X80290191Y-94118013D01*
X80148058Y-94176887D01*
X80020141Y-94262358D01*
X79911358Y-94371141D01*
X79825887Y-94499058D01*
X79767013Y-94641191D01*
X79737000Y-94792078D01*
X73318819Y-94792078D01*
X73346180Y-94764717D01*
X73480898Y-94563097D01*
X73573693Y-94339069D01*
X73621000Y-94101243D01*
X73621000Y-93858757D01*
X73573693Y-93620931D01*
X73480898Y-93396903D01*
X73346180Y-93195283D01*
X73174717Y-93023820D01*
X73167248Y-93018829D01*
X73212184Y-92994810D01*
X73285670Y-92934502D01*
X73300786Y-92916083D01*
X73829870Y-92386999D01*
X84984501Y-92386999D01*
X80064101Y-97307400D01*
G36*
X69266903Y-92530898D02*
G01*
X69490931Y-92623693D01*
X69728757Y-92671000D01*
X69971243Y-92671000D01*
X70209069Y-92623693D01*
X70309566Y-92582066D01*
X70643589Y-92916089D01*
X70658700Y-92934502D01*
X70732186Y-92994810D01*
X70786459Y-93023820D01*
X70816024Y-93039623D01*
X70906994Y-93067218D01*
X71001601Y-93076536D01*
X71025308Y-93074201D01*
X71554902Y-93074201D01*
X71433820Y-93195283D01*
X71299102Y-93396903D01*
X71206307Y-93620931D01*
X71159000Y-93858757D01*
X71159000Y-94101243D01*
X71206307Y-94339069D01*
X71299102Y-94563097D01*
X71433820Y-94764717D01*
X71605283Y-94936180D01*
X71750294Y-95033073D01*
X71540000Y-95031928D01*
X71415518Y-95044188D01*
X71295820Y-95080498D01*
X71185506Y-95139463D01*
X71088815Y-95218815D01*
X71009463Y-95315506D01*
X70950498Y-95425820D01*
X70914188Y-95545518D01*
X70901928Y-95670000D01*
X70901975Y-95678557D01*
X70878397Y-95671208D01*
X70029605Y-96520000D01*
X70043748Y-96534143D01*
X69864143Y-96713748D01*
X69850000Y-96699605D01*
X69835858Y-96713748D01*
X69656253Y-96534143D01*
X69670395Y-96520000D01*
X69656253Y-96505858D01*
X69835858Y-96326253D01*
X69850000Y-96340395D01*
X70698792Y-95491603D01*
X70621157Y-95242528D01*
X70357117Y-95116629D01*
X70335772Y-95111211D01*
X70433097Y-95070898D01*
X70634717Y-94936180D01*
X70806180Y-94764717D01*
X70940898Y-94563097D01*
X71033693Y-94339069D01*
X71081000Y-94101243D01*
X71081000Y-93858757D01*
X71033693Y-93620931D01*
X70940898Y-93396903D01*
X70806180Y-93195283D01*
X70634717Y-93023820D01*
X70433097Y-92889102D01*
X70209069Y-92796307D01*
X69971243Y-92749000D01*
X69728757Y-92749000D01*
X69490931Y-92796307D01*
X69266903Y-92889102D01*
X69180999Y-92946501D01*
X69180999Y-92473499D01*
X69266903Y-92530898D01*
G37*
X69266903Y-92530898D02*
X69490931Y-92623693D01*
X69728757Y-92671000D01*
X69971243Y-92671000D01*
X70209069Y-92623693D01*
X70309566Y-92582066D01*
X70643589Y-92916089D01*
X70658700Y-92934502D01*
X70732186Y-92994810D01*
X70786459Y-93023820D01*
X70816024Y-93039623D01*
X70906994Y-93067218D01*
X71001601Y-93076536D01*
X71025308Y-93074201D01*
X71554902Y-93074201D01*
X71433820Y-93195283D01*
X71299102Y-93396903D01*
X71206307Y-93620931D01*
X71159000Y-93858757D01*
X71159000Y-94101243D01*
X71206307Y-94339069D01*
X71299102Y-94563097D01*
X71433820Y-94764717D01*
X71605283Y-94936180D01*
X71750294Y-95033073D01*
X71540000Y-95031928D01*
X71415518Y-95044188D01*
X71295820Y-95080498D01*
X71185506Y-95139463D01*
X71088815Y-95218815D01*
X71009463Y-95315506D01*
X70950498Y-95425820D01*
X70914188Y-95545518D01*
X70901928Y-95670000D01*
X70901975Y-95678557D01*
X70878397Y-95671208D01*
X70029605Y-96520000D01*
X70043748Y-96534143D01*
X69864143Y-96713748D01*
X69850000Y-96699605D01*
X69835858Y-96713748D01*
X69656253Y-96534143D01*
X69670395Y-96520000D01*
X69656253Y-96505858D01*
X69835858Y-96326253D01*
X69850000Y-96340395D01*
X70698792Y-95491603D01*
X70621157Y-95242528D01*
X70357117Y-95116629D01*
X70335772Y-95111211D01*
X70433097Y-95070898D01*
X70634717Y-94936180D01*
X70806180Y-94764717D01*
X70940898Y-94563097D01*
X71033693Y-94339069D01*
X71081000Y-94101243D01*
X71081000Y-93858757D01*
X71033693Y-93620931D01*
X70940898Y-93396903D01*
X70806180Y-93195283D01*
X70634717Y-93023820D01*
X70433097Y-92889102D01*
X70209069Y-92796307D01*
X69971243Y-92749000D01*
X69728757Y-92749000D01*
X69490931Y-92796307D01*
X69266903Y-92889102D01*
X69180999Y-92946501D01*
X69180999Y-92473499D01*
X69266903Y-92530898D01*
G36*
X75253923Y-90505255D02*
G01*
X75269036Y-90523670D01*
X75342522Y-90583978D01*
X75426360Y-90628791D01*
X75517330Y-90656386D01*
X75611937Y-90665704D01*
X75635644Y-90663369D01*
X86296281Y-90663369D01*
X86261249Y-90747944D01*
X86237000Y-90869852D01*
X86237000Y-90994148D01*
X86241862Y-91018589D01*
X74592257Y-91018589D01*
X73302282Y-89728615D01*
X73346180Y-89684717D01*
X73480898Y-89483097D01*
X73573693Y-89259069D01*
X73621000Y-89021243D01*
X73621000Y-88872331D01*
X75253923Y-90505255D01*
G37*
X75253923Y-90505255D02*
X75269036Y-90523670D01*
X75342522Y-90583978D01*
X75426360Y-90628791D01*
X75517330Y-90656386D01*
X75611937Y-90665704D01*
X75635644Y-90663369D01*
X86296281Y-90663369D01*
X86261249Y-90747944D01*
X86237000Y-90869852D01*
X86237000Y-90994148D01*
X86241862Y-91018589D01*
X74592257Y-91018589D01*
X73302282Y-89728615D01*
X73346180Y-89684717D01*
X73480898Y-89483097D01*
X73573693Y-89259069D01*
X73621000Y-89021243D01*
X73621000Y-88872331D01*
X75253923Y-90505255D01*
G36*
X79762360Y-86889538D02*
G01*
X79732347Y-87040425D01*
X79732347Y-87194269D01*
X79762360Y-87345156D01*
X79821234Y-87487289D01*
X79906705Y-87615206D01*
X80015488Y-87723989D01*
X80143405Y-87809460D01*
X80285538Y-87868334D01*
X80436425Y-87898347D01*
X80590269Y-87898347D01*
X80741156Y-87868334D01*
X80883289Y-87809460D01*
X81011206Y-87723989D01*
X81119989Y-87615206D01*
X81205460Y-87487289D01*
X81228244Y-87432283D01*
X81732602Y-87936641D01*
X81714836Y-87979531D01*
X81690587Y-88101439D01*
X81690587Y-88225735D01*
X81714836Y-88347643D01*
X81762402Y-88462478D01*
X81831457Y-88565826D01*
X81919348Y-88653717D01*
X82022696Y-88722772D01*
X82137531Y-88770338D01*
X82259439Y-88794587D01*
X82383735Y-88794587D01*
X82505643Y-88770338D01*
X82620478Y-88722772D01*
X82682833Y-88681108D01*
X82693982Y-88692257D01*
X82797330Y-88761312D01*
X82912165Y-88808878D01*
X83034073Y-88833127D01*
X83158369Y-88833127D01*
X83280277Y-88808878D01*
X83327020Y-88789516D01*
X83323013Y-88799191D01*
X83293000Y-88950078D01*
X83293000Y-89103922D01*
X83323013Y-89254809D01*
X83381887Y-89396942D01*
X83467358Y-89524859D01*
X83576141Y-89633642D01*
X83672713Y-89698169D01*
X75811837Y-89698169D01*
X73302282Y-87188615D01*
X73346180Y-87144717D01*
X73480898Y-86943097D01*
X73512832Y-86866000D01*
X79772110Y-86866000D01*
X79762360Y-86889538D01*
G37*
X79762360Y-86889538D02*
X79732347Y-87040425D01*
X79732347Y-87194269D01*
X79762360Y-87345156D01*
X79821234Y-87487289D01*
X79906705Y-87615206D01*
X80015488Y-87723989D01*
X80143405Y-87809460D01*
X80285538Y-87868334D01*
X80436425Y-87898347D01*
X80590269Y-87898347D01*
X80741156Y-87868334D01*
X80883289Y-87809460D01*
X81011206Y-87723989D01*
X81119989Y-87615206D01*
X81205460Y-87487289D01*
X81228244Y-87432283D01*
X81732602Y-87936641D01*
X81714836Y-87979531D01*
X81690587Y-88101439D01*
X81690587Y-88225735D01*
X81714836Y-88347643D01*
X81762402Y-88462478D01*
X81831457Y-88565826D01*
X81919348Y-88653717D01*
X82022696Y-88722772D01*
X82137531Y-88770338D01*
X82259439Y-88794587D01*
X82383735Y-88794587D01*
X82505643Y-88770338D01*
X82620478Y-88722772D01*
X82682833Y-88681108D01*
X82693982Y-88692257D01*
X82797330Y-88761312D01*
X82912165Y-88808878D01*
X83034073Y-88833127D01*
X83158369Y-88833127D01*
X83280277Y-88808878D01*
X83327020Y-88789516D01*
X83323013Y-88799191D01*
X83293000Y-88950078D01*
X83293000Y-89103922D01*
X83323013Y-89254809D01*
X83381887Y-89396942D01*
X83467358Y-89524859D01*
X83576141Y-89633642D01*
X83672713Y-89698169D01*
X75811837Y-89698169D01*
X73302282Y-87188615D01*
X73346180Y-87144717D01*
X73480898Y-86943097D01*
X73512832Y-86866000D01*
X79772110Y-86866000D01*
X79762360Y-86889538D01*
G36*
X71233818Y-80207486D02*
G01*
X71248931Y-80225901D01*
X71267344Y-80241012D01*
X71267345Y-80241013D01*
X71284659Y-80255222D01*
X71322417Y-80286209D01*
X71382284Y-80318209D01*
X71406255Y-80331022D01*
X71497225Y-80358617D01*
X71563917Y-80365186D01*
X71433820Y-80495283D01*
X71299102Y-80696903D01*
X71206307Y-80920931D01*
X71159000Y-81158757D01*
X71159000Y-81401243D01*
X71206307Y-81639069D01*
X71299102Y-81863097D01*
X71433820Y-82064717D01*
X71605283Y-82236180D01*
X71806903Y-82370898D01*
X72030931Y-82463693D01*
X72268757Y-82511000D01*
X72511243Y-82511000D01*
X72749069Y-82463693D01*
X72973097Y-82370898D01*
X73174717Y-82236180D01*
X73346180Y-82064717D01*
X73480898Y-81863097D01*
X73573693Y-81639069D01*
X73621000Y-81401243D01*
X73621000Y-81158757D01*
X73573693Y-80920931D01*
X73480898Y-80696903D01*
X73346180Y-80495283D01*
X73216497Y-80365600D01*
X74897656Y-80365600D01*
X80386055Y-85854000D01*
X73512832Y-85854000D01*
X73480898Y-85776903D01*
X73346180Y-85575283D01*
X73174717Y-85403820D01*
X72973097Y-85269102D01*
X72749069Y-85176307D01*
X72511243Y-85129000D01*
X72268757Y-85129000D01*
X72030931Y-85176307D01*
X71806903Y-85269102D01*
X71605283Y-85403820D01*
X71433820Y-85575283D01*
X71299102Y-85776903D01*
X71206307Y-86000931D01*
X71159000Y-86238757D01*
X71159000Y-86481243D01*
X71206307Y-86719069D01*
X71299102Y-86943097D01*
X71356501Y-87029001D01*
X71201501Y-87029001D01*
X70992066Y-86819566D01*
X71033693Y-86719069D01*
X71081000Y-86481243D01*
X71081000Y-86238757D01*
X71033693Y-86000931D01*
X70940898Y-85776903D01*
X70806180Y-85575283D01*
X70634717Y-85403820D01*
X70433097Y-85269102D01*
X70209069Y-85176307D01*
X69971243Y-85129000D01*
X69728757Y-85129000D01*
X69490931Y-85176307D01*
X69266903Y-85269102D01*
X69180999Y-85326501D01*
X69180999Y-85171500D01*
X69390434Y-84962066D01*
X69490931Y-85003693D01*
X69728757Y-85051000D01*
X69971243Y-85051000D01*
X70209069Y-85003693D01*
X70433097Y-84910898D01*
X70634717Y-84776180D01*
X70806180Y-84604717D01*
X70940898Y-84403097D01*
X71033693Y-84179069D01*
X71081000Y-83941243D01*
X71081000Y-83698757D01*
X71159000Y-83698757D01*
X71159000Y-83941243D01*
X71206307Y-84179069D01*
X71299102Y-84403097D01*
X71433820Y-84604717D01*
X71605283Y-84776180D01*
X71806903Y-84910898D01*
X72030931Y-85003693D01*
X72268757Y-85051000D01*
X72511243Y-85051000D01*
X72627343Y-85027906D01*
X74553000Y-85027906D01*
X74553000Y-85152202D01*
X74577249Y-85274110D01*
X74624815Y-85388945D01*
X74693870Y-85492293D01*
X74781761Y-85580184D01*
X74885109Y-85649239D01*
X74999944Y-85696805D01*
X75121852Y-85721054D01*
X75246148Y-85721054D01*
X75368056Y-85696805D01*
X75482891Y-85649239D01*
X75586239Y-85580184D01*
X75674130Y-85492293D01*
X75743185Y-85388945D01*
X75790751Y-85274110D01*
X75815000Y-85152202D01*
X75815000Y-85027906D01*
X75790751Y-84905998D01*
X75788500Y-84900564D01*
X75788500Y-83083988D01*
X75841685Y-83004391D01*
X75889251Y-82889556D01*
X75913500Y-82767648D01*
X75913500Y-82643352D01*
X75889251Y-82521444D01*
X75841685Y-82406609D01*
X75772630Y-82303261D01*
X75684739Y-82215370D01*
X75581391Y-82146315D01*
X75466556Y-82098749D01*
X75344648Y-82074500D01*
X75220352Y-82074500D01*
X75098444Y-82098749D01*
X74983609Y-82146315D01*
X74880261Y-82215370D01*
X74792370Y-82303261D01*
X74723315Y-82406609D01*
X74675749Y-82521444D01*
X74651500Y-82643352D01*
X74651500Y-82767648D01*
X74675749Y-82889556D01*
X74723315Y-83004391D01*
X74776500Y-83083988D01*
X74776501Y-84605184D01*
X74693870Y-84687815D01*
X74624815Y-84791163D01*
X74577249Y-84905998D01*
X74553000Y-85027906D01*
X72627343Y-85027906D01*
X72749069Y-85003693D01*
X72973097Y-84910898D01*
X73174717Y-84776180D01*
X73346180Y-84604717D01*
X73480898Y-84403097D01*
X73573693Y-84179069D01*
X73621000Y-83941243D01*
X73621000Y-83698757D01*
X73573693Y-83460931D01*
X73480898Y-83236903D01*
X73346180Y-83035283D01*
X73174717Y-82863820D01*
X72973097Y-82729102D01*
X72749069Y-82636307D01*
X72511243Y-82589000D01*
X72268757Y-82589000D01*
X72030931Y-82636307D01*
X71806903Y-82729102D01*
X71605283Y-82863820D01*
X71433820Y-83035283D01*
X71299102Y-83236903D01*
X71206307Y-83460931D01*
X71159000Y-83698757D01*
X71081000Y-83698757D01*
X71033693Y-83460931D01*
X70940898Y-83236903D01*
X70806180Y-83035283D01*
X70634717Y-82863820D01*
X70433097Y-82729102D01*
X70209069Y-82636307D01*
X69971243Y-82589000D01*
X69728757Y-82589000D01*
X69490931Y-82636307D01*
X69266903Y-82729102D01*
X69065283Y-82863820D01*
X68893820Y-83035283D01*
X68777789Y-83208936D01*
X68777789Y-83034710D01*
X69390434Y-82422066D01*
X69490931Y-82463693D01*
X69728757Y-82511000D01*
X69971243Y-82511000D01*
X70209069Y-82463693D01*
X70433097Y-82370898D01*
X70634717Y-82236180D01*
X70806180Y-82064717D01*
X70940898Y-81863097D01*
X71033693Y-81639069D01*
X71081000Y-81401243D01*
X71081000Y-81158757D01*
X71033693Y-80920931D01*
X70940898Y-80696903D01*
X70806180Y-80495283D01*
X70634717Y-80323820D01*
X70433097Y-80189102D01*
X70209069Y-80096307D01*
X70044548Y-80063581D01*
X70174488Y-79933642D01*
X70179426Y-79929589D01*
X70209069Y-79923693D01*
X70433097Y-79830898D01*
X70634717Y-79696180D01*
X70678615Y-79652282D01*
X71233818Y-80207486D01*
G37*
X71233818Y-80207486D02*
X71248931Y-80225901D01*
X71267344Y-80241012D01*
X71267345Y-80241013D01*
X71284659Y-80255222D01*
X71322417Y-80286209D01*
X71382284Y-80318209D01*
X71406255Y-80331022D01*
X71497225Y-80358617D01*
X71563917Y-80365186D01*
X71433820Y-80495283D01*
X71299102Y-80696903D01*
X71206307Y-80920931D01*
X71159000Y-81158757D01*
X71159000Y-81401243D01*
X71206307Y-81639069D01*
X71299102Y-81863097D01*
X71433820Y-82064717D01*
X71605283Y-82236180D01*
X71806903Y-82370898D01*
X72030931Y-82463693D01*
X72268757Y-82511000D01*
X72511243Y-82511000D01*
X72749069Y-82463693D01*
X72973097Y-82370898D01*
X73174717Y-82236180D01*
X73346180Y-82064717D01*
X73480898Y-81863097D01*
X73573693Y-81639069D01*
X73621000Y-81401243D01*
X73621000Y-81158757D01*
X73573693Y-80920931D01*
X73480898Y-80696903D01*
X73346180Y-80495283D01*
X73216497Y-80365600D01*
X74897656Y-80365600D01*
X80386055Y-85854000D01*
X73512832Y-85854000D01*
X73480898Y-85776903D01*
X73346180Y-85575283D01*
X73174717Y-85403820D01*
X72973097Y-85269102D01*
X72749069Y-85176307D01*
X72511243Y-85129000D01*
X72268757Y-85129000D01*
X72030931Y-85176307D01*
X71806903Y-85269102D01*
X71605283Y-85403820D01*
X71433820Y-85575283D01*
X71299102Y-85776903D01*
X71206307Y-86000931D01*
X71159000Y-86238757D01*
X71159000Y-86481243D01*
X71206307Y-86719069D01*
X71299102Y-86943097D01*
X71356501Y-87029001D01*
X71201501Y-87029001D01*
X70992066Y-86819566D01*
X71033693Y-86719069D01*
X71081000Y-86481243D01*
X71081000Y-86238757D01*
X71033693Y-86000931D01*
X70940898Y-85776903D01*
X70806180Y-85575283D01*
X70634717Y-85403820D01*
X70433097Y-85269102D01*
X70209069Y-85176307D01*
X69971243Y-85129000D01*
X69728757Y-85129000D01*
X69490931Y-85176307D01*
X69266903Y-85269102D01*
X69180999Y-85326501D01*
X69180999Y-85171500D01*
X69390434Y-84962066D01*
X69490931Y-85003693D01*
X69728757Y-85051000D01*
X69971243Y-85051000D01*
X70209069Y-85003693D01*
X70433097Y-84910898D01*
X70634717Y-84776180D01*
X70806180Y-84604717D01*
X70940898Y-84403097D01*
X71033693Y-84179069D01*
X71081000Y-83941243D01*
X71081000Y-83698757D01*
X71159000Y-83698757D01*
X71159000Y-83941243D01*
X71206307Y-84179069D01*
X71299102Y-84403097D01*
X71433820Y-84604717D01*
X71605283Y-84776180D01*
X71806903Y-84910898D01*
X72030931Y-85003693D01*
X72268757Y-85051000D01*
X72511243Y-85051000D01*
X72627343Y-85027906D01*
X74553000Y-85027906D01*
X74553000Y-85152202D01*
X74577249Y-85274110D01*
X74624815Y-85388945D01*
X74693870Y-85492293D01*
X74781761Y-85580184D01*
X74885109Y-85649239D01*
X74999944Y-85696805D01*
X75121852Y-85721054D01*
X75246148Y-85721054D01*
X75368056Y-85696805D01*
X75482891Y-85649239D01*
X75586239Y-85580184D01*
X75674130Y-85492293D01*
X75743185Y-85388945D01*
X75790751Y-85274110D01*
X75815000Y-85152202D01*
X75815000Y-85027906D01*
X75790751Y-84905998D01*
X75788500Y-84900564D01*
X75788500Y-83083988D01*
X75841685Y-83004391D01*
X75889251Y-82889556D01*
X75913500Y-82767648D01*
X75913500Y-82643352D01*
X75889251Y-82521444D01*
X75841685Y-82406609D01*
X75772630Y-82303261D01*
X75684739Y-82215370D01*
X75581391Y-82146315D01*
X75466556Y-82098749D01*
X75344648Y-82074500D01*
X75220352Y-82074500D01*
X75098444Y-82098749D01*
X74983609Y-82146315D01*
X74880261Y-82215370D01*
X74792370Y-82303261D01*
X74723315Y-82406609D01*
X74675749Y-82521444D01*
X74651500Y-82643352D01*
X74651500Y-82767648D01*
X74675749Y-82889556D01*
X74723315Y-83004391D01*
X74776500Y-83083988D01*
X74776501Y-84605184D01*
X74693870Y-84687815D01*
X74624815Y-84791163D01*
X74577249Y-84905998D01*
X74553000Y-85027906D01*
X72627343Y-85027906D01*
X72749069Y-85003693D01*
X72973097Y-84910898D01*
X73174717Y-84776180D01*
X73346180Y-84604717D01*
X73480898Y-84403097D01*
X73573693Y-84179069D01*
X73621000Y-83941243D01*
X73621000Y-83698757D01*
X73573693Y-83460931D01*
X73480898Y-83236903D01*
X73346180Y-83035283D01*
X73174717Y-82863820D01*
X72973097Y-82729102D01*
X72749069Y-82636307D01*
X72511243Y-82589000D01*
X72268757Y-82589000D01*
X72030931Y-82636307D01*
X71806903Y-82729102D01*
X71605283Y-82863820D01*
X71433820Y-83035283D01*
X71299102Y-83236903D01*
X71206307Y-83460931D01*
X71159000Y-83698757D01*
X71081000Y-83698757D01*
X71033693Y-83460931D01*
X70940898Y-83236903D01*
X70806180Y-83035283D01*
X70634717Y-82863820D01*
X70433097Y-82729102D01*
X70209069Y-82636307D01*
X69971243Y-82589000D01*
X69728757Y-82589000D01*
X69490931Y-82636307D01*
X69266903Y-82729102D01*
X69065283Y-82863820D01*
X68893820Y-83035283D01*
X68777789Y-83208936D01*
X68777789Y-83034710D01*
X69390434Y-82422066D01*
X69490931Y-82463693D01*
X69728757Y-82511000D01*
X69971243Y-82511000D01*
X70209069Y-82463693D01*
X70433097Y-82370898D01*
X70634717Y-82236180D01*
X70806180Y-82064717D01*
X70940898Y-81863097D01*
X71033693Y-81639069D01*
X71081000Y-81401243D01*
X71081000Y-81158757D01*
X71033693Y-80920931D01*
X70940898Y-80696903D01*
X70806180Y-80495283D01*
X70634717Y-80323820D01*
X70433097Y-80189102D01*
X70209069Y-80096307D01*
X70044548Y-80063581D01*
X70174488Y-79933642D01*
X70179426Y-79929589D01*
X70209069Y-79923693D01*
X70433097Y-79830898D01*
X70634717Y-79696180D01*
X70678615Y-79652282D01*
X71233818Y-80207486D01*
%TD*%
M02*
