%TF.GenerationSoftware,KiCad,Pcbnew,5.1.6*%
%TF.CreationDate,2020-11-22T23:26:00-03:00*%
%TF.ProjectId,MCU_Comms_Control,4d43555f-436f-46d6-9d73-5f436f6e7472,rev?*%
%TF.SameCoordinates,Original*%
%TF.FileFunction,Soldermask,Bot*%
%TF.FilePolarity,Negative*%
%FSLAX46Y46*%
G04 Gerber Fmt 4.6, Leading zero omitted, Abs format (unit mm)*
G04 Created by KiCad (PCBNEW 5.1.6) date 2020-11-22 23:26:00*
%MOMM*%
%LPD*%
G01*
G04 APERTURE LIST*
%ADD10C,0.800000*%
%ADD11C,6.400000*%
%ADD12C,1.450000*%
%ADD13O,1.900000X1.200000*%
%ADD14O,2.700000X3.300000*%
%ADD15C,1.700000*%
%ADD16R,1.700000X1.700000*%
%ADD17O,1.700000X1.700000*%
G04 APERTURE END LIST*
D10*
%TO.C,REF\u002A\u002A*%
X110409056Y-43768944D03*
X108712000Y-43066000D03*
X107014944Y-43768944D03*
X106312000Y-45466000D03*
X107014944Y-47163056D03*
X108712000Y-47866000D03*
X110409056Y-47163056D03*
X111112000Y-45466000D03*
D11*
X108712000Y-45466000D03*
%TD*%
D10*
%TO.C,REF\u002A\u002A*%
X71801056Y-43768944D03*
X70104000Y-43066000D03*
X68406944Y-43768944D03*
X67704000Y-45466000D03*
X68406944Y-47163056D03*
X70104000Y-47866000D03*
X71801056Y-47163056D03*
X72504000Y-45466000D03*
D11*
X70104000Y-45466000D03*
%TD*%
D10*
%TO.C,REF\u002A\u002A*%
X110409056Y-104474944D03*
X108712000Y-103772000D03*
X107014944Y-104474944D03*
X106312000Y-106172000D03*
X107014944Y-107869056D03*
X108712000Y-108572000D03*
X110409056Y-107869056D03*
X111112000Y-106172000D03*
D11*
X108712000Y-106172000D03*
%TD*%
D10*
%TO.C,REF\u002A\u002A*%
X71801056Y-104474944D03*
X70104000Y-103772000D03*
X68406944Y-104474944D03*
X67704000Y-106172000D03*
X68406944Y-107869056D03*
X70104000Y-108572000D03*
X71801056Y-107869056D03*
X72504000Y-106172000D03*
D11*
X70104000Y-106172000D03*
%TD*%
D12*
%TO.C,J1*%
X108011500Y-97750000D03*
X108011500Y-92750000D03*
D13*
X110711500Y-98750000D03*
X110711500Y-91750000D03*
%TD*%
%TO.C,J2*%
G36*
G01*
X97616000Y-49400001D02*
X97616000Y-52199999D01*
G75*
G02*
X97365999Y-52450000I-250001J0D01*
G01*
X95166001Y-52450000D01*
G75*
G02*
X94916000Y-52199999I0J250001D01*
G01*
X94916000Y-49400001D01*
G75*
G02*
X95166001Y-49150000I250001J0D01*
G01*
X97365999Y-49150000D01*
G75*
G02*
X97616000Y-49400001I0J-250001D01*
G01*
G37*
D14*
X92066000Y-50800000D03*
X87866000Y-50800000D03*
X83666000Y-50800000D03*
X96266000Y-45300000D03*
X92066000Y-45300000D03*
X87866000Y-45300000D03*
X83666000Y-45300000D03*
%TD*%
%TO.C,J3*%
G36*
G01*
X73240000Y-95920000D02*
X73240000Y-97120000D01*
G75*
G02*
X72990000Y-97370000I-250000J0D01*
G01*
X71790000Y-97370000D01*
G75*
G02*
X71540000Y-97120000I0J250000D01*
G01*
X71540000Y-95920000D01*
G75*
G02*
X71790000Y-95670000I250000J0D01*
G01*
X72990000Y-95670000D01*
G75*
G02*
X73240000Y-95920000I0J-250000D01*
G01*
G37*
D15*
X72390000Y-93980000D03*
X72390000Y-91440000D03*
X72390000Y-88900000D03*
X72390000Y-86360000D03*
X72390000Y-83820000D03*
X72390000Y-81280000D03*
X72390000Y-78740000D03*
X72390000Y-76200000D03*
X72390000Y-73660000D03*
X72390000Y-71120000D03*
X72390000Y-68580000D03*
X72390000Y-66040000D03*
X69850000Y-96520000D03*
X69850000Y-93980000D03*
X69850000Y-91440000D03*
X69850000Y-88900000D03*
X69850000Y-86360000D03*
X69850000Y-83820000D03*
X69850000Y-81280000D03*
X69850000Y-78740000D03*
X69850000Y-76200000D03*
X69850000Y-73660000D03*
X69850000Y-71120000D03*
X69850000Y-68580000D03*
X69850000Y-66040000D03*
%TD*%
D16*
%TO.C,J4*%
X110236000Y-86614000D03*
D17*
X107696000Y-86614000D03*
X110236000Y-84074000D03*
X107696000Y-84074000D03*
X110236000Y-81534000D03*
X107696000Y-81534000D03*
X110236000Y-78994000D03*
X107696000Y-78994000D03*
X110236000Y-76454000D03*
X107696000Y-76454000D03*
%TD*%
D16*
%TO.C,J5*%
X110236000Y-65024000D03*
D17*
X110236000Y-67564000D03*
X110236000Y-70104000D03*
X110236000Y-72644000D03*
%TD*%
M02*
